ISO-10303-21;
HEADER;
/* Generated by software containing ST-Developer
 * from STEP Tools, Inc. (www.steptools.com) 
 */
/* OPTION: using custom renumber hook */

FILE_DESCRIPTION(
/* description */ ('STEP AP242 Edition 2',
'CAx-IF Rec.Pracs.---Representation and Presentation of Product Manufa
cturing Information (PMI)---4.0---2014-10-13',
'CAx-IF Rec.Pracs.---3D Tessellated Geometry---0.4---2014-09-14','2;1',
'CAx-IF Rec.Pracs.---User Defined Attributes---1.5---2016-08-15'),
/* implementation_level */ '2;1');

FILE_NAME(
/* name */ '2f-85_base - 2f-85_base_1',
/* time_stamp */ '2026-04-28T10:55:41Z',
/* author */ (''),
/* organization */ (''),
/* preprocessor_version */ 'ST-DEVELOPER v20',
/* originating_system */ 'ONSHAPE BY PTC INC, 1.214',
/* authorisation */ '  ');

FILE_SCHEMA (('AP242_MANAGED_MODEL_BASED_3D_ENGINEERING_MIM_LF { 1 0 10303 442 3 1 4 }'));
ENDSEC;

DATA;
#10=SHAPE_REPRESENTATION_RELATIONSHIP('','',#605,#11);
#11=ADVANCED_BREP_SHAPE_REPRESENTATION('',(#603),#983);
#12=CIRCLE('',#609,0.0125);
#13=CIRCLE('',#610,0.0125);
#14=CIRCLE('',#613,0.015);
#15=CIRCLE('',#614,0.015);
#16=CIRCLE('',#617,0.015);
#17=CIRCLE('',#618,0.015);
#18=CIRCLE('',#621,0.0125);
#19=CIRCLE('',#622,0.0125);
#20=CIRCLE('',#637,0.00185);
#21=CIRCLE('',#638,0.00185);
#22=CIRCLE('',#641,0.00185);
#23=CIRCLE('',#642,0.00185);
#24=CIRCLE('',#644,0.004);
#25=CIRCLE('',#645,0.004);
#26=CIRCLE('',#646,0.00155);
#27=CIRCLE('',#647,0.00155);
#28=CIRCLE('',#649,0.004);
#29=CIRCLE('',#650,0.004);
#30=CIRCLE('',#651,0.00155);
#31=CIRCLE('',#652,0.00155);
#32=CYLINDRICAL_SURFACE('',#608,0.0125);
#33=CYLINDRICAL_SURFACE('',#612,0.015);
#34=CYLINDRICAL_SURFACE('',#616,0.015);
#35=CYLINDRICAL_SURFACE('',#620,0.0125);
#36=CYLINDRICAL_SURFACE('',#636,0.00185);
#37=CYLINDRICAL_SURFACE('',#640,0.00185);
#38=CYLINDRICAL_SURFACE('',#653,0.00155);
#39=CYLINDRICAL_SURFACE('',#654,0.00155);
#40=CYLINDRICAL_SURFACE('',#655,0.004);
#41=CYLINDRICAL_SURFACE('',#656,0.004);
#42=ORIENTED_EDGE('',*,*,#198,.T.);
#43=ORIENTED_EDGE('',*,*,#199,.F.);
#44=ORIENTED_EDGE('',*,*,#200,.F.);
#45=ORIENTED_EDGE('',*,*,#201,.T.);
#46=ORIENTED_EDGE('',*,*,#202,.F.);
#47=ORIENTED_EDGE('',*,*,#201,.F.);
#48=ORIENTED_EDGE('',*,*,#203,.T.);
#49=ORIENTED_EDGE('',*,*,#204,.T.);
#50=ORIENTED_EDGE('',*,*,#205,.T.);
#51=ORIENTED_EDGE('',*,*,#204,.F.);
#52=ORIENTED_EDGE('',*,*,#206,.F.);
#53=ORIENTED_EDGE('',*,*,#207,.T.);
#54=ORIENTED_EDGE('',*,*,#208,.F.);
#55=ORIENTED_EDGE('',*,*,#207,.F.);
#56=ORIENTED_EDGE('',*,*,#209,.T.);
#57=ORIENTED_EDGE('',*,*,#210,.T.);
#58=ORIENTED_EDGE('',*,*,#211,.T.);
#59=ORIENTED_EDGE('',*,*,#210,.F.);
#60=ORIENTED_EDGE('',*,*,#212,.F.);
#61=ORIENTED_EDGE('',*,*,#213,.T.);
#62=ORIENTED_EDGE('',*,*,#214,.F.);
#63=ORIENTED_EDGE('',*,*,#213,.F.);
#64=ORIENTED_EDGE('',*,*,#215,.T.);
#65=ORIENTED_EDGE('',*,*,#216,.T.);
#66=ORIENTED_EDGE('',*,*,#217,.T.);
#67=ORIENTED_EDGE('',*,*,#216,.F.);
#68=ORIENTED_EDGE('',*,*,#218,.F.);
#69=ORIENTED_EDGE('',*,*,#219,.T.);
#70=ORIENTED_EDGE('',*,*,#220,.F.);
#71=ORIENTED_EDGE('',*,*,#219,.F.);
#72=ORIENTED_EDGE('',*,*,#221,.T.);
#73=ORIENTED_EDGE('',*,*,#222,.T.);
#74=ORIENTED_EDGE('',*,*,#223,.F.);
#75=ORIENTED_EDGE('',*,*,#222,.F.);
#76=ORIENTED_EDGE('',*,*,#224,.T.);
#77=ORIENTED_EDGE('',*,*,#225,.T.);
#78=ORIENTED_EDGE('',*,*,#226,.F.);
#79=ORIENTED_EDGE('',*,*,#225,.F.);
#80=ORIENTED_EDGE('',*,*,#227,.T.);
#81=ORIENTED_EDGE('',*,*,#228,.T.);
#82=ORIENTED_EDGE('',*,*,#229,.F.);
#83=ORIENTED_EDGE('',*,*,#228,.F.);
#84=ORIENTED_EDGE('',*,*,#230,.T.);
#85=ORIENTED_EDGE('',*,*,#231,.T.);
#86=ORIENTED_EDGE('',*,*,#232,.F.);
#87=ORIENTED_EDGE('',*,*,#231,.F.);
#88=ORIENTED_EDGE('',*,*,#233,.T.);
#89=ORIENTED_EDGE('',*,*,#234,.T.);
#90=ORIENTED_EDGE('',*,*,#235,.T.);
#91=ORIENTED_EDGE('',*,*,#234,.F.);
#92=ORIENTED_EDGE('',*,*,#236,.F.);
#93=ORIENTED_EDGE('',*,*,#237,.T.);
#94=ORIENTED_EDGE('',*,*,#238,.T.);
#95=ORIENTED_EDGE('',*,*,#237,.F.);
#96=ORIENTED_EDGE('',*,*,#239,.F.);
#97=ORIENTED_EDGE('',*,*,#240,.T.);
#98=ORIENTED_EDGE('',*,*,#241,.F.);
#99=ORIENTED_EDGE('',*,*,#240,.F.);
#100=ORIENTED_EDGE('',*,*,#242,.T.);
#101=ORIENTED_EDGE('',*,*,#243,.T.);
#102=ORIENTED_EDGE('',*,*,#244,.F.);
#103=ORIENTED_EDGE('',*,*,#243,.F.);
#104=ORIENTED_EDGE('',*,*,#245,.T.);
#105=ORIENTED_EDGE('',*,*,#246,.T.);
#106=ORIENTED_EDGE('',*,*,#247,.T.);
#107=ORIENTED_EDGE('',*,*,#246,.F.);
#108=ORIENTED_EDGE('',*,*,#248,.F.);
#109=ORIENTED_EDGE('',*,*,#249,.T.);
#110=ORIENTED_EDGE('',*,*,#250,.T.);
#111=ORIENTED_EDGE('',*,*,#249,.F.);
#112=ORIENTED_EDGE('',*,*,#251,.F.);
#113=ORIENTED_EDGE('',*,*,#252,.T.);
#114=ORIENTED_EDGE('',*,*,#253,.F.);
#115=ORIENTED_EDGE('',*,*,#252,.F.);
#116=ORIENTED_EDGE('',*,*,#254,.T.);
#117=ORIENTED_EDGE('',*,*,#255,.T.);
#118=ORIENTED_EDGE('',*,*,#256,.T.);
#119=ORIENTED_EDGE('',*,*,#255,.F.);
#120=ORIENTED_EDGE('',*,*,#257,.F.);
#121=ORIENTED_EDGE('',*,*,#258,.T.);
#122=ORIENTED_EDGE('',*,*,#259,.T.);
#123=ORIENTED_EDGE('',*,*,#258,.F.);
#124=ORIENTED_EDGE('',*,*,#260,.F.);
#125=ORIENTED_EDGE('',*,*,#261,.T.);
#126=ORIENTED_EDGE('',*,*,#262,.F.);
#127=ORIENTED_EDGE('',*,*,#263,.T.);
#128=ORIENTED_EDGE('',*,*,#264,.T.);
#129=ORIENTED_EDGE('',*,*,#261,.F.);
#130=ORIENTED_EDGE('',*,*,#265,.F.);
#131=ORIENTED_EDGE('',*,*,#199,.T.);
#132=ORIENTED_EDGE('',*,*,#266,.F.);
#133=ORIENTED_EDGE('',*,*,#267,.T.);
#134=ORIENTED_EDGE('',*,*,#268,.T.);
#135=ORIENTED_EDGE('',*,*,#269,.T.);
#136=ORIENTED_EDGE('',*,*,#270,.T.);
#137=ORIENTED_EDGE('',*,*,#271,.T.);
#138=ORIENTED_EDGE('',*,*,#200,.T.);
#139=ORIENTED_EDGE('',*,*,#265,.T.);
#140=ORIENTED_EDGE('',*,*,#260,.T.);
#141=ORIENTED_EDGE('',*,*,#257,.T.);
#142=ORIENTED_EDGE('',*,*,#254,.F.);
#143=ORIENTED_EDGE('',*,*,#251,.T.);
#144=ORIENTED_EDGE('',*,*,#248,.T.);
#145=ORIENTED_EDGE('',*,*,#245,.F.);
#146=ORIENTED_EDGE('',*,*,#242,.F.);
#147=ORIENTED_EDGE('',*,*,#239,.T.);
#148=ORIENTED_EDGE('',*,*,#236,.T.);
#149=ORIENTED_EDGE('',*,*,#233,.F.);
#150=ORIENTED_EDGE('',*,*,#230,.F.);
#151=ORIENTED_EDGE('',*,*,#227,.F.);
#152=ORIENTED_EDGE('',*,*,#224,.F.);
#153=ORIENTED_EDGE('',*,*,#221,.F.);
#154=ORIENTED_EDGE('',*,*,#218,.T.);
#155=ORIENTED_EDGE('',*,*,#215,.F.);
#156=ORIENTED_EDGE('',*,*,#212,.T.);
#157=ORIENTED_EDGE('',*,*,#209,.F.);
#158=ORIENTED_EDGE('',*,*,#206,.T.);
#159=ORIENTED_EDGE('',*,*,#203,.F.);
#160=ORIENTED_EDGE('',*,*,#262,.T.);
#161=ORIENTED_EDGE('',*,*,#266,.T.);
#162=ORIENTED_EDGE('',*,*,#272,.F.);
#163=ORIENTED_EDGE('',*,*,#273,.F.);
#164=ORIENTED_EDGE('',*,*,#274,.F.);
#165=ORIENTED_EDGE('',*,*,#275,.F.);
#166=ORIENTED_EDGE('',*,*,#198,.F.);
#167=ORIENTED_EDGE('',*,*,#202,.T.);
#168=ORIENTED_EDGE('',*,*,#205,.F.);
#169=ORIENTED_EDGE('',*,*,#208,.T.);
#170=ORIENTED_EDGE('',*,*,#211,.F.);
#171=ORIENTED_EDGE('',*,*,#214,.T.);
#172=ORIENTED_EDGE('',*,*,#217,.F.);
#173=ORIENTED_EDGE('',*,*,#220,.T.);
#174=ORIENTED_EDGE('',*,*,#223,.T.);
#175=ORIENTED_EDGE('',*,*,#226,.T.);
#176=ORIENTED_EDGE('',*,*,#229,.T.);
#177=ORIENTED_EDGE('',*,*,#232,.T.);
#178=ORIENTED_EDGE('',*,*,#235,.F.);
#179=ORIENTED_EDGE('',*,*,#238,.F.);
#180=ORIENTED_EDGE('',*,*,#241,.T.);
#181=ORIENTED_EDGE('',*,*,#244,.T.);
#182=ORIENTED_EDGE('',*,*,#247,.F.);
#183=ORIENTED_EDGE('',*,*,#250,.F.);
#184=ORIENTED_EDGE('',*,*,#253,.T.);
#185=ORIENTED_EDGE('',*,*,#256,.F.);
#186=ORIENTED_EDGE('',*,*,#259,.F.);
#187=ORIENTED_EDGE('',*,*,#264,.F.);
#188=ORIENTED_EDGE('',*,*,#263,.F.);
#189=ORIENTED_EDGE('',*,*,#267,.F.);
#190=ORIENTED_EDGE('',*,*,#275,.T.);
#191=ORIENTED_EDGE('',*,*,#271,.F.);
#192=ORIENTED_EDGE('',*,*,#274,.T.);
#193=ORIENTED_EDGE('',*,*,#270,.F.);
#194=ORIENTED_EDGE('',*,*,#273,.T.);
#195=ORIENTED_EDGE('',*,*,#269,.F.);
#196=ORIENTED_EDGE('',*,*,#272,.T.);
#197=ORIENTED_EDGE('',*,*,#268,.F.);
#198=EDGE_CURVE('',#276,#277,#332,.T.);
#199=EDGE_CURVE('',#278,#277,#333,.T.);
#200=EDGE_CURVE('',#279,#278,#334,.T.);
#201=EDGE_CURVE('',#279,#276,#335,.T.);
#202=EDGE_CURVE('',#276,#280,#12,.T.);
#203=EDGE_CURVE('',#279,#281,#13,.T.);
#204=EDGE_CURVE('',#281,#280,#336,.T.);
#205=EDGE_CURVE('',#282,#280,#337,.T.);
#206=EDGE_CURVE('',#283,#281,#338,.T.);
#207=EDGE_CURVE('',#283,#282,#339,.T.);
#208=EDGE_CURVE('',#282,#284,#14,.T.);
#209=EDGE_CURVE('',#283,#285,#15,.T.);
#210=EDGE_CURVE('',#285,#284,#340,.T.);
#211=EDGE_CURVE('',#286,#284,#341,.T.);
#212=EDGE_CURVE('',#287,#285,#342,.T.);
#213=EDGE_CURVE('',#287,#286,#343,.T.);
#214=EDGE_CURVE('',#286,#288,#16,.T.);
#215=EDGE_CURVE('',#287,#289,#17,.T.);
#216=EDGE_CURVE('',#289,#288,#344,.T.);
#217=EDGE_CURVE('',#290,#288,#345,.T.);
#218=EDGE_CURVE('',#291,#289,#346,.T.);
#219=EDGE_CURVE('',#291,#290,#347,.T.);
#220=EDGE_CURVE('',#290,#292,#18,.T.);
#221=EDGE_CURVE('',#291,#293,#19,.T.);
#222=EDGE_CURVE('',#293,#292,#348,.T.);
#223=EDGE_CURVE('',#292,#294,#349,.T.);
#224=EDGE_CURVE('',#293,#295,#350,.T.);
#225=EDGE_CURVE('',#295,#294,#351,.T.);
#226=EDGE_CURVE('',#294,#296,#352,.T.);
#227=EDGE_CURVE('',#295,#297,#353,.T.);
#228=EDGE_CURVE('',#297,#296,#354,.T.);
#229=EDGE_CURVE('',#296,#298,#355,.T.);
#230=EDGE_CURVE('',#297,#299,#356,.T.);
#231=EDGE_CURVE('',#299,#298,#357,.T.);
#232=EDGE_CURVE('',#298,#300,#358,.T.);
#233=EDGE_CURVE('',#299,#301,#359,.T.);
#234=EDGE_CURVE('',#301,#300,#360,.T.);
#235=EDGE_CURVE('',#302,#300,#361,.T.);
#236=EDGE_CURVE('',#303,#301,#362,.T.);
#237=EDGE_CURVE('',#303,#302,#363,.T.);
#238=EDGE_CURVE('',#304,#302,#364,.T.);
#239=EDGE_CURVE('',#305,#303,#365,.T.);
#240=EDGE_CURVE('',#305,#304,#366,.T.);
#241=EDGE_CURVE('',#304,#306,#367,.T.);
#242=EDGE_CURVE('',#305,#307,#368,.T.);
#243=EDGE_CURVE('',#307,#306,#369,.T.);
#244=EDGE_CURVE('',#306,#308,#370,.T.);
#245=EDGE_CURVE('',#307,#309,#371,.T.);
#246=EDGE_CURVE('',#309,#308,#372,.T.);
#247=EDGE_CURVE('',#310,#308,#373,.T.);
#248=EDGE_CURVE('',#311,#309,#374,.T.);
#249=EDGE_CURVE('',#311,#310,#375,.T.);
#250=EDGE_CURVE('',#312,#310,#376,.T.);
#251=EDGE_CURVE('',#313,#311,#377,.T.);
#252=EDGE_CURVE('',#313,#312,#378,.T.);
#253=EDGE_CURVE('',#312,#314,#379,.T.);
#254=EDGE_CURVE('',#313,#315,#380,.T.);
#255=EDGE_CURVE('',#315,#314,#381,.T.);
#256=EDGE_CURVE('',#316,#314,#382,.T.);
#257=EDGE_CURVE('',#317,#315,#383,.T.);
#258=EDGE_CURVE('',#317,#316,#384,.T.);
#259=EDGE_CURVE('',#318,#316,#385,.T.);
#260=EDGE_CURVE('',#319,#317,#386,.T.);
#261=EDGE_CURVE('',#319,#318,#387,.T.);
#262=EDGE_CURVE('',#320,#320,#20,.T.);
#263=EDGE_CURVE('',#321,#321,#21,.T.);
#264=EDGE_CURVE('',#277,#318,#388,.T.);
#265=EDGE_CURVE('',#278,#319,#389,.T.);
#266=EDGE_CURVE('',#322,#322,#22,.T.);
#267=EDGE_CURVE('',#323,#323,#23,.T.);
#268=EDGE_CURVE('',#324,#324,#24,.T.);
#269=EDGE_CURVE('',#325,#325,#25,.T.);
#270=EDGE_CURVE('',#326,#326,#26,.T.);
#271=EDGE_CURVE('',#327,#327,#27,.T.);
#272=EDGE_CURVE('',#328,#328,#28,.T.);
#273=EDGE_CURVE('',#329,#329,#29,.T.);
#274=EDGE_CURVE('',#330,#330,#30,.T.);
#275=EDGE_CURVE('',#331,#331,#31,.T.);
#276=VERTEX_POINT('',#820);
#277=VERTEX_POINT('',#821);
#278=VERTEX_POINT('',#823);
#279=VERTEX_POINT('',#825);
#280=VERTEX_POINT('',#829);
#281=VERTEX_POINT('',#831);
#282=VERTEX_POINT('',#835);
#283=VERTEX_POINT('',#837);
#284=VERTEX_POINT('',#841);
#285=VERTEX_POINT('',#843);
#286=VERTEX_POINT('',#847);
#287=VERTEX_POINT('',#849);
#288=VERTEX_POINT('',#853);
#289=VERTEX_POINT('',#855);
#290=VERTEX_POINT('',#859);
#291=VERTEX_POINT('',#861);
#292=VERTEX_POINT('',#865);
#293=VERTEX_POINT('',#867);
#294=VERTEX_POINT('',#871);
#295=VERTEX_POINT('',#873);
#296=VERTEX_POINT('',#877);
#297=VERTEX_POINT('',#879);
#298=VERTEX_POINT('',#883);
#299=VERTEX_POINT('',#885);
#300=VERTEX_POINT('',#889);
#301=VERTEX_POINT('',#891);
#302=VERTEX_POINT('',#895);
#303=VERTEX_POINT('',#897);
#304=VERTEX_POINT('',#901);
#305=VERTEX_POINT('',#903);
#306=VERTEX_POINT('',#907);
#307=VERTEX_POINT('',#909);
#308=VERTEX_POINT('',#913);
#309=VERTEX_POINT('',#915);
#310=VERTEX_POINT('',#919);
#311=VERTEX_POINT('',#921);
#312=VERTEX_POINT('',#925);
#313=VERTEX_POINT('',#927);
#314=VERTEX_POINT('',#931);
#315=VERTEX_POINT('',#933);
#316=VERTEX_POINT('',#937);
#317=VERTEX_POINT('',#939);
#318=VERTEX_POINT('',#943);
#319=VERTEX_POINT('',#945);
#320=VERTEX_POINT('',#949);
#321=VERTEX_POINT('',#951);
#322=VERTEX_POINT('',#957);
#323=VERTEX_POINT('',#959);
#324=VERTEX_POINT('',#962);
#325=VERTEX_POINT('',#964);
#326=VERTEX_POINT('',#966);
#327=VERTEX_POINT('',#968);
#328=VERTEX_POINT('',#971);
#329=VERTEX_POINT('',#973);
#330=VERTEX_POINT('',#975);
#331=VERTEX_POINT('',#977);
#332=LINE('',#819,#390);
#333=LINE('',#822,#391);
#334=LINE('',#824,#392);
#335=LINE('',#826,#393);
#336=LINE('',#832,#394);
#337=LINE('',#834,#395);
#338=LINE('',#836,#396);
#339=LINE('',#838,#397);
#340=LINE('',#844,#398);
#341=LINE('',#846,#399);
#342=LINE('',#848,#400);
#343=LINE('',#850,#401);
#344=LINE('',#856,#402);
#345=LINE('',#858,#403);
#346=LINE('',#860,#404);
#347=LINE('',#862,#405);
#348=LINE('',#868,#406);
#349=LINE('',#870,#407);
#350=LINE('',#872,#408);
#351=LINE('',#874,#409);
#352=LINE('',#876,#410);
#353=LINE('',#878,#411);
#354=LINE('',#880,#412);
#355=LINE('',#882,#413);
#356=LINE('',#884,#414);
#357=LINE('',#886,#415);
#358=LINE('',#888,#416);
#359=LINE('',#890,#417);
#360=LINE('',#892,#418);
#361=LINE('',#894,#419);
#362=LINE('',#896,#420);
#363=LINE('',#898,#421);
#364=LINE('',#900,#422);
#365=LINE('',#902,#423);
#366=LINE('',#904,#424);
#367=LINE('',#906,#425);
#368=LINE('',#908,#426);
#369=LINE('',#910,#427);
#370=LINE('',#912,#428);
#371=LINE('',#914,#429);
#372=LINE('',#916,#430);
#373=LINE('',#918,#431);
#374=LINE('',#920,#432);
#375=LINE('',#922,#433);
#376=LINE('',#924,#434);
#377=LINE('',#926,#435);
#378=LINE('',#928,#436);
#379=LINE('',#930,#437);
#380=LINE('',#932,#438);
#381=LINE('',#934,#439);
#382=LINE('',#936,#440);
#383=LINE('',#938,#441);
#384=LINE('',#940,#442);
#385=LINE('',#942,#443);
#386=LINE('',#944,#444);
#387=LINE('',#946,#445);
#388=LINE('',#953,#446);
#389=LINE('',#954,#447);
#390=VECTOR('',#661,1.);
#391=VECTOR('',#662,1.);
#392=VECTOR('',#663,1.);
#393=VECTOR('',#664,1.);
#394=VECTOR('',#671,1.);
#395=VECTOR('',#674,1.);
#396=VECTOR('',#675,1.);
#397=VECTOR('',#676,1.);
#398=VECTOR('',#683,1.);
#399=VECTOR('',#686,1.);
#400=VECTOR('',#687,1.);
#401=VECTOR('',#688,1.);
#402=VECTOR('',#695,1.);
#403=VECTOR('',#698,1.);
#404=VECTOR('',#699,1.);
#405=VECTOR('',#700,1.);
#406=VECTOR('',#707,1.);
#407=VECTOR('',#710,1.);
#408=VECTOR('',#711,1.);
#409=VECTOR('',#712,1.);
#410=VECTOR('',#715,1.);
#411=VECTOR('',#716,1.);
#412=VECTOR('',#717,1.);
#413=VECTOR('',#720,1.);
#414=VECTOR('',#721,1.);
#415=VECTOR('',#722,1.);
#416=VECTOR('',#725,1.);
#417=VECTOR('',#726,1.);
#418=VECTOR('',#727,1.);
#419=VECTOR('',#730,1.);
#420=VECTOR('',#731,1.);
#421=VECTOR('',#732,1.);
#422=VECTOR('',#735,1.);
#423=VECTOR('',#736,1.);
#424=VECTOR('',#737,1.);
#425=VECTOR('',#740,1.);
#426=VECTOR('',#741,1.);
#427=VECTOR('',#742,1.);
#428=VECTOR('',#745,1.);
#429=VECTOR('',#746,1.);
#430=VECTOR('',#747,1.);
#431=VECTOR('',#750,1.);
#432=VECTOR('',#751,1.);
#433=VECTOR('',#752,1.);
#434=VECTOR('',#755,1.);
#435=VECTOR('',#756,1.);
#436=VECTOR('',#757,1.);
#437=VECTOR('',#760,1.);
#438=VECTOR('',#761,1.);
#439=VECTOR('',#762,1.);
#440=VECTOR('',#765,1.);
#441=VECTOR('',#766,1.);
#442=VECTOR('',#767,1.);
#443=VECTOR('',#770,1.);
#444=VECTOR('',#771,1.);
#445=VECTOR('',#772,1.);
#446=VECTOR('',#781,1.);
#447=VECTOR('',#782,1.);
#448=EDGE_LOOP('',(#42,#43,#44,#45));
#449=EDGE_LOOP('',(#46,#47,#48,#49));
#450=EDGE_LOOP('',(#50,#51,#52,#53));
#451=EDGE_LOOP('',(#54,#55,#56,#57));
#452=EDGE_LOOP('',(#58,#59,#60,#61));
#453=EDGE_LOOP('',(#62,#63,#64,#65));
#454=EDGE_LOOP('',(#66,#67,#68,#69));
#455=EDGE_LOOP('',(#70,#71,#72,#73));
#456=EDGE_LOOP('',(#74,#75,#76,#77));
#457=EDGE_LOOP('',(#78,#79,#80,#81));
#458=EDGE_LOOP('',(#82,#83,#84,#85));
#459=EDGE_LOOP('',(#86,#87,#88,#89));
#460=EDGE_LOOP('',(#90,#91,#92,#93));
#461=EDGE_LOOP('',(#94,#95,#96,#97));
#462=EDGE_LOOP('',(#98,#99,#100,#101));
#463=EDGE_LOOP('',(#102,#103,#104,#105));
#464=EDGE_LOOP('',(#106,#107,#108,#109));
#465=EDGE_LOOP('',(#110,#111,#112,#113));
#466=EDGE_LOOP('',(#114,#115,#116,#117));
#467=EDGE_LOOP('',(#118,#119,#120,#121));
#468=EDGE_LOOP('',(#122,#123,#124,#125));
#469=EDGE_LOOP('',(#126));
#470=EDGE_LOOP('',(#127));
#471=EDGE_LOOP('',(#128,#129,#130,#131));
#472=EDGE_LOOP('',(#132));
#473=EDGE_LOOP('',(#133));
#474=EDGE_LOOP('',(#134));
#475=EDGE_LOOP('',(#135));
#476=EDGE_LOOP('',(#136));
#477=EDGE_LOOP('',(#137));
#478=EDGE_LOOP('',(#138,#139,#140,#141,#142,#143,#144,#145,#146,#147,#148,
#149,#150,#151,#152,#153,#154,#155,#156,#157,#158,#159));
#479=EDGE_LOOP('',(#160));
#480=EDGE_LOOP('',(#161));
#481=EDGE_LOOP('',(#162));
#482=EDGE_LOOP('',(#163));
#483=EDGE_LOOP('',(#164));
#484=EDGE_LOOP('',(#165));
#485=EDGE_LOOP('',(#166,#167,#168,#169,#170,#171,#172,#173,#174,#175,#176,
#177,#178,#179,#180,#181,#182,#183,#184,#185,#186,#187));
#486=EDGE_LOOP('',(#188));
#487=EDGE_LOOP('',(#189));
#488=EDGE_LOOP('',(#190));
#489=EDGE_LOOP('',(#191));
#490=EDGE_LOOP('',(#192));
#491=EDGE_LOOP('',(#193));
#492=EDGE_LOOP('',(#194));
#493=EDGE_LOOP('',(#195));
#494=EDGE_LOOP('',(#196));
#495=EDGE_LOOP('',(#197));
#496=FACE_BOUND('',#448,.T.);
#497=FACE_BOUND('',#449,.T.);
#498=FACE_BOUND('',#450,.T.);
#499=FACE_BOUND('',#451,.T.);
#500=FACE_BOUND('',#452,.T.);
#501=FACE_BOUND('',#453,.T.);
#502=FACE_BOUND('',#454,.T.);
#503=FACE_BOUND('',#455,.T.);
#504=FACE_BOUND('',#456,.T.);
#505=FACE_BOUND('',#457,.T.);
#506=FACE_BOUND('',#458,.T.);
#507=FACE_BOUND('',#459,.T.);
#508=FACE_BOUND('',#460,.T.);
#509=FACE_BOUND('',#461,.T.);
#510=FACE_BOUND('',#462,.T.);
#511=FACE_BOUND('',#463,.T.);
#512=FACE_BOUND('',#464,.T.);
#513=FACE_BOUND('',#465,.T.);
#514=FACE_BOUND('',#466,.T.);
#515=FACE_BOUND('',#467,.T.);
#516=FACE_BOUND('',#468,.T.);
#517=FACE_BOUND('',#469,.T.);
#518=FACE_BOUND('',#470,.T.);
#519=FACE_BOUND('',#471,.T.);
#520=FACE_BOUND('',#472,.T.);
#521=FACE_BOUND('',#473,.T.);
#522=FACE_BOUND('',#474,.T.);
#523=FACE_BOUND('',#475,.T.);
#524=FACE_BOUND('',#476,.T.);
#525=FACE_BOUND('',#477,.T.);
#526=FACE_BOUND('',#478,.T.);
#527=FACE_BOUND('',#479,.T.);
#528=FACE_BOUND('',#480,.T.);
#529=FACE_BOUND('',#481,.T.);
#530=FACE_BOUND('',#482,.T.);
#531=FACE_BOUND('',#483,.T.);
#532=FACE_BOUND('',#484,.T.);
#533=FACE_BOUND('',#485,.T.);
#534=FACE_BOUND('',#486,.T.);
#535=FACE_BOUND('',#487,.T.);
#536=FACE_BOUND('',#488,.T.);
#537=FACE_BOUND('',#489,.T.);
#538=FACE_BOUND('',#490,.T.);
#539=FACE_BOUND('',#491,.T.);
#540=FACE_BOUND('',#492,.T.);
#541=FACE_BOUND('',#493,.T.);
#542=FACE_BOUND('',#494,.T.);
#543=FACE_BOUND('',#495,.T.);
#544=PLANE('',#607);
#545=PLANE('',#611);
#546=PLANE('',#615);
#547=PLANE('',#619);
#548=PLANE('',#623);
#549=PLANE('',#624);
#550=PLANE('',#625);
#551=PLANE('',#626);
#552=PLANE('',#627);
#553=PLANE('',#628);
#554=PLANE('',#629);
#555=PLANE('',#630);
#556=PLANE('',#631);
#557=PLANE('',#632);
#558=PLANE('',#633);
#559=PLANE('',#634);
#560=PLANE('',#635);
#561=PLANE('',#639);
#562=PLANE('',#643);
#563=PLANE('',#648);
#564=ADVANCED_FACE('',(#496),#544,.F.);
#565=ADVANCED_FACE('',(#497),#32,.T.);
#566=ADVANCED_FACE('',(#498),#545,.F.);
#567=ADVANCED_FACE('',(#499),#33,.T.);
#568=ADVANCED_FACE('',(#500),#546,.F.);
#569=ADVANCED_FACE('',(#501),#34,.T.);
#570=ADVANCED_FACE('',(#502),#547,.F.);
#571=ADVANCED_FACE('',(#503),#35,.T.);
#572=ADVANCED_FACE('',(#504),#548,.T.);
#573=ADVANCED_FACE('',(#505),#549,.T.);
#574=ADVANCED_FACE('',(#506),#550,.T.);
#575=ADVANCED_FACE('',(#507),#551,.T.);
#576=ADVANCED_FACE('',(#508),#552,.F.);
#577=ADVANCED_FACE('',(#509),#553,.F.);
#578=ADVANCED_FACE('',(#510),#554,.T.);
#579=ADVANCED_FACE('',(#511),#555,.T.);
#580=ADVANCED_FACE('',(#512),#556,.F.);
#581=ADVANCED_FACE('',(#513),#557,.F.);
#582=ADVANCED_FACE('',(#514),#558,.T.);
#583=ADVANCED_FACE('',(#515),#559,.F.);
#584=ADVANCED_FACE('',(#516),#560,.F.);
#585=ADVANCED_FACE('',(#517,#518),#36,.F.);
#586=ADVANCED_FACE('',(#519),#561,.F.);
#587=ADVANCED_FACE('',(#520,#521),#37,.F.);
#588=ADVANCED_FACE('',(#522,#523,#524,#525,#526,#527,#528),#562,.F.);
#589=ADVANCED_FACE('',(#529,#530,#531,#532,#533,#534,#535),#563,.T.);
#590=ADVANCED_FACE('',(#536,#537),#38,.F.);
#591=ADVANCED_FACE('',(#538,#539),#39,.F.);
#592=ADVANCED_FACE('',(#540,#541),#40,.F.);
#593=ADVANCED_FACE('',(#542,#543),#41,.F.);
#594=CLOSED_SHELL('',(#564,#565,#566,#567,#568,#569,#570,#571,#572,#573,
#574,#575,#576,#577,#578,#579,#580,#581,#582,#583,#584,#585,#586,#587,#588,
#589,#590,#591,#592,#593));
#595=STYLED_ITEM('',(#596),#603);
#596=PRESENTATION_STYLE_ASSIGNMENT((#597));
#597=SURFACE_STYLE_USAGE(.BOTH.,#598);
#598=SURFACE_SIDE_STYLE('',(#599));
#599=SURFACE_STYLE_FILL_AREA(#600);
#600=FILL_AREA_STYLE('',(#601));
#601=FILL_AREA_STYLE_COLOUR('',#602);
#602=COLOUR_RGB('',0.917647058823529,0.917647058823529,0.917647058823529);
#603=MANIFOLD_SOLID_BREP('2f-85_base_1',#594);
#604=SHAPE_DEFINITION_REPRESENTATION(#988,#605);
#605=SHAPE_REPRESENTATION('2f-85_base_1',(#606),#983);
#606=AXIS2_PLACEMENT_3D('',#817,#657,#658);
#607=AXIS2_PLACEMENT_3D('',#818,#659,#660);
#608=AXIS2_PLACEMENT_3D('',#827,#665,#666);
#609=AXIS2_PLACEMENT_3D('',#828,#667,#668);
#610=AXIS2_PLACEMENT_3D('',#830,#669,#670);
#611=AXIS2_PLACEMENT_3D('',#833,#672,#673);
#612=AXIS2_PLACEMENT_3D('',#839,#677,#678);
#613=AXIS2_PLACEMENT_3D('',#840,#679,#680);
#614=AXIS2_PLACEMENT_3D('',#842,#681,#682);
#615=AXIS2_PLACEMENT_3D('',#845,#684,#685);
#616=AXIS2_PLACEMENT_3D('',#851,#689,#690);
#617=AXIS2_PLACEMENT_3D('',#852,#691,#692);
#618=AXIS2_PLACEMENT_3D('',#854,#693,#694);
#619=AXIS2_PLACEMENT_3D('',#857,#696,#697);
#620=AXIS2_PLACEMENT_3D('',#863,#701,#702);
#621=AXIS2_PLACEMENT_3D('',#864,#703,#704);
#622=AXIS2_PLACEMENT_3D('',#866,#705,#706);
#623=AXIS2_PLACEMENT_3D('',#869,#708,#709);
#624=AXIS2_PLACEMENT_3D('',#875,#713,#714);
#625=AXIS2_PLACEMENT_3D('',#881,#718,#719);
#626=AXIS2_PLACEMENT_3D('',#887,#723,#724);
#627=AXIS2_PLACEMENT_3D('',#893,#728,#729);
#628=AXIS2_PLACEMENT_3D('',#899,#733,#734);
#629=AXIS2_PLACEMENT_3D('',#905,#738,#739);
#630=AXIS2_PLACEMENT_3D('',#911,#743,#744);
#631=AXIS2_PLACEMENT_3D('',#917,#748,#749);
#632=AXIS2_PLACEMENT_3D('',#923,#753,#754);
#633=AXIS2_PLACEMENT_3D('',#929,#758,#759);
#634=AXIS2_PLACEMENT_3D('',#935,#763,#764);
#635=AXIS2_PLACEMENT_3D('',#941,#768,#769);
#636=AXIS2_PLACEMENT_3D('',#947,#773,#774);
#637=AXIS2_PLACEMENT_3D('',#948,#775,#776);
#638=AXIS2_PLACEMENT_3D('',#950,#777,#778);
#639=AXIS2_PLACEMENT_3D('',#952,#779,#780);
#640=AXIS2_PLACEMENT_3D('',#955,#783,#784);
#641=AXIS2_PLACEMENT_3D('',#956,#785,#786);
#642=AXIS2_PLACEMENT_3D('',#958,#787,#788);
#643=AXIS2_PLACEMENT_3D('',#960,#789,#790);
#644=AXIS2_PLACEMENT_3D('',#961,#791,#792);
#645=AXIS2_PLACEMENT_3D('',#963,#793,#794);
#646=AXIS2_PLACEMENT_3D('',#965,#795,#796);
#647=AXIS2_PLACEMENT_3D('',#967,#797,#798);
#648=AXIS2_PLACEMENT_3D('',#969,#799,#800);
#649=AXIS2_PLACEMENT_3D('',#970,#801,#802);
#650=AXIS2_PLACEMENT_3D('',#972,#803,#804);
#651=AXIS2_PLACEMENT_3D('',#974,#805,#806);
#652=AXIS2_PLACEMENT_3D('',#976,#807,#808);
#653=AXIS2_PLACEMENT_3D('',#978,#809,#810);
#654=AXIS2_PLACEMENT_3D('',#979,#811,#812);
#655=AXIS2_PLACEMENT_3D('',#980,#813,#814);
#656=AXIS2_PLACEMENT_3D('',#981,#815,#816);
#657=DIRECTION('',(0.,0.,1.));
#658=DIRECTION('',(1.,0.,0.));
#659=DIRECTION('',(-1.,0.,0.));
#660=DIRECTION('',(0.,0.,1.));
#661=DIRECTION('',(0.,-1.,0.));
#662=DIRECTION('',(0.,0.,1.));
#663=DIRECTION('',(0.,-1.,0.));
#664=DIRECTION('',(0.,0.,1.));
#665=DIRECTION('',(0.,0.,1.));
#666=DIRECTION('',(1.,0.,0.));
#667=DIRECTION('',(0.,0.,1.));
#668=DIRECTION('',(1.,0.,0.));
#669=DIRECTION('',(0.,0.,1.));
#670=DIRECTION('',(1.,0.,0.));
#671=DIRECTION('',(0.,0.,1.));
#672=DIRECTION('',(-0.811186211982893,-0.584787935485032,0.));
#673=DIRECTION('',(0.584787935485032,-0.811186211982893,0.));
#674=DIRECTION('',(0.584787935485032,-0.811186211982893,0.));
#675=DIRECTION('',(0.584787935485032,-0.811186211982893,0.));
#676=DIRECTION('',(0.,0.,1.));
#677=DIRECTION('',(0.,0.,1.));
#678=DIRECTION('',(1.,0.,0.));
#679=DIRECTION('',(0.,0.,1.));
#680=DIRECTION('',(1.,0.,0.));
#681=DIRECTION('',(0.,0.,1.));
#682=DIRECTION('',(1.,0.,0.));
#683=DIRECTION('',(0.,0.,1.));
#684=DIRECTION('',(0.,-1.,0.));
#685=DIRECTION('',(0.,0.,-1.));
#686=DIRECTION('',(1.,0.,0.));
#687=DIRECTION('',(1.,0.,0.));
#688=DIRECTION('',(0.,0.,1.));
#689=DIRECTION('',(0.,0.,1.));
#690=DIRECTION('',(1.,0.,0.));
#691=DIRECTION('',(0.,0.,1.));
#692=DIRECTION('',(1.,0.,0.));
#693=DIRECTION('',(0.,0.,1.));
#694=DIRECTION('',(1.,0.,0.));
#695=DIRECTION('',(0.,0.,1.));
#696=DIRECTION('',(0.811186211982893,-0.584787935485031,0.));
#697=DIRECTION('',(0.584787935485031,0.811186211982893,0.));
#698=DIRECTION('',(0.584787935485031,0.811186211982893,0.));
#699=DIRECTION('',(0.584787935485031,0.811186211982893,0.));
#700=DIRECTION('',(0.,0.,1.));
#701=DIRECTION('',(0.,0.,1.));
#702=DIRECTION('',(1.,0.,0.));
#703=DIRECTION('',(0.,0.,1.));
#704=DIRECTION('',(1.,0.,0.));
#705=DIRECTION('',(0.,0.,1.));
#706=DIRECTION('',(1.,0.,0.));
#707=DIRECTION('',(0.,0.,1.));
#708=DIRECTION('',(-1.,0.,0.));
#709=DIRECTION('',(0.,0.,1.));
#710=DIRECTION('',(0.,-1.,0.));
#711=DIRECTION('',(0.,-1.,0.));
#712=DIRECTION('',(0.,0.,1.));
#713=DIRECTION('',(0.,-1.,0.));
#714=DIRECTION('',(0.,0.,-1.));
#715=DIRECTION('',(1.,0.,0.));
#716=DIRECTION('',(1.,0.,0.));
#717=DIRECTION('',(0.,0.,1.));
#718=DIRECTION('',(-1.,0.,0.));
#719=DIRECTION('',(0.,0.,1.));
#720=DIRECTION('',(0.,-1.,0.));
#721=DIRECTION('',(0.,-1.,0.));
#722=DIRECTION('',(0.,0.,1.));
#723=DIRECTION('',(0.,-1.,0.));
#724=DIRECTION('',(0.,0.,-1.));
#725=DIRECTION('',(1.,0.,0.));
#726=DIRECTION('',(1.,0.,0.));
#727=DIRECTION('',(0.,0.,1.));
#728=DIRECTION('',(-1.,0.,0.));
#729=DIRECTION('',(0.,0.,1.));
#730=DIRECTION('',(0.,-1.,0.));
#731=DIRECTION('',(0.,-1.,0.));
#732=DIRECTION('',(0.,0.,1.));
#733=DIRECTION('',(0.,1.,0.));
#734=DIRECTION('',(0.,0.,1.));
#735=DIRECTION('',(-1.,0.,0.));
#736=DIRECTION('',(-1.,0.,0.));
#737=DIRECTION('',(0.,0.,1.));
#738=DIRECTION('',(-1.,0.,0.));
#739=DIRECTION('',(0.,0.,1.));
#740=DIRECTION('',(0.,-1.,0.));
#741=DIRECTION('',(0.,-1.,0.));
#742=DIRECTION('',(0.,0.,1.));
#743=DIRECTION('',(0.,-1.,0.));
#744=DIRECTION('',(0.,0.,-1.));
#745=DIRECTION('',(1.,0.,0.));
#746=DIRECTION('',(1.,0.,0.));
#747=DIRECTION('',(0.,0.,1.));
#748=DIRECTION('',(-1.,0.,0.));
#749=DIRECTION('',(0.,0.,1.));
#750=DIRECTION('',(0.,-1.,0.));
#751=DIRECTION('',(0.,-1.,0.));
#752=DIRECTION('',(0.,0.,1.));
#753=DIRECTION('',(0.,1.,0.));
#754=DIRECTION('',(0.,0.,1.));
#755=DIRECTION('',(-1.,0.,0.));
#756=DIRECTION('',(-1.,0.,0.));
#757=DIRECTION('',(0.,0.,1.));
#758=DIRECTION('',(-1.,0.,0.));
#759=DIRECTION('',(0.,0.,1.));
#760=DIRECTION('',(0.,-1.,0.));
#761=DIRECTION('',(0.,-1.,0.));
#762=DIRECTION('',(0.,0.,1.));
#763=DIRECTION('',(0.,1.,0.));
#764=DIRECTION('',(0.,0.,1.));
#765=DIRECTION('',(-1.,0.,0.));
#766=DIRECTION('',(-1.,0.,0.));
#767=DIRECTION('',(0.,0.,1.));
#768=DIRECTION('',(-1.,0.,0.));
#769=DIRECTION('',(0.,0.,1.));
#770=DIRECTION('',(0.,-1.,0.));
#771=DIRECTION('',(0.,-1.,0.));
#772=DIRECTION('',(0.,0.,1.));
#773=DIRECTION('',(0.,0.,1.));
#774=DIRECTION('',(1.,0.,0.));
#775=DIRECTION('',(0.,0.,1.));
#776=DIRECTION('',(1.,0.,0.));
#777=DIRECTION('',(0.,0.,1.));
#778=DIRECTION('',(1.,0.,0.));
#779=DIRECTION('',(0.,1.,0.));
#780=DIRECTION('',(0.,0.,1.));
#781=DIRECTION('',(-1.,0.,0.));
#782=DIRECTION('',(-1.,0.,0.));
#783=DIRECTION('',(0.,0.,1.));
#784=DIRECTION('',(1.,0.,0.));
#785=DIRECTION('',(0.,0.,1.));
#786=DIRECTION('',(1.,0.,0.));
#787=DIRECTION('',(0.,0.,1.));
#788=DIRECTION('',(1.,0.,0.));
#789=DIRECTION('',(0.,0.,1.));
#790=DIRECTION('',(1.,0.,0.));
#791=DIRECTION('',(0.,0.,1.));
#792=DIRECTION('',(1.,0.,0.));
#793=DIRECTION('',(0.,0.,1.));
#794=DIRECTION('',(1.,0.,0.));
#795=DIRECTION('',(0.,0.,1.));
#796=DIRECTION('',(1.,0.,0.));
#797=DIRECTION('',(0.,0.,1.));
#798=DIRECTION('',(1.,0.,0.));
#799=DIRECTION('',(0.,0.,1.));
#800=DIRECTION('',(1.,0.,0.));
#801=DIRECTION('',(0.,0.,1.));
#802=DIRECTION('',(1.,0.,0.));
#803=DIRECTION('',(0.,0.,1.));
#804=DIRECTION('',(1.,0.,0.));
#805=DIRECTION('',(0.,0.,1.));
#806=DIRECTION('',(1.,0.,0.));
#807=DIRECTION('',(0.,0.,1.));
#808=DIRECTION('',(1.,0.,0.));
#809=DIRECTION('',(0.,0.,1.));
#810=DIRECTION('',(1.,0.,0.));
#811=DIRECTION('',(0.,0.,1.));
#812=DIRECTION('',(1.,0.,0.));
#813=DIRECTION('',(0.,0.,1.));
#814=DIRECTION('',(1.,0.,0.));
#815=DIRECTION('',(0.,0.,1.));
#816=DIRECTION('',(1.,0.,0.));
#817=CARTESIAN_POINT('',(0.,0.,0.));
#818=CARTESIAN_POINT('',(0.0423429006286027,0.04875,0.0059999999999901));
#819=CARTESIAN_POINT('',(0.0423429006286027,0.04875,0.0109999999999901));
#820=CARTESIAN_POINT('',(0.0423429006286027,0.055,0.0109999999999901));
#821=CARTESIAN_POINT('',(0.0423429006286027,0.0425,0.0109999999999901));
#822=CARTESIAN_POINT('',(0.0423429006286027,0.0425,0.0059999999999901));
#823=CARTESIAN_POINT('',(0.0423429006286027,0.0425,0.0059999999999901));
#824=CARTESIAN_POINT('',(0.0423429006286027,0.04875,0.0059999999999901));
#825=CARTESIAN_POINT('',(0.0423429006286027,0.055,0.0059999999999901));
#826=CARTESIAN_POINT('',(0.0423429006286027,0.055,0.0059999999999901));
#827=CARTESIAN_POINT('',(0.0298429006286027,0.055,0.0059999999999901));
#828=CARTESIAN_POINT('',(0.0298429006286027,0.055,0.0109999999999901));
#829=CARTESIAN_POINT('',(0.0399827282783888,0.0623098491935629,0.0109999999999901));
#830=CARTESIAN_POINT('',(0.0298429006286027,0.055,0.0059999999999901));
#831=CARTESIAN_POINT('',(0.0399827282783888,0.0623098491935629,0.0059999999999901));
#832=CARTESIAN_POINT('',(0.0399827282783888,0.0623098491935629,0.0059999999999901));
#833=CARTESIAN_POINT('',(0.0322467110433675,0.0730408341129192,0.0059999999999901));
#834=CARTESIAN_POINT('',(0.0322467110433675,0.0730408341129192,0.0109999999999901));
#835=CARTESIAN_POINT('',(0.0245106938083461,0.0837718190322755,0.0109999999999901));
#836=CARTESIAN_POINT('',(0.0322467110433675,0.0730408341129192,0.0059999999999901));
#837=CARTESIAN_POINT('',(0.0245106938083461,0.0837718190322755,0.0059999999999901));
#838=CARTESIAN_POINT('',(0.0245106938083461,0.0837718190322755,0.0059999999999901));
#839=CARTESIAN_POINT('',(0.0123429006286027,0.075,0.0059999999999901));
#840=CARTESIAN_POINT('',(0.0123429006286027,0.075,0.0109999999999901));
#841=CARTESIAN_POINT('',(0.0123429006286027,0.09,0.0109999999999901));
#842=CARTESIAN_POINT('',(0.0123429006286027,0.075,0.0059999999999901));
#843=CARTESIAN_POINT('',(0.0123429006286027,0.09,0.0059999999999901));
#844=CARTESIAN_POINT('',(0.0123429006286027,0.09,0.0059999999999901));
#845=CARTESIAN_POINT('',(1.00613961606655E-16,0.09,0.0059999999999901));
#846=CARTESIAN_POINT('',(1.00613961606655E-16,0.09,0.0109999999999901));
#847=CARTESIAN_POINT('',(-0.0123429006286025,0.09,0.0109999999999901));
#848=CARTESIAN_POINT('',(1.00613961606655E-16,0.09,0.0059999999999901));
#849=CARTESIAN_POINT('',(-0.0123429006286025,0.09,0.0059999999999901));
#850=CARTESIAN_POINT('',(-0.0123429006286025,0.09,0.0059999999999901));
#851=CARTESIAN_POINT('',(-0.0123429006286025,0.075,0.0059999999999901));
#852=CARTESIAN_POINT('',(-0.0123429006286025,0.075,0.0109999999999901));
#853=CARTESIAN_POINT('',(-0.0245106938083459,0.0837718190322755,0.0109999999999901));
#854=CARTESIAN_POINT('',(-0.0123429006286025,0.075,0.0059999999999901));
#855=CARTESIAN_POINT('',(-0.0245106938083459,0.0837718190322755,0.0059999999999901));
#856=CARTESIAN_POINT('',(-0.0245106938083459,0.0837718190322755,0.0059999999999901));
#857=CARTESIAN_POINT('',(-0.0322467110433673,0.0730408341129192,0.0059999999999901));
#858=CARTESIAN_POINT('',(-0.0322467110433673,0.0730408341129192,0.0109999999999901));
#859=CARTESIAN_POINT('',(-0.0399827282783886,0.0623098491935629,0.0109999999999901));
#860=CARTESIAN_POINT('',(-0.0322467110433673,0.0730408341129192,0.0059999999999901));
#861=CARTESIAN_POINT('',(-0.0399827282783886,0.0623098491935629,0.0059999999999901));
#862=CARTESIAN_POINT('',(-0.0399827282783886,0.0623098491935629,0.0059999999999901));
#863=CARTESIAN_POINT('',(-0.0298429006286025,0.055,0.0059999999999901));
#864=CARTESIAN_POINT('',(-0.0298429006286025,0.055,0.0109999999999901));
#865=CARTESIAN_POINT('',(-0.0423429006286025,0.055,0.0109999999999901));
#866=CARTESIAN_POINT('',(-0.0298429006286025,0.055,0.0059999999999901));
#867=CARTESIAN_POINT('',(-0.0423429006286025,0.055,0.0059999999999901));
#868=CARTESIAN_POINT('',(-0.0423429006286025,0.055,0.0059999999999901));
#869=CARTESIAN_POINT('',(-0.0423429006286025,0.04875,0.0059999999999901));
#870=CARTESIAN_POINT('',(-0.0423429006286025,0.04875,0.0109999999999901));
#871=CARTESIAN_POINT('',(-0.0423429006286025,0.0425,0.0109999999999901));
#872=CARTESIAN_POINT('',(-0.0423429006286025,0.04875,0.0059999999999901));
#873=CARTESIAN_POINT('',(-0.0423429006286025,0.0425,0.0059999999999901));
#874=CARTESIAN_POINT('',(-0.0423429006286025,0.0425,0.0059999999999901));
#875=CARTESIAN_POINT('',(-0.0360929006286025,0.0425,0.0059999999999901));
#876=CARTESIAN_POINT('',(-0.0360929006286025,0.0425,0.0109999999999901));
#877=CARTESIAN_POINT('',(-0.0298429006286025,0.0425,0.0109999999999901));
#878=CARTESIAN_POINT('',(-0.0360929006286025,0.0425,0.0059999999999901));
#879=CARTESIAN_POINT('',(-0.0298429006286025,0.0425,0.0059999999999901));
#880=CARTESIAN_POINT('',(-0.0298429006286025,0.0425,0.0059999999999901));
#881=CARTESIAN_POINT('',(-0.0298429006286025,0.04,0.0059999999999901));
#882=CARTESIAN_POINT('',(-0.0298429006286025,0.04,0.0109999999999901));
#883=CARTESIAN_POINT('',(-0.0298429006286025,0.0375,0.0109999999999901));
#884=CARTESIAN_POINT('',(-0.0298429006286025,0.04,0.0059999999999901));
#885=CARTESIAN_POINT('',(-0.0298429006286025,0.0375,0.0059999999999901));
#886=CARTESIAN_POINT('',(-0.0298429006286025,0.0375,0.0059999999999901));
#887=CARTESIAN_POINT('',(-0.0248429006286025,0.0375,0.0059999999999901));
#888=CARTESIAN_POINT('',(-0.0248429006286025,0.0375,0.0109999999999901));
#889=CARTESIAN_POINT('',(-0.0198429006286025,0.0375,0.0109999999999901));
#890=CARTESIAN_POINT('',(-0.0248429006286025,0.0375,0.0059999999999901));
#891=CARTESIAN_POINT('',(-0.0198429006286025,0.0375,0.0059999999999901));
#892=CARTESIAN_POINT('',(-0.0198429006286025,0.0375,0.0059999999999901));
#893=CARTESIAN_POINT('',(-0.0198429006286025,0.04,0.0059999999999901));
#894=CARTESIAN_POINT('',(-0.0198429006286025,0.04,0.0109999999999901));
#895=CARTESIAN_POINT('',(-0.0198429006286025,0.0425,0.0109999999999901));
#896=CARTESIAN_POINT('',(-0.0198429006286025,0.04,0.0059999999999901));
#897=CARTESIAN_POINT('',(-0.0198429006286025,0.0425,0.0059999999999901));
#898=CARTESIAN_POINT('',(-0.0198429006286025,0.0425,0.0059999999999901));
#899=CARTESIAN_POINT('',(-0.0124214503143012,0.0425,0.0059999999999901));
#900=CARTESIAN_POINT('',(-0.0124214503143012,0.0425,0.0109999999999901));
#901=CARTESIAN_POINT('',(-0.0049999999999999,0.0425,0.0109999999999901));
#902=CARTESIAN_POINT('',(-0.0124214503143012,0.0425,0.0059999999999901));
#903=CARTESIAN_POINT('',(-0.0049999999999999,0.0425,0.0059999999999901));
#904=CARTESIAN_POINT('',(-0.0049999999999999,0.0425,0.0059999999999901));
#905=CARTESIAN_POINT('',(-0.0049999999999999,0.04,0.0059999999999901));
#906=CARTESIAN_POINT('',(-0.0049999999999999,0.04,0.0109999999999901));
#907=CARTESIAN_POINT('',(-0.0049999999999999,0.0375,0.0109999999999901));
#908=CARTESIAN_POINT('',(-0.0049999999999999,0.04,0.0059999999999901));
#909=CARTESIAN_POINT('',(-0.0049999999999999,0.0375,0.0059999999999901));
#910=CARTESIAN_POINT('',(-0.0049999999999999,0.0375,0.0059999999999901));
#911=CARTESIAN_POINT('',(1.01481323344643E-16,0.0375,0.0059999999999901));
#912=CARTESIAN_POINT('',(1.01481323344643E-16,0.0375,0.0109999999999901));
#913=CARTESIAN_POINT('',(0.0050000000000001,0.0375,0.0109999999999901));
#914=CARTESIAN_POINT('',(1.01481323344643E-16,0.0375,0.0059999999999901));
#915=CARTESIAN_POINT('',(0.0050000000000001,0.0375,0.0059999999999901));
#916=CARTESIAN_POINT('',(0.0050000000000001,0.0375,0.0059999999999901));
#917=CARTESIAN_POINT('',(0.0050000000000001,0.04,0.0059999999999901));
#918=CARTESIAN_POINT('',(0.0050000000000001,0.04,0.0109999999999901));
#919=CARTESIAN_POINT('',(0.0050000000000001,0.0425,0.0109999999999901));
#920=CARTESIAN_POINT('',(0.0050000000000001,0.04,0.0059999999999901));
#921=CARTESIAN_POINT('',(0.0050000000000001,0.0425,0.0059999999999901));
#922=CARTESIAN_POINT('',(0.0050000000000001,0.0425,0.0059999999999901));
#923=CARTESIAN_POINT('',(0.0124214503143014,0.0425,0.0059999999999901));
#924=CARTESIAN_POINT('',(0.0124214503143014,0.0425,0.0109999999999901));
#925=CARTESIAN_POINT('',(0.0198429006286027,0.0425,0.0109999999999901));
#926=CARTESIAN_POINT('',(0.0124214503143014,0.0425,0.0059999999999901));
#927=CARTESIAN_POINT('',(0.0198429006286027,0.0425,0.0059999999999901));
#928=CARTESIAN_POINT('',(0.0198429006286027,0.0425,0.0059999999999901));
#929=CARTESIAN_POINT('',(0.0198429006286027,0.04,0.0059999999999901));
#930=CARTESIAN_POINT('',(0.0198429006286027,0.04,0.0109999999999901));
#931=CARTESIAN_POINT('',(0.0198429006286027,0.0375,0.0109999999999901));
#932=CARTESIAN_POINT('',(0.0198429006286027,0.04,0.0059999999999901));
#933=CARTESIAN_POINT('',(0.0198429006286027,0.0375,0.0059999999999901));
#934=CARTESIAN_POINT('',(0.0198429006286027,0.0375,0.0059999999999901));
#935=CARTESIAN_POINT('',(0.0248429006286027,0.0375,0.0059999999999901));
#936=CARTESIAN_POINT('',(0.0248429006286027,0.0375,0.0109999999999901));
#937=CARTESIAN_POINT('',(0.0298429006286027,0.0375,0.0109999999999901));
#938=CARTESIAN_POINT('',(0.0248429006286027,0.0375,0.0059999999999901));
#939=CARTESIAN_POINT('',(0.0298429006286027,0.0375,0.0059999999999901));
#940=CARTESIAN_POINT('',(0.0298429006286027,0.0375,0.0059999999999901));
#941=CARTESIAN_POINT('',(0.0298429006286027,0.04,0.0059999999999901));
#942=CARTESIAN_POINT('',(0.0298429006286027,0.04,0.0109999999999901));
#943=CARTESIAN_POINT('',(0.0298429006286027,0.0425,0.0109999999999901));
#944=CARTESIAN_POINT('',(0.0298429006286027,0.04,0.0059999999999901));
#945=CARTESIAN_POINT('',(0.0298429006286027,0.0425,0.0059999999999901));
#946=CARTESIAN_POINT('',(0.0298429006286027,0.0425,0.0059999999999901));
#947=CARTESIAN_POINT('',(0.0198429006286027,0.0485,0.0059999999999901));
#948=CARTESIAN_POINT('',(0.0198429006286027,0.0485,0.0059999999999901));
#949=CARTESIAN_POINT('',(0.0216929006286027,0.0485,0.0059999999999901));
#950=CARTESIAN_POINT('',(0.0198429006286027,0.0485,0.0109999999999901));
#951=CARTESIAN_POINT('',(0.0216929006286027,0.0485,0.0109999999999901));
#952=CARTESIAN_POINT('',(0.0360929006286027,0.0425,0.0059999999999901));
#953=CARTESIAN_POINT('',(0.0360929006286027,0.0425,0.0109999999999901));
#954=CARTESIAN_POINT('',(0.0360929006286027,0.0425,0.0059999999999901));
#955=CARTESIAN_POINT('',(-0.0198429006286025,0.0485,0.0059999999999901));
#956=CARTESIAN_POINT('',(-0.0198429006286025,0.0485,0.0059999999999901));
#957=CARTESIAN_POINT('',(-0.0179929006286025,0.0485,0.0059999999999901));
#958=CARTESIAN_POINT('',(-0.0198429006286025,0.0485,0.0109999999999901));
#959=CARTESIAN_POINT('',(-0.0179929006286025,0.0485,0.0109999999999901));
#960=CARTESIAN_POINT('',(1.04083408558608E-16,0.06375,0.0059999999999901));
#961=CARTESIAN_POINT('',(0.0306011444258734,0.0549045162696454,0.0059999999999901));
#962=CARTESIAN_POINT('',(0.0346011444258734,0.0549045162696454,0.0059999999999901));
#963=CARTESIAN_POINT('',(-0.0306011444260692,0.0549045162696454,0.0059999999999901));
#964=CARTESIAN_POINT('',(-0.0266011444260692,0.0549045162696454,0.0059999999999901));
#965=CARTESIAN_POINT('',(0.0127,0.06142,0.0059999999999901));
#966=CARTESIAN_POINT('',(0.01425,0.06142,0.0059999999999901));
#967=CARTESIAN_POINT('',(-0.0127000000000979,0.06142,0.0059999999999901));
#968=CARTESIAN_POINT('',(-0.0111500000000979,0.06142,0.0059999999999901));
#969=CARTESIAN_POINT('',(1.04083408558608E-16,0.06375,0.0109999999999901));
#970=CARTESIAN_POINT('',(0.0306011444258734,0.0549045162696454,0.0109999999999901));
#971=CARTESIAN_POINT('',(0.0346011444258734,0.0549045162696454,0.0109999999999901));
#972=CARTESIAN_POINT('',(-0.0306011444260692,0.0549045162696454,0.0109999999999901));
#973=CARTESIAN_POINT('',(-0.0266011444260692,0.0549045162696454,0.0109999999999901));
#974=CARTESIAN_POINT('',(0.0127,0.06142,0.0109999999999901));
#975=CARTESIAN_POINT('',(0.01425,0.06142,0.0109999999999901));
#976=CARTESIAN_POINT('',(-0.0127000000000979,0.06142,0.0109999999999901));
#977=CARTESIAN_POINT('',(-0.0111500000000979,0.06142,0.0109999999999901));
#978=CARTESIAN_POINT('',(-0.0127000000000979,0.06142,-0.138669083328321));
#979=CARTESIAN_POINT('',(0.0127,0.06142,-0.138669083328321));
#980=CARTESIAN_POINT('',(-0.0306011444260692,0.0549045162696454,-0.138669083328321));
#981=CARTESIAN_POINT('',(0.0306011444258734,0.0549045162696454,-0.138669083328321));
#982=MECHANICAL_DESIGN_GEOMETRIC_PRESENTATION_REPRESENTATION('',(#595),
#983);
#983=(
GEOMETRIC_REPRESENTATION_CONTEXT(3)
GLOBAL_UNCERTAINTY_ASSIGNED_CONTEXT((#984))
GLOBAL_UNIT_ASSIGNED_CONTEXT((#987,#986,#985))
REPRESENTATION_CONTEXT('2f-85_base_1','TOP_LEVEL_ASSEMBLY_PART')
);
#984=UNCERTAINTY_MEASURE_WITH_UNIT(LENGTH_MEASURE(1.E-8),#987,
'DISTANCE_ACCURACY_VALUE','Maximum Tolerance applied to model');
#985=(
NAMED_UNIT(*)
SI_UNIT($,.STERADIAN.)
SOLID_ANGLE_UNIT()
);
#986=(
NAMED_UNIT(*)
PLANE_ANGLE_UNIT()
SI_UNIT($,.RADIAN.)
);
#987=(
LENGTH_UNIT()
NAMED_UNIT(*)
SI_UNIT($,.METRE.)
);
#988=PRODUCT_DEFINITION_SHAPE('','',#989);
#989=PRODUCT_DEFINITION('','',#991,#990);
#990=PRODUCT_DEFINITION_CONTEXT('',#997,'design');
#991=PRODUCT_DEFINITION_FORMATION_WITH_SPECIFIED_SOURCE('','',#993,
 .NOT_KNOWN.);
#992=PRODUCT_RELATED_PRODUCT_CATEGORY('','',(#993));
#993=PRODUCT('2f-85_base_1','2f-85_base_1','2f-85_base_1',(#995));
#994=PRODUCT_CATEGORY('','');
#995=PRODUCT_CONTEXT('',#997,'mechanical');
#996=APPLICATION_PROTOCOL_DEFINITION('international standard',
'ap242_managed_model_based_3d_engineering',2020,#997);
#997=APPLICATION_CONTEXT('managed model based 3d engineering');
ENDSEC;
END-ISO-10303-21;
