ISO-10303-21;
HEADER;
/* Generated by software containing ST-Developer
 * from STEP Tools, Inc. (www.steptools.com) 
 */
/* OPTION: using custom renumber hook */

FILE_DESCRIPTION(
/* description */ ('STEP AP242 Edition 2',
'CAx-IF Rec.Pracs.---Representation and Presentation of Product Manufa
cturing Information (PMI)---4.0---2014-10-13',
'CAx-IF Rec.Pracs.---3D Tessellated Geometry---0.4---2014-09-14','2;1',
'CAx-IF Rec.Pracs.---User Defined Attributes---1.5---2016-08-15'),
/* implementation_level */ '2;1');

FILE_NAME(
/* name */ 'servo_holder - servo_holder',
/* time_stamp */ '2026-04-28T10:57:54Z',
/* author */ (''),
/* organization */ (''),
/* preprocessor_version */ 'ST-DEVELOPER v20',
/* originating_system */ 'ONSHAPE BY PTC INC, 1.214',
/* authorisation */ '  ');

FILE_SCHEMA (('AP242_MANAGED_MODEL_BASED_3D_ENGINEERING_MIM_LF { 1 0 10303 442 3 1 4 }'));
ENDSEC;

DATA;
#10=SHAPE_REPRESENTATION_RELATIONSHIP('','',#745,#11);
#11=ADVANCED_BREP_SHAPE_REPRESENTATION('',(#743),#1183);
#12=CIRCLE('',#771,0.00165);
#13=CIRCLE('',#772,0.00165);
#14=CIRCLE('',#774,0.00165);
#15=CIRCLE('',#775,0.00165);
#16=CIRCLE('',#777,0.00165);
#17=CIRCLE('',#778,0.00165);
#18=CIRCLE('',#780,0.00165);
#19=CIRCLE('',#781,0.00165);
#20=CIRCLE('',#783,0.00165);
#21=CIRCLE('',#784,0.00165);
#22=CIRCLE('',#786,0.00165);
#23=CIRCLE('',#787,0.00165);
#24=CIRCLE('',#789,0.00165);
#25=CIRCLE('',#790,0.00165);
#26=CIRCLE('',#792,0.00165);
#27=CIRCLE('',#793,0.00165);
#28=CYLINDRICAL_SURFACE('',#770,0.00165);
#29=CYLINDRICAL_SURFACE('',#773,0.00165);
#30=CYLINDRICAL_SURFACE('',#776,0.00165);
#31=CYLINDRICAL_SURFACE('',#779,0.00165);
#32=CYLINDRICAL_SURFACE('',#782,0.00165);
#33=CYLINDRICAL_SURFACE('',#785,0.00165);
#34=CYLINDRICAL_SURFACE('',#788,0.00165);
#35=CYLINDRICAL_SURFACE('',#791,0.00165);
#36=ORIENTED_EDGE('',*,*,#224,.T.);
#37=ORIENTED_EDGE('',*,*,#225,.F.);
#38=ORIENTED_EDGE('',*,*,#226,.F.);
#39=ORIENTED_EDGE('',*,*,#227,.T.);
#40=ORIENTED_EDGE('',*,*,#228,.T.);
#41=ORIENTED_EDGE('',*,*,#229,.F.);
#42=ORIENTED_EDGE('',*,*,#230,.F.);
#43=ORIENTED_EDGE('',*,*,#225,.T.);
#44=ORIENTED_EDGE('',*,*,#231,.F.);
#45=ORIENTED_EDGE('',*,*,#232,.F.);
#46=ORIENTED_EDGE('',*,*,#233,.T.);
#47=ORIENTED_EDGE('',*,*,#229,.T.);
#48=ORIENTED_EDGE('',*,*,#234,.F.);
#49=ORIENTED_EDGE('',*,*,#235,.F.);
#50=ORIENTED_EDGE('',*,*,#236,.T.);
#51=ORIENTED_EDGE('',*,*,#237,.T.);
#52=ORIENTED_EDGE('',*,*,#238,.F.);
#53=ORIENTED_EDGE('',*,*,#239,.F.);
#54=ORIENTED_EDGE('',*,*,#240,.T.);
#55=ORIENTED_EDGE('',*,*,#235,.T.);
#56=ORIENTED_EDGE('',*,*,#241,.T.);
#57=ORIENTED_EDGE('',*,*,#242,.F.);
#58=ORIENTED_EDGE('',*,*,#243,.F.);
#59=ORIENTED_EDGE('',*,*,#239,.T.);
#60=ORIENTED_EDGE('',*,*,#244,.F.);
#61=ORIENTED_EDGE('',*,*,#245,.F.);
#62=ORIENTED_EDGE('',*,*,#246,.T.);
#63=ORIENTED_EDGE('',*,*,#247,.T.);
#64=ORIENTED_EDGE('',*,*,#248,.T.);
#65=ORIENTED_EDGE('',*,*,#249,.F.);
#66=ORIENTED_EDGE('',*,*,#250,.F.);
#67=ORIENTED_EDGE('',*,*,#245,.T.);
#68=ORIENTED_EDGE('',*,*,#251,.T.);
#69=ORIENTED_EDGE('',*,*,#252,.F.);
#70=ORIENTED_EDGE('',*,*,#253,.F.);
#71=ORIENTED_EDGE('',*,*,#249,.T.);
#72=ORIENTED_EDGE('',*,*,#254,.F.);
#73=ORIENTED_EDGE('',*,*,#255,.F.);
#74=ORIENTED_EDGE('',*,*,#256,.T.);
#75=ORIENTED_EDGE('',*,*,#252,.T.);
#76=ORIENTED_EDGE('',*,*,#257,.F.);
#77=ORIENTED_EDGE('',*,*,#258,.F.);
#78=ORIENTED_EDGE('',*,*,#259,.T.);
#79=ORIENTED_EDGE('',*,*,#255,.T.);
#80=ORIENTED_EDGE('',*,*,#260,.T.);
#81=ORIENTED_EDGE('',*,*,#261,.F.);
#82=ORIENTED_EDGE('',*,*,#262,.F.);
#83=ORIENTED_EDGE('',*,*,#258,.T.);
#84=ORIENTED_EDGE('',*,*,#263,.T.);
#85=ORIENTED_EDGE('',*,*,#264,.F.);
#86=ORIENTED_EDGE('',*,*,#265,.F.);
#87=ORIENTED_EDGE('',*,*,#261,.T.);
#88=ORIENTED_EDGE('',*,*,#266,.F.);
#89=ORIENTED_EDGE('',*,*,#267,.F.);
#90=ORIENTED_EDGE('',*,*,#268,.T.);
#91=ORIENTED_EDGE('',*,*,#264,.T.);
#92=ORIENTED_EDGE('',*,*,#269,.F.);
#93=ORIENTED_EDGE('',*,*,#270,.F.);
#94=ORIENTED_EDGE('',*,*,#271,.T.);
#95=ORIENTED_EDGE('',*,*,#267,.T.);
#96=ORIENTED_EDGE('',*,*,#272,.T.);
#97=ORIENTED_EDGE('',*,*,#273,.F.);
#98=ORIENTED_EDGE('',*,*,#274,.F.);
#99=ORIENTED_EDGE('',*,*,#270,.T.);
#100=ORIENTED_EDGE('',*,*,#275,.T.);
#101=ORIENTED_EDGE('',*,*,#276,.F.);
#102=ORIENTED_EDGE('',*,*,#277,.F.);
#103=ORIENTED_EDGE('',*,*,#273,.T.);
#104=ORIENTED_EDGE('',*,*,#278,.F.);
#105=ORIENTED_EDGE('',*,*,#279,.F.);
#106=ORIENTED_EDGE('',*,*,#280,.T.);
#107=ORIENTED_EDGE('',*,*,#276,.T.);
#108=ORIENTED_EDGE('',*,*,#281,.F.);
#109=ORIENTED_EDGE('',*,*,#282,.F.);
#110=ORIENTED_EDGE('',*,*,#283,.T.);
#111=ORIENTED_EDGE('',*,*,#279,.T.);
#112=ORIENTED_EDGE('',*,*,#284,.F.);
#113=ORIENTED_EDGE('',*,*,#285,.F.);
#114=ORIENTED_EDGE('',*,*,#286,.T.);
#115=ORIENTED_EDGE('',*,*,#282,.T.);
#116=ORIENTED_EDGE('',*,*,#287,.F.);
#117=ORIENTED_EDGE('',*,*,#288,.F.);
#118=ORIENTED_EDGE('',*,*,#289,.T.);
#119=ORIENTED_EDGE('',*,*,#285,.T.);
#120=ORIENTED_EDGE('',*,*,#290,.F.);
#121=ORIENTED_EDGE('',*,*,#291,.F.);
#122=ORIENTED_EDGE('',*,*,#292,.T.);
#123=ORIENTED_EDGE('',*,*,#288,.T.);
#124=ORIENTED_EDGE('',*,*,#293,.F.);
#125=ORIENTED_EDGE('',*,*,#294,.F.);
#126=ORIENTED_EDGE('',*,*,#295,.T.);
#127=ORIENTED_EDGE('',*,*,#291,.T.);
#128=ORIENTED_EDGE('',*,*,#296,.T.);
#129=ORIENTED_EDGE('',*,*,#297,.F.);
#130=ORIENTED_EDGE('',*,*,#298,.T.);
#131=ORIENTED_EDGE('',*,*,#299,.F.);
#132=ORIENTED_EDGE('',*,*,#300,.T.);
#133=ORIENTED_EDGE('',*,*,#301,.F.);
#134=ORIENTED_EDGE('',*,*,#302,.T.);
#135=ORIENTED_EDGE('',*,*,#303,.F.);
#136=ORIENTED_EDGE('',*,*,#304,.T.);
#137=ORIENTED_EDGE('',*,*,#305,.F.);
#138=ORIENTED_EDGE('',*,*,#306,.T.);
#139=ORIENTED_EDGE('',*,*,#307,.F.);
#140=ORIENTED_EDGE('',*,*,#308,.T.);
#141=ORIENTED_EDGE('',*,*,#309,.F.);
#142=ORIENTED_EDGE('',*,*,#310,.T.);
#143=ORIENTED_EDGE('',*,*,#311,.F.);
#144=ORIENTED_EDGE('',*,*,#312,.T.);
#145=ORIENTED_EDGE('',*,*,#237,.F.);
#146=ORIENTED_EDGE('',*,*,#313,.F.);
#147=ORIENTED_EDGE('',*,*,#242,.T.);
#148=ORIENTED_EDGE('',*,*,#314,.F.);
#149=ORIENTED_EDGE('',*,*,#247,.F.);
#150=ORIENTED_EDGE('',*,*,#315,.T.);
#151=ORIENTED_EDGE('',*,*,#294,.T.);
#152=ORIENTED_EDGE('',*,*,#316,.F.);
#153=ORIENTED_EDGE('',*,*,#227,.F.);
#154=ORIENTED_EDGE('',*,*,#317,.T.);
#155=ORIENTED_EDGE('',*,*,#232,.T.);
#156=ORIENTED_EDGE('',*,*,#246,.F.);
#157=ORIENTED_EDGE('',*,*,#250,.T.);
#158=ORIENTED_EDGE('',*,*,#253,.T.);
#159=ORIENTED_EDGE('',*,*,#256,.F.);
#160=ORIENTED_EDGE('',*,*,#259,.F.);
#161=ORIENTED_EDGE('',*,*,#262,.T.);
#162=ORIENTED_EDGE('',*,*,#265,.T.);
#163=ORIENTED_EDGE('',*,*,#268,.F.);
#164=ORIENTED_EDGE('',*,*,#271,.F.);
#165=ORIENTED_EDGE('',*,*,#274,.T.);
#166=ORIENTED_EDGE('',*,*,#277,.T.);
#167=ORIENTED_EDGE('',*,*,#280,.F.);
#168=ORIENTED_EDGE('',*,*,#283,.F.);
#169=ORIENTED_EDGE('',*,*,#286,.F.);
#170=ORIENTED_EDGE('',*,*,#289,.F.);
#171=ORIENTED_EDGE('',*,*,#292,.F.);
#172=ORIENTED_EDGE('',*,*,#295,.F.);
#173=ORIENTED_EDGE('',*,*,#315,.F.);
#174=ORIENTED_EDGE('',*,*,#236,.F.);
#175=ORIENTED_EDGE('',*,*,#240,.F.);
#176=ORIENTED_EDGE('',*,*,#243,.T.);
#177=ORIENTED_EDGE('',*,*,#313,.T.);
#178=ORIENTED_EDGE('',*,*,#310,.F.);
#179=ORIENTED_EDGE('',*,*,#308,.F.);
#180=ORIENTED_EDGE('',*,*,#306,.F.);
#181=ORIENTED_EDGE('',*,*,#304,.F.);
#182=ORIENTED_EDGE('',*,*,#302,.F.);
#183=ORIENTED_EDGE('',*,*,#300,.F.);
#184=ORIENTED_EDGE('',*,*,#298,.F.);
#185=ORIENTED_EDGE('',*,*,#296,.F.);
#186=ORIENTED_EDGE('',*,*,#226,.T.);
#187=ORIENTED_EDGE('',*,*,#230,.T.);
#188=ORIENTED_EDGE('',*,*,#233,.F.);
#189=ORIENTED_EDGE('',*,*,#317,.F.);
#190=ORIENTED_EDGE('',*,*,#244,.T.);
#191=ORIENTED_EDGE('',*,*,#314,.T.);
#192=ORIENTED_EDGE('',*,*,#293,.T.);
#193=ORIENTED_EDGE('',*,*,#290,.T.);
#194=ORIENTED_EDGE('',*,*,#287,.T.);
#195=ORIENTED_EDGE('',*,*,#284,.T.);
#196=ORIENTED_EDGE('',*,*,#281,.T.);
#197=ORIENTED_EDGE('',*,*,#278,.T.);
#198=ORIENTED_EDGE('',*,*,#275,.F.);
#199=ORIENTED_EDGE('',*,*,#272,.F.);
#200=ORIENTED_EDGE('',*,*,#269,.T.);
#201=ORIENTED_EDGE('',*,*,#266,.T.);
#202=ORIENTED_EDGE('',*,*,#263,.F.);
#203=ORIENTED_EDGE('',*,*,#260,.F.);
#204=ORIENTED_EDGE('',*,*,#257,.T.);
#205=ORIENTED_EDGE('',*,*,#254,.T.);
#206=ORIENTED_EDGE('',*,*,#251,.F.);
#207=ORIENTED_EDGE('',*,*,#248,.F.);
#208=ORIENTED_EDGE('',*,*,#234,.T.);
#209=ORIENTED_EDGE('',*,*,#312,.F.);
#210=ORIENTED_EDGE('',*,*,#241,.F.);
#211=ORIENTED_EDGE('',*,*,#238,.T.);
#212=ORIENTED_EDGE('',*,*,#311,.T.);
#213=ORIENTED_EDGE('',*,*,#309,.T.);
#214=ORIENTED_EDGE('',*,*,#307,.T.);
#215=ORIENTED_EDGE('',*,*,#305,.T.);
#216=ORIENTED_EDGE('',*,*,#303,.T.);
#217=ORIENTED_EDGE('',*,*,#301,.T.);
#218=ORIENTED_EDGE('',*,*,#299,.T.);
#219=ORIENTED_EDGE('',*,*,#297,.T.);
#220=ORIENTED_EDGE('',*,*,#224,.F.);
#221=ORIENTED_EDGE('',*,*,#316,.T.);
#222=ORIENTED_EDGE('',*,*,#231,.T.);
#223=ORIENTED_EDGE('',*,*,#228,.F.);
#224=EDGE_CURVE('',#318,#319,#386,.T.);
#225=EDGE_CURVE('',#320,#319,#387,.T.);
#226=EDGE_CURVE('',#321,#320,#388,.T.);
#227=EDGE_CURVE('',#321,#318,#389,.T.);
#228=EDGE_CURVE('',#319,#322,#390,.T.);
#229=EDGE_CURVE('',#323,#322,#391,.T.);
#230=EDGE_CURVE('',#320,#323,#392,.T.);
#231=EDGE_CURVE('',#324,#322,#393,.T.);
#232=EDGE_CURVE('',#325,#324,#394,.T.);
#233=EDGE_CURVE('',#325,#323,#395,.T.);
#234=EDGE_CURVE('',#326,#327,#396,.T.);
#235=EDGE_CURVE('',#328,#326,#397,.T.);
#236=EDGE_CURVE('',#328,#329,#398,.T.);
#237=EDGE_CURVE('',#329,#327,#399,.T.);
#238=EDGE_CURVE('',#330,#326,#400,.T.);
#239=EDGE_CURVE('',#331,#330,#401,.T.);
#240=EDGE_CURVE('',#331,#328,#402,.T.);
#241=EDGE_CURVE('',#330,#332,#403,.T.);
#242=EDGE_CURVE('',#333,#332,#404,.T.);
#243=EDGE_CURVE('',#331,#333,#405,.T.);
#244=EDGE_CURVE('',#334,#335,#406,.T.);
#245=EDGE_CURVE('',#336,#334,#407,.T.);
#246=EDGE_CURVE('',#336,#337,#408,.T.);
#247=EDGE_CURVE('',#337,#335,#409,.T.);
#248=EDGE_CURVE('',#334,#338,#410,.T.);
#249=EDGE_CURVE('',#339,#338,#411,.T.);
#250=EDGE_CURVE('',#336,#339,#412,.T.);
#251=EDGE_CURVE('',#338,#340,#413,.T.);
#252=EDGE_CURVE('',#341,#340,#414,.T.);
#253=EDGE_CURVE('',#339,#341,#415,.T.);
#254=EDGE_CURVE('',#342,#340,#416,.T.);
#255=EDGE_CURVE('',#343,#342,#417,.T.);
#256=EDGE_CURVE('',#343,#341,#418,.T.);
#257=EDGE_CURVE('',#344,#342,#419,.T.);
#258=EDGE_CURVE('',#345,#344,#420,.T.);
#259=EDGE_CURVE('',#345,#343,#421,.T.);
#260=EDGE_CURVE('',#344,#346,#422,.T.);
#261=EDGE_CURVE('',#347,#346,#423,.T.);
#262=EDGE_CURVE('',#345,#347,#424,.T.);
#263=EDGE_CURVE('',#346,#348,#425,.T.);
#264=EDGE_CURVE('',#349,#348,#426,.T.);
#265=EDGE_CURVE('',#347,#349,#427,.T.);
#266=EDGE_CURVE('',#350,#348,#428,.T.);
#267=EDGE_CURVE('',#351,#350,#429,.T.);
#268=EDGE_CURVE('',#351,#349,#430,.T.);
#269=EDGE_CURVE('',#352,#350,#431,.T.);
#270=EDGE_CURVE('',#353,#352,#432,.T.);
#271=EDGE_CURVE('',#353,#351,#433,.T.);
#272=EDGE_CURVE('',#352,#354,#434,.T.);
#273=EDGE_CURVE('',#355,#354,#435,.T.);
#274=EDGE_CURVE('',#353,#355,#436,.T.);
#275=EDGE_CURVE('',#354,#356,#437,.T.);
#276=EDGE_CURVE('',#357,#356,#438,.T.);
#277=EDGE_CURVE('',#355,#357,#439,.T.);
#278=EDGE_CURVE('',#358,#356,#440,.T.);
#279=EDGE_CURVE('',#359,#358,#441,.T.);
#280=EDGE_CURVE('',#359,#357,#442,.T.);
#281=EDGE_CURVE('',#360,#358,#443,.T.);
#282=EDGE_CURVE('',#361,#360,#444,.T.);
#283=EDGE_CURVE('',#361,#359,#445,.T.);
#284=EDGE_CURVE('',#362,#360,#446,.T.);
#285=EDGE_CURVE('',#363,#362,#447,.T.);
#286=EDGE_CURVE('',#363,#361,#448,.T.);
#287=EDGE_CURVE('',#364,#362,#449,.T.);
#288=EDGE_CURVE('',#365,#364,#450,.T.);
#289=EDGE_CURVE('',#365,#363,#451,.T.);
#290=EDGE_CURVE('',#366,#364,#452,.T.);
#291=EDGE_CURVE('',#367,#366,#453,.T.);
#292=EDGE_CURVE('',#367,#365,#454,.T.);
#293=EDGE_CURVE('',#368,#366,#455,.T.);
#294=EDGE_CURVE('',#369,#368,#456,.T.);
#295=EDGE_CURVE('',#369,#367,#457,.T.);
#296=EDGE_CURVE('',#370,#370,#12,.T.);
#297=EDGE_CURVE('',#371,#371,#13,.T.);
#298=EDGE_CURVE('',#372,#372,#14,.T.);
#299=EDGE_CURVE('',#373,#373,#15,.T.);
#300=EDGE_CURVE('',#374,#374,#16,.T.);
#301=EDGE_CURVE('',#375,#375,#17,.T.);
#302=EDGE_CURVE('',#376,#376,#18,.T.);
#303=EDGE_CURVE('',#377,#377,#19,.T.);
#304=EDGE_CURVE('',#378,#378,#20,.T.);
#305=EDGE_CURVE('',#379,#379,#21,.T.);
#306=EDGE_CURVE('',#380,#380,#22,.T.);
#307=EDGE_CURVE('',#381,#381,#23,.T.);
#308=EDGE_CURVE('',#382,#382,#24,.T.);
#309=EDGE_CURVE('',#383,#383,#25,.T.);
#310=EDGE_CURVE('',#384,#384,#26,.T.);
#311=EDGE_CURVE('',#385,#385,#27,.T.);
#312=EDGE_CURVE('',#332,#327,#458,.T.);
#313=EDGE_CURVE('',#333,#329,#459,.T.);
#314=EDGE_CURVE('',#335,#368,#460,.T.);
#315=EDGE_CURVE('',#337,#369,#461,.T.);
#316=EDGE_CURVE('',#318,#324,#462,.T.);
#317=EDGE_CURVE('',#321,#325,#463,.T.);
#318=VERTEX_POINT('',#986);
#319=VERTEX_POINT('',#987);
#320=VERTEX_POINT('',#989);
#321=VERTEX_POINT('',#991);
#322=VERTEX_POINT('',#995);
#323=VERTEX_POINT('',#997);
#324=VERTEX_POINT('',#1001);
#325=VERTEX_POINT('',#1003);
#326=VERTEX_POINT('',#1007);
#327=VERTEX_POINT('',#1008);
#328=VERTEX_POINT('',#1010);
#329=VERTEX_POINT('',#1012);
#330=VERTEX_POINT('',#1016);
#331=VERTEX_POINT('',#1018);
#332=VERTEX_POINT('',#1022);
#333=VERTEX_POINT('',#1024);
#334=VERTEX_POINT('',#1028);
#335=VERTEX_POINT('',#1029);
#336=VERTEX_POINT('',#1031);
#337=VERTEX_POINT('',#1033);
#338=VERTEX_POINT('',#1037);
#339=VERTEX_POINT('',#1039);
#340=VERTEX_POINT('',#1043);
#341=VERTEX_POINT('',#1045);
#342=VERTEX_POINT('',#1049);
#343=VERTEX_POINT('',#1051);
#344=VERTEX_POINT('',#1055);
#345=VERTEX_POINT('',#1057);
#346=VERTEX_POINT('',#1061);
#347=VERTEX_POINT('',#1063);
#348=VERTEX_POINT('',#1067);
#349=VERTEX_POINT('',#1069);
#350=VERTEX_POINT('',#1073);
#351=VERTEX_POINT('',#1075);
#352=VERTEX_POINT('',#1079);
#353=VERTEX_POINT('',#1081);
#354=VERTEX_POINT('',#1085);
#355=VERTEX_POINT('',#1087);
#356=VERTEX_POINT('',#1091);
#357=VERTEX_POINT('',#1093);
#358=VERTEX_POINT('',#1097);
#359=VERTEX_POINT('',#1099);
#360=VERTEX_POINT('',#1103);
#361=VERTEX_POINT('',#1105);
#362=VERTEX_POINT('',#1109);
#363=VERTEX_POINT('',#1111);
#364=VERTEX_POINT('',#1115);
#365=VERTEX_POINT('',#1117);
#366=VERTEX_POINT('',#1121);
#367=VERTEX_POINT('',#1123);
#368=VERTEX_POINT('',#1127);
#369=VERTEX_POINT('',#1129);
#370=VERTEX_POINT('',#1133);
#371=VERTEX_POINT('',#1135);
#372=VERTEX_POINT('',#1138);
#373=VERTEX_POINT('',#1140);
#374=VERTEX_POINT('',#1143);
#375=VERTEX_POINT('',#1145);
#376=VERTEX_POINT('',#1148);
#377=VERTEX_POINT('',#1150);
#378=VERTEX_POINT('',#1153);
#379=VERTEX_POINT('',#1155);
#380=VERTEX_POINT('',#1158);
#381=VERTEX_POINT('',#1160);
#382=VERTEX_POINT('',#1163);
#383=VERTEX_POINT('',#1165);
#384=VERTEX_POINT('',#1168);
#385=VERTEX_POINT('',#1170);
#386=LINE('',#985,#464);
#387=LINE('',#988,#465);
#388=LINE('',#990,#466);
#389=LINE('',#992,#467);
#390=LINE('',#994,#468);
#391=LINE('',#996,#469);
#392=LINE('',#998,#470);
#393=LINE('',#1000,#471);
#394=LINE('',#1002,#472);
#395=LINE('',#1004,#473);
#396=LINE('',#1006,#474);
#397=LINE('',#1009,#475);
#398=LINE('',#1011,#476);
#399=LINE('',#1013,#477);
#400=LINE('',#1015,#478);
#401=LINE('',#1017,#479);
#402=LINE('',#1019,#480);
#403=LINE('',#1021,#481);
#404=LINE('',#1023,#482);
#405=LINE('',#1025,#483);
#406=LINE('',#1027,#484);
#407=LINE('',#1030,#485);
#408=LINE('',#1032,#486);
#409=LINE('',#1034,#487);
#410=LINE('',#1036,#488);
#411=LINE('',#1038,#489);
#412=LINE('',#1040,#490);
#413=LINE('',#1042,#491);
#414=LINE('',#1044,#492);
#415=LINE('',#1046,#493);
#416=LINE('',#1048,#494);
#417=LINE('',#1050,#495);
#418=LINE('',#1052,#496);
#419=LINE('',#1054,#497);
#420=LINE('',#1056,#498);
#421=LINE('',#1058,#499);
#422=LINE('',#1060,#500);
#423=LINE('',#1062,#501);
#424=LINE('',#1064,#502);
#425=LINE('',#1066,#503);
#426=LINE('',#1068,#504);
#427=LINE('',#1070,#505);
#428=LINE('',#1072,#506);
#429=LINE('',#1074,#507);
#430=LINE('',#1076,#508);
#431=LINE('',#1078,#509);
#432=LINE('',#1080,#510);
#433=LINE('',#1082,#511);
#434=LINE('',#1084,#512);
#435=LINE('',#1086,#513);
#436=LINE('',#1088,#514);
#437=LINE('',#1090,#515);
#438=LINE('',#1092,#516);
#439=LINE('',#1094,#517);
#440=LINE('',#1096,#518);
#441=LINE('',#1098,#519);
#442=LINE('',#1100,#520);
#443=LINE('',#1102,#521);
#444=LINE('',#1104,#522);
#445=LINE('',#1106,#523);
#446=LINE('',#1108,#524);
#447=LINE('',#1110,#525);
#448=LINE('',#1112,#526);
#449=LINE('',#1114,#527);
#450=LINE('',#1116,#528);
#451=LINE('',#1118,#529);
#452=LINE('',#1120,#530);
#453=LINE('',#1122,#531);
#454=LINE('',#1124,#532);
#455=LINE('',#1126,#533);
#456=LINE('',#1128,#534);
#457=LINE('',#1130,#535);
#458=LINE('',#1172,#536);
#459=LINE('',#1173,#537);
#460=LINE('',#1175,#538);
#461=LINE('',#1176,#539);
#462=LINE('',#1178,#540);
#463=LINE('',#1179,#541);
#464=VECTOR('',#803,1.);
#465=VECTOR('',#804,1.);
#466=VECTOR('',#805,1.);
#467=VECTOR('',#806,1.);
#468=VECTOR('',#809,1.);
#469=VECTOR('',#810,1.);
#470=VECTOR('',#811,1.);
#471=VECTOR('',#814,1.);
#472=VECTOR('',#815,1.);
#473=VECTOR('',#816,1.);
#474=VECTOR('',#819,1.);
#475=VECTOR('',#820,1.);
#476=VECTOR('',#821,1.);
#477=VECTOR('',#822,1.);
#478=VECTOR('',#825,1.);
#479=VECTOR('',#826,1.);
#480=VECTOR('',#827,1.);
#481=VECTOR('',#830,1.);
#482=VECTOR('',#831,1.);
#483=VECTOR('',#832,1.);
#484=VECTOR('',#835,1.);
#485=VECTOR('',#836,1.);
#486=VECTOR('',#837,1.);
#487=VECTOR('',#838,1.);
#488=VECTOR('',#841,1.);
#489=VECTOR('',#842,1.);
#490=VECTOR('',#843,1.);
#491=VECTOR('',#846,1.);
#492=VECTOR('',#847,1.);
#493=VECTOR('',#848,1.);
#494=VECTOR('',#851,1.);
#495=VECTOR('',#852,1.);
#496=VECTOR('',#853,1.);
#497=VECTOR('',#856,1.);
#498=VECTOR('',#857,1.);
#499=VECTOR('',#858,1.);
#500=VECTOR('',#861,1.);
#501=VECTOR('',#862,1.);
#502=VECTOR('',#863,1.);
#503=VECTOR('',#866,1.);
#504=VECTOR('',#867,1.);
#505=VECTOR('',#868,1.);
#506=VECTOR('',#871,1.);
#507=VECTOR('',#872,1.);
#508=VECTOR('',#873,1.);
#509=VECTOR('',#876,1.);
#510=VECTOR('',#877,1.);
#511=VECTOR('',#878,1.);
#512=VECTOR('',#881,1.);
#513=VECTOR('',#882,1.);
#514=VECTOR('',#883,1.);
#515=VECTOR('',#886,1.);
#516=VECTOR('',#887,1.);
#517=VECTOR('',#888,1.);
#518=VECTOR('',#891,1.);
#519=VECTOR('',#892,1.);
#520=VECTOR('',#893,1.);
#521=VECTOR('',#896,1.);
#522=VECTOR('',#897,1.);
#523=VECTOR('',#898,1.);
#524=VECTOR('',#901,1.);
#525=VECTOR('',#902,1.);
#526=VECTOR('',#903,1.);
#527=VECTOR('',#906,1.);
#528=VECTOR('',#907,1.);
#529=VECTOR('',#908,1.);
#530=VECTOR('',#911,1.);
#531=VECTOR('',#912,1.);
#532=VECTOR('',#913,1.);
#533=VECTOR('',#916,1.);
#534=VECTOR('',#917,1.);
#535=VECTOR('',#918,1.);
#536=VECTOR('',#969,1.);
#537=VECTOR('',#970,1.);
#538=VECTOR('',#973,1.);
#539=VECTOR('',#974,1.);
#540=VECTOR('',#977,1.);
#541=VECTOR('',#978,1.);
#542=EDGE_LOOP('',(#36,#37,#38,#39));
#543=EDGE_LOOP('',(#40,#41,#42,#43));
#544=EDGE_LOOP('',(#44,#45,#46,#47));
#545=EDGE_LOOP('',(#48,#49,#50,#51));
#546=EDGE_LOOP('',(#52,#53,#54,#55));
#547=EDGE_LOOP('',(#56,#57,#58,#59));
#548=EDGE_LOOP('',(#60,#61,#62,#63));
#549=EDGE_LOOP('',(#64,#65,#66,#67));
#550=EDGE_LOOP('',(#68,#69,#70,#71));
#551=EDGE_LOOP('',(#72,#73,#74,#75));
#552=EDGE_LOOP('',(#76,#77,#78,#79));
#553=EDGE_LOOP('',(#80,#81,#82,#83));
#554=EDGE_LOOP('',(#84,#85,#86,#87));
#555=EDGE_LOOP('',(#88,#89,#90,#91));
#556=EDGE_LOOP('',(#92,#93,#94,#95));
#557=EDGE_LOOP('',(#96,#97,#98,#99));
#558=EDGE_LOOP('',(#100,#101,#102,#103));
#559=EDGE_LOOP('',(#104,#105,#106,#107));
#560=EDGE_LOOP('',(#108,#109,#110,#111));
#561=EDGE_LOOP('',(#112,#113,#114,#115));
#562=EDGE_LOOP('',(#116,#117,#118,#119));
#563=EDGE_LOOP('',(#120,#121,#122,#123));
#564=EDGE_LOOP('',(#124,#125,#126,#127));
#565=EDGE_LOOP('',(#128));
#566=EDGE_LOOP('',(#129));
#567=EDGE_LOOP('',(#130));
#568=EDGE_LOOP('',(#131));
#569=EDGE_LOOP('',(#132));
#570=EDGE_LOOP('',(#133));
#571=EDGE_LOOP('',(#134));
#572=EDGE_LOOP('',(#135));
#573=EDGE_LOOP('',(#136));
#574=EDGE_LOOP('',(#137));
#575=EDGE_LOOP('',(#138));
#576=EDGE_LOOP('',(#139));
#577=EDGE_LOOP('',(#140));
#578=EDGE_LOOP('',(#141));
#579=EDGE_LOOP('',(#142));
#580=EDGE_LOOP('',(#143));
#581=EDGE_LOOP('',(#144,#145,#146,#147));
#582=EDGE_LOOP('',(#148,#149,#150,#151));
#583=EDGE_LOOP('',(#152,#153,#154,#155));
#584=EDGE_LOOP('',(#156,#157,#158,#159,#160,#161,#162,#163,#164,#165,#166,
#167,#168,#169,#170,#171,#172,#173));
#585=EDGE_LOOP('',(#174,#175,#176,#177));
#586=EDGE_LOOP('',(#178));
#587=EDGE_LOOP('',(#179));
#588=EDGE_LOOP('',(#180));
#589=EDGE_LOOP('',(#181));
#590=EDGE_LOOP('',(#182));
#591=EDGE_LOOP('',(#183));
#592=EDGE_LOOP('',(#184));
#593=EDGE_LOOP('',(#185));
#594=EDGE_LOOP('',(#186,#187,#188,#189));
#595=EDGE_LOOP('',(#190,#191,#192,#193,#194,#195,#196,#197,#198,#199,#200,
#201,#202,#203,#204,#205,#206,#207));
#596=EDGE_LOOP('',(#208,#209,#210,#211));
#597=EDGE_LOOP('',(#212));
#598=EDGE_LOOP('',(#213));
#599=EDGE_LOOP('',(#214));
#600=EDGE_LOOP('',(#215));
#601=EDGE_LOOP('',(#216));
#602=EDGE_LOOP('',(#217));
#603=EDGE_LOOP('',(#218));
#604=EDGE_LOOP('',(#219));
#605=EDGE_LOOP('',(#220,#221,#222,#223));
#606=FACE_BOUND('',#542,.T.);
#607=FACE_BOUND('',#543,.T.);
#608=FACE_BOUND('',#544,.T.);
#609=FACE_BOUND('',#545,.T.);
#610=FACE_BOUND('',#546,.T.);
#611=FACE_BOUND('',#547,.T.);
#612=FACE_BOUND('',#548,.T.);
#613=FACE_BOUND('',#549,.T.);
#614=FACE_BOUND('',#550,.T.);
#615=FACE_BOUND('',#551,.T.);
#616=FACE_BOUND('',#552,.T.);
#617=FACE_BOUND('',#553,.T.);
#618=FACE_BOUND('',#554,.T.);
#619=FACE_BOUND('',#555,.T.);
#620=FACE_BOUND('',#556,.T.);
#621=FACE_BOUND('',#557,.T.);
#622=FACE_BOUND('',#558,.T.);
#623=FACE_BOUND('',#559,.T.);
#624=FACE_BOUND('',#560,.T.);
#625=FACE_BOUND('',#561,.T.);
#626=FACE_BOUND('',#562,.T.);
#627=FACE_BOUND('',#563,.T.);
#628=FACE_BOUND('',#564,.T.);
#629=FACE_BOUND('',#565,.T.);
#630=FACE_BOUND('',#566,.T.);
#631=FACE_BOUND('',#567,.T.);
#632=FACE_BOUND('',#568,.T.);
#633=FACE_BOUND('',#569,.T.);
#634=FACE_BOUND('',#570,.T.);
#635=FACE_BOUND('',#571,.T.);
#636=FACE_BOUND('',#572,.T.);
#637=FACE_BOUND('',#573,.T.);
#638=FACE_BOUND('',#574,.T.);
#639=FACE_BOUND('',#575,.T.);
#640=FACE_BOUND('',#576,.T.);
#641=FACE_BOUND('',#577,.T.);
#642=FACE_BOUND('',#578,.T.);
#643=FACE_BOUND('',#579,.T.);
#644=FACE_BOUND('',#580,.T.);
#645=FACE_BOUND('',#581,.T.);
#646=FACE_BOUND('',#582,.T.);
#647=FACE_BOUND('',#583,.T.);
#648=FACE_BOUND('',#584,.T.);
#649=FACE_BOUND('',#585,.T.);
#650=FACE_BOUND('',#586,.T.);
#651=FACE_BOUND('',#587,.T.);
#652=FACE_BOUND('',#588,.T.);
#653=FACE_BOUND('',#589,.T.);
#654=FACE_BOUND('',#590,.T.);
#655=FACE_BOUND('',#591,.T.);
#656=FACE_BOUND('',#592,.T.);
#657=FACE_BOUND('',#593,.T.);
#658=FACE_BOUND('',#594,.T.);
#659=FACE_BOUND('',#595,.T.);
#660=FACE_BOUND('',#596,.T.);
#661=FACE_BOUND('',#597,.T.);
#662=FACE_BOUND('',#598,.T.);
#663=FACE_BOUND('',#599,.T.);
#664=FACE_BOUND('',#600,.T.);
#665=FACE_BOUND('',#601,.T.);
#666=FACE_BOUND('',#602,.T.);
#667=FACE_BOUND('',#603,.T.);
#668=FACE_BOUND('',#604,.T.);
#669=FACE_BOUND('',#605,.T.);
#670=PLANE('',#747);
#671=PLANE('',#748);
#672=PLANE('',#749);
#673=PLANE('',#750);
#674=PLANE('',#751);
#675=PLANE('',#752);
#676=PLANE('',#753);
#677=PLANE('',#754);
#678=PLANE('',#755);
#679=PLANE('',#756);
#680=PLANE('',#757);
#681=PLANE('',#758);
#682=PLANE('',#759);
#683=PLANE('',#760);
#684=PLANE('',#761);
#685=PLANE('',#762);
#686=PLANE('',#763);
#687=PLANE('',#764);
#688=PLANE('',#765);
#689=PLANE('',#766);
#690=PLANE('',#767);
#691=PLANE('',#768);
#692=PLANE('',#769);
#693=PLANE('',#794);
#694=PLANE('',#795);
#695=PLANE('',#796);
#696=PLANE('',#797);
#697=PLANE('',#798);
#698=ADVANCED_FACE('',(#606),#670,.F.);
#699=ADVANCED_FACE('',(#607),#671,.F.);
#700=ADVANCED_FACE('',(#608),#672,.T.);
#701=ADVANCED_FACE('',(#609),#673,.T.);
#702=ADVANCED_FACE('',(#610),#674,.T.);
#703=ADVANCED_FACE('',(#611),#675,.F.);
#704=ADVANCED_FACE('',(#612),#676,.T.);
#705=ADVANCED_FACE('',(#613),#677,.F.);
#706=ADVANCED_FACE('',(#614),#678,.F.);
#707=ADVANCED_FACE('',(#615),#679,.T.);
#708=ADVANCED_FACE('',(#616),#680,.T.);
#709=ADVANCED_FACE('',(#617),#681,.F.);
#710=ADVANCED_FACE('',(#618),#682,.F.);
#711=ADVANCED_FACE('',(#619),#683,.T.);
#712=ADVANCED_FACE('',(#620),#684,.T.);
#713=ADVANCED_FACE('',(#621),#685,.F.);
#714=ADVANCED_FACE('',(#622),#686,.F.);
#715=ADVANCED_FACE('',(#623),#687,.T.);
#716=ADVANCED_FACE('',(#624),#688,.T.);
#717=ADVANCED_FACE('',(#625),#689,.T.);
#718=ADVANCED_FACE('',(#626),#690,.T.);
#719=ADVANCED_FACE('',(#627),#691,.T.);
#720=ADVANCED_FACE('',(#628),#692,.T.);
#721=ADVANCED_FACE('',(#629,#630),#28,.F.);
#722=ADVANCED_FACE('',(#631,#632),#29,.F.);
#723=ADVANCED_FACE('',(#633,#634),#30,.F.);
#724=ADVANCED_FACE('',(#635,#636),#31,.F.);
#725=ADVANCED_FACE('',(#637,#638),#32,.F.);
#726=ADVANCED_FACE('',(#639,#640),#33,.F.);
#727=ADVANCED_FACE('',(#641,#642),#34,.F.);
#728=ADVANCED_FACE('',(#643,#644),#35,.F.);
#729=ADVANCED_FACE('',(#645),#693,.F.);
#730=ADVANCED_FACE('',(#646),#694,.T.);
#731=ADVANCED_FACE('',(#647),#695,.T.);
#732=ADVANCED_FACE('',(#648,#649,#650,#651,#652,#653,#654,#655,#656,#657,
#658),#696,.T.);
#733=ADVANCED_FACE('',(#659,#660,#661,#662,#663,#664,#665,#666,#667,#668,
#669),#697,.F.);
#734=CLOSED_SHELL('',(#698,#699,#700,#701,#702,#703,#704,#705,#706,#707,
#708,#709,#710,#711,#712,#713,#714,#715,#716,#717,#718,#719,#720,#721,#722,
#723,#724,#725,#726,#727,#728,#729,#730,#731,#732,#733));
#735=STYLED_ITEM('',(#736),#743);
#736=PRESENTATION_STYLE_ASSIGNMENT((#737));
#737=SURFACE_STYLE_USAGE(.BOTH.,#738);
#738=SURFACE_SIDE_STYLE('',(#739));
#739=SURFACE_STYLE_FILL_AREA(#740);
#740=FILL_AREA_STYLE('',(#741));
#741=FILL_AREA_STYLE_COLOUR('',#742);
#742=COLOUR_RGB('',0.615686274509804,0.811764705882353,0.929411764705882);
#743=MANIFOLD_SOLID_BREP('servo_holder',#734);
#744=SHAPE_DEFINITION_REPRESENTATION(#1188,#745);
#745=SHAPE_REPRESENTATION('servo_holder',(#746),#1183);
#746=AXIS2_PLACEMENT_3D('',#983,#799,#800);
#747=AXIS2_PLACEMENT_3D('',#984,#801,#802);
#748=AXIS2_PLACEMENT_3D('',#993,#807,#808);
#749=AXIS2_PLACEMENT_3D('',#999,#812,#813);
#750=AXIS2_PLACEMENT_3D('',#1005,#817,#818);
#751=AXIS2_PLACEMENT_3D('',#1014,#823,#824);
#752=AXIS2_PLACEMENT_3D('',#1020,#828,#829);
#753=AXIS2_PLACEMENT_3D('',#1026,#833,#834);
#754=AXIS2_PLACEMENT_3D('',#1035,#839,#840);
#755=AXIS2_PLACEMENT_3D('',#1041,#844,#845);
#756=AXIS2_PLACEMENT_3D('',#1047,#849,#850);
#757=AXIS2_PLACEMENT_3D('',#1053,#854,#855);
#758=AXIS2_PLACEMENT_3D('',#1059,#859,#860);
#759=AXIS2_PLACEMENT_3D('',#1065,#864,#865);
#760=AXIS2_PLACEMENT_3D('',#1071,#869,#870);
#761=AXIS2_PLACEMENT_3D('',#1077,#874,#875);
#762=AXIS2_PLACEMENT_3D('',#1083,#879,#880);
#763=AXIS2_PLACEMENT_3D('',#1089,#884,#885);
#764=AXIS2_PLACEMENT_3D('',#1095,#889,#890);
#765=AXIS2_PLACEMENT_3D('',#1101,#894,#895);
#766=AXIS2_PLACEMENT_3D('',#1107,#899,#900);
#767=AXIS2_PLACEMENT_3D('',#1113,#904,#905);
#768=AXIS2_PLACEMENT_3D('',#1119,#909,#910);
#769=AXIS2_PLACEMENT_3D('',#1125,#914,#915);
#770=AXIS2_PLACEMENT_3D('',#1131,#919,#920);
#771=AXIS2_PLACEMENT_3D('',#1132,#921,#922);
#772=AXIS2_PLACEMENT_3D('',#1134,#923,#924);
#773=AXIS2_PLACEMENT_3D('',#1136,#925,#926);
#774=AXIS2_PLACEMENT_3D('',#1137,#927,#928);
#775=AXIS2_PLACEMENT_3D('',#1139,#929,#930);
#776=AXIS2_PLACEMENT_3D('',#1141,#931,#932);
#777=AXIS2_PLACEMENT_3D('',#1142,#933,#934);
#778=AXIS2_PLACEMENT_3D('',#1144,#935,#936);
#779=AXIS2_PLACEMENT_3D('',#1146,#937,#938);
#780=AXIS2_PLACEMENT_3D('',#1147,#939,#940);
#781=AXIS2_PLACEMENT_3D('',#1149,#941,#942);
#782=AXIS2_PLACEMENT_3D('',#1151,#943,#944);
#783=AXIS2_PLACEMENT_3D('',#1152,#945,#946);
#784=AXIS2_PLACEMENT_3D('',#1154,#947,#948);
#785=AXIS2_PLACEMENT_3D('',#1156,#949,#950);
#786=AXIS2_PLACEMENT_3D('',#1157,#951,#952);
#787=AXIS2_PLACEMENT_3D('',#1159,#953,#954);
#788=AXIS2_PLACEMENT_3D('',#1161,#955,#956);
#789=AXIS2_PLACEMENT_3D('',#1162,#957,#958);
#790=AXIS2_PLACEMENT_3D('',#1164,#959,#960);
#791=AXIS2_PLACEMENT_3D('',#1166,#961,#962);
#792=AXIS2_PLACEMENT_3D('',#1167,#963,#964);
#793=AXIS2_PLACEMENT_3D('',#1169,#965,#966);
#794=AXIS2_PLACEMENT_3D('',#1171,#967,#968);
#795=AXIS2_PLACEMENT_3D('',#1174,#971,#972);
#796=AXIS2_PLACEMENT_3D('',#1177,#975,#976);
#797=AXIS2_PLACEMENT_3D('',#1180,#979,#980);
#798=AXIS2_PLACEMENT_3D('',#1181,#981,#982);
#799=DIRECTION('',(0.,0.,1.));
#800=DIRECTION('',(1.,0.,0.));
#801=DIRECTION('',(1.,0.,8.54543584225028E-17));
#802=DIRECTION('',(8.54543584225028E-17,0.,-1.));
#803=DIRECTION('',(8.54543584225028E-17,0.,-1.));
#804=DIRECTION('',(0.,1.,0.));
#805=DIRECTION('',(8.54543584225028E-17,0.,-1.));
#806=DIRECTION('',(0.,1.,0.));
#807=DIRECTION('',(0.,0.,-1.));
#808=DIRECTION('',(-1.,0.,0.));
#809=DIRECTION('',(-1.,0.,0.));
#810=DIRECTION('',(0.,1.,0.));
#811=DIRECTION('',(-1.,0.,0.));
#812=DIRECTION('',(1.,0.,6.40907688168771E-17));
#813=DIRECTION('',(6.40907688168771E-17,0.,-1.));
#814=DIRECTION('',(6.40907688168771E-17,0.,-1.));
#815=DIRECTION('',(0.,1.,0.));
#816=DIRECTION('',(6.40907688168771E-17,0.,-1.));
#817=DIRECTION('',(1.,0.,3.41817433690012E-16));
#818=DIRECTION('',(3.41817433690012E-16,0.,-1.));
#819=DIRECTION('',(3.41817433690012E-16,0.,-1.));
#820=DIRECTION('',(0.,1.,0.));
#821=DIRECTION('',(3.41817433690012E-16,0.,-1.));
#822=DIRECTION('',(0.,1.,0.));
#823=DIRECTION('',(0.,0.,-1.));
#824=DIRECTION('',(-1.,0.,0.));
#825=DIRECTION('',(-1.,0.,0.));
#826=DIRECTION('',(0.,1.,0.));
#827=DIRECTION('',(-1.,0.,0.));
#828=DIRECTION('',(1.,0.,3.09772049281573E-16));
#829=DIRECTION('',(3.09772049281573E-16,0.,-1.));
#830=DIRECTION('',(3.09772049281573E-16,0.,-1.));
#831=DIRECTION('',(0.,1.,0.));
#832=DIRECTION('',(3.09772049281573E-16,0.,-1.));
#833=DIRECTION('',(0.,0.,-1.));
#834=DIRECTION('',(-1.,0.,0.));
#835=DIRECTION('',(-1.,0.,0.));
#836=DIRECTION('',(0.,1.,0.));
#837=DIRECTION('',(-1.,0.,0.));
#838=DIRECTION('',(0.,1.,0.));
#839=DIRECTION('',(1.,0.,0.));
#840=DIRECTION('',(0.,0.,-1.));
#841=DIRECTION('',(0.,0.,-1.));
#842=DIRECTION('',(0.,1.,0.));
#843=DIRECTION('',(0.,0.,-1.));
#844=DIRECTION('',(0.,0.,1.));
#845=DIRECTION('',(1.,0.,0.));
#846=DIRECTION('',(1.,0.,0.));
#847=DIRECTION('',(0.,1.,0.));
#848=DIRECTION('',(1.,0.,0.));
#849=DIRECTION('',(1.,0.,0.));
#850=DIRECTION('',(0.,0.,-1.));
#851=DIRECTION('',(0.,0.,-1.));
#852=DIRECTION('',(0.,1.,0.));
#853=DIRECTION('',(0.,0.,-1.));
#854=DIRECTION('',(0.,0.,-1.));
#855=DIRECTION('',(-1.,0.,0.));
#856=DIRECTION('',(-1.,0.,0.));
#857=DIRECTION('',(0.,1.,0.));
#858=DIRECTION('',(-1.,0.,0.));
#859=DIRECTION('',(1.,0.,0.));
#860=DIRECTION('',(0.,0.,-1.));
#861=DIRECTION('',(0.,0.,-1.));
#862=DIRECTION('',(0.,1.,0.));
#863=DIRECTION('',(0.,0.,-1.));
#864=DIRECTION('',(0.,0.,1.));
#865=DIRECTION('',(1.,0.,0.));
#866=DIRECTION('',(1.,0.,0.));
#867=DIRECTION('',(0.,1.,0.));
#868=DIRECTION('',(1.,0.,0.));
#869=DIRECTION('',(1.,0.,0.));
#870=DIRECTION('',(0.,0.,-1.));
#871=DIRECTION('',(0.,0.,-1.));
#872=DIRECTION('',(0.,1.,0.));
#873=DIRECTION('',(0.,0.,-1.));
#874=DIRECTION('',(0.,0.,-1.));
#875=DIRECTION('',(-1.,0.,0.));
#876=DIRECTION('',(-1.,0.,0.));
#877=DIRECTION('',(0.,1.,0.));
#878=DIRECTION('',(-1.,0.,0.));
#879=DIRECTION('',(1.,0.,0.));
#880=DIRECTION('',(0.,0.,-1.));
#881=DIRECTION('',(0.,0.,-1.));
#882=DIRECTION('',(0.,1.,0.));
#883=DIRECTION('',(0.,0.,-1.));
#884=DIRECTION('',(0.,0.,1.));
#885=DIRECTION('',(1.,0.,0.));
#886=DIRECTION('',(1.,0.,0.));
#887=DIRECTION('',(0.,1.,0.));
#888=DIRECTION('',(1.,0.,0.));
#889=DIRECTION('',(1.,0.,0.));
#890=DIRECTION('',(0.,0.,-1.));
#891=DIRECTION('',(0.,0.,-1.));
#892=DIRECTION('',(0.,1.,0.));
#893=DIRECTION('',(0.,0.,-1.));
#894=DIRECTION('',(0.,0.,-1.));
#895=DIRECTION('',(-1.,0.,0.));
#896=DIRECTION('',(-1.,0.,0.));
#897=DIRECTION('',(0.,1.,0.));
#898=DIRECTION('',(-1.,0.,0.));
#899=DIRECTION('',(1.,0.,0.));
#900=DIRECTION('',(0.,0.,-1.));
#901=DIRECTION('',(0.,0.,-1.));
#902=DIRECTION('',(0.,1.,0.));
#903=DIRECTION('',(0.,0.,-1.));
#904=DIRECTION('',(0.948002148333894,0.,0.318263926253545));
#905=DIRECTION('',(0.318263926253545,0.,-0.948002148333894));
#906=DIRECTION('',(0.318263926253545,0.,-0.948002148333894));
#907=DIRECTION('',(0.,1.,0.));
#908=DIRECTION('',(0.318263926253545,0.,-0.948002148333894));
#909=DIRECTION('',(2.52323414687536E-16,0.,1.));
#910=DIRECTION('',(1.,0.,-2.52323414687536E-16));
#911=DIRECTION('',(1.,0.,-2.52323414687536E-16));
#912=DIRECTION('',(0.,1.,0.));
#913=DIRECTION('',(1.,0.,-2.52323414687536E-16));
#914=DIRECTION('',(-0.948002148333894,0.,0.318263926253545));
#915=DIRECTION('',(0.318263926253545,0.,0.948002148333894));
#916=DIRECTION('',(0.318263926253545,0.,0.948002148333894));
#917=DIRECTION('',(0.,1.,0.));
#918=DIRECTION('',(0.318263926253545,0.,0.948002148333894));
#919=DIRECTION('',(0.,1.,0.));
#920=DIRECTION('',(0.,0.,1.));
#921=DIRECTION('',(0.,-1.,0.));
#922=DIRECTION('',(0.,0.,-1.));
#923=DIRECTION('',(0.,-1.,0.));
#924=DIRECTION('',(0.,0.,-1.));
#925=DIRECTION('',(0.,1.,0.));
#926=DIRECTION('',(0.,0.,1.));
#927=DIRECTION('',(0.,-1.,0.));
#928=DIRECTION('',(0.,0.,-1.));
#929=DIRECTION('',(0.,-1.,0.));
#930=DIRECTION('',(0.,0.,-1.));
#931=DIRECTION('',(0.,1.,0.));
#932=DIRECTION('',(0.,0.,1.));
#933=DIRECTION('',(0.,-1.,0.));
#934=DIRECTION('',(0.,0.,-1.));
#935=DIRECTION('',(0.,-1.,0.));
#936=DIRECTION('',(0.,0.,-1.));
#937=DIRECTION('',(0.,1.,0.));
#938=DIRECTION('',(0.,0.,1.));
#939=DIRECTION('',(0.,-1.,0.));
#940=DIRECTION('',(0.,0.,-1.));
#941=DIRECTION('',(0.,-1.,0.));
#942=DIRECTION('',(0.,0.,-1.));
#943=DIRECTION('',(0.,1.,0.));
#944=DIRECTION('',(0.,0.,1.));
#945=DIRECTION('',(0.,-1.,0.));
#946=DIRECTION('',(0.,0.,-1.));
#947=DIRECTION('',(0.,-1.,0.));
#948=DIRECTION('',(0.,0.,-1.));
#949=DIRECTION('',(0.,1.,0.));
#950=DIRECTION('',(0.,0.,1.));
#951=DIRECTION('',(0.,-1.,0.));
#952=DIRECTION('',(0.,0.,-1.));
#953=DIRECTION('',(0.,-1.,0.));
#954=DIRECTION('',(0.,0.,-1.));
#955=DIRECTION('',(0.,1.,0.));
#956=DIRECTION('',(0.,0.,1.));
#957=DIRECTION('',(0.,-1.,0.));
#958=DIRECTION('',(0.,0.,-1.));
#959=DIRECTION('',(0.,-1.,0.));
#960=DIRECTION('',(0.,0.,-1.));
#961=DIRECTION('',(0.,1.,0.));
#962=DIRECTION('',(0.,0.,1.));
#963=DIRECTION('',(0.,-1.,0.));
#964=DIRECTION('',(0.,0.,-1.));
#965=DIRECTION('',(0.,-1.,0.));
#966=DIRECTION('',(0.,0.,-1.));
#967=DIRECTION('',(0.,0.,-1.));
#968=DIRECTION('',(-1.,0.,0.));
#969=DIRECTION('',(-1.,0.,0.));
#970=DIRECTION('',(-1.,0.,0.));
#971=DIRECTION('',(-1.,0.,0.));
#972=DIRECTION('',(0.,0.,1.));
#973=DIRECTION('',(0.,0.,1.));
#974=DIRECTION('',(0.,0.,1.));
#975=DIRECTION('',(0.,0.,-1.));
#976=DIRECTION('',(-1.,0.,0.));
#977=DIRECTION('',(-1.,0.,0.));
#978=DIRECTION('',(-1.,0.,0.));
#979=DIRECTION('',(0.,-1.,0.));
#980=DIRECTION('',(1.,0.,0.));
#981=DIRECTION('',(0.,-1.,0.));
#982=DIRECTION('',(1.,0.,0.));
#983=CARTESIAN_POINT('',(0.,0.,0.));
#984=CARTESIAN_POINT('',(0.023,-0.005,0.));
#985=CARTESIAN_POINT('',(0.023,0.,0.));
#986=CARTESIAN_POINT('',(0.023,0.,0.0203));
#987=CARTESIAN_POINT('',(0.023,0.,-0.0203));
#988=CARTESIAN_POINT('',(0.023,-0.005,-0.0203));
#989=CARTESIAN_POINT('',(0.023,-0.005,-0.0203));
#990=CARTESIAN_POINT('',(0.023,-0.005,0.));
#991=CARTESIAN_POINT('',(0.023,-0.005,0.0203));
#992=CARTESIAN_POINT('',(0.023,-0.005,0.0203));
#993=CARTESIAN_POINT('',(0.0127,-0.005,-0.0203));
#994=CARTESIAN_POINT('',(0.0127,0.,-0.0203));
#995=CARTESIAN_POINT('',(0.0024,0.,-0.0203));
#996=CARTESIAN_POINT('',(0.0024,-0.005,-0.0203));
#997=CARTESIAN_POINT('',(0.0024,-0.005,-0.0203));
#998=CARTESIAN_POINT('',(0.0127,-0.005,-0.0203));
#999=CARTESIAN_POINT('',(0.0024,-0.005,0.));
#1000=CARTESIAN_POINT('',(0.0024,0.,0.));
#1001=CARTESIAN_POINT('',(0.0024,0.,0.0203));
#1002=CARTESIAN_POINT('',(0.0024,-0.005,0.0203));
#1003=CARTESIAN_POINT('',(0.0024,-0.005,0.0203));
#1004=CARTESIAN_POINT('',(0.0024,-0.005,0.));
#1005=CARTESIAN_POINT('',(-0.023,-0.005,1.7347234759768E-18));
#1006=CARTESIAN_POINT('',(-0.023,0.,1.7347234759768E-18));
#1007=CARTESIAN_POINT('',(-0.023,0.,0.0203));
#1008=CARTESIAN_POINT('',(-0.023,0.,-0.0203));
#1009=CARTESIAN_POINT('',(-0.023,-0.005,0.0203));
#1010=CARTESIAN_POINT('',(-0.023,-0.005,0.0203));
#1011=CARTESIAN_POINT('',(-0.023,-0.005,1.7347234759768E-18));
#1012=CARTESIAN_POINT('',(-0.023,-0.005,-0.0203));
#1013=CARTESIAN_POINT('',(-0.023,-0.005,-0.0203));
#1014=CARTESIAN_POINT('',(-0.0127,-0.005,0.0203));
#1015=CARTESIAN_POINT('',(-0.0127,0.,0.0203));
#1016=CARTESIAN_POINT('',(-0.0024,0.,0.0203));
#1017=CARTESIAN_POINT('',(-0.0024,-0.005,0.0203));
#1018=CARTESIAN_POINT('',(-0.0024,-0.005,0.0203));
#1019=CARTESIAN_POINT('',(-0.0127,-0.005,0.0203));
#1020=CARTESIAN_POINT('',(-0.0024,-0.005,0.));
#1021=CARTESIAN_POINT('',(-0.0024,0.,0.));
#1022=CARTESIAN_POINT('',(-0.0024,0.,-0.0203));
#1023=CARTESIAN_POINT('',(-0.0024,-0.005,-0.0203));
#1024=CARTESIAN_POINT('',(-0.0024,-0.005,-0.0203));
#1025=CARTESIAN_POINT('',(-0.0024,-0.005,0.));
#1026=CARTESIAN_POINT('',(-0.03,-0.005,-0.02867));
#1027=CARTESIAN_POINT('',(-0.03,0.,-0.02867));
#1028=CARTESIAN_POINT('',(-0.025,0.,-0.02867));
#1029=CARTESIAN_POINT('',(-0.035,0.,-0.02867));
#1030=CARTESIAN_POINT('',(-0.025,-0.005,-0.02867));
#1031=CARTESIAN_POINT('',(-0.025,-0.005,-0.02867));
#1032=CARTESIAN_POINT('',(-0.03,-0.005,-0.02867));
#1033=CARTESIAN_POINT('',(-0.035,-0.005,-0.02867));
#1034=CARTESIAN_POINT('',(-0.035,-0.005,-0.02867));
#1035=CARTESIAN_POINT('',(-0.025,-0.005,-0.03117));
#1036=CARTESIAN_POINT('',(-0.025,0.,-0.03117));
#1037=CARTESIAN_POINT('',(-0.025,0.,-0.03367));
#1038=CARTESIAN_POINT('',(-0.025,-0.005,-0.03367));
#1039=CARTESIAN_POINT('',(-0.025,-0.005,-0.03367));
#1040=CARTESIAN_POINT('',(-0.025,-0.005,-0.03117));
#1041=CARTESIAN_POINT('',(-0.02,-0.005,-0.03367));
#1042=CARTESIAN_POINT('',(-0.02,0.,-0.03367));
#1043=CARTESIAN_POINT('',(-0.015,0.,-0.03367));
#1044=CARTESIAN_POINT('',(-0.015,-0.005,-0.03367));
#1045=CARTESIAN_POINT('',(-0.015,-0.005,-0.03367));
#1046=CARTESIAN_POINT('',(-0.02,-0.005,-0.03367));
#1047=CARTESIAN_POINT('',(-0.015,-0.005,-0.03117));
#1048=CARTESIAN_POINT('',(-0.015,0.,-0.03117));
#1049=CARTESIAN_POINT('',(-0.015,0.,-0.02867));
#1050=CARTESIAN_POINT('',(-0.015,-0.005,-0.02867));
#1051=CARTESIAN_POINT('',(-0.015,-0.005,-0.02867));
#1052=CARTESIAN_POINT('',(-0.015,-0.005,-0.03117));
#1053=CARTESIAN_POINT('',(-0.01,-0.005,-0.02867));
#1054=CARTESIAN_POINT('',(-0.01,0.,-0.02867));
#1055=CARTESIAN_POINT('',(-0.005,0.,-0.02867));
#1056=CARTESIAN_POINT('',(-0.005,-0.005,-0.02867));
#1057=CARTESIAN_POINT('',(-0.005,-0.005,-0.02867));
#1058=CARTESIAN_POINT('',(-0.01,-0.005,-0.02867));
#1059=CARTESIAN_POINT('',(-0.005,-0.005,-0.03117));
#1060=CARTESIAN_POINT('',(-0.005,0.,-0.03117));
#1061=CARTESIAN_POINT('',(-0.005,0.,-0.03367));
#1062=CARTESIAN_POINT('',(-0.005,-0.005,-0.03367));
#1063=CARTESIAN_POINT('',(-0.005,-0.005,-0.03367));
#1064=CARTESIAN_POINT('',(-0.005,-0.005,-0.03117));
#1065=CARTESIAN_POINT('',(-8.67361737988404E-19,-0.005,-0.03367));
#1066=CARTESIAN_POINT('',(-8.67361737988404E-19,0.,-0.03367));
#1067=CARTESIAN_POINT('',(0.005,0.,-0.03367));
#1068=CARTESIAN_POINT('',(0.005,-0.005,-0.03367));
#1069=CARTESIAN_POINT('',(0.005,-0.005,-0.03367));
#1070=CARTESIAN_POINT('',(-8.67361737988404E-19,-0.005,-0.03367));
#1071=CARTESIAN_POINT('',(0.005,-0.005,-0.03117));
#1072=CARTESIAN_POINT('',(0.005,0.,-0.03117));
#1073=CARTESIAN_POINT('',(0.005,0.,-0.02867));
#1074=CARTESIAN_POINT('',(0.005,-0.005,-0.02867));
#1075=CARTESIAN_POINT('',(0.005,-0.005,-0.02867));
#1076=CARTESIAN_POINT('',(0.005,-0.005,-0.03117));
#1077=CARTESIAN_POINT('',(0.01,-0.005,-0.02867));
#1078=CARTESIAN_POINT('',(0.01,0.,-0.02867));
#1079=CARTESIAN_POINT('',(0.015,0.,-0.02867));
#1080=CARTESIAN_POINT('',(0.015,-0.005,-0.02867));
#1081=CARTESIAN_POINT('',(0.015,-0.005,-0.02867));
#1082=CARTESIAN_POINT('',(0.01,-0.005,-0.02867));
#1083=CARTESIAN_POINT('',(0.015,-0.005,-0.03117));
#1084=CARTESIAN_POINT('',(0.015,0.,-0.03117));
#1085=CARTESIAN_POINT('',(0.015,0.,-0.03367));
#1086=CARTESIAN_POINT('',(0.015,-0.005,-0.03367));
#1087=CARTESIAN_POINT('',(0.015,-0.005,-0.03367));
#1088=CARTESIAN_POINT('',(0.015,-0.005,-0.03117));
#1089=CARTESIAN_POINT('',(0.02,-0.005,-0.03367));
#1090=CARTESIAN_POINT('',(0.02,0.,-0.03367));
#1091=CARTESIAN_POINT('',(0.025,0.,-0.03367));
#1092=CARTESIAN_POINT('',(0.025,-0.005,-0.03367));
#1093=CARTESIAN_POINT('',(0.025,-0.005,-0.03367));
#1094=CARTESIAN_POINT('',(0.02,-0.005,-0.03367));
#1095=CARTESIAN_POINT('',(0.025,-0.005,-0.03117));
#1096=CARTESIAN_POINT('',(0.025,0.,-0.03117));
#1097=CARTESIAN_POINT('',(0.025,0.,-0.02867));
#1098=CARTESIAN_POINT('',(0.025,-0.005,-0.02867));
#1099=CARTESIAN_POINT('',(0.025,-0.005,-0.02867));
#1100=CARTESIAN_POINT('',(0.025,-0.005,-0.03117));
#1101=CARTESIAN_POINT('',(0.03,-0.005,-0.02867));
#1102=CARTESIAN_POINT('',(0.03,0.,-0.02867));
#1103=CARTESIAN_POINT('',(0.035,0.,-0.02867));
#1104=CARTESIAN_POINT('',(0.035,-0.005,-0.02867));
#1105=CARTESIAN_POINT('',(0.035,-0.005,-0.02867));
#1106=CARTESIAN_POINT('',(0.03,-0.005,-0.02867));
#1107=CARTESIAN_POINT('',(0.035,-0.005,-0.01117));
#1108=CARTESIAN_POINT('',(0.035,0.,-0.01117));
#1109=CARTESIAN_POINT('',(0.035,0.,0.00633));
#1110=CARTESIAN_POINT('',(0.035,-0.005,0.00633));
#1111=CARTESIAN_POINT('',(0.035,-0.005,0.00633));
#1112=CARTESIAN_POINT('',(0.035,-0.005,-0.01117));
#1113=CARTESIAN_POINT('',(0.03125,-0.005,0.0175));
#1114=CARTESIAN_POINT('',(0.03125,0.,0.0175));
#1115=CARTESIAN_POINT('',(0.0275,0.,0.02867));
#1116=CARTESIAN_POINT('',(0.0275,-0.005,0.02867));
#1117=CARTESIAN_POINT('',(0.0275,-0.005,0.02867));
#1118=CARTESIAN_POINT('',(0.03125,-0.005,0.0175));
#1119=CARTESIAN_POINT('',(0.,-0.005,0.02867));
#1120=CARTESIAN_POINT('',(0.,0.,0.02867));
#1121=CARTESIAN_POINT('',(-0.0275,0.,0.02867));
#1122=CARTESIAN_POINT('',(-0.0275,-0.005,0.02867));
#1123=CARTESIAN_POINT('',(-0.0275,-0.005,0.02867));
#1124=CARTESIAN_POINT('',(0.,-0.005,0.02867));
#1125=CARTESIAN_POINT('',(-0.03125,-0.005,0.0175));
#1126=CARTESIAN_POINT('',(-0.03125,0.,0.0175));
#1127=CARTESIAN_POINT('',(-0.035,0.,0.00633));
#1128=CARTESIAN_POINT('',(-0.035,-0.005,0.00633));
#1129=CARTESIAN_POINT('',(-0.035,-0.005,0.00633));
#1130=CARTESIAN_POINT('',(-0.03125,-0.005,0.0175));
#1131=CARTESIAN_POINT('',(-0.0177,-0.005,-0.02475));
#1132=CARTESIAN_POINT('',(-0.0177,-0.005,-0.02475));
#1133=CARTESIAN_POINT('',(-0.0177,-0.005,-0.0264));
#1134=CARTESIAN_POINT('',(-0.0177,0.,-0.02475));
#1135=CARTESIAN_POINT('',(-0.0177,0.,-0.0264));
#1136=CARTESIAN_POINT('',(-0.0077,-0.005,-0.02475));
#1137=CARTESIAN_POINT('',(-0.0077,-0.005,-0.02475));
#1138=CARTESIAN_POINT('',(-0.0077,-0.005,-0.0264));
#1139=CARTESIAN_POINT('',(-0.0077,0.,-0.02475));
#1140=CARTESIAN_POINT('',(-0.0077,0.,-0.0264));
#1141=CARTESIAN_POINT('',(0.0077,-0.005,-0.02475));
#1142=CARTESIAN_POINT('',(0.0077,-0.005,-0.02475));
#1143=CARTESIAN_POINT('',(0.0077,-0.005,-0.0264));
#1144=CARTESIAN_POINT('',(0.0077,0.,-0.02475));
#1145=CARTESIAN_POINT('',(0.0077,0.,-0.0264));
#1146=CARTESIAN_POINT('',(0.0177,-0.005,-0.02475));
#1147=CARTESIAN_POINT('',(0.0177,-0.005,-0.02475));
#1148=CARTESIAN_POINT('',(0.0177,-0.005,-0.0264));
#1149=CARTESIAN_POINT('',(0.0177,0.,-0.02475));
#1150=CARTESIAN_POINT('',(0.0177,0.,-0.0264));
#1151=CARTESIAN_POINT('',(0.0177,-0.005,0.02475));
#1152=CARTESIAN_POINT('',(0.0177,-0.005,0.02475));
#1153=CARTESIAN_POINT('',(0.0177,-0.005,0.0231));
#1154=CARTESIAN_POINT('',(0.0177,0.,0.02475));
#1155=CARTESIAN_POINT('',(0.0177,0.,0.0231));
#1156=CARTESIAN_POINT('',(0.0077,-0.005,0.02475));
#1157=CARTESIAN_POINT('',(0.0077,-0.005,0.02475));
#1158=CARTESIAN_POINT('',(0.0077,-0.005,0.0231));
#1159=CARTESIAN_POINT('',(0.0077,0.,0.02475));
#1160=CARTESIAN_POINT('',(0.0077,0.,0.0231));
#1161=CARTESIAN_POINT('',(-0.0077,-0.005,0.02475));
#1162=CARTESIAN_POINT('',(-0.0077,-0.005,0.02475));
#1163=CARTESIAN_POINT('',(-0.0077,-0.005,0.0231));
#1164=CARTESIAN_POINT('',(-0.0077,0.,0.02475));
#1165=CARTESIAN_POINT('',(-0.0077,0.,0.0231));
#1166=CARTESIAN_POINT('',(-0.0177,-0.005,0.02475));
#1167=CARTESIAN_POINT('',(-0.0177,-0.005,0.02475));
#1168=CARTESIAN_POINT('',(-0.0177,-0.005,0.0231));
#1169=CARTESIAN_POINT('',(-0.0177,0.,0.02475));
#1170=CARTESIAN_POINT('',(-0.0177,0.,0.0231));
#1171=CARTESIAN_POINT('',(-0.0127,-0.005,-0.0203));
#1172=CARTESIAN_POINT('',(-0.0127,0.,-0.0203));
#1173=CARTESIAN_POINT('',(-0.0127,-0.005,-0.0203));
#1174=CARTESIAN_POINT('',(-0.035,-0.005,-0.01117));
#1175=CARTESIAN_POINT('',(-0.035,0.,-0.01117));
#1176=CARTESIAN_POINT('',(-0.035,-0.005,-0.01117));
#1177=CARTESIAN_POINT('',(0.0127,-0.005,0.0203));
#1178=CARTESIAN_POINT('',(0.0127,0.,0.0203));
#1179=CARTESIAN_POINT('',(0.0127,-0.005,0.0203));
#1180=CARTESIAN_POINT('',(0.,-0.005,-0.0025));
#1181=CARTESIAN_POINT('',(0.,0.,-0.0025));
#1182=MECHANICAL_DESIGN_GEOMETRIC_PRESENTATION_REPRESENTATION('',(#735),
#1183);
#1183=(
GEOMETRIC_REPRESENTATION_CONTEXT(3)
GLOBAL_UNCERTAINTY_ASSIGNED_CONTEXT((#1184))
GLOBAL_UNIT_ASSIGNED_CONTEXT((#1187,#1186,#1185))
REPRESENTATION_CONTEXT('servo_holder','TOP_LEVEL_ASSEMBLY_PART')
);
#1184=UNCERTAINTY_MEASURE_WITH_UNIT(LENGTH_MEASURE(1.E-8),#1187,
'DISTANCE_ACCURACY_VALUE','Maximum Tolerance applied to model');
#1185=(
NAMED_UNIT(*)
SI_UNIT($,.STERADIAN.)
SOLID_ANGLE_UNIT()
);
#1186=(
NAMED_UNIT(*)
PLANE_ANGLE_UNIT()
SI_UNIT($,.RADIAN.)
);
#1187=(
LENGTH_UNIT()
NAMED_UNIT(*)
SI_UNIT($,.METRE.)
);
#1188=PRODUCT_DEFINITION_SHAPE('','',#1189);
#1189=PRODUCT_DEFINITION('','',#1191,#1190);
#1190=PRODUCT_DEFINITION_CONTEXT('',#1197,'design');
#1191=PRODUCT_DEFINITION_FORMATION_WITH_SPECIFIED_SOURCE('','',#1193,
 .NOT_KNOWN.);
#1192=PRODUCT_RELATED_PRODUCT_CATEGORY('','',(#1193));
#1193=PRODUCT('servo_holder','servo_holder','servo_holder',(#1195));
#1194=PRODUCT_CATEGORY('','');
#1195=PRODUCT_CONTEXT('',#1197,'mechanical');
#1196=APPLICATION_PROTOCOL_DEFINITION('international standard',
'ap242_managed_model_based_3d_engineering',2020,#1197);
#1197=APPLICATION_CONTEXT('managed model based 3d engineering');
ENDSEC;
END-ISO-10303-21;
