ISO-10303-21;
HEADER;
/* Generated by software containing ST-Developer
 * from STEP Tools, Inc. (www.steptools.com) 
 */
/* OPTION: using custom renumber hook */

FILE_DESCRIPTION(
/* description */ ('STEP AP242 Edition 2',
'CAx-IF Rec.Pracs.---Representation and Presentation of Product Manufa
cturing Information (PMI)---4.0---2014-10-13',
'CAx-IF Rec.Pracs.---3D Tessellated Geometry---0.4---2014-09-14','2;1',
'CAx-IF Rec.Pracs.---User Defined Attributes---1.5---2016-08-15'),
/* implementation_level */ '2;1');

FILE_NAME(
/* name */ '2f-85_finger_actuator - 2f-85_finger_actuator',
/* time_stamp */ '2026-04-28T10:54:04Z',
/* author */ (''),
/* organization */ (''),
/* preprocessor_version */ 'ST-DEVELOPER v20',
/* originating_system */ 'ONSHAPE BY PTC INC, 1.214',
/* authorisation */ '  ');

FILE_SCHEMA (('AP242_MANAGED_MODEL_BASED_3D_ENGINEERING_MIM_LF { 1 0 10303 442 3 1 4 }'));
ENDSEC;

DATA;
#10=SHAPE_REPRESENTATION_RELATIONSHIP('','',#460,#11);
#11=ADVANCED_BREP_SHAPE_REPRESENTATION('',(#458),#798);
#12=CONICAL_SURFACE('',#515,0.0039,0.785398163397446);
#13=CONICAL_SURFACE('',#516,0.0039,0.785398163397446);
#14=CONICAL_SURFACE('',#517,0.0035,0.785398163397446);
#15=CONICAL_SURFACE('',#518,0.0039,0.785398163397442);
#16=CONICAL_SURFACE('',#519,0.0044,0.785398163397449);
#17=CONICAL_SURFACE('',#520,0.004,0.785398163397449);
#18=CONICAL_SURFACE('',#521,0.0034,0.785398163397453);
#19=CONICAL_SURFACE('',#522,0.003,0.785398163397453);
#20=CIRCLE('',#464,0.006);
#21=CIRCLE('',#465,0.006);
#22=CIRCLE('',#467,0.0032);
#23=CIRCLE('',#468,0.0032);
#24=CIRCLE('',#471,0.0032);
#25=CIRCLE('',#472,0.0032);
#26=CIRCLE('',#474,0.0076);
#27=CIRCLE('',#475,0.0076);
#28=CIRCLE('',#477,0.0032);
#29=CIRCLE('',#478,0.0032);
#30=CIRCLE('',#481,0.0032);
#31=CIRCLE('',#482,0.0032);
#32=CIRCLE('',#485,0.0012);
#33=CIRCLE('',#486,0.0012);
#34=CIRCLE('',#489,0.003);
#35=CIRCLE('',#490,0.003);
#36=CIRCLE('',#492,0.0032);
#37=CIRCLE('',#493,0.0032);
#38=CIRCLE('',#495,0.004);
#39=CIRCLE('',#496,0.004);
#40=CIRCLE('',#498,0.0043);
#41=CIRCLE('',#499,0.0044);
#42=CIRCLE('',#500,0.0034);
#43=CIRCLE('',#502,0.0043);
#44=CIRCLE('',#503,0.0044);
#45=CIRCLE('',#504,0.0034);
#46=CIRCLE('',#506,0.0035);
#47=CIRCLE('',#508,0.0039);
#48=CIRCLE('',#509,0.0039);
#49=CIRCLE('',#511,0.0039);
#50=CIRCLE('',#512,0.0039);
#51=CIRCLE('',#514,0.0035);
#52=CYLINDRICAL_SURFACE('',#463,0.006);
#53=CYLINDRICAL_SURFACE('',#466,0.0032);
#54=CYLINDRICAL_SURFACE('',#470,0.0032);
#55=CYLINDRICAL_SURFACE('',#473,0.0076);
#56=CYLINDRICAL_SURFACE('',#476,0.0032);
#57=CYLINDRICAL_SURFACE('',#480,0.0032);
#58=CYLINDRICAL_SURFACE('',#484,0.0012);
#59=CYLINDRICAL_SURFACE('',#488,0.003);
#60=CYLINDRICAL_SURFACE('',#491,0.0032);
#61=CYLINDRICAL_SURFACE('',#494,0.004);
#62=CYLINDRICAL_SURFACE('',#507,0.0039);
#63=CYLINDRICAL_SURFACE('',#510,0.0039);
#64=ORIENTED_EDGE('',*,*,#174,.F.);
#65=ORIENTED_EDGE('',*,*,#175,.F.);
#66=ORIENTED_EDGE('',*,*,#176,.T.);
#67=ORIENTED_EDGE('',*,*,#177,.T.);
#68=ORIENTED_EDGE('',*,*,#178,.F.);
#69=ORIENTED_EDGE('',*,*,#179,.F.);
#70=ORIENTED_EDGE('',*,*,#180,.T.);
#71=ORIENTED_EDGE('',*,*,#175,.T.);
#72=ORIENTED_EDGE('',*,*,#181,.F.);
#73=ORIENTED_EDGE('',*,*,#182,.F.);
#74=ORIENTED_EDGE('',*,*,#183,.T.);
#75=ORIENTED_EDGE('',*,*,#179,.T.);
#76=ORIENTED_EDGE('',*,*,#184,.F.);
#77=ORIENTED_EDGE('',*,*,#185,.F.);
#78=ORIENTED_EDGE('',*,*,#186,.T.);
#79=ORIENTED_EDGE('',*,*,#182,.T.);
#80=ORIENTED_EDGE('',*,*,#187,.F.);
#81=ORIENTED_EDGE('',*,*,#188,.F.);
#82=ORIENTED_EDGE('',*,*,#189,.T.);
#83=ORIENTED_EDGE('',*,*,#185,.T.);
#84=ORIENTED_EDGE('',*,*,#190,.F.);
#85=ORIENTED_EDGE('',*,*,#191,.F.);
#86=ORIENTED_EDGE('',*,*,#192,.T.);
#87=ORIENTED_EDGE('',*,*,#188,.T.);
#88=ORIENTED_EDGE('',*,*,#193,.F.);
#89=ORIENTED_EDGE('',*,*,#194,.F.);
#90=ORIENTED_EDGE('',*,*,#195,.T.);
#91=ORIENTED_EDGE('',*,*,#191,.T.);
#92=ORIENTED_EDGE('',*,*,#196,.F.);
#93=ORIENTED_EDGE('',*,*,#197,.F.);
#94=ORIENTED_EDGE('',*,*,#198,.T.);
#95=ORIENTED_EDGE('',*,*,#194,.T.);
#96=ORIENTED_EDGE('',*,*,#199,.F.);
#97=ORIENTED_EDGE('',*,*,#200,.F.);
#98=ORIENTED_EDGE('',*,*,#201,.T.);
#99=ORIENTED_EDGE('',*,*,#197,.T.);
#100=ORIENTED_EDGE('',*,*,#202,.F.);
#101=ORIENTED_EDGE('',*,*,#203,.F.);
#102=ORIENTED_EDGE('',*,*,#204,.T.);
#103=ORIENTED_EDGE('',*,*,#200,.T.);
#104=ORIENTED_EDGE('',*,*,#205,.F.);
#105=ORIENTED_EDGE('',*,*,#206,.F.);
#106=ORIENTED_EDGE('',*,*,#207,.T.);
#107=ORIENTED_EDGE('',*,*,#203,.T.);
#108=ORIENTED_EDGE('',*,*,#208,.F.);
#109=ORIENTED_EDGE('',*,*,#209,.F.);
#110=ORIENTED_EDGE('',*,*,#210,.T.);
#111=ORIENTED_EDGE('',*,*,#206,.T.);
#112=ORIENTED_EDGE('',*,*,#211,.T.);
#113=ORIENTED_EDGE('',*,*,#212,.T.);
#114=ORIENTED_EDGE('',*,*,#213,.F.);
#115=ORIENTED_EDGE('',*,*,#177,.F.);
#116=ORIENTED_EDGE('',*,*,#214,.T.);
#117=ORIENTED_EDGE('',*,*,#209,.T.);
#118=ORIENTED_EDGE('',*,*,#215,.T.);
#119=ORIENTED_EDGE('',*,*,#216,.T.);
#120=ORIENTED_EDGE('',*,*,#217,.T.);
#121=ORIENTED_EDGE('',*,*,#218,.T.);
#122=ORIENTED_EDGE('',*,*,#219,.T.);
#123=ORIENTED_EDGE('',*,*,#176,.F.);
#124=ORIENTED_EDGE('',*,*,#180,.F.);
#125=ORIENTED_EDGE('',*,*,#183,.F.);
#126=ORIENTED_EDGE('',*,*,#186,.F.);
#127=ORIENTED_EDGE('',*,*,#189,.F.);
#128=ORIENTED_EDGE('',*,*,#192,.F.);
#129=ORIENTED_EDGE('',*,*,#195,.F.);
#130=ORIENTED_EDGE('',*,*,#198,.F.);
#131=ORIENTED_EDGE('',*,*,#201,.F.);
#132=ORIENTED_EDGE('',*,*,#204,.F.);
#133=ORIENTED_EDGE('',*,*,#207,.F.);
#134=ORIENTED_EDGE('',*,*,#210,.F.);
#135=ORIENTED_EDGE('',*,*,#214,.F.);
#136=ORIENTED_EDGE('',*,*,#220,.T.);
#137=ORIENTED_EDGE('',*,*,#221,.T.);
#138=ORIENTED_EDGE('',*,*,#222,.T.);
#139=ORIENTED_EDGE('',*,*,#174,.T.);
#140=ORIENTED_EDGE('',*,*,#213,.T.);
#141=ORIENTED_EDGE('',*,*,#208,.T.);
#142=ORIENTED_EDGE('',*,*,#205,.T.);
#143=ORIENTED_EDGE('',*,*,#202,.T.);
#144=ORIENTED_EDGE('',*,*,#199,.T.);
#145=ORIENTED_EDGE('',*,*,#196,.T.);
#146=ORIENTED_EDGE('',*,*,#193,.T.);
#147=ORIENTED_EDGE('',*,*,#190,.T.);
#148=ORIENTED_EDGE('',*,*,#187,.T.);
#149=ORIENTED_EDGE('',*,*,#184,.T.);
#150=ORIENTED_EDGE('',*,*,#181,.T.);
#151=ORIENTED_EDGE('',*,*,#178,.T.);
#152=ORIENTED_EDGE('',*,*,#223,.T.);
#153=ORIENTED_EDGE('',*,*,#224,.T.);
#154=ORIENTED_EDGE('',*,*,#225,.T.);
#155=ORIENTED_EDGE('',*,*,#226,.T.);
#156=ORIENTED_EDGE('',*,*,#227,.T.);
#157=ORIENTED_EDGE('',*,*,#228,.T.);
#158=ORIENTED_EDGE('',*,*,#217,.F.);
#159=ORIENTED_EDGE('',*,*,#226,.F.);
#160=ORIENTED_EDGE('',*,*,#220,.F.);
#161=ORIENTED_EDGE('',*,*,#224,.F.);
#162=ORIENTED_EDGE('',*,*,#227,.F.);
#163=ORIENTED_EDGE('',*,*,#228,.F.);
#164=ORIENTED_EDGE('',*,*,#223,.F.);
#165=ORIENTED_EDGE('',*,*,#225,.F.);
#166=ORIENTED_EDGE('',*,*,#215,.F.);
#167=ORIENTED_EDGE('',*,*,#218,.F.);
#168=ORIENTED_EDGE('',*,*,#221,.F.);
#169=ORIENTED_EDGE('',*,*,#216,.F.);
#170=ORIENTED_EDGE('',*,*,#211,.F.);
#171=ORIENTED_EDGE('',*,*,#219,.F.);
#172=ORIENTED_EDGE('',*,*,#222,.F.);
#173=ORIENTED_EDGE('',*,*,#212,.F.);
#174=EDGE_CURVE('',#229,#230,#271,.T.);
#175=EDGE_CURVE('',#231,#229,#272,.T.);
#176=EDGE_CURVE('',#231,#232,#273,.T.);
#177=EDGE_CURVE('',#232,#230,#274,.T.);
#178=EDGE_CURVE('',#233,#229,#20,.T.);
#179=EDGE_CURVE('',#234,#233,#275,.T.);
#180=EDGE_CURVE('',#234,#231,#21,.T.);
#181=EDGE_CURVE('',#235,#233,#22,.T.);
#182=EDGE_CURVE('',#236,#235,#276,.T.);
#183=EDGE_CURVE('',#236,#234,#23,.T.);
#184=EDGE_CURVE('',#237,#235,#277,.T.);
#185=EDGE_CURVE('',#238,#237,#278,.T.);
#186=EDGE_CURVE('',#238,#236,#279,.T.);
#187=EDGE_CURVE('',#239,#237,#24,.T.);
#188=EDGE_CURVE('',#240,#239,#280,.T.);
#189=EDGE_CURVE('',#240,#238,#25,.T.);
#190=EDGE_CURVE('',#241,#239,#26,.T.);
#191=EDGE_CURVE('',#242,#241,#281,.T.);
#192=EDGE_CURVE('',#242,#240,#27,.T.);
#193=EDGE_CURVE('',#243,#241,#28,.T.);
#194=EDGE_CURVE('',#244,#243,#282,.T.);
#195=EDGE_CURVE('',#244,#242,#29,.T.);
#196=EDGE_CURVE('',#245,#243,#283,.T.);
#197=EDGE_CURVE('',#246,#245,#284,.T.);
#198=EDGE_CURVE('',#246,#244,#285,.T.);
#199=EDGE_CURVE('',#247,#245,#30,.T.);
#200=EDGE_CURVE('',#248,#247,#286,.T.);
#201=EDGE_CURVE('',#248,#246,#31,.T.);
#202=EDGE_CURVE('',#249,#247,#287,.T.);
#203=EDGE_CURVE('',#250,#249,#288,.T.);
#204=EDGE_CURVE('',#250,#248,#289,.T.);
#205=EDGE_CURVE('',#251,#249,#32,.T.);
#206=EDGE_CURVE('',#252,#251,#290,.T.);
#207=EDGE_CURVE('',#252,#250,#33,.T.);
#208=EDGE_CURVE('',#253,#251,#291,.T.);
#209=EDGE_CURVE('',#254,#253,#292,.T.);
#210=EDGE_CURVE('',#254,#252,#293,.T.);
#211=EDGE_CURVE('',#255,#255,#34,.T.);
#212=EDGE_CURVE('',#256,#256,#35,.F.);
#213=EDGE_CURVE('',#230,#253,#36,.T.);
#214=EDGE_CURVE('',#232,#254,#37,.T.);
#215=EDGE_CURVE('',#257,#257,#38,.T.);
#216=EDGE_CURVE('',#258,#258,#39,.F.);
#217=EDGE_CURVE('',#259,#259,#40,.F.);
#218=EDGE_CURVE('',#260,#260,#41,.F.);
#219=EDGE_CURVE('',#261,#261,#42,.F.);
#220=EDGE_CURVE('',#262,#262,#43,.T.);
#221=EDGE_CURVE('',#263,#263,#44,.T.);
#222=EDGE_CURVE('',#264,#264,#45,.T.);
#223=EDGE_CURVE('',#265,#265,#46,.F.);
#224=EDGE_CURVE('',#266,#266,#47,.F.);
#225=EDGE_CURVE('',#267,#267,#48,.T.);
#226=EDGE_CURVE('',#268,#268,#49,.T.);
#227=EDGE_CURVE('',#269,#269,#50,.F.);
#228=EDGE_CURVE('',#270,#270,#51,.T.);
#229=VERTEX_POINT('',#673);
#230=VERTEX_POINT('',#674);
#231=VERTEX_POINT('',#676);
#232=VERTEX_POINT('',#678);
#233=VERTEX_POINT('',#682);
#234=VERTEX_POINT('',#684);
#235=VERTEX_POINT('',#688);
#236=VERTEX_POINT('',#690);
#237=VERTEX_POINT('',#694);
#238=VERTEX_POINT('',#696);
#239=VERTEX_POINT('',#700);
#240=VERTEX_POINT('',#702);
#241=VERTEX_POINT('',#706);
#242=VERTEX_POINT('',#708);
#243=VERTEX_POINT('',#712);
#244=VERTEX_POINT('',#714);
#245=VERTEX_POINT('',#718);
#246=VERTEX_POINT('',#720);
#247=VERTEX_POINT('',#724);
#248=VERTEX_POINT('',#726);
#249=VERTEX_POINT('',#730);
#250=VERTEX_POINT('',#732);
#251=VERTEX_POINT('',#736);
#252=VERTEX_POINT('',#738);
#253=VERTEX_POINT('',#742);
#254=VERTEX_POINT('',#744);
#255=VERTEX_POINT('',#748);
#256=VERTEX_POINT('',#750);
#257=VERTEX_POINT('',#756);
#258=VERTEX_POINT('',#758);
#259=VERTEX_POINT('',#761);
#260=VERTEX_POINT('',#763);
#261=VERTEX_POINT('',#765);
#262=VERTEX_POINT('',#768);
#263=VERTEX_POINT('',#770);
#264=VERTEX_POINT('',#772);
#265=VERTEX_POINT('',#775);
#266=VERTEX_POINT('',#778);
#267=VERTEX_POINT('',#780);
#268=VERTEX_POINT('',#783);
#269=VERTEX_POINT('',#785);
#270=VERTEX_POINT('',#788);
#271=LINE('',#672,#294);
#272=LINE('',#675,#295);
#273=LINE('',#677,#296);
#274=LINE('',#679,#297);
#275=LINE('',#683,#298);
#276=LINE('',#689,#299);
#277=LINE('',#693,#300);
#278=LINE('',#695,#301);
#279=LINE('',#697,#302);
#280=LINE('',#701,#303);
#281=LINE('',#707,#304);
#282=LINE('',#713,#305);
#283=LINE('',#717,#306);
#284=LINE('',#719,#307);
#285=LINE('',#721,#308);
#286=LINE('',#725,#309);
#287=LINE('',#729,#310);
#288=LINE('',#731,#311);
#289=LINE('',#733,#312);
#290=LINE('',#737,#313);
#291=LINE('',#741,#314);
#292=LINE('',#743,#315);
#293=LINE('',#745,#316);
#294=VECTOR('',#527,1.);
#295=VECTOR('',#528,1.);
#296=VECTOR('',#529,1.);
#297=VECTOR('',#530,1.);
#298=VECTOR('',#535,1.);
#299=VECTOR('',#542,1.);
#300=VECTOR('',#547,1.);
#301=VECTOR('',#548,1.);
#302=VECTOR('',#549,1.);
#303=VECTOR('',#554,1.);
#304=VECTOR('',#561,1.);
#305=VECTOR('',#568,1.);
#306=VECTOR('',#573,1.);
#307=VECTOR('',#574,1.);
#308=VECTOR('',#575,1.);
#309=VECTOR('',#580,1.);
#310=VECTOR('',#585,1.);
#311=VECTOR('',#586,1.);
#312=VECTOR('',#587,1.);
#313=VECTOR('',#592,1.);
#314=VECTOR('',#597,1.);
#315=VECTOR('',#598,1.);
#316=VECTOR('',#599,1.);
#317=EDGE_LOOP('',(#64,#65,#66,#67));
#318=EDGE_LOOP('',(#68,#69,#70,#71));
#319=EDGE_LOOP('',(#72,#73,#74,#75));
#320=EDGE_LOOP('',(#76,#77,#78,#79));
#321=EDGE_LOOP('',(#80,#81,#82,#83));
#322=EDGE_LOOP('',(#84,#85,#86,#87));
#323=EDGE_LOOP('',(#88,#89,#90,#91));
#324=EDGE_LOOP('',(#92,#93,#94,#95));
#325=EDGE_LOOP('',(#96,#97,#98,#99));
#326=EDGE_LOOP('',(#100,#101,#102,#103));
#327=EDGE_LOOP('',(#104,#105,#106,#107));
#328=EDGE_LOOP('',(#108,#109,#110,#111));
#329=EDGE_LOOP('',(#112));
#330=EDGE_LOOP('',(#113));
#331=EDGE_LOOP('',(#114,#115,#116,#117));
#332=EDGE_LOOP('',(#118));
#333=EDGE_LOOP('',(#119));
#334=EDGE_LOOP('',(#120));
#335=EDGE_LOOP('',(#121));
#336=EDGE_LOOP('',(#122));
#337=EDGE_LOOP('',(#123,#124,#125,#126,#127,#128,#129,#130,#131,#132,#133,
#134,#135));
#338=EDGE_LOOP('',(#136));
#339=EDGE_LOOP('',(#137));
#340=EDGE_LOOP('',(#138));
#341=EDGE_LOOP('',(#139,#140,#141,#142,#143,#144,#145,#146,#147,#148,#149,
#150,#151));
#342=EDGE_LOOP('',(#152));
#343=EDGE_LOOP('',(#153));
#344=EDGE_LOOP('',(#154));
#345=EDGE_LOOP('',(#155));
#346=EDGE_LOOP('',(#156));
#347=EDGE_LOOP('',(#157));
#348=EDGE_LOOP('',(#158));
#349=EDGE_LOOP('',(#159));
#350=EDGE_LOOP('',(#160));
#351=EDGE_LOOP('',(#161));
#352=EDGE_LOOP('',(#162));
#353=EDGE_LOOP('',(#163));
#354=EDGE_LOOP('',(#164));
#355=EDGE_LOOP('',(#165));
#356=EDGE_LOOP('',(#166));
#357=EDGE_LOOP('',(#167));
#358=EDGE_LOOP('',(#168));
#359=EDGE_LOOP('',(#169));
#360=EDGE_LOOP('',(#170));
#361=EDGE_LOOP('',(#171));
#362=EDGE_LOOP('',(#172));
#363=EDGE_LOOP('',(#173));
#364=FACE_BOUND('',#317,.T.);
#365=FACE_BOUND('',#318,.T.);
#366=FACE_BOUND('',#319,.T.);
#367=FACE_BOUND('',#320,.T.);
#368=FACE_BOUND('',#321,.T.);
#369=FACE_BOUND('',#322,.T.);
#370=FACE_BOUND('',#323,.T.);
#371=FACE_BOUND('',#324,.T.);
#372=FACE_BOUND('',#325,.T.);
#373=FACE_BOUND('',#326,.T.);
#374=FACE_BOUND('',#327,.T.);
#375=FACE_BOUND('',#328,.T.);
#376=FACE_BOUND('',#329,.T.);
#377=FACE_BOUND('',#330,.T.);
#378=FACE_BOUND('',#331,.T.);
#379=FACE_BOUND('',#332,.T.);
#380=FACE_BOUND('',#333,.T.);
#381=FACE_BOUND('',#334,.T.);
#382=FACE_BOUND('',#335,.T.);
#383=FACE_BOUND('',#336,.T.);
#384=FACE_BOUND('',#337,.T.);
#385=FACE_BOUND('',#338,.T.);
#386=FACE_BOUND('',#339,.T.);
#387=FACE_BOUND('',#340,.T.);
#388=FACE_BOUND('',#341,.T.);
#389=FACE_BOUND('',#342,.T.);
#390=FACE_BOUND('',#343,.T.);
#391=FACE_BOUND('',#344,.T.);
#392=FACE_BOUND('',#345,.T.);
#393=FACE_BOUND('',#346,.T.);
#394=FACE_BOUND('',#347,.T.);
#395=FACE_BOUND('',#348,.T.);
#396=FACE_BOUND('',#349,.T.);
#397=FACE_BOUND('',#350,.T.);
#398=FACE_BOUND('',#351,.T.);
#399=FACE_BOUND('',#352,.T.);
#400=FACE_BOUND('',#353,.T.);
#401=FACE_BOUND('',#354,.T.);
#402=FACE_BOUND('',#355,.T.);
#403=FACE_BOUND('',#356,.T.);
#404=FACE_BOUND('',#357,.T.);
#405=FACE_BOUND('',#358,.T.);
#406=FACE_BOUND('',#359,.T.);
#407=FACE_BOUND('',#360,.T.);
#408=FACE_BOUND('',#361,.T.);
#409=FACE_BOUND('',#362,.T.);
#410=FACE_BOUND('',#363,.T.);
#411=PLANE('',#462);
#412=PLANE('',#469);
#413=PLANE('',#479);
#414=PLANE('',#483);
#415=PLANE('',#487);
#416=PLANE('',#497);
#417=PLANE('',#501);
#418=PLANE('',#505);
#419=PLANE('',#513);
#420=ADVANCED_FACE('',(#364),#411,.T.);
#421=ADVANCED_FACE('',(#365),#52,.T.);
#422=ADVANCED_FACE('',(#366),#53,.F.);
#423=ADVANCED_FACE('',(#367),#412,.T.);
#424=ADVANCED_FACE('',(#368),#54,.F.);
#425=ADVANCED_FACE('',(#369),#55,.T.);
#426=ADVANCED_FACE('',(#370),#56,.F.);
#427=ADVANCED_FACE('',(#371),#413,.T.);
#428=ADVANCED_FACE('',(#372),#57,.F.);
#429=ADVANCED_FACE('',(#373),#414,.T.);
#430=ADVANCED_FACE('',(#374),#58,.T.);
#431=ADVANCED_FACE('',(#375),#415,.T.);
#432=ADVANCED_FACE('',(#376,#377),#59,.F.);
#433=ADVANCED_FACE('',(#378),#60,.F.);
#434=ADVANCED_FACE('',(#379,#380),#61,.F.);
#435=ADVANCED_FACE('',(#381,#382,#383,#384),#416,.T.);
#436=ADVANCED_FACE('',(#385,#386,#387,#388),#417,.F.);
#437=ADVANCED_FACE('',(#389),#418,.F.);
#438=ADVANCED_FACE('',(#390,#391),#62,.T.);
#439=ADVANCED_FACE('',(#392,#393),#63,.T.);
#440=ADVANCED_FACE('',(#394),#419,.T.);
#441=ADVANCED_FACE('',(#395,#396),#12,.T.);
#442=ADVANCED_FACE('',(#397,#398),#13,.T.);
#443=ADVANCED_FACE('',(#399,#400),#14,.T.);
#444=ADVANCED_FACE('',(#401,#402),#15,.T.);
#445=ADVANCED_FACE('',(#403,#404),#16,.F.);
#446=ADVANCED_FACE('',(#405,#406),#17,.F.);
#447=ADVANCED_FACE('',(#407,#408),#18,.F.);
#448=ADVANCED_FACE('',(#409,#410),#19,.F.);
#449=CLOSED_SHELL('',(#420,#421,#422,#423,#424,#425,#426,#427,#428,#429,
#430,#431,#432,#433,#434,#435,#436,#437,#438,#439,#440,#441,#442,#443,#444,
#445,#446,#447,#448));
#450=STYLED_ITEM('',(#451),#458);
#451=PRESENTATION_STYLE_ASSIGNMENT((#452));
#452=SURFACE_STYLE_USAGE(.BOTH.,#453);
#453=SURFACE_SIDE_STYLE('',(#454));
#454=SURFACE_STYLE_FILL_AREA(#455);
#455=FILL_AREA_STYLE('',(#456));
#456=FILL_AREA_STYLE_COLOUR('',#457);
#457=COLOUR_RGB('',0.498039215686275,0.498039215686275,0.498039215686275);
#458=MANIFOLD_SOLID_BREP('2f-85_finger_actuator',#449);
#459=SHAPE_DEFINITION_REPRESENTATION(#803,#460);
#460=SHAPE_REPRESENTATION('2f-85_finger_actuator',(#461),#798);
#461=AXIS2_PLACEMENT_3D('',#670,#523,#524);
#462=AXIS2_PLACEMENT_3D('',#671,#525,#526);
#463=AXIS2_PLACEMENT_3D('',#680,#531,#532);
#464=AXIS2_PLACEMENT_3D('',#681,#533,#534);
#465=AXIS2_PLACEMENT_3D('',#685,#536,#537);
#466=AXIS2_PLACEMENT_3D('',#686,#538,#539);
#467=AXIS2_PLACEMENT_3D('',#687,#540,#541);
#468=AXIS2_PLACEMENT_3D('',#691,#543,#544);
#469=AXIS2_PLACEMENT_3D('',#692,#545,#546);
#470=AXIS2_PLACEMENT_3D('',#698,#550,#551);
#471=AXIS2_PLACEMENT_3D('',#699,#552,#553);
#472=AXIS2_PLACEMENT_3D('',#703,#555,#556);
#473=AXIS2_PLACEMENT_3D('',#704,#557,#558);
#474=AXIS2_PLACEMENT_3D('',#705,#559,#560);
#475=AXIS2_PLACEMENT_3D('',#709,#562,#563);
#476=AXIS2_PLACEMENT_3D('',#710,#564,#565);
#477=AXIS2_PLACEMENT_3D('',#711,#566,#567);
#478=AXIS2_PLACEMENT_3D('',#715,#569,#570);
#479=AXIS2_PLACEMENT_3D('',#716,#571,#572);
#480=AXIS2_PLACEMENT_3D('',#722,#576,#577);
#481=AXIS2_PLACEMENT_3D('',#723,#578,#579);
#482=AXIS2_PLACEMENT_3D('',#727,#581,#582);
#483=AXIS2_PLACEMENT_3D('',#728,#583,#584);
#484=AXIS2_PLACEMENT_3D('',#734,#588,#589);
#485=AXIS2_PLACEMENT_3D('',#735,#590,#591);
#486=AXIS2_PLACEMENT_3D('',#739,#593,#594);
#487=AXIS2_PLACEMENT_3D('',#740,#595,#596);
#488=AXIS2_PLACEMENT_3D('',#746,#600,#601);
#489=AXIS2_PLACEMENT_3D('',#747,#602,#603);
#490=AXIS2_PLACEMENT_3D('',#749,#604,#605);
#491=AXIS2_PLACEMENT_3D('',#751,#606,#607);
#492=AXIS2_PLACEMENT_3D('',#752,#608,#609);
#493=AXIS2_PLACEMENT_3D('',#753,#610,#611);
#494=AXIS2_PLACEMENT_3D('',#754,#612,#613);
#495=AXIS2_PLACEMENT_3D('',#755,#614,#615);
#496=AXIS2_PLACEMENT_3D('',#757,#616,#617);
#497=AXIS2_PLACEMENT_3D('',#759,#618,#619);
#498=AXIS2_PLACEMENT_3D('',#760,#620,#621);
#499=AXIS2_PLACEMENT_3D('',#762,#622,#623);
#500=AXIS2_PLACEMENT_3D('',#764,#624,#625);
#501=AXIS2_PLACEMENT_3D('',#766,#626,#627);
#502=AXIS2_PLACEMENT_3D('',#767,#628,#629);
#503=AXIS2_PLACEMENT_3D('',#769,#630,#631);
#504=AXIS2_PLACEMENT_3D('',#771,#632,#633);
#505=AXIS2_PLACEMENT_3D('',#773,#634,#635);
#506=AXIS2_PLACEMENT_3D('',#774,#636,#637);
#507=AXIS2_PLACEMENT_3D('',#776,#638,#639);
#508=AXIS2_PLACEMENT_3D('',#777,#640,#641);
#509=AXIS2_PLACEMENT_3D('',#779,#642,#643);
#510=AXIS2_PLACEMENT_3D('',#781,#644,#645);
#511=AXIS2_PLACEMENT_3D('',#782,#646,#647);
#512=AXIS2_PLACEMENT_3D('',#784,#648,#649);
#513=AXIS2_PLACEMENT_3D('',#786,#650,#651);
#514=AXIS2_PLACEMENT_3D('',#787,#652,#653);
#515=AXIS2_PLACEMENT_3D('',#789,#654,#655);
#516=AXIS2_PLACEMENT_3D('',#790,#656,#657);
#517=AXIS2_PLACEMENT_3D('',#791,#658,#659);
#518=AXIS2_PLACEMENT_3D('',#792,#660,#661);
#519=AXIS2_PLACEMENT_3D('',#793,#662,#663);
#520=AXIS2_PLACEMENT_3D('',#794,#664,#665);
#521=AXIS2_PLACEMENT_3D('',#795,#666,#667);
#522=AXIS2_PLACEMENT_3D('',#796,#668,#669);
#523=DIRECTION('',(0.,0.,1.));
#524=DIRECTION('',(1.,0.,0.));
#525=DIRECTION('',(-0.142747385168403,0.989759154556089,0.));
#526=DIRECTION('',(-0.989759154556089,-0.142747385168403,0.));
#527=DIRECTION('',(0.989759154556089,0.142747385168403,1.63444929625946E-16));
#528=DIRECTION('',(0.,0.,-1.));
#529=DIRECTION('',(0.989759154556089,0.142747385168403,1.63444929625946E-16));
#530=DIRECTION('',(0.,0.,-1.));
#531=DIRECTION('',(0.,0.,-1.));
#532=DIRECTION('',(-1.,0.,0.));
#533=DIRECTION('',(3.00857755944414E-16,-5.54097370910603E-16,-1.));
#534=DIRECTION('',(-0.999778170009689,-0.0210620695107825,-2.89120579329468E-16));
#535=DIRECTION('',(0.,0.,-1.));
#536=DIRECTION('',(3.00857755944414E-16,-5.54097370910603E-16,-1.));
#537=DIRECTION('',(-0.999778170009689,-0.0210620695107825,-2.89120579329468E-16));
#538=DIRECTION('',(0.,0.,-1.));
#539=DIRECTION('',(-1.,0.,0.));
#540=DIRECTION('',(-2.8279172821228E-16,5.5447796326928E-16,1.));
#541=DIRECTION('',(0.999778170009689,0.0210620695107822,2.71050543121377E-16));
#542=DIRECTION('',(0.,0.,-1.));
#543=DIRECTION('',(-2.8279172821228E-16,5.5447796326928E-16,1.));
#544=DIRECTION('',(0.999778170009689,0.0210620695107822,2.71050543121377E-16));
#545=DIRECTION('',(0.142747385168402,-0.989759154556089,0.));
#546=DIRECTION('',(0.989759154556089,0.142747385168402,0.));
#547=DIRECTION('',(-0.989759154556089,-0.142747385168402,-1.63444929625946E-16));
#548=DIRECTION('',(0.,0.,-1.));
#549=DIRECTION('',(-0.989759154556089,-0.142747385168402,-1.63444929625946E-16));
#550=DIRECTION('',(0.,0.,-1.));
#551=DIRECTION('',(-1.,0.,0.));
#552=DIRECTION('',(-2.8279172821228E-16,5.5447796326928E-16,1.));
#553=DIRECTION('',(0.999778170009689,0.0210620695107822,2.71050543121377E-16));
#554=DIRECTION('',(0.,0.,-1.));
#555=DIRECTION('',(-2.8279172821228E-16,5.5447796326928E-16,1.));
#556=DIRECTION('',(0.999778170009689,0.0210620695107822,2.71050543121377E-16));
#557=DIRECTION('',(0.,0.,-1.));
#558=DIRECTION('',(-1.,0.,0.));
#559=DIRECTION('',(2.40003767794066E-16,-5.55379366224041E-16,-1.));
#560=DIRECTION('',(-0.999778170009689,-0.0210620695107824,-2.28253088944317E-16));
#561=DIRECTION('',(0.,0.,-1.));
#562=DIRECTION('',(2.40003767794066E-16,-5.55379366224041E-16,-1.));
#563=DIRECTION('',(-0.999778170009689,-0.0210620695107824,-2.28253088944317E-16));
#564=DIRECTION('',(0.,0.,-1.));
#565=DIRECTION('',(-1.,0.,0.));
#566=DIRECTION('',(-2.8279172821228E-16,5.5447796326928E-16,1.));
#567=DIRECTION('',(-0.999778170009689,-0.0210620695107822,-2.71050543121377E-16));
#568=DIRECTION('',(0.,0.,-1.));
#569=DIRECTION('',(-2.8279172821228E-16,5.5447796326928E-16,1.));
#570=DIRECTION('',(-0.999778170009689,-0.0210620695107822,-2.71050543121377E-16));
#571=DIRECTION('',(-0.142747385168402,0.989759154556089,0.));
#572=DIRECTION('',(-0.989759154556089,-0.142747385168402,0.));
#573=DIRECTION('',(0.989759154556089,0.142747385168402,1.63444929625946E-16));
#574=DIRECTION('',(0.,0.,-1.));
#575=DIRECTION('',(0.989759154556089,0.142747385168402,1.63444929625946E-16));
#576=DIRECTION('',(0.,0.,-1.));
#577=DIRECTION('',(-1.,0.,0.));
#578=DIRECTION('',(-2.8279172821228E-16,5.5447796326928E-16,1.));
#579=DIRECTION('',(-0.999778170009689,-0.0210620695107822,-2.71050543121377E-16));
#580=DIRECTION('',(0.,0.,-1.));
#581=DIRECTION('',(-2.8279172821228E-16,5.5447796326928E-16,1.));
#582=DIRECTION('',(-0.999778170009689,-0.0210620695107822,-2.71050543121377E-16));
#583=DIRECTION('',(0.526854079944461,0.84995575087523,0.));
#584=DIRECTION('',(-0.84995575087523,0.526854079944461,0.));
#585=DIRECTION('',(0.84995575087523,-0.526854079944461,5.00971678828819E-16));
#586=DIRECTION('',(0.,0.,-1.));
#587=DIRECTION('',(0.84995575087523,-0.526854079944461,5.00971678828819E-16));
#588=DIRECTION('',(0.,0.,-1.));
#589=DIRECTION('',(-1.,0.,0.));
#590=DIRECTION('',(1.1801312230259E-17,-5.60186848649438E-16,-1.));
#591=DIRECTION('',(-0.999778170009689,-0.0210620695107836,0.));
#592=DIRECTION('',(0.,0.,-1.));
#593=DIRECTION('',(1.1801312230259E-17,-5.60186848649438E-16,-1.));
#594=DIRECTION('',(-0.999778170009689,-0.0210620695107836,0.));
#595=DIRECTION('',(-0.989759154556089,-0.142747385168402,0.));
#596=DIRECTION('',(0.142747385168402,-0.989759154556089,0.));
#597=DIRECTION('',(-0.142747385168402,0.989759154556089,-5.84587495263226E-16));
#598=DIRECTION('',(0.,0.,-1.));
#599=DIRECTION('',(-0.142747385168402,0.989759154556089,-5.84587495263226E-16));
#600=DIRECTION('',(0.,0.,-1.));
#601=DIRECTION('',(-1.,0.,0.));
#602=DIRECTION('',(0.,0.,1.));
#603=DIRECTION('',(1.,0.,0.));
#604=DIRECTION('',(0.,0.,1.));
#605=DIRECTION('',(1.,0.,0.));
#606=DIRECTION('',(0.,0.,-1.));
#607=DIRECTION('',(-1.,0.,0.));
#608=DIRECTION('',(-2.8279172821228E-16,5.5447796326928E-16,1.));
#609=DIRECTION('',(0.999778170009689,0.0210620695107822,2.71050543121377E-16));
#610=DIRECTION('',(-2.8279172821228E-16,5.5447796326928E-16,1.));
#611=DIRECTION('',(0.999778170009689,0.0210620695107822,2.71050543121377E-16));
#612=DIRECTION('',(0.,0.,-1.));
#613=DIRECTION('',(-1.,0.,0.));
#614=DIRECTION('',(0.,0.,1.));
#615=DIRECTION('',(1.,0.,0.));
#616=DIRECTION('',(0.,0.,1.));
#617=DIRECTION('',(1.,0.,0.));
#618=DIRECTION('',(0.,0.,1.));
#619=DIRECTION('',(1.,0.,0.));
#620=DIRECTION('',(0.,0.,1.));
#621=DIRECTION('',(1.,0.,0.));
#622=DIRECTION('',(0.,0.,1.));
#623=DIRECTION('',(1.,0.,0.));
#624=DIRECTION('',(0.,0.,1.));
#625=DIRECTION('',(1.,0.,0.));
#626=DIRECTION('',(0.,0.,1.));
#627=DIRECTION('',(1.,0.,0.));
#628=DIRECTION('',(0.,0.,1.));
#629=DIRECTION('',(1.,0.,0.));
#630=DIRECTION('',(0.,0.,1.));
#631=DIRECTION('',(1.,0.,0.));
#632=DIRECTION('',(0.,0.,1.));
#633=DIRECTION('',(1.,0.,0.));
#634=DIRECTION('',(0.,0.,1.));
#635=DIRECTION('',(1.,0.,0.));
#636=DIRECTION('',(0.,0.,1.));
#637=DIRECTION('',(1.,0.,0.));
#638=DIRECTION('',(0.,0.,-1.));
#639=DIRECTION('',(-1.,0.,0.));
#640=DIRECTION('',(0.,0.,1.));
#641=DIRECTION('',(1.,0.,0.));
#642=DIRECTION('',(0.,0.,1.));
#643=DIRECTION('',(1.,0.,0.));
#644=DIRECTION('',(0.,0.,-1.));
#645=DIRECTION('',(-1.,0.,0.));
#646=DIRECTION('',(0.,0.,1.));
#647=DIRECTION('',(1.,0.,0.));
#648=DIRECTION('',(0.,0.,1.));
#649=DIRECTION('',(1.,0.,0.));
#650=DIRECTION('',(0.,0.,1.));
#651=DIRECTION('',(1.,0.,0.));
#652=DIRECTION('',(0.,0.,1.));
#653=DIRECTION('',(1.,0.,0.));
#654=DIRECTION('',(0.,0.,-1.));
#655=DIRECTION('',(-1.,0.,0.));
#656=DIRECTION('',(0.,0.,1.));
#657=DIRECTION('',(1.,0.,0.));
#658=DIRECTION('',(0.,0.,-1.));
#659=DIRECTION('',(-1.,0.,0.));
#660=DIRECTION('',(0.,0.,1.));
#661=DIRECTION('',(1.,0.,0.));
#662=DIRECTION('',(0.,0.,1.));
#663=DIRECTION('',(1.,0.,0.));
#664=DIRECTION('',(0.,0.,-1.));
#665=DIRECTION('',(-1.,0.,0.));
#666=DIRECTION('',(0.,0.,1.));
#667=DIRECTION('',(1.,0.,0.));
#668=DIRECTION('',(0.,0.,-1.));
#669=DIRECTION('',(-1.,0.,0.));
#670=CARTESIAN_POINT('',(0.,0.,0.));
#671=CARTESIAN_POINT('',(-0.0628824817083575,0.0563108417446933,0.0135));
#672=CARTESIAN_POINT('',(-0.0628824817083575,0.0563108417446933,0.0045));
#673=CARTESIAN_POINT('',(-0.0628824817083575,0.0563108417446934,0.0045));
#674=CARTESIAN_POINT('',(-0.0601111560756004,0.0567105344231648,0.0045));
#675=CARTESIAN_POINT('',(-0.0628824817083575,0.0563108417446934,0.0135));
#676=CARTESIAN_POINT('',(-0.0628824817083575,0.0563108417446934,0.0135));
#677=CARTESIAN_POINT('',(-0.0628824817083575,0.0563108417446933,0.0135));
#678=CARTESIAN_POINT('',(-0.0601111560756004,0.0567105344231648,0.0135));
#679=CARTESIAN_POINT('',(-0.0601111560756004,0.0567105344231648,0.0135));
#680=CARTESIAN_POINT('',(-0.0620259973973471,0.0503722868173568,0.0135));
#681=CARTESIAN_POINT('',(-0.0620259973973471,0.0503722868173568,0.0045));
#682=CARTESIAN_POINT('',(-0.0580591679593986,0.0458707021841165,0.0045));
#683=CARTESIAN_POINT('',(-0.0580591679593986,0.0458707021841165,0.0135));
#684=CARTESIAN_POINT('',(-0.0580591679593986,0.0458707021841165,0.0135));
#685=CARTESIAN_POINT('',(-0.0620259973973471,0.0503722868173568,0.0135));
#686=CARTESIAN_POINT('',(-0.0559435255924927,0.0434698570463884,0.0135));
#687=CARTESIAN_POINT('',(-0.0559435255924927,0.0434698570463884,0.0045));
#688=CARTESIAN_POINT('',(-0.0564003172250316,0.0466370863409679,0.0045));
#689=CARTESIAN_POINT('',(-0.0564003172250316,0.0466370863409679,0.0135));
#690=CARTESIAN_POINT('',(-0.0564003172250316,0.0466370863409679,0.0135));
#691=CARTESIAN_POINT('',(-0.0559435255924927,0.0434698570463884,0.0135));
#692=CARTESIAN_POINT('',(-0.0374542055848998,0.0493695772538207,0.0135));
#693=CARTESIAN_POINT('',(-0.0374542055848998,0.0493695772538207,0.0045));
#694=CARTESIAN_POINT('',(-0.0374542055848998,0.0493695772538207,0.0045));
#695=CARTESIAN_POINT('',(-0.0374542055848998,0.0493695772538207,0.0135));
#696=CARTESIAN_POINT('',(-0.0374542055848998,0.0493695772538207,0.0135));
#697=CARTESIAN_POINT('',(-0.0374542055848998,0.0493695772538207,0.0135));
#698=CARTESIAN_POINT('',(-0.0369974139523609,0.0462023479592412,0.0135));
#699=CARTESIAN_POINT('',(-0.0369974139523609,0.0462023479592412,0.0045));
#700=CARTESIAN_POINT('',(-0.0351022229265329,0.0487807682073041,0.0045));
#701=CARTESIAN_POINT('',(-0.0351022229265329,0.0487807682073041,0.0135));
#702=CARTESIAN_POINT('',(-0.0351022229265329,0.0487807682073041,0.0135));
#703=CARTESIAN_POINT('',(-0.0369974139523609,0.0462023479592412,0.0135));
#704=CARTESIAN_POINT('',(-0.0306011442401912,0.0549045162964535,0.0135));
#705=CARTESIAN_POINT('',(-0.0306011442401912,0.0549045162964535,0.0045));
#706=CARTESIAN_POINT('',(-0.0361345209392373,0.0601142900253648,0.0045));
#707=CARTESIAN_POINT('',(-0.0361345209392373,0.0601142900253648,0.0135));
#708=CARTESIAN_POINT('',(-0.0361345209392373,0.0601142900253648,0.0135));
#709=CARTESIAN_POINT('',(-0.0306011442401912,0.0549045162964535,0.0135));
#710=CARTESIAN_POINT('',(-0.0384643637598883,0.0623078789638537,0.0135));
#711=CARTESIAN_POINT('',(-0.0384643637598883,0.0623078789638537,0.0045));
#712=CARTESIAN_POINT('',(-0.0380075721273494,0.0591406496692742,0.0045));
#713=CARTESIAN_POINT('',(-0.0380075721273494,0.0591406496692742,0.0135));
#714=CARTESIAN_POINT('',(-0.0380075721273494,0.0591406496692742,0.0135));
#715=CARTESIAN_POINT('',(-0.0384643637598883,0.0623078789638537,0.0135));
#716=CARTESIAN_POINT('',(-0.0380075721273494,0.0591406496692742,0.0135));
#717=CARTESIAN_POINT('',(-0.0380075721273494,0.0591406496692742,0.0045));
#718=CARTESIAN_POINT('',(-0.0446212710916698,0.0581867931385194,0.0045));
#719=CARTESIAN_POINT('',(-0.0446212710916698,0.0581867931385194,0.0135));
#720=CARTESIAN_POINT('',(-0.0446212710916698,0.0581867931385194,0.0135));
#721=CARTESIAN_POINT('',(-0.0380075721273494,0.0591406496692742,0.0135));
#722=CARTESIAN_POINT('',(-0.0450780627242087,0.0613540224330989,0.0135));
#723=CARTESIAN_POINT('',(-0.0450780627242087,0.0613540224330989,0.0045));
#724=CARTESIAN_POINT('',(-0.046763995780031,0.0586341640302982,0.0045));
#725=CARTESIAN_POINT('',(-0.046763995780031,0.0586341640302982,0.0135));
#726=CARTESIAN_POINT('',(-0.046763995780031,0.0586341640302982,0.0135));
#727=CARTESIAN_POINT('',(-0.0450780627242087,0.0613540224330989,0.0135));
#728=CARTESIAN_POINT('',(-0.046763995780031,0.0586341640302982,0.0135));
#729=CARTESIAN_POINT('',(-0.046763995780031,0.0586341640302982,0.0045));
#730=CARTESIAN_POINT('',(-0.0559883899193514,0.0643520024969623,0.0045));
#731=CARTESIAN_POINT('',(-0.0559883899193514,0.0643520024969623,0.0135));
#732=CARTESIAN_POINT('',(-0.0559883899193514,0.0643520024969623,0.0135));
#733=CARTESIAN_POINT('',(-0.046763995780031,0.0586341640302982,0.0135));
#734=CARTESIAN_POINT('',(-0.0566206148152848,0.063332055595912,0.0135));
#735=CARTESIAN_POINT('',(-0.0566206148152848,0.063332055595912,0.0045));
#736=CARTESIAN_POINT('',(-0.0578083258007521,0.0631607587337099,0.0045));
#737=CARTESIAN_POINT('',(-0.0578083258007521,0.0631607587337099,0.0135));
#738=CARTESIAN_POINT('',(-0.0578083258007521,0.0631607587337099,0.0135));
#739=CARTESIAN_POINT('',(-0.0566206148152848,0.063332055595912,0.0135));
#740=CARTESIAN_POINT('',(-0.0574007184135598,0.0603345553502832,0.0135));
#741=CARTESIAN_POINT('',(-0.0574007184135598,0.0603345553502832,0.0045));
#742=CARTESIAN_POINT('',(-0.0574007184135598,0.0603345553502832,0.0045));
#743=CARTESIAN_POINT('',(-0.0574007184135598,0.0603345553502832,0.0135));
#744=CARTESIAN_POINT('',(-0.0574007184135598,0.0603345553502832,0.0135));
#745=CARTESIAN_POINT('',(-0.0574007184135598,0.0603345553502832,0.0135));
#746=CARTESIAN_POINT('',(-0.0536590096245761,0.0558489204193338,0.0135));
#747=CARTESIAN_POINT('',(-0.0536590096245761,0.0558489204193338,0.0131));
#748=CARTESIAN_POINT('',(-0.0506590096245761,0.0558489204193338,0.0131));
#749=CARTESIAN_POINT('',(-0.0536590096245761,0.0558489204193338,0.0049));
#750=CARTESIAN_POINT('',(-0.0506590096245761,0.0558489204193338,0.0049));
#751=CARTESIAN_POINT('',(-0.0605679477081393,0.0598777637177443,0.0135));
#752=CARTESIAN_POINT('',(-0.0605679477081393,0.0598777637177443,0.0045));
#753=CARTESIAN_POINT('',(-0.0605679477081393,0.0598777637177443,0.0135));
#754=CARTESIAN_POINT('',(-0.0620259973973471,0.050372286817357,0.0135));
#755=CARTESIAN_POINT('',(-0.0620259973973471,0.050372286817357,0.0131));
#756=CARTESIAN_POINT('',(-0.0580259973973471,0.050372286817357,0.0131));
#757=CARTESIAN_POINT('',(-0.0620259973973471,0.050372286817357,0.0049));
#758=CARTESIAN_POINT('',(-0.0580259973973471,0.050372286817357,0.0049));
#759=CARTESIAN_POINT('',(-0.0455135708187692,0.0528888680051211,0.0135));
#760=CARTESIAN_POINT('',(-0.0306011442401912,0.0549045162964535,0.0135));
#761=CARTESIAN_POINT('',(-0.0263011442401912,0.0549045162964535,0.0135));
#762=CARTESIAN_POINT('',(-0.0620259973973471,0.050372286817357,0.0135));
#763=CARTESIAN_POINT('',(-0.0576259973973471,0.050372286817357,0.0135));
#764=CARTESIAN_POINT('',(-0.0536590096245761,0.0558489204193338,0.0135));
#765=CARTESIAN_POINT('',(-0.0502590096245761,0.0558489204193338,0.0135));
#766=CARTESIAN_POINT('',(-0.0455135708187692,0.0528888680051211,0.0045));
#767=CARTESIAN_POINT('',(-0.0306011442401912,0.0549045162964535,0.0045));
#768=CARTESIAN_POINT('',(-0.0263011442401912,0.0549045162964535,0.0045));
#769=CARTESIAN_POINT('',(-0.0620259973973471,0.050372286817357,0.0045));
#770=CARTESIAN_POINT('',(-0.0576259973973471,0.050372286817357,0.0045));
#771=CARTESIAN_POINT('',(-0.0536590096245761,0.0558489204193338,0.0045));
#772=CARTESIAN_POINT('',(-0.0502590096245761,0.0558489204193338,0.0045));
#773=CARTESIAN_POINT('',(-0.0455135708187692,0.0528888680051211,-0.002));
#774=CARTESIAN_POINT('',(-0.0306011442401912,0.0549045162964535,-0.002));
#775=CARTESIAN_POINT('',(-0.0271011442401912,0.0549045162964535,-0.002));
#776=CARTESIAN_POINT('',(-0.0306011442401912,0.0549045162964535,0.02));
#777=CARTESIAN_POINT('',(-0.0306011442401912,0.0549045162964535,0.0041));
#778=CARTESIAN_POINT('',(-0.0267011442401912,0.0549045162964535,0.0041));
#779=CARTESIAN_POINT('',(-0.0306011442401912,0.0549045162964535,-0.0016));
#780=CARTESIAN_POINT('',(-0.0267011442401912,0.0549045162964535,-0.0016));
#781=CARTESIAN_POINT('',(-0.0306011442401912,0.0549045162964535,0.02));
#782=CARTESIAN_POINT('',(-0.0306011442401912,0.0549045162964535,0.0139));
#783=CARTESIAN_POINT('',(-0.0267011442401912,0.0549045162964535,0.0139));
#784=CARTESIAN_POINT('',(-0.0306011442401912,0.0549045162964535,0.0196));
#785=CARTESIAN_POINT('',(-0.0267011442401912,0.0549045162964535,0.0196));
#786=CARTESIAN_POINT('',(-0.0455135708187692,0.0528888680051211,0.02));
#787=CARTESIAN_POINT('',(-0.0306011442401912,0.0549045162964535,0.02));
#788=CARTESIAN_POINT('',(-0.0271011442401912,0.0549045162964535,0.02));
#789=CARTESIAN_POINT('',(-0.0306011442401912,0.0549045162964535,0.0139));
#790=CARTESIAN_POINT('',(-0.0306011442401912,0.0549045162964535,0.0041));
#791=CARTESIAN_POINT('',(-0.0306011442401912,0.0549045162964535,0.02));
#792=CARTESIAN_POINT('',(-0.0306011442401912,0.0549045162964535,-0.0016));
#793=CARTESIAN_POINT('',(-0.0620259973973471,0.050372286817357,0.0135));
#794=CARTESIAN_POINT('',(-0.0620259973973471,0.050372286817357,0.0049));
#795=CARTESIAN_POINT('',(-0.0536590096245761,0.0558489204193338,0.0135));
#796=CARTESIAN_POINT('',(-0.0536590096245761,0.0558489204193338,0.0049));
#797=MECHANICAL_DESIGN_GEOMETRIC_PRESENTATION_REPRESENTATION('',(#450),
#798);
#798=(
GEOMETRIC_REPRESENTATION_CONTEXT(3)
GLOBAL_UNCERTAINTY_ASSIGNED_CONTEXT((#799))
GLOBAL_UNIT_ASSIGNED_CONTEXT((#802,#801,#800))
REPRESENTATION_CONTEXT('2f-85_finger_actuator',
'TOP_LEVEL_ASSEMBLY_PART')
);
#799=UNCERTAINTY_MEASURE_WITH_UNIT(LENGTH_MEASURE(2.2E-7),#802,
'DISTANCE_ACCURACY_VALUE','Maximum Tolerance applied to model');
#800=(
NAMED_UNIT(*)
SI_UNIT($,.STERADIAN.)
SOLID_ANGLE_UNIT()
);
#801=(
NAMED_UNIT(*)
PLANE_ANGLE_UNIT()
SI_UNIT($,.RADIAN.)
);
#802=(
LENGTH_UNIT()
NAMED_UNIT(*)
SI_UNIT($,.METRE.)
);
#803=PRODUCT_DEFINITION_SHAPE('','',#804);
#804=PRODUCT_DEFINITION('','',#806,#805);
#805=PRODUCT_DEFINITION_CONTEXT('',#812,'design');
#806=PRODUCT_DEFINITION_FORMATION_WITH_SPECIFIED_SOURCE('','',#808,
 .NOT_KNOWN.);
#807=PRODUCT_RELATED_PRODUCT_CATEGORY('','',(#808));
#808=PRODUCT('2f-85_finger_actuator','2f-85_finger_actuator',
'2f-85_finger_actuator',(#810));
#809=PRODUCT_CATEGORY('','');
#810=PRODUCT_CONTEXT('',#812,'mechanical');
#811=APPLICATION_PROTOCOL_DEFINITION('international standard',
'ap242_managed_model_based_3d_engineering',2020,#812);
#812=APPLICATION_CONTEXT('managed model based 3d engineering');
ENDSEC;
END-ISO-10303-21;
