ISO-10303-21;
HEADER;
/* Generated by software containing ST-Developer
 * from STEP Tools, Inc. (www.steptools.com) 
 */
/* OPTION: using custom renumber hook */

FILE_DESCRIPTION(
/* description */ ('STEP AP242 Edition 2',
'CAx-IF Rec.Pracs.---Representation and Presentation of Product Manufa
cturing Information (PMI)---4.0---2014-10-13',
'CAx-IF Rec.Pracs.---3D Tessellated Geometry---0.4---2014-09-14','2;1',
'CAx-IF Rec.Pracs.---User Defined Attributes---1.5---2016-08-15'),
/* implementation_level */ '2;1');

FILE_NAME(
/* name */ '2f-85_finger_tips - 2f-85_finger_tips',
/* time_stamp */ '2026-04-28T10:53:15Z',
/* author */ (''),
/* organization */ (''),
/* preprocessor_version */ 'ST-DEVELOPER v20',
/* originating_system */ 'ONSHAPE BY PTC INC, 1.214',
/* authorisation */ '  ');

FILE_SCHEMA (('AP242_MANAGED_MODEL_BASED_3D_ENGINEERING_MIM_LF { 1 0 10303 442 3 1 4 }'));
ENDSEC;

DATA;
#10=SHAPE_REPRESENTATION_RELATIONSHIP('','',#622,#11);
#11=ADVANCED_BREP_SHAPE_REPRESENTATION('',(#620),#1069);
#12=CONICAL_SURFACE('',#650,0.005,0.785398163397452);
#13=CONICAL_SURFACE('',#652,0.0042,0.785398163397448);
#14=CONICAL_SURFACE('',#654,0.0058,0.785398163397451);
#15=CONICAL_SURFACE('',#656,0.005,0.785398163397448);
#16=ELLIPSE('',#644,0.00526838802186411,0.0046);
#17=ELLIPSE('',#659,0.00282842712474619,0.002);
#18=ELLIPSE('',#660,0.00282842712474619,0.002);
#19=ELLIPSE('',#662,0.00282842712474619,0.002);
#20=ELLIPSE('',#664,0.00282842712474619,0.002);
#21=ELLIPSE('',#665,0.00282842712474619,0.002);
#22=ELLIPSE('',#667,0.00282842712474619,0.002);
#23=ELLIPSE('',#669,0.00282842712474619,0.002);
#24=ELLIPSE('',#670,0.00282842712474619,0.002);
#25=ELLIPSE('',#673,0.00282842712474619,0.002);
#26=ELLIPSE('',#675,0.00282842712474619,0.002);
#27=PLANE('',#627);
#28=PLANE('',#630);
#29=PLANE('',#633);
#30=PLANE('',#635);
#31=PLANE('',#636);
#32=PLANE('',#637);
#33=PLANE('',#638);
#34=PLANE('',#639);
#35=PLANE('',#643);
#36=PLANE('',#645);
#37=PLANE('',#646);
#38=PLANE('',#647);
#39=PLANE('',#648);
#40=PLANE('',#649);
#41=PLANE('',#651);
#42=PLANE('',#653);
#43=PLANE('',#655);
#44=PLANE('',#657);
#45=PLANE('',#679);
#46=CIRCLE('',#625,0.005);
#47=CIRCLE('',#626,0.005);
#48=CIRCLE('',#628,0.0042);
#49=CIRCLE('',#629,0.0058);
#50=CIRCLE('',#631,0.0042);
#51=CIRCLE('',#632,0.0058);
#52=CIRCLE('',#634,0.00265);
#53=CIRCLE('',#641,0.005);
#54=CIRCLE('',#642,0.005);
#55=CIRCLE('',#678,0.0046);
#56=CIRCLE('',#680,0.00265);
#57=LINE('',#868,#111);
#58=LINE('',#872,#112);
#59=LINE('',#876,#113);
#60=LINE('',#881,#114);
#61=LINE('',#883,#115);
#62=LINE('',#885,#116);
#63=LINE('',#887,#117);
#64=LINE('',#891,#118);
#65=LINE('',#893,#119);
#66=LINE('',#896,#120);
#67=LINE('',#900,#121);
#68=LINE('',#904,#122);
#69=LINE('',#906,#123);
#70=LINE('',#910,#124);
#71=LINE('',#912,#125);
#72=LINE('',#914,#126);
#73=LINE('',#915,#127);
#74=LINE('',#917,#128);
#75=LINE('',#919,#129);
#76=LINE('',#922,#130);
#77=LINE('',#924,#131);
#78=LINE('',#925,#132);
#79=LINE('',#927,#133);
#80=LINE('',#929,#134);
#81=LINE('',#932,#135);
#82=LINE('',#933,#136);
#83=LINE('',#935,#137);
#84=LINE('',#938,#138);
#85=LINE('',#939,#139);
#86=LINE('',#941,#140);
#87=LINE('',#949,#141);
#88=LINE('',#963,#142);
#89=LINE('',#967,#143);
#90=LINE('',#971,#144);
#91=LINE('',#981,#145);
#92=LINE('',#982,#146);
#93=LINE('',#984,#147);
#94=LINE('',#985,#148);
#95=LINE('',#987,#149);
#96=LINE('',#993,#150);
#97=LINE('',#996,#151);
#98=LINE('',#998,#152);
#99=LINE('',#1000,#153);
#100=LINE('',#1002,#154);
#101=LINE('',#1008,#155);
#102=LINE('',#1011,#156);
#103=LINE('',#1013,#157);
#104=LINE('',#1015,#158);
#105=LINE('',#1017,#159);
#106=LINE('',#1019,#160);
#107=LINE('',#1021,#161);
#108=LINE('',#1024,#162);
#109=LINE('',#1026,#163);
#110=LINE('',#1028,#164);
#111=VECTOR('',#686,1.);
#112=VECTOR('',#689,1.);
#113=VECTOR('',#692,1.);
#114=VECTOR('',#697,1.);
#115=VECTOR('',#698,1.);
#116=VECTOR('',#699,1.);
#117=VECTOR('',#700,1.);
#118=VECTOR('',#703,1.);
#119=VECTOR('',#706,1.);
#120=VECTOR('',#707,1.);
#121=VECTOR('',#710,1.);
#122=VECTOR('',#713,1.);
#123=VECTOR('',#714,1.);
#124=VECTOR('',#719,1.);
#125=VECTOR('',#720,1.);
#126=VECTOR('',#721,1.);
#127=VECTOR('',#722,1.);
#128=VECTOR('',#725,1.);
#129=VECTOR('',#728,1.);
#130=VECTOR('',#729,1.);
#131=VECTOR('',#730,1.);
#132=VECTOR('',#731,1.);
#133=VECTOR('',#732,1.);
#134=VECTOR('',#735,1.);
#135=VECTOR('',#736,1.);
#136=VECTOR('',#737,1.);
#137=VECTOR('',#740,1.);
#138=VECTOR('',#741,1.);
#139=VECTOR('',#742,1.);
#140=VECTOR('',#745,1.);
#141=VECTOR('',#746,1.);
#142=VECTOR('',#749,1.);
#143=VECTOR('',#752,1.);
#144=VECTOR('',#755,1.);
#145=VECTOR('',#760,1.);
#146=VECTOR('',#761,1.);
#147=VECTOR('',#764,1.);
#148=VECTOR('',#765,1.);
#149=VECTOR('',#768,1.);
#150=VECTOR('',#771,1.);
#151=VECTOR('',#772,1.);
#152=VECTOR('',#773,1.);
#153=VECTOR('',#774,1.);
#154=VECTOR('',#777,1.);
#155=VECTOR('',#780,1.);
#156=VECTOR('',#781,1.);
#157=VECTOR('',#782,1.);
#158=VECTOR('',#783,1.);
#159=VECTOR('',#786,1.);
#160=VECTOR('',#789,1.);
#161=VECTOR('',#792,1.);
#162=VECTOR('',#797,1.);
#163=VECTOR('',#800,1.);
#164=VECTOR('',#803,1.);
#165=ORIENTED_EDGE('',*,*,#335,.F.);
#166=ORIENTED_EDGE('',*,*,#336,.T.);
#167=ORIENTED_EDGE('',*,*,#337,.T.);
#168=ORIENTED_EDGE('',*,*,#338,.F.);
#169=ORIENTED_EDGE('',*,*,#339,.T.);
#170=ORIENTED_EDGE('',*,*,#340,.T.);
#171=ORIENTED_EDGE('',*,*,#341,.T.);
#172=ORIENTED_EDGE('',*,*,#342,.T.);
#173=ORIENTED_EDGE('',*,*,#343,.T.);
#174=ORIENTED_EDGE('',*,*,#344,.F.);
#175=ORIENTED_EDGE('',*,*,#345,.T.);
#176=ORIENTED_EDGE('',*,*,#346,.T.);
#177=ORIENTED_EDGE('',*,*,#347,.T.);
#178=ORIENTED_EDGE('',*,*,#348,.F.);
#179=ORIENTED_EDGE('',*,*,#349,.T.);
#180=ORIENTED_EDGE('',*,*,#350,.T.);
#181=ORIENTED_EDGE('',*,*,#351,.T.);
#182=ORIENTED_EDGE('',*,*,#352,.T.);
#183=ORIENTED_EDGE('',*,*,#353,.F.);
#184=ORIENTED_EDGE('',*,*,#354,.T.);
#185=ORIENTED_EDGE('',*,*,#355,.F.);
#186=ORIENTED_EDGE('',*,*,#343,.F.);
#187=ORIENTED_EDGE('',*,*,#356,.T.);
#188=ORIENTED_EDGE('',*,*,#357,.T.);
#189=ORIENTED_EDGE('',*,*,#358,.T.);
#190=ORIENTED_EDGE('',*,*,#348,.T.);
#191=ORIENTED_EDGE('',*,*,#359,.F.);
#192=ORIENTED_EDGE('',*,*,#354,.F.);
#193=ORIENTED_EDGE('',*,*,#360,.F.);
#194=ORIENTED_EDGE('',*,*,#344,.T.);
#195=ORIENTED_EDGE('',*,*,#359,.T.);
#196=ORIENTED_EDGE('',*,*,#361,.F.);
#197=ORIENTED_EDGE('',*,*,#362,.T.);
#198=ORIENTED_EDGE('',*,*,#363,.T.);
#199=ORIENTED_EDGE('',*,*,#360,.T.);
#200=ORIENTED_EDGE('',*,*,#364,.F.);
#201=ORIENTED_EDGE('',*,*,#365,.T.);
#202=ORIENTED_EDGE('',*,*,#366,.F.);
#203=ORIENTED_EDGE('',*,*,#367,.T.);
#204=ORIENTED_EDGE('',*,*,#361,.T.);
#205=ORIENTED_EDGE('',*,*,#368,.T.);
#206=ORIENTED_EDGE('',*,*,#369,.T.);
#207=ORIENTED_EDGE('',*,*,#370,.T.);
#208=ORIENTED_EDGE('',*,*,#366,.T.);
#209=ORIENTED_EDGE('',*,*,#371,.T.);
#210=ORIENTED_EDGE('',*,*,#372,.T.);
#211=ORIENTED_EDGE('',*,*,#373,.T.);
#212=ORIENTED_EDGE('',*,*,#374,.F.);
#213=ORIENTED_EDGE('',*,*,#375,.T.);
#214=ORIENTED_EDGE('',*,*,#374,.T.);
#215=ORIENTED_EDGE('',*,*,#376,.T.);
#216=ORIENTED_EDGE('',*,*,#377,.T.);
#217=ORIENTED_EDGE('',*,*,#378,.T.);
#218=ORIENTED_EDGE('',*,*,#379,.F.);
#219=ORIENTED_EDGE('',*,*,#380,.T.);
#220=ORIENTED_EDGE('',*,*,#381,.F.);
#221=ORIENTED_EDGE('',*,*,#382,.T.);
#222=ORIENTED_EDGE('',*,*,#383,.F.);
#223=ORIENTED_EDGE('',*,*,#340,.F.);
#224=ORIENTED_EDGE('',*,*,#384,.T.);
#225=ORIENTED_EDGE('',*,*,#379,.T.);
#226=ORIENTED_EDGE('',*,*,#385,.T.);
#227=ORIENTED_EDGE('',*,*,#336,.F.);
#228=ORIENTED_EDGE('',*,*,#357,.F.);
#229=ORIENTED_EDGE('',*,*,#386,.T.);
#230=ORIENTED_EDGE('',*,*,#338,.T.);
#231=ORIENTED_EDGE('',*,*,#387,.T.);
#232=ORIENTED_EDGE('',*,*,#377,.F.);
#233=ORIENTED_EDGE('',*,*,#388,.T.);
#234=ORIENTED_EDGE('',*,*,#364,.T.);
#235=ORIENTED_EDGE('',*,*,#353,.T.);
#236=ORIENTED_EDGE('',*,*,#389,.T.);
#237=ORIENTED_EDGE('',*,*,#390,.T.);
#238=ORIENTED_EDGE('',*,*,#391,.T.);
#239=ORIENTED_EDGE('',*,*,#392,.T.);
#240=ORIENTED_EDGE('',*,*,#393,.T.);
#241=ORIENTED_EDGE('',*,*,#363,.F.);
#242=ORIENTED_EDGE('',*,*,#394,.T.);
#243=ORIENTED_EDGE('',*,*,#381,.T.);
#244=ORIENTED_EDGE('',*,*,#395,.T.);
#245=ORIENTED_EDGE('',*,*,#345,.F.);
#246=ORIENTED_EDGE('',*,*,#396,.T.);
#247=ORIENTED_EDGE('',*,*,#397,.T.);
#248=ORIENTED_EDGE('',*,*,#398,.T.);
#249=ORIENTED_EDGE('',*,*,#399,.T.);
#250=ORIENTED_EDGE('',*,*,#395,.F.);
#251=ORIENTED_EDGE('',*,*,#380,.F.);
#252=ORIENTED_EDGE('',*,*,#400,.F.);
#253=ORIENTED_EDGE('',*,*,#346,.F.);
#254=ORIENTED_EDGE('',*,*,#400,.T.);
#255=ORIENTED_EDGE('',*,*,#384,.F.);
#256=ORIENTED_EDGE('',*,*,#401,.F.);
#257=ORIENTED_EDGE('',*,*,#347,.F.);
#258=ORIENTED_EDGE('',*,*,#401,.T.);
#259=ORIENTED_EDGE('',*,*,#339,.F.);
#260=ORIENTED_EDGE('',*,*,#402,.F.);
#261=ORIENTED_EDGE('',*,*,#341,.F.);
#262=ORIENTED_EDGE('',*,*,#402,.T.);
#263=ORIENTED_EDGE('',*,*,#386,.F.);
#264=ORIENTED_EDGE('',*,*,#356,.F.);
#265=ORIENTED_EDGE('',*,*,#342,.F.);
#266=ORIENTED_EDGE('',*,*,#389,.F.);
#267=ORIENTED_EDGE('',*,*,#352,.F.);
#268=ORIENTED_EDGE('',*,*,#403,.F.);
#269=ORIENTED_EDGE('',*,*,#378,.F.);
#270=ORIENTED_EDGE('',*,*,#403,.T.);
#271=ORIENTED_EDGE('',*,*,#351,.F.);
#272=ORIENTED_EDGE('',*,*,#404,.F.);
#273=ORIENTED_EDGE('',*,*,#385,.F.);
#274=ORIENTED_EDGE('',*,*,#404,.T.);
#275=ORIENTED_EDGE('',*,*,#350,.F.);
#276=ORIENTED_EDGE('',*,*,#405,.F.);
#277=ORIENTED_EDGE('',*,*,#337,.F.);
#278=ORIENTED_EDGE('',*,*,#405,.T.);
#279=ORIENTED_EDGE('',*,*,#349,.F.);
#280=ORIENTED_EDGE('',*,*,#358,.F.);
#281=ORIENTED_EDGE('',*,*,#387,.F.);
#282=ORIENTED_EDGE('',*,*,#406,.F.);
#283=ORIENTED_EDGE('',*,*,#397,.F.);
#284=ORIENTED_EDGE('',*,*,#407,.F.);
#285=ORIENTED_EDGE('',*,*,#367,.F.);
#286=ORIENTED_EDGE('',*,*,#407,.T.);
#287=ORIENTED_EDGE('',*,*,#396,.F.);
#288=ORIENTED_EDGE('',*,*,#408,.F.);
#289=ORIENTED_EDGE('',*,*,#362,.F.);
#290=ORIENTED_EDGE('',*,*,#409,.F.);
#291=ORIENTED_EDGE('',*,*,#390,.F.);
#292=ORIENTED_EDGE('',*,*,#410,.F.);
#293=ORIENTED_EDGE('',*,*,#365,.F.);
#294=ORIENTED_EDGE('',*,*,#410,.T.);
#295=ORIENTED_EDGE('',*,*,#393,.F.);
#296=ORIENTED_EDGE('',*,*,#411,.F.);
#297=ORIENTED_EDGE('',*,*,#368,.F.);
#298=ORIENTED_EDGE('',*,*,#412,.F.);
#299=ORIENTED_EDGE('',*,*,#398,.F.);
#300=ORIENTED_EDGE('',*,*,#406,.T.);
#301=ORIENTED_EDGE('',*,*,#370,.F.);
#302=ORIENTED_EDGE('',*,*,#413,.F.);
#303=ORIENTED_EDGE('',*,*,#399,.F.);
#304=ORIENTED_EDGE('',*,*,#412,.T.);
#305=ORIENTED_EDGE('',*,*,#414,.F.);
#306=ORIENTED_EDGE('',*,*,#375,.F.);
#307=ORIENTED_EDGE('',*,*,#382,.F.);
#308=ORIENTED_EDGE('',*,*,#394,.F.);
#309=ORIENTED_EDGE('',*,*,#408,.T.);
#310=ORIENTED_EDGE('',*,*,#415,.F.);
#311=ORIENTED_EDGE('',*,*,#391,.F.);
#312=ORIENTED_EDGE('',*,*,#409,.T.);
#313=ORIENTED_EDGE('',*,*,#388,.F.);
#314=ORIENTED_EDGE('',*,*,#376,.F.);
#315=ORIENTED_EDGE('',*,*,#373,.F.);
#316=ORIENTED_EDGE('',*,*,#416,.F.);
#317=ORIENTED_EDGE('',*,*,#392,.F.);
#318=ORIENTED_EDGE('',*,*,#415,.T.);
#319=ORIENTED_EDGE('',*,*,#417,.F.);
#320=ORIENTED_EDGE('',*,*,#371,.F.);
#321=ORIENTED_EDGE('',*,*,#411,.T.);
#322=ORIENTED_EDGE('',*,*,#413,.T.);
#323=ORIENTED_EDGE('',*,*,#369,.F.);
#324=ORIENTED_EDGE('',*,*,#417,.T.);
#325=ORIENTED_EDGE('',*,*,#416,.T.);
#326=ORIENTED_EDGE('',*,*,#372,.F.);
#327=ORIENTED_EDGE('',*,*,#414,.T.);
#328=ORIENTED_EDGE('',*,*,#418,.T.);
#329=ORIENTED_EDGE('',*,*,#383,.T.);
#330=ORIENTED_EDGE('',*,*,#335,.T.);
#331=ORIENTED_EDGE('',*,*,#419,.T.);
#332=ORIENTED_EDGE('',*,*,#418,.F.);
#333=ORIENTED_EDGE('',*,*,#355,.T.);
#334=ORIENTED_EDGE('',*,*,#419,.F.);
#335=EDGE_CURVE('',#420,#421,#473,.T.);
#336=EDGE_CURVE('',#420,#422,#57,.T.);
#337=EDGE_CURVE('',#422,#423,#46,.T.);
#338=EDGE_CURVE('',#424,#423,#58,.T.);
#339=EDGE_CURVE('',#424,#425,#47,.F.);
#340=EDGE_CURVE('',#425,#421,#59,.T.);
#341=EDGE_CURVE('',#426,#427,#48,.T.);
#342=EDGE_CURVE('',#427,#428,#60,.T.);
#343=EDGE_CURVE('',#428,#429,#61,.T.);
#344=EDGE_CURVE('',#430,#429,#62,.T.);
#345=EDGE_CURVE('',#430,#431,#63,.T.);
#346=EDGE_CURVE('',#431,#432,#49,.F.);
#347=EDGE_CURVE('',#432,#426,#64,.T.);
#348=EDGE_CURVE('',#433,#434,#65,.T.);
#349=EDGE_CURVE('',#433,#435,#66,.T.);
#350=EDGE_CURVE('',#435,#436,#50,.F.);
#351=EDGE_CURVE('',#436,#437,#67,.T.);
#352=EDGE_CURVE('',#437,#438,#51,.T.);
#353=EDGE_CURVE('',#439,#438,#68,.T.);
#354=EDGE_CURVE('',#439,#434,#69,.T.);
#355=EDGE_CURVE('',#440,#440,#52,.T.);
#356=EDGE_CURVE('',#428,#441,#70,.T.);
#357=EDGE_CURVE('',#441,#442,#71,.T.);
#358=EDGE_CURVE('',#442,#433,#72,.F.);
#359=EDGE_CURVE('',#429,#434,#73,.T.);
#360=EDGE_CURVE('',#430,#439,#74,.T.);
#361=EDGE_CURVE('',#443,#444,#75,.T.);
#362=EDGE_CURVE('',#443,#445,#76,.F.);
#363=EDGE_CURVE('',#445,#430,#77,.T.);
#364=EDGE_CURVE('',#446,#439,#78,.T.);
#365=EDGE_CURVE('',#446,#444,#79,.T.);
#366=EDGE_CURVE('',#447,#448,#80,.T.);
#367=EDGE_CURVE('',#447,#443,#81,.F.);
#368=EDGE_CURVE('',#444,#448,#82,.T.);
#369=EDGE_CURVE('',#449,#450,#83,.F.);
#370=EDGE_CURVE('',#450,#447,#84,.F.);
#371=EDGE_CURVE('',#448,#449,#85,.T.);
#372=EDGE_CURVE('',#451,#452,#86,.T.);
#373=EDGE_CURVE('',#452,#453,#474,.T.);
#374=EDGE_CURVE('',#454,#453,#87,.T.);
#375=EDGE_CURVE('',#454,#451,#475,.T.);
#376=EDGE_CURVE('',#453,#455,#476,.T.);
#377=EDGE_CURVE('',#455,#456,#88,.T.);
#378=EDGE_CURVE('',#456,#457,#53,.F.);
#379=EDGE_CURVE('',#458,#457,#89,.T.);
#380=EDGE_CURVE('',#458,#459,#54,.T.);
#381=EDGE_CURVE('',#460,#459,#90,.T.);
#382=EDGE_CURVE('',#460,#454,#477,.T.);
#383=EDGE_CURVE('',#421,#420,#16,.F.);
#384=EDGE_CURVE('',#425,#458,#91,.T.);
#385=EDGE_CURVE('',#457,#422,#92,.T.);
#386=EDGE_CURVE('',#441,#424,#93,.T.);
#387=EDGE_CURVE('',#423,#442,#94,.T.);
#388=EDGE_CURVE('',#455,#446,#95,.F.);
#389=EDGE_CURVE('',#438,#456,#478,.T.);
#390=EDGE_CURVE('',#461,#462,#96,.F.);
#391=EDGE_CURVE('',#462,#463,#97,.T.);
#392=EDGE_CURVE('',#463,#464,#98,.F.);
#393=EDGE_CURVE('',#464,#461,#99,.F.);
#394=EDGE_CURVE('',#445,#460,#100,.T.);
#395=EDGE_CURVE('',#459,#431,#479,.T.);
#396=EDGE_CURVE('',#465,#466,#101,.T.);
#397=EDGE_CURVE('',#466,#467,#102,.T.);
#398=EDGE_CURVE('',#467,#468,#103,.T.);
#399=EDGE_CURVE('',#468,#465,#104,.F.);
#400=EDGE_CURVE('',#432,#458,#105,.T.);
#401=EDGE_CURVE('',#426,#425,#106,.T.);
#402=EDGE_CURVE('',#427,#424,#107,.T.);
#403=EDGE_CURVE('',#457,#437,#108,.T.);
#404=EDGE_CURVE('',#422,#436,#109,.T.);
#405=EDGE_CURVE('',#423,#435,#110,.T.);
#406=EDGE_CURVE('',#467,#447,#17,.F.);
#407=EDGE_CURVE('',#443,#466,#18,.T.);
#408=EDGE_CURVE('',#445,#465,#19,.T.);
#409=EDGE_CURVE('',#462,#446,#20,.T.);
#410=EDGE_CURVE('',#444,#461,#21,.T.);
#411=EDGE_CURVE('',#448,#464,#22,.T.);
#412=EDGE_CURVE('',#468,#469,#23,.F.);
#413=EDGE_CURVE('',#469,#450,#24,.F.);
#414=EDGE_CURVE('',#451,#469,#480,.T.);
#415=EDGE_CURVE('',#463,#470,#25,.F.);
#416=EDGE_CURVE('',#470,#452,#481,.T.);
#417=EDGE_CURVE('',#449,#470,#26,.T.);
#418=EDGE_CURVE('',#471,#471,#55,.T.);
#419=EDGE_CURVE('',#472,#472,#56,.T.);
#420=VERTEX_POINT('',#866);
#421=VERTEX_POINT('',#867);
#422=VERTEX_POINT('',#869);
#423=VERTEX_POINT('',#871);
#424=VERTEX_POINT('',#873);
#425=VERTEX_POINT('',#875);
#426=VERTEX_POINT('',#879);
#427=VERTEX_POINT('',#880);
#428=VERTEX_POINT('',#882);
#429=VERTEX_POINT('',#884);
#430=VERTEX_POINT('',#886);
#431=VERTEX_POINT('',#888);
#432=VERTEX_POINT('',#890);
#433=VERTEX_POINT('',#894);
#434=VERTEX_POINT('',#895);
#435=VERTEX_POINT('',#897);
#436=VERTEX_POINT('',#899);
#437=VERTEX_POINT('',#901);
#438=VERTEX_POINT('',#903);
#439=VERTEX_POINT('',#905);
#440=VERTEX_POINT('',#909);
#441=VERTEX_POINT('',#911);
#442=VERTEX_POINT('',#913);
#443=VERTEX_POINT('',#920);
#444=VERTEX_POINT('',#921);
#445=VERTEX_POINT('',#923);
#446=VERTEX_POINT('',#926);
#447=VERTEX_POINT('',#930);
#448=VERTEX_POINT('',#931);
#449=VERTEX_POINT('',#936);
#450=VERTEX_POINT('',#937);
#451=VERTEX_POINT('',#942);
#452=VERTEX_POINT('',#943);
#453=VERTEX_POINT('',#948);
#454=VERTEX_POINT('',#950);
#455=VERTEX_POINT('',#962);
#456=VERTEX_POINT('',#964);
#457=VERTEX_POINT('',#966);
#458=VERTEX_POINT('',#968);
#459=VERTEX_POINT('',#970);
#460=VERTEX_POINT('',#972);
#461=VERTEX_POINT('',#994);
#462=VERTEX_POINT('',#995);
#463=VERTEX_POINT('',#997);
#464=VERTEX_POINT('',#999);
#465=VERTEX_POINT('',#1009);
#466=VERTEX_POINT('',#1010);
#467=VERTEX_POINT('',#1012);
#468=VERTEX_POINT('',#1014);
#469=VERTEX_POINT('',#1042);
#470=VERTEX_POINT('',#1052);
#471=VERTEX_POINT('',#1063);
#472=VERTEX_POINT('',#1066);
#473=B_SPLINE_CURVE_WITH_KNOTS('',3,(#856,#857,#858,#859,#860,#861,#862,
#863,#864,#865),.UNSPECIFIED.,.F.,.F.,(4,1,1,1,1,1,1,4),(2.30789947841017E-17,
0.00233382343201438,0.00350073514802155,0.00466764686402873,0.0058345585800359,
0.00700147029604308,0.00816838201205026,0.00933529372805744),
 .UNSPECIFIED.);
#474=B_SPLINE_CURVE_WITH_KNOTS('',3,(#944,#945,#946,#947),.UNSPECIFIED.,
 .F.,.F.,(4,4),(0.00199991048107021,0.0194997141352094),.UNSPECIFIED.);
#475=B_SPLINE_CURVE_WITH_KNOTS('',3,(#951,#952,#953,#954),.UNSPECIFIED.,
 .F.,.F.,(4,4),(0.,0.0174998036541392),.UNSPECIFIED.);
#476=B_SPLINE_CURVE_WITH_KNOTS('',3,(#956,#957,#958,#959,#960,#961),
 .UNSPECIFIED.,.F.,.F.,(4,1,1,4),(0.,0.00101598256761631,0.00152397385142447,
0.00203196513523262),.UNSPECIFIED.);
#477=B_SPLINE_CURVE_WITH_KNOTS('',3,(#973,#974,#975,#976,#977,#978),
 .UNSPECIFIED.,.F.,.F.,(4,1,1,4),(0.,0.000510146974755677,0.00102029394951135,
0.00204058789902271),.UNSPECIFIED.);
#478=B_SPLINE_CURVE_WITH_KNOTS('',3,(#988,#989,#990,#991),.UNSPECIFIED.,
 .F.,.F.,(4,4),(0.,0.00193848011885858),.UNSPECIFIED.);
#479=B_SPLINE_CURVE_WITH_KNOTS('',3,(#1003,#1004,#1005,#1006),
 .UNSPECIFIED.,.F.,.F.,(4,4),(0.,0.00193848011885858),.UNSPECIFIED.);
#480=B_SPLINE_CURVE_WITH_KNOTS('',3,(#1045,#1046,#1047,#1048,#1049),
 .UNSPECIFIED.,.F.,.F.,(4,1,4),(0.,0.000757020136109904,0.00151404027221981),
 .UNSPECIFIED.);
#481=B_SPLINE_CURVE_WITH_KNOTS('',3,(#1053,#1054,#1055,#1056,#1057),
 .UNSPECIFIED.,.F.,.F.,(4,1,4),(0.00157491556087631,0.00232803279337913,
0.00308115002588194),.UNSPECIFIED.);
#482=EDGE_LOOP('',(#165,#166,#167,#168,#169,#170));
#483=EDGE_LOOP('',(#171,#172,#173,#174,#175,#176,#177));
#484=EDGE_LOOP('',(#178,#179,#180,#181,#182,#183,#184));
#485=EDGE_LOOP('',(#185));
#486=EDGE_LOOP('',(#186,#187,#188,#189,#190,#191));
#487=EDGE_LOOP('',(#192,#193,#194,#195));
#488=EDGE_LOOP('',(#196,#197,#198,#199,#200,#201));
#489=EDGE_LOOP('',(#202,#203,#204,#205));
#490=EDGE_LOOP('',(#206,#207,#208,#209));
#491=EDGE_LOOP('',(#210,#211,#212,#213));
#492=EDGE_LOOP('',(#214,#215,#216,#217,#218,#219,#220,#221));
#493=EDGE_LOOP('',(#222,#223,#224,#225,#226,#227));
#494=EDGE_LOOP('',(#228,#229,#230,#231));
#495=EDGE_LOOP('',(#232,#233,#234,#235,#236));
#496=EDGE_LOOP('',(#237,#238,#239,#240));
#497=EDGE_LOOP('',(#241,#242,#243,#244,#245));
#498=EDGE_LOOP('',(#246,#247,#248,#249));
#499=EDGE_LOOP('',(#250,#251,#252,#253));
#500=EDGE_LOOP('',(#254,#255,#256,#257));
#501=EDGE_LOOP('',(#258,#259,#260,#261));
#502=EDGE_LOOP('',(#262,#263,#264,#265));
#503=EDGE_LOOP('',(#266,#267,#268,#269));
#504=EDGE_LOOP('',(#270,#271,#272,#273));
#505=EDGE_LOOP('',(#274,#275,#276,#277));
#506=EDGE_LOOP('',(#278,#279,#280,#281));
#507=EDGE_LOOP('',(#282,#283,#284,#285));
#508=EDGE_LOOP('',(#286,#287,#288,#289));
#509=EDGE_LOOP('',(#290,#291,#292,#293));
#510=EDGE_LOOP('',(#294,#295,#296,#297));
#511=EDGE_LOOP('',(#298,#299,#300,#301,#302));
#512=EDGE_LOOP('',(#303,#304,#305,#306,#307,#308,#309));
#513=EDGE_LOOP('',(#310,#311,#312,#313,#314,#315,#316));
#514=EDGE_LOOP('',(#317,#318,#319,#320,#321));
#515=EDGE_LOOP('',(#322,#323,#324,#325,#326,#327));
#516=EDGE_LOOP('',(#328));
#517=EDGE_LOOP('',(#329,#330));
#518=EDGE_LOOP('',(#331));
#519=EDGE_LOOP('',(#332));
#520=EDGE_LOOP('',(#333));
#521=EDGE_LOOP('',(#334));
#522=FACE_BOUND('',#482,.T.);
#523=FACE_BOUND('',#483,.T.);
#524=FACE_BOUND('',#484,.T.);
#525=FACE_BOUND('',#485,.T.);
#526=FACE_BOUND('',#486,.T.);
#527=FACE_BOUND('',#487,.T.);
#528=FACE_BOUND('',#488,.T.);
#529=FACE_BOUND('',#489,.T.);
#530=FACE_BOUND('',#490,.T.);
#531=FACE_BOUND('',#491,.T.);
#532=FACE_BOUND('',#492,.T.);
#533=FACE_BOUND('',#493,.T.);
#534=FACE_BOUND('',#494,.T.);
#535=FACE_BOUND('',#495,.T.);
#536=FACE_BOUND('',#496,.T.);
#537=FACE_BOUND('',#497,.T.);
#538=FACE_BOUND('',#498,.T.);
#539=FACE_BOUND('',#499,.T.);
#540=FACE_BOUND('',#500,.T.);
#541=FACE_BOUND('',#501,.T.);
#542=FACE_BOUND('',#502,.T.);
#543=FACE_BOUND('',#503,.T.);
#544=FACE_BOUND('',#504,.T.);
#545=FACE_BOUND('',#505,.T.);
#546=FACE_BOUND('',#506,.T.);
#547=FACE_BOUND('',#507,.T.);
#548=FACE_BOUND('',#508,.T.);
#549=FACE_BOUND('',#509,.T.);
#550=FACE_BOUND('',#510,.T.);
#551=FACE_BOUND('',#511,.T.);
#552=FACE_BOUND('',#512,.T.);
#553=FACE_BOUND('',#513,.T.);
#554=FACE_BOUND('',#514,.T.);
#555=FACE_BOUND('',#515,.T.);
#556=FACE_BOUND('',#516,.T.);
#557=FACE_BOUND('',#517,.T.);
#558=FACE_BOUND('',#518,.T.);
#559=FACE_BOUND('',#519,.T.);
#560=FACE_BOUND('',#520,.T.);
#561=FACE_BOUND('',#521,.T.);
#562=CYLINDRICAL_SURFACE('',#624,0.005);
#563=CYLINDRICAL_SURFACE('',#640,0.005);
#564=CYLINDRICAL_SURFACE('',#658,0.002);
#565=CYLINDRICAL_SURFACE('',#661,0.002);
#566=CYLINDRICAL_SURFACE('',#663,0.002);
#567=CYLINDRICAL_SURFACE('',#666,0.002);
#568=CYLINDRICAL_SURFACE('',#668,0.002);
#569=CYLINDRICAL_SURFACE('',#671,0.002);
#570=CYLINDRICAL_SURFACE('',#672,0.002);
#571=CYLINDRICAL_SURFACE('',#674,0.002);
#572=CYLINDRICAL_SURFACE('',#676,0.002);
#573=CYLINDRICAL_SURFACE('',#677,0.0046);
#574=CYLINDRICAL_SURFACE('',#681,0.00265);
#575=ADVANCED_FACE('',(#522),#562,.T.);
#576=ADVANCED_FACE('',(#523),#27,.T.);
#577=ADVANCED_FACE('',(#524),#28,.F.);
#578=ADVANCED_FACE('',(#525,#526),#29,.F.);
#579=ADVANCED_FACE('',(#527),#30,.T.);
#580=ADVANCED_FACE('',(#528),#31,.F.);
#581=ADVANCED_FACE('',(#529),#32,.F.);
#582=ADVANCED_FACE('',(#530),#33,.F.);
#583=ADVANCED_FACE('',(#531),#34,.F.);
#584=ADVANCED_FACE('',(#532),#563,.F.);
#585=ADVANCED_FACE('',(#533),#35,.F.);
#586=ADVANCED_FACE('',(#534),#36,.F.);
#587=ADVANCED_FACE('',(#535),#37,.F.);
#588=ADVANCED_FACE('',(#536),#38,.F.);
#589=ADVANCED_FACE('',(#537),#39,.T.);
#590=ADVANCED_FACE('',(#538),#40,.T.);
#591=ADVANCED_FACE('',(#539),#12,.F.);
#592=ADVANCED_FACE('',(#540),#41,.T.);
#593=ADVANCED_FACE('',(#541),#13,.T.);
#594=ADVANCED_FACE('',(#542),#42,.T.);
#595=ADVANCED_FACE('',(#543),#14,.F.);
#596=ADVANCED_FACE('',(#544),#43,.F.);
#597=ADVANCED_FACE('',(#545),#15,.T.);
#598=ADVANCED_FACE('',(#546),#44,.F.);
#599=ADVANCED_FACE('',(#547),#564,.T.);
#600=ADVANCED_FACE('',(#548),#565,.T.);
#601=ADVANCED_FACE('',(#549),#566,.T.);
#602=ADVANCED_FACE('',(#550),#567,.T.);
#603=ADVANCED_FACE('',(#551),#568,.T.);
#604=ADVANCED_FACE('',(#552),#569,.T.);
#605=ADVANCED_FACE('',(#553),#570,.T.);
#606=ADVANCED_FACE('',(#554),#571,.T.);
#607=ADVANCED_FACE('',(#555),#572,.T.);
#608=ADVANCED_FACE('',(#556,#557),#573,.F.);
#609=ADVANCED_FACE('',(#558,#559),#45,.F.);
#610=ADVANCED_FACE('',(#560,#561),#574,.F.);
#611=CLOSED_SHELL('',(#575,#576,#577,#578,#579,#580,#581,#582,#583,#584,
#585,#586,#587,#588,#589,#590,#591,#592,#593,#594,#595,#596,#597,#598,#599,
#600,#601,#602,#603,#604,#605,#606,#607,#608,#609,#610));
#612=STYLED_ITEM('',(#613),#620);
#613=PRESENTATION_STYLE_ASSIGNMENT((#614));
#614=SURFACE_STYLE_USAGE(.BOTH.,#615);
#615=SURFACE_SIDE_STYLE('',(#616));
#616=SURFACE_STYLE_FILL_AREA(#617);
#617=FILL_AREA_STYLE('',(#618));
#618=FILL_AREA_STYLE_COLOUR('',#619);
#619=COLOUR_RGB('',0.972549019607843,0.529411764705882,0.00392156862745098);
#620=MANIFOLD_SOLID_BREP('2f-85_finger_tips',#611);
#621=SHAPE_DEFINITION_REPRESENTATION(#1074,#622);
#622=SHAPE_REPRESENTATION('2f-85_finger_tips',(#623),#1069);
#623=AXIS2_PLACEMENT_3D('',#854,#682,#683);
#624=AXIS2_PLACEMENT_3D('',#855,#684,#685);
#625=AXIS2_PLACEMENT_3D('',#870,#687,#688);
#626=AXIS2_PLACEMENT_3D('',#874,#690,#691);
#627=AXIS2_PLACEMENT_3D('',#877,#693,#694);
#628=AXIS2_PLACEMENT_3D('',#878,#695,#696);
#629=AXIS2_PLACEMENT_3D('',#889,#701,#702);
#630=AXIS2_PLACEMENT_3D('',#892,#704,#705);
#631=AXIS2_PLACEMENT_3D('',#898,#708,#709);
#632=AXIS2_PLACEMENT_3D('',#902,#711,#712);
#633=AXIS2_PLACEMENT_3D('',#907,#715,#716);
#634=AXIS2_PLACEMENT_3D('',#908,#717,#718);
#635=AXIS2_PLACEMENT_3D('',#916,#723,#724);
#636=AXIS2_PLACEMENT_3D('',#918,#726,#727);
#637=AXIS2_PLACEMENT_3D('',#928,#733,#734);
#638=AXIS2_PLACEMENT_3D('',#934,#738,#739);
#639=AXIS2_PLACEMENT_3D('',#940,#743,#744);
#640=AXIS2_PLACEMENT_3D('',#955,#747,#748);
#641=AXIS2_PLACEMENT_3D('',#965,#750,#751);
#642=AXIS2_PLACEMENT_3D('',#969,#753,#754);
#643=AXIS2_PLACEMENT_3D('',#979,#756,#757);
#644=AXIS2_PLACEMENT_3D('',#980,#758,#759);
#645=AXIS2_PLACEMENT_3D('',#983,#762,#763);
#646=AXIS2_PLACEMENT_3D('',#986,#766,#767);
#647=AXIS2_PLACEMENT_3D('',#992,#769,#770);
#648=AXIS2_PLACEMENT_3D('',#1001,#775,#776);
#649=AXIS2_PLACEMENT_3D('',#1007,#778,#779);
#650=AXIS2_PLACEMENT_3D('',#1016,#784,#785);
#651=AXIS2_PLACEMENT_3D('',#1018,#787,#788);
#652=AXIS2_PLACEMENT_3D('',#1020,#790,#791);
#653=AXIS2_PLACEMENT_3D('',#1022,#793,#794);
#654=AXIS2_PLACEMENT_3D('',#1023,#795,#796);
#655=AXIS2_PLACEMENT_3D('',#1025,#798,#799);
#656=AXIS2_PLACEMENT_3D('',#1027,#801,#802);
#657=AXIS2_PLACEMENT_3D('',#1029,#804,#805);
#658=AXIS2_PLACEMENT_3D('',#1030,#806,#807);
#659=AXIS2_PLACEMENT_3D('',#1031,#808,#809);
#660=AXIS2_PLACEMENT_3D('',#1032,#810,#811);
#661=AXIS2_PLACEMENT_3D('',#1033,#812,#813);
#662=AXIS2_PLACEMENT_3D('',#1034,#814,#815);
#663=AXIS2_PLACEMENT_3D('',#1035,#816,#817);
#664=AXIS2_PLACEMENT_3D('',#1036,#818,#819);
#665=AXIS2_PLACEMENT_3D('',#1037,#820,#821);
#666=AXIS2_PLACEMENT_3D('',#1038,#822,#823);
#667=AXIS2_PLACEMENT_3D('',#1039,#824,#825);
#668=AXIS2_PLACEMENT_3D('',#1040,#826,#827);
#669=AXIS2_PLACEMENT_3D('',#1041,#828,#829);
#670=AXIS2_PLACEMENT_3D('',#1043,#830,#831);
#671=AXIS2_PLACEMENT_3D('',#1044,#832,#833);
#672=AXIS2_PLACEMENT_3D('',#1050,#834,#835);
#673=AXIS2_PLACEMENT_3D('',#1051,#836,#837);
#674=AXIS2_PLACEMENT_3D('',#1058,#838,#839);
#675=AXIS2_PLACEMENT_3D('',#1059,#840,#841);
#676=AXIS2_PLACEMENT_3D('',#1060,#842,#843);
#677=AXIS2_PLACEMENT_3D('',#1061,#844,#845);
#678=AXIS2_PLACEMENT_3D('',#1062,#846,#847);
#679=AXIS2_PLACEMENT_3D('',#1064,#848,#849);
#680=AXIS2_PLACEMENT_3D('',#1065,#850,#851);
#681=AXIS2_PLACEMENT_3D('',#1067,#852,#853);
#682=DIRECTION('',(0.,0.,1.));
#683=DIRECTION('',(1.,0.,0.));
#684=DIRECTION('',(0.,0.,-1.));
#685=DIRECTION('',(-1.,0.,0.));
#686=DIRECTION('',(0.,0.,-1.));
#687=DIRECTION('',(0.,0.,1.));
#688=DIRECTION('',(1.,0.,0.));
#689=DIRECTION('',(0.,0.,-1.));
#690=DIRECTION('',(0.,0.,1.));
#691=DIRECTION('',(1.,0.,0.));
#692=DIRECTION('',(0.,0.,-1.));
#693=DIRECTION('',(0.,0.,1.));
#694=DIRECTION('',(1.,0.,0.));
#695=DIRECTION('',(0.,0.,1.));
#696=DIRECTION('',(1.,0.,0.));
#697=DIRECTION('',(0.,-1.,0.));
#698=DIRECTION('',(1.,0.,0.));
#699=DIRECTION('',(-0.999999239183768,0.00123354443970416,0.));
#700=DIRECTION('',(0.,1.,0.));
#701=DIRECTION('',(0.,0.,1.));
#702=DIRECTION('',(1.,0.,0.));
#703=DIRECTION('',(-0.873132347296694,-0.487483234690348,0.));
#704=DIRECTION('',(0.,0.,1.));
#705=DIRECTION('',(1.,0.,0.));
#706=DIRECTION('',(1.,0.,0.));
#707=DIRECTION('',(0.,1.,0.));
#708=DIRECTION('',(0.,0.,1.));
#709=DIRECTION('',(1.,0.,0.));
#710=DIRECTION('',(0.873132347296694,0.487483234690348,0.));
#711=DIRECTION('',(0.,0.,1.));
#712=DIRECTION('',(1.,0.,0.));
#713=DIRECTION('',(0.,1.,0.));
#714=DIRECTION('',(-0.999999239183768,0.00123354443970416,0.));
#715=DIRECTION('',(0.,1.,0.));
#716=DIRECTION('',(0.,0.,1.));
#717=DIRECTION('',(0.,-1.,0.));
#718=DIRECTION('',(0.,0.,-1.));
#719=DIRECTION('',(-0.707106781186549,0.,-0.707106781186546));
#720=DIRECTION('',(0.,0.,-1.));
#721=DIRECTION('',(-0.707106781186548,0.,0.707106781186548));
#722=DIRECTION('',(0.,0.,-1.));
#723=DIRECTION('',(-0.00123354443970416,-0.999999239183768,0.));
#724=DIRECTION('',(0.999999239183768,-0.00123354443970416,0.));
#725=DIRECTION('',(0.,0.,-1.));
#726=DIRECTION('',(0.,1.,0.));
#727=DIRECTION('',(0.,0.,1.));
#728=DIRECTION('',(0.,0.,-1.));
#729=DIRECTION('',(1.,0.,0.));
#730=DIRECTION('',(0.,0.,-1.));
#731=DIRECTION('',(0.,0.,1.));
#732=DIRECTION('',(1.,0.,0.));
#733=DIRECTION('',(-1.,-1.82602470972504E-16,0.));
#734=DIRECTION('',(1.82602470972504E-16,-1.,0.));
#735=DIRECTION('',(0.,0.,-1.));
#736=DIRECTION('',(-1.82602470972504E-16,1.,0.));
#737=DIRECTION('',(-1.82602470972504E-16,1.,0.));
#738=DIRECTION('',(0.,-1.,0.));
#739=DIRECTION('',(0.,0.,-1.));
#740=DIRECTION('',(0.,0.,-1.));
#741=DIRECTION('',(-1.,0.,0.));
#742=DIRECTION('',(-1.,0.,0.));
#743=DIRECTION('',(0.999999998998105,-4.47637131836112E-5,0.));
#744=DIRECTION('',(4.47637131836112E-5,0.999999998998105,0.));
#745=DIRECTION('',(0.,0.,-1.));
#746=DIRECTION('',(0.,0.,-1.));
#747=DIRECTION('',(0.,0.,-1.));
#748=DIRECTION('',(-1.,0.,0.));
#749=DIRECTION('',(0.,0.,1.));
#750=DIRECTION('',(0.,0.,1.));
#751=DIRECTION('',(1.,0.,0.));
#752=DIRECTION('',(0.,0.,-1.));
#753=DIRECTION('',(0.,0.,1.));
#754=DIRECTION('',(1.,0.,0.));
#755=DIRECTION('',(0.,0.,-1.));
#756=DIRECTION('',(0.487483234690348,-0.873132347296694,0.));
#757=DIRECTION('',(0.873132347296694,0.487483234690348,0.));
#758=DIRECTION('',(0.487483234690348,-0.873132347296694,0.));
#759=DIRECTION('',(0.873132347296694,0.487483234690348,0.));
#760=DIRECTION('',(0.873132347296694,0.487483234690348,0.));
#761=DIRECTION('',(-0.873132347296694,-0.487483234690348,0.));
#762=DIRECTION('',(1.,0.,0.));
#763=DIRECTION('',(0.,0.,-1.));
#764=DIRECTION('',(0.,1.,0.));
#765=DIRECTION('',(0.,-1.,0.));
#766=DIRECTION('',(1.,0.,0.));
#767=DIRECTION('',(0.,0.,-1.));
#768=DIRECTION('',(0.,1.,0.));
#769=DIRECTION('',(0.,0.,1.));
#770=DIRECTION('',(1.,0.,0.));
#771=DIRECTION('',(1.,0.,0.));
#772=DIRECTION('',(0.,1.,0.));
#773=DIRECTION('',(-1.,0.,0.));
#774=DIRECTION('',(-1.82602470972504E-16,1.,0.));
#775=DIRECTION('',(-1.,0.,0.));
#776=DIRECTION('',(0.,0.,1.));
#777=DIRECTION('',(0.,1.,0.));
#778=DIRECTION('',(0.,0.,1.));
#779=DIRECTION('',(1.,0.,0.));
#780=DIRECTION('',(1.,0.,0.));
#781=DIRECTION('',(-1.82602470972504E-16,1.,0.));
#782=DIRECTION('',(-1.,0.,0.));
#783=DIRECTION('',(0.,1.,0.));
#784=DIRECTION('',(0.,0.,1.));
#785=DIRECTION('',(1.,0.,0.));
#786=DIRECTION('',(-0.344702700964298,0.617397803646823,-0.707106781186545));
#787=DIRECTION('',(-0.344702700964297,0.617397803646819,0.70710678118655));
#788=DIRECTION('',(0.873132347296694,0.487483234690348,0.));
#789=DIRECTION('',(-0.344702700964303,0.617397803646822,-0.707106781186543));
#790=DIRECTION('',(0.,0.,-1.));
#791=DIRECTION('',(-1.,0.,0.));
#792=DIRECTION('',(-0.707106781186546,0.,-0.707106781186549));
#793=DIRECTION('',(-0.707106781186546,0.,0.707106781186549));
#794=DIRECTION('',(0.,1.,0.));
#795=DIRECTION('',(0.,0.,-1.));
#796=DIRECTION('',(-1.,0.,0.));
#797=DIRECTION('',(0.344702700964297,-0.617397803646822,-0.707106781186546));
#798=DIRECTION('',(0.344702700964298,-0.61739780364682,0.707106781186548));
#799=DIRECTION('',(-0.873132347296694,-0.487483234690348,0.));
#800=DIRECTION('',(0.344702700964305,-0.617397803646813,-0.70710678118655));
#801=DIRECTION('',(0.,0.,1.));
#802=DIRECTION('',(1.,0.,0.));
#803=DIRECTION('',(0.707106781186545,0.,-0.707106781186551));
#804=DIRECTION('',(0.707106781186548,0.,0.707106781186548));
#805=DIRECTION('',(0.,-1.,0.));
#806=DIRECTION('',(1.82602470972504E-16,-1.,0.));
#807=DIRECTION('',(1.,1.82602470972504E-16,0.));
#808=DIRECTION('',(0.707106781186548,-0.707106781186548,0.));
#809=DIRECTION('',(-0.707106781186548,-0.707106781186548,0.));
#810=DIRECTION('',(-0.707106781186548,-0.707106781186548,0.));
#811=DIRECTION('',(0.707106781186548,-0.707106781186548,0.));
#812=DIRECTION('',(-1.,0.,0.));
#813=DIRECTION('',(0.,0.,1.));
#814=DIRECTION('',(-0.707106781186548,0.707106781186548,0.));
#815=DIRECTION('',(0.707106781186548,0.707106781186548,0.));
#816=DIRECTION('',(1.,0.,0.));
#817=DIRECTION('',(0.,0.,-1.));
#818=DIRECTION('',(-0.707106781186548,0.707106781186548,0.));
#819=DIRECTION('',(0.707106781186548,0.707106781186548,0.));
#820=DIRECTION('',(0.707106781186548,0.707106781186548,0.));
#821=DIRECTION('',(-0.707106781186548,0.707106781186548,0.));
#822=DIRECTION('',(-1.82602470972504E-16,1.,0.));
#823=DIRECTION('',(-1.,-1.82602470972504E-16,0.));
#824=DIRECTION('',(-0.707106781186548,0.707106781186548,0.));
#825=DIRECTION('',(0.707106781186548,0.707106781186548,0.));
#826=DIRECTION('',(1.,0.,0.));
#827=DIRECTION('',(0.,0.,-1.));
#828=DIRECTION('',(0.707106781186548,0.707106781186548,0.));
#829=DIRECTION('',(0.707106781186548,-0.707106781186548,0.));
#830=DIRECTION('',(0.707106781186548,0.,0.707106781186548));
#831=DIRECTION('',(0.707106781186548,0.,-0.707106781186548));
#832=DIRECTION('',(0.,1.,0.));
#833=DIRECTION('',(0.,0.,1.));
#834=DIRECTION('',(0.,1.,0.));
#835=DIRECTION('',(0.,0.,1.));
#836=DIRECTION('',(-0.707106781186548,-0.707106781186548,0.));
#837=DIRECTION('',(-0.707106781186548,0.707106781186548,0.));
#838=DIRECTION('',(-1.,0.,0.));
#839=DIRECTION('',(0.,0.,1.));
#840=DIRECTION('',(-0.707106781186548,0.,0.707106781186548));
#841=DIRECTION('',(-0.707106781186548,0.,-0.707106781186548));
#842=DIRECTION('',(0.,0.,-1.));
#843=DIRECTION('',(-1.,0.,0.));
#844=DIRECTION('',(0.,1.,0.));
#845=DIRECTION('',(0.,0.,1.));
#846=DIRECTION('',(0.,-1.,0.));
#847=DIRECTION('',(0.,0.,-1.));
#848=DIRECTION('',(0.,-1.,0.));
#849=DIRECTION('',(1.,0.,0.));
#850=DIRECTION('',(0.,-1.,0.));
#851=DIRECTION('',(0.,0.,-1.));
#852=DIRECTION('',(0.,-1.,0.));
#853=DIRECTION('',(0.,0.,-1.));
#854=CARTESIAN_POINT('',(0.,0.,0.));
#855=CARTESIAN_POINT('',(-0.0577073800152367,0.115920628647338,0.0242999999999797));
#856=CARTESIAN_POINT('',(-0.0601447961886885,0.120286290383821,0.0125031699128206));
#857=CARTESIAN_POINT('',(-0.0607242633052449,0.119962764969547,0.0129322517530584));
#858=CARTESIAN_POINT('',(-0.0613851512366466,0.119368376094649,0.0137213017325364));
#859=CARTESIAN_POINT('',(-0.0619024010694905,0.118656807682583,0.0150281869478586));
#860=CARTESIAN_POINT('',(-0.0620596123531263,0.118380178306585,0.0162007735644225));
#861=CARTESIAN_POINT('',(-0.0619034294812945,0.118655072177652,0.0173660593224454));
#862=CARTESIAN_POINT('',(-0.0615161249159735,0.11918878533059,0.0183508242902104));
#863=CARTESIAN_POINT('',(-0.0609446838598883,0.119764173715747,0.0192001652157968));
#864=CARTESIAN_POINT('',(-0.06043401399108,0.120124815631138,0.0196826710721852));
#865=CARTESIAN_POINT('',(-0.0601447961886885,0.120286290383821,0.0198968300871388));
#866=CARTESIAN_POINT('',(-0.0601447961886887,0.120286290383822,0.0125031699128208));
#867=CARTESIAN_POINT('',(-0.0601447961886885,0.120286290383821,0.0198968300871388));
#868=CARTESIAN_POINT('',(-0.0601447961886887,0.120286290383822,0.0242999999999797));
#869=CARTESIAN_POINT('',(-0.0601447961886887,0.120286290383822,0.00889999999997969));
#870=CARTESIAN_POINT('',(-0.0577073800152367,0.115920628647338,0.00889999999997969));
#871=CARTESIAN_POINT('',(-0.0627073800152367,0.115920628647338,0.00889999999997969));
#872=CARTESIAN_POINT('',(-0.0627073800152367,0.115920628647338,0.0242999999999797));
#873=CARTESIAN_POINT('',(-0.0627073800152367,0.115920628647338,0.0234999999999797));
#874=CARTESIAN_POINT('',(-0.0577073800152367,0.115920628647338,0.0234999999999797));
#875=CARTESIAN_POINT('',(-0.0601447961886887,0.120286290383822,0.0234999999999797));
#876=CARTESIAN_POINT('',(-0.0601447961886887,0.120286290383822,0.0242999999999797));
#877=CARTESIAN_POINT('',(-0.0531279026119896,0.12941889904658,0.0242999999999797));
#878=CARTESIAN_POINT('',(-0.0577073800152367,0.115920628647338,0.0242999999999797));
#879=CARTESIAN_POINT('',(-0.0597548096009365,0.119587784505985,0.0242999999999797));
#880=CARTESIAN_POINT('',(-0.0619073800152367,0.115920628647338,0.0242999999999797));
#881=CARTESIAN_POINT('',(-0.0619073800152367,0.110419994834435,0.0242999999999797));
#882=CARTESIAN_POINT('',(-0.0619073800152367,0.110419994834435,0.0242999999999797));
#883=CARTESIAN_POINT('',(-0.0564475031699666,0.110419994834435,0.0242999999999797));
#884=CARTESIAN_POINT('',(-0.0504376262105487,0.110420149027544,0.0242999999999797));
#885=CARTESIAN_POINT('',(-0.0503126262738199,0.110420149027544,0.0242999999999797));
#886=CARTESIAN_POINT('',(-0.0501876263246968,0.110419994834435,0.0242999999999797));
#887=CARTESIAN_POINT('',(-0.0501876263246968,0.118888366186141,0.0242999999999797));
#888=CARTESIAN_POINT('',(-0.0501876263246968,0.125591035079558,0.0242999999999797));
#889=CARTESIAN_POINT('',(-0.0549367980897406,0.128920504638829,0.0242999999999797));
#890=CARTESIAN_POINT('',(-0.0521093953285366,0.123856337024508,0.0242999999999797));
#891=CARTESIAN_POINT('',(-0.0597548096009365,0.119587784505985,0.0242999999999797));
#892=CARTESIAN_POINT('',(-0.0531279026119896,0.12941889904658,0.00809999999997969));
#893=CARTESIAN_POINT('',(-0.0564475031699666,0.110419994834435,0.00809999999997969));
#894=CARTESIAN_POINT('',(-0.0619073800152367,0.110419994834435,0.00809999999997969));
#895=CARTESIAN_POINT('',(-0.0504376262105487,0.110420149027544,0.00809999999997971));
#896=CARTESIAN_POINT('',(-0.0619073800152367,0.12941889904658,0.00809999999997969));
#897=CARTESIAN_POINT('',(-0.0619073800152367,0.115920628647338,0.00809999999997969));
#898=CARTESIAN_POINT('',(-0.0577073800152367,0.115920628647338,0.00809999999997969));
#899=CARTESIAN_POINT('',(-0.0597548096009365,0.119587784505985,0.00809999999997969));
#900=CARTESIAN_POINT('',(-0.0505182303082457,0.124744708957376,0.00809999999997969));
#901=CARTESIAN_POINT('',(-0.0521093953285366,0.123856337024508,0.00809999999997969));
#902=CARTESIAN_POINT('',(-0.0549367980897406,0.128920504638829,0.00809999999997969));
#903=CARTESIAN_POINT('',(-0.0501876263246968,0.125591035079558,0.00809999999997969));
#904=CARTESIAN_POINT('',(-0.0501876263246968,0.118888366186141,0.00809999999997969));
#905=CARTESIAN_POINT('',(-0.0501876263246968,0.110419994834435,0.00809999999997969));
#906=CARTESIAN_POINT('',(-0.0503126262738199,0.110420149027544,0.00809999999997969));
#907=CARTESIAN_POINT('',(-0.0564475031699666,0.110419994834435,0.0242999999999797));
#908=CARTESIAN_POINT('',(-0.0574073800152367,0.110419994834435,0.0161999999999797));
#909=CARTESIAN_POINT('',(-0.0574073800152367,0.110419994834435,0.0135499999999797));
#910=CARTESIAN_POINT('',(-0.0619073800152367,0.110419994834435,0.0242999999999797));
#911=CARTESIAN_POINT('',(-0.0627073800152367,0.110419994834435,0.0234999999999797));
#912=CARTESIAN_POINT('',(-0.0627073800152367,0.110419994834435,0.0242999999999797));
#913=CARTESIAN_POINT('',(-0.0627073800152367,0.110419994834435,0.00889999999997969));
#914=CARTESIAN_POINT('',(-0.0627073800152367,0.110419994834435,0.00889999999997969));
#915=CARTESIAN_POINT('',(-0.0504376262105487,0.110420149027544,0.0242999999999797));
#916=CARTESIAN_POINT('',(-0.0503126262738199,0.110420149027544,0.0242999999999797));
#917=CARTESIAN_POINT('',(-0.0501876263246968,0.110419994834435,0.0242999999999797));
#918=CARTESIAN_POINT('',(-0.0500626262804716,0.110419994834435,0.0242999999999797));
#919=CARTESIAN_POINT('',(-0.0435484252087426,0.110419994834435,0.0242999999999797));
#920=CARTESIAN_POINT('',(-0.0435484252087426,0.110419994834435,0.0251999999999797));
#921=CARTESIAN_POINT('',(-0.0435484252087426,0.110419994834435,0.00719999999997969));
#922=CARTESIAN_POINT('',(-0.0501876263246968,0.110419994834435,0.0251999999999797));
#923=CARTESIAN_POINT('',(-0.0501876263246968,0.110419994834435,0.0251999999999797));
#924=CARTESIAN_POINT('',(-0.0501876263246968,0.110419994834435,0.0271999999999797));
#925=CARTESIAN_POINT('',(-0.0501876263246968,0.110419994834435,0.00519999999997969));
#926=CARTESIAN_POINT('',(-0.0501876263246968,0.110419994834435,0.00719999999997969));
#927=CARTESIAN_POINT('',(-0.0500626262804716,0.110419994834435,0.00719999999997969));
#928=CARTESIAN_POINT('',(-0.0435484252087426,0.129419994853471,0.0242999999999797));
#929=CARTESIAN_POINT('',(-0.0435484252087426,0.148419994872507,0.0242999999999797));
#930=CARTESIAN_POINT('',(-0.0435484252087426,0.148419994872507,0.0251999999999797));
#931=CARTESIAN_POINT('',(-0.0435484252087426,0.148419994872507,0.00719999999997969));
#932=CARTESIAN_POINT('',(-0.0435484252087426,0.110419994834435,0.0251999999999797));
#933=CARTESIAN_POINT('',(-0.0435484252087426,0.129419994853471,0.00719999999997969));
#934=CARTESIAN_POINT('',(-0.0467421752119424,0.148419994872507,0.0242999999999797));
#935=CARTESIAN_POINT('',(-0.0479360147405648,0.148419994872507,0.0242999999999797));
#936=CARTESIAN_POINT('',(-0.0479360147405648,0.148419994872507,0.00719999999997969));
#937=CARTESIAN_POINT('',(-0.0479360147405648,0.148419994872507,0.0251999999999797));
#938=CARTESIAN_POINT('',(-0.0435484252087426,0.148419994872507,0.0251999999999797));
#939=CARTESIAN_POINT('',(-0.0467421752119424,0.148419994872507,0.00719999999997969));
#940=CARTESIAN_POINT('',(-0.0499363616549461,0.138670137846385,0.0242999999999797));
#941=CARTESIAN_POINT('',(-0.0499360147385611,0.146420084399933,0.0242999999999797));
#942=CARTESIAN_POINT('',(-0.0499360147385611,0.146420084399933,0.0261711528995097));
#943=CARTESIAN_POINT('',(-0.0499360147385611,0.146420084399933,0.00622884710044975));
#944=CARTESIAN_POINT('',(-0.049936014738561,0.146420084399933,0.00622884710044982));
#945=CARTESIAN_POINT('',(-0.0499362758572907,0.140586816540007,0.00622931719837344));
#946=CARTESIAN_POINT('',(-0.0499365369760203,0.134753548680117,0.00622978774294234));
#947=CARTESIAN_POINT('',(-0.04993679809475,0.128920280820263,0.00623025873611091));
#948=CARTESIAN_POINT('',(-0.04993679809475,0.128920280820263,0.00623025873611135));
#949=CARTESIAN_POINT('',(-0.04993679809475,0.128920280820263,0.0242999999999797));
#950=CARTESIAN_POINT('',(-0.04993679809475,0.128920280820263,0.026169741263848));
#951=CARTESIAN_POINT('',(-0.04993679809475,0.128920280820263,0.026169741263848));
#952=CARTESIAN_POINT('',(-0.0499365369760203,0.134753548680117,0.0261702122570166));
#953=CARTESIAN_POINT('',(-0.0499362758572907,0.140586816540007,0.0261706828015859));
#954=CARTESIAN_POINT('',(-0.049936014738561,0.146420084399933,0.0261711528995096));
#955=CARTESIAN_POINT('',(-0.0549367980897406,0.128920504638829,0.0242999999999797));
#956=CARTESIAN_POINT('',(-0.04993679809475,0.128920280820263,0.00623025873611135));
#957=CARTESIAN_POINT('',(-0.0499368134286484,0.128577728843706,0.00623028639464595));
#958=CARTESIAN_POINT('',(-0.0499924655473081,0.128066625823173,0.00631423264531906));
#959=CARTESIAN_POINT('',(-0.050138410992466,0.127500658777511,0.00670012407397216));
#960=CARTESIAN_POINT('',(-0.0501876263246968,0.127356737537847,0.00702676886990298));
#961=CARTESIAN_POINT('',(-0.0501876263246968,0.127356737537847,0.00719999999997968));
#962=CARTESIAN_POINT('',(-0.0501876263246968,0.127356737537847,0.00719999999997969));
#963=CARTESIAN_POINT('',(-0.0501876263246968,0.127356737537847,0.00519999999997969));
#964=CARTESIAN_POINT('',(-0.0501876263246968,0.127356737537847,0.00889999999997969));
#965=CARTESIAN_POINT('',(-0.0549367980897406,0.128920504638829,0.00889999999997969));
#966=CARTESIAN_POINT('',(-0.0524993819162888,0.124554842902345,0.00889999999997969));
#967=CARTESIAN_POINT('',(-0.0524993819162888,0.124554842902345,0.0242999999999797));
#968=CARTESIAN_POINT('',(-0.0524993819162888,0.124554842902345,0.0234999999999797));
#969=CARTESIAN_POINT('',(-0.0549367980897406,0.128920504638829,0.0234999999999797));
#970=CARTESIAN_POINT('',(-0.0501876263246968,0.127356737537847,0.0234999999999797));
#971=CARTESIAN_POINT('',(-0.0501876263246968,0.127356737537847,0.0271999999999797));
#972=CARTESIAN_POINT('',(-0.0501876263246968,0.127356737537847,0.0251999999999797));
#973=CARTESIAN_POINT('',(-0.0501876263246968,0.127356737537847,0.0251999999999797));
#974=CARTESIAN_POINT('',(-0.0501876263246968,0.127356737537847,0.0253732610919184));
#975=CARTESIAN_POINT('',(-0.0501382841523733,0.127501108655873,0.025700382688506));
#976=CARTESIAN_POINT('',(-0.0499925624364244,0.12806624033363,0.0260854132009998));
#977=CARTESIAN_POINT('',(-0.0499368134259158,0.128577789890734,0.0261697136102425));
#978=CARTESIAN_POINT('',(-0.04993679809475,0.128920280820263,0.026169741263848));
#979=CARTESIAN_POINT('',(-0.0563220890524888,0.122420566643083,0.0242999999999797));
#980=CARTESIAN_POINT('',(-0.0574073800152367,0.121814631986398,0.0161999999999797));
#981=CARTESIAN_POINT('',(-0.0524993819162888,0.124554842902345,0.0234999999999797));
#982=CARTESIAN_POINT('',(-0.0563220890524888,0.122420566643083,0.00889999999997969));
#983=CARTESIAN_POINT('',(-0.0627073800152367,0.113170311740886,0.0242999999999797));
#984=CARTESIAN_POINT('',(-0.0627073800152367,0.115920628647338,0.0234999999999797));
#985=CARTESIAN_POINT('',(-0.0627073800152367,0.113170311740886,0.00889999999997969));
#986=CARTESIAN_POINT('',(-0.0501876263246968,0.118888366186141,0.00519999999997969));
#987=CARTESIAN_POINT('',(-0.0501876263246968,0.118888366186141,0.00719999999997969));
#988=CARTESIAN_POINT('',(-0.0501876263246969,0.125591035079558,0.00809999999997969));
#989=CARTESIAN_POINT('',(-0.0501876263246969,0.126154002437645,0.00842316942784434));
#990=CARTESIAN_POINT('',(-0.0501876263246968,0.126735394632509,0.00870567288122056));
#991=CARTESIAN_POINT('',(-0.0501876263246968,0.127356737537847,0.00889999999997969));
#992=CARTESIAN_POINT('',(-0.0531279026119896,0.12941889904658,0.00519999999997969));
#993=CARTESIAN_POINT('',(-0.0531279026119896,0.112419994834435,0.00519999999997969));
#994=CARTESIAN_POINT('',(-0.0455484252087426,0.112419994834435,0.00519999999997969));
#995=CARTESIAN_POINT('',(-0.0481876263246968,0.112419994834435,0.00519999999997969));
#996=CARTESIAN_POINT('',(-0.0481876263246968,0.12941889904658,0.00519999999997969));
#997=CARTESIAN_POINT('',(-0.0481876263246968,0.146419994872507,0.00519999999997969));
#998=CARTESIAN_POINT('',(-0.0531279026119896,0.146419994872507,0.00519999999997969));
#999=CARTESIAN_POINT('',(-0.0455484252087426,0.146419994872507,0.00519999999997969));
#1000=CARTESIAN_POINT('',(-0.0455484252087426,0.12941889904658,0.00519999999997969));
#1001=CARTESIAN_POINT('',(-0.0501876263246968,0.118888366186141,0.0271999999999797));
#1002=CARTESIAN_POINT('',(-0.0501876263246968,0.118888366186141,0.0251999999999797));
#1003=CARTESIAN_POINT('',(-0.0501876263246968,0.127356737537847,0.0234999999999797));
#1004=CARTESIAN_POINT('',(-0.0501876263246968,0.126735394632509,0.0236943271187388));
#1005=CARTESIAN_POINT('',(-0.0501876263246968,0.126154002437645,0.0239768305721151));
#1006=CARTESIAN_POINT('',(-0.0501876263246968,0.125591035079558,0.0242999999999797));
#1007=CARTESIAN_POINT('',(-0.0531279026119896,0.12941889904658,0.0271999999999797));
#1008=CARTESIAN_POINT('',(-0.0435484252087426,0.112419994834435,0.0271999999999797));
#1009=CARTESIAN_POINT('',(-0.0481876263246968,0.112419994834435,0.0271999999999797));
#1010=CARTESIAN_POINT('',(-0.0455484252087426,0.112419994834435,0.0271999999999797));
#1011=CARTESIAN_POINT('',(-0.0455484252087426,0.148419994872507,0.0271999999999797));
#1012=CARTESIAN_POINT('',(-0.0455484252087426,0.146419994872507,0.0271999999999797));
#1013=CARTESIAN_POINT('',(-0.0499359252151422,0.146419994872507,0.0271999999999797));
#1014=CARTESIAN_POINT('',(-0.0481876263246968,0.146419994872507,0.0271999999999797));
#1015=CARTESIAN_POINT('',(-0.0481876263246968,0.12941889904658,0.0271999999999797));
#1016=CARTESIAN_POINT('',(-0.0549367980897406,0.128920504638829,0.0234999999999797));
#1017=CARTESIAN_POINT('',(-0.0521093953285366,0.123856337024508,0.0242999999999797));
#1018=CARTESIAN_POINT('',(-0.0505182303082457,0.124744708957376,0.0242999999999797));
#1019=CARTESIAN_POINT('',(-0.0597548096009365,0.119587784505985,0.0242999999999797));
#1020=CARTESIAN_POINT('',(-0.0577073800152367,0.115920628647338,0.0242999999999797));
#1021=CARTESIAN_POINT('',(-0.0619073800152367,0.115920628647338,0.0242999999999797));
#1022=CARTESIAN_POINT('',(-0.0619073800152367,0.12941889904658,0.0242999999999797));
#1023=CARTESIAN_POINT('',(-0.0549367980897406,0.128920504638829,0.00809999999997969));
#1024=CARTESIAN_POINT('',(-0.0524993819162888,0.124554842902345,0.00889999999997969));
#1025=CARTESIAN_POINT('',(-0.0563220890524888,0.122420566643083,0.00889999999997969));
#1026=CARTESIAN_POINT('',(-0.0601447961886887,0.120286290383822,0.00889999999997969));
#1027=CARTESIAN_POINT('',(-0.0577073800152367,0.115920628647338,0.00889999999997969));
#1028=CARTESIAN_POINT('',(-0.0627073800152367,0.115920628647338,0.00889999999997969));
#1029=CARTESIAN_POINT('',(-0.0627073800152367,0.113170311740886,0.00889999999997969));
#1030=CARTESIAN_POINT('',(-0.0455484252087426,0.12941889904658,0.0251999999999797));
#1031=CARTESIAN_POINT('',(-0.0455484252087426,0.146419994872507,0.0251999999999797));
#1032=CARTESIAN_POINT('',(-0.0455484252087426,0.112419994834435,0.0251999999999797));
#1033=CARTESIAN_POINT('',(-0.0531279026119896,0.112419994834435,0.0251999999999797));
#1034=CARTESIAN_POINT('',(-0.0481876263246968,0.112419994834435,0.0251999999999797));
#1035=CARTESIAN_POINT('',(-0.0500626262804716,0.112419994834435,0.00719999999997969));
#1036=CARTESIAN_POINT('',(-0.0481876263246968,0.112419994834435,0.00719999999997969));
#1037=CARTESIAN_POINT('',(-0.0455484252087426,0.112419994834435,0.00719999999997969));
#1038=CARTESIAN_POINT('',(-0.0455484252087426,0.129419994853471,0.00719999999997969));
#1039=CARTESIAN_POINT('',(-0.0455484252087426,0.146419994872507,0.00719999999997969));
#1040=CARTESIAN_POINT('',(-0.0531279026119896,0.146419994872507,0.0251999999999797));
#1041=CARTESIAN_POINT('',(-0.0481876263246968,0.146419994872507,0.0251999999999797));
#1042=CARTESIAN_POINT('',(-0.0494704272565544,0.147702795804365,0.0267344125159692));
#1043=CARTESIAN_POINT('',(-0.0479360147405648,0.146419994872507,0.0251999999999797));
#1044=CARTESIAN_POINT('',(-0.0481876263246968,0.118888366186141,0.0251999999999797));
#1045=CARTESIAN_POINT('',(-0.0499360147385611,0.146420084399933,0.0261711528995097));
#1046=CARTESIAN_POINT('',(-0.0499360032344082,0.146677081687892,0.0261711736106949));
#1047=CARTESIAN_POINT('',(-0.0498373808546696,0.147154640930026,0.0263573002526176));
#1048=CARTESIAN_POINT('',(-0.0496125233264069,0.147532828678024,0.0266156172318324));
#1049=CARTESIAN_POINT('',(-0.0494704272565544,0.147702795804365,0.0267344125159692));
#1050=CARTESIAN_POINT('',(-0.0481876263246968,0.12941889904658,0.00719999999997969));
#1051=CARTESIAN_POINT('',(-0.0481876263246968,0.146419994872507,0.00719999999997969));
#1052=CARTESIAN_POINT('',(-0.0494704272565544,0.147702795804365,0.00566558748399014));
#1053=CARTESIAN_POINT('',(-0.0494704272565544,0.147702795804365,0.00566558748399015));
#1054=CARTESIAN_POINT('',(-0.0496123677821805,0.14753301473106,0.00578425272990291));
#1055=CARTESIAN_POINT('',(-0.0498370163112035,0.147156075602525,0.00604215590864911));
#1056=CARTESIAN_POINT('',(-0.0499360032669168,0.146676355461001,0.00622882644779045));
#1057=CARTESIAN_POINT('',(-0.0499360147385611,0.146420084399933,0.00622884710044975));
#1058=CARTESIAN_POINT('',(-0.0467421752119424,0.146419994872507,0.00719999999997969));
#1059=CARTESIAN_POINT('',(-0.0479360147405648,0.146419994872507,0.00719999999997969));
#1060=CARTESIAN_POINT('',(-0.0479360147405648,0.146419994872507,0.0242999999999797));
#1061=CARTESIAN_POINT('',(-0.0574073800152367,0.114419994834435,0.0161999999999797));
#1062=CARTESIAN_POINT('',(-0.0574073800152367,0.114419994834435,0.0161999999999797));
#1063=CARTESIAN_POINT('',(-0.0574073800152367,0.114419994834435,0.0115999999999797));
#1064=CARTESIAN_POINT('',(-0.0565718675350157,0.114419994834435,0.0161999999999797));
#1065=CARTESIAN_POINT('',(-0.0574073800152367,0.114419994834435,0.0161999999999797));
#1066=CARTESIAN_POINT('',(-0.0574073800152367,0.114419994834435,0.0135499999999797));
#1067=CARTESIAN_POINT('',(-0.0574073800152367,0.167623460867369,0.0161999999999797));
#1068=MECHANICAL_DESIGN_GEOMETRIC_PRESENTATION_REPRESENTATION('',(#612),
#1069);
#1069=(
GEOMETRIC_REPRESENTATION_CONTEXT(3)
GLOBAL_UNCERTAINTY_ASSIGNED_CONTEXT((#1070))
GLOBAL_UNIT_ASSIGNED_CONTEXT((#1073,#1072,#1071))
REPRESENTATION_CONTEXT('2f-85_finger_tips','TOP_LEVEL_ASSEMBLY_PART')
);
#1070=UNCERTAINTY_MEASURE_WITH_UNIT(LENGTH_MEASURE(2.E-5),#1073,
'DISTANCE_ACCURACY_VALUE','Maximum Tolerance applied to model');
#1071=(
NAMED_UNIT(*)
SI_UNIT($,.STERADIAN.)
SOLID_ANGLE_UNIT()
);
#1072=(
NAMED_UNIT(*)
PLANE_ANGLE_UNIT()
SI_UNIT($,.RADIAN.)
);
#1073=(
LENGTH_UNIT()
NAMED_UNIT(*)
SI_UNIT($,.METRE.)
);
#1074=PRODUCT_DEFINITION_SHAPE('','',#1075);
#1075=PRODUCT_DEFINITION('','',#1077,#1076);
#1076=PRODUCT_DEFINITION_CONTEXT('',#1083,'design');
#1077=PRODUCT_DEFINITION_FORMATION_WITH_SPECIFIED_SOURCE('','',#1079,
 .NOT_KNOWN.);
#1078=PRODUCT_RELATED_PRODUCT_CATEGORY('','',(#1079));
#1079=PRODUCT('2f-85_finger_tips','2f-85_finger_tips',
'2f-85_finger_tips',(#1081));
#1080=PRODUCT_CATEGORY('','');
#1081=PRODUCT_CONTEXT('',#1083,'mechanical');
#1082=APPLICATION_PROTOCOL_DEFINITION('international standard',
'ap242_managed_model_based_3d_engineering',2020,#1083);
#1083=APPLICATION_CONTEXT('managed model based 3d engineering');
ENDSEC;
END-ISO-10303-21;
