ISO-10303-21;
HEADER;
/* Generated by software containing ST-Developer
 * from STEP Tools, Inc. (www.steptools.com) 
 */
/* OPTION: using custom renumber hook */

FILE_DESCRIPTION(
/* description */ ('STEP AP242 Edition 2',
'CAx-IF Rec.Pracs.---Representation and Presentation of Product Manufa
cturing Information (PMI)---4.0---2014-10-13',
'CAx-IF Rec.Pracs.---3D Tessellated Geometry---0.4---2014-09-14','2;1',
'CAx-IF Rec.Pracs.---User Defined Attributes---1.5---2016-08-15'),
/* implementation_level */ '2;1');

FILE_NAME(
/* name */ '2f-85_finger - 2f-85_finger',
/* time_stamp */ '2026-04-28T10:52:36Z',
/* author */ (''),
/* organization */ (''),
/* preprocessor_version */ 'ST-DEVELOPER v20',
/* originating_system */ 'ONSHAPE BY PTC INC, 1.214',
/* authorisation */ '  ');

FILE_SCHEMA (('AP242_MANAGED_MODEL_BASED_3D_ENGINEERING_MIM_LF { 1 0 10303 442 3 1 4 }'));
ENDSEC;

DATA;
#10=SHAPE_REPRESENTATION_RELATIONSHIP('','',#406,#11);
#11=ADVANCED_BREP_SHAPE_REPRESENTATION('',(#404),#716);
#12=TOROIDAL_SURFACE('',#440,0.00679782155838709,0.0005);
#13=TOROIDAL_SURFACE('',#444,0.0055,0.0005);
#14=TOROIDAL_SURFACE('',#448,0.0055,0.0005);
#15=TOROIDAL_SURFACE('',#451,0.00679782155838709,0.0005);
#16=TOROIDAL_SURFACE('',#455,0.0055,0.0005);
#17=TOROIDAL_SURFACE('',#459,0.0055,0.0005);
#18=CIRCLE('',#410,0.006);
#19=CIRCLE('',#411,0.006);
#20=CIRCLE('',#414,0.006);
#21=CIRCLE('',#415,0.006);
#22=CIRCLE('',#418,0.0031);
#23=CIRCLE('',#419,0.0005);
#24=CIRCLE('',#420,0.0005);
#25=CIRCLE('',#421,0.0005);
#26=CIRCLE('',#422,0.0005);
#27=CIRCLE('',#424,0.0026);
#28=CIRCLE('',#425,0.0026);
#29=CIRCLE('',#427,0.00629782155838709);
#30=CIRCLE('',#428,0.00629782155838709);
#31=CIRCLE('',#430,0.0026);
#32=CIRCLE('',#431,0.0026);
#33=CIRCLE('',#433,0.0055);
#34=CIRCLE('',#434,0.0055);
#35=CIRCLE('',#435,0.00679782155838709);
#36=CIRCLE('',#437,0.0055);
#37=CIRCLE('',#438,0.00679782155838709);
#38=CIRCLE('',#439,0.0055);
#39=CIRCLE('',#441,0.0005);
#40=CIRCLE('',#443,0.0005);
#41=CIRCLE('',#445,0.0005);
#42=CIRCLE('',#447,0.0005);
#43=CIRCLE('',#449,0.0005);
#44=CIRCLE('',#452,0.0005);
#45=CIRCLE('',#454,0.0005);
#46=CIRCLE('',#456,0.0005);
#47=CIRCLE('',#458,0.0005);
#48=CIRCLE('',#460,0.0005);
#49=CIRCLE('',#463,0.0031);
#50=CYLINDRICAL_SURFACE('',#409,0.006);
#51=CYLINDRICAL_SURFACE('',#413,0.006);
#52=CYLINDRICAL_SURFACE('',#423,0.0026);
#53=CYLINDRICAL_SURFACE('',#426,0.00629782155838709);
#54=CYLINDRICAL_SURFACE('',#429,0.0026);
#55=CYLINDRICAL_SURFACE('',#442,0.0005);
#56=CYLINDRICAL_SURFACE('',#446,0.0005);
#57=CYLINDRICAL_SURFACE('',#450,0.0005);
#58=CYLINDRICAL_SURFACE('',#453,0.0005);
#59=CYLINDRICAL_SURFACE('',#457,0.0005);
#60=CYLINDRICAL_SURFACE('',#461,0.0005);
#61=CYLINDRICAL_SURFACE('',#462,0.0031);
#62=ORIENTED_EDGE('',*,*,#168,.T.);
#63=ORIENTED_EDGE('',*,*,#169,.T.);
#64=ORIENTED_EDGE('',*,*,#170,.F.);
#65=ORIENTED_EDGE('',*,*,#171,.T.);
#66=ORIENTED_EDGE('',*,*,#172,.T.);
#67=ORIENTED_EDGE('',*,*,#173,.T.);
#68=ORIENTED_EDGE('',*,*,#168,.F.);
#69=ORIENTED_EDGE('',*,*,#174,.T.);
#70=ORIENTED_EDGE('',*,*,#175,.T.);
#71=ORIENTED_EDGE('',*,*,#176,.T.);
#72=ORIENTED_EDGE('',*,*,#172,.F.);
#73=ORIENTED_EDGE('',*,*,#177,.T.);
#74=ORIENTED_EDGE('',*,*,#178,.T.);
#75=ORIENTED_EDGE('',*,*,#179,.T.);
#76=ORIENTED_EDGE('',*,*,#175,.F.);
#77=ORIENTED_EDGE('',*,*,#180,.T.);
#78=ORIENTED_EDGE('',*,*,#181,.T.);
#79=ORIENTED_EDGE('',*,*,#182,.T.);
#80=ORIENTED_EDGE('',*,*,#178,.F.);
#81=ORIENTED_EDGE('',*,*,#183,.T.);
#82=ORIENTED_EDGE('',*,*,#184,.F.);
#83=ORIENTED_EDGE('',*,*,#185,.T.);
#84=ORIENTED_EDGE('',*,*,#186,.T.);
#85=ORIENTED_EDGE('',*,*,#181,.F.);
#86=ORIENTED_EDGE('',*,*,#187,.T.);
#87=ORIENTED_EDGE('',*,*,#188,.F.);
#88=ORIENTED_EDGE('',*,*,#189,.T.);
#89=ORIENTED_EDGE('',*,*,#190,.T.);
#90=ORIENTED_EDGE('',*,*,#191,.T.);
#91=ORIENTED_EDGE('',*,*,#192,.F.);
#92=ORIENTED_EDGE('',*,*,#193,.T.);
#93=ORIENTED_EDGE('',*,*,#170,.T.);
#94=ORIENTED_EDGE('',*,*,#194,.T.);
#95=ORIENTED_EDGE('',*,*,#190,.F.);
#96=ORIENTED_EDGE('',*,*,#195,.T.);
#97=ORIENTED_EDGE('',*,*,#196,.F.);
#98=ORIENTED_EDGE('',*,*,#197,.T.);
#99=ORIENTED_EDGE('',*,*,#188,.T.);
#100=ORIENTED_EDGE('',*,*,#198,.T.);
#101=ORIENTED_EDGE('',*,*,#199,.T.);
#102=ORIENTED_EDGE('',*,*,#200,.T.);
#103=ORIENTED_EDGE('',*,*,#201,.T.);
#104=ORIENTED_EDGE('',*,*,#202,.T.);
#105=ORIENTED_EDGE('',*,*,#203,.T.);
#106=ORIENTED_EDGE('',*,*,#192,.T.);
#107=ORIENTED_EDGE('',*,*,#196,.T.);
#108=ORIENTED_EDGE('',*,*,#204,.T.);
#109=ORIENTED_EDGE('',*,*,#205,.T.);
#110=ORIENTED_EDGE('',*,*,#185,.F.);
#111=ORIENTED_EDGE('',*,*,#206,.T.);
#112=ORIENTED_EDGE('',*,*,#207,.T.);
#113=ORIENTED_EDGE('',*,*,#208,.T.);
#114=ORIENTED_EDGE('',*,*,#209,.T.);
#115=ORIENTED_EDGE('',*,*,#193,.F.);
#116=ORIENTED_EDGE('',*,*,#197,.F.);
#117=ORIENTED_EDGE('',*,*,#191,.F.);
#118=ORIENTED_EDGE('',*,*,#194,.F.);
#119=ORIENTED_EDGE('',*,*,#210,.F.);
#120=ORIENTED_EDGE('',*,*,#206,.F.);
#121=ORIENTED_EDGE('',*,*,#210,.T.);
#122=ORIENTED_EDGE('',*,*,#169,.F.);
#123=ORIENTED_EDGE('',*,*,#211,.F.);
#124=ORIENTED_EDGE('',*,*,#207,.F.);
#125=ORIENTED_EDGE('',*,*,#211,.T.);
#126=ORIENTED_EDGE('',*,*,#173,.F.);
#127=ORIENTED_EDGE('',*,*,#212,.F.);
#128=ORIENTED_EDGE('',*,*,#208,.F.);
#129=ORIENTED_EDGE('',*,*,#212,.T.);
#130=ORIENTED_EDGE('',*,*,#176,.F.);
#131=ORIENTED_EDGE('',*,*,#213,.F.);
#132=ORIENTED_EDGE('',*,*,#209,.F.);
#133=ORIENTED_EDGE('',*,*,#213,.T.);
#134=ORIENTED_EDGE('',*,*,#179,.F.);
#135=ORIENTED_EDGE('',*,*,#214,.F.);
#136=ORIENTED_EDGE('',*,*,#204,.F.);
#137=ORIENTED_EDGE('',*,*,#186,.F.);
#138=ORIENTED_EDGE('',*,*,#205,.F.);
#139=ORIENTED_EDGE('',*,*,#214,.T.);
#140=ORIENTED_EDGE('',*,*,#182,.F.);
#141=ORIENTED_EDGE('',*,*,#189,.F.);
#142=ORIENTED_EDGE('',*,*,#203,.F.);
#143=ORIENTED_EDGE('',*,*,#215,.F.);
#144=ORIENTED_EDGE('',*,*,#195,.F.);
#145=ORIENTED_EDGE('',*,*,#215,.T.);
#146=ORIENTED_EDGE('',*,*,#202,.F.);
#147=ORIENTED_EDGE('',*,*,#216,.F.);
#148=ORIENTED_EDGE('',*,*,#171,.F.);
#149=ORIENTED_EDGE('',*,*,#216,.T.);
#150=ORIENTED_EDGE('',*,*,#201,.F.);
#151=ORIENTED_EDGE('',*,*,#217,.F.);
#152=ORIENTED_EDGE('',*,*,#174,.F.);
#153=ORIENTED_EDGE('',*,*,#217,.T.);
#154=ORIENTED_EDGE('',*,*,#200,.F.);
#155=ORIENTED_EDGE('',*,*,#218,.F.);
#156=ORIENTED_EDGE('',*,*,#177,.F.);
#157=ORIENTED_EDGE('',*,*,#218,.T.);
#158=ORIENTED_EDGE('',*,*,#199,.F.);
#159=ORIENTED_EDGE('',*,*,#219,.F.);
#160=ORIENTED_EDGE('',*,*,#180,.F.);
#161=ORIENTED_EDGE('',*,*,#187,.F.);
#162=ORIENTED_EDGE('',*,*,#183,.F.);
#163=ORIENTED_EDGE('',*,*,#219,.T.);
#164=ORIENTED_EDGE('',*,*,#198,.F.);
#165=ORIENTED_EDGE('',*,*,#220,.F.);
#166=ORIENTED_EDGE('',*,*,#184,.T.);
#167=ORIENTED_EDGE('',*,*,#220,.T.);
#168=EDGE_CURVE('',#221,#222,#255,.T.);
#169=EDGE_CURVE('',#222,#223,#256,.T.);
#170=EDGE_CURVE('',#224,#223,#257,.T.);
#171=EDGE_CURVE('',#224,#221,#258,.F.);
#172=EDGE_CURVE('',#225,#226,#259,.T.);
#173=EDGE_CURVE('',#226,#222,#18,.F.);
#174=EDGE_CURVE('',#221,#225,#19,.T.);
#175=EDGE_CURVE('',#227,#228,#260,.T.);
#176=EDGE_CURVE('',#228,#226,#261,.T.);
#177=EDGE_CURVE('',#225,#227,#262,.F.);
#178=EDGE_CURVE('',#229,#230,#263,.T.);
#179=EDGE_CURVE('',#230,#228,#20,.F.);
#180=EDGE_CURVE('',#227,#229,#21,.T.);
#181=EDGE_CURVE('',#231,#232,#264,.T.);
#182=EDGE_CURVE('',#232,#230,#265,.T.);
#183=EDGE_CURVE('',#229,#231,#266,.F.);
#184=EDGE_CURVE('',#233,#233,#22,.T.);
#185=EDGE_CURVE('',#234,#235,#267,.T.);
#186=EDGE_CURVE('',#235,#232,#23,.F.);
#187=EDGE_CURVE('',#231,#236,#24,.F.);
#188=EDGE_CURVE('',#237,#236,#268,.T.);
#189=EDGE_CURVE('',#237,#238,#25,.F.);
#190=EDGE_CURVE('',#238,#239,#269,.T.);
#191=EDGE_CURVE('',#239,#234,#26,.F.);
#192=EDGE_CURVE('',#240,#240,#27,.T.);
#193=EDGE_CURVE('',#241,#241,#28,.T.);
#194=EDGE_CURVE('',#223,#239,#29,.T.);
#195=EDGE_CURVE('',#238,#224,#30,.F.);
#196=EDGE_CURVE('',#242,#242,#31,.T.);
#197=EDGE_CURVE('',#243,#243,#32,.T.);
#198=EDGE_CURVE('',#236,#244,#270,.T.);
#199=EDGE_CURVE('',#244,#245,#33,.F.);
#200=EDGE_CURVE('',#245,#246,#271,.T.);
#201=EDGE_CURVE('',#246,#247,#34,.F.);
#202=EDGE_CURVE('',#247,#248,#272,.T.);
#203=EDGE_CURVE('',#248,#237,#35,.T.);
#204=EDGE_CURVE('',#249,#250,#36,.T.);
#205=EDGE_CURVE('',#250,#235,#273,.F.);
#206=EDGE_CURVE('',#234,#251,#37,.F.);
#207=EDGE_CURVE('',#251,#252,#274,.F.);
#208=EDGE_CURVE('',#252,#253,#38,.T.);
#209=EDGE_CURVE('',#253,#249,#275,.F.);
#210=EDGE_CURVE('',#251,#223,#39,.T.);
#211=EDGE_CURVE('',#252,#222,#40,.T.);
#212=EDGE_CURVE('',#253,#226,#41,.T.);
#213=EDGE_CURVE('',#249,#228,#42,.T.);
#214=EDGE_CURVE('',#250,#230,#43,.T.);
#215=EDGE_CURVE('',#224,#248,#44,.T.);
#216=EDGE_CURVE('',#221,#247,#45,.T.);
#217=EDGE_CURVE('',#225,#246,#46,.T.);
#218=EDGE_CURVE('',#227,#245,#47,.T.);
#219=EDGE_CURVE('',#229,#244,#48,.T.);
#220=EDGE_CURVE('',#254,#254,#49,.T.);
#221=VERTEX_POINT('',#605);
#222=VERTEX_POINT('',#606);
#223=VERTEX_POINT('',#608);
#224=VERTEX_POINT('',#610);
#225=VERTEX_POINT('',#614);
#226=VERTEX_POINT('',#615);
#227=VERTEX_POINT('',#620);
#228=VERTEX_POINT('',#621);
#229=VERTEX_POINT('',#626);
#230=VERTEX_POINT('',#627);
#231=VERTEX_POINT('',#632);
#232=VERTEX_POINT('',#633);
#233=VERTEX_POINT('',#638);
#234=VERTEX_POINT('',#640);
#235=VERTEX_POINT('',#641);
#236=VERTEX_POINT('',#644);
#237=VERTEX_POINT('',#646);
#238=VERTEX_POINT('',#648);
#239=VERTEX_POINT('',#650);
#240=VERTEX_POINT('',#654);
#241=VERTEX_POINT('',#656);
#242=VERTEX_POINT('',#662);
#243=VERTEX_POINT('',#664);
#244=VERTEX_POINT('',#667);
#245=VERTEX_POINT('',#669);
#246=VERTEX_POINT('',#671);
#247=VERTEX_POINT('',#673);
#248=VERTEX_POINT('',#675);
#249=VERTEX_POINT('',#679);
#250=VERTEX_POINT('',#680);
#251=VERTEX_POINT('',#683);
#252=VERTEX_POINT('',#685);
#253=VERTEX_POINT('',#687);
#254=VERTEX_POINT('',#713);
#255=LINE('',#604,#276);
#256=LINE('',#607,#277);
#257=LINE('',#609,#278);
#258=LINE('',#611,#279);
#259=LINE('',#613,#280);
#260=LINE('',#619,#281);
#261=LINE('',#622,#282);
#262=LINE('',#623,#283);
#263=LINE('',#625,#284);
#264=LINE('',#631,#285);
#265=LINE('',#634,#286);
#266=LINE('',#635,#287);
#267=LINE('',#639,#288);
#268=LINE('',#645,#289);
#269=LINE('',#649,#290);
#270=LINE('',#666,#291);
#271=LINE('',#670,#292);
#272=LINE('',#674,#293);
#273=LINE('',#681,#294);
#274=LINE('',#684,#295);
#275=LINE('',#688,#296);
#276=VECTOR('',#469,1.);
#277=VECTOR('',#470,1.);
#278=VECTOR('',#471,1.);
#279=VECTOR('',#472,1.);
#280=VECTOR('',#475,1.);
#281=VECTOR('',#482,1.);
#282=VECTOR('',#483,1.);
#283=VECTOR('',#484,1.);
#284=VECTOR('',#487,1.);
#285=VECTOR('',#494,1.);
#286=VECTOR('',#495,1.);
#287=VECTOR('',#496,1.);
#288=VECTOR('',#501,1.);
#289=VECTOR('',#506,1.);
#290=VECTOR('',#509,1.);
#291=VECTOR('',#532,1.);
#292=VECTOR('',#535,1.);
#293=VECTOR('',#538,1.);
#294=VECTOR('',#545,1.);
#295=VECTOR('',#548,1.);
#296=VECTOR('',#551,1.);
#297=EDGE_LOOP('',(#62,#63,#64,#65));
#298=EDGE_LOOP('',(#66,#67,#68,#69));
#299=EDGE_LOOP('',(#70,#71,#72,#73));
#300=EDGE_LOOP('',(#74,#75,#76,#77));
#301=EDGE_LOOP('',(#78,#79,#80,#81));
#302=EDGE_LOOP('',(#82));
#303=EDGE_LOOP('',(#83,#84,#85,#86,#87,#88,#89,#90));
#304=EDGE_LOOP('',(#91));
#305=EDGE_LOOP('',(#92));
#306=EDGE_LOOP('',(#93,#94,#95,#96));
#307=EDGE_LOOP('',(#97));
#308=EDGE_LOOP('',(#98));
#309=EDGE_LOOP('',(#99,#100,#101,#102,#103,#104,#105));
#310=EDGE_LOOP('',(#106));
#311=EDGE_LOOP('',(#107));
#312=EDGE_LOOP('',(#108,#109,#110,#111,#112,#113,#114));
#313=EDGE_LOOP('',(#115));
#314=EDGE_LOOP('',(#116));
#315=EDGE_LOOP('',(#117,#118,#119,#120));
#316=EDGE_LOOP('',(#121,#122,#123,#124));
#317=EDGE_LOOP('',(#125,#126,#127,#128));
#318=EDGE_LOOP('',(#129,#130,#131,#132));
#319=EDGE_LOOP('',(#133,#134,#135,#136));
#320=EDGE_LOOP('',(#137,#138,#139,#140));
#321=EDGE_LOOP('',(#141,#142,#143,#144));
#322=EDGE_LOOP('',(#145,#146,#147,#148));
#323=EDGE_LOOP('',(#149,#150,#151,#152));
#324=EDGE_LOOP('',(#153,#154,#155,#156));
#325=EDGE_LOOP('',(#157,#158,#159,#160));
#326=EDGE_LOOP('',(#161,#162,#163,#164));
#327=EDGE_LOOP('',(#165));
#328=EDGE_LOOP('',(#166));
#329=EDGE_LOOP('',(#167));
#330=FACE_BOUND('',#297,.T.);
#331=FACE_BOUND('',#298,.T.);
#332=FACE_BOUND('',#299,.T.);
#333=FACE_BOUND('',#300,.T.);
#334=FACE_BOUND('',#301,.T.);
#335=FACE_BOUND('',#302,.T.);
#336=FACE_BOUND('',#303,.T.);
#337=FACE_BOUND('',#304,.T.);
#338=FACE_BOUND('',#305,.T.);
#339=FACE_BOUND('',#306,.T.);
#340=FACE_BOUND('',#307,.T.);
#341=FACE_BOUND('',#308,.T.);
#342=FACE_BOUND('',#309,.T.);
#343=FACE_BOUND('',#310,.T.);
#344=FACE_BOUND('',#311,.T.);
#345=FACE_BOUND('',#312,.T.);
#346=FACE_BOUND('',#313,.T.);
#347=FACE_BOUND('',#314,.T.);
#348=FACE_BOUND('',#315,.T.);
#349=FACE_BOUND('',#316,.T.);
#350=FACE_BOUND('',#317,.T.);
#351=FACE_BOUND('',#318,.T.);
#352=FACE_BOUND('',#319,.T.);
#353=FACE_BOUND('',#320,.T.);
#354=FACE_BOUND('',#321,.T.);
#355=FACE_BOUND('',#322,.T.);
#356=FACE_BOUND('',#323,.T.);
#357=FACE_BOUND('',#324,.T.);
#358=FACE_BOUND('',#325,.T.);
#359=FACE_BOUND('',#326,.T.);
#360=FACE_BOUND('',#327,.T.);
#361=FACE_BOUND('',#328,.T.);
#362=FACE_BOUND('',#329,.T.);
#363=PLANE('',#408);
#364=PLANE('',#412);
#365=PLANE('',#416);
#366=PLANE('',#417);
#367=PLANE('',#432);
#368=PLANE('',#436);
#369=PLANE('',#464);
#370=ADVANCED_FACE('',(#330),#363,.F.);
#371=ADVANCED_FACE('',(#331),#50,.T.);
#372=ADVANCED_FACE('',(#332),#364,.F.);
#373=ADVANCED_FACE('',(#333),#51,.T.);
#374=ADVANCED_FACE('',(#334),#365,.F.);
#375=ADVANCED_FACE('',(#335,#336),#366,.F.);
#376=ADVANCED_FACE('',(#337,#338),#52,.F.);
#377=ADVANCED_FACE('',(#339),#53,.F.);
#378=ADVANCED_FACE('',(#340,#341),#54,.F.);
#379=ADVANCED_FACE('',(#342,#343,#344),#367,.F.);
#380=ADVANCED_FACE('',(#345,#346,#347),#368,.T.);
#381=ADVANCED_FACE('',(#348),#12,.T.);
#382=ADVANCED_FACE('',(#349),#55,.T.);
#383=ADVANCED_FACE('',(#350),#13,.T.);
#384=ADVANCED_FACE('',(#351),#56,.T.);
#385=ADVANCED_FACE('',(#352),#14,.T.);
#386=ADVANCED_FACE('',(#353),#57,.T.);
#387=ADVANCED_FACE('',(#354),#15,.T.);
#388=ADVANCED_FACE('',(#355),#58,.T.);
#389=ADVANCED_FACE('',(#356),#16,.T.);
#390=ADVANCED_FACE('',(#357),#59,.T.);
#391=ADVANCED_FACE('',(#358),#17,.T.);
#392=ADVANCED_FACE('',(#359),#60,.T.);
#393=ADVANCED_FACE('',(#360,#361),#61,.F.);
#394=ADVANCED_FACE('',(#362),#369,.T.);
#395=CLOSED_SHELL('',(#370,#371,#372,#373,#374,#375,#376,#377,#378,#379,
#380,#381,#382,#383,#384,#385,#386,#387,#388,#389,#390,#391,#392,#393,#394));
#396=STYLED_ITEM('',(#397),#404);
#397=PRESENTATION_STYLE_ASSIGNMENT((#398));
#398=SURFACE_STYLE_USAGE(.BOTH.,#399);
#399=SURFACE_SIDE_STYLE('',(#400));
#400=SURFACE_STYLE_FILL_AREA(#401);
#401=FILL_AREA_STYLE('',(#402));
#402=FILL_AREA_STYLE_COLOUR('',#403);
#403=COLOUR_RGB('',0.498039215686275,0.498039215686275,0.498039215686275);
#404=MANIFOLD_SOLID_BREP('2f-85_finger',#395);
#405=SHAPE_DEFINITION_REPRESENTATION(#721,#406);
#406=SHAPE_REPRESENTATION('2f-85_finger',(#407),#716);
#407=AXIS2_PLACEMENT_3D('',#602,#465,#466);
#408=AXIS2_PLACEMENT_3D('',#603,#467,#468);
#409=AXIS2_PLACEMENT_3D('',#612,#473,#474);
#410=AXIS2_PLACEMENT_3D('',#616,#476,#477);
#411=AXIS2_PLACEMENT_3D('',#617,#478,#479);
#412=AXIS2_PLACEMENT_3D('',#618,#480,#481);
#413=AXIS2_PLACEMENT_3D('',#624,#485,#486);
#414=AXIS2_PLACEMENT_3D('',#628,#488,#489);
#415=AXIS2_PLACEMENT_3D('',#629,#490,#491);
#416=AXIS2_PLACEMENT_3D('',#630,#492,#493);
#417=AXIS2_PLACEMENT_3D('',#636,#497,#498);
#418=AXIS2_PLACEMENT_3D('',#637,#499,#500);
#419=AXIS2_PLACEMENT_3D('',#642,#502,#503);
#420=AXIS2_PLACEMENT_3D('',#643,#504,#505);
#421=AXIS2_PLACEMENT_3D('',#647,#507,#508);
#422=AXIS2_PLACEMENT_3D('',#651,#510,#511);
#423=AXIS2_PLACEMENT_3D('',#652,#512,#513);
#424=AXIS2_PLACEMENT_3D('',#653,#514,#515);
#425=AXIS2_PLACEMENT_3D('',#655,#516,#517);
#426=AXIS2_PLACEMENT_3D('',#657,#518,#519);
#427=AXIS2_PLACEMENT_3D('',#658,#520,#521);
#428=AXIS2_PLACEMENT_3D('',#659,#522,#523);
#429=AXIS2_PLACEMENT_3D('',#660,#524,#525);
#430=AXIS2_PLACEMENT_3D('',#661,#526,#527);
#431=AXIS2_PLACEMENT_3D('',#663,#528,#529);
#432=AXIS2_PLACEMENT_3D('',#665,#530,#531);
#433=AXIS2_PLACEMENT_3D('',#668,#533,#534);
#434=AXIS2_PLACEMENT_3D('',#672,#536,#537);
#435=AXIS2_PLACEMENT_3D('',#676,#539,#540);
#436=AXIS2_PLACEMENT_3D('',#677,#541,#542);
#437=AXIS2_PLACEMENT_3D('',#678,#543,#544);
#438=AXIS2_PLACEMENT_3D('',#682,#546,#547);
#439=AXIS2_PLACEMENT_3D('',#686,#549,#550);
#440=AXIS2_PLACEMENT_3D('',#689,#552,#553);
#441=AXIS2_PLACEMENT_3D('',#690,#554,#555);
#442=AXIS2_PLACEMENT_3D('',#691,#556,#557);
#443=AXIS2_PLACEMENT_3D('',#692,#558,#559);
#444=AXIS2_PLACEMENT_3D('',#693,#560,#561);
#445=AXIS2_PLACEMENT_3D('',#694,#562,#563);
#446=AXIS2_PLACEMENT_3D('',#695,#564,#565);
#447=AXIS2_PLACEMENT_3D('',#696,#566,#567);
#448=AXIS2_PLACEMENT_3D('',#697,#568,#569);
#449=AXIS2_PLACEMENT_3D('',#698,#570,#571);
#450=AXIS2_PLACEMENT_3D('',#699,#572,#573);
#451=AXIS2_PLACEMENT_3D('',#700,#574,#575);
#452=AXIS2_PLACEMENT_3D('',#701,#576,#577);
#453=AXIS2_PLACEMENT_3D('',#702,#578,#579);
#454=AXIS2_PLACEMENT_3D('',#703,#580,#581);
#455=AXIS2_PLACEMENT_3D('',#704,#582,#583);
#456=AXIS2_PLACEMENT_3D('',#705,#584,#585);
#457=AXIS2_PLACEMENT_3D('',#706,#586,#587);
#458=AXIS2_PLACEMENT_3D('',#707,#588,#589);
#459=AXIS2_PLACEMENT_3D('',#708,#590,#591);
#460=AXIS2_PLACEMENT_3D('',#709,#592,#593);
#461=AXIS2_PLACEMENT_3D('',#710,#594,#595);
#462=AXIS2_PLACEMENT_3D('',#711,#596,#597);
#463=AXIS2_PLACEMENT_3D('',#712,#598,#599);
#464=AXIS2_PLACEMENT_3D('',#714,#600,#601);
#465=DIRECTION('',(0.,0.,1.));
#466=DIRECTION('',(1.,0.,0.));
#467=DIRECTION('',(0.341978078851845,-0.939707929936106,-5.12895969743447E-22));
#468=DIRECTION('',(0.939707929936106,0.341978078851845,0.));
#469=DIRECTION('',(-4.17324848497098E-22,-6.97676266001287E-22,1.));
#470=DIRECTION('',(0.939707929936106,0.341978078851845,6.30753458599756E-22));
#471=DIRECTION('',(-4.17324848497098E-22,-6.97676266001287E-22,1.));
#472=DIRECTION('',(0.939707929936106,0.341978078851845,6.30753458599756E-22));
#473=DIRECTION('',(-4.17324848497098E-22,-6.97676266001287E-22,1.));
#474=DIRECTION('',(0.,-1.,-6.97676266001287E-22));
#475=DIRECTION('',(-4.17324848497098E-22,-6.97676266001287E-22,1.));
#476=DIRECTION('',(-4.17324848497098E-22,-6.97676266001287E-22,1.));
#477=DIRECTION('',(0.,-1.,-6.97676266001287E-22));
#478=DIRECTION('',(-4.17324848497098E-22,-6.97676266001287E-22,1.));
#479=DIRECTION('',(0.,-1.,-6.97676266001287E-22));
#480=DIRECTION('',(-0.341978078851846,0.939707929936106,5.12895969743446E-22));
#481=DIRECTION('',(-0.939707929936106,-0.341978078851846,0.));
#482=DIRECTION('',(-4.17324848497098E-22,-6.97676266001287E-22,1.));
#483=DIRECTION('',(-0.939707929936106,-0.341978078851846,-6.30753458599757E-22));
#484=DIRECTION('',(-0.939707929936106,-0.341978078851846,-6.30753458599757E-22));
#485=DIRECTION('',(-4.17324848497098E-22,-6.97676266001287E-22,1.));
#486=DIRECTION('',(0.,-1.,-6.97676266001287E-22));
#487=DIRECTION('',(-4.17324848497098E-22,-6.97676266001287E-22,1.));
#488=DIRECTION('',(-4.17324848497098E-22,-6.97676266001287E-22,1.));
#489=DIRECTION('',(0.,-1.,-6.97676266001287E-22));
#490=DIRECTION('',(-4.17324848497098E-22,-6.97676266001287E-22,1.));
#491=DIRECTION('',(0.,-1.,-6.97676266001287E-22));
#492=DIRECTION('',(-0.999999998998105,4.47637131838355E-5,-4.17293617498716E-22));
#493=DIRECTION('',(-4.47637131838355E-5,-0.999999998998105,0.));
#494=DIRECTION('',(-4.17324848497098E-22,-6.97676266001287E-22,1.));
#495=DIRECTION('',(-4.47637131838355E-5,-0.999999998998105,-6.97694946312111E-22));
#496=DIRECTION('',(-4.47637131838355E-5,-0.999999998998105,-6.97694946312111E-22));
#497=DIRECTION('',(-4.47637131841681E-5,-0.999999998998105,-6.97694946312112E-22));
#498=DIRECTION('',(0.999999998998105,-4.47637131841681E-5,0.));
#499=DIRECTION('',(4.47637131841681E-5,0.999999998998105,6.97694946312112E-22));
#500=DIRECTION('',(-0.999999998998105,4.47637131841681E-5,0.));
#501=DIRECTION('',(0.999999998998105,-4.47637131841681E-5,4.17293617592467E-22));
#502=DIRECTION('',(-4.47637131841681E-5,-0.999999998998105,-6.97694946312112E-22));
#503=DIRECTION('',(0.999999998998105,-4.47637131841681E-5,0.));
#504=DIRECTION('',(-4.47637131841681E-5,-0.999999998998105,-6.97694946312112E-22));
#505=DIRECTION('',(0.999999998998105,-4.47637131841681E-5,0.));
#506=DIRECTION('',(0.999999998998105,-4.47637131841681E-5,4.17293617592467E-22));
#507=DIRECTION('',(-4.47637131841681E-5,-0.999999998998105,-6.97694946312112E-22));
#508=DIRECTION('',(0.999999998998105,-4.47637131841681E-5,0.));
#509=DIRECTION('',(-4.17324848497098E-22,-6.97676266001287E-22,1.));
#510=DIRECTION('',(-4.47637131841681E-5,-0.999999998998105,-6.97694946312112E-22));
#511=DIRECTION('',(0.999999998998105,-4.47637131841681E-5,0.));
#512=DIRECTION('',(-4.17324848497098E-22,-6.97676266001287E-22,1.));
#513=DIRECTION('',(0.,-1.,-6.97676266001287E-22));
#514=DIRECTION('',(-4.17324848497098E-22,-6.97676266001287E-22,1.));
#515=DIRECTION('',(0.,-1.,-6.97676266001287E-22));
#516=DIRECTION('',(-4.17324848497098E-22,-6.97676266001287E-22,1.));
#517=DIRECTION('',(0.,-1.,-6.97676266001287E-22));
#518=DIRECTION('',(-4.17324848497098E-22,-6.97676266001287E-22,1.));
#519=DIRECTION('',(0.,-1.,-6.97676266001287E-22));
#520=DIRECTION('',(-4.17324848497098E-22,-6.97676266001287E-22,1.));
#521=DIRECTION('',(0.,-1.,-6.97676266001287E-22));
#522=DIRECTION('',(-4.17324848497098E-22,-6.97676266001287E-22,1.));
#523=DIRECTION('',(0.,-1.,-6.97676266001287E-22));
#524=DIRECTION('',(-4.17324848497098E-22,-6.97676266001287E-22,1.));
#525=DIRECTION('',(0.,-1.,-6.97676266001287E-22));
#526=DIRECTION('',(-4.17324848497098E-22,-6.97676266001287E-22,1.));
#527=DIRECTION('',(0.,-1.,-6.97676266001287E-22));
#528=DIRECTION('',(-4.17324848497098E-22,-6.97676266001287E-22,1.));
#529=DIRECTION('',(0.,-1.,-6.97676266001287E-22));
#530=DIRECTION('',(-4.17324848497098E-22,-6.97676266001287E-22,1.));
#531=DIRECTION('',(1.,-2.91157642009008E-43,4.17324848497098E-22));
#532=DIRECTION('',(-4.47637131838355E-5,-0.999999998998105,-6.97694946312111E-22));
#533=DIRECTION('',(-4.17324848497098E-22,-6.97676266001287E-22,1.));
#534=DIRECTION('',(0.,-1.,-6.97676266001287E-22));
#535=DIRECTION('',(-0.939707929936106,-0.341978078851846,-6.30753458599756E-22));
#536=DIRECTION('',(-4.17324848497098E-22,-6.97676266001287E-22,1.));
#537=DIRECTION('',(0.,-1.,-6.97676266001287E-22));
#538=DIRECTION('',(0.939707929936106,0.341978078851845,6.30753458599756E-22));
#539=DIRECTION('',(-4.17324848497098E-22,-6.97676266001287E-22,1.));
#540=DIRECTION('',(0.,-1.,-6.97676266001287E-22));
#541=DIRECTION('',(-4.17324848497098E-22,-6.97676266001287E-22,1.));
#542=DIRECTION('',(1.,-2.91157642009008E-43,4.17324848497098E-22));
#543=DIRECTION('',(-4.17324848497098E-22,-6.97676266001287E-22,1.));
#544=DIRECTION('',(0.,-1.,-6.97676266001287E-22));
#545=DIRECTION('',(-4.47637131838355E-5,-0.999999998998105,-6.97694946312111E-22));
#546=DIRECTION('',(-4.17324848497098E-22,-6.97676266001287E-22,1.));
#547=DIRECTION('',(0.,-1.,-6.97676266001287E-22));
#548=DIRECTION('',(0.939707929936106,0.341978078851845,6.30753458599756E-22));
#549=DIRECTION('',(-4.17324848497098E-22,-6.97676266001287E-22,1.));
#550=DIRECTION('',(0.,-1.,-6.97676266001287E-22));
#551=DIRECTION('',(-0.939707929936106,-0.341978078851846,-6.30753458599756E-22));
#552=DIRECTION('',(-4.17324848497098E-22,-6.97676266001287E-22,1.));
#553=DIRECTION('',(0.,-1.,-6.97676266001287E-22));
#554=DIRECTION('',(-0.939707929936101,-0.341978078851858,0.));
#555=DIRECTION('',(0.341978078851858,-0.939707929936101,0.));
#556=DIRECTION('',(-0.939707929936106,-0.341978078851845,-6.30753458599756E-22));
#557=DIRECTION('',(0.341978078851845,-0.939707929936106,0.));
#558=DIRECTION('',(-0.939707929936116,-0.341978078851818,0.));
#559=DIRECTION('',(0.341978078851818,-0.939707929936116,0.));
#560=DIRECTION('',(-4.17324848497098E-22,-6.97676266001287E-22,1.));
#561=DIRECTION('',(0.,-1.,-6.97676266001287E-22));
#562=DIRECTION('',(0.93970792993611,0.341978078851834,0.));
#563=DIRECTION('',(-0.341978078851834,0.93970792993611,0.));
#564=DIRECTION('',(0.939707929936106,0.341978078851846,6.30753458599756E-22));
#565=DIRECTION('',(-0.341978078851846,0.939707929936106,0.));
#566=DIRECTION('',(0.939707929936101,0.341978078851858,0.));
#567=DIRECTION('',(-0.341978078851858,0.939707929936101,0.));
#568=DIRECTION('',(-4.17324848497098E-22,-6.97676266001287E-22,1.));
#569=DIRECTION('',(0.,-1.,-6.97676266001287E-22));
#570=DIRECTION('',(4.47637131806287E-5,0.999999998998105,0.));
#571=DIRECTION('',(-0.999999998998105,4.47637131806287E-5,0.));
#572=DIRECTION('',(4.47637131838355E-5,0.999999998998105,6.97694946312111E-22));
#573=DIRECTION('',(-0.999999998998105,4.47637131838355E-5,0.));
#574=DIRECTION('',(-4.17324848497098E-22,-6.97676266001287E-22,1.));
#575=DIRECTION('',(0.,-1.,-6.97676266001287E-22));
#576=DIRECTION('',(-0.93970792993611,-0.341978078851834,0.));
#577=DIRECTION('',(0.341978078851834,-0.93970792993611,0.));
#578=DIRECTION('',(0.939707929936106,0.341978078851845,6.30753458599756E-22));
#579=DIRECTION('',(-0.341978078851845,0.939707929936106,0.));
#580=DIRECTION('',(-0.93970792993611,-0.341978078851834,0.));
#581=DIRECTION('',(0.341978078851834,-0.93970792993611,0.));
#582=DIRECTION('',(-4.17324848497098E-22,-6.97676266001287E-22,1.));
#583=DIRECTION('',(0.,-1.,-6.97676266001287E-22));
#584=DIRECTION('',(0.93970792993611,0.341978078851834,0.));
#585=DIRECTION('',(-0.341978078851834,0.93970792993611,0.));
#586=DIRECTION('',(-0.939707929936106,-0.341978078851846,-6.30753458599756E-22));
#587=DIRECTION('',(0.341978078851846,-0.939707929936106,0.));
#588=DIRECTION('',(0.939707929936105,0.341978078851846,-3.54926882651393E-15));
#589=DIRECTION('',(-0.341978078851846,0.939707929936106,0.));
#590=DIRECTION('',(-4.17324848497098E-22,-6.97676266001287E-22,1.));
#591=DIRECTION('',(0.,-1.,-6.97676266001287E-22));
#592=DIRECTION('',(4.47637131806287E-5,0.999999998998105,0.));
#593=DIRECTION('',(-0.999999998998105,4.47637131806287E-5,0.));
#594=DIRECTION('',(-4.47637131838355E-5,-0.999999998998105,-6.97694946312111E-22));
#595=DIRECTION('',(0.999999998998105,-4.47637131838355E-5,0.));
#596=DIRECTION('',(4.47637131841681E-5,0.999999998998105,6.97694946312112E-22));
#597=DIRECTION('',(-0.999999998998105,4.47637131841681E-5,0.));
#598=DIRECTION('',(4.47637131841681E-5,0.999999998998105,6.97694946312112E-22));
#599=DIRECTION('',(-0.999999998998105,4.47637131841681E-5,0.));
#600=DIRECTION('',(4.47637131841681E-5,0.999999998998105,6.97694946312112E-22));
#601=DIRECTION('',(-0.999999998998105,4.47637131841681E-5,3.12314164980496E-26));
#602=CARTESIAN_POINT('',(0.,0.,0.));
#603=CARTESIAN_POINT('',(-0.0688564762851179,0.103773455484576,-0.00810000000000987));
#604=CARTESIAN_POINT('',(-0.0708612217249997,0.1030438894436,-0.00810000000000987));
#605=CARTESIAN_POINT('',(-0.0708612217249997,0.1030438894436,-0.00760000000000987));
#606=CARTESIAN_POINT('',(-0.0708612217249997,0.1030438894436,0.00759999999999013));
#607=CARTESIAN_POINT('',(-0.0668517308452361,0.104503021525553,0.00759999999999013));
#608=CARTESIAN_POINT('',(-0.0668517308452361,0.104503021525553,0.00759999999999013));
#609=CARTESIAN_POINT('',(-0.0668517308452361,0.104503021525553,-0.00810000000000987));
#610=CARTESIAN_POINT('',(-0.0668517308452361,0.104503021525553,-0.00760000000000987));
#611=CARTESIAN_POINT('',(-0.0688564762851179,0.103773455484576,-0.00760000000000987));
#612=CARTESIAN_POINT('',(-0.0688093532518886,0.0974056418639833,-0.00810000000000987));
#613=CARTESIAN_POINT('',(-0.0667574847787775,0.0917673942843667,-0.00810000000000987));
#614=CARTESIAN_POINT('',(-0.0667574847787775,0.0917673942843667,-0.00760000000000987));
#615=CARTESIAN_POINT('',(-0.0667574847787775,0.0917673942843667,0.00759999999999013));
#616=CARTESIAN_POINT('',(-0.0688093532518886,0.0974056418639833,0.00759999999999013));
#617=CARTESIAN_POINT('',(-0.0688093532518886,0.0974056418639833,-0.00760000000000987));
#618=CARTESIAN_POINT('',(-0.0578067667461361,0.0950247354854305,-0.00810000000000987));
#619=CARTESIAN_POINT('',(-0.0488560487134946,0.0982820766864944,-0.00810000000000987));
#620=CARTESIAN_POINT('',(-0.0488560487134946,0.0982820766864944,-0.00760000000000987));
#621=CARTESIAN_POINT('',(-0.0488560487134946,0.0982820766864944,0.00759999999999013));
#622=CARTESIAN_POINT('',(-0.0667574847787776,0.0917673942843667,0.00759999999999013));
#623=CARTESIAN_POINT('',(-0.0578067667461361,0.0950247354854305,-0.00760000000000987));
#624=CARTESIAN_POINT('',(-0.0509079171866057,0.103920324266111,-0.00810000000000987));
#625=CARTESIAN_POINT('',(-0.0449079171926171,0.103920055683832,-0.00810000000000987));
#626=CARTESIAN_POINT('',(-0.0449079171926171,0.103920055683832,-0.00760000000000987));
#627=CARTESIAN_POINT('',(-0.0449079171926171,0.103920055683832,0.00759999999999013));
#628=CARTESIAN_POINT('',(-0.0509079171866057,0.103920324266111,0.00759999999999013));
#629=CARTESIAN_POINT('',(-0.0509079171866057,0.103920324266111,-0.00760000000000987));
#630=CARTESIAN_POINT('',(-0.0449077717105493,0.107170055680575,-0.00810000000000987));
#631=CARTESIAN_POINT('',(-0.0449076262284814,0.110420055677319,-0.00810000000000987));
#632=CARTESIAN_POINT('',(-0.0449076262284814,0.110420055677319,-0.00760000000000987));
#633=CARTESIAN_POINT('',(-0.0449076262284814,0.110420055677319,0.00759999999999013));
#634=CARTESIAN_POINT('',(-0.0449079171926171,0.103920055683832,0.00759999999999013));
#635=CARTESIAN_POINT('',(-0.0449077717105493,0.107170055680575,-0.00760000000000987));
#636=CARTESIAN_POINT('',(-0.0449076262284814,0.110420055677319,-0.00810000000000987));
#637=CARTESIAN_POINT('',(-0.0574076262159601,0.110420615223734,8.085588241595E-14));
#638=CARTESIAN_POINT('',(-0.0605076262128542,0.110420753991245,8.085588241595E-14));
#639=CARTESIAN_POINT('',(-0.0449076262284814,0.110420055677319,0.00809999999999013));
#640=CARTESIAN_POINT('',(-0.0622076262111486,0.110420830089557,0.00809999999999013));
#641=CARTESIAN_POINT('',(-0.0454076262279805,0.110420078059176,0.00809999999999013));
#642=CARTESIAN_POINT('',(-0.0454076262279805,0.110420078059176,0.00759999999999013));
#643=CARTESIAN_POINT('',(-0.0454076262279805,0.110420078059176,-0.00760000000000987));
#644=CARTESIAN_POINT('',(-0.0454076262279805,0.110420078059176,-0.00810000000000987));
#645=CARTESIAN_POINT('',(-0.0449076262284814,0.110420055677319,-0.00810000000000987));
#646=CARTESIAN_POINT('',(-0.0622076262111486,0.110420830089557,-0.00810000000000987));
#647=CARTESIAN_POINT('',(-0.0622076262111486,0.110420830089557,-0.00760000000000987));
#648=CARTESIAN_POINT('',(-0.0627076262106477,0.110420852471414,-0.00760000000000987));
#649=CARTESIAN_POINT('',(-0.0627076262106477,0.110420852471414,-0.00810000000000987));
#650=CARTESIAN_POINT('',(-0.0627076262106477,0.110420852471414,0.00759999999999013));
#651=CARTESIAN_POINT('',(-0.0622076262111486,0.110420830089557,0.00759999999999013));
#652=CARTESIAN_POINT('',(-0.0688093532518886,0.0974056418639833,-0.00810000000000987));
#653=CARTESIAN_POINT('',(-0.0688093532518886,0.0974056418639833,-0.00810000000000987));
#654=CARTESIAN_POINT('',(-0.0688093532518886,0.0948056418639833,-0.00810000000000987));
#655=CARTESIAN_POINT('',(-0.0688093532518886,0.0974056418639833,0.00809999999999013));
#656=CARTESIAN_POINT('',(-0.0688093532518886,0.0948056418639833,0.00809999999999013));
#657=CARTESIAN_POINT('',(-0.069005447762725,0.110421134385292,-0.00810000000000987));
#658=CARTESIAN_POINT('',(-0.069005447762725,0.110421134385292,0.00759999999999013));
#659=CARTESIAN_POINT('',(-0.069005447762725,0.110421134385292,-0.00760000000000987));
#660=CARTESIAN_POINT('',(-0.0509079171829378,0.103920324266564,-0.00810000000000987));
#661=CARTESIAN_POINT('',(-0.0509079171829378,0.103920324266564,-0.00810000000000987));
#662=CARTESIAN_POINT('',(-0.0509079171829378,0.101320324266564,-0.00810000000000987));
#663=CARTESIAN_POINT('',(-0.0509079171829378,0.103920324266564,0.00809999999999013));
#664=CARTESIAN_POINT('',(-0.0509079171829378,0.101320324266564,0.00809999999999013));
#665=CARTESIAN_POINT('',(-0.0601054477747968,0.104062298903831,-0.00810000000000987));
#666=CARTESIAN_POINT('',(-0.0454079108552341,0.104061640987503,-0.00810000000000987));
#667=CARTESIAN_POINT('',(-0.0454079171921161,0.103920078065688,-0.00810000000000987));
#668=CARTESIAN_POINT('',(-0.0509079171866057,0.103920324266111,-0.00810000000000987));
#669=CARTESIAN_POINT('',(-0.0490270377529206,0.0987519306514624,-0.00810000000000987));
#670=CARTESIAN_POINT('',(-0.0571033013769754,0.0958128204976904,-0.00810000000000987));
#671=CARTESIAN_POINT('',(-0.0669284738182035,0.0922372482493347,-0.00810000000000987));
#672=CARTESIAN_POINT('',(-0.0688093532518886,0.0974056418639833,-0.00810000000000987));
#673=CARTESIAN_POINT('',(-0.0706902326855738,0.102574035478632,-0.00810000000000987));
#674=CARTESIAN_POINT('',(-0.0608650602443457,0.106149607726987,-0.00810000000000987));
#675=CARTESIAN_POINT('',(-0.0666807418058102,0.104033167560585,-0.00810000000000987));
#676=CARTESIAN_POINT('',(-0.069005447762725,0.110421134385292,-0.00810000000000987));
#677=CARTESIAN_POINT('',(-0.0601054477747968,0.104062298903831,0.00809999999999013));
#678=CARTESIAN_POINT('',(-0.0509079171866057,0.103920324266111,0.00809999999999013));
#679=CARTESIAN_POINT('',(-0.0490270377529206,0.0987519306514624,0.00809999999999013));
#680=CARTESIAN_POINT('',(-0.0454079171921161,0.103920078065688,0.00809999999999013));
#681=CARTESIAN_POINT('',(-0.0454076262279805,0.110420078059176,0.00809999999999013));
#682=CARTESIAN_POINT('',(-0.069005447762725,0.110421134385292,0.00809999999999013));
#683=CARTESIAN_POINT('',(-0.0666807418058101,0.104033167560585,0.00809999999999013));
#684=CARTESIAN_POINT('',(-0.0706902326855738,0.102574035478632,0.00809999999999013));
#685=CARTESIAN_POINT('',(-0.0706902326855738,0.102574035478632,0.00809999999999013));
#686=CARTESIAN_POINT('',(-0.0688093532518886,0.0974056418639833,0.00809999999999013));
#687=CARTESIAN_POINT('',(-0.0669284738182035,0.0922372482493347,0.00809999999999013));
#688=CARTESIAN_POINT('',(-0.0490270377529206,0.0987519306514624,0.00809999999999013));
#689=CARTESIAN_POINT('',(-0.069005447762725,0.110421134385292,0.00759999999999013));
#690=CARTESIAN_POINT('',(-0.0666807418058101,0.104033167560585,0.00759999999999013));
#691=CARTESIAN_POINT('',(-0.068685487245692,0.103303601519608,0.00759999999999013));
#692=CARTESIAN_POINT('',(-0.0706902326855738,0.102574035478632,0.00759999999999013));
#693=CARTESIAN_POINT('',(-0.0688093532518886,0.0974056418639833,0.00759999999999013));
#694=CARTESIAN_POINT('',(-0.0669284738182035,0.0922372482493347,0.00759999999999013));
#695=CARTESIAN_POINT('',(-0.057977755785562,0.0954945894503986,0.00759999999999013));
#696=CARTESIAN_POINT('',(-0.0490270377529206,0.0987519306514624,0.00759999999999013));
#697=CARTESIAN_POINT('',(-0.0509079171866057,0.103920324266111,0.00759999999999013));
#698=CARTESIAN_POINT('',(-0.0454079171921161,0.103920078065688,0.00759999999999013));
#699=CARTESIAN_POINT('',(-0.0454077717100483,0.107170078062432,0.00759999999999013));
#700=CARTESIAN_POINT('',(-0.069005447762725,0.110421134385292,-0.00760000000000987));
#701=CARTESIAN_POINT('',(-0.0666807418058102,0.104033167560585,-0.00760000000000987));
#702=CARTESIAN_POINT('',(-0.0608650602443457,0.106149607726987,-0.00760000000000987));
#703=CARTESIAN_POINT('',(-0.0706902326855738,0.102574035478632,-0.00760000000000987));
#704=CARTESIAN_POINT('',(-0.0688093532518886,0.0974056418639833,-0.00760000000000987));
#705=CARTESIAN_POINT('',(-0.0669284738182035,0.0922372482493347,-0.00760000000000987));
#706=CARTESIAN_POINT('',(-0.0571033013769754,0.0958128204976904,-0.00760000000000987));
#707=CARTESIAN_POINT('',(-0.0490270377529206,0.0987519306514624,-0.00760000000000987));
#708=CARTESIAN_POINT('',(-0.0509079171866057,0.103920324266111,-0.00760000000000987));
#709=CARTESIAN_POINT('',(-0.0454079171921161,0.103920078065688,-0.00760000000000987));
#710=CARTESIAN_POINT('',(-0.0454079108552341,0.104061640987503,-0.00760000000000987));
#711=CARTESIAN_POINT('',(-0.0574079037509818,0.104220615229946,8.08558824116243E-14));
#712=CARTESIAN_POINT('',(-0.0574079037509818,0.104220615229946,8.08558824116243E-14));
#713=CARTESIAN_POINT('',(-0.0605079037478759,0.104220753997456,8.08558824116243E-14));
#714=CARTESIAN_POINT('',(-0.0538079037545863,0.104220454080578,-9.867107058642E-15));
#715=MECHANICAL_DESIGN_GEOMETRIC_PRESENTATION_REPRESENTATION('',(#396),
#716);
#716=(
GEOMETRIC_REPRESENTATION_CONTEXT(3)
GLOBAL_UNCERTAINTY_ASSIGNED_CONTEXT((#717))
GLOBAL_UNIT_ASSIGNED_CONTEXT((#720,#719,#718))
REPRESENTATION_CONTEXT('2f-85_finger','TOP_LEVEL_ASSEMBLY_PART')
);
#717=UNCERTAINTY_MEASURE_WITH_UNIT(LENGTH_MEASURE(1.E-8),#720,
'DISTANCE_ACCURACY_VALUE','Maximum Tolerance applied to model');
#718=(
NAMED_UNIT(*)
SI_UNIT($,.STERADIAN.)
SOLID_ANGLE_UNIT()
);
#719=(
NAMED_UNIT(*)
PLANE_ANGLE_UNIT()
SI_UNIT($,.RADIAN.)
);
#720=(
LENGTH_UNIT()
NAMED_UNIT(*)
SI_UNIT($,.METRE.)
);
#721=PRODUCT_DEFINITION_SHAPE('','',#722);
#722=PRODUCT_DEFINITION('','',#724,#723);
#723=PRODUCT_DEFINITION_CONTEXT('',#730,'design');
#724=PRODUCT_DEFINITION_FORMATION_WITH_SPECIFIED_SOURCE('','',#726,
 .NOT_KNOWN.);
#725=PRODUCT_RELATED_PRODUCT_CATEGORY('','',(#726));
#726=PRODUCT('2f-85_finger','2f-85_finger','2f-85_finger',(#728));
#727=PRODUCT_CATEGORY('','');
#728=PRODUCT_CONTEXT('',#730,'mechanical');
#729=APPLICATION_PROTOCOL_DEFINITION('international standard',
'ap242_managed_model_based_3d_engineering',2020,#730);
#730=APPLICATION_CONTEXT('managed model based 3d engineering');
ENDSEC;
END-ISO-10303-21;
