ISO-10303-21;
HEADER;
/* Generated by software containing ST-Developer
 * from STEP Tools, Inc. (www.steptools.com) 
 */
/* OPTION: using custom renumber hook */

FILE_DESCRIPTION(
/* description */ ('STEP AP242',
'CAx-IF Rec.Pracs.---Representation and Presentation of Product Manufa
cturing Information (PMI)---4.0---2014-10-13',
'CAx-IF Rec.Pracs.---3D Tessellated Geometry---0.4---2014-09-14','2;1'),

/* implementation_level */ '2;1');

FILE_NAME(
/* name */ '62896dd5218d1d41f8dcfde2',
/* time_stamp */ '2022-05-21T22:55:19+00:00',
/* author */ (''),
/* organization */ (''),
/* preprocessor_version */ 'ST-DEVELOPER v18.102',
/* originating_system */ '  ',
/* authorisation */ '  ');

FILE_SCHEMA (('AP242_MANAGED_MODEL_BASED_3D_ENGINEERING_MIM_LF { 1 0 10303 442 1 1 4 }'));
ENDSEC;

DATA;
#10=SHAPE_REPRESENTATION_RELATIONSHIP('','',#665,#11);
#11=ADVANCED_BREP_SHAPE_REPRESENTATION('',(#663),#1203);
#12=VERTEX_LOOP('',#428);
#13=VERTEX_LOOP('',#430);
#14=VERTEX_LOOP('',#439);
#15=VERTEX_LOOP('',#442);
#16=CONICAL_SURFACE('',#708,0.,1.02974425867665);
#17=CONICAL_SURFACE('',#715,0.,1.02974425867665);
#18=CONICAL_SURFACE('',#730,0.001,1.0471975511966);
#19=CONICAL_SURFACE('',#732,7.04731412115578E-18,1.02974425867665);
#20=CONICAL_SURFACE('',#735,0.00745,0.785398163397448);
#21=CONICAL_SURFACE('',#740,3.25260651745652E-19,1.02974425867665);
#22=CONICAL_SURFACE('',#743,0.005,1.44862327915529);
#23=CONICAL_SURFACE('',#744,0.005,1.44862327915529);
#24=TOROIDAL_SURFACE('',#697,0.007725,0.003);
#25=TOROIDAL_SURFACE('',#702,0.015,0.005);
#26=TOROIDAL_SURFACE('',#704,0.007725,0.003);
#27=TOROIDAL_SURFACE('',#729,0.013,0.005);
#28=CYLINDRICAL_SURFACE('',#691,0.010725);
#29=CYLINDRICAL_SURFACE('',#694,0.010725);
#30=CYLINDRICAL_SURFACE('',#699,0.01);
#31=CYLINDRICAL_SURFACE('',#705,0.015);
#32=CYLINDRICAL_SURFACE('',#710,0.002);
#33=CYLINDRICAL_SURFACE('',#711,0.00165);
#34=CYLINDRICAL_SURFACE('',#712,0.015);
#35=CYLINDRICAL_SURFACE('',#717,0.002);
#36=CYLINDRICAL_SURFACE('',#718,0.00165);
#37=CYLINDRICAL_SURFACE('',#719,0.008);
#38=CYLINDRICAL_SURFACE('',#724,0.00795);
#39=CYLINDRICAL_SURFACE('',#734,0.0005);
#40=CYLINDRICAL_SURFACE('',#742,0.0015);
#41=ELLIPSE('',#685,0.0104816861283357,0.002);
#42=ELLIPSE('',#690,0.0104816861283357,0.002);
#43=ELLIPSE('',#692,0.01096747109207,0.010725);
#44=ELLIPSE('',#696,0.01096747109207,0.010725);
#45=ELLIPSE('',#707,0.0104816861283357,0.002);
#46=ELLIPSE('',#714,0.0104816861283357,0.002);
#47=B_SPLINE_CURVE_WITH_KNOTS('',3,(#946,#947,#948,#949),.UNSPECIFIED.,
 .F.,.F.,(4,4),(0.0050258201450875,0.00913058280899362),.UNSPECIFIED.);
#48=B_SPLINE_CURVE_WITH_KNOTS('',3,(#959,#960,#961,#962),.UNSPECIFIED.,
 .F.,.F.,(4,4),(0.00502582014508751,0.00913058280899362),.UNSPECIFIED.);
#49=B_SPLINE_CURVE_WITH_KNOTS('',3,(#1019,#1020,#1021,#1022),
 .UNSPECIFIED.,.F.,.F.,(4,4),(0.0105351754215098,0.011820479626874),
 .UNSPECIFIED.);
#50=B_SPLINE_CURVE_WITH_KNOTS('',3,(#1024,#1025,#1026,#1027),
 .UNSPECIFIED.,.F.,.F.,(4,4),(0.0315443787916139,0.0328223379898701),
 .UNSPECIFIED.);
#51=B_SPLINE_CURVE_WITH_KNOTS('',3,(#1044,#1045,#1046,#1047),
 .UNSPECIFIED.,.F.,.F.,(4,4),(0.0188404817269102,0.0201179676102362),
 .UNSPECIFIED.);
#52=B_SPLINE_CURVE_WITH_KNOTS('',3,(#1049,#1050,#1051,#1052),
 .UNSPECIFIED.,.F.,.F.,(4,4),(0.031544378791614,0.0328223379898702),
 .UNSPECIFIED.);
#53=B_SPLINE_CURVE_WITH_KNOTS('',3,(#1060,#1061,#1062,#1063,#1064,#1065,
#1066),.UNSPECIFIED.,.F.,.F.,(4,1,1,1,4),(0.,0.00335048571165631,0.00670097142331261,
0.0100514571349689,0.0134019428466252),.UNSPECIFIED.);
#54=B_SPLINE_CURVE_WITH_KNOTS('',3,(#1069,#1070,#1071,#1072,#1073,#1074,
#1075,#1076,#1077,#1078,#1079,#1080,#1081,#1082,#1083,#1084,#1085),
 .UNSPECIFIED.,.T.,.F.,(1,1,1,1,1,1,1,1,1,1,1,1,1,1,1,1,1,1,1,1,1),(-0.00225285762514954,
-0.00150190508343303,-0.000750952541716515,0.,0.000750952541716514,0.00150190508343303,
0.00225285762514954,0.00300381016686606,0.00450571525029908,0.0052566677920156,
0.00600762033373211,0.00675857287544863,0.00750952541716514,0.00901143050059817,
0.00976238304231468,0.0105133355840312,0.0112642881257477,0.0120152406674642,
0.0127661932091807,0.0135171457508973,0.0142680982926138),.UNSPECIFIED.);
#55=B_SPLINE_CURVE_WITH_KNOTS('',3,(#1088,#1089,#1090,#1091,#1092,#1093,
#1094),.UNSPECIFIED.,.F.,.F.,(4,1,1,1,4),(0.,0.00335048571165631,0.00670097142331262,
0.0100514571349689,0.0134019428466252),.UNSPECIFIED.);
#56=B_SPLINE_CURVE_WITH_KNOTS('',3,(#1098,#1099,#1100,#1101,#1102,#1103,
#1104,#1105,#1106,#1107,#1108,#1109,#1110,#1111,#1112,#1113,#1114),
 .UNSPECIFIED.,.T.,.F.,(1,1,1,1,1,1,1,1,1,1,1,1,1,1,1,1,1,1,1,1,1),(-0.00225285762514955,
-0.00150190508343304,-0.000750952541716518,0.,0.000750952541716518,0.00150190508343304,
0.00225285762514956,0.00300381016686607,0.00450571525029911,0.00525666779201563,
0.00600762033373215,0.00675857287544867,0.00750952541716518,0.00901143050059822,
0.00976238304231474,0.0105133355840313,0.0112642881257478,0.0120152406674643,
0.0127661932091808,0.0135171457508973,0.0142680982926139),.UNSPECIFIED.);
#57=B_SPLINE_CURVE_WITH_KNOTS('',3,(#1117,#1118,#1119,#1120),
 .UNSPECIFIED.,.F.,.F.,(4,4),(5.72939320430864E-7,0.00272040081449286),
 .UNSPECIFIED.);
#58=B_SPLINE_CURVE_WITH_KNOTS('',3,(#1129,#1130,#1131,#1132,#1133),
 .UNSPECIFIED.,.F.,.F.,(4,1,4),(5.72450178121151E-7,0.00275676541030538,
0.00551295837043264),.UNSPECIFIED.);
#59=B_SPLINE_CURVE_WITH_KNOTS('',3,(#1136,#1137,#1138,#1139,#1140),
 .UNSPECIFIED.,.F.,.F.,(4,1,4),(5.72450178473884E-7,0.00275676541030574,
0.005512958370433),.UNSPECIFIED.);
#60=B_SPLINE_CURVE_WITH_KNOTS('',3,(#1142,#1143,#1144,#1145),
 .UNSPECIFIED.,.F.,.F.,(4,4),(5.72939320426743E-7,0.00272040081449286),
 .UNSPECIFIED.);
#61=LINE('',#940,#93);
#62=LINE('',#944,#94);
#63=LINE('',#951,#95);
#64=LINE('',#953,#96);
#65=LINE('',#955,#97);
#66=LINE('',#957,#98);
#67=LINE('',#965,#99);
#68=LINE('',#967,#100);
#69=LINE('',#969,#101);
#70=LINE('',#971,#102);
#71=LINE('',#973,#103);
#72=LINE('',#979,#104);
#73=LINE('',#983,#105);
#74=LINE('',#985,#106);
#75=LINE('',#987,#107);
#76=LINE('',#991,#108);
#77=LINE('',#993,#109);
#78=LINE('',#997,#110);
#79=LINE('',#999,#111);
#80=LINE('',#1001,#112);
#81=LINE('',#1005,#113);
#82=LINE('',#1007,#114);
#83=LINE('',#1009,#115);
#84=LINE('',#1011,#116);
#85=LINE('',#1015,#117);
#86=LINE('',#1017,#118);
#87=LINE('',#1031,#119);
#88=LINE('',#1034,#120);
#89=LINE('',#1036,#121);
#90=LINE('',#1040,#122);
#91=LINE('',#1042,#123);
#92=LINE('',#1056,#124);
#93=VECTOR('',#751,1.);
#94=VECTOR('',#754,1.);
#95=VECTOR('',#757,1.);
#96=VECTOR('',#758,1.);
#97=VECTOR('',#759,1.);
#98=VECTOR('',#760,1.);
#99=VECTOR('',#763,1.);
#100=VECTOR('',#764,1.);
#101=VECTOR('',#765,1.);
#102=VECTOR('',#766,1.);
#103=VECTOR('',#767,1.);
#104=VECTOR('',#774,1.);
#105=VECTOR('',#779,1.);
#106=VECTOR('',#780,1.);
#107=VECTOR('',#781,1.);
#108=VECTOR('',#784,1.);
#109=VECTOR('',#785,1.);
#110=VECTOR('',#790,1.);
#111=VECTOR('',#791,1.);
#112=VECTOR('',#792,1.);
#113=VECTOR('',#795,1.);
#114=VECTOR('',#796,1.);
#115=VECTOR('',#799,1.);
#116=VECTOR('',#800,1.);
#117=VECTOR('',#803,1.);
#118=VECTOR('',#804,1.);
#119=VECTOR('',#809,1.);
#120=VECTOR('',#814,1.);
#121=VECTOR('',#815,1.);
#122=VECTOR('',#818,1.);
#123=VECTOR('',#819,1.);
#124=VECTOR('',#824,1.);
#125=ORIENTED_EDGE('',*,*,#293,.F.);
#126=ORIENTED_EDGE('',*,*,#294,.F.);
#127=ORIENTED_EDGE('',*,*,#295,.T.);
#128=ORIENTED_EDGE('',*,*,#296,.F.);
#129=ORIENTED_EDGE('',*,*,#297,.F.);
#130=ORIENTED_EDGE('',*,*,#298,.T.);
#131=ORIENTED_EDGE('',*,*,#299,.T.);
#132=ORIENTED_EDGE('',*,*,#300,.F.);
#133=ORIENTED_EDGE('',*,*,#301,.T.);
#134=ORIENTED_EDGE('',*,*,#294,.T.);
#135=ORIENTED_EDGE('',*,*,#302,.F.);
#136=ORIENTED_EDGE('',*,*,#303,.T.);
#137=ORIENTED_EDGE('',*,*,#304,.T.);
#138=ORIENTED_EDGE('',*,*,#305,.F.);
#139=ORIENTED_EDGE('',*,*,#306,.T.);
#140=ORIENTED_EDGE('',*,*,#307,.T.);
#141=ORIENTED_EDGE('',*,*,#308,.F.);
#142=ORIENTED_EDGE('',*,*,#307,.F.);
#143=ORIENTED_EDGE('',*,*,#309,.T.);
#144=ORIENTED_EDGE('',*,*,#310,.F.);
#145=ORIENTED_EDGE('',*,*,#311,.F.);
#146=ORIENTED_EDGE('',*,*,#312,.F.);
#147=ORIENTED_EDGE('',*,*,#310,.T.);
#148=ORIENTED_EDGE('',*,*,#313,.T.);
#149=ORIENTED_EDGE('',*,*,#314,.T.);
#150=ORIENTED_EDGE('',*,*,#315,.F.);
#151=ORIENTED_EDGE('',*,*,#316,.T.);
#152=ORIENTED_EDGE('',*,*,#317,.T.);
#153=ORIENTED_EDGE('',*,*,#318,.F.);
#154=ORIENTED_EDGE('',*,*,#319,.F.);
#155=ORIENTED_EDGE('',*,*,#296,.T.);
#156=ORIENTED_EDGE('',*,*,#320,.T.);
#157=ORIENTED_EDGE('',*,*,#321,.T.);
#158=ORIENTED_EDGE('',*,*,#322,.F.);
#159=ORIENTED_EDGE('',*,*,#323,.T.);
#160=ORIENTED_EDGE('',*,*,#324,.T.);
#161=ORIENTED_EDGE('',*,*,#325,.F.);
#162=ORIENTED_EDGE('',*,*,#326,.T.);
#163=ORIENTED_EDGE('',*,*,#327,.F.);
#164=ORIENTED_EDGE('',*,*,#328,.T.);
#165=ORIENTED_EDGE('',*,*,#329,.T.);
#166=ORIENTED_EDGE('',*,*,#330,.T.);
#167=ORIENTED_EDGE('',*,*,#331,.F.);
#168=ORIENTED_EDGE('',*,*,#332,.F.);
#169=ORIENTED_EDGE('',*,*,#299,.F.);
#170=ORIENTED_EDGE('',*,*,#326,.F.);
#171=ORIENTED_EDGE('',*,*,#333,.F.);
#172=ORIENTED_EDGE('',*,*,#316,.F.);
#173=ORIENTED_EDGE('',*,*,#334,.T.);
#174=ORIENTED_EDGE('',*,*,#335,.F.);
#175=ORIENTED_EDGE('',*,*,#336,.T.);
#176=ORIENTED_EDGE('',*,*,#337,.F.);
#177=ORIENTED_EDGE('',*,*,#338,.T.);
#178=ORIENTED_EDGE('',*,*,#339,.T.);
#179=ORIENTED_EDGE('',*,*,#340,.T.);
#180=ORIENTED_EDGE('',*,*,#341,.F.);
#181=ORIENTED_EDGE('',*,*,#342,.F.);
#182=ORIENTED_EDGE('',*,*,#304,.F.);
#183=ORIENTED_EDGE('',*,*,#336,.F.);
#184=ORIENTED_EDGE('',*,*,#343,.F.);
#185=ORIENTED_EDGE('',*,*,#323,.F.);
#186=ORIENTED_EDGE('',*,*,#344,.T.);
#187=ORIENTED_EDGE('',*,*,#339,.F.);
#188=ORIENTED_EDGE('',*,*,#345,.T.);
#189=ORIENTED_EDGE('',*,*,#320,.F.);
#190=ORIENTED_EDGE('',*,*,#295,.F.);
#191=ORIENTED_EDGE('',*,*,#301,.F.);
#192=ORIENTED_EDGE('',*,*,#346,.F.);
#193=ORIENTED_EDGE('',*,*,#347,.T.);
#194=ORIENTED_EDGE('',*,*,#348,.T.);
#195=ORIENTED_EDGE('',*,*,#306,.F.);
#196=ORIENTED_EDGE('',*,*,#349,.F.);
#197=ORIENTED_EDGE('',*,*,#350,.T.);
#198=ORIENTED_EDGE('',*,*,#329,.F.);
#199=ORIENTED_EDGE('',*,*,#351,.T.);
#200=ORIENTED_EDGE('',*,*,#313,.F.);
#201=ORIENTED_EDGE('',*,*,#309,.F.);
#202=ORIENTED_EDGE('',*,*,#352,.T.);
#203=ORIENTED_EDGE('',*,*,#353,.F.);
#204=ORIENTED_EDGE('',*,*,#354,.F.);
#205=ORIENTED_EDGE('',*,*,#330,.F.);
#206=ORIENTED_EDGE('',*,*,#350,.F.);
#207=ORIENTED_EDGE('',*,*,#355,.T.);
#208=ORIENTED_EDGE('',*,*,#356,.T.);
#209=ORIENTED_EDGE('',*,*,#354,.T.);
#210=ORIENTED_EDGE('',*,*,#357,.T.);
#211=ORIENTED_EDGE('',*,*,#341,.T.);
#212=ORIENTED_EDGE('',*,*,#358,.T.);
#213=ORIENTED_EDGE('',*,*,#359,.T.);
#214=ORIENTED_EDGE('',*,*,#331,.T.);
#215=ORIENTED_EDGE('',*,*,#356,.F.);
#216=ORIENTED_EDGE('',*,*,#340,.F.);
#217=ORIENTED_EDGE('',*,*,#347,.F.);
#218=ORIENTED_EDGE('',*,*,#360,.F.);
#219=ORIENTED_EDGE('',*,*,#358,.F.);
#220=ORIENTED_EDGE('',*,*,#346,.T.);
#221=ORIENTED_EDGE('',*,*,#300,.T.);
#222=ORIENTED_EDGE('',*,*,#332,.T.);
#223=ORIENTED_EDGE('',*,*,#359,.F.);
#224=ORIENTED_EDGE('',*,*,#360,.T.);
#225=ORIENTED_EDGE('',*,*,#328,.F.);
#226=ORIENTED_EDGE('',*,*,#361,.T.);
#227=ORIENTED_EDGE('',*,*,#314,.F.);
#228=ORIENTED_EDGE('',*,*,#351,.F.);
#229=ORIENTED_EDGE('',*,*,#362,.T.);
#230=ORIENTED_EDGE('',*,*,#315,.T.);
#231=ORIENTED_EDGE('',*,*,#361,.F.);
#232=ORIENTED_EDGE('',*,*,#327,.T.);
#233=ORIENTED_EDGE('',*,*,#334,.F.);
#234=ORIENTED_EDGE('',*,*,#362,.F.);
#235=ORIENTED_EDGE('',*,*,#352,.F.);
#236=ORIENTED_EDGE('',*,*,#311,.T.);
#237=ORIENTED_EDGE('',*,*,#349,.T.);
#238=ORIENTED_EDGE('',*,*,#305,.T.);
#239=ORIENTED_EDGE('',*,*,#342,.T.);
#240=ORIENTED_EDGE('',*,*,#357,.F.);
#241=ORIENTED_EDGE('',*,*,#353,.T.);
#242=ORIENTED_EDGE('',*,*,#338,.F.);
#243=ORIENTED_EDGE('',*,*,#363,.T.);
#244=ORIENTED_EDGE('',*,*,#321,.F.);
#245=ORIENTED_EDGE('',*,*,#345,.F.);
#246=ORIENTED_EDGE('',*,*,#364,.T.);
#247=ORIENTED_EDGE('',*,*,#322,.T.);
#248=ORIENTED_EDGE('',*,*,#363,.F.);
#249=ORIENTED_EDGE('',*,*,#337,.T.);
#250=ORIENTED_EDGE('',*,*,#344,.F.);
#251=ORIENTED_EDGE('',*,*,#364,.F.);
#252=ORIENTED_EDGE('',*,*,#348,.F.);
#253=ORIENTED_EDGE('',*,*,#318,.T.);
#254=ORIENTED_EDGE('',*,*,#365,.T.);
#255=ORIENTED_EDGE('',*,*,#366,.F.);
#256=ORIENTED_EDGE('',*,*,#367,.F.);
#257=ORIENTED_EDGE('',*,*,#366,.T.);
#258=ORIENTED_EDGE('',*,*,#368,.T.);
#259=ORIENTED_EDGE('',*,*,#367,.T.);
#260=ORIENTED_EDGE('',*,*,#369,.T.);
#261=ORIENTED_EDGE('',*,*,#370,.F.);
#262=ORIENTED_EDGE('',*,*,#355,.F.);
#263=ORIENTED_EDGE('',*,*,#365,.F.);
#264=ORIENTED_EDGE('',*,*,#371,.T.);
#265=ORIENTED_EDGE('',*,*,#370,.T.);
#266=ORIENTED_EDGE('',*,*,#372,.T.);
#267=ORIENTED_EDGE('',*,*,#371,.F.);
#268=ORIENTED_EDGE('',*,*,#372,.F.);
#269=ORIENTED_EDGE('',*,*,#368,.F.);
#270=ORIENTED_EDGE('',*,*,#369,.F.);
#271=ORIENTED_EDGE('',*,*,#373,.F.);
#272=ORIENTED_EDGE('',*,*,#298,.F.);
#273=ORIENTED_EDGE('',*,*,#374,.T.);
#274=ORIENTED_EDGE('',*,*,#324,.F.);
#275=ORIENTED_EDGE('',*,*,#343,.T.);
#276=ORIENTED_EDGE('',*,*,#335,.T.);
#277=ORIENTED_EDGE('',*,*,#303,.F.);
#278=ORIENTED_EDGE('',*,*,#375,.T.);
#279=ORIENTED_EDGE('',*,*,#317,.F.);
#280=ORIENTED_EDGE('',*,*,#333,.T.);
#281=ORIENTED_EDGE('',*,*,#325,.T.);
#282=ORIENTED_EDGE('',*,*,#376,.T.);
#283=ORIENTED_EDGE('',*,*,#376,.F.);
#284=ORIENTED_EDGE('',*,*,#373,.T.);
#285=ORIENTED_EDGE('',*,*,#297,.T.);
#286=ORIENTED_EDGE('',*,*,#293,.T.);
#287=ORIENTED_EDGE('',*,*,#319,.T.);
#288=ORIENTED_EDGE('',*,*,#374,.F.);
#289=ORIENTED_EDGE('',*,*,#302,.T.);
#290=ORIENTED_EDGE('',*,*,#308,.T.);
#291=ORIENTED_EDGE('',*,*,#312,.T.);
#292=ORIENTED_EDGE('',*,*,#375,.F.);
#293=EDGE_CURVE('',#377,#378,#443,.T.);
#294=EDGE_CURVE('',#379,#377,#61,.T.);
#295=EDGE_CURVE('',#379,#380,#444,.T.);
#296=EDGE_CURVE('',#378,#380,#62,.F.);
#297=EDGE_CURVE('',#381,#377,#47,.T.);
#298=EDGE_CURVE('',#381,#382,#63,.T.);
#299=EDGE_CURVE('',#382,#383,#64,.T.);
#300=EDGE_CURVE('',#384,#383,#65,.T.);
#301=EDGE_CURVE('',#384,#379,#66,.T.);
#302=EDGE_CURVE('',#385,#386,#48,.T.);
#303=EDGE_CURVE('',#385,#387,#67,.T.);
#304=EDGE_CURVE('',#387,#388,#68,.T.);
#305=EDGE_CURVE('',#389,#388,#69,.T.);
#306=EDGE_CURVE('',#389,#390,#70,.T.);
#307=EDGE_CURVE('',#390,#386,#71,.T.);
#308=EDGE_CURVE('',#386,#391,#445,.T.);
#309=EDGE_CURVE('',#390,#392,#446,.T.);
#310=EDGE_CURVE('',#391,#392,#72,.F.);
#311=EDGE_CURVE('',#393,#393,#447,.T.);
#312=EDGE_CURVE('',#391,#394,#73,.F.);
#313=EDGE_CURVE('',#392,#395,#74,.F.);
#314=EDGE_CURVE('',#395,#396,#75,.F.);
#315=EDGE_CURVE('',#397,#396,#448,.F.);
#316=EDGE_CURVE('',#397,#398,#76,.F.);
#317=EDGE_CURVE('',#398,#394,#77,.F.);
#318=EDGE_CURVE('',#399,#399,#449,.T.);
#319=EDGE_CURVE('',#378,#400,#78,.F.);
#320=EDGE_CURVE('',#380,#401,#79,.F.);
#321=EDGE_CURVE('',#401,#402,#80,.F.);
#322=EDGE_CURVE('',#403,#402,#450,.F.);
#323=EDGE_CURVE('',#403,#404,#81,.F.);
#324=EDGE_CURVE('',#404,#400,#82,.F.);
#325=EDGE_CURVE('',#405,#382,#83,.T.);
#326=EDGE_CURVE('',#405,#406,#84,.F.);
#327=EDGE_CURVE('',#407,#406,#451,.T.);
#328=EDGE_CURVE('',#407,#408,#85,.F.);
#329=EDGE_CURVE('',#408,#409,#86,.F.);
#330=EDGE_CURVE('',#409,#410,#49,.T.);
#331=EDGE_CURVE('',#411,#410,#50,.T.);
#332=EDGE_CURVE('',#383,#411,#452,.T.);
#333=EDGE_CURVE('',#398,#405,#87,.F.);
#334=EDGE_CURVE('',#397,#406,#41,.T.);
#335=EDGE_CURVE('',#412,#387,#88,.T.);
#336=EDGE_CURVE('',#412,#413,#89,.F.);
#337=EDGE_CURVE('',#414,#413,#453,.T.);
#338=EDGE_CURVE('',#414,#415,#90,.F.);
#339=EDGE_CURVE('',#415,#416,#91,.F.);
#340=EDGE_CURVE('',#416,#417,#51,.T.);
#341=EDGE_CURVE('',#418,#417,#52,.T.);
#342=EDGE_CURVE('',#388,#418,#454,.T.);
#343=EDGE_CURVE('',#404,#412,#92,.F.);
#344=EDGE_CURVE('',#403,#413,#42,.T.);
#345=EDGE_CURVE('',#415,#401,#43,.T.);
#346=EDGE_CURVE('',#419,#384,#53,.T.);
#347=EDGE_CURVE('',#419,#416,#455,.F.);
#348=EDGE_CURVE('',#420,#420,#54,.T.);
#349=EDGE_CURVE('',#421,#389,#55,.T.);
#350=EDGE_CURVE('',#421,#409,#456,.F.);
#351=EDGE_CURVE('',#408,#395,#44,.T.);
#352=EDGE_CURVE('',#422,#422,#56,.T.);
#353=EDGE_CURVE('',#423,#421,#57,.T.);
#354=EDGE_CURVE('',#410,#423,#457,.T.);
#355=EDGE_CURVE('',#424,#424,#458,.F.);
#356=EDGE_CURVE('',#425,#425,#459,.F.);
#357=EDGE_CURVE('',#423,#418,#58,.T.);
#358=EDGE_CURVE('',#417,#426,#460,.T.);
#359=EDGE_CURVE('',#426,#411,#59,.T.);
#360=EDGE_CURVE('',#426,#419,#60,.T.);
#361=EDGE_CURVE('',#407,#396,#45,.T.);
#362=EDGE_CURVE('',#427,#427,#461,.T.);
#363=EDGE_CURVE('',#414,#402,#46,.T.);
#364=EDGE_CURVE('',#429,#429,#462,.T.);
#365=EDGE_CURVE('',#431,#431,#463,.T.);
#366=EDGE_CURVE('',#432,#432,#464,.T.);
#367=EDGE_CURVE('',#433,#433,#465,.T.);
#368=EDGE_CURVE('',#434,#434,#466,.F.);
#369=EDGE_CURVE('',#435,#435,#467,.T.);
#370=EDGE_CURVE('',#436,#436,#468,.T.);
#371=EDGE_CURVE('',#437,#437,#469,.F.);
#372=EDGE_CURVE('',#438,#438,#470,.T.);
#373=EDGE_CURVE('',#440,#440,#471,.T.);
#374=EDGE_CURVE('',#381,#400,#472,.T.);
#375=EDGE_CURVE('',#385,#394,#473,.T.);
#376=EDGE_CURVE('',#441,#441,#474,.T.);
#377=VERTEX_POINT('',#938);
#378=VERTEX_POINT('',#939);
#379=VERTEX_POINT('',#941);
#380=VERTEX_POINT('',#943);
#381=VERTEX_POINT('',#950);
#382=VERTEX_POINT('',#952);
#383=VERTEX_POINT('',#954);
#384=VERTEX_POINT('',#956);
#385=VERTEX_POINT('',#963);
#386=VERTEX_POINT('',#964);
#387=VERTEX_POINT('',#966);
#388=VERTEX_POINT('',#968);
#389=VERTEX_POINT('',#970);
#390=VERTEX_POINT('',#972);
#391=VERTEX_POINT('',#976);
#392=VERTEX_POINT('',#978);
#393=VERTEX_POINT('',#982);
#394=VERTEX_POINT('',#984);
#395=VERTEX_POINT('',#986);
#396=VERTEX_POINT('',#988);
#397=VERTEX_POINT('',#990);
#398=VERTEX_POINT('',#992);
#399=VERTEX_POINT('',#996);
#400=VERTEX_POINT('',#998);
#401=VERTEX_POINT('',#1000);
#402=VERTEX_POINT('',#1002);
#403=VERTEX_POINT('',#1004);
#404=VERTEX_POINT('',#1006);
#405=VERTEX_POINT('',#1010);
#406=VERTEX_POINT('',#1012);
#407=VERTEX_POINT('',#1014);
#408=VERTEX_POINT('',#1016);
#409=VERTEX_POINT('',#1018);
#410=VERTEX_POINT('',#1023);
#411=VERTEX_POINT('',#1028);
#412=VERTEX_POINT('',#1035);
#413=VERTEX_POINT('',#1037);
#414=VERTEX_POINT('',#1039);
#415=VERTEX_POINT('',#1041);
#416=VERTEX_POINT('',#1043);
#417=VERTEX_POINT('',#1048);
#418=VERTEX_POINT('',#1053);
#419=VERTEX_POINT('',#1067);
#420=VERTEX_POINT('',#1086);
#421=VERTEX_POINT('',#1095);
#422=VERTEX_POINT('',#1115);
#423=VERTEX_POINT('',#1121);
#424=VERTEX_POINT('',#1125);
#425=VERTEX_POINT('',#1127);
#426=VERTEX_POINT('',#1135);
#427=VERTEX_POINT('',#1151);
#428=VERTEX_POINT('',#1152);
#429=VERTEX_POINT('',#1160);
#430=VERTEX_POINT('',#1161);
#431=VERTEX_POINT('',#1166);
#432=VERTEX_POINT('',#1168);
#433=VERTEX_POINT('',#1171);
#434=VERTEX_POINT('',#1174);
#435=VERTEX_POINT('',#1177);
#436=VERTEX_POINT('',#1179);
#437=VERTEX_POINT('',#1183);
#438=VERTEX_POINT('',#1186);
#439=VERTEX_POINT('',#1187);
#440=VERTEX_POINT('',#1192);
#441=VERTEX_POINT('',#1197);
#442=VERTEX_POINT('',#1198);
#443=CIRCLE('',#668,0.00907217321398731);
#444=CIRCLE('',#669,0.010725);
#445=CIRCLE('',#673,0.00907217321398731);
#446=CIRCLE('',#674,0.010725);
#447=CIRCLE('',#676,0.00165);
#448=CIRCLE('',#677,0.002);
#449=CIRCLE('',#679,0.00165);
#450=CIRCLE('',#680,0.002);
#451=CIRCLE('',#682,0.002);
#452=CIRCLE('',#683,0.015);
#453=CIRCLE('',#687,0.002);
#454=CIRCLE('',#688,0.015);
#455=CIRCLE('',#693,0.010725);
#456=CIRCLE('',#695,0.010725);
#457=CIRCLE('',#698,0.010453125);
#458=CIRCLE('',#700,0.01);
#459=CIRCLE('',#701,0.01);
#460=CIRCLE('',#703,0.010453125);
#461=CIRCLE('',#709,0.002);
#462=CIRCLE('',#716,0.002);
#463=CIRCLE('',#720,0.008);
#464=CIRCLE('',#721,0.008);
#465=CIRCLE('',#723,0.00795);
#466=CIRCLE('',#725,0.00795);
#467=CIRCLE('',#727,0.00745);
#468=CIRCLE('',#728,0.001);
#469=CIRCLE('',#731,0.0005);
#470=CIRCLE('',#733,0.0005);
#471=CIRCLE('',#737,0.0015);
#472=CIRCLE('',#738,0.005);
#473=CIRCLE('',#739,0.005);
#474=CIRCLE('',#741,0.0015);
#475=EDGE_LOOP('',(#125,#126,#127,#128));
#476=EDGE_LOOP('',(#129,#130,#131,#132,#133,#134));
#477=EDGE_LOOP('',(#135,#136,#137,#138,#139,#140));
#478=EDGE_LOOP('',(#141,#142,#143,#144));
#479=EDGE_LOOP('',(#145));
#480=EDGE_LOOP('',(#146,#147,#148,#149,#150,#151,#152));
#481=EDGE_LOOP('',(#153));
#482=EDGE_LOOP('',(#154,#155,#156,#157,#158,#159,#160));
#483=EDGE_LOOP('',(#161,#162,#163,#164,#165,#166,#167,#168,#169));
#484=EDGE_LOOP('',(#170,#171,#172,#173));
#485=EDGE_LOOP('',(#174,#175,#176,#177,#178,#179,#180,#181,#182));
#486=EDGE_LOOP('',(#183,#184,#185,#186));
#487=EDGE_LOOP('',(#187,#188,#189,#190,#191,#192,#193));
#488=EDGE_LOOP('',(#194));
#489=EDGE_LOOP('',(#195,#196,#197,#198,#199,#200,#201));
#490=EDGE_LOOP('',(#202));
#491=EDGE_LOOP('',(#203,#204,#205,#206));
#492=EDGE_LOOP('',(#207));
#493=EDGE_LOOP('',(#208));
#494=EDGE_LOOP('',(#209,#210,#211,#212,#213,#214));
#495=EDGE_LOOP('',(#215));
#496=EDGE_LOOP('',(#216,#217,#218,#219));
#497=EDGE_LOOP('',(#220,#221,#222,#223,#224));
#498=EDGE_LOOP('',(#225,#226,#227,#228));
#499=EDGE_LOOP('',(#229));
#500=EDGE_LOOP('',(#230,#231,#232,#233));
#501=EDGE_LOOP('',(#234));
#502=EDGE_LOOP('',(#235));
#503=EDGE_LOOP('',(#236));
#504=EDGE_LOOP('',(#237,#238,#239,#240,#241));
#505=EDGE_LOOP('',(#242,#243,#244,#245));
#506=EDGE_LOOP('',(#246));
#507=EDGE_LOOP('',(#247,#248,#249,#250));
#508=EDGE_LOOP('',(#251));
#509=EDGE_LOOP('',(#252));
#510=EDGE_LOOP('',(#253));
#511=EDGE_LOOP('',(#254));
#512=EDGE_LOOP('',(#255));
#513=EDGE_LOOP('',(#256));
#514=EDGE_LOOP('',(#257));
#515=EDGE_LOOP('',(#258));
#516=EDGE_LOOP('',(#259));
#517=EDGE_LOOP('',(#260));
#518=EDGE_LOOP('',(#261));
#519=EDGE_LOOP('',(#262));
#520=EDGE_LOOP('',(#263));
#521=EDGE_LOOP('',(#264));
#522=EDGE_LOOP('',(#265));
#523=EDGE_LOOP('',(#266));
#524=EDGE_LOOP('',(#267));
#525=EDGE_LOOP('',(#268));
#526=EDGE_LOOP('',(#269));
#527=EDGE_LOOP('',(#270));
#528=EDGE_LOOP('',(#271));
#529=EDGE_LOOP('',(#272,#273,#274,#275,#276,#277,#278,#279,#280,#281));
#530=EDGE_LOOP('',(#282));
#531=EDGE_LOOP('',(#283));
#532=EDGE_LOOP('',(#284));
#533=EDGE_LOOP('',(#285,#286,#287,#288));
#534=EDGE_LOOP('',(#289,#290,#291,#292));
#535=FACE_BOUND('',#475,.T.);
#536=FACE_BOUND('',#476,.T.);
#537=FACE_BOUND('',#477,.T.);
#538=FACE_BOUND('',#478,.T.);
#539=FACE_BOUND('',#479,.T.);
#540=FACE_BOUND('',#480,.T.);
#541=FACE_BOUND('',#481,.T.);
#542=FACE_BOUND('',#482,.T.);
#543=FACE_BOUND('',#483,.T.);
#544=FACE_BOUND('',#484,.T.);
#545=FACE_BOUND('',#485,.T.);
#546=FACE_BOUND('',#486,.T.);
#547=FACE_BOUND('',#487,.T.);
#548=FACE_BOUND('',#488,.T.);
#549=FACE_BOUND('',#489,.T.);
#550=FACE_BOUND('',#490,.T.);
#551=FACE_BOUND('',#491,.T.);
#552=FACE_BOUND('',#492,.T.);
#553=FACE_BOUND('',#493,.T.);
#554=FACE_BOUND('',#494,.T.);
#555=FACE_BOUND('',#495,.T.);
#556=FACE_BOUND('',#496,.T.);
#557=FACE_BOUND('',#497,.T.);
#558=FACE_BOUND('',#498,.T.);
#559=FACE_BOUND('',#499,.T.);
#560=FACE_BOUND('',#12,.T.);
#561=FACE_BOUND('',#500,.T.);
#562=FACE_BOUND('',#501,.T.);
#563=FACE_BOUND('',#502,.T.);
#564=FACE_BOUND('',#503,.T.);
#565=FACE_BOUND('',#504,.T.);
#566=FACE_BOUND('',#505,.T.);
#567=FACE_BOUND('',#506,.T.);
#568=FACE_BOUND('',#13,.T.);
#569=FACE_BOUND('',#507,.T.);
#570=FACE_BOUND('',#508,.T.);
#571=FACE_BOUND('',#509,.T.);
#572=FACE_BOUND('',#510,.T.);
#573=FACE_BOUND('',#511,.T.);
#574=FACE_BOUND('',#512,.T.);
#575=FACE_BOUND('',#513,.T.);
#576=FACE_BOUND('',#514,.T.);
#577=FACE_BOUND('',#515,.T.);
#578=FACE_BOUND('',#516,.T.);
#579=FACE_BOUND('',#517,.T.);
#580=FACE_BOUND('',#518,.T.);
#581=FACE_BOUND('',#519,.T.);
#582=FACE_BOUND('',#520,.T.);
#583=FACE_BOUND('',#521,.T.);
#584=FACE_BOUND('',#522,.T.);
#585=FACE_BOUND('',#523,.T.);
#586=FACE_BOUND('',#14,.T.);
#587=FACE_BOUND('',#524,.T.);
#588=FACE_BOUND('',#525,.T.);
#589=FACE_BOUND('',#526,.T.);
#590=FACE_BOUND('',#527,.T.);
#591=FACE_BOUND('',#528,.T.);
#592=FACE_BOUND('',#529,.T.);
#593=FACE_BOUND('',#530,.T.);
#594=FACE_BOUND('',#15,.T.);
#595=FACE_BOUND('',#531,.T.);
#596=FACE_BOUND('',#532,.T.);
#597=FACE_BOUND('',#533,.T.);
#598=FACE_BOUND('',#534,.T.);
#599=PLANE('',#667);
#600=PLANE('',#670);
#601=PLANE('',#671);
#602=PLANE('',#672);
#603=PLANE('',#675);
#604=PLANE('',#678);
#605=PLANE('',#681);
#606=PLANE('',#684);
#607=PLANE('',#686);
#608=PLANE('',#689);
#609=PLANE('',#706);
#610=PLANE('',#713);
#611=PLANE('',#722);
#612=PLANE('',#726);
#613=PLANE('',#736);
#614=ADVANCED_FACE('',(#535),#599,.T.);
#615=ADVANCED_FACE('',(#536),#600,.F.);
#616=ADVANCED_FACE('',(#537),#601,.F.);
#617=ADVANCED_FACE('',(#538),#602,.T.);
#618=ADVANCED_FACE('',(#539,#540),#603,.F.);
#619=ADVANCED_FACE('',(#541,#542),#604,.F.);
#620=ADVANCED_FACE('',(#543),#605,.F.);
#621=ADVANCED_FACE('',(#544),#606,.F.);
#622=ADVANCED_FACE('',(#545),#607,.F.);
#623=ADVANCED_FACE('',(#546),#608,.F.);
#624=ADVANCED_FACE('',(#547,#548),#28,.T.);
#625=ADVANCED_FACE('',(#549,#550),#29,.T.);
#626=ADVANCED_FACE('',(#551),#24,.T.);
#627=ADVANCED_FACE('',(#552,#553),#30,.T.);
#628=ADVANCED_FACE('',(#554,#555),#25,.F.);
#629=ADVANCED_FACE('',(#556),#26,.T.);
#630=ADVANCED_FACE('',(#557),#31,.F.);
#631=ADVANCED_FACE('',(#558),#609,.F.);
#632=ADVANCED_FACE('',(#559,#560),#16,.F.);
#633=ADVANCED_FACE('',(#561,#562),#32,.F.);
#634=ADVANCED_FACE('',(#563,#564),#33,.F.);
#635=ADVANCED_FACE('',(#565),#34,.F.);
#636=ADVANCED_FACE('',(#566),#610,.F.);
#637=ADVANCED_FACE('',(#567,#568),#17,.F.);
#638=ADVANCED_FACE('',(#569,#570),#35,.F.);
#639=ADVANCED_FACE('',(#571,#572),#36,.F.);
#640=ADVANCED_FACE('',(#573,#574),#37,.T.);
#641=ADVANCED_FACE('',(#575,#576),#611,.T.);
#642=ADVANCED_FACE('',(#577,#578),#38,.T.);
#643=ADVANCED_FACE('',(#579,#580),#612,.T.);
#644=ADVANCED_FACE('',(#581,#582),#27,.F.);
#645=ADVANCED_FACE('',(#583,#584),#18,.F.);
#646=ADVANCED_FACE('',(#585,#586),#19,.F.);
#647=ADVANCED_FACE('',(#587,#588),#39,.F.);
#648=ADVANCED_FACE('',(#589,#590),#20,.T.);
#649=ADVANCED_FACE('',(#591,#592),#613,.T.);
#650=ADVANCED_FACE('',(#593,#594),#21,.F.);
#651=ADVANCED_FACE('',(#595,#596),#40,.F.);
#652=ADVANCED_FACE('',(#597),#22,.F.);
#653=ADVANCED_FACE('',(#598),#23,.F.);
#654=CLOSED_SHELL('',(#614,#615,#616,#617,#618,#619,#620,#621,#622,#623,
#624,#625,#626,#627,#628,#629,#630,#631,#632,#633,#634,#635,#636,#637,#638,
#639,#640,#641,#642,#643,#644,#645,#646,#647,#648,#649,#650,#651,#652,#653));
#655=STYLED_ITEM('',(#656),#663);
#656=PRESENTATION_STYLE_ASSIGNMENT((#657));
#657=SURFACE_STYLE_USAGE(.BOTH.,#658);
#658=SURFACE_SIDE_STYLE('',(#659));
#659=SURFACE_STYLE_FILL_AREA(#660);
#660=FILL_AREA_STYLE('',(#661));
#661=FILL_AREA_STYLE_COLOUR('',#662);
#662=COLOUR_RGB('',0.615686274509804,0.811764705882353,0.929411764705882);
#663=MANIFOLD_SOLID_BREP('25mm 2 Flute Insert Endmill Holder',#654);
#664=SHAPE_DEFINITION_REPRESENTATION(#1208,#665);
#665=SHAPE_REPRESENTATION('25mm 2 Flute Insert Endmill Holder',(#666),#1203);
#666=AXIS2_PLACEMENT_3D('',#935,#745,#746);
#667=AXIS2_PLACEMENT_3D('',#936,#747,#748);
#668=AXIS2_PLACEMENT_3D('',#937,#749,#750);
#669=AXIS2_PLACEMENT_3D('',#942,#752,#753);
#670=AXIS2_PLACEMENT_3D('',#945,#755,#756);
#671=AXIS2_PLACEMENT_3D('',#958,#761,#762);
#672=AXIS2_PLACEMENT_3D('',#974,#768,#769);
#673=AXIS2_PLACEMENT_3D('',#975,#770,#771);
#674=AXIS2_PLACEMENT_3D('',#977,#772,#773);
#675=AXIS2_PLACEMENT_3D('',#980,#775,#776);
#676=AXIS2_PLACEMENT_3D('',#981,#777,#778);
#677=AXIS2_PLACEMENT_3D('',#989,#782,#783);
#678=AXIS2_PLACEMENT_3D('',#994,#786,#787);
#679=AXIS2_PLACEMENT_3D('',#995,#788,#789);
#680=AXIS2_PLACEMENT_3D('',#1003,#793,#794);
#681=AXIS2_PLACEMENT_3D('',#1008,#797,#798);
#682=AXIS2_PLACEMENT_3D('',#1013,#801,#802);
#683=AXIS2_PLACEMENT_3D('',#1029,#805,#806);
#684=AXIS2_PLACEMENT_3D('',#1030,#807,#808);
#685=AXIS2_PLACEMENT_3D('',#1032,#810,#811);
#686=AXIS2_PLACEMENT_3D('',#1033,#812,#813);
#687=AXIS2_PLACEMENT_3D('',#1038,#816,#817);
#688=AXIS2_PLACEMENT_3D('',#1054,#820,#821);
#689=AXIS2_PLACEMENT_3D('',#1055,#822,#823);
#690=AXIS2_PLACEMENT_3D('',#1057,#825,#826);
#691=AXIS2_PLACEMENT_3D('',#1058,#827,#828);
#692=AXIS2_PLACEMENT_3D('',#1059,#829,#830);
#693=AXIS2_PLACEMENT_3D('',#1068,#831,#832);
#694=AXIS2_PLACEMENT_3D('',#1087,#833,#834);
#695=AXIS2_PLACEMENT_3D('',#1096,#835,#836);
#696=AXIS2_PLACEMENT_3D('',#1097,#837,#838);
#697=AXIS2_PLACEMENT_3D('',#1116,#839,#840);
#698=AXIS2_PLACEMENT_3D('',#1122,#841,#842);
#699=AXIS2_PLACEMENT_3D('',#1123,#843,#844);
#700=AXIS2_PLACEMENT_3D('',#1124,#845,#846);
#701=AXIS2_PLACEMENT_3D('',#1126,#847,#848);
#702=AXIS2_PLACEMENT_3D('',#1128,#849,#850);
#703=AXIS2_PLACEMENT_3D('',#1134,#851,#852);
#704=AXIS2_PLACEMENT_3D('',#1141,#853,#854);
#705=AXIS2_PLACEMENT_3D('',#1146,#855,#856);
#706=AXIS2_PLACEMENT_3D('',#1147,#857,#858);
#707=AXIS2_PLACEMENT_3D('',#1148,#859,#860);
#708=AXIS2_PLACEMENT_3D('',#1149,#861,#862);
#709=AXIS2_PLACEMENT_3D('',#1150,#863,#864);
#710=AXIS2_PLACEMENT_3D('',#1153,#865,#866);
#711=AXIS2_PLACEMENT_3D('',#1154,#867,#868);
#712=AXIS2_PLACEMENT_3D('',#1155,#869,#870);
#713=AXIS2_PLACEMENT_3D('',#1156,#871,#872);
#714=AXIS2_PLACEMENT_3D('',#1157,#873,#874);
#715=AXIS2_PLACEMENT_3D('',#1158,#875,#876);
#716=AXIS2_PLACEMENT_3D('',#1159,#877,#878);
#717=AXIS2_PLACEMENT_3D('',#1162,#879,#880);
#718=AXIS2_PLACEMENT_3D('',#1163,#881,#882);
#719=AXIS2_PLACEMENT_3D('',#1164,#883,#884);
#720=AXIS2_PLACEMENT_3D('',#1165,#885,#886);
#721=AXIS2_PLACEMENT_3D('',#1167,#887,#888);
#722=AXIS2_PLACEMENT_3D('',#1169,#889,#890);
#723=AXIS2_PLACEMENT_3D('',#1170,#891,#892);
#724=AXIS2_PLACEMENT_3D('',#1172,#893,#894);
#725=AXIS2_PLACEMENT_3D('',#1173,#895,#896);
#726=AXIS2_PLACEMENT_3D('',#1175,#897,#898);
#727=AXIS2_PLACEMENT_3D('',#1176,#899,#900);
#728=AXIS2_PLACEMENT_3D('',#1178,#901,#902);
#729=AXIS2_PLACEMENT_3D('',#1180,#903,#904);
#730=AXIS2_PLACEMENT_3D('',#1181,#905,#906);
#731=AXIS2_PLACEMENT_3D('',#1182,#907,#908);
#732=AXIS2_PLACEMENT_3D('',#1184,#909,#910);
#733=AXIS2_PLACEMENT_3D('',#1185,#911,#912);
#734=AXIS2_PLACEMENT_3D('',#1188,#913,#914);
#735=AXIS2_PLACEMENT_3D('',#1189,#915,#916);
#736=AXIS2_PLACEMENT_3D('',#1190,#917,#918);
#737=AXIS2_PLACEMENT_3D('',#1191,#919,#920);
#738=AXIS2_PLACEMENT_3D('',#1193,#921,#922);
#739=AXIS2_PLACEMENT_3D('',#1194,#923,#924);
#740=AXIS2_PLACEMENT_3D('',#1195,#925,#926);
#741=AXIS2_PLACEMENT_3D('',#1196,#927,#928);
#742=AXIS2_PLACEMENT_3D('',#1199,#929,#930);
#743=AXIS2_PLACEMENT_3D('',#1200,#931,#932);
#744=AXIS2_PLACEMENT_3D('',#1201,#933,#934);
#745=DIRECTION('',(0.,0.,1.));
#746=DIRECTION('',(1.,0.,0.));
#747=DIRECTION('',(0.,-1.,0.));
#748=DIRECTION('',(1.,0.,0.));
#749=DIRECTION('',(0.,-1.,0.));
#750=DIRECTION('',(0.,0.,-1.));
#751=DIRECTION('',(1.,0.,0.));
#752=DIRECTION('',(0.,-1.,0.));
#753=DIRECTION('',(0.,0.,-1.));
#754=DIRECTION('',(1.22464679914735E-16,-3.08148791101958E-33,1.));
#755=DIRECTION('',(0.,0.,-1.));
#756=DIRECTION('',(-1.,0.,0.));
#757=DIRECTION('',(1.,0.,0.));
#758=DIRECTION('',(0.,1.,0.));
#759=DIRECTION('',(1.,0.,0.));
#760=DIRECTION('',(0.,-1.,0.));
#761=DIRECTION('',(1.22464679914735E-16,0.,1.));
#762=DIRECTION('',(1.,0.,-1.22464679914735E-16));
#763=DIRECTION('',(-1.,0.,1.22464679914735E-16));
#764=DIRECTION('',(0.,1.,0.));
#765=DIRECTION('',(-1.,0.,1.22464679914735E-16));
#766=DIRECTION('',(0.,-1.,0.));
#767=DIRECTION('',(-1.,0.,1.22464679914735E-16));
#768=DIRECTION('',(0.,-1.,0.));
#769=DIRECTION('',(1.,0.,0.));
#770=DIRECTION('',(0.,-1.,0.));
#771=DIRECTION('',(0.,0.,-1.));
#772=DIRECTION('',(0.,-1.,0.));
#773=DIRECTION('',(0.,0.,-1.));
#774=DIRECTION('',(0.,0.,-1.));
#775=DIRECTION('',(1.,0.,0.));
#776=DIRECTION('',(0.,1.,0.));
#777=DIRECTION('',(-1.,0.,0.));
#778=DIRECTION('',(0.,0.,1.));
#779=DIRECTION('',(0.,-0.121869343405147,0.992546151641322));
#780=DIRECTION('',(0.,-1.,0.));
#781=DIRECTION('',(0.,-0.0871557427476584,0.996194698091745));
#782=DIRECTION('',(1.,0.,0.));
#783=DIRECTION('',(0.,0.,-1.));
#784=DIRECTION('',(0.,1.,1.14258757072288E-16));
#785=DIRECTION('',(0.,0.,-1.));
#786=DIRECTION('',(-1.,0.,1.22464679914735E-16));
#787=DIRECTION('',(0.,1.,0.));
#788=DIRECTION('',(1.,0.,-1.29700148907585E-16));
#789=DIRECTION('',(-1.29700148907585E-16,0.,-1.));
#790=DIRECTION('',(-1.21551846761357E-16,-0.121869343405147,-0.992546151641322));
#791=DIRECTION('',(0.,-1.,0.));
#792=DIRECTION('',(-1.21998664834562E-16,-0.0871557427476584,-0.996194698091745));
#793=DIRECTION('',(-1.,0.,1.22464679914735E-16));
#794=DIRECTION('',(1.22464679914735E-16,0.,1.));
#795=DIRECTION('',(-1.39926621123133E-32,1.,-1.14258757072288E-16));
#796=DIRECTION('',(1.22464679914735E-16,-3.08148791101958E-33,1.));
#797=DIRECTION('',(1.,0.,0.));
#798=DIRECTION('',(0.,1.,0.));
#799=DIRECTION('',(0.,5.55111512312578E-17,-1.));
#800=DIRECTION('',(0.,-1.,-1.14258757072288E-16));
#801=DIRECTION('',(-1.,0.,0.));
#802=DIRECTION('',(0.,0.,1.));
#803=DIRECTION('',(0.,0.0871557427476584,-0.996194698091745));
#804=DIRECTION('',(0.,-1.,0.));
#805=DIRECTION('',(1.,0.,0.));
#806=DIRECTION('',(0.,0.,-1.));
#807=DIRECTION('',(0.190808995376545,1.12159501889101E-16,-0.981627183447664));
#808=DIRECTION('',(-0.981627183447664,0.,-0.190808995376545));
#809=DIRECTION('',(0.981627183447664,0.,0.190808995376545));
#810=DIRECTION('',(0.190808995376545,1.12159501889101E-16,-0.981627183447664));
#811=DIRECTION('',(-0.981627183447664,2.1801598649936E-17,-0.190808995376545));
#812=DIRECTION('',(-1.,0.,1.22464679914735E-16));
#813=DIRECTION('',(0.,1.,0.));
#814=DIRECTION('',(1.22464679914735E-16,5.55111512312578E-17,1.));
#815=DIRECTION('',(1.39926621123133E-32,-1.,1.14258757072288E-16));
#816=DIRECTION('',(1.,0.,-1.66745140366788E-16));
#817=DIRECTION('',(-1.66745140366788E-16,0.,-1.));
#818=DIRECTION('',(1.21998664834562E-16,0.0871557427476584,0.996194698091745));
#819=DIRECTION('',(0.,-1.,0.));
#820=DIRECTION('',(-1.,0.,1.22464679914735E-16));
#821=DIRECTION('',(1.22464679914735E-16,0.,1.));
#822=DIRECTION('',(-0.190808995376544,1.12159501889101E-16,0.981627183447664));
#823=DIRECTION('',(0.981627183447664,0.,0.190808995376544));
#824=DIRECTION('',(-0.981627183447664,0.,-0.190808995376544));
#825=DIRECTION('',(-0.190808995376544,1.12159501889101E-16,0.981627183447664));
#826=DIRECTION('',(0.981627183447664,2.1801598649936E-17,0.190808995376544));
#827=DIRECTION('',(0.,-1.,0.));
#828=DIRECTION('',(0.,0.,-1.));
#829=DIRECTION('',(-0.190808995376545,0.977891795653296,-0.0855544462746731));
#830=DIRECTION('',(-0.892301550991877,-0.209111539600215,-0.400087872977325));
#831=DIRECTION('',(0.,1.,0.));
#832=DIRECTION('',(0.,0.,1.));
#833=DIRECTION('',(0.,-1.,0.));
#834=DIRECTION('',(0.,0.,-1.));
#835=DIRECTION('',(0.,1.,0.));
#836=DIRECTION('',(0.,0.,1.));
#837=DIRECTION('',(0.190808995376545,0.977891795653296,0.0855544462746731));
#838=DIRECTION('',(0.892301550991876,-0.209111539600215,0.400087872977325));
#839=DIRECTION('',(0.,1.,0.));
#840=DIRECTION('',(0.,0.,1.));
#841=DIRECTION('',(0.,1.,0.));
#842=DIRECTION('',(0.,0.,1.));
#843=DIRECTION('',(0.,-1.,0.));
#844=DIRECTION('',(0.,0.,-1.));
#845=DIRECTION('',(0.,1.,0.));
#846=DIRECTION('',(0.,0.,1.));
#847=DIRECTION('',(0.,-1.,0.));
#848=DIRECTION('',(0.,0.,-1.));
#849=DIRECTION('',(0.,-1.,0.));
#850=DIRECTION('',(0.,0.,-1.));
#851=DIRECTION('',(0.,1.,0.));
#852=DIRECTION('',(0.,0.,1.));
#853=DIRECTION('',(0.,1.,0.));
#854=DIRECTION('',(0.,0.,1.));
#855=DIRECTION('',(1.,0.,0.));
#856=DIRECTION('',(0.,0.,-1.));
#857=DIRECTION('',(0.190808995376545,0.977891795653296,0.0855544462746731));
#858=DIRECTION('',(-0.981490433529224,0.191511171712293,0.));
#859=DIRECTION('',(0.190808995376545,0.977891795653296,0.0855544462746731));
#860=DIRECTION('',(-0.981627183447664,0.190082909542327,0.0166300997149773));
#861=DIRECTION('',(-1.,0.,0.));
#862=DIRECTION('',(0.,0.,1.));
#863=DIRECTION('',(-1.,0.,0.));
#864=DIRECTION('',(0.,0.,1.));
#865=DIRECTION('',(-1.,0.,0.));
#866=DIRECTION('',(0.,0.,1.));
#867=DIRECTION('',(-1.,0.,0.));
#868=DIRECTION('',(0.,0.,1.));
#869=DIRECTION('',(-1.,0.,1.22464679914735E-16));
#870=DIRECTION('',(1.22464679914735E-16,0.,1.));
#871=DIRECTION('',(-0.190808995376545,0.977891795653296,-0.0855544462746731));
#872=DIRECTION('',(-0.981490433529224,-0.191511171712293,0.));
#873=DIRECTION('',(-0.190808995376545,0.977891795653296,-0.0855544462746731));
#874=DIRECTION('',(0.981627183447664,0.190082909542327,-0.0166300997149774));
#875=DIRECTION('',(1.,0.,-1.66745140366788E-16));
#876=DIRECTION('',(-1.66745140366788E-16,0.,-1.));
#877=DIRECTION('',(1.,0.,-1.66745140366788E-16));
#878=DIRECTION('',(-1.66745140366788E-16,0.,-1.));
#879=DIRECTION('',(1.,0.,-1.66745140366788E-16));
#880=DIRECTION('',(-1.66745140366788E-16,0.,-1.));
#881=DIRECTION('',(1.,0.,-1.29700148907585E-16));
#882=DIRECTION('',(-1.29700148907585E-16,0.,-1.));
#883=DIRECTION('',(0.,-1.,0.));
#884=DIRECTION('',(0.,0.,-1.));
#885=DIRECTION('',(0.,1.,0.));
#886=DIRECTION('',(0.,0.,1.));
#887=DIRECTION('',(0.,1.,0.));
#888=DIRECTION('',(0.,0.,1.));
#889=DIRECTION('',(0.,1.,0.));
#890=DIRECTION('',(-1.,0.,0.));
#891=DIRECTION('',(0.,1.,0.));
#892=DIRECTION('',(0.,0.,1.));
#893=DIRECTION('',(0.,-1.,0.));
#894=DIRECTION('',(0.,0.,-1.));
#895=DIRECTION('',(0.,1.,0.));
#896=DIRECTION('',(0.,0.,1.));
#897=DIRECTION('',(0.,1.,0.));
#898=DIRECTION('',(-1.,0.,0.));
#899=DIRECTION('',(0.,1.,0.));
#900=DIRECTION('',(0.,0.,1.));
#901=DIRECTION('',(0.,1.,0.));
#902=DIRECTION('',(0.,0.,1.));
#903=DIRECTION('',(0.,1.,0.));
#904=DIRECTION('',(0.,0.,1.));
#905=DIRECTION('',(0.,1.,0.));
#906=DIRECTION('',(0.,0.,-1.));
#907=DIRECTION('',(0.,1.,0.));
#908=DIRECTION('',(0.,0.,1.));
#909=DIRECTION('',(0.,1.,0.));
#910=DIRECTION('',(0.,0.,1.));
#911=DIRECTION('',(0.,1.,0.));
#912=DIRECTION('',(0.,0.,1.));
#913=DIRECTION('',(0.,1.,0.));
#914=DIRECTION('',(0.,0.,1.));
#915=DIRECTION('',(0.,-1.,0.));
#916=DIRECTION('',(0.,0.,-1.));
#917=DIRECTION('',(0.,-1.,0.));
#918=DIRECTION('',(1.,0.,0.));
#919=DIRECTION('',(0.,-1.,0.));
#920=DIRECTION('',(0.,0.,-1.));
#921=DIRECTION('',(0.,-1.,0.));
#922=DIRECTION('',(0.,0.,-1.));
#923=DIRECTION('',(0.,-1.,0.));
#924=DIRECTION('',(0.,0.,-1.));
#925=DIRECTION('',(0.,-1.,0.));
#926=DIRECTION('',(0.,0.,-1.));
#927=DIRECTION('',(0.,-1.,0.));
#928=DIRECTION('',(0.,0.,-1.));
#929=DIRECTION('',(0.,-1.,0.));
#930=DIRECTION('',(0.,0.,-1.));
#931=DIRECTION('',(0.,-1.,0.));
#932=DIRECTION('',(0.,0.,-1.));
#933=DIRECTION('',(0.,-1.,0.));
#934=DIRECTION('',(0.,0.,-1.));
#935=CARTESIAN_POINT('',(0.,0.,0.));
#936=CARTESIAN_POINT('',(0.,0.,0.));
#937=CARTESIAN_POINT('',(0.,5.42101086242752E-20,3.06161699786838E-19));
#938=CARTESIAN_POINT('',(-0.00906800429116511,5.42101086242752E-20,-0.000275));
#939=CARTESIAN_POINT('',(-1.11102078878199E-18,-1.3010426069826E-18,-0.00907217321398733));
#940=CARTESIAN_POINT('',(-0.015,7.20431811744673E-19,-0.000275));
#941=CARTESIAN_POINT('',(-0.0107214737792899,7.20431811744673E-19,-0.000275));
#942=CARTESIAN_POINT('',(0.,0.,6.56716846042768E-19));
#943=CARTESIAN_POINT('',(-8.67361737988404E-19,0.,-0.010725));
#944=CARTESIAN_POINT('',(-8.35821440418068E-19,0.,-0.006825));
#945=CARTESIAN_POINT('',(-0.015,0.00751668522645212,-0.000275));
#946=CARTESIAN_POINT('',(-0.00499243177219279,0.0005,-0.000275));
#947=CARTESIAN_POINT('',(-0.00635096962035313,0.000333445014235015,-0.000275));
#948=CARTESIAN_POINT('',(-0.00770948766732605,0.000166728215534605,-0.000275));
#949=CARTESIAN_POINT('',(-0.00906800429116511,-1.87524459491599E-19,-0.000275));
#950=CARTESIAN_POINT('',(-0.00499243177219279,0.0005,-0.000275));
#951=CARTESIAN_POINT('',(-0.015,0.0005,-0.000275));
#952=CARTESIAN_POINT('',(-0.003,0.0005,-0.000275));
#953=CARTESIAN_POINT('',(-0.003,0.00751668522645212,-0.000275));
#954=CARTESIAN_POINT('',(-0.003,0.0150333704529042,-0.000275));
#955=CARTESIAN_POINT('',(-0.015,0.0150333704529042,-0.000275));
#956=CARTESIAN_POINT('',(-0.0107214737792899,0.0150333704529042,-0.000275));
#957=CARTESIAN_POINT('',(-0.0107214737792899,0.025,-0.000275));
#958=CARTESIAN_POINT('',(0.015,0.00751668522645212,0.000275));
#959=CARTESIAN_POINT('',(0.00499243177219279,0.0005,0.000275000000000001));
#960=CARTESIAN_POINT('',(0.00635096962035312,0.000333445014235015,0.000275000000000001));
#961=CARTESIAN_POINT('',(0.00770948766732605,0.000166728215534604,0.000275000000000001));
#962=CARTESIAN_POINT('',(0.00906800429116511,-8.57274821560724E-19,0.000275000000000001));
#963=CARTESIAN_POINT('',(0.00499243177219279,0.0005,0.000275));
#964=CARTESIAN_POINT('',(0.00906800429116511,5.42101086242752E-20,0.000275));
#965=CARTESIAN_POINT('',(0.015,0.0005,0.000275));
#966=CARTESIAN_POINT('',(0.003,0.0005,0.000275));
#967=CARTESIAN_POINT('',(0.003,0.00751668522645212,0.000275));
#968=CARTESIAN_POINT('',(0.003,0.0150333704529042,0.000275));
#969=CARTESIAN_POINT('',(0.015,0.0150333704529042,0.000275));
#970=CARTESIAN_POINT('',(0.0107214737792899,0.0150333704529042,0.000275));
#971=CARTESIAN_POINT('',(0.0107214737792899,0.025,0.000275));
#972=CARTESIAN_POINT('',(0.0107214737792899,7.20431811744673E-19,0.000275));
#973=CARTESIAN_POINT('',(0.015,7.20431811744673E-19,0.000275));
#974=CARTESIAN_POINT('',(0.,0.,0.));
#975=CARTESIAN_POINT('',(0.,5.42101086242752E-20,3.06161699786838E-19));
#976=CARTESIAN_POINT('',(0.,-1.3010426069826E-18,0.00907217321398733));
#977=CARTESIAN_POINT('',(0.,0.,6.56716846042768E-19));
#978=CARTESIAN_POINT('',(-4.33680868994202E-19,0.,0.010725));
#979=CARTESIAN_POINT('',(0.,0.,0.006825));
#980=CARTESIAN_POINT('',(0.,0.00759120578775111,0.006825));
#981=CARTESIAN_POINT('',(0.,0.00725,0.006825));
#982=CARTESIAN_POINT('',(0.,0.00725,0.008475));
#983=CARTESIAN_POINT('',(0.,0.00111392280451452,3.06161699786838E-19));
#984=CARTESIAN_POINT('',(0.,0.0005,0.005));
#985=CARTESIAN_POINT('',(0.,0.00759120578775111,0.010725));
#986=CARTESIAN_POINT('',(0.,0.0145,0.010725));
#987=CARTESIAN_POINT('',(0.,0.0147861338924204,0.00745447464404262));
#988=CARTESIAN_POINT('',(0.,0.0150132951032276,0.0048580101233575));
#989=CARTESIAN_POINT('',(0.,0.0145,0.002925));
#990=CARTESIAN_POINT('',(0.,0.0125,0.002925));
#991=CARTESIAN_POINT('',(0.,0.00759120578775111,0.002925));
#992=CARTESIAN_POINT('',(0.,0.0005,0.002925));
#993=CARTESIAN_POINT('',(0.,0.0005,0.006825));
#994=CARTESIAN_POINT('',(-8.35821440418068E-19,0.00759120578775111,-0.006825));
#995=CARTESIAN_POINT('',(0.,0.00725,-0.006825));
#996=CARTESIAN_POINT('',(-2.14005245697516E-19,0.00725,-0.008475));
#997=CARTESIAN_POINT('',(0.,0.00111392280451452,3.06161699786838E-19));
#998=CARTESIAN_POINT('',(0.,0.0005,-0.005));
#999=CARTESIAN_POINT('',(-1.31343369208554E-18,0.00759120578775111,-0.010725));
#1000=CARTESIAN_POINT('',(-1.31343369208554E-18,0.0145,-0.010725));
#1001=CARTESIAN_POINT('',(-9.1290985121519E-19,0.0147861338924204,-0.00745447464404262));
#1002=CARTESIAN_POINT('',(-5.9493465477952E-19,0.0150132951032276,-0.0048580101233575));
#1003=CARTESIAN_POINT('',(-3.25260651745652E-19,0.0145,-0.002925));
#1004=CARTESIAN_POINT('',(-3.25260651745652E-19,0.0125,-0.002925));
#1005=CARTESIAN_POINT('',(-3.582091887506E-19,0.00759120578775111,-0.002925));
#1006=CARTESIAN_POINT('',(-3.582091887506E-19,0.0005,-0.002925));
#1007=CARTESIAN_POINT('',(-8.35821440418068E-19,0.0005,-0.006825));
#1008=CARTESIAN_POINT('',(-0.003,0.0150166852264521,0.007725));
#1009=CARTESIAN_POINT('',(-0.003,0.0005,0.005225));
#1010=CARTESIAN_POINT('',(-0.003,0.0005,0.00234185907258684));
#1011=CARTESIAN_POINT('',(-0.003,5.12238110146134E-19,0.00234185907258684));
#1012=CARTESIAN_POINT('',(-0.003,0.0125869012940322,0.00234185907258684));
#1013=CARTESIAN_POINT('',(-0.003,0.0145,0.002925));
#1014=CARTESIAN_POINT('',(-0.003,0.015622989729169,0.00457996044308642));
#1015=CARTESIAN_POINT('',(-0.003,0.0153093920559183,0.00816439825036669));
#1016=CARTESIAN_POINT('',(-0.003,0.0151228245565802,0.0102968745257966));
#1017=CARTESIAN_POINT('',(-0.003,0.025,0.0102968745257966));
#1018=CARTESIAN_POINT('',(-0.003,0.0266721816455822,0.0102968745257966));
#1019=CARTESIAN_POINT('',(-0.003,0.0266721816455822,0.0102968745257967));
#1020=CARTESIAN_POINT('',(-0.003,0.0271019651941457,0.0102968745257967));
#1021=CARTESIAN_POINT('',(-0.003,0.0275331588244996,0.0101981609403412));
#1022=CARTESIAN_POINT('',(-0.003,0.0279201135284889,0.010013382159172));
#1023=CARTESIAN_POINT('',(-0.003,0.0279201135284889,0.010013382159172));
#1024=CARTESIAN_POINT('',(-0.003,0.0291372145400131,0.00961798698195059));
#1025=CARTESIAN_POINT('',(-0.003,0.0287124828522556,0.0096959291411328));
#1026=CARTESIAN_POINT('',(-0.003,0.0283056627309759,0.00982927453370106));
#1027=CARTESIAN_POINT('',(-0.003,0.0279201135284889,0.010013382159172));
#1028=CARTESIAN_POINT('',(-0.003,0.0291372145400132,0.00961798698195094));
#1029=CARTESIAN_POINT('',(-0.003,0.0150333704529042,0.014725));
#1030=CARTESIAN_POINT('',(0.,4.45609152581925E-19,0.002925));
#1031=CARTESIAN_POINT('',(-0.000547862142870771,0.0005,0.00281850638730392));
#1032=CARTESIAN_POINT('',(-4.06575814682064E-18,0.0145,0.002925));
#1033=CARTESIAN_POINT('',(0.003,0.0150166852264521,-0.007725));
#1034=CARTESIAN_POINT('',(0.003,0.0005,-0.005225));
#1035=CARTESIAN_POINT('',(0.003,0.0005,-0.00234185907258684));
#1036=CARTESIAN_POINT('',(0.003,5.12238110146134E-19,-0.00234185907258684));
#1037=CARTESIAN_POINT('',(0.003,0.0125869012940322,-0.00234185907258684));
#1038=CARTESIAN_POINT('',(0.003,0.0145,-0.002925));
#1039=CARTESIAN_POINT('',(0.003,0.015622989729169,-0.00457996044308642));
#1040=CARTESIAN_POINT('',(0.003,0.0153093920559183,-0.00816439825036669));
#1041=CARTESIAN_POINT('',(0.003,0.0151228245565802,-0.0102968745257966));
#1042=CARTESIAN_POINT('',(0.003,0.025,-0.0102968745257966));
#1043=CARTESIAN_POINT('',(0.003,0.0266721816455822,-0.0102968745257966));
#1044=CARTESIAN_POINT('',(0.003,0.0266721816455822,-0.0102968745257966));
#1045=CARTESIAN_POINT('',(0.003,0.0270999626797148,-0.0102968745257966));
#1046=CARTESIAN_POINT('',(0.003,0.0275356243543867,-0.0101969835994205));
#1047=CARTESIAN_POINT('',(0.003,0.0279201135284889,-0.010013382159172));
#1048=CARTESIAN_POINT('',(0.003,0.0279201135284889,-0.010013382159172));
#1049=CARTESIAN_POINT('',(0.003,0.0291372145400131,-0.00961798698195059));
#1050=CARTESIAN_POINT('',(0.003,0.0287124828522556,-0.0096959291411328));
#1051=CARTESIAN_POINT('',(0.003,0.0283056627309759,-0.00982927453370105));
#1052=CARTESIAN_POINT('',(0.003,0.0279201135284889,-0.010013382159172));
#1053=CARTESIAN_POINT('',(0.003,0.0291372145400132,-0.00961798698195093));
#1054=CARTESIAN_POINT('',(0.003,0.0150333704529042,-0.014725));
#1055=CARTESIAN_POINT('',(-3.582091887506E-19,4.45609152581925E-19,-0.002925));
#1056=CARTESIAN_POINT('',(0.00054786214287077,0.0005,-0.00281850638730392));
#1057=CARTESIAN_POINT('',(1.06793913989822E-17,0.0145,-0.002925));
#1058=CARTESIAN_POINT('',(0.,0.025,6.56716846042768E-19));
#1059=CARTESIAN_POINT('',(0.,0.0154383159163156,6.56716846042768E-19));
#1060=CARTESIAN_POINT('',(-0.00934511936301734,0.0266721816455822,0.00526254397520422));
#1061=CARTESIAN_POINT('',(-0.00979996204956212,0.0260155140554717,0.00445484351375743));
#1062=CARTESIAN_POINT('',(-0.0103938308348192,0.0244862222367925,0.0029197581436355));
#1063=CARTESIAN_POINT('',(-0.0107018769331405,0.0216122350369498,0.00110207913669763));
#1064=CARTESIAN_POINT('',(-0.0107322592525348,0.0184098294776441,-1.93422557812462E-5));
#1065=CARTESIAN_POINT('',(-0.0107214737792899,0.0161651947394158,-0.000275));
#1066=CARTESIAN_POINT('',(-0.0107214737792899,0.0150333704529042,-0.000275));
#1067=CARTESIAN_POINT('',(-0.00934511936301734,0.0266721816455822,0.00526254397520422));
#1068=CARTESIAN_POINT('',(0.,0.0266721816455822,6.56716846042768E-19));
#1069=CARTESIAN_POINT('',(-0.00673633042282093,0.00650325925215783,-0.0083498217408353));
#1070=CARTESIAN_POINT('',(-0.00649138226921723,0.00725124826716233,-0.00853715727408658));
#1071=CARTESIAN_POINT('',(-0.00673416464068214,0.00799174767919287,-0.00835154916281836));
#1072=CARTESIAN_POINT('',(-0.00718529052342139,0.0084822011955355,-0.00797137151933382));
#1073=CARTESIAN_POINT('',(-0.00768304867403628,0.00879221063592272,-0.00749426614695784));
#1074=CARTESIAN_POINT('',(-0.00835310133928378,0.00897543115843448,-0.00676203778012395));
#1075=CARTESIAN_POINT('',(-0.00896206841912564,0.00875846051592681,-0.005918063866557));
#1076=CARTESIAN_POINT('',(-0.00932619921792282,0.00801538529032376,-0.00530003737586747));
#1077=CARTESIAN_POINT('',(-0.00942624427468599,0.00726036826528745,-0.00511513319014451));
#1078=CARTESIAN_POINT('',(-0.00933200425752106,0.0065046750758815,-0.00528962109583998));
#1079=CARTESIAN_POINT('',(-0.00897003520998484,0.00574606196069481,-0.0059059529576132));
#1080=CARTESIAN_POINT('',(-0.00836118883748417,0.00552473139987726,-0.00675227029011157));
#1081=CARTESIAN_POINT('',(-0.00768886622915685,0.00570469762035703,-0.00748845542825353));
#1082=CARTESIAN_POINT('',(-0.0071877156943002,0.00601606862004904,-0.00796925711733333));
#1083=CARTESIAN_POINT('',(-0.00673633042282093,0.00650325925215783,-0.0083498217408353));
#1084=CARTESIAN_POINT('',(-0.00649138226921723,0.00725124826716233,-0.00853715727408658));
#1085=CARTESIAN_POINT('',(-0.00673416464068214,0.00799174767919287,-0.00835154916281836));
#1086=CARTESIAN_POINT('',(-0.006572670690062,0.00725,-0.008475));
#1087=CARTESIAN_POINT('',(0.,0.025,6.56716846042768E-19));
#1088=CARTESIAN_POINT('',(0.00934511936301734,0.0266721816455822,-0.00526254397520423));
#1089=CARTESIAN_POINT('',(0.00979996204956212,0.0260155140554717,-0.00445484351375744));
#1090=CARTESIAN_POINT('',(0.0103938308348192,0.0244862222367925,-0.0029197581436355));
#1091=CARTESIAN_POINT('',(0.0107018769331405,0.0216122350369498,-0.00110207913669764));
#1092=CARTESIAN_POINT('',(0.0107322592525348,0.0184098294776441,1.93422557812491E-5));
#1093=CARTESIAN_POINT('',(0.0107214737792899,0.0161651947394158,0.000274999999999997));
#1094=CARTESIAN_POINT('',(0.0107214737792899,0.0150333704529042,0.000274999999999997));
#1095=CARTESIAN_POINT('',(0.00934511936301734,0.0266721816455822,-0.00526254397520423));
#1096=CARTESIAN_POINT('',(0.,0.0266721816455822,6.56716846042768E-19));
#1097=CARTESIAN_POINT('',(0.,0.0154383159163156,6.56716846042768E-19));
#1098=CARTESIAN_POINT('',(0.00673633042282094,0.00650325925215783,0.0083498217408353));
#1099=CARTESIAN_POINT('',(0.00649138226921721,0.00725124826716233,0.00853715727408659));
#1100=CARTESIAN_POINT('',(0.00673416464068216,0.00799174767919287,0.00835154916281835));
#1101=CARTESIAN_POINT('',(0.00718529052342139,0.00848220119553549,0.00797137151933382));
#1102=CARTESIAN_POINT('',(0.00768304867403629,0.00879221063592272,0.00749426614695784));
#1103=CARTESIAN_POINT('',(0.00835310133928377,0.00897543115843448,0.00676203778012395));
#1104=CARTESIAN_POINT('',(0.00896206841912564,0.00875846051592681,0.005918063866557));
#1105=CARTESIAN_POINT('',(0.00932619921792283,0.00801538529032376,0.00530003737586746));
#1106=CARTESIAN_POINT('',(0.00942624427468598,0.00726036826528745,0.00511513319014451));
#1107=CARTESIAN_POINT('',(0.00933200425752107,0.00650467507588151,0.00528962109583997));
#1108=CARTESIAN_POINT('',(0.00897003520998484,0.00574606196069481,0.0059059529576132));
#1109=CARTESIAN_POINT('',(0.00836118883748417,0.00552473139987727,0.00675227029011157));
#1110=CARTESIAN_POINT('',(0.00768886622915686,0.00570469762035703,0.00748845542825352));
#1111=CARTESIAN_POINT('',(0.00718771569430019,0.00601606862004905,0.00796925711733334));
#1112=CARTESIAN_POINT('',(0.00673633042282094,0.00650325925215783,0.0083498217408353));
#1113=CARTESIAN_POINT('',(0.00649138226921721,0.00725124826716233,0.00853715727408659));
#1114=CARTESIAN_POINT('',(0.00673416464068216,0.00799174767919287,0.00835154916281835));
#1115=CARTESIAN_POINT('',(0.00657267069006199,0.00725,0.008475));
#1116=CARTESIAN_POINT('',(0.,0.0266721816455822,1.05702326851406E-18));
#1117=CARTESIAN_POINT('',(0.00771941764297484,0.0279201135284889,-0.0070482915319213));
#1118=CARTESIAN_POINT('',(0.00840056303113182,0.0276036197703558,-0.00651699953834797));
#1119=CARTESIAN_POINT('',(0.00897489163297848,0.0272066885387755,-0.00591998690490022));
#1120=CARTESIAN_POINT('',(0.00934511936301736,0.0266721816455822,-0.00526254397520422));
#1121=CARTESIAN_POINT('',(0.00771941764297485,0.0279201135284889,-0.00704829153192131));
#1122=CARTESIAN_POINT('',(0.,0.0279201135284889,1.45732969098535E-18));
#1123=CARTESIAN_POINT('',(0.,0.035,1.45732969098535E-18));
#1124=CARTESIAN_POINT('',(0.,0.036,4.89858719658941E-19));
#1125=CARTESIAN_POINT('',(0.,0.036,0.01));
#1126=CARTESIAN_POINT('',(0.,0.03,1.45732969098535E-18));
#1127=CARTESIAN_POINT('',(0.,0.03,-0.01));
#1128=CARTESIAN_POINT('',(0.,0.03,1.45732969098535E-18));
#1129=CARTESIAN_POINT('',(0.00771941764297484,0.0279201135284889,-0.0070482915319213));
#1130=CARTESIAN_POINT('',(0.00702863965750975,0.0282410830666472,-0.00758709693146654));
#1131=CARTESIAN_POINT('',(0.00558633649384804,0.0287571229076595,-0.00861093104669342));
#1132=CARTESIAN_POINT('',(0.00389692896293674,0.0290422230786918,-0.00935565266728435));
#1133=CARTESIAN_POINT('',(0.00299999999999989,0.0291372145400131,-0.00961798698195063));
#1134=CARTESIAN_POINT('',(0.,0.0279201135284889,1.45732969098535E-18));
#1135=CARTESIAN_POINT('',(-0.00771941764297485,0.0279201135284889,0.00704829153192131));
#1136=CARTESIAN_POINT('',(-0.00771941764297484,0.0279201135284889,0.0070482915319213));
#1137=CARTESIAN_POINT('',(-0.00702863965750975,0.0282410830666472,0.00758709693146654));
#1138=CARTESIAN_POINT('',(-0.00558633649384805,0.0287571229076595,0.00861093104669342));
#1139=CARTESIAN_POINT('',(-0.00389692896293674,0.0290422230786918,0.00935565266728435));
#1140=CARTESIAN_POINT('',(-0.00299999999999989,0.0291372145400131,0.00961798698195064));
#1141=CARTESIAN_POINT('',(0.,0.0266721816455822,1.05702326851406E-18));
#1142=CARTESIAN_POINT('',(-0.00771941764297484,0.0279201135284889,0.00704829153192131));
#1143=CARTESIAN_POINT('',(-0.00840056303113183,0.0276036197703559,0.00651699953834797));
#1144=CARTESIAN_POINT('',(-0.00897489163297849,0.0272066885387755,0.00591998690490022));
#1145=CARTESIAN_POINT('',(-0.00934511936301737,0.0266721816455822,0.00526254397520422));
#1146=CARTESIAN_POINT('',(-0.015,0.0150333704529042,0.014725));
#1147=CARTESIAN_POINT('',(0.,0.014728470155789,0.00811357416971144));
#1148=CARTESIAN_POINT('',(0.00349734392566527,0.0145,0.002925));
#1149=CARTESIAN_POINT('',(0.00220172123805512,0.0145,0.002925));
#1150=CARTESIAN_POINT('',(0.001,0.0145,0.002925));
#1151=CARTESIAN_POINT('',(0.001,0.0145,0.004925));
#1152=CARTESIAN_POINT('',(0.00220172123805512,0.0145,0.002925));
#1153=CARTESIAN_POINT('',(-0.00039913938097244,0.0145,0.002925));
#1154=CARTESIAN_POINT('',(0.0468120678122348,0.00725,0.006825));
#1155=CARTESIAN_POINT('',(0.015,0.0150333704529042,-0.014725));
#1156=CARTESIAN_POINT('',(-9.93626263658176E-19,0.014728470155789,-0.00811357416971144));
#1157=CARTESIAN_POINT('',(-0.00349734392566527,0.0145,-0.002925));
#1158=CARTESIAN_POINT('',(-0.00220172123805512,0.0145,-0.002925));
#1159=CARTESIAN_POINT('',(-0.001,0.0145,-0.002925));
#1160=CARTESIAN_POINT('',(-0.001,0.0145,-0.004925));
#1161=CARTESIAN_POINT('',(-0.00220172123805512,0.0145,-0.002925));
#1162=CARTESIAN_POINT('',(0.00039913938097244,0.0145,-0.002925));
#1163=CARTESIAN_POINT('',(-0.0468120678122348,0.00725,-0.006825));
#1164=CARTESIAN_POINT('',(0.,0.073,4.89858719658941E-19));
#1165=CARTESIAN_POINT('',(0.,0.04,4.89858719658941E-19));
#1166=CARTESIAN_POINT('',(0.,0.04,0.008));
#1167=CARTESIAN_POINT('',(0.,0.073,4.89858719658941E-19));
#1168=CARTESIAN_POINT('',(0.,0.073,0.008));
#1169=CARTESIAN_POINT('',(0.,0.073,3.46944695195361E-18));
#1170=CARTESIAN_POINT('',(0.,0.073,9.76655822320014E-19));
#1171=CARTESIAN_POINT('',(0.,0.073,0.00795));
#1172=CARTESIAN_POINT('',(0.,0.087,9.76655822320014E-19));
#1173=CARTESIAN_POINT('',(0.,0.0865,9.76655822320014E-19));
#1174=CARTESIAN_POINT('',(0.,0.0865,0.00795));
#1175=CARTESIAN_POINT('',(0.,0.087,0.));
#1176=CARTESIAN_POINT('',(0.,0.087,9.76655822320014E-19));
#1177=CARTESIAN_POINT('',(0.,0.087,0.00745));
#1178=CARTESIAN_POINT('',(0.,0.087,6.12323399573677E-20));
#1179=CARTESIAN_POINT('',(0.,0.087,0.001));
#1180=CARTESIAN_POINT('',(0.,0.04,4.89858719658941E-19));
#1181=CARTESIAN_POINT('',(0.,0.087,6.12323399573677E-20));
#1182=CARTESIAN_POINT('',(0.,0.0867113248654052,6.12323399573677E-20));
#1183=CARTESIAN_POINT('',(0.,0.0867113248654052,0.0005));
#1184=CARTESIAN_POINT('',(0.,0.0826995696904862,9.76655822320014E-19));
#1185=CARTESIAN_POINT('',(0.,0.083,9.76655822320014E-19));
#1186=CARTESIAN_POINT('',(0.,0.083,0.000500000000000001));
#1187=CARTESIAN_POINT('',(7.04731412115578E-18,0.0826995696904862,9.76655822320014E-19));
#1188=CARTESIAN_POINT('',(0.,0.0848497848452431,9.76655822320014E-19));
#1189=CARTESIAN_POINT('',(0.,0.087,9.76655822320014E-19));
#1190=CARTESIAN_POINT('',(0.,0.0005,0.));
#1191=CARTESIAN_POINT('',(0.,0.0005,6.56716846042768E-19));
#1192=CARTESIAN_POINT('',(0.,0.0005,-0.0015));
#1193=CARTESIAN_POINT('',(0.,0.0005,3.06161699786838E-19));
#1194=CARTESIAN_POINT('',(0.,0.0005,3.06161699786838E-19));
#1195=CARTESIAN_POINT('',(0.,0.00290129092854134,6.56716846042768E-19));
#1196=CARTESIAN_POINT('',(0.,0.002,6.56716846042768E-19));
#1197=CARTESIAN_POINT('',(0.,0.002,-0.0015));
#1198=CARTESIAN_POINT('',(-3.25260651745652E-19,0.00290129092854134,6.56716846042768E-19));
#1199=CARTESIAN_POINT('',(0.,0.00145064546427067,6.56716846042768E-19));
#1200=CARTESIAN_POINT('',(0.,0.0005,3.06161699786838E-19));
#1201=CARTESIAN_POINT('',(0.,0.0005,3.06161699786838E-19));
#1202=MECHANICAL_DESIGN_GEOMETRIC_PRESENTATION_REPRESENTATION('',(#655),
#1203);
#1203=(
GEOMETRIC_REPRESENTATION_CONTEXT(3)
GLOBAL_UNCERTAINTY_ASSIGNED_CONTEXT((#1204))
GLOBAL_UNIT_ASSIGNED_CONTEXT((#1207,#1206,#1205))
REPRESENTATION_CONTEXT('25mm 2 Flute Insert Endmill Holder',
'TOP_LEVEL_ASSEMBLY_PART')
);
#1204=UNCERTAINTY_MEASURE_WITH_UNIT(LENGTH_MEASURE(5.E-6),#1207,
'DISTANCE_ACCURACY_VALUE','Maximum Tolerance applied to model');
#1205=(
NAMED_UNIT(*)
SI_UNIT($,.STERADIAN.)
SOLID_ANGLE_UNIT()
);
#1206=(
NAMED_UNIT(*)
PLANE_ANGLE_UNIT()
SI_UNIT($,.RADIAN.)
);
#1207=(
LENGTH_UNIT()
NAMED_UNIT(*)
SI_UNIT($,.METRE.)
);
#1208=PRODUCT_DEFINITION_SHAPE('','',#1209);
#1209=PRODUCT_DEFINITION('','',#1211,#1210);
#1210=PRODUCT_DEFINITION_CONTEXT('',#1217,'design');
#1211=PRODUCT_DEFINITION_FORMATION_WITH_SPECIFIED_SOURCE('','',#1213,
 .NOT_KNOWN.);
#1212=PRODUCT_RELATED_PRODUCT_CATEGORY('','',(#1213));
#1213=PRODUCT('25mm 2 Flute Insert Endmill Holder',
'25mm 2 Flute Insert Endmill Holder',
'25mm 2 Flute Insert Endmill Holder',(#1215));
#1214=PRODUCT_CATEGORY('','');
#1215=PRODUCT_CONTEXT('',#1217,'mechanical');
#1216=APPLICATION_PROTOCOL_DEFINITION('international standard',
'ap242_managed_model_based_3d_engineering',2011,#1217);
#1217=APPLICATION_CONTEXT('managed model based 3d engineering');
ENDSEC;
END-ISO-10303-21;
