ISO-10303-21;
HEADER;
/* Generated by software containing ST-Developer
 * from STEP Tools, Inc. (www.steptools.com) 
 */
/* OPTION: using custom renumber hook */

FILE_DESCRIPTION(
/* description */ ('STEP AP214'),
/* implementation_level */ '2;1');

FILE_NAME(
/* name */ '6094921c9ecec20f3f078a70',
/* time_stamp */ '2021-05-07T01:04:29+00:00',
/* author */ (''),
/* organization */ (''),
/* preprocessor_version */ 'ST-DEVELOPER v18.1',
/* originating_system */ '  ',
/* authorisation */ '  ');

FILE_SCHEMA (('AUTOMOTIVE_DESIGN {1 0 10303 214 3 1 1}'));
ENDSEC;

DATA;
#10=PROPERTY_DEFINITION_REPRESENTATION(#14,#12);
#11=PROPERTY_DEFINITION_REPRESENTATION(#15,#13);
#12=REPRESENTATION('',(#16),#1147);
#13=REPRESENTATION('',(#17),#1147);
#14=PROPERTY_DEFINITION('pmi validation property','',#1152);
#15=PROPERTY_DEFINITION('pmi validation property','',#1152);
#16=VALUE_REPRESENTATION_ITEM('number of annotations',COUNT_MEASURE(0.));
#17=VALUE_REPRESENTATION_ITEM('number of views',COUNT_MEASURE(0.));
#18=SHAPE_REPRESENTATION_RELATIONSHIP('','',#641,#19);
#19=ADVANCED_BREP_SHAPE_REPRESENTATION('',(#639),#1147);
#20=PLANE('',#660);
#21=PLANE('',#662);
#22=PLANE('',#663);
#23=PLANE('',#664);
#24=PLANE('',#676);
#25=PLANE('',#678);
#26=PLANE('',#679);
#27=PLANE('',#680);
#28=PLANE('',#681);
#29=PLANE('',#691);
#30=PLANE('',#694);
#31=PLANE('',#698);
#32=PLANE('',#708);
#33=LINE('',#961,#57);
#34=LINE('',#965,#58);
#35=LINE('',#970,#59);
#36=LINE('',#993,#60);
#37=LINE('',#998,#61);
#38=LINE('',#1004,#62);
#39=LINE('',#1006,#63);
#40=LINE('',#1009,#64);
#41=LINE('',#1015,#65);
#42=LINE('',#1017,#66);
#43=LINE('',#1019,#67);
#44=LINE('',#1021,#68);
#45=LINE('',#1023,#69);
#46=LINE('',#1043,#70);
#47=LINE('',#1072,#71);
#48=LINE('',#1074,#72);
#49=LINE('',#1076,#73);
#50=LINE('',#1078,#74);
#51=LINE('',#1081,#75);
#52=LINE('',#1082,#76);
#53=LINE('',#1084,#77);
#54=LINE('',#1086,#78);
#55=LINE('',#1088,#79);
#56=LINE('',#1090,#80);
#57=VECTOR('',#746,1.);
#58=VECTOR('',#749,1.);
#59=VECTOR('',#754,1.);
#60=VECTOR('',#755,1.);
#61=VECTOR('',#760,1.);
#62=VECTOR('',#761,1.);
#63=VECTOR('',#764,1.);
#64=VECTOR('',#769,1.);
#65=VECTOR('',#770,1.);
#66=VECTOR('',#773,1.);
#67=VECTOR('',#774,1.);
#68=VECTOR('',#775,1.);
#69=VECTOR('',#778,1.);
#70=VECTOR('',#791,1.);
#71=VECTOR('',#806,1.);
#72=VECTOR('',#807,1.);
#73=VECTOR('',#808,1.);
#74=VECTOR('',#811,1.);
#75=VECTOR('',#812,1.);
#76=VECTOR('',#813,1.);
#77=VECTOR('',#816,1.);
#78=VECTOR('',#817,1.);
#79=VECTOR('',#820,1.);
#80=VECTOR('',#821,1.);
#81=B_SPLINE_CURVE_WITH_KNOTS('',3,(#910,#911,#912,#913,#914),
 .UNSPECIFIED.,.F.,.F.,(4,1,4),(0.,0.00300620529031706,0.00601241058063412),
 .UNSPECIFIED.);
#82=B_SPLINE_CURVE_WITH_KNOTS('',3,(#918,#919,#920,#921,#922),
 .UNSPECIFIED.,.F.,.F.,(4,1,4),(0.,0.00300919759700637,0.00601839519401274),
 .UNSPECIFIED.);
#83=B_SPLINE_CURVE_WITH_KNOTS('',3,(#927,#928,#929,#930),.UNSPECIFIED.,
 .F.,.F.,(4,4),(1.73472347597681E-18,0.00386781922444208),.UNSPECIFIED.);
#84=B_SPLINE_CURVE_WITH_KNOTS('',3,(#931,#932,#933,#934),.UNSPECIFIED.,
 .F.,.F.,(4,4),(0.,0.00386970841825016),.UNSPECIFIED.);
#85=B_SPLINE_CURVE_WITH_KNOTS('',3,(#939,#940,#941,#942),.UNSPECIFIED.,
 .F.,.F.,(4,4),(0.0116994195728788,0.0138100663885598),.UNSPECIFIED.);
#86=B_SPLINE_CURVE_WITH_KNOTS('',3,(#944,#945,#946,#947),.UNSPECIFIED.,
 .F.,.F.,(4,4),(2.92375792923837E-15,0.00275818891057375),.UNSPECIFIED.);
#87=B_SPLINE_CURVE_WITH_KNOTS('',3,(#948,#949,#950,#951),.UNSPECIFIED.,
 .F.,.F.,(4,4),(4.7380503283802E-17,0.00275818891057385),.UNSPECIFIED.);
#88=B_SPLINE_CURVE_WITH_KNOTS('',3,(#953,#954,#955,#956),.UNSPECIFIED.,
 .F.,.F.,(4,4),(0.011699419572876,0.0138100663885598),.UNSPECIFIED.);
#89=B_SPLINE_CURVE_WITH_KNOTS('',3,(#972,#973,#974,#975),.UNSPECIFIED.,
 .F.,.F.,(4,4),(0.,0.00377864704010257),.UNSPECIFIED.);
#90=B_SPLINE_CURVE_WITH_KNOTS('',3,(#977,#978,#979,#980,#981),
 .UNSPECIFIED.,.F.,.F.,(4,1,4),(0.,0.00300620529031706,0.00601241058063411),
 .UNSPECIFIED.);
#91=B_SPLINE_CURVE_WITH_KNOTS('',3,(#983,#984,#985,#986),.UNSPECIFIED.,
 .F.,.F.,(4,4),(3.87895961444886E-18,0.00386781922444208),.UNSPECIFIED.);
#92=B_SPLINE_CURVE_WITH_KNOTS('',3,(#988,#989,#990,#991),.UNSPECIFIED.,
 .F.,.F.,(4,4),(2.92375792923837E-15,0.00275818891057375),.UNSPECIFIED.);
#93=B_SPLINE_CURVE_WITH_KNOTS('',3,(#999,#1000,#1001,#1002),
 .UNSPECIFIED.,.F.,.F.,(4,4),(0.,0.00377783499215268),.UNSPECIFIED.);
#94=B_SPLINE_CURVE_WITH_KNOTS('',3,(#1011,#1012,#1013,#1014),
 .UNSPECIFIED.,.F.,.F.,(4,4),(0.0116994195728788,0.0138100663885598),
 .UNSPECIFIED.);
#95=B_SPLINE_CURVE_WITH_KNOTS('',3,(#1029,#1030,#1031,#1032),
 .UNSPECIFIED.,.F.,.F.,(4,4),(0.,0.00377864704010257),.UNSPECIFIED.);
#96=B_SPLINE_CURVE_WITH_KNOTS('',3,(#1036,#1037,#1038,#1039),
 .UNSPECIFIED.,.F.,.F.,(4,4),(9.48676900924816E-20,0.00377783499215268),
 .UNSPECIFIED.);
#97=B_SPLINE_CURVE_WITH_KNOTS('',3,(#1047,#1048,#1049,#1050,#1051),
 .UNSPECIFIED.,.F.,.F.,(4,1,4),(3.70537096895902E-18,0.00300919759700637,
0.00601839519401274),.UNSPECIFIED.);
#98=B_SPLINE_CURVE_WITH_KNOTS('',3,(#1055,#1056,#1057,#1058),
 .UNSPECIFIED.,.F.,.F.,(4,4),(4.7380503283802E-17,0.00275818891057385),
 .UNSPECIFIED.);
#99=B_SPLINE_CURVE_WITH_KNOTS('',3,(#1060,#1061,#1062,#1063),
 .UNSPECIFIED.,.F.,.F.,(4,4),(0.011699419572876,0.0138100663885598),
 .UNSPECIFIED.);
#100=B_SPLINE_CURVE_WITH_KNOTS('',3,(#1065,#1066,#1067,#1068),
 .UNSPECIFIED.,.F.,.F.,(4,4),(0.,0.00386970841825016),.UNSPECIFIED.);
#101=CONICAL_SURFACE('',#646,0.023,1.0471975511966);
#102=CONICAL_SURFACE('',#651,0.019,1.0471975511966);
#103=CONICAL_SURFACE('',#671,0.023,1.0471975511966);
#104=CONICAL_SURFACE('',#673,0.019,1.0471975511966);
#105=CONICAL_SURFACE('',#688,0.015875,0.144862327915529);
#106=CONICAL_SURFACE('',#699,0.00625,0.785398163397446);
#107=CONICAL_SURFACE('',#700,0.00831420360072584,0.85782932735521);
#108=CONICAL_SURFACE('',#704,0.023,0.785398163397448);
#109=CONICAL_SURFACE('',#711,0.02,0.785398163397448);
#110=CONICAL_SURFACE('',#712,2.4532694666934E-18,1.02974425867665);
#111=CONICAL_SURFACE('',#716,0.016,0.139626340159546);
#112=CONICAL_SURFACE('',#718,0.0159304134495199,0.855211333477219);
#113=CONICAL_SURFACE('',#719,0.0192,0.785398163397446);
#114=ORIENTED_EDGE('',*,*,#274,.T.);
#115=ORIENTED_EDGE('',*,*,#275,.T.);
#116=ORIENTED_EDGE('',*,*,#276,.T.);
#117=ORIENTED_EDGE('',*,*,#277,.T.);
#118=ORIENTED_EDGE('',*,*,#278,.F.);
#119=ORIENTED_EDGE('',*,*,#279,.T.);
#120=ORIENTED_EDGE('',*,*,#280,.T.);
#121=ORIENTED_EDGE('',*,*,#281,.T.);
#122=ORIENTED_EDGE('',*,*,#276,.F.);
#123=ORIENTED_EDGE('',*,*,#282,.T.);
#124=ORIENTED_EDGE('',*,*,#283,.T.);
#125=ORIENTED_EDGE('',*,*,#284,.F.);
#126=ORIENTED_EDGE('',*,*,#285,.T.);
#127=ORIENTED_EDGE('',*,*,#280,.F.);
#128=ORIENTED_EDGE('',*,*,#286,.T.);
#129=ORIENTED_EDGE('',*,*,#287,.T.);
#130=ORIENTED_EDGE('',*,*,#288,.F.);
#131=ORIENTED_EDGE('',*,*,#289,.F.);
#132=ORIENTED_EDGE('',*,*,#290,.F.);
#133=ORIENTED_EDGE('',*,*,#291,.T.);
#134=ORIENTED_EDGE('',*,*,#292,.F.);
#135=ORIENTED_EDGE('',*,*,#293,.F.);
#136=ORIENTED_EDGE('',*,*,#294,.F.);
#137=ORIENTED_EDGE('',*,*,#295,.F.);
#138=ORIENTED_EDGE('',*,*,#296,.F.);
#139=ORIENTED_EDGE('',*,*,#297,.F.);
#140=ORIENTED_EDGE('',*,*,#298,.F.);
#141=ORIENTED_EDGE('',*,*,#299,.F.);
#142=ORIENTED_EDGE('',*,*,#300,.F.);
#143=ORIENTED_EDGE('',*,*,#286,.F.);
#144=ORIENTED_EDGE('',*,*,#282,.F.);
#145=ORIENTED_EDGE('',*,*,#279,.F.);
#146=ORIENTED_EDGE('',*,*,#301,.F.);
#147=ORIENTED_EDGE('',*,*,#302,.F.);
#148=ORIENTED_EDGE('',*,*,#303,.T.);
#149=ORIENTED_EDGE('',*,*,#302,.T.);
#150=ORIENTED_EDGE('',*,*,#304,.F.);
#151=ORIENTED_EDGE('',*,*,#293,.T.);
#152=ORIENTED_EDGE('',*,*,#305,.F.);
#153=ORIENTED_EDGE('',*,*,#298,.T.);
#154=ORIENTED_EDGE('',*,*,#306,.T.);
#155=ORIENTED_EDGE('',*,*,#289,.T.);
#156=ORIENTED_EDGE('',*,*,#307,.T.);
#157=ORIENTED_EDGE('',*,*,#287,.F.);
#158=ORIENTED_EDGE('',*,*,#300,.T.);
#159=ORIENTED_EDGE('',*,*,#308,.T.);
#160=ORIENTED_EDGE('',*,*,#309,.F.);
#161=ORIENTED_EDGE('',*,*,#310,.F.);
#162=ORIENTED_EDGE('',*,*,#308,.F.);
#163=ORIENTED_EDGE('',*,*,#299,.T.);
#164=ORIENTED_EDGE('',*,*,#303,.F.);
#165=ORIENTED_EDGE('',*,*,#292,.T.);
#166=ORIENTED_EDGE('',*,*,#305,.T.);
#167=ORIENTED_EDGE('',*,*,#311,.F.);
#168=ORIENTED_EDGE('',*,*,#312,.T.);
#169=ORIENTED_EDGE('',*,*,#313,.T.);
#170=ORIENTED_EDGE('',*,*,#294,.T.);
#171=ORIENTED_EDGE('',*,*,#304,.T.);
#172=ORIENTED_EDGE('',*,*,#301,.T.);
#173=ORIENTED_EDGE('',*,*,#278,.T.);
#174=ORIENTED_EDGE('',*,*,#314,.T.);
#175=ORIENTED_EDGE('',*,*,#315,.T.);
#176=ORIENTED_EDGE('',*,*,#316,.T.);
#177=ORIENTED_EDGE('',*,*,#317,.F.);
#178=ORIENTED_EDGE('',*,*,#318,.F.);
#179=ORIENTED_EDGE('',*,*,#283,.F.);
#180=ORIENTED_EDGE('',*,*,#310,.T.);
#181=ORIENTED_EDGE('',*,*,#319,.T.);
#182=ORIENTED_EDGE('',*,*,#295,.T.);
#183=ORIENTED_EDGE('',*,*,#313,.F.);
#184=ORIENTED_EDGE('',*,*,#320,.T.);
#185=ORIENTED_EDGE('',*,*,#290,.T.);
#186=ORIENTED_EDGE('',*,*,#306,.F.);
#187=ORIENTED_EDGE('',*,*,#297,.T.);
#188=ORIENTED_EDGE('',*,*,#321,.F.);
#189=ORIENTED_EDGE('',*,*,#322,.T.);
#190=ORIENTED_EDGE('',*,*,#323,.T.);
#191=ORIENTED_EDGE('',*,*,#321,.T.);
#192=ORIENTED_EDGE('',*,*,#296,.T.);
#193=ORIENTED_EDGE('',*,*,#319,.F.);
#194=ORIENTED_EDGE('',*,*,#324,.T.);
#195=ORIENTED_EDGE('',*,*,#325,.F.);
#196=ORIENTED_EDGE('',*,*,#317,.T.);
#197=ORIENTED_EDGE('',*,*,#309,.T.);
#198=ORIENTED_EDGE('',*,*,#311,.T.);
#199=ORIENTED_EDGE('',*,*,#307,.F.);
#200=ORIENTED_EDGE('',*,*,#288,.T.);
#201=ORIENTED_EDGE('',*,*,#326,.T.);
#202=ORIENTED_EDGE('',*,*,#327,.T.);
#203=ORIENTED_EDGE('',*,*,#328,.F.);
#204=ORIENTED_EDGE('',*,*,#329,.T.);
#205=ORIENTED_EDGE('',*,*,#330,.T.);
#206=ORIENTED_EDGE('',*,*,#315,.F.);
#207=ORIENTED_EDGE('',*,*,#331,.T.);
#208=ORIENTED_EDGE('',*,*,#332,.F.);
#209=ORIENTED_EDGE('',*,*,#333,.T.);
#210=ORIENTED_EDGE('',*,*,#284,.T.);
#211=ORIENTED_EDGE('',*,*,#318,.T.);
#212=ORIENTED_EDGE('',*,*,#328,.T.);
#213=ORIENTED_EDGE('',*,*,#323,.F.);
#214=ORIENTED_EDGE('',*,*,#334,.T.);
#215=ORIENTED_EDGE('',*,*,#335,.T.);
#216=ORIENTED_EDGE('',*,*,#326,.F.);
#217=ORIENTED_EDGE('',*,*,#291,.F.);
#218=ORIENTED_EDGE('',*,*,#335,.F.);
#219=ORIENTED_EDGE('',*,*,#336,.T.);
#220=ORIENTED_EDGE('',*,*,#329,.F.);
#221=ORIENTED_EDGE('',*,*,#337,.T.);
#222=ORIENTED_EDGE('',*,*,#332,.T.);
#223=ORIENTED_EDGE('',*,*,#327,.F.);
#224=ORIENTED_EDGE('',*,*,#336,.F.);
#225=ORIENTED_EDGE('',*,*,#334,.F.);
#226=ORIENTED_EDGE('',*,*,#322,.F.);
#227=ORIENTED_EDGE('',*,*,#324,.F.);
#228=ORIENTED_EDGE('',*,*,#320,.F.);
#229=ORIENTED_EDGE('',*,*,#316,.F.);
#230=ORIENTED_EDGE('',*,*,#330,.F.);
#231=ORIENTED_EDGE('',*,*,#337,.F.);
#232=ORIENTED_EDGE('',*,*,#331,.F.);
#233=ORIENTED_EDGE('',*,*,#314,.F.);
#234=ORIENTED_EDGE('',*,*,#277,.F.);
#235=ORIENTED_EDGE('',*,*,#281,.F.);
#236=ORIENTED_EDGE('',*,*,#285,.F.);
#237=ORIENTED_EDGE('',*,*,#333,.F.);
#238=ORIENTED_EDGE('',*,*,#338,.F.);
#239=ORIENTED_EDGE('',*,*,#325,.T.);
#240=ORIENTED_EDGE('',*,*,#339,.T.);
#241=ORIENTED_EDGE('',*,*,#340,.T.);
#242=ORIENTED_EDGE('',*,*,#341,.T.);
#243=ORIENTED_EDGE('',*,*,#342,.T.);
#244=ORIENTED_EDGE('',*,*,#338,.T.);
#245=ORIENTED_EDGE('',*,*,#340,.F.);
#246=ORIENTED_EDGE('',*,*,#343,.T.);
#247=ORIENTED_EDGE('',*,*,#344,.F.);
#248=ORIENTED_EDGE('',*,*,#274,.F.);
#249=ORIENTED_EDGE('',*,*,#344,.T.);
#250=ORIENTED_EDGE('',*,*,#341,.F.);
#251=ORIENTED_EDGE('',*,*,#343,.F.);
#252=ORIENTED_EDGE('',*,*,#339,.F.);
#253=ORIENTED_EDGE('',*,*,#342,.F.);
#254=ORIENTED_EDGE('',*,*,#345,.T.);
#255=ORIENTED_EDGE('',*,*,#346,.T.);
#256=ORIENTED_EDGE('',*,*,#346,.F.);
#257=ORIENTED_EDGE('',*,*,#312,.F.);
#258=ORIENTED_EDGE('',*,*,#347,.T.);
#259=ORIENTED_EDGE('',*,*,#348,.T.);
#260=ORIENTED_EDGE('',*,*,#349,.T.);
#261=ORIENTED_EDGE('',*,*,#350,.T.);
#262=ORIENTED_EDGE('',*,*,#345,.F.);
#263=ORIENTED_EDGE('',*,*,#348,.F.);
#264=ORIENTED_EDGE('',*,*,#275,.F.);
#265=ORIENTED_EDGE('',*,*,#351,.T.);
#266=ORIENTED_EDGE('',*,*,#352,.F.);
#267=ORIENTED_EDGE('',*,*,#351,.F.);
#268=ORIENTED_EDGE('',*,*,#353,.T.);
#269=ORIENTED_EDGE('',*,*,#352,.T.);
#270=ORIENTED_EDGE('',*,*,#350,.F.);
#271=ORIENTED_EDGE('',*,*,#353,.F.);
#272=ORIENTED_EDGE('',*,*,#347,.F.);
#273=ORIENTED_EDGE('',*,*,#349,.F.);
#274=EDGE_CURVE('',#354,#354,#414,.T.);
#275=EDGE_CURVE('',#355,#355,#415,.T.);
#276=EDGE_CURVE('',#356,#357,#416,.T.);
#277=EDGE_CURVE('',#357,#358,#81,.T.);
#278=EDGE_CURVE('',#359,#358,#417,.T.);
#279=EDGE_CURVE('',#359,#356,#82,.T.);
#280=EDGE_CURVE('',#360,#361,#418,.T.);
#281=EDGE_CURVE('',#361,#357,#83,.T.);
#282=EDGE_CURVE('',#356,#360,#84,.T.);
#283=EDGE_CURVE('',#362,#363,#419,.T.);
#284=EDGE_CURVE('',#364,#363,#85,.T.);
#285=EDGE_CURVE('',#364,#361,#86,.T.);
#286=EDGE_CURVE('',#360,#365,#87,.T.);
#287=EDGE_CURVE('',#365,#362,#88,.T.);
#288=EDGE_CURVE('',#366,#367,#420,.T.);
#289=EDGE_CURVE('',#368,#366,#33,.T.);
#290=EDGE_CURVE('',#369,#368,#421,.T.);
#291=EDGE_CURVE('',#369,#367,#34,.T.);
#292=EDGE_CURVE('',#370,#371,#422,.T.);
#293=EDGE_CURVE('',#372,#370,#35,.F.);
#294=EDGE_CURVE('',#373,#372,#89,.T.);
#295=EDGE_CURVE('',#374,#373,#90,.T.);
#296=EDGE_CURVE('',#375,#374,#91,.T.);
#297=EDGE_CURVE('',#376,#375,#92,.T.);
#298=EDGE_CURVE('',#371,#376,#36,.T.);
#299=EDGE_CURVE('',#377,#378,#423,.T.);
#300=EDGE_CURVE('',#365,#377,#37,.F.);
#301=EDGE_CURVE('',#379,#359,#93,.T.);
#302=EDGE_CURVE('',#378,#379,#38,.T.);
#303=EDGE_CURVE('',#370,#378,#39,.T.);
#304=EDGE_CURVE('',#372,#379,#424,.F.);
#305=EDGE_CURVE('',#371,#380,#40,.T.);
#306=EDGE_CURVE('',#376,#368,#94,.T.);
#307=EDGE_CURVE('',#366,#380,#41,.T.);
#308=EDGE_CURVE('',#377,#381,#42,.T.);
#309=EDGE_CURVE('',#382,#381,#43,.T.);
#310=EDGE_CURVE('',#362,#382,#44,.T.);
#311=EDGE_CURVE('',#381,#380,#45,.T.);
#312=EDGE_CURVE('',#383,#383,#425,.T.);
#313=EDGE_CURVE('',#384,#373,#426,.T.);
#314=EDGE_CURVE('',#358,#385,#95,.T.);
#315=EDGE_CURVE('',#385,#386,#427,.F.);
#316=EDGE_CURVE('',#386,#384,#96,.T.);
#317=EDGE_CURVE('',#387,#382,#428,.T.);
#318=EDGE_CURVE('',#363,#387,#46,.T.);
#319=EDGE_CURVE('',#388,#374,#429,.T.);
#320=EDGE_CURVE('',#384,#388,#97,.T.);
#321=EDGE_CURVE('',#389,#375,#430,.T.);
#322=EDGE_CURVE('',#389,#390,#98,.T.);
#323=EDGE_CURVE('',#390,#369,#99,.T.);
#324=EDGE_CURVE('',#388,#389,#100,.T.);
#325=EDGE_CURVE('',#391,#391,#431,.T.);
#326=EDGE_CURVE('',#367,#392,#47,.T.);
#327=EDGE_CURVE('',#392,#393,#48,.T.);
#328=EDGE_CURVE('',#387,#393,#49,.T.);
#329=EDGE_CURVE('',#394,#395,#50,.T.);
#330=EDGE_CURVE('',#395,#386,#51,.T.);
#331=EDGE_CURVE('',#385,#394,#52,.F.);
#332=EDGE_CURVE('',#396,#393,#53,.T.);
#333=EDGE_CURVE('',#396,#364,#54,.T.);
#334=EDGE_CURVE('',#390,#397,#55,.F.);
#335=EDGE_CURVE('',#397,#392,#56,.T.);
#336=EDGE_CURVE('',#397,#395,#432,.T.);
#337=EDGE_CURVE('',#394,#396,#433,.T.);
#338=EDGE_CURVE('',#398,#398,#434,.T.);
#339=EDGE_CURVE('',#399,#399,#435,.T.);
#340=EDGE_CURVE('',#400,#400,#436,.T.);
#341=EDGE_CURVE('',#401,#401,#437,.F.);
#342=EDGE_CURVE('',#402,#402,#438,.T.);
#343=EDGE_CURVE('',#403,#403,#439,.T.);
#344=EDGE_CURVE('',#404,#404,#440,.T.);
#345=EDGE_CURVE('',#405,#405,#441,.F.);
#346=EDGE_CURVE('',#406,#406,#442,.T.);
#347=EDGE_CURVE('',#407,#407,#443,.F.);
#348=EDGE_CURVE('',#408,#408,#444,.T.);
#349=EDGE_CURVE('',#409,#409,#445,.T.);
#350=EDGE_CURVE('',#410,#410,#446,.F.);
#351=EDGE_CURVE('',#411,#411,#447,.T.);
#352=EDGE_CURVE('',#412,#412,#448,.F.);
#353=EDGE_CURVE('',#413,#413,#449,.T.);
#354=VERTEX_POINT('',#903);
#355=VERTEX_POINT('',#905);
#356=VERTEX_POINT('',#908);
#357=VERTEX_POINT('',#909);
#358=VERTEX_POINT('',#915);
#359=VERTEX_POINT('',#917);
#360=VERTEX_POINT('',#925);
#361=VERTEX_POINT('',#926);
#362=VERTEX_POINT('',#937);
#363=VERTEX_POINT('',#938);
#364=VERTEX_POINT('',#943);
#365=VERTEX_POINT('',#952);
#366=VERTEX_POINT('',#959);
#367=VERTEX_POINT('',#960);
#368=VERTEX_POINT('',#962);
#369=VERTEX_POINT('',#964);
#370=VERTEX_POINT('',#968);
#371=VERTEX_POINT('',#969);
#372=VERTEX_POINT('',#971);
#373=VERTEX_POINT('',#976);
#374=VERTEX_POINT('',#982);
#375=VERTEX_POINT('',#987);
#376=VERTEX_POINT('',#992);
#377=VERTEX_POINT('',#996);
#378=VERTEX_POINT('',#997);
#379=VERTEX_POINT('',#1003);
#380=VERTEX_POINT('',#1010);
#381=VERTEX_POINT('',#1018);
#382=VERTEX_POINT('',#1020);
#383=VERTEX_POINT('',#1026);
#384=VERTEX_POINT('',#1028);
#385=VERTEX_POINT('',#1033);
#386=VERTEX_POINT('',#1035);
#387=VERTEX_POINT('',#1042);
#388=VERTEX_POINT('',#1046);
#389=VERTEX_POINT('',#1054);
#390=VERTEX_POINT('',#1059);
#391=VERTEX_POINT('',#1071);
#392=VERTEX_POINT('',#1073);
#393=VERTEX_POINT('',#1075);
#394=VERTEX_POINT('',#1079);
#395=VERTEX_POINT('',#1080);
#396=VERTEX_POINT('',#1085);
#397=VERTEX_POINT('',#1089);
#398=VERTEX_POINT('',#1098);
#399=VERTEX_POINT('',#1101);
#400=VERTEX_POINT('',#1103);
#401=VERTEX_POINT('',#1106);
#402=VERTEX_POINT('',#1108);
#403=VERTEX_POINT('',#1112);
#404=VERTEX_POINT('',#1114);
#405=VERTEX_POINT('',#1120);
#406=VERTEX_POINT('',#1122);
#407=VERTEX_POINT('',#1126);
#408=VERTEX_POINT('',#1128);
#409=VERTEX_POINT('',#1131);
#410=VERTEX_POINT('',#1133);
#411=VERTEX_POINT('',#1137);
#412=VERTEX_POINT('',#1140);
#413=VERTEX_POINT('',#1143);
#414=CIRCLE('',#644,0.00525);
#415=CIRCLE('',#645,0.00525);
#416=CIRCLE('',#647,0.019);
#417=CIRCLE('',#648,0.023);
#418=CIRCLE('',#650,0.019);
#419=CIRCLE('',#652,0.023);
#420=CIRCLE('',#654,0.023);
#421=CIRCLE('',#655,0.023);
#422=CIRCLE('',#657,0.008);
#423=CIRCLE('',#659,0.008);
#424=CIRCLE('',#661,0.023);
#425=CIRCLE('',#666,0.023);
#426=CIRCLE('',#667,0.023);
#427=CIRCLE('',#668,0.023);
#428=CIRCLE('',#670,0.023);
#429=CIRCLE('',#672,0.019);
#430=CIRCLE('',#674,0.019);
#431=CIRCLE('',#677,0.015625);
#432=CIRCLE('',#682,0.008);
#433=CIRCLE('',#683,0.008);
#434=CIRCLE('',#687,0.015625);
#435=CIRCLE('',#689,0.00888638170122633);
#436=CIRCLE('',#690,0.015875);
#437=CIRCLE('',#692,0.00682823465221542);
#438=CIRCLE('',#693,0.00831420360072584);
#439=CIRCLE('',#696,0.00625);
#440=CIRCLE('',#697,0.00625);
#441=CIRCLE('',#702,0.022225);
#442=CIRCLE('',#703,0.022225);
#443=CIRCLE('',#706,0.02);
#444=CIRCLE('',#707,0.02);
#445=CIRCLE('',#709,0.0192);
#446=CIRCLE('',#710,0.0165);
#447=CIRCLE('',#713,0.0125);
#448=CIRCLE('',#715,0.0125);
#449=CIRCLE('',#717,0.0159304134495199);
#450=EDGE_LOOP('',(#114));
#451=EDGE_LOOP('',(#115));
#452=EDGE_LOOP('',(#116,#117,#118,#119));
#453=EDGE_LOOP('',(#120,#121,#122,#123));
#454=EDGE_LOOP('',(#124,#125,#126,#127,#128,#129));
#455=EDGE_LOOP('',(#130,#131,#132,#133));
#456=EDGE_LOOP('',(#134,#135,#136,#137,#138,#139,#140));
#457=EDGE_LOOP('',(#141,#142,#143,#144,#145,#146,#147));
#458=EDGE_LOOP('',(#148,#149,#150,#151));
#459=EDGE_LOOP('',(#152,#153,#154,#155,#156));
#460=EDGE_LOOP('',(#157,#158,#159,#160,#161));
#461=EDGE_LOOP('',(#162,#163,#164,#165,#166,#167));
#462=EDGE_LOOP('',(#168));
#463=EDGE_LOOP('',(#169,#170,#171,#172,#173,#174,#175,#176));
#464=EDGE_LOOP('',(#177,#178,#179,#180));
#465=EDGE_LOOP('',(#181,#182,#183,#184));
#466=EDGE_LOOP('',(#185,#186,#187,#188,#189,#190));
#467=EDGE_LOOP('',(#191,#192,#193,#194));
#468=EDGE_LOOP('',(#195));
#469=EDGE_LOOP('',(#196,#197,#198,#199,#200,#201,#202,#203));
#470=EDGE_LOOP('',(#204,#205,#206,#207));
#471=EDGE_LOOP('',(#208,#209,#210,#211,#212));
#472=EDGE_LOOP('',(#213,#214,#215,#216,#217));
#473=EDGE_LOOP('',(#218,#219,#220,#221,#222,#223));
#474=EDGE_LOOP('',(#224,#225,#226,#227,#228,#229,#230));
#475=EDGE_LOOP('',(#231,#232,#233,#234,#235,#236,#237));
#476=EDGE_LOOP('',(#238));
#477=EDGE_LOOP('',(#239));
#478=EDGE_LOOP('',(#240));
#479=EDGE_LOOP('',(#241));
#480=EDGE_LOOP('',(#242));
#481=EDGE_LOOP('',(#243));
#482=EDGE_LOOP('',(#244));
#483=EDGE_LOOP('',(#245));
#484=EDGE_LOOP('',(#246));
#485=EDGE_LOOP('',(#247));
#486=EDGE_LOOP('',(#248));
#487=EDGE_LOOP('',(#249));
#488=EDGE_LOOP('',(#250));
#489=EDGE_LOOP('',(#251));
#490=EDGE_LOOP('',(#252));
#491=EDGE_LOOP('',(#253));
#492=EDGE_LOOP('',(#254));
#493=EDGE_LOOP('',(#255));
#494=EDGE_LOOP('',(#256));
#495=EDGE_LOOP('',(#257));
#496=EDGE_LOOP('',(#258));
#497=EDGE_LOOP('',(#259));
#498=EDGE_LOOP('',(#260));
#499=EDGE_LOOP('',(#261));
#500=EDGE_LOOP('',(#262));
#501=EDGE_LOOP('',(#263));
#502=EDGE_LOOP('',(#264));
#503=EDGE_LOOP('',(#265));
#504=EDGE_LOOP('',(#266));
#505=EDGE_LOOP('',(#267));
#506=EDGE_LOOP('',(#268));
#507=EDGE_LOOP('',(#269));
#508=EDGE_LOOP('',(#270));
#509=EDGE_LOOP('',(#271));
#510=EDGE_LOOP('',(#272));
#511=EDGE_LOOP('',(#273));
#512=FACE_BOUND('',#450,.T.);
#513=FACE_BOUND('',#451,.T.);
#514=FACE_BOUND('',#452,.T.);
#515=FACE_BOUND('',#453,.T.);
#516=FACE_BOUND('',#454,.T.);
#517=FACE_BOUND('',#455,.T.);
#518=FACE_BOUND('',#456,.T.);
#519=FACE_BOUND('',#457,.T.);
#520=FACE_BOUND('',#458,.T.);
#521=FACE_BOUND('',#459,.T.);
#522=FACE_BOUND('',#460,.T.);
#523=FACE_BOUND('',#461,.T.);
#524=FACE_BOUND('',#462,.T.);
#525=FACE_BOUND('',#463,.T.);
#526=FACE_BOUND('',#464,.T.);
#527=FACE_BOUND('',#465,.T.);
#528=FACE_BOUND('',#466,.T.);
#529=FACE_BOUND('',#467,.T.);
#530=FACE_BOUND('',#468,.T.);
#531=FACE_BOUND('',#469,.T.);
#532=FACE_BOUND('',#470,.T.);
#533=FACE_BOUND('',#471,.T.);
#534=FACE_BOUND('',#472,.T.);
#535=FACE_BOUND('',#473,.T.);
#536=FACE_BOUND('',#474,.T.);
#537=FACE_BOUND('',#475,.T.);
#538=FACE_BOUND('',#476,.T.);
#539=FACE_BOUND('',#477,.T.);
#540=FACE_BOUND('',#478,.T.);
#541=FACE_BOUND('',#479,.T.);
#542=FACE_BOUND('',#480,.T.);
#543=FACE_BOUND('',#481,.T.);
#544=FACE_BOUND('',#482,.T.);
#545=FACE_BOUND('',#483,.T.);
#546=FACE_BOUND('',#484,.T.);
#547=FACE_BOUND('',#485,.T.);
#548=FACE_BOUND('',#486,.T.);
#549=FACE_BOUND('',#487,.T.);
#550=FACE_BOUND('',#488,.T.);
#551=FACE_BOUND('',#489,.T.);
#552=FACE_BOUND('',#490,.T.);
#553=FACE_BOUND('',#491,.T.);
#554=FACE_BOUND('',#492,.T.);
#555=FACE_BOUND('',#493,.T.);
#556=FACE_BOUND('',#494,.T.);
#557=FACE_BOUND('',#495,.T.);
#558=FACE_BOUND('',#496,.T.);
#559=FACE_BOUND('',#497,.T.);
#560=FACE_BOUND('',#498,.T.);
#561=FACE_BOUND('',#499,.T.);
#562=FACE_BOUND('',#500,.T.);
#563=FACE_BOUND('',#501,.T.);
#564=FACE_BOUND('',#502,.T.);
#565=FACE_BOUND('',#503,.T.);
#566=FACE_BOUND('',#504,.T.);
#567=FACE_BOUND('',#505,.T.);
#568=FACE_BOUND('',#506,.T.);
#569=FACE_BOUND('',#507,.T.);
#570=FACE_BOUND('',#508,.T.);
#571=FACE_BOUND('',#509,.T.);
#572=FACE_BOUND('',#510,.T.);
#573=FACE_BOUND('',#511,.T.);
#574=CYLINDRICAL_SURFACE('',#643,0.00525);
#575=CYLINDRICAL_SURFACE('',#649,0.019);
#576=CYLINDRICAL_SURFACE('',#653,0.023);
#577=CYLINDRICAL_SURFACE('',#656,0.008);
#578=CYLINDRICAL_SURFACE('',#658,0.008);
#579=CYLINDRICAL_SURFACE('',#665,0.023);
#580=CYLINDRICAL_SURFACE('',#669,0.023);
#581=CYLINDRICAL_SURFACE('',#675,0.019);
#582=CYLINDRICAL_SURFACE('',#684,0.008);
#583=CYLINDRICAL_SURFACE('',#685,0.008);
#584=CYLINDRICAL_SURFACE('',#686,0.015625);
#585=CYLINDRICAL_SURFACE('',#695,0.00625);
#586=CYLINDRICAL_SURFACE('',#701,0.022225);
#587=CYLINDRICAL_SURFACE('',#705,0.02);
#588=CYLINDRICAL_SURFACE('',#714,0.0125);
#589=ADVANCED_FACE('',(#512,#513),#574,.F.);
#590=ADVANCED_FACE('',(#514),#101,.T.);
#591=ADVANCED_FACE('',(#515),#575,.T.);
#592=ADVANCED_FACE('',(#516),#102,.T.);
#593=ADVANCED_FACE('',(#517),#576,.T.);
#594=ADVANCED_FACE('',(#518),#577,.F.);
#595=ADVANCED_FACE('',(#519),#578,.F.);
#596=ADVANCED_FACE('',(#520),#20,.T.);
#597=ADVANCED_FACE('',(#521),#21,.F.);
#598=ADVANCED_FACE('',(#522),#22,.T.);
#599=ADVANCED_FACE('',(#523),#23,.T.);
#600=ADVANCED_FACE('',(#524,#525),#579,.T.);
#601=ADVANCED_FACE('',(#526),#580,.T.);
#602=ADVANCED_FACE('',(#527),#103,.T.);
#603=ADVANCED_FACE('',(#528),#104,.T.);
#604=ADVANCED_FACE('',(#529),#581,.T.);
#605=ADVANCED_FACE('',(#530,#531),#24,.T.);
#606=ADVANCED_FACE('',(#532),#25,.T.);
#607=ADVANCED_FACE('',(#533),#26,.F.);
#608=ADVANCED_FACE('',(#534),#27,.T.);
#609=ADVANCED_FACE('',(#535),#28,.T.);
#610=ADVANCED_FACE('',(#536),#582,.F.);
#611=ADVANCED_FACE('',(#537),#583,.F.);
#612=ADVANCED_FACE('',(#538,#539),#584,.T.);
#613=ADVANCED_FACE('',(#540,#541),#105,.T.);
#614=ADVANCED_FACE('',(#542,#543),#29,.T.);
#615=ADVANCED_FACE('',(#544,#545),#30,.F.);
#616=ADVANCED_FACE('',(#546,#547),#585,.F.);
#617=ADVANCED_FACE('',(#548,#549),#31,.T.);
#618=ADVANCED_FACE('',(#550,#551),#106,.F.);
#619=ADVANCED_FACE('',(#552,#553),#107,.T.);
#620=ADVANCED_FACE('',(#554,#555),#586,.T.);
#621=ADVANCED_FACE('',(#556,#557),#108,.T.);
#622=ADVANCED_FACE('',(#558,#559),#587,.T.);
#623=ADVANCED_FACE('',(#560,#561),#32,.T.);
#624=ADVANCED_FACE('',(#562,#563),#109,.T.);
#625=ADVANCED_FACE('',(#564,#565),#110,.F.);
#626=ADVANCED_FACE('',(#566,#567),#588,.F.);
#627=ADVANCED_FACE('',(#568,#569),#111,.F.);
#628=ADVANCED_FACE('',(#570,#571),#112,.F.);
#629=ADVANCED_FACE('',(#572,#573),#113,.T.);
#630=CLOSED_SHELL('',(#589,#590,#591,#592,#593,#594,#595,#596,#597,#598,
#599,#600,#601,#602,#603,#604,#605,#606,#607,#608,#609,#610,#611,#612,#613,
#614,#615,#616,#617,#618,#619,#620,#621,#622,#623,#624,#625,#626,#627,#628,
#629));
#631=STYLED_ITEM('',(#632),#639);
#632=PRESENTATION_STYLE_ASSIGNMENT((#633));
#633=SURFACE_STYLE_USAGE(.BOTH.,#634);
#634=SURFACE_SIDE_STYLE('',(#635));
#635=SURFACE_STYLE_FILL_AREA(#636);
#636=FILL_AREA_STYLE('',(#637));
#637=FILL_AREA_STYLE_COLOUR('',#638);
#638=COLOUR_RGB('',0.811764705882353,0.858823529411765,0.898039215686275);
#639=MANIFOLD_SOLID_BREP('BT30-ER32-60 Collet Holder Body',#630);
#640=SHAPE_DEFINITION_REPRESENTATION(#1152,#641);
#641=SHAPE_REPRESENTATION('BT30-ER32-60 Collet Holder Body',(#642),#1147);
#642=AXIS2_PLACEMENT_3D('',#900,#720,#721);
#643=AXIS2_PLACEMENT_3D('',#901,#722,#723);
#644=AXIS2_PLACEMENT_3D('',#902,#724,#725);
#645=AXIS2_PLACEMENT_3D('',#904,#726,#727);
#646=AXIS2_PLACEMENT_3D('',#906,#728,#729);
#647=AXIS2_PLACEMENT_3D('',#907,#730,#731);
#648=AXIS2_PLACEMENT_3D('',#916,#732,#733);
#649=AXIS2_PLACEMENT_3D('',#923,#734,#735);
#650=AXIS2_PLACEMENT_3D('',#924,#736,#737);
#651=AXIS2_PLACEMENT_3D('',#935,#738,#739);
#652=AXIS2_PLACEMENT_3D('',#936,#740,#741);
#653=AXIS2_PLACEMENT_3D('',#957,#742,#743);
#654=AXIS2_PLACEMENT_3D('',#958,#744,#745);
#655=AXIS2_PLACEMENT_3D('',#963,#747,#748);
#656=AXIS2_PLACEMENT_3D('',#966,#750,#751);
#657=AXIS2_PLACEMENT_3D('',#967,#752,#753);
#658=AXIS2_PLACEMENT_3D('',#994,#756,#757);
#659=AXIS2_PLACEMENT_3D('',#995,#758,#759);
#660=AXIS2_PLACEMENT_3D('',#1005,#762,#763);
#661=AXIS2_PLACEMENT_3D('',#1007,#765,#766);
#662=AXIS2_PLACEMENT_3D('',#1008,#767,#768);
#663=AXIS2_PLACEMENT_3D('',#1016,#771,#772);
#664=AXIS2_PLACEMENT_3D('',#1022,#776,#777);
#665=AXIS2_PLACEMENT_3D('',#1024,#779,#780);
#666=AXIS2_PLACEMENT_3D('',#1025,#781,#782);
#667=AXIS2_PLACEMENT_3D('',#1027,#783,#784);
#668=AXIS2_PLACEMENT_3D('',#1034,#785,#786);
#669=AXIS2_PLACEMENT_3D('',#1040,#787,#788);
#670=AXIS2_PLACEMENT_3D('',#1041,#789,#790);
#671=AXIS2_PLACEMENT_3D('',#1044,#792,#793);
#672=AXIS2_PLACEMENT_3D('',#1045,#794,#795);
#673=AXIS2_PLACEMENT_3D('',#1052,#796,#797);
#674=AXIS2_PLACEMENT_3D('',#1053,#798,#799);
#675=AXIS2_PLACEMENT_3D('',#1064,#800,#801);
#676=AXIS2_PLACEMENT_3D('',#1069,#802,#803);
#677=AXIS2_PLACEMENT_3D('',#1070,#804,#805);
#678=AXIS2_PLACEMENT_3D('',#1077,#809,#810);
#679=AXIS2_PLACEMENT_3D('',#1083,#814,#815);
#680=AXIS2_PLACEMENT_3D('',#1087,#818,#819);
#681=AXIS2_PLACEMENT_3D('',#1091,#822,#823);
#682=AXIS2_PLACEMENT_3D('',#1092,#824,#825);
#683=AXIS2_PLACEMENT_3D('',#1093,#826,#827);
#684=AXIS2_PLACEMENT_3D('',#1094,#828,#829);
#685=AXIS2_PLACEMENT_3D('',#1095,#830,#831);
#686=AXIS2_PLACEMENT_3D('',#1096,#832,#833);
#687=AXIS2_PLACEMENT_3D('',#1097,#834,#835);
#688=AXIS2_PLACEMENT_3D('',#1099,#836,#837);
#689=AXIS2_PLACEMENT_3D('',#1100,#838,#839);
#690=AXIS2_PLACEMENT_3D('',#1102,#840,#841);
#691=AXIS2_PLACEMENT_3D('',#1104,#842,#843);
#692=AXIS2_PLACEMENT_3D('',#1105,#844,#845);
#693=AXIS2_PLACEMENT_3D('',#1107,#846,#847);
#694=AXIS2_PLACEMENT_3D('',#1109,#848,#849);
#695=AXIS2_PLACEMENT_3D('',#1110,#850,#851);
#696=AXIS2_PLACEMENT_3D('',#1111,#852,#853);
#697=AXIS2_PLACEMENT_3D('',#1113,#854,#855);
#698=AXIS2_PLACEMENT_3D('',#1115,#856,#857);
#699=AXIS2_PLACEMENT_3D('',#1116,#858,#859);
#700=AXIS2_PLACEMENT_3D('',#1117,#860,#861);
#701=AXIS2_PLACEMENT_3D('',#1118,#862,#863);
#702=AXIS2_PLACEMENT_3D('',#1119,#864,#865);
#703=AXIS2_PLACEMENT_3D('',#1121,#866,#867);
#704=AXIS2_PLACEMENT_3D('',#1123,#868,#869);
#705=AXIS2_PLACEMENT_3D('',#1124,#870,#871);
#706=AXIS2_PLACEMENT_3D('',#1125,#872,#873);
#707=AXIS2_PLACEMENT_3D('',#1127,#874,#875);
#708=AXIS2_PLACEMENT_3D('',#1129,#876,#877);
#709=AXIS2_PLACEMENT_3D('',#1130,#878,#879);
#710=AXIS2_PLACEMENT_3D('',#1132,#880,#881);
#711=AXIS2_PLACEMENT_3D('',#1134,#882,#883);
#712=AXIS2_PLACEMENT_3D('',#1135,#884,#885);
#713=AXIS2_PLACEMENT_3D('',#1136,#886,#887);
#714=AXIS2_PLACEMENT_3D('',#1138,#888,#889);
#715=AXIS2_PLACEMENT_3D('',#1139,#890,#891);
#716=AXIS2_PLACEMENT_3D('',#1141,#892,#893);
#717=AXIS2_PLACEMENT_3D('',#1142,#894,#895);
#718=AXIS2_PLACEMENT_3D('',#1144,#896,#897);
#719=AXIS2_PLACEMENT_3D('',#1145,#898,#899);
#720=DIRECTION('',(0.,0.,1.));
#721=DIRECTION('',(1.,0.,0.));
#722=DIRECTION('',(0.,-1.,0.));
#723=DIRECTION('',(0.,0.,-1.));
#724=DIRECTION('',(0.,-1.,0.));
#725=DIRECTION('',(0.,0.,-1.));
#726=DIRECTION('',(0.,1.,0.));
#727=DIRECTION('',(0.,0.,1.));
#728=DIRECTION('',(0.,1.,0.));
#729=DIRECTION('',(0.,0.,1.));
#730=DIRECTION('',(0.,1.,0.));
#731=DIRECTION('',(0.,0.,1.));
#732=DIRECTION('',(0.,1.,0.));
#733=DIRECTION('',(0.,0.,1.));
#734=DIRECTION('',(0.,1.,0.));
#735=DIRECTION('',(0.,0.,1.));
#736=DIRECTION('',(0.,1.,0.));
#737=DIRECTION('',(0.,0.,1.));
#738=DIRECTION('',(0.,-1.,0.));
#739=DIRECTION('',(0.,0.,-1.));
#740=DIRECTION('',(0.,1.,0.));
#741=DIRECTION('',(0.,0.,1.));
#742=DIRECTION('',(0.,-1.,0.));
#743=DIRECTION('',(0.,0.,-1.));
#744=DIRECTION('',(0.,-1.,0.));
#745=DIRECTION('',(0.,0.,-1.));
#746=DIRECTION('',(0.,-1.,0.));
#747=DIRECTION('',(0.,1.,0.));
#748=DIRECTION('',(0.,0.,1.));
#749=DIRECTION('',(0.,-1.,0.));
#750=DIRECTION('',(-1.,0.,1.22464679914735E-16));
#751=DIRECTION('',(1.22464679914735E-16,0.,1.));
#752=DIRECTION('',(-1.,0.,1.22464679914735E-16));
#753=DIRECTION('',(1.22464679914735E-16,0.,1.));
#754=DIRECTION('',(-1.,0.,1.22464679914735E-16));
#755=DIRECTION('',(-1.,0.,1.22464679914735E-16));
#756=DIRECTION('',(1.,0.,-1.22464679914735E-16));
#757=DIRECTION('',(-1.22464679914735E-16,0.,-1.));
#758=DIRECTION('',(-1.,0.,1.22464679914735E-16));
#759=DIRECTION('',(1.22464679914735E-16,0.,1.));
#760=DIRECTION('',(-1.,0.,1.22464679914735E-16));
#761=DIRECTION('',(-1.,0.,1.22464679914735E-16));
#762=DIRECTION('',(0.,-1.,0.));
#763=DIRECTION('',(1.22464679914735E-16,0.,1.));
#764=DIRECTION('',(1.22464679914735E-16,0.,1.));
#765=DIRECTION('',(0.,-1.,0.));
#766=DIRECTION('',(1.22464679914735E-16,0.,1.));
#767=DIRECTION('',(-1.22464679914735E-16,0.,-1.));
#768=DIRECTION('',(-1.,0.,1.22464679914735E-16));
#769=DIRECTION('',(0.,-1.,0.));
#770=DIRECTION('',(1.,0.,-1.22464679914735E-16));
#771=DIRECTION('',(-1.22464679914735E-16,0.,-1.));
#772=DIRECTION('',(-1.,0.,1.22464679914735E-16));
#773=DIRECTION('',(0.,-1.,0.));
#774=DIRECTION('',(1.,0.,-1.22464679914735E-16));
#775=DIRECTION('',(0.,-1.,0.));
#776=DIRECTION('',(-1.,0.,1.22464679914735E-16));
#777=DIRECTION('',(0.,1.,0.));
#778=DIRECTION('',(-1.22464679914735E-16,0.,-1.));
#779=DIRECTION('',(0.,-1.,0.));
#780=DIRECTION('',(0.,0.,-1.));
#781=DIRECTION('',(0.,-1.,0.));
#782=DIRECTION('',(0.,0.,-1.));
#783=DIRECTION('',(0.,1.,0.));
#784=DIRECTION('',(0.,0.,1.));
#785=DIRECTION('',(0.,-1.,0.));
#786=DIRECTION('',(0.,0.,-1.));
#787=DIRECTION('',(0.,-1.,0.));
#788=DIRECTION('',(0.,0.,-1.));
#789=DIRECTION('',(0.,-1.,0.));
#790=DIRECTION('',(0.,0.,-1.));
#791=DIRECTION('',(0.,-1.,0.));
#792=DIRECTION('',(0.,1.,0.));
#793=DIRECTION('',(0.,0.,1.));
#794=DIRECTION('',(0.,1.,0.));
#795=DIRECTION('',(0.,0.,1.));
#796=DIRECTION('',(0.,-1.,0.));
#797=DIRECTION('',(0.,0.,-1.));
#798=DIRECTION('',(0.,1.,0.));
#799=DIRECTION('',(0.,0.,1.));
#800=DIRECTION('',(0.,1.,0.));
#801=DIRECTION('',(0.,0.,1.));
#802=DIRECTION('',(0.,-1.,0.));
#803=DIRECTION('',(1.,0.,0.));
#804=DIRECTION('',(0.,-1.,0.));
#805=DIRECTION('',(0.,0.,-1.));
#806=DIRECTION('',(-1.,0.,0.));
#807=DIRECTION('',(0.,0.,1.));
#808=DIRECTION('',(-1.,0.,0.));
#809=DIRECTION('',(0.,-1.,0.));
#810=DIRECTION('',(0.,0.,-1.));
#811=DIRECTION('',(0.,0.,-1.));
#812=DIRECTION('',(1.,0.,0.));
#813=DIRECTION('',(1.,0.,0.));
#814=DIRECTION('',(0.,0.,1.));
#815=DIRECTION('',(1.,0.,0.));
#816=DIRECTION('',(0.,-1.,0.));
#817=DIRECTION('',(1.,0.,0.));
#818=DIRECTION('',(0.,0.,1.));
#819=DIRECTION('',(1.,0.,0.));
#820=DIRECTION('',(1.,0.,0.));
#821=DIRECTION('',(0.,-1.,0.));
#822=DIRECTION('',(1.,0.,0.));
#823=DIRECTION('',(0.,1.,0.));
#824=DIRECTION('',(1.,0.,0.));
#825=DIRECTION('',(0.,0.,-1.));
#826=DIRECTION('',(1.,0.,0.));
#827=DIRECTION('',(0.,0.,-1.));
#828=DIRECTION('',(-1.,0.,0.));
#829=DIRECTION('',(0.,0.,1.));
#830=DIRECTION('',(1.,0.,0.));
#831=DIRECTION('',(0.,0.,-1.));
#832=DIRECTION('',(0.,1.,0.));
#833=DIRECTION('',(0.,0.,1.));
#834=DIRECTION('',(0.,-1.,0.));
#835=DIRECTION('',(0.,0.,-1.));
#836=DIRECTION('',(0.,1.,0.));
#837=DIRECTION('',(0.,0.,-1.));
#838=DIRECTION('',(0.,1.,0.));
#839=DIRECTION('',(0.,0.,1.));
#840=DIRECTION('',(0.,-1.,0.));
#841=DIRECTION('',(0.,0.,-1.));
#842=DIRECTION('',(0.,-1.,0.));
#843=DIRECTION('',(1.,0.,0.));
#844=DIRECTION('',(0.,-1.,0.));
#845=DIRECTION('',(0.,0.,-1.));
#846=DIRECTION('',(0.,-1.,0.));
#847=DIRECTION('',(0.,0.,-1.));
#848=DIRECTION('',(0.,-1.,0.));
#849=DIRECTION('',(1.,0.,0.));
#850=DIRECTION('',(0.,-1.,0.));
#851=DIRECTION('',(0.,0.,-1.));
#852=DIRECTION('',(0.,-1.,0.));
#853=DIRECTION('',(0.,0.,-1.));
#854=DIRECTION('',(0.,-1.,0.));
#855=DIRECTION('',(0.,0.,-1.));
#856=DIRECTION('',(0.,-1.,0.));
#857=DIRECTION('',(1.,0.,0.));
#858=DIRECTION('',(0.,-1.,0.));
#859=DIRECTION('',(0.,0.,-1.));
#860=DIRECTION('',(0.,1.,0.));
#861=DIRECTION('',(0.,0.,1.));
#862=DIRECTION('',(0.,-1.,0.));
#863=DIRECTION('',(0.,0.,-1.));
#864=DIRECTION('',(0.,1.,0.));
#865=DIRECTION('',(0.,0.,1.));
#866=DIRECTION('',(0.,1.,0.));
#867=DIRECTION('',(0.,0.,1.));
#868=DIRECTION('',(0.,-1.,0.));
#869=DIRECTION('',(0.,0.,-1.));
#870=DIRECTION('',(0.,-1.,0.));
#871=DIRECTION('',(0.,0.,-1.));
#872=DIRECTION('',(0.,1.,0.));
#873=DIRECTION('',(0.,0.,1.));
#874=DIRECTION('',(0.,1.,0.));
#875=DIRECTION('',(0.,0.,1.));
#876=DIRECTION('',(0.,1.,0.));
#877=DIRECTION('',(-1.,0.,0.));
#878=DIRECTION('',(0.,1.,0.));
#879=DIRECTION('',(0.,0.,1.));
#880=DIRECTION('',(0.,1.,0.));
#881=DIRECTION('',(0.,0.,1.));
#882=DIRECTION('',(0.,-1.,0.));
#883=DIRECTION('',(0.,0.,-1.));
#884=DIRECTION('',(0.,1.,0.));
#885=DIRECTION('',(0.,0.,1.));
#886=DIRECTION('',(0.,1.,0.));
#887=DIRECTION('',(0.,0.,1.));
#888=DIRECTION('',(0.,1.,0.));
#889=DIRECTION('',(0.,0.,1.));
#890=DIRECTION('',(0.,1.,0.));
#891=DIRECTION('',(0.,0.,1.));
#892=DIRECTION('',(0.,1.,0.));
#893=DIRECTION('',(0.,0.,-1.));
#894=DIRECTION('',(0.,1.,0.));
#895=DIRECTION('',(0.,0.,1.));
#896=DIRECTION('',(0.,1.,0.));
#897=DIRECTION('',(0.,0.,1.));
#898=DIRECTION('',(0.,-1.,0.));
#899=DIRECTION('',(0.,0.,-1.));
#900=CARTESIAN_POINT('',(0.,0.,0.));
#901=CARTESIAN_POINT('',(0.,-0.0165727408750527,2.31152083339063E-18));
#902=CARTESIAN_POINT('',(0.,-0.0434,2.31152083339063E-18));
#903=CARTESIAN_POINT('',(0.,-0.0434,-0.00525));
#904=CARTESIAN_POINT('',(0.,0.00364376051205019,3.9938793737193E-18));
#905=CARTESIAN_POINT('',(0.,0.00364376051205019,0.00525));
#906=CARTESIAN_POINT('',(0.,0.016118802153517,0.));
#907=CARTESIAN_POINT('',(0.,0.0138094010767585,0.));
#908=CARTESIAN_POINT('',(-0.0178742424980175,0.0138094010767585,0.00644293839191918));
#909=CARTESIAN_POINT('',(0.0178742424980175,0.0138094010767585,0.00644293839191919));
#910=CARTESIAN_POINT('',(0.0178742424980175,0.0138094010767585,0.00644293839191919));
#911=CARTESIAN_POINT('',(0.0187478660408614,0.0142229874408309,0.00613179778915403));
#912=CARTESIAN_POINT('',(0.0204415911114599,0.0150307994667358,0.0053990432153389));
#913=CARTESIAN_POINT('',(0.0219933960064202,0.0157776979924208,0.00436529226805155));
#914=CARTESIAN_POINT('',(0.0227004370434871,0.016118802153517,0.00370002135597611));
#915=CARTESIAN_POINT('',(0.0227004370434871,0.016118802153517,0.00370002135597611));
#916=CARTESIAN_POINT('',(0.,0.016118802153517,0.));
#917=CARTESIAN_POINT('',(-0.0227004370434871,0.016118802153517,0.00370002135597611));
#918=CARTESIAN_POINT('',(-0.0227004370434871,0.016118802153517,0.00370002135597611));
#919=CARTESIAN_POINT('',(-0.0220009978140276,0.0157813654007759,0.00435813955524529));
#920=CARTESIAN_POINT('',(-0.020453040365248,0.0150362618880238,0.00539458881760507));
#921=CARTESIAN_POINT('',(-0.0187446432949968,0.0142214617450602,0.0061329455685369));
#922=CARTESIAN_POINT('',(-0.0178742424980175,0.0138094010767585,0.00644293839191918));
#923=CARTESIAN_POINT('',(0.,0.0110734011977911,0.));
#924=CARTESIAN_POINT('',(0.,0.0103094010767585,0.));
#925=CARTESIAN_POINT('',(-0.0172604408908176,0.0103094010767585,0.0079421143440895));
#926=CARTESIAN_POINT('',(0.0172604408908176,0.0103094010767585,0.00794211434408951));
#927=CARTESIAN_POINT('',(0.0172604408908177,0.0103094010767585,0.00794211434408954));
#928=CARTESIAN_POINT('',(0.0173587676074134,0.0115973776438803,0.0077284228248971));
#929=CARTESIAN_POINT('',(0.0175972382597272,0.0127878981765196,0.00721141398907666));
#930=CARTESIAN_POINT('',(0.0178742424980175,0.0138094010767585,0.00644293839191919));
#931=CARTESIAN_POINT('',(-0.0178742424980175,0.0138094010767585,0.00644293839191918));
#932=CARTESIAN_POINT('',(-0.0175974013742779,0.0127884996907334,0.00721096147054287));
#933=CARTESIAN_POINT('',(-0.0173586970860032,0.0115964538875823,0.00772857608769062));
#934=CARTESIAN_POINT('',(-0.0172604408908176,0.0103094010767585,0.00794211434408953));
#935=CARTESIAN_POINT('',(0.,0.0103094010767585,0.));
#936=CARTESIAN_POINT('',(0.,0.008,0.));
#937=CARTESIAN_POINT('',(-0.0215452430944744,0.008,0.00805));
#938=CARTESIAN_POINT('',(0.0215452430944744,0.008,0.00805));
#939=CARTESIAN_POINT('',(0.0196856080132742,0.00899999999999384,0.00805));
#940=CARTESIAN_POINT('',(0.0203063127900349,0.00866829831389119,0.00805));
#941=CARTESIAN_POINT('',(0.0209261503824581,0.00833482557761616,0.00805));
#942=CARTESIAN_POINT('',(0.0215452430944745,0.00800000000000001,0.00805));
#943=CARTESIAN_POINT('',(0.0196856080132742,0.00899999999999384,0.00805));
#944=CARTESIAN_POINT('',(0.0196856080132742,0.009,0.00805));
#945=CARTESIAN_POINT('',(0.0188741053221235,0.00943366318580036,0.00805));
#946=CARTESIAN_POINT('',(0.0180653863199686,0.00986960509517108,0.00801508203142112));
#947=CARTESIAN_POINT('',(0.0172604408908177,0.0103094010767585,0.00794211434408954));
#948=CARTESIAN_POINT('',(-0.0172604408908177,0.0103094010767585,0.00794211434408953));
#949=CARTESIAN_POINT('',(-0.0180653863199695,0.00986960509517065,0.00801508203142119));
#950=CARTESIAN_POINT('',(-0.01887410532212,0.00943366318579603,0.00805000000000026));
#951=CARTESIAN_POINT('',(-0.0196856080132716,0.00899999999999524,0.00805));
#952=CARTESIAN_POINT('',(-0.0196856080132718,0.00899999999999515,0.00805));
#953=CARTESIAN_POINT('',(-0.0196856080132718,0.00899999999999515,0.00805));
#954=CARTESIAN_POINT('',(-0.0203063127900332,0.00866829831389207,0.00805));
#955=CARTESIAN_POINT('',(-0.0209261503824573,0.0083348255776166,0.00805));
#956=CARTESIAN_POINT('',(-0.0215452430944744,0.00800000000000001,0.00805));
#957=CARTESIAN_POINT('',(0.,0.02,1.40834381901946E-18));
#958=CARTESIAN_POINT('',(0.,0.,1.40834381901946E-18));
#959=CARTESIAN_POINT('',(-0.0215452430944744,0.,-0.00805));
#960=CARTESIAN_POINT('',(0.0215452430944744,0.,-0.00805));
#961=CARTESIAN_POINT('',(-0.0215452430944744,0.02,-0.00805));
#962=CARTESIAN_POINT('',(-0.0215452430944744,0.008,-0.00805));
#963=CARTESIAN_POINT('',(0.,0.008,0.));
#964=CARTESIAN_POINT('',(0.0215452430944744,0.008,-0.00805));
#965=CARTESIAN_POINT('',(0.0215452430944744,0.02,-0.00805));
#966=CARTESIAN_POINT('',(-0.0163,0.009,-5.00000000000046E-5));
#967=CARTESIAN_POINT('',(-0.0163,0.009,-5.00000000000046E-5));
#968=CARTESIAN_POINT('',(-0.0163,0.017,-5.00000000000046E-5));
#969=CARTESIAN_POINT('',(-0.0163,0.009,-0.00805));
#970=CARTESIAN_POINT('',(-0.0163,0.017,-5.00000000000046E-5));
#971=CARTESIAN_POINT('',(-0.0229999456521097,0.017,-5.00000000000038E-5));
#972=CARTESIAN_POINT('',(-0.0227004370434871,0.016118802153517,-0.00370002135597611));
#973=CARTESIAN_POINT('',(-0.0228837448553258,0.0166954350877946,-0.00257538799798138));
#974=CARTESIAN_POINT('',(-0.0229971680492769,0.017,-0.00132769428394892));
#975=CARTESIAN_POINT('',(-0.0229999456521097,0.017,-5.00000000000047E-5));
#976=CARTESIAN_POINT('',(-0.0227004370434871,0.016118802153517,-0.00370002135597611));
#977=CARTESIAN_POINT('',(-0.0178742424980175,0.0138094010767585,-0.00644293839191918));
#978=CARTESIAN_POINT('',(-0.0187478660408614,0.0142229874408309,-0.00613179778915402));
#979=CARTESIAN_POINT('',(-0.0204415911114599,0.0150307994667358,-0.0053990432153389));
#980=CARTESIAN_POINT('',(-0.0219933960064202,0.0157776979924208,-0.00436529226805155));
#981=CARTESIAN_POINT('',(-0.0227004370434871,0.016118802153517,-0.00370002135597611));
#982=CARTESIAN_POINT('',(-0.0178742424980175,0.0138094010767585,-0.00644293839191918));
#983=CARTESIAN_POINT('',(-0.0172604408908177,0.0103094010767585,-0.00794211434408953));
#984=CARTESIAN_POINT('',(-0.0173587676074134,0.0115973776438803,-0.00772842282489709));
#985=CARTESIAN_POINT('',(-0.0175972382597272,0.0127878981765196,-0.00721141398907666));
#986=CARTESIAN_POINT('',(-0.0178742424980175,0.0138094010767585,-0.00644293839191918));
#987=CARTESIAN_POINT('',(-0.0172604408908176,0.0103094010767585,-0.0079421143440895));
#988=CARTESIAN_POINT('',(-0.0196856080132742,0.009,-0.00805));
#989=CARTESIAN_POINT('',(-0.0188741053221235,0.00943366318580036,-0.00805));
#990=CARTESIAN_POINT('',(-0.0180653863199686,0.00986960509517108,-0.00801508203142112));
#991=CARTESIAN_POINT('',(-0.0172604408908177,0.0103094010767585,-0.00794211434408954));
#992=CARTESIAN_POINT('',(-0.0196856080132742,0.00899999999999384,-0.00805));
#993=CARTESIAN_POINT('',(-0.0163,0.009,-0.00805));
#994=CARTESIAN_POINT('',(-0.0163,0.009,5.00000000000034E-5));
#995=CARTESIAN_POINT('',(-0.0163,0.009,5.00000000000034E-5));
#996=CARTESIAN_POINT('',(-0.0163,0.009,0.00805));
#997=CARTESIAN_POINT('',(-0.0163,0.017,5.00000000000034E-5));
#998=CARTESIAN_POINT('',(-0.0163,0.009,0.00805));
#999=CARTESIAN_POINT('',(-0.0229999456521097,0.017,5.00000000000043E-5));
#1000=CARTESIAN_POINT('',(-0.0229971674138224,0.017,0.00132798659232142));
#1001=CARTESIAN_POINT('',(-0.0228838108456038,0.0166956426739704,0.00257498313325011));
#1002=CARTESIAN_POINT('',(-0.0227004370434871,0.016118802153517,0.00370002135597611));
#1003=CARTESIAN_POINT('',(-0.0229999456521097,0.017,5.00000000000043E-5));
#1004=CARTESIAN_POINT('',(-0.0215452430944744,0.017,5.00000000000041E-5));
#1005=CARTESIAN_POINT('',(-0.0163,0.017,2.61450806633379E-19));
#1006=CARTESIAN_POINT('',(-0.0163,0.017,2.61450806633379E-19));
#1007=CARTESIAN_POINT('',(-1.72472375006113E-34,0.017,-1.40834381901946E-18));
#1008=CARTESIAN_POINT('',(-0.0163,-1.7347234759768E-18,-0.00805));
#1009=CARTESIAN_POINT('',(-0.0163,-1.7347234759768E-18,-0.00805));
#1010=CARTESIAN_POINT('',(-0.0163,0.,-0.00805));
#1011=CARTESIAN_POINT('',(-0.0196856080132742,0.00899999999999384,-0.00805));
#1012=CARTESIAN_POINT('',(-0.0203063127900349,0.00866829831389119,-0.00805));
#1013=CARTESIAN_POINT('',(-0.0209261503824581,0.00833482557761616,-0.00805));
#1014=CARTESIAN_POINT('',(-0.0215452430944745,0.00800000000000001,-0.00805));
#1015=CARTESIAN_POINT('',(-9.8584067331362E-19,0.,-0.00805));
#1016=CARTESIAN_POINT('',(-0.0163,0.,0.00805));
#1017=CARTESIAN_POINT('',(-0.0163,0.,0.00805));
#1018=CARTESIAN_POINT('',(-0.0163,0.,0.00805));
#1019=CARTESIAN_POINT('',(9.85840673313619E-19,0.,0.00805));
#1020=CARTESIAN_POINT('',(-0.0215452430944744,0.,0.00805));
#1021=CARTESIAN_POINT('',(-0.0215452430944744,0.02,0.00805));
#1022=CARTESIAN_POINT('',(-0.0163,-3.46944695195361E-18,-1.47327266934343E-18));
#1023=CARTESIAN_POINT('',(-0.0163,0.,1.99617428261018E-18));
#1024=CARTESIAN_POINT('',(0.,0.02,1.40834381901946E-18));
#1025=CARTESIAN_POINT('',(0.,0.019225,1.40834381901946E-18));
#1026=CARTESIAN_POINT('',(0.,0.019225,-0.023));
#1027=CARTESIAN_POINT('',(0.,0.016118802153517,0.));
#1028=CARTESIAN_POINT('',(0.0227004370434871,0.016118802153517,-0.0037000213559761));
#1029=CARTESIAN_POINT('',(0.0227004370434871,0.016118802153517,0.00370002135597611));
#1030=CARTESIAN_POINT('',(0.0228837448553258,0.0166954350877946,0.00257538799798138));
#1031=CARTESIAN_POINT('',(0.0229971680492769,0.017,0.00132769428394892));
#1032=CARTESIAN_POINT('',(0.0229999456521097,0.017,5.00000000000075E-5));
#1033=CARTESIAN_POINT('',(0.0229999456521097,0.017,5.00000000000067E-5));
#1034=CARTESIAN_POINT('',(0.,0.017,1.40834381901946E-18));
#1035=CARTESIAN_POINT('',(0.0229999456521097,0.017,-5.00000000000015E-5));
#1036=CARTESIAN_POINT('',(0.0229999456521097,0.017,-5.00000000000014E-5));
#1037=CARTESIAN_POINT('',(0.0229971674138224,0.017,-0.00132798659232142));
#1038=CARTESIAN_POINT('',(0.0228838108456038,0.0166956426739704,-0.0025749831332501));
#1039=CARTESIAN_POINT('',(0.0227004370434871,0.016118802153517,-0.0037000213559761));
#1040=CARTESIAN_POINT('',(0.,0.02,1.40834381901946E-18));
#1041=CARTESIAN_POINT('',(0.,0.,1.40834381901946E-18));
#1042=CARTESIAN_POINT('',(0.0215452430944744,0.,0.00805));
#1043=CARTESIAN_POINT('',(0.0215452430944744,0.02,0.00805));
#1044=CARTESIAN_POINT('',(0.,0.016118802153517,0.));
#1045=CARTESIAN_POINT('',(0.,0.0138094010767585,0.));
#1046=CARTESIAN_POINT('',(0.0178742424980175,0.0138094010767585,-0.00644293839191918));
#1047=CARTESIAN_POINT('',(0.0227004370434871,0.016118802153517,-0.00370002135597611));
#1048=CARTESIAN_POINT('',(0.0220009978140276,0.0157813654007759,-0.00435813955524529));
#1049=CARTESIAN_POINT('',(0.020453040365248,0.0150362618880238,-0.00539458881760507));
#1050=CARTESIAN_POINT('',(0.0187446432949968,0.0142214617450602,-0.00613294556853691));
#1051=CARTESIAN_POINT('',(0.0178742424980175,0.0138094010767585,-0.00644293839191918));
#1052=CARTESIAN_POINT('',(0.,0.0103094010767585,0.));
#1053=CARTESIAN_POINT('',(0.,0.0103094010767585,0.));
#1054=CARTESIAN_POINT('',(0.0172604408908176,0.0103094010767585,-0.0079421143440895));
#1055=CARTESIAN_POINT('',(0.0172604408908177,0.0103094010767585,-0.00794211434408953));
#1056=CARTESIAN_POINT('',(0.0180653863199695,0.00986960509517065,-0.00801508203142119));
#1057=CARTESIAN_POINT('',(0.01887410532212,0.00943366318579603,-0.00805000000000026));
#1058=CARTESIAN_POINT('',(0.0196856080132716,0.00899999999999524,-0.00805));
#1059=CARTESIAN_POINT('',(0.0196856080132718,0.00899999999999515,-0.00805));
#1060=CARTESIAN_POINT('',(0.0196856080132718,0.00899999999999515,-0.00805));
#1061=CARTESIAN_POINT('',(0.0203063127900332,0.00866829831389207,-0.00805));
#1062=CARTESIAN_POINT('',(0.0209261503824573,0.0083348255776166,-0.00805));
#1063=CARTESIAN_POINT('',(0.0215452430944744,0.00800000000000001,-0.00805));
#1064=CARTESIAN_POINT('',(0.,0.0110734011977911,0.));
#1065=CARTESIAN_POINT('',(0.0178742424980175,0.0138094010767585,-0.00644293839191918));
#1066=CARTESIAN_POINT('',(0.0175974013742779,0.0127884996907334,-0.00721096147054287));
#1067=CARTESIAN_POINT('',(0.0173586970860032,0.0115964538875823,-0.00772857608769062));
#1068=CARTESIAN_POINT('',(0.0172604408908176,0.0103094010767585,-0.00794211434408953));
#1069=CARTESIAN_POINT('',(0.,0.,0.));
#1070=CARTESIAN_POINT('',(0.,0.,9.5675531183387E-19));
#1071=CARTESIAN_POINT('',(0.,0.,-0.015625));
#1072=CARTESIAN_POINT('',(0.,0.,-0.00805));
#1073=CARTESIAN_POINT('',(0.0163,0.,-0.00805));
#1074=CARTESIAN_POINT('',(0.0163,0.,0.));
#1075=CARTESIAN_POINT('',(0.0163,0.,0.00805));
#1076=CARTESIAN_POINT('',(0.,0.,0.00805));
#1077=CARTESIAN_POINT('',(0.0163,0.017,1.7347234759768E-18));
#1078=CARTESIAN_POINT('',(0.0163,0.017,1.7347234759768E-18));
#1079=CARTESIAN_POINT('',(0.0163,0.017,5.00000000000066E-5));
#1080=CARTESIAN_POINT('',(0.0163,0.017,-5.00000000000014E-5));
#1081=CARTESIAN_POINT('',(0.0215452430944744,0.017,-5.00000000000014E-5));
#1082=CARTESIAN_POINT('',(0.0163,0.017,5.00000000000066E-5));
#1083=CARTESIAN_POINT('',(0.0163,-1.7347234759768E-18,0.00805));
#1084=CARTESIAN_POINT('',(0.0163,-1.7347234759768E-18,0.00805));
#1085=CARTESIAN_POINT('',(0.0163,0.009,0.00805));
#1086=CARTESIAN_POINT('',(0.0163,0.009,0.00805));
#1087=CARTESIAN_POINT('',(0.0163,0.,-0.00805));
#1088=CARTESIAN_POINT('',(0.0163,0.009,-0.00805));
#1089=CARTESIAN_POINT('',(0.0163,0.009,-0.00805));
#1090=CARTESIAN_POINT('',(0.0163,0.,-0.00805));
#1091=CARTESIAN_POINT('',(0.0163,-3.46944695195361E-18,3.46944695195361E-18));
#1092=CARTESIAN_POINT('',(0.0163,0.009,-5.00000000000014E-5));
#1093=CARTESIAN_POINT('',(0.0163,0.009,5.00000000000066E-5));
#1094=CARTESIAN_POINT('',(0.0163,0.009,-5.00000000000014E-5));
#1095=CARTESIAN_POINT('',(0.0163,0.009,5.00000000000066E-5));
#1096=CARTESIAN_POINT('',(0.,-0.002,9.5675531183387E-19));
#1097=CARTESIAN_POINT('',(0.,-0.002,9.5675531183387E-19));
#1098=CARTESIAN_POINT('',(0.,-0.002,-0.015625));
#1099=CARTESIAN_POINT('',(0.,-0.002,1.92881870865708E-18));
#1100=CARTESIAN_POINT('',(0.,-0.0499052371054655,1.92881870865708E-18));
#1101=CARTESIAN_POINT('',(0.,-0.0499052371054655,0.00888638170122633));
#1102=CARTESIAN_POINT('',(0.,-0.002,1.92881870865708E-18));
#1103=CARTESIAN_POINT('',(0.,-0.002,-0.015875));
#1104=CARTESIAN_POINT('',(0.,-0.0504,0.));
#1105=CARTESIAN_POINT('',(0.,-0.0504,2.31152083339063E-18));
#1106=CARTESIAN_POINT('',(0.,-0.0504,-0.00682823465221542));
#1107=CARTESIAN_POINT('',(0.,-0.0504,1.92881870865708E-18));
#1108=CARTESIAN_POINT('',(0.,-0.0504,-0.00831420360072584));
#1109=CARTESIAN_POINT('',(0.,-0.002,0.));
#1110=CARTESIAN_POINT('',(0.,-0.0434,2.31152083339063E-18));
#1111=CARTESIAN_POINT('',(0.,-0.0498217653477846,2.31152083339063E-18));
#1112=CARTESIAN_POINT('',(0.,-0.0498217653477846,-0.00625));
#1113=CARTESIAN_POINT('',(0.,-0.0434,2.31152083339063E-18));
#1114=CARTESIAN_POINT('',(0.,-0.0434,-0.00625));
#1115=CARTESIAN_POINT('',(0.,-0.0434,3.46944695195361E-18));
#1116=CARTESIAN_POINT('',(0.,-0.0498217653477846,2.31152083339063E-18));
#1117=CARTESIAN_POINT('',(0.,-0.0504,1.92881870865708E-18));
#1118=CARTESIAN_POINT('',(0.,0.032,2.76923257457195E-18));
#1119=CARTESIAN_POINT('',(0.,0.029775,2.76923257457195E-18));
#1120=CARTESIAN_POINT('',(0.,0.029775,0.022225));
#1121=CARTESIAN_POINT('',(0.,0.02,2.76923257457195E-18));
#1122=CARTESIAN_POINT('',(0.,0.02,0.022225));
#1123=CARTESIAN_POINT('',(0.,0.019225,1.40834381901946E-18));
#1124=CARTESIAN_POINT('',(0.,0.048,3.9938793737193E-18));
#1125=CARTESIAN_POINT('',(0.,0.0472,3.9938793737193E-18));
#1126=CARTESIAN_POINT('',(0.,0.0472,0.02));
#1127=CARTESIAN_POINT('',(0.,0.032,3.9938793737193E-18));
#1128=CARTESIAN_POINT('',(0.,0.032,0.02));
#1129=CARTESIAN_POINT('',(0.,0.048,3.46944695195361E-18));
#1130=CARTESIAN_POINT('',(0.,0.048,3.9938793737193E-18));
#1131=CARTESIAN_POINT('',(0.,0.048,0.0192));
#1132=CARTESIAN_POINT('',(0.,0.048,1.76042977377432E-18));
#1133=CARTESIAN_POINT('',(0.,0.048,0.0165));
#1134=CARTESIAN_POINT('',(0.,0.032,2.76923257457195E-18));
#1135=CARTESIAN_POINT('',(0.,0.000489242262155493,3.9938793737193E-18));
#1136=CARTESIAN_POINT('',(0.,0.008,3.9938793737193E-18));
#1137=CARTESIAN_POINT('',(0.,0.008,0.0125));
#1138=CARTESIAN_POINT('',(0.,0.0242446211310778,3.9938793737193E-18));
#1139=CARTESIAN_POINT('',(0.,0.0230962059716553,1.76042977377432E-18));
#1140=CARTESIAN_POINT('',(0.,0.0230962059716553,0.0125));
#1141=CARTESIAN_POINT('',(0.,0.048,1.76042977377432E-18));
#1142=CARTESIAN_POINT('',(0.,0.0475048659656292,1.76042977377432E-18));
#1143=CARTESIAN_POINT('',(0.,0.0475048659656292,0.01593041344952));
#1144=CARTESIAN_POINT('',(0.,0.0475048659656292,1.76042977377432E-18));
#1145=CARTESIAN_POINT('',(0.,0.048,3.9938793737193E-18));
#1146=MECHANICAL_DESIGN_GEOMETRIC_PRESENTATION_REPRESENTATION('',(#631),
#1147);
#1147=(
GEOMETRIC_REPRESENTATION_CONTEXT(3)
GLOBAL_UNCERTAINTY_ASSIGNED_CONTEXT((#1148))
GLOBAL_UNIT_ASSIGNED_CONTEXT((#1151,#1150,#1149))
REPRESENTATION_CONTEXT('BT30-ER32-60 Collet Holder Body',
'TOP_LEVEL_ASSEMBLY_PART')
);
#1148=UNCERTAINTY_MEASURE_WITH_UNIT(LENGTH_MEASURE(5.E-6),#1151,
'DISTANCE_ACCURACY_VALUE','Maximum Tolerance applied to model');
#1149=(
NAMED_UNIT(*)
SI_UNIT($,.STERADIAN.)
SOLID_ANGLE_UNIT()
);
#1150=(
NAMED_UNIT(*)
PLANE_ANGLE_UNIT()
SI_UNIT($,.RADIAN.)
);
#1151=(
LENGTH_UNIT()
NAMED_UNIT(*)
SI_UNIT($,.METRE.)
);
#1152=PRODUCT_DEFINITION_SHAPE('','',#1153);
#1153=PRODUCT_DEFINITION('','',#1155,#1154);
#1154=PRODUCT_DEFINITION_CONTEXT('',#1161,'design');
#1155=PRODUCT_DEFINITION_FORMATION_WITH_SPECIFIED_SOURCE('','',#1157,
 .NOT_KNOWN.);
#1156=PRODUCT_RELATED_PRODUCT_CATEGORY('','',(#1157));
#1157=PRODUCT('BT30-ER32-60 Collet Holder Body',
'BT30-ER32-60 Collet Holder Body','BT30-ER32-60 Collet Holder Body',(#1159));
#1158=PRODUCT_CATEGORY('','');
#1159=PRODUCT_CONTEXT('',#1161,'mechanical');
#1160=APPLICATION_PROTOCOL_DEFINITION('international standard',
'automotive_design',2010,#1161);
#1161=APPLICATION_CONTEXT(
'core data for automotive mechanical design processes');
ENDSEC;
END-ISO-10303-21;
