ISO-10303-21;
HEADER;
/* Generated by software containing ST-Developer
 * from STEP Tools, Inc. (www.steptools.com) 
 */
/* OPTION: using custom renumber hook */

FILE_DESCRIPTION(
/* description */ ('STEP AP242 Edition 2',
'CAx-IF Rec.Pracs.---Representation and Presentation of Product Manufa
cturing Information (PMI)---4.0---2014-10-13',
'CAx-IF Rec.Pracs.---3D Tessellated Geometry---0.4---2014-09-14','2;1',
'CAx-IF Rec.Pracs.---User Defined Attributes---1.5---2016-08-15'),
/* implementation_level */ '2;1');

FILE_NAME(
/* name */ 'tool_side Copy 1 - Rake',
/* time_stamp */ '2026-04-21T11:09:56Z',
/* author */ (''),
/* organization */ (''),
/* preprocessor_version */ 'ST-DEVELOPER v20',
/* originating_system */ 'ONSHAPE BY PTC INC, 1.213',
/* authorisation */ '  ');

FILE_SCHEMA (('AP242_MANAGED_MODEL_BASED_3D_ENGINEERING_MIM_LF { 1 0 10303 442 3 1 4 }'));
ENDSEC;

DATA;
#10=SHAPE_REPRESENTATION_RELATIONSHIP('','',#401,#11);
#11=ADVANCED_BREP_SHAPE_REPRESENTATION('',(#399),#692);
#12=ELLIPSE('',#411,0.00439395144323739,0.003);
#13=ELLIPSE('',#412,0.00439395144323739,0.003);
#14=ELLIPSE('',#426,0.00410595691609333,0.003);
#15=ELLIPSE('',#428,0.00410595691609333,0.003);
#16=ELLIPSE('',#434,0.0158641993075391,0.003);
#17=ELLIPSE('',#436,0.0158641993075391,0.003);
#18=ELLIPSE('',#438,0.0158641993075391,0.003);
#19=ELLIPSE('',#440,0.0158641993075391,0.003);
#20=PLANE('',#407);
#21=PLANE('',#410);
#22=PLANE('',#418);
#23=PLANE('',#420);
#24=PLANE('',#425);
#25=PLANE('',#427);
#26=PLANE('',#429);
#27=PLANE('',#430);
#28=PLANE('',#431);
#29=PLANE('',#432);
#30=PLANE('',#441);
#31=PLANE('',#442);
#32=CIRCLE('',#404,0.005);
#33=CIRCLE('',#406,0.005);
#34=CIRCLE('',#408,0.002);
#35=CIRCLE('',#409,0.032);
#36=CIRCLE('',#414,0.032);
#37=CIRCLE('',#415,0.032);
#38=CIRCLE('',#416,0.032);
#39=CIRCLE('',#417,0.032);
#40=CIRCLE('',#419,0.002);
#41=CIRCLE('',#421,0.002);
#42=CIRCLE('',#422,0.002);
#43=LINE('',#562,#72);
#44=LINE('',#571,#73);
#45=LINE('',#575,#74);
#46=LINE('',#585,#75);
#47=LINE('',#598,#76);
#48=LINE('',#601,#77);
#49=LINE('',#602,#78);
#50=LINE('',#606,#79);
#51=LINE('',#610,#80);
#52=LINE('',#611,#81);
#53=LINE('',#614,#82);
#54=LINE('',#632,#83);
#55=LINE('',#645,#84);
#56=LINE('',#651,#85);
#57=LINE('',#653,#86);
#58=LINE('',#656,#87);
#59=LINE('',#658,#88);
#60=LINE('',#659,#89);
#61=LINE('',#661,#90);
#62=LINE('',#663,#91);
#63=LINE('',#665,#92);
#64=LINE('',#667,#93);
#65=LINE('',#669,#94);
#66=LINE('',#671,#95);
#67=LINE('',#673,#96);
#68=LINE('',#675,#97);
#69=LINE('',#677,#98);
#70=LINE('',#679,#99);
#71=LINE('',#689,#100);
#72=VECTOR('',#447,1.);
#73=VECTOR('',#448,1.);
#74=VECTOR('',#453,1.);
#75=VECTOR('',#454,1.);
#76=VECTOR('',#465,1.);
#77=VECTOR('',#466,1.);
#78=VECTOR('',#467,1.);
#79=VECTOR('',#470,1.);
#80=VECTOR('',#473,1.);
#81=VECTOR('',#474,1.);
#82=VECTOR('',#479,1.);
#83=VECTOR('',#484,1.);
#84=VECTOR('',#503,1.);
#85=VECTOR('',#510,1.);
#86=VECTOR('',#513,1.);
#87=VECTOR('',#514,1.);
#88=VECTOR('',#515,1.);
#89=VECTOR('',#516,1.);
#90=VECTOR('',#519,1.);
#91=VECTOR('',#520,1.);
#92=VECTOR('',#521,1.);
#93=VECTOR('',#522,1.);
#94=VECTOR('',#525,1.);
#95=VECTOR('',#526,1.);
#96=VECTOR('',#527,1.);
#97=VECTOR('',#530,1.);
#98=VECTOR('',#531,1.);
#99=VECTOR('',#532,1.);
#100=VECTOR('',#551,1.);
#101=ORIENTED_EDGE('',*,*,#209,.F.);
#102=ORIENTED_EDGE('',*,*,#210,.F.);
#103=ORIENTED_EDGE('',*,*,#211,.T.);
#104=ORIENTED_EDGE('',*,*,#212,.F.);
#105=ORIENTED_EDGE('',*,*,#213,.T.);
#106=ORIENTED_EDGE('',*,*,#214,.F.);
#107=ORIENTED_EDGE('',*,*,#215,.T.);
#108=ORIENTED_EDGE('',*,*,#216,.F.);
#109=ORIENTED_EDGE('',*,*,#217,.F.);
#110=ORIENTED_EDGE('',*,*,#218,.T.);
#111=ORIENTED_EDGE('',*,*,#219,.T.);
#112=ORIENTED_EDGE('',*,*,#220,.T.);
#113=ORIENTED_EDGE('',*,*,#216,.T.);
#114=ORIENTED_EDGE('',*,*,#221,.F.);
#115=ORIENTED_EDGE('',*,*,#222,.F.);
#116=ORIENTED_EDGE('',*,*,#213,.F.);
#117=ORIENTED_EDGE('',*,*,#223,.F.);
#118=ORIENTED_EDGE('',*,*,#224,.F.);
#119=ORIENTED_EDGE('',*,*,#225,.F.);
#120=ORIENTED_EDGE('',*,*,#226,.F.);
#121=ORIENTED_EDGE('',*,*,#227,.F.);
#122=ORIENTED_EDGE('',*,*,#218,.F.);
#123=ORIENTED_EDGE('',*,*,#228,.T.);
#124=ORIENTED_EDGE('',*,*,#229,.T.);
#125=ORIENTED_EDGE('',*,*,#228,.F.);
#126=ORIENTED_EDGE('',*,*,#217,.T.);
#127=ORIENTED_EDGE('',*,*,#220,.F.);
#128=ORIENTED_EDGE('',*,*,#215,.F.);
#129=ORIENTED_EDGE('',*,*,#230,.F.);
#130=ORIENTED_EDGE('',*,*,#231,.F.);
#131=ORIENTED_EDGE('',*,*,#232,.F.);
#132=ORIENTED_EDGE('',*,*,#233,.F.);
#133=ORIENTED_EDGE('',*,*,#234,.F.);
#134=ORIENTED_EDGE('',*,*,#235,.F.);
#135=ORIENTED_EDGE('',*,*,#211,.F.);
#136=ORIENTED_EDGE('',*,*,#236,.F.);
#137=ORIENTED_EDGE('',*,*,#209,.T.);
#138=ORIENTED_EDGE('',*,*,#222,.T.);
#139=ORIENTED_EDGE('',*,*,#236,.T.);
#140=ORIENTED_EDGE('',*,*,#210,.T.);
#141=ORIENTED_EDGE('',*,*,#237,.T.);
#142=ORIENTED_EDGE('',*,*,#238,.T.);
#143=ORIENTED_EDGE('',*,*,#239,.T.);
#144=ORIENTED_EDGE('',*,*,#221,.T.);
#145=ORIENTED_EDGE('',*,*,#229,.F.);
#146=ORIENTED_EDGE('',*,*,#219,.F.);
#147=ORIENTED_EDGE('',*,*,#239,.F.);
#148=ORIENTED_EDGE('',*,*,#237,.F.);
#149=ORIENTED_EDGE('',*,*,#238,.F.);
#150=ORIENTED_EDGE('',*,*,#240,.T.);
#151=ORIENTED_EDGE('',*,*,#241,.T.);
#152=ORIENTED_EDGE('',*,*,#233,.T.);
#153=ORIENTED_EDGE('',*,*,#232,.T.);
#154=ORIENTED_EDGE('',*,*,#242,.T.);
#155=ORIENTED_EDGE('',*,*,#243,.T.);
#156=ORIENTED_EDGE('',*,*,#244,.T.);
#157=ORIENTED_EDGE('',*,*,#245,.T.);
#158=ORIENTED_EDGE('',*,*,#246,.T.);
#159=ORIENTED_EDGE('',*,*,#225,.T.);
#160=ORIENTED_EDGE('',*,*,#247,.T.);
#161=ORIENTED_EDGE('',*,*,#248,.T.);
#162=ORIENTED_EDGE('',*,*,#249,.T.);
#163=ORIENTED_EDGE('',*,*,#250,.T.);
#164=ORIENTED_EDGE('',*,*,#251,.T.);
#165=ORIENTED_EDGE('',*,*,#240,.F.);
#166=ORIENTED_EDGE('',*,*,#243,.F.);
#167=ORIENTED_EDGE('',*,*,#252,.T.);
#168=ORIENTED_EDGE('',*,*,#253,.T.);
#169=ORIENTED_EDGE('',*,*,#254,.T.);
#170=ORIENTED_EDGE('',*,*,#230,.T.);
#171=ORIENTED_EDGE('',*,*,#214,.T.);
#172=ORIENTED_EDGE('',*,*,#227,.T.);
#173=ORIENTED_EDGE('',*,*,#255,.T.);
#174=ORIENTED_EDGE('',*,*,#256,.T.);
#175=ORIENTED_EDGE('',*,*,#257,.T.);
#176=ORIENTED_EDGE('',*,*,#223,.T.);
#177=ORIENTED_EDGE('',*,*,#212,.T.);
#178=ORIENTED_EDGE('',*,*,#235,.T.);
#179=ORIENTED_EDGE('',*,*,#246,.F.);
#180=ORIENTED_EDGE('',*,*,#258,.T.);
#181=ORIENTED_EDGE('',*,*,#252,.F.);
#182=ORIENTED_EDGE('',*,*,#226,.T.);
#183=ORIENTED_EDGE('',*,*,#257,.F.);
#184=ORIENTED_EDGE('',*,*,#259,.T.);
#185=ORIENTED_EDGE('',*,*,#247,.F.);
#186=ORIENTED_EDGE('',*,*,#224,.T.);
#187=ORIENTED_EDGE('',*,*,#251,.F.);
#188=ORIENTED_EDGE('',*,*,#260,.T.);
#189=ORIENTED_EDGE('',*,*,#255,.F.);
#190=ORIENTED_EDGE('',*,*,#234,.T.);
#191=ORIENTED_EDGE('',*,*,#241,.F.);
#192=ORIENTED_EDGE('',*,*,#254,.F.);
#193=ORIENTED_EDGE('',*,*,#261,.T.);
#194=ORIENTED_EDGE('',*,*,#248,.F.);
#195=ORIENTED_EDGE('',*,*,#242,.F.);
#196=ORIENTED_EDGE('',*,*,#231,.T.);
#197=ORIENTED_EDGE('',*,*,#262,.F.);
#198=ORIENTED_EDGE('',*,*,#244,.F.);
#199=ORIENTED_EDGE('',*,*,#259,.F.);
#200=ORIENTED_EDGE('',*,*,#256,.F.);
#201=ORIENTED_EDGE('',*,*,#260,.F.);
#202=ORIENTED_EDGE('',*,*,#250,.F.);
#203=ORIENTED_EDGE('',*,*,#245,.F.);
#204=ORIENTED_EDGE('',*,*,#262,.T.);
#205=ORIENTED_EDGE('',*,*,#249,.F.);
#206=ORIENTED_EDGE('',*,*,#261,.F.);
#207=ORIENTED_EDGE('',*,*,#253,.F.);
#208=ORIENTED_EDGE('',*,*,#258,.F.);
#209=EDGE_CURVE('',#263,#264,#300,.T.);
#210=EDGE_CURVE('',#265,#263,#43,.F.);
#211=EDGE_CURVE('',#265,#266,#301,.T.);
#212=EDGE_CURVE('',#267,#266,#44,.T.);
#213=EDGE_CURVE('',#267,#264,#32,.T.);
#214=EDGE_CURVE('',#268,#269,#45,.T.);
#215=EDGE_CURVE('',#268,#270,#302,.F.);
#216=EDGE_CURVE('',#271,#270,#46,.F.);
#217=EDGE_CURVE('',#272,#271,#303,.F.);
#218=EDGE_CURVE('',#272,#269,#33,.T.);
#219=EDGE_CURVE('',#273,#273,#34,.F.);
#220=EDGE_CURVE('',#270,#271,#35,.T.);
#221=EDGE_CURVE('',#274,#275,#47,.T.);
#222=EDGE_CURVE('',#264,#274,#48,.T.);
#223=EDGE_CURVE('',#276,#267,#49,.T.);
#224=EDGE_CURVE('',#277,#276,#12,.T.);
#225=EDGE_CURVE('',#278,#277,#50,.T.);
#226=EDGE_CURVE('',#279,#278,#13,.T.);
#227=EDGE_CURVE('',#269,#279,#51,.T.);
#228=EDGE_CURVE('',#272,#275,#52,.T.);
#229=EDGE_CURVE('',#274,#275,#36,.T.);
#230=EDGE_CURVE('',#280,#268,#53,.F.);
#231=EDGE_CURVE('',#281,#280,#304,.F.);
#232=EDGE_CURVE('',#282,#281,#37,.T.);
#233=EDGE_CURVE('',#283,#282,#38,.T.);
#234=EDGE_CURVE('',#284,#283,#305,.T.);
#235=EDGE_CURVE('',#266,#284,#54,.T.);
#236=EDGE_CURVE('',#263,#265,#39,.T.);
#237=EDGE_CURVE('',#285,#285,#40,.F.);
#238=EDGE_CURVE('',#286,#286,#41,.T.);
#239=EDGE_CURVE('',#287,#287,#42,.T.);
#240=EDGE_CURVE('',#282,#288,#55,.T.);
#241=EDGE_CURVE('',#288,#283,#14,.T.);
#242=EDGE_CURVE('',#281,#289,#15,.T.);
#243=EDGE_CURVE('',#289,#282,#56,.T.);
#244=EDGE_CURVE('',#290,#291,#57,.F.);
#245=EDGE_CURVE('',#291,#292,#58,.T.);
#246=EDGE_CURVE('',#292,#278,#59,.F.);
#247=EDGE_CURVE('',#277,#290,#60,.T.);
#248=EDGE_CURVE('',#289,#293,#61,.T.);
#249=EDGE_CURVE('',#293,#294,#62,.T.);
#250=EDGE_CURVE('',#294,#295,#63,.F.);
#251=EDGE_CURVE('',#295,#288,#64,.F.);
#252=EDGE_CURVE('',#279,#296,#65,.T.);
#253=EDGE_CURVE('',#296,#297,#66,.T.);
#254=EDGE_CURVE('',#297,#280,#67,.F.);
#255=EDGE_CURVE('',#284,#298,#68,.T.);
#256=EDGE_CURVE('',#298,#299,#69,.T.);
#257=EDGE_CURVE('',#299,#276,#70,.F.);
#258=EDGE_CURVE('',#292,#296,#16,.F.);
#259=EDGE_CURVE('',#299,#290,#17,.T.);
#260=EDGE_CURVE('',#295,#298,#18,.T.);
#261=EDGE_CURVE('',#297,#293,#19,.F.);
#262=EDGE_CURVE('',#291,#294,#71,.T.);
#263=VERTEX_POINT('',#560);
#264=VERTEX_POINT('',#561);
#265=VERTEX_POINT('',#563);
#266=VERTEX_POINT('',#570);
#267=VERTEX_POINT('',#572);
#268=VERTEX_POINT('',#576);
#269=VERTEX_POINT('',#577);
#270=VERTEX_POINT('',#584);
#271=VERTEX_POINT('',#586);
#272=VERTEX_POINT('',#591);
#273=VERTEX_POINT('',#595);
#274=VERTEX_POINT('',#599);
#275=VERTEX_POINT('',#600);
#276=VERTEX_POINT('',#603);
#277=VERTEX_POINT('',#605);
#278=VERTEX_POINT('',#607);
#279=VERTEX_POINT('',#609);
#280=VERTEX_POINT('',#615);
#281=VERTEX_POINT('',#621);
#282=VERTEX_POINT('',#623);
#283=VERTEX_POINT('',#625);
#284=VERTEX_POINT('',#631);
#285=VERTEX_POINT('',#636);
#286=VERTEX_POINT('',#639);
#287=VERTEX_POINT('',#641);
#288=VERTEX_POINT('',#646);
#289=VERTEX_POINT('',#650);
#290=VERTEX_POINT('',#654);
#291=VERTEX_POINT('',#655);
#292=VERTEX_POINT('',#657);
#293=VERTEX_POINT('',#662);
#294=VERTEX_POINT('',#664);
#295=VERTEX_POINT('',#666);
#296=VERTEX_POINT('',#670);
#297=VERTEX_POINT('',#672);
#298=VERTEX_POINT('',#676);
#299=VERTEX_POINT('',#678);
#300=B_SPLINE_CURVE_WITH_KNOTS('',3,(#556,#557,#558,#559),.UNSPECIFIED.,
 .F.,.F.,(4,4),(0.,0.00270254211420391),.UNSPECIFIED.);
#301=B_SPLINE_CURVE_WITH_KNOTS('',3,(#564,#565,#566,#567,#568,#569),
 .UNSPECIFIED.,.F.,.F.,(4,1,1,4),(0.,0.00198674654668223,0.00397349309336446,
0.00794698618672891),.UNSPECIFIED.);
#302=B_SPLINE_CURVE_WITH_KNOTS('',3,(#578,#579,#580,#581,#582,#583),
 .UNSPECIFIED.,.F.,.F.,(4,1,1,4),(0.,0.00198674654668223,0.00397349309336445,
0.00794698618672891),.UNSPECIFIED.);
#303=B_SPLINE_CURVE_WITH_KNOTS('',3,(#587,#588,#589,#590),.UNSPECIFIED.,
 .F.,.F.,(4,4),(0.,0.00270254211420387),.UNSPECIFIED.);
#304=B_SPLINE_CURVE_WITH_KNOTS('',3,(#616,#617,#618,#619,#620),
 .UNSPECIFIED.,.F.,.F.,(4,1,4),(0.,0.00244293429237063,0.00488586858474127),
 .UNSPECIFIED.);
#305=B_SPLINE_CURVE_WITH_KNOTS('',3,(#626,#627,#628,#629,#630),
 .UNSPECIFIED.,.F.,.F.,(4,1,4),(3.86438613920068E-17,0.00244293429247257,
0.00488586858494511),.UNSPECIFIED.);
#306=EDGE_LOOP('',(#101,#102,#103,#104,#105));
#307=EDGE_LOOP('',(#106,#107,#108,#109,#110));
#308=EDGE_LOOP('',(#111));
#309=EDGE_LOOP('',(#112,#113));
#310=EDGE_LOOP('',(#114,#115,#116,#117,#118,#119,#120,#121,#122,#123));
#311=EDGE_LOOP('',(#124,#125,#126,#127,#128,#129,#130,#131,#132,#133,#134,
#135,#136,#137,#138));
#312=EDGE_LOOP('',(#139,#140));
#313=EDGE_LOOP('',(#141));
#314=EDGE_LOOP('',(#142));
#315=EDGE_LOOP('',(#143));
#316=EDGE_LOOP('',(#144,#145));
#317=EDGE_LOOP('',(#146));
#318=EDGE_LOOP('',(#147));
#319=EDGE_LOOP('',(#148));
#320=EDGE_LOOP('',(#149));
#321=EDGE_LOOP('',(#150,#151,#152));
#322=EDGE_LOOP('',(#153,#154,#155));
#323=EDGE_LOOP('',(#156,#157,#158,#159,#160));
#324=EDGE_LOOP('',(#161,#162,#163,#164,#165,#166));
#325=EDGE_LOOP('',(#167,#168,#169,#170,#171,#172));
#326=EDGE_LOOP('',(#173,#174,#175,#176,#177,#178));
#327=EDGE_LOOP('',(#179,#180,#181,#182));
#328=EDGE_LOOP('',(#183,#184,#185,#186));
#329=EDGE_LOOP('',(#187,#188,#189,#190,#191));
#330=EDGE_LOOP('',(#192,#193,#194,#195,#196));
#331=EDGE_LOOP('',(#197,#198,#199,#200,#201,#202));
#332=EDGE_LOOP('',(#203,#204,#205,#206,#207,#208));
#333=FACE_BOUND('',#306,.T.);
#334=FACE_BOUND('',#307,.T.);
#335=FACE_BOUND('',#308,.T.);
#336=FACE_BOUND('',#309,.T.);
#337=FACE_BOUND('',#310,.T.);
#338=FACE_BOUND('',#311,.T.);
#339=FACE_BOUND('',#312,.T.);
#340=FACE_BOUND('',#313,.T.);
#341=FACE_BOUND('',#314,.T.);
#342=FACE_BOUND('',#315,.T.);
#343=FACE_BOUND('',#316,.T.);
#344=FACE_BOUND('',#317,.T.);
#345=FACE_BOUND('',#318,.T.);
#346=FACE_BOUND('',#319,.T.);
#347=FACE_BOUND('',#320,.T.);
#348=FACE_BOUND('',#321,.T.);
#349=FACE_BOUND('',#322,.T.);
#350=FACE_BOUND('',#323,.T.);
#351=FACE_BOUND('',#324,.T.);
#352=FACE_BOUND('',#325,.T.);
#353=FACE_BOUND('',#326,.T.);
#354=FACE_BOUND('',#327,.T.);
#355=FACE_BOUND('',#328,.T.);
#356=FACE_BOUND('',#329,.T.);
#357=FACE_BOUND('',#330,.T.);
#358=FACE_BOUND('',#331,.T.);
#359=FACE_BOUND('',#332,.T.);
#360=CYLINDRICAL_SURFACE('',#403,0.005);
#361=CYLINDRICAL_SURFACE('',#405,0.005);
#362=CYLINDRICAL_SURFACE('',#413,0.032);
#363=CYLINDRICAL_SURFACE('',#423,0.002);
#364=CYLINDRICAL_SURFACE('',#424,0.002);
#365=CYLINDRICAL_SURFACE('',#433,0.003);
#366=CYLINDRICAL_SURFACE('',#435,0.003);
#367=CYLINDRICAL_SURFACE('',#437,0.003);
#368=CYLINDRICAL_SURFACE('',#439,0.003);
#369=ADVANCED_FACE('',(#333),#360,.F.);
#370=ADVANCED_FACE('',(#334),#361,.F.);
#371=ADVANCED_FACE('',(#335,#336),#20,.T.);
#372=ADVANCED_FACE('',(#337),#21,.T.);
#373=ADVANCED_FACE('',(#338),#362,.T.);
#374=ADVANCED_FACE('',(#339,#340),#22,.T.);
#375=ADVANCED_FACE('',(#341,#342,#343),#23,.F.);
#376=ADVANCED_FACE('',(#344,#345),#363,.F.);
#377=ADVANCED_FACE('',(#346,#347),#364,.F.);
#378=ADVANCED_FACE('',(#348),#24,.T.);
#379=ADVANCED_FACE('',(#349),#25,.T.);
#380=ADVANCED_FACE('',(#350),#26,.F.);
#381=ADVANCED_FACE('',(#351),#27,.T.);
#382=ADVANCED_FACE('',(#352),#28,.T.);
#383=ADVANCED_FACE('',(#353),#29,.F.);
#384=ADVANCED_FACE('',(#354),#365,.T.);
#385=ADVANCED_FACE('',(#355),#366,.T.);
#386=ADVANCED_FACE('',(#356),#367,.T.);
#387=ADVANCED_FACE('',(#357),#368,.T.);
#388=ADVANCED_FACE('',(#358),#30,.F.);
#389=ADVANCED_FACE('',(#359),#31,.T.);
#390=CLOSED_SHELL('',(#369,#370,#371,#372,#373,#374,#375,#376,#377,#378,
#379,#380,#381,#382,#383,#384,#385,#386,#387,#388,#389));
#391=STYLED_ITEM('',(#392),#399);
#392=PRESENTATION_STYLE_ASSIGNMENT((#393));
#393=SURFACE_STYLE_USAGE(.BOTH.,#394);
#394=SURFACE_SIDE_STYLE('',(#395));
#395=SURFACE_STYLE_FILL_AREA(#396);
#396=FILL_AREA_STYLE('',(#397));
#397=FILL_AREA_STYLE_COLOUR('',#398);
#398=COLOUR_RGB('',0.231372549019608,0.380392156862745,0.705882352941177);
#399=MANIFOLD_SOLID_BREP('Rake',#390);
#400=SHAPE_DEFINITION_REPRESENTATION(#697,#401);
#401=SHAPE_REPRESENTATION('Rake',(#402),#692);
#402=AXIS2_PLACEMENT_3D('',#554,#443,#444);
#403=AXIS2_PLACEMENT_3D('',#555,#445,#446);
#404=AXIS2_PLACEMENT_3D('',#573,#449,#450);
#405=AXIS2_PLACEMENT_3D('',#574,#451,#452);
#406=AXIS2_PLACEMENT_3D('',#592,#455,#456);
#407=AXIS2_PLACEMENT_3D('',#593,#457,#458);
#408=AXIS2_PLACEMENT_3D('',#594,#459,#460);
#409=AXIS2_PLACEMENT_3D('',#596,#461,#462);
#410=AXIS2_PLACEMENT_3D('',#597,#463,#464);
#411=AXIS2_PLACEMENT_3D('',#604,#468,#469);
#412=AXIS2_PLACEMENT_3D('',#608,#471,#472);
#413=AXIS2_PLACEMENT_3D('',#612,#475,#476);
#414=AXIS2_PLACEMENT_3D('',#613,#477,#478);
#415=AXIS2_PLACEMENT_3D('',#622,#480,#481);
#416=AXIS2_PLACEMENT_3D('',#624,#482,#483);
#417=AXIS2_PLACEMENT_3D('',#633,#485,#486);
#418=AXIS2_PLACEMENT_3D('',#634,#487,#488);
#419=AXIS2_PLACEMENT_3D('',#635,#489,#490);
#420=AXIS2_PLACEMENT_3D('',#637,#491,#492);
#421=AXIS2_PLACEMENT_3D('',#638,#493,#494);
#422=AXIS2_PLACEMENT_3D('',#640,#495,#496);
#423=AXIS2_PLACEMENT_3D('',#642,#497,#498);
#424=AXIS2_PLACEMENT_3D('',#643,#499,#500);
#425=AXIS2_PLACEMENT_3D('',#644,#501,#502);
#426=AXIS2_PLACEMENT_3D('',#647,#504,#505);
#427=AXIS2_PLACEMENT_3D('',#648,#506,#507);
#428=AXIS2_PLACEMENT_3D('',#649,#508,#509);
#429=AXIS2_PLACEMENT_3D('',#652,#511,#512);
#430=AXIS2_PLACEMENT_3D('',#660,#517,#518);
#431=AXIS2_PLACEMENT_3D('',#668,#523,#524);
#432=AXIS2_PLACEMENT_3D('',#674,#528,#529);
#433=AXIS2_PLACEMENT_3D('',#680,#533,#534);
#434=AXIS2_PLACEMENT_3D('',#681,#535,#536);
#435=AXIS2_PLACEMENT_3D('',#682,#537,#538);
#436=AXIS2_PLACEMENT_3D('',#683,#539,#540);
#437=AXIS2_PLACEMENT_3D('',#684,#541,#542);
#438=AXIS2_PLACEMENT_3D('',#685,#543,#544);
#439=AXIS2_PLACEMENT_3D('',#686,#545,#546);
#440=AXIS2_PLACEMENT_3D('',#687,#547,#548);
#441=AXIS2_PLACEMENT_3D('',#688,#549,#550);
#442=AXIS2_PLACEMENT_3D('',#690,#552,#553);
#443=DIRECTION('',(0.,0.,1.));
#444=DIRECTION('',(1.,0.,0.));
#445=DIRECTION('',(0.,1.,0.));
#446=DIRECTION('',(0.,0.,1.));
#447=DIRECTION('',(0.,1.,0.));
#448=DIRECTION('',(0.,1.,0.));
#449=DIRECTION('',(0.,-1.,0.));
#450=DIRECTION('',(0.,0.,-1.));
#451=DIRECTION('',(0.,1.,0.));
#452=DIRECTION('',(0.,0.,1.));
#453=DIRECTION('',(0.,-1.,0.));
#454=DIRECTION('',(0.,-1.,0.));
#455=DIRECTION('',(0.,-1.,0.));
#456=DIRECTION('',(0.,0.,-1.));
#457=DIRECTION('',(0.,0.,-1.));
#458=DIRECTION('',(1.,0.,0.));
#459=DIRECTION('',(0.,0.,-1.));
#460=DIRECTION('',(-1.,0.,0.));
#461=DIRECTION('',(0.,0.,-1.));
#462=DIRECTION('',(-1.,0.,0.));
#463=DIRECTION('',(0.,-1.,0.));
#464=DIRECTION('',(0.,0.,-1.));
#465=DIRECTION('',(1.,0.,0.));
#466=DIRECTION('',(0.,0.,1.));
#467=DIRECTION('',(0.,0.,-1.));
#468=DIRECTION('',(0.,-1.,0.));
#469=DIRECTION('',(0.,0.,-1.));
#470=DIRECTION('',(-1.,0.,0.));
#471=DIRECTION('',(0.,-1.,0.));
#472=DIRECTION('',(0.,0.,1.));
#473=DIRECTION('',(0.,0.,1.));
#474=DIRECTION('',(0.,0.,1.));
#475=DIRECTION('',(0.,0.,1.));
#476=DIRECTION('',(1.,0.,0.));
#477=DIRECTION('',(0.,0.,-1.));
#478=DIRECTION('',(-1.,0.,0.));
#479=DIRECTION('',(0.,0.,1.));
#480=DIRECTION('',(0.,0.,-1.));
#481=DIRECTION('',(-1.,0.,0.));
#482=DIRECTION('',(0.,0.,-1.));
#483=DIRECTION('',(-1.,0.,0.));
#484=DIRECTION('',(0.,0.,1.));
#485=DIRECTION('',(0.,0.,-1.));
#486=DIRECTION('',(-1.,0.,0.));
#487=DIRECTION('',(0.,0.,-1.));
#488=DIRECTION('',(1.,0.,0.));
#489=DIRECTION('',(0.,0.,-1.));
#490=DIRECTION('',(-1.,0.,0.));
#491=DIRECTION('',(0.,0.,-1.));
#492=DIRECTION('',(1.,0.,0.));
#493=DIRECTION('',(0.,0.,-1.));
#494=DIRECTION('',(-1.,0.,0.));
#495=DIRECTION('',(0.,0.,-1.));
#496=DIRECTION('',(-1.,0.,0.));
#497=DIRECTION('',(0.,0.,1.));
#498=DIRECTION('',(1.,0.,0.));
#499=DIRECTION('',(0.,0.,1.));
#500=DIRECTION('',(1.,0.,0.));
#501=DIRECTION('',(0.,0.,1.));
#502=DIRECTION('',(1.,0.,0.));
#503=DIRECTION('',(-1.,0.,0.));
#504=DIRECTION('',(0.,0.,1.));
#505=DIRECTION('',(0.,-1.,0.));
#506=DIRECTION('',(0.,0.,1.));
#507=DIRECTION('',(1.,0.,0.));
#508=DIRECTION('',(0.,0.,1.));
#509=DIRECTION('',(0.,1.,0.));
#510=DIRECTION('',(-1.,0.,0.));
#511=DIRECTION('',(0.,0.730645757202535,-0.682756748397213));
#512=DIRECTION('',(0.,0.682756748397213,0.730645757202535));
#513=DIRECTION('',(-0.192128587825905,0.67003682627732,0.717033651352738));
#514=DIRECTION('',(0.192128587825905,0.67003682627732,0.717033651352738));
#515=DIRECTION('',(0.,-0.682756748397213,-0.730645757202535));
#516=DIRECTION('',(0.,-0.682756748397213,-0.730645757202535));
#517=DIRECTION('',(0.,0.730645757202535,0.682756748397213));
#518=DIRECTION('',(0.,-0.682756748397213,0.730645757202535));
#519=DIRECTION('',(0.,0.682756748397213,-0.730645757202535));
#520=DIRECTION('',(-0.192128587825906,0.67003682627732,-0.717033651352738));
#521=DIRECTION('',(0.192128587825906,0.67003682627732,-0.717033651352738));
#522=DIRECTION('',(0.,0.682756748397213,-0.730645757202535));
#523=DIRECTION('',(1.,0.,0.));
#524=DIRECTION('',(0.,1.,0.));
#525=DIRECTION('',(0.,-0.682756748397213,-0.730645757202535));
#526=DIRECTION('',(0.,1.,2.22044604925032E-16));
#527=DIRECTION('',(0.,0.682756748397213,-0.730645757202535));
#528=DIRECTION('',(1.,0.,0.));
#529=DIRECTION('',(0.,1.,0.));
#530=DIRECTION('',(0.,0.682756748397213,-0.730645757202535));
#531=DIRECTION('',(0.,-1.,-2.22044604925032E-16));
#532=DIRECTION('',(0.,-0.682756748397213,-0.730645757202535));
#533=DIRECTION('',(0.,0.682756748397213,0.730645757202535));
#534=DIRECTION('',(0.,-0.730645757202535,0.682756748397213));
#535=DIRECTION('',(0.965925826289068,5.7469372616863E-17,-0.258819045102521));
#536=DIRECTION('',(0.186017783258394,0.695302179419092,0.694227818231663));
#537=DIRECTION('',(0.,-0.682756748397213,-0.730645757202535));
#538=DIRECTION('',(0.,0.730645757202535,-0.682756748397213));
#539=DIRECTION('',(0.965925826289068,-5.7469372616863E-17,0.258819045102521));
#540=DIRECTION('',(0.186017783258394,-0.695302179419092,-0.694227818231663));
#541=DIRECTION('',(0.,-0.682756748397213,0.730645757202535));
#542=DIRECTION('',(0.,-0.730645757202535,-0.682756748397213));
#543=DIRECTION('',(0.965925826289068,-5.7469372616863E-17,0.258819045102521));
#544=DIRECTION('',(-0.186017783258394,-0.695302179419091,0.694227818231663));
#545=DIRECTION('',(0.,0.682756748397213,-0.730645757202535));
#546=DIRECTION('',(0.,0.730645757202535,0.682756748397213));
#547=DIRECTION('',(0.965925826289068,5.7469372616863E-17,-0.258819045102521));
#548=DIRECTION('',(-0.186017783258394,0.695302179419091,-0.694227818231663));
#549=DIRECTION('',(0.965925826289068,-5.7469372616863E-17,0.258819045102521));
#550=DIRECTION('',(0.,1.,2.22044604925032E-16));
#551=DIRECTION('',(0.,1.,2.22044604925032E-16));
#552=DIRECTION('',(0.965925826289068,5.7469372616863E-17,-0.258819045102521));
#553=DIRECTION('',(0.,-1.,-2.22044604925032E-16));
#554=CARTESIAN_POINT('',(0.,0.,0.));
#555=CARTESIAN_POINT('',(-0.01,0.000445659769697821,-0.015));
#556=CARTESIAN_POINT('',(-0.01,-0.0303973683071412,-0.01));
#557=CARTESIAN_POINT('',(-0.00913244320622303,-0.0306827735386109,-0.01));
#558=CARTESIAN_POINT('',(-0.00826300319795856,-0.0309247278178064,-0.0102293528793438));
#559=CARTESIAN_POINT('',(-0.00749999999999957,-0.0311086804606045,-0.0106698729810781));
#560=CARTESIAN_POINT('',(-0.01,-0.0303973683071412,-0.01));
#561=CARTESIAN_POINT('',(-0.00749999999999957,-0.0311086804606046,-0.010669872981078));
#562=CARTESIAN_POINT('',(-0.01,0.,-0.01));
#563=CARTESIAN_POINT('',(-0.01,0.0303973683071415,-0.01));
#564=CARTESIAN_POINT('',(-0.01,0.0303973683071415,-0.01));
#565=CARTESIAN_POINT('',(-0.00936222438309909,0.0306071810812134,-0.01));
#566=CARTESIAN_POINT('',(-0.00809072553028167,0.0309800352903745,-0.0102436342965542));
#567=CARTESIAN_POINT('',(-0.00584641391229886,0.0314896125167684,-0.0116909386637766));
#568=CARTESIAN_POINT('',(-0.005,0.0316069612585583,-0.013673814351191));
#569=CARTESIAN_POINT('',(-0.005,0.0316069612585583,-0.015));
#570=CARTESIAN_POINT('',(-0.005,0.0316069612585584,-0.015));
#571=CARTESIAN_POINT('',(-0.005,0.000445659769697821,-0.015));
#572=CARTESIAN_POINT('',(-0.005,-0.0311086804606046,-0.015));
#573=CARTESIAN_POINT('',(-0.01,-0.0311086804606046,-0.015));
#574=CARTESIAN_POINT('',(0.01,0.000445659769697821,-0.015));
#575=CARTESIAN_POINT('',(0.005,0.000445659769697821,-0.015));
#576=CARTESIAN_POINT('',(0.005,0.0316069612585584,-0.015));
#577=CARTESIAN_POINT('',(0.005,-0.0311086804606046,-0.015));
#578=CARTESIAN_POINT('',(0.01,0.0303973683071415,-0.01));
#579=CARTESIAN_POINT('',(0.00936222438309909,0.0306071810812134,-0.01));
#580=CARTESIAN_POINT('',(0.00809072553028168,0.0309800352903745,-0.0102436342965542));
#581=CARTESIAN_POINT('',(0.00584641391229886,0.0314896125167684,-0.0116909386637766));
#582=CARTESIAN_POINT('',(0.005,0.0316069612585583,-0.013673814351191));
#583=CARTESIAN_POINT('',(0.005,0.0316069612585583,-0.015));
#584=CARTESIAN_POINT('',(0.01,0.0303973683071415,-0.01));
#585=CARTESIAN_POINT('',(0.01,0.000445659769697821,-0.01));
#586=CARTESIAN_POINT('',(0.01,-0.0303973683071412,-0.01));
#587=CARTESIAN_POINT('',(0.01,-0.0303973683071412,-0.01));
#588=CARTESIAN_POINT('',(0.00913244320622304,-0.0306827735386109,-0.01));
#589=CARTESIAN_POINT('',(0.00826300319795859,-0.0309247278178064,-0.0102293528793438));
#590=CARTESIAN_POINT('',(0.00749999999999961,-0.0311086804606045,-0.010669872981078));
#591=CARTESIAN_POINT('',(0.0074999999999996,-0.0311086804606046,-0.010669872981078));
#592=CARTESIAN_POINT('',(0.01,-0.0311086804606046,-0.015));
#593=CARTESIAN_POINT('',(6.93889390390723E-18,0.,-0.01));
#594=CARTESIAN_POINT('',(0.0259141100695199,-0.0052,-0.01));
#595=CARTESIAN_POINT('',(0.0239141100695199,-0.0052,-0.01));
#596=CARTESIAN_POINT('',(1.52206075491346E-17,1.23165366794353E-16,-0.01));
#597=CARTESIAN_POINT('',(0.,-0.0311086804606046,-0.01));
#598=CARTESIAN_POINT('',(0.,-0.0311086804606046,-0.007));
#599=CARTESIAN_POINT('',(-0.0075,-0.0311086804606046,-0.007));
#600=CARTESIAN_POINT('',(0.0075,-0.0311086804606045,-0.007));
#601=CARTESIAN_POINT('',(-0.0075,-0.0311086804606046,-0.01));
#602=CARTESIAN_POINT('',(-0.005,-0.0311086804606046,-0.06));
#603=CARTESIAN_POINT('',(-0.005,-0.0311086804606046,-0.0143939514432375));
#604=CARTESIAN_POINT('',(-0.002,-0.0311086804606046,-0.0143939514432375));
#605=CARTESIAN_POINT('',(-0.002,-0.0311086804606045,-0.01));
#606=CARTESIAN_POINT('',(0.005,-0.0311086804606045,-0.01));
#607=CARTESIAN_POINT('',(0.002,-0.0311086804606046,-0.01));
#608=CARTESIAN_POINT('',(0.002,-0.0311086804606046,-0.0143939514432375));
#609=CARTESIAN_POINT('',(0.005,-0.0311086804606046,-0.0143939514432375));
#610=CARTESIAN_POINT('',(0.005,-0.0311086804606046,-0.01));
#611=CARTESIAN_POINT('',(0.0075,-0.0311086804606045,-0.01));
#612=CARTESIAN_POINT('',(1.52206075491346E-17,1.23165366794353E-16,-0.01));
#613=CARTESIAN_POINT('',(1.52206075491346E-17,1.23165366794353E-16,-0.007));
#614=CARTESIAN_POINT('',(0.005,0.0316069612585584,-0.01));
#615=CARTESIAN_POINT('',(0.005,0.0316069612585584,-0.0139733447051497));
#616=CARTESIAN_POINT('',(0.005,0.0316069612585584,-0.0139733447051497));
#617=CARTESIAN_POINT('',(0.00500000000000001,0.0316069612585584,-0.0131476087255127));
#618=CARTESIAN_POINT('',(0.0047156367739329,0.0316562070783922,-0.011506896382247));
#619=CARTESIAN_POINT('',(0.00350623034824027,0.031817540887593,-0.0102107322954517));
#620=CARTESIAN_POINT('',(0.00270315858422809,0.0318856226796423,-0.0100000000000201));
#621=CARTESIAN_POINT('',(0.0027031585842296,0.031885622679641,-0.01));
#622=CARTESIAN_POINT('',(1.52206075491346E-17,1.23165366794353E-16,-0.01));
#623=CARTESIAN_POINT('',(1.56125112837912E-17,0.032,-0.01));
#624=CARTESIAN_POINT('',(1.52206075491346E-17,1.23165366794353E-16,-0.01));
#625=CARTESIAN_POINT('',(-0.00270315858402439,0.0318856226796596,-0.01));
#626=CARTESIAN_POINT('',(-0.005,0.0316069612585584,-0.0139733447051497));
#627=CARTESIAN_POINT('',(-0.00499999999999999,0.0316069612585584,-0.0131476087254782));
#628=CARTESIAN_POINT('',(-0.00471563677392214,0.0316562070783957,-0.0115068963821419));
#629=CARTESIAN_POINT('',(-0.00350623034807926,0.0318175408876117,-0.0102107322953291));
#630=CARTESIAN_POINT('',(-0.00270315858402697,0.0318856226796594,-0.00999999999996735));
#631=CARTESIAN_POINT('',(-0.005,0.0316069612585584,-0.0139733447051497));
#632=CARTESIAN_POINT('',(-0.005,0.0316069612585584,-0.01));
#633=CARTESIAN_POINT('',(1.52206075491346E-17,1.23165366794353E-16,-0.01));
#634=CARTESIAN_POINT('',(6.93889390390723E-18,0.,-0.01));
#635=CARTESIAN_POINT('',(-0.0261141100695199,-0.0052,-0.01));
#636=CARTESIAN_POINT('',(-0.0281141100695199,-0.0052,-0.01));
#637=CARTESIAN_POINT('',(6.93889390390723E-18,0.,-0.007));
#638=CARTESIAN_POINT('',(-0.0261141100695199,-0.0052,-0.007));
#639=CARTESIAN_POINT('',(-0.0281141100695199,-0.0052,-0.007));
#640=CARTESIAN_POINT('',(0.0259141100695199,-0.0052,-0.007));
#641=CARTESIAN_POINT('',(0.0239141100695199,-0.0052,-0.007));
#642=CARTESIAN_POINT('',(0.0259141100695199,-0.0052,-0.032));
#643=CARTESIAN_POINT('',(-0.0261141100695199,-0.0052,-0.032));
#644=CARTESIAN_POINT('',(0.005,-0.0153315103454533,-0.01));
#645=CARTESIAN_POINT('',(0.005,0.032,-0.01));
#646=CARTESIAN_POINT('',(-0.002,0.032,-0.01));
#647=CARTESIAN_POINT('',(-0.002,0.0278940430839068,-0.01));
#648=CARTESIAN_POINT('',(0.005,-0.0153315103454533,-0.01));
#649=CARTESIAN_POINT('',(0.002,0.0278940430839068,-0.01));
#650=CARTESIAN_POINT('',(0.002,0.032,-0.01));
#651=CARTESIAN_POINT('',(0.005,0.032,-0.01));
#652=CARTESIAN_POINT('',(0.005,-0.0778315103454533,-0.06));
#653=CARTESIAN_POINT('',(-0.00804582682650081,-0.0964950059448157,-0.0799725654945983));
#654=CARTESIAN_POINT('',(-0.002,-0.117579461230156,-0.102535898384862));
#655=CARTESIAN_POINT('',(0.,-0.124554340230302,-0.11));
#656=CARTESIAN_POINT('',(0.0188469069101627,-0.0588268926176007,-0.0396623858457518));
#657=CARTESIAN_POINT('',(0.002,-0.117579461230156,-0.102535898384862));
#658=CARTESIAN_POINT('',(0.002,-0.0311086804606045,-0.01));
#659=CARTESIAN_POINT('',(-0.002,-0.0778315103454533,-0.06));
#660=CARTESIAN_POINT('',(0.005,0.078722829884849,-0.06));
#661=CARTESIAN_POINT('',(0.002,0.078722829884849,-0.06));
#662=CARTESIAN_POINT('',(0.002,0.118470780769552,-0.102535898384862));
#663=CARTESIAN_POINT('',(0.0130874808837634,0.0798038619792102,-0.0611568563987086));
#664=CARTESIAN_POINT('',(0.,0.125445659769698,-0.11));
#665=CARTESIAN_POINT('',(-0.0127183469411636,0.0810911942714503,-0.0625344830272891));
#666=CARTESIAN_POINT('',(-0.002,0.118470780769552,-0.102535898384862));
#667=CARTESIAN_POINT('',(-0.002,0.032,-0.01));
#668=CARTESIAN_POINT('',(0.005,0.000445659769697821,-0.06));
#669=CARTESIAN_POINT('',(0.005,-0.122362402958695,-0.112048270245192));
#670=CARTESIAN_POINT('',(0.005,-0.103011185813843,-0.0913397459621556));
#671=CARTESIAN_POINT('',(0.005,0.121339702853604,-0.0913397459621556));
#672=CARTESIAN_POINT('',(0.005,0.103902505353239,-0.0913397459621556));
#673=CARTESIAN_POINT('',(0.005,0.0400414592419573,-0.0229994439420606));
#674=CARTESIAN_POINT('',(-0.005,0.000445659769697821,-0.06));
#675=CARTESIAN_POINT('',(-0.005,0.12325372249809,-0.112048270245192));
#676=CARTESIAN_POINT('',(-0.005,0.103902505353239,-0.0913397459621556));
#677=CARTESIAN_POINT('',(-0.005,0.000445659769697827,-0.0913397459621556));
#678=CARTESIAN_POINT('',(-0.005,-0.103011185813843,-0.0913397459621556));
#679=CARTESIAN_POINT('',(-0.005,-0.0391501397025617,-0.0229994439420606));
#680=CARTESIAN_POINT('',(0.002,-0.0391501397025617,-0.0229994439420606));
#681=CARTESIAN_POINT('',(0.002,-0.113473504314063,-0.102535898384862));
#682=CARTESIAN_POINT('',(-0.002,-0.0756395730738457,-0.0620482702451917));
#683=CARTESIAN_POINT('',(-0.002,-0.113473504314063,-0.102535898384862));
#684=CARTESIAN_POINT('',(-0.002,0.0400414592419573,-0.0229994439420606));
#685=CARTESIAN_POINT('',(-0.002,0.114364823853458,-0.102535898384862));
#686=CARTESIAN_POINT('',(0.002,0.0765308926132414,-0.0620482702451916));
#687=CARTESIAN_POINT('',(0.002,0.114364823853458,-0.102535898384862));
#688=CARTESIAN_POINT('',(0.,-0.0620543402303022,-0.11));
#689=CARTESIAN_POINT('',(0.,-0.0620543402303022,-0.11));
#690=CARTESIAN_POINT('',(0.005,0.000445659769697827,-0.0913397459621556));
#691=MECHANICAL_DESIGN_GEOMETRIC_PRESENTATION_REPRESENTATION('',(#391),
#692);
#692=(
GEOMETRIC_REPRESENTATION_CONTEXT(3)
GLOBAL_UNCERTAINTY_ASSIGNED_CONTEXT((#693))
GLOBAL_UNIT_ASSIGNED_CONTEXT((#696,#695,#694))
REPRESENTATION_CONTEXT('Rake','TOP_LEVEL_ASSEMBLY_PART')
);
#693=UNCERTAINTY_MEASURE_WITH_UNIT(LENGTH_MEASURE(2.E-5),#696,
'DISTANCE_ACCURACY_VALUE','Maximum Tolerance applied to model');
#694=(
NAMED_UNIT(*)
SI_UNIT($,.STERADIAN.)
SOLID_ANGLE_UNIT()
);
#695=(
NAMED_UNIT(*)
PLANE_ANGLE_UNIT()
SI_UNIT($,.RADIAN.)
);
#696=(
LENGTH_UNIT()
NAMED_UNIT(*)
SI_UNIT($,.METRE.)
);
#697=PRODUCT_DEFINITION_SHAPE('','',#698);
#698=PRODUCT_DEFINITION('','',#700,#699);
#699=PRODUCT_DEFINITION_CONTEXT('',#706,'design');
#700=PRODUCT_DEFINITION_FORMATION_WITH_SPECIFIED_SOURCE('','',#702,
 .NOT_KNOWN.);
#701=PRODUCT_RELATED_PRODUCT_CATEGORY('','',(#702));
#702=PRODUCT('Rake','Rake','Rake',(#704));
#703=PRODUCT_CATEGORY('','');
#704=PRODUCT_CONTEXT('',#706,'mechanical');
#705=APPLICATION_PROTOCOL_DEFINITION('international standard',
'ap242_managed_model_based_3d_engineering',2020,#706);
#706=APPLICATION_CONTEXT('managed model based 3d engineering');
ENDSEC;
END-ISO-10303-21;
