ISO-10303-21;
HEADER;
/* Generated by software containing ST-Developer
 * from STEP Tools, Inc. (www.steptools.com) 
 */
/* OPTION: using custom renumber hook */

FILE_DESCRIPTION(
/* description */ ('STEP AP214'),
/* implementation_level */ '2;1');

FILE_NAME(
/* name */ '609491e39ecec20f3f0788b1',
/* time_stamp */ '2021-05-07T01:03:32+00:00',
/* author */ (''),
/* organization */ (''),
/* preprocessor_version */ 'ST-DEVELOPER v18.1',
/* originating_system */ '  ',
/* authorisation */ '  ');

FILE_SCHEMA (('AUTOMOTIVE_DESIGN {1 0 10303 214 3 1 1}'));
ENDSEC;

DATA;
#10=PROPERTY_DEFINITION_REPRESENTATION(#14,#12);
#11=PROPERTY_DEFINITION_REPRESENTATION(#15,#13);
#12=REPRESENTATION('',(#16),#1719);
#13=REPRESENTATION('',(#17),#1719);
#14=PROPERTY_DEFINITION('pmi validation property','',#1724);
#15=PROPERTY_DEFINITION('pmi validation property','',#1724);
#16=VALUE_REPRESENTATION_ITEM('number of annotations',COUNT_MEASURE(0.));
#17=VALUE_REPRESENTATION_ITEM('number of views',COUNT_MEASURE(0.));
#18=SHAPE_REPRESENTATION_RELATIONSHIP('','',#986,#19);
#19=ADVANCED_BREP_SHAPE_REPRESENTATION('',(#984),#1719);
#20=PLANE('',#1012);
#21=PLANE('',#1016);
#22=PLANE('',#1022);
#23=PLANE('',#1026);
#24=PLANE('',#1030);
#25=PLANE('',#1035);
#26=PLANE('',#1036);
#27=PLANE('',#1039);
#28=PLANE('',#1040);
#29=PLANE('',#1043);
#30=PLANE('',#1044);
#31=PLANE('',#1047);
#32=PLANE('',#1048);
#33=PLANE('',#1051);
#34=PLANE('',#1052);
#35=PLANE('',#1055);
#36=PLANE('',#1056);
#37=PLANE('',#1059);
#38=PLANE('',#1060);
#39=PLANE('',#1063);
#40=PLANE('',#1064);
#41=PLANE('',#1067);
#42=PLANE('',#1068);
#43=PLANE('',#1071);
#44=PLANE('',#1072);
#45=PLANE('',#1075);
#46=PLANE('',#1076);
#47=PLANE('',#1079);
#48=PLANE('',#1080);
#49=CONICAL_SURFACE('',#1002,0.0245,0.785398163397448);
#50=CONICAL_SURFACE('',#1004,0.0245,0.785398163397448);
#51=CONICAL_SURFACE('',#1006,0.0245,0.785398163397448);
#52=CONICAL_SURFACE('',#1008,0.0245,0.785398163397448);
#53=CONICAL_SURFACE('',#1010,0.0245,0.785398163397448);
#54=CONICAL_SURFACE('',#1015,0.018937822173509,1.0471975511966);
#55=CONICAL_SURFACE('',#1032,0.0165965589670834,0.523598775598299);
#56=CONICAL_SURFACE('',#1033,0.0245,0.785398163397448);
#57=CONICAL_SURFACE('',#1034,0.02,0.785398163397448);
#58=LINE('',#1360,#130);
#59=LINE('',#1364,#131);
#60=LINE('',#1380,#132);
#61=LINE('',#1384,#133);
#62=LINE('',#1400,#134);
#63=LINE('',#1404,#135);
#64=LINE('',#1420,#136);
#65=LINE('',#1424,#137);
#66=LINE('',#1440,#138);
#67=LINE('',#1444,#139);
#68=LINE('',#1460,#140);
#69=LINE('',#1464,#141);
#70=LINE('',#1538,#142);
#71=LINE('',#1541,#143);
#72=LINE('',#1545,#144);
#73=LINE('',#1547,#145);
#74=LINE('',#1549,#146);
#75=LINE('',#1550,#147);
#76=LINE('',#1552,#148);
#77=LINE('',#1554,#149);
#78=LINE('',#1555,#150);
#79=LINE('',#1557,#151);
#80=LINE('',#1559,#152);
#81=LINE('',#1560,#153);
#82=LINE('',#1562,#154);
#83=LINE('',#1564,#155);
#84=LINE('',#1565,#156);
#85=LINE('',#1567,#157);
#86=LINE('',#1569,#158);
#87=LINE('',#1570,#159);
#88=LINE('',#1605,#160);
#89=LINE('',#1608,#161);
#90=LINE('',#1609,#162);
#91=LINE('',#1611,#163);
#92=LINE('',#1616,#164);
#93=LINE('',#1618,#165);
#94=LINE('',#1620,#166);
#95=LINE('',#1624,#167);
#96=LINE('',#1627,#168);
#97=LINE('',#1628,#169);
#98=LINE('',#1630,#170);
#99=LINE('',#1635,#171);
#100=LINE('',#1637,#172);
#101=LINE('',#1639,#173);
#102=LINE('',#1643,#174);
#103=LINE('',#1646,#175);
#104=LINE('',#1647,#176);
#105=LINE('',#1649,#177);
#106=LINE('',#1654,#178);
#107=LINE('',#1656,#179);
#108=LINE('',#1658,#180);
#109=LINE('',#1662,#181);
#110=LINE('',#1665,#182);
#111=LINE('',#1666,#183);
#112=LINE('',#1668,#184);
#113=LINE('',#1673,#185);
#114=LINE('',#1675,#186);
#115=LINE('',#1677,#187);
#116=LINE('',#1681,#188);
#117=LINE('',#1684,#189);
#118=LINE('',#1685,#190);
#119=LINE('',#1687,#191);
#120=LINE('',#1692,#192);
#121=LINE('',#1694,#193);
#122=LINE('',#1696,#194);
#123=LINE('',#1700,#195);
#124=LINE('',#1703,#196);
#125=LINE('',#1704,#197);
#126=LINE('',#1706,#198);
#127=LINE('',#1711,#199);
#128=LINE('',#1713,#200);
#129=LINE('',#1715,#201);
#130=VECTOR('',#1091,1.);
#131=VECTOR('',#1094,1.);
#132=VECTOR('',#1097,1.);
#133=VECTOR('',#1100,1.);
#134=VECTOR('',#1103,1.);
#135=VECTOR('',#1106,1.);
#136=VECTOR('',#1109,1.);
#137=VECTOR('',#1112,1.);
#138=VECTOR('',#1115,1.);
#139=VECTOR('',#1118,1.);
#140=VECTOR('',#1121,1.);
#141=VECTOR('',#1124,1.);
#142=VECTOR('',#1155,1.);
#143=VECTOR('',#1156,1.);
#144=VECTOR('',#1159,1.);
#145=VECTOR('',#1160,1.);
#146=VECTOR('',#1161,1.);
#147=VECTOR('',#1162,1.);
#148=VECTOR('',#1163,1.);
#149=VECTOR('',#1164,1.);
#150=VECTOR('',#1165,1.);
#151=VECTOR('',#1166,1.);
#152=VECTOR('',#1167,1.);
#153=VECTOR('',#1168,1.);
#154=VECTOR('',#1169,1.);
#155=VECTOR('',#1170,1.);
#156=VECTOR('',#1171,1.);
#157=VECTOR('',#1172,1.);
#158=VECTOR('',#1173,1.);
#159=VECTOR('',#1174,1.);
#160=VECTOR('',#1211,1.);
#161=VECTOR('',#1212,1.);
#162=VECTOR('',#1213,1.);
#163=VECTOR('',#1216,1.);
#164=VECTOR('',#1221,1.);
#165=VECTOR('',#1224,1.);
#166=VECTOR('',#1227,1.);
#167=VECTOR('',#1234,1.);
#168=VECTOR('',#1235,1.);
#169=VECTOR('',#1236,1.);
#170=VECTOR('',#1239,1.);
#171=VECTOR('',#1244,1.);
#172=VECTOR('',#1247,1.);
#173=VECTOR('',#1250,1.);
#174=VECTOR('',#1257,1.);
#175=VECTOR('',#1258,1.);
#176=VECTOR('',#1259,1.);
#177=VECTOR('',#1262,1.);
#178=VECTOR('',#1267,1.);
#179=VECTOR('',#1270,1.);
#180=VECTOR('',#1273,1.);
#181=VECTOR('',#1280,1.);
#182=VECTOR('',#1281,1.);
#183=VECTOR('',#1282,1.);
#184=VECTOR('',#1285,1.);
#185=VECTOR('',#1290,1.);
#186=VECTOR('',#1293,1.);
#187=VECTOR('',#1296,1.);
#188=VECTOR('',#1303,1.);
#189=VECTOR('',#1304,1.);
#190=VECTOR('',#1305,1.);
#191=VECTOR('',#1308,1.);
#192=VECTOR('',#1313,1.);
#193=VECTOR('',#1316,1.);
#194=VECTOR('',#1319,1.);
#195=VECTOR('',#1326,1.);
#196=VECTOR('',#1327,1.);
#197=VECTOR('',#1328,1.);
#198=VECTOR('',#1331,1.);
#199=VECTOR('',#1336,1.);
#200=VECTOR('',#1339,1.);
#201=VECTOR('',#1342,1.);
#202=B_SPLINE_CURVE_WITH_KNOTS('',3,(#1354,#1355,#1356,#1357,#1358),
 .UNSPECIFIED.,.F.,.F.,(4,1,4),(0.,0.00234547170054977,0.00469094340109954),
 .UNSPECIFIED.);
#203=B_SPLINE_CURVE_WITH_KNOTS('',3,(#1366,#1367,#1368,#1369,#1370),
 .UNSPECIFIED.,.F.,.F.,(4,1,4),(0.,0.00234547100958852,0.00469094201917703),
 .UNSPECIFIED.);
#204=B_SPLINE_CURVE_WITH_KNOTS('',3,(#1374,#1375,#1376,#1377,#1378),
 .UNSPECIFIED.,.F.,.F.,(4,1,4),(0.,0.00234547170054977,0.00469094340109954),
 .UNSPECIFIED.);
#205=B_SPLINE_CURVE_WITH_KNOTS('',3,(#1386,#1387,#1388,#1389,#1390),
 .UNSPECIFIED.,.F.,.F.,(4,1,4),(0.,0.00234547100958851,0.00469094201917701),
 .UNSPECIFIED.);
#206=B_SPLINE_CURVE_WITH_KNOTS('',3,(#1394,#1395,#1396,#1397,#1398),
 .UNSPECIFIED.,.F.,.F.,(4,1,4),(0.,0.00234547170054977,0.00469094340109955),
 .UNSPECIFIED.);
#207=B_SPLINE_CURVE_WITH_KNOTS('',3,(#1406,#1407,#1408,#1409,#1410),
 .UNSPECIFIED.,.F.,.F.,(4,1,4),(0.,0.00234547100958851,0.00469094201917702),
 .UNSPECIFIED.);
#208=B_SPLINE_CURVE_WITH_KNOTS('',3,(#1414,#1415,#1416,#1417,#1418),
 .UNSPECIFIED.,.F.,.F.,(4,1,4),(0.,0.00234547170054977,0.00469094340109953),
 .UNSPECIFIED.);
#209=B_SPLINE_CURVE_WITH_KNOTS('',3,(#1426,#1427,#1428,#1429,#1430),
 .UNSPECIFIED.,.F.,.F.,(4,1,4),(1.73472347597681E-18,0.0023454710095885,
0.004690942019177),.UNSPECIFIED.);
#210=B_SPLINE_CURVE_WITH_KNOTS('',3,(#1434,#1435,#1436,#1437,#1438),
 .UNSPECIFIED.,.F.,.F.,(4,1,4),(2.69859641336274E-17,0.0023454717005498,
0.00469094340109957),.UNSPECIFIED.);
#211=B_SPLINE_CURVE_WITH_KNOTS('',3,(#1446,#1447,#1448,#1449,#1450),
 .UNSPECIFIED.,.F.,.F.,(4,1,4),(0.,0.00234547100958851,0.00469094201917701),
 .UNSPECIFIED.);
#212=B_SPLINE_CURVE_WITH_KNOTS('',3,(#1454,#1455,#1456,#1457,#1458),
 .UNSPECIFIED.,.F.,.F.,(4,1,4),(0.,0.00234547170054977,0.00469094340109955),
 .UNSPECIFIED.);
#213=B_SPLINE_CURVE_WITH_KNOTS('',3,(#1466,#1467,#1468,#1469,#1470),
 .UNSPECIFIED.,.F.,.F.,(4,1,4),(0.,0.00234547100958852,0.00469094201917704),
 .UNSPECIFIED.);
#214=B_SPLINE_CURVE_WITH_KNOTS('',3,(#1472,#1473,#1474,#1475),
 .UNSPECIFIED.,.F.,.F.,(4,4),(2.83909052068516E-7,0.000710111705951845),
 .UNSPECIFIED.);
#215=B_SPLINE_CURVE_WITH_KNOTS('',3,(#1479,#1480,#1481,#1482),
 .UNSPECIFIED.,.F.,.F.,(4,4),(2.83909052038804E-7,0.000710111705951815),
 .UNSPECIFIED.);
#216=B_SPLINE_CURVE_WITH_KNOTS('',3,(#1484,#1485,#1486,#1487),
 .UNSPECIFIED.,.F.,.F.,(4,4),(2.83909052032695E-7,0.000710111705951816),
 .UNSPECIFIED.);
#217=B_SPLINE_CURVE_WITH_KNOTS('',3,(#1491,#1492,#1493,#1494),
 .UNSPECIFIED.,.F.,.F.,(4,4),(0.00396651705598467,0.00467634485161489),
 .UNSPECIFIED.);
#218=B_SPLINE_CURVE_WITH_KNOTS('',3,(#1496,#1497,#1498,#1499),
 .UNSPECIFIED.,.F.,.F.,(4,4),(0.00396651705598467,0.00467634485161489),
 .UNSPECIFIED.);
#219=B_SPLINE_CURVE_WITH_KNOTS('',3,(#1503,#1504,#1505,#1506),
 .UNSPECIFIED.,.F.,.F.,(4,4),(2.83909052079206E-7,0.000710111705951861),
 .UNSPECIFIED.);
#220=B_SPLINE_CURVE_WITH_KNOTS('',3,(#1508,#1509,#1510,#1511),
 .UNSPECIFIED.,.F.,.F.,(4,4),(2.8390905206424E-7,0.000710111705951846),
 .UNSPECIFIED.);
#221=B_SPLINE_CURVE_WITH_KNOTS('',3,(#1515,#1516,#1517,#1518),
 .UNSPECIFIED.,.F.,.F.,(4,4),(2.83909052063935E-7,0.000710111705951845),
 .UNSPECIFIED.);
#222=B_SPLINE_CURVE_WITH_KNOTS('',3,(#1520,#1521,#1522,#1523),
 .UNSPECIFIED.,.F.,.F.,(4,4),(2.83909052050033E-7,0.000710111705951825),
 .UNSPECIFIED.);
#223=B_SPLINE_CURVE_WITH_KNOTS('',3,(#1527,#1528,#1529,#1530),
 .UNSPECIFIED.,.F.,.F.,(4,4),(0.00396651705598466,0.00467634485161489),
 .UNSPECIFIED.);
#224=B_SPLINE_CURVE_WITH_KNOTS('',3,(#1595,#1596,#1597,#1598),
 .UNSPECIFIED.,.F.,.F.,(4,4),(2.83909052061486E-7,0.000710111705951843),
 .UNSPECIFIED.);
#225=B_SPLINE_CURVE_WITH_KNOTS('',3,(#1599,#1600,#1601,#1602),
 .UNSPECIFIED.,.F.,.F.,(4,4),(0.00396651705598467,0.00467634485161489),
 .UNSPECIFIED.);
#226=ORIENTED_EDGE('',*,*,#500,.T.);
#227=ORIENTED_EDGE('',*,*,#501,.F.);
#228=ORIENTED_EDGE('',*,*,#502,.T.);
#229=ORIENTED_EDGE('',*,*,#503,.F.);
#230=ORIENTED_EDGE('',*,*,#504,.T.);
#231=ORIENTED_EDGE('',*,*,#505,.T.);
#232=ORIENTED_EDGE('',*,*,#506,.T.);
#233=ORIENTED_EDGE('',*,*,#507,.F.);
#234=ORIENTED_EDGE('',*,*,#508,.T.);
#235=ORIENTED_EDGE('',*,*,#509,.F.);
#236=ORIENTED_EDGE('',*,*,#510,.T.);
#237=ORIENTED_EDGE('',*,*,#511,.T.);
#238=ORIENTED_EDGE('',*,*,#512,.T.);
#239=ORIENTED_EDGE('',*,*,#513,.F.);
#240=ORIENTED_EDGE('',*,*,#514,.T.);
#241=ORIENTED_EDGE('',*,*,#515,.F.);
#242=ORIENTED_EDGE('',*,*,#516,.T.);
#243=ORIENTED_EDGE('',*,*,#517,.T.);
#244=ORIENTED_EDGE('',*,*,#518,.T.);
#245=ORIENTED_EDGE('',*,*,#519,.F.);
#246=ORIENTED_EDGE('',*,*,#520,.T.);
#247=ORIENTED_EDGE('',*,*,#521,.F.);
#248=ORIENTED_EDGE('',*,*,#522,.T.);
#249=ORIENTED_EDGE('',*,*,#523,.T.);
#250=ORIENTED_EDGE('',*,*,#524,.T.);
#251=ORIENTED_EDGE('',*,*,#525,.F.);
#252=ORIENTED_EDGE('',*,*,#526,.T.);
#253=ORIENTED_EDGE('',*,*,#527,.F.);
#254=ORIENTED_EDGE('',*,*,#528,.T.);
#255=ORIENTED_EDGE('',*,*,#529,.T.);
#256=ORIENTED_EDGE('',*,*,#530,.T.);
#257=ORIENTED_EDGE('',*,*,#531,.F.);
#258=ORIENTED_EDGE('',*,*,#532,.T.);
#259=ORIENTED_EDGE('',*,*,#533,.F.);
#260=ORIENTED_EDGE('',*,*,#534,.T.);
#261=ORIENTED_EDGE('',*,*,#535,.T.);
#262=ORIENTED_EDGE('',*,*,#536,.T.);
#263=ORIENTED_EDGE('',*,*,#504,.F.);
#264=ORIENTED_EDGE('',*,*,#537,.T.);
#265=ORIENTED_EDGE('',*,*,#538,.F.);
#266=ORIENTED_EDGE('',*,*,#539,.F.);
#267=ORIENTED_EDGE('',*,*,#510,.F.);
#268=ORIENTED_EDGE('',*,*,#540,.T.);
#269=ORIENTED_EDGE('',*,*,#541,.F.);
#270=ORIENTED_EDGE('',*,*,#542,.F.);
#271=ORIENTED_EDGE('',*,*,#516,.F.);
#272=ORIENTED_EDGE('',*,*,#543,.T.);
#273=ORIENTED_EDGE('',*,*,#544,.F.);
#274=ORIENTED_EDGE('',*,*,#545,.F.);
#275=ORIENTED_EDGE('',*,*,#522,.F.);
#276=ORIENTED_EDGE('',*,*,#546,.T.);
#277=ORIENTED_EDGE('',*,*,#547,.F.);
#278=ORIENTED_EDGE('',*,*,#548,.F.);
#279=ORIENTED_EDGE('',*,*,#528,.F.);
#280=ORIENTED_EDGE('',*,*,#549,.T.);
#281=ORIENTED_EDGE('',*,*,#550,.F.);
#282=ORIENTED_EDGE('',*,*,#551,.F.);
#283=ORIENTED_EDGE('',*,*,#552,.F.);
#284=ORIENTED_EDGE('',*,*,#553,.T.);
#285=ORIENTED_EDGE('',*,*,#500,.F.);
#286=ORIENTED_EDGE('',*,*,#552,.T.);
#287=ORIENTED_EDGE('',*,*,#554,.F.);
#288=ORIENTED_EDGE('',*,*,#555,.T.);
#289=ORIENTED_EDGE('',*,*,#556,.T.);
#290=ORIENTED_EDGE('',*,*,#557,.F.);
#291=ORIENTED_EDGE('',*,*,#558,.F.);
#292=ORIENTED_EDGE('',*,*,#559,.T.);
#293=ORIENTED_EDGE('',*,*,#550,.T.);
#294=ORIENTED_EDGE('',*,*,#560,.F.);
#295=ORIENTED_EDGE('',*,*,#561,.F.);
#296=ORIENTED_EDGE('',*,*,#562,.T.);
#297=ORIENTED_EDGE('',*,*,#547,.T.);
#298=ORIENTED_EDGE('',*,*,#563,.F.);
#299=ORIENTED_EDGE('',*,*,#564,.F.);
#300=ORIENTED_EDGE('',*,*,#565,.T.);
#301=ORIENTED_EDGE('',*,*,#544,.T.);
#302=ORIENTED_EDGE('',*,*,#566,.F.);
#303=ORIENTED_EDGE('',*,*,#567,.F.);
#304=ORIENTED_EDGE('',*,*,#568,.T.);
#305=ORIENTED_EDGE('',*,*,#541,.T.);
#306=ORIENTED_EDGE('',*,*,#569,.F.);
#307=ORIENTED_EDGE('',*,*,#570,.F.);
#308=ORIENTED_EDGE('',*,*,#571,.T.);
#309=ORIENTED_EDGE('',*,*,#538,.T.);
#310=ORIENTED_EDGE('',*,*,#572,.F.);
#311=ORIENTED_EDGE('',*,*,#573,.T.);
#312=ORIENTED_EDGE('',*,*,#574,.T.);
#313=ORIENTED_EDGE('',*,*,#575,.F.);
#314=ORIENTED_EDGE('',*,*,#576,.F.);
#315=ORIENTED_EDGE('',*,*,#575,.T.);
#316=ORIENTED_EDGE('',*,*,#577,.F.);
#317=ORIENTED_EDGE('',*,*,#576,.T.);
#318=ORIENTED_EDGE('',*,*,#578,.F.);
#319=ORIENTED_EDGE('',*,*,#577,.T.);
#320=ORIENTED_EDGE('',*,*,#579,.F.);
#321=ORIENTED_EDGE('',*,*,#578,.T.);
#322=ORIENTED_EDGE('',*,*,#580,.F.);
#323=ORIENTED_EDGE('',*,*,#579,.T.);
#324=ORIENTED_EDGE('',*,*,#553,.F.);
#325=ORIENTED_EDGE('',*,*,#580,.T.);
#326=ORIENTED_EDGE('',*,*,#581,.F.);
#327=ORIENTED_EDGE('',*,*,#534,.F.);
#328=ORIENTED_EDGE('',*,*,#582,.T.);
#329=ORIENTED_EDGE('',*,*,#556,.F.);
#330=ORIENTED_EDGE('',*,*,#573,.F.);
#331=ORIENTED_EDGE('',*,*,#574,.F.);
#332=ORIENTED_EDGE('',*,*,#583,.T.);
#333=ORIENTED_EDGE('',*,*,#584,.T.);
#334=ORIENTED_EDGE('',*,*,#531,.T.);
#335=ORIENTED_EDGE('',*,*,#585,.T.);
#336=ORIENTED_EDGE('',*,*,#586,.F.);
#337=ORIENTED_EDGE('',*,*,#587,.T.);
#338=ORIENTED_EDGE('',*,*,#583,.F.);
#339=ORIENTED_EDGE('',*,*,#588,.T.);
#340=ORIENTED_EDGE('',*,*,#589,.T.);
#341=ORIENTED_EDGE('',*,*,#558,.T.);
#342=ORIENTED_EDGE('',*,*,#589,.F.);
#343=ORIENTED_EDGE('',*,*,#590,.T.);
#344=ORIENTED_EDGE('',*,*,#529,.F.);
#345=ORIENTED_EDGE('',*,*,#551,.T.);
#346=ORIENTED_EDGE('',*,*,#559,.F.);
#347=ORIENTED_EDGE('',*,*,#533,.T.);
#348=ORIENTED_EDGE('',*,*,#591,.T.);
#349=ORIENTED_EDGE('',*,*,#586,.T.);
#350=ORIENTED_EDGE('',*,*,#557,.T.);
#351=ORIENTED_EDGE('',*,*,#582,.F.);
#352=ORIENTED_EDGE('',*,*,#587,.F.);
#353=ORIENTED_EDGE('',*,*,#591,.F.);
#354=ORIENTED_EDGE('',*,*,#532,.F.);
#355=ORIENTED_EDGE('',*,*,#584,.F.);
#356=ORIENTED_EDGE('',*,*,#588,.F.);
#357=ORIENTED_EDGE('',*,*,#585,.F.);
#358=ORIENTED_EDGE('',*,*,#530,.F.);
#359=ORIENTED_EDGE('',*,*,#590,.F.);
#360=ORIENTED_EDGE('',*,*,#592,.T.);
#361=ORIENTED_EDGE('',*,*,#593,.T.);
#362=ORIENTED_EDGE('',*,*,#525,.T.);
#363=ORIENTED_EDGE('',*,*,#594,.T.);
#364=ORIENTED_EDGE('',*,*,#595,.F.);
#365=ORIENTED_EDGE('',*,*,#596,.T.);
#366=ORIENTED_EDGE('',*,*,#592,.F.);
#367=ORIENTED_EDGE('',*,*,#597,.T.);
#368=ORIENTED_EDGE('',*,*,#598,.T.);
#369=ORIENTED_EDGE('',*,*,#561,.T.);
#370=ORIENTED_EDGE('',*,*,#598,.F.);
#371=ORIENTED_EDGE('',*,*,#599,.T.);
#372=ORIENTED_EDGE('',*,*,#523,.F.);
#373=ORIENTED_EDGE('',*,*,#548,.T.);
#374=ORIENTED_EDGE('',*,*,#562,.F.);
#375=ORIENTED_EDGE('',*,*,#527,.T.);
#376=ORIENTED_EDGE('',*,*,#600,.T.);
#377=ORIENTED_EDGE('',*,*,#595,.T.);
#378=ORIENTED_EDGE('',*,*,#560,.T.);
#379=ORIENTED_EDGE('',*,*,#549,.F.);
#380=ORIENTED_EDGE('',*,*,#596,.F.);
#381=ORIENTED_EDGE('',*,*,#600,.F.);
#382=ORIENTED_EDGE('',*,*,#526,.F.);
#383=ORIENTED_EDGE('',*,*,#593,.F.);
#384=ORIENTED_EDGE('',*,*,#597,.F.);
#385=ORIENTED_EDGE('',*,*,#594,.F.);
#386=ORIENTED_EDGE('',*,*,#524,.F.);
#387=ORIENTED_EDGE('',*,*,#599,.F.);
#388=ORIENTED_EDGE('',*,*,#601,.T.);
#389=ORIENTED_EDGE('',*,*,#602,.T.);
#390=ORIENTED_EDGE('',*,*,#519,.T.);
#391=ORIENTED_EDGE('',*,*,#603,.T.);
#392=ORIENTED_EDGE('',*,*,#604,.F.);
#393=ORIENTED_EDGE('',*,*,#605,.T.);
#394=ORIENTED_EDGE('',*,*,#601,.F.);
#395=ORIENTED_EDGE('',*,*,#606,.T.);
#396=ORIENTED_EDGE('',*,*,#607,.T.);
#397=ORIENTED_EDGE('',*,*,#564,.T.);
#398=ORIENTED_EDGE('',*,*,#607,.F.);
#399=ORIENTED_EDGE('',*,*,#608,.T.);
#400=ORIENTED_EDGE('',*,*,#517,.F.);
#401=ORIENTED_EDGE('',*,*,#545,.T.);
#402=ORIENTED_EDGE('',*,*,#565,.F.);
#403=ORIENTED_EDGE('',*,*,#521,.T.);
#404=ORIENTED_EDGE('',*,*,#609,.T.);
#405=ORIENTED_EDGE('',*,*,#604,.T.);
#406=ORIENTED_EDGE('',*,*,#563,.T.);
#407=ORIENTED_EDGE('',*,*,#546,.F.);
#408=ORIENTED_EDGE('',*,*,#605,.F.);
#409=ORIENTED_EDGE('',*,*,#609,.F.);
#410=ORIENTED_EDGE('',*,*,#520,.F.);
#411=ORIENTED_EDGE('',*,*,#602,.F.);
#412=ORIENTED_EDGE('',*,*,#606,.F.);
#413=ORIENTED_EDGE('',*,*,#603,.F.);
#414=ORIENTED_EDGE('',*,*,#518,.F.);
#415=ORIENTED_EDGE('',*,*,#608,.F.);
#416=ORIENTED_EDGE('',*,*,#610,.T.);
#417=ORIENTED_EDGE('',*,*,#611,.T.);
#418=ORIENTED_EDGE('',*,*,#513,.T.);
#419=ORIENTED_EDGE('',*,*,#612,.T.);
#420=ORIENTED_EDGE('',*,*,#613,.F.);
#421=ORIENTED_EDGE('',*,*,#614,.T.);
#422=ORIENTED_EDGE('',*,*,#610,.F.);
#423=ORIENTED_EDGE('',*,*,#615,.T.);
#424=ORIENTED_EDGE('',*,*,#616,.T.);
#425=ORIENTED_EDGE('',*,*,#567,.T.);
#426=ORIENTED_EDGE('',*,*,#616,.F.);
#427=ORIENTED_EDGE('',*,*,#617,.T.);
#428=ORIENTED_EDGE('',*,*,#511,.F.);
#429=ORIENTED_EDGE('',*,*,#542,.T.);
#430=ORIENTED_EDGE('',*,*,#568,.F.);
#431=ORIENTED_EDGE('',*,*,#515,.T.);
#432=ORIENTED_EDGE('',*,*,#618,.T.);
#433=ORIENTED_EDGE('',*,*,#613,.T.);
#434=ORIENTED_EDGE('',*,*,#566,.T.);
#435=ORIENTED_EDGE('',*,*,#543,.F.);
#436=ORIENTED_EDGE('',*,*,#614,.F.);
#437=ORIENTED_EDGE('',*,*,#618,.F.);
#438=ORIENTED_EDGE('',*,*,#514,.F.);
#439=ORIENTED_EDGE('',*,*,#611,.F.);
#440=ORIENTED_EDGE('',*,*,#615,.F.);
#441=ORIENTED_EDGE('',*,*,#612,.F.);
#442=ORIENTED_EDGE('',*,*,#512,.F.);
#443=ORIENTED_EDGE('',*,*,#617,.F.);
#444=ORIENTED_EDGE('',*,*,#619,.T.);
#445=ORIENTED_EDGE('',*,*,#620,.T.);
#446=ORIENTED_EDGE('',*,*,#507,.T.);
#447=ORIENTED_EDGE('',*,*,#621,.T.);
#448=ORIENTED_EDGE('',*,*,#622,.F.);
#449=ORIENTED_EDGE('',*,*,#623,.T.);
#450=ORIENTED_EDGE('',*,*,#619,.F.);
#451=ORIENTED_EDGE('',*,*,#624,.T.);
#452=ORIENTED_EDGE('',*,*,#625,.T.);
#453=ORIENTED_EDGE('',*,*,#570,.T.);
#454=ORIENTED_EDGE('',*,*,#625,.F.);
#455=ORIENTED_EDGE('',*,*,#626,.T.);
#456=ORIENTED_EDGE('',*,*,#505,.F.);
#457=ORIENTED_EDGE('',*,*,#539,.T.);
#458=ORIENTED_EDGE('',*,*,#571,.F.);
#459=ORIENTED_EDGE('',*,*,#509,.T.);
#460=ORIENTED_EDGE('',*,*,#627,.T.);
#461=ORIENTED_EDGE('',*,*,#622,.T.);
#462=ORIENTED_EDGE('',*,*,#569,.T.);
#463=ORIENTED_EDGE('',*,*,#540,.F.);
#464=ORIENTED_EDGE('',*,*,#623,.F.);
#465=ORIENTED_EDGE('',*,*,#627,.F.);
#466=ORIENTED_EDGE('',*,*,#508,.F.);
#467=ORIENTED_EDGE('',*,*,#620,.F.);
#468=ORIENTED_EDGE('',*,*,#624,.F.);
#469=ORIENTED_EDGE('',*,*,#621,.F.);
#470=ORIENTED_EDGE('',*,*,#506,.F.);
#471=ORIENTED_EDGE('',*,*,#626,.F.);
#472=ORIENTED_EDGE('',*,*,#628,.T.);
#473=ORIENTED_EDGE('',*,*,#629,.T.);
#474=ORIENTED_EDGE('',*,*,#501,.T.);
#475=ORIENTED_EDGE('',*,*,#630,.T.);
#476=ORIENTED_EDGE('',*,*,#631,.F.);
#477=ORIENTED_EDGE('',*,*,#632,.T.);
#478=ORIENTED_EDGE('',*,*,#628,.F.);
#479=ORIENTED_EDGE('',*,*,#633,.T.);
#480=ORIENTED_EDGE('',*,*,#634,.T.);
#481=ORIENTED_EDGE('',*,*,#554,.T.);
#482=ORIENTED_EDGE('',*,*,#634,.F.);
#483=ORIENTED_EDGE('',*,*,#635,.T.);
#484=ORIENTED_EDGE('',*,*,#535,.F.);
#485=ORIENTED_EDGE('',*,*,#581,.T.);
#486=ORIENTED_EDGE('',*,*,#555,.F.);
#487=ORIENTED_EDGE('',*,*,#503,.T.);
#488=ORIENTED_EDGE('',*,*,#636,.T.);
#489=ORIENTED_EDGE('',*,*,#631,.T.);
#490=ORIENTED_EDGE('',*,*,#572,.T.);
#491=ORIENTED_EDGE('',*,*,#537,.F.);
#492=ORIENTED_EDGE('',*,*,#632,.F.);
#493=ORIENTED_EDGE('',*,*,#636,.F.);
#494=ORIENTED_EDGE('',*,*,#502,.F.);
#495=ORIENTED_EDGE('',*,*,#629,.F.);
#496=ORIENTED_EDGE('',*,*,#633,.F.);
#497=ORIENTED_EDGE('',*,*,#630,.F.);
#498=ORIENTED_EDGE('',*,*,#536,.F.);
#499=ORIENTED_EDGE('',*,*,#635,.F.);
#500=EDGE_CURVE('',#637,#637,#732,.T.);
#501=EDGE_CURVE('',#638,#639,#733,.T.);
#502=EDGE_CURVE('',#638,#640,#202,.T.);
#503=EDGE_CURVE('',#641,#640,#58,.F.);
#504=EDGE_CURVE('',#641,#642,#734,.T.);
#505=EDGE_CURVE('',#642,#643,#59,.F.);
#506=EDGE_CURVE('',#643,#644,#203,.T.);
#507=EDGE_CURVE('',#645,#644,#735,.T.);
#508=EDGE_CURVE('',#645,#646,#204,.T.);
#509=EDGE_CURVE('',#647,#646,#60,.F.);
#510=EDGE_CURVE('',#647,#648,#736,.T.);
#511=EDGE_CURVE('',#648,#649,#61,.F.);
#512=EDGE_CURVE('',#649,#650,#205,.T.);
#513=EDGE_CURVE('',#651,#650,#737,.T.);
#514=EDGE_CURVE('',#651,#652,#206,.T.);
#515=EDGE_CURVE('',#653,#652,#62,.F.);
#516=EDGE_CURVE('',#653,#654,#738,.T.);
#517=EDGE_CURVE('',#654,#655,#63,.F.);
#518=EDGE_CURVE('',#655,#656,#207,.T.);
#519=EDGE_CURVE('',#657,#656,#739,.T.);
#520=EDGE_CURVE('',#657,#658,#208,.T.);
#521=EDGE_CURVE('',#659,#658,#64,.F.);
#522=EDGE_CURVE('',#659,#660,#740,.T.);
#523=EDGE_CURVE('',#660,#661,#65,.F.);
#524=EDGE_CURVE('',#661,#662,#209,.T.);
#525=EDGE_CURVE('',#663,#662,#741,.T.);
#526=EDGE_CURVE('',#663,#664,#210,.T.);
#527=EDGE_CURVE('',#665,#664,#66,.F.);
#528=EDGE_CURVE('',#665,#666,#742,.T.);
#529=EDGE_CURVE('',#666,#667,#67,.F.);
#530=EDGE_CURVE('',#667,#668,#211,.T.);
#531=EDGE_CURVE('',#669,#668,#743,.T.);
#532=EDGE_CURVE('',#669,#670,#212,.T.);
#533=EDGE_CURVE('',#671,#670,#68,.F.);
#534=EDGE_CURVE('',#671,#672,#744,.T.);
#535=EDGE_CURVE('',#672,#673,#69,.F.);
#536=EDGE_CURVE('',#673,#639,#213,.T.);
#537=EDGE_CURVE('',#641,#674,#214,.T.);
#538=EDGE_CURVE('',#675,#674,#745,.F.);
#539=EDGE_CURVE('',#642,#675,#215,.T.);
#540=EDGE_CURVE('',#647,#676,#216,.T.);
#541=EDGE_CURVE('',#677,#676,#746,.F.);
#542=EDGE_CURVE('',#648,#677,#217,.T.);
#543=EDGE_CURVE('',#653,#678,#218,.T.);
#544=EDGE_CURVE('',#679,#678,#747,.F.);
#545=EDGE_CURVE('',#654,#679,#219,.T.);
#546=EDGE_CURVE('',#659,#680,#220,.T.);
#547=EDGE_CURVE('',#681,#680,#748,.F.);
#548=EDGE_CURVE('',#660,#681,#221,.T.);
#549=EDGE_CURVE('',#665,#682,#222,.T.);
#550=EDGE_CURVE('',#683,#682,#749,.F.);
#551=EDGE_CURVE('',#666,#683,#223,.T.);
#552=EDGE_CURVE('',#684,#684,#750,.T.);
#553=EDGE_CURVE('',#685,#685,#751,.T.);
#554=EDGE_CURVE('',#686,#687,#70,.T.);
#555=EDGE_CURVE('',#686,#688,#71,.T.);
#556=EDGE_CURVE('',#688,#689,#752,.F.);
#557=EDGE_CURVE('',#690,#689,#72,.T.);
#558=EDGE_CURVE('',#691,#690,#73,.T.);
#559=EDGE_CURVE('',#691,#683,#74,.T.);
#560=EDGE_CURVE('',#692,#682,#75,.T.);
#561=EDGE_CURVE('',#693,#692,#76,.T.);
#562=EDGE_CURVE('',#693,#681,#77,.T.);
#563=EDGE_CURVE('',#694,#680,#78,.T.);
#564=EDGE_CURVE('',#695,#694,#79,.T.);
#565=EDGE_CURVE('',#695,#679,#80,.T.);
#566=EDGE_CURVE('',#696,#678,#81,.T.);
#567=EDGE_CURVE('',#697,#696,#82,.T.);
#568=EDGE_CURVE('',#697,#677,#83,.T.);
#569=EDGE_CURVE('',#698,#676,#84,.T.);
#570=EDGE_CURVE('',#699,#698,#85,.T.);
#571=EDGE_CURVE('',#699,#675,#86,.T.);
#572=EDGE_CURVE('',#687,#674,#87,.T.);
#573=EDGE_CURVE('',#700,#700,#753,.T.);
#574=EDGE_CURVE('',#701,#701,#754,.F.);
#575=EDGE_CURVE('',#702,#702,#755,.T.);
#576=EDGE_CURVE('',#703,#703,#756,.T.);
#577=EDGE_CURVE('',#704,#704,#757,.T.);
#578=EDGE_CURVE('',#705,#705,#758,.T.);
#579=EDGE_CURVE('',#706,#706,#759,.T.);
#580=EDGE_CURVE('',#707,#707,#760,.T.);
#581=EDGE_CURVE('',#672,#688,#224,.T.);
#582=EDGE_CURVE('',#671,#689,#225,.T.);
#583=EDGE_CURVE('',#708,#709,#88,.T.);
#584=EDGE_CURVE('',#709,#669,#89,.T.);
#585=EDGE_CURVE('',#668,#708,#90,.F.);
#586=EDGE_CURVE('',#710,#690,#91,.T.);
#587=EDGE_CURVE('',#710,#709,#761,.T.);
#588=EDGE_CURVE('',#708,#711,#762,.T.);
#589=EDGE_CURVE('',#711,#691,#92,.T.);
#590=EDGE_CURVE('',#711,#667,#93,.T.);
#591=EDGE_CURVE('',#670,#710,#94,.F.);
#592=EDGE_CURVE('',#712,#713,#95,.T.);
#593=EDGE_CURVE('',#713,#663,#96,.T.);
#594=EDGE_CURVE('',#662,#712,#97,.F.);
#595=EDGE_CURVE('',#714,#692,#98,.T.);
#596=EDGE_CURVE('',#714,#713,#763,.T.);
#597=EDGE_CURVE('',#712,#715,#764,.T.);
#598=EDGE_CURVE('',#715,#693,#99,.T.);
#599=EDGE_CURVE('',#715,#661,#100,.T.);
#600=EDGE_CURVE('',#664,#714,#101,.F.);
#601=EDGE_CURVE('',#716,#717,#102,.T.);
#602=EDGE_CURVE('',#717,#657,#103,.T.);
#603=EDGE_CURVE('',#656,#716,#104,.F.);
#604=EDGE_CURVE('',#718,#694,#105,.T.);
#605=EDGE_CURVE('',#718,#717,#765,.T.);
#606=EDGE_CURVE('',#716,#719,#766,.T.);
#607=EDGE_CURVE('',#719,#695,#106,.T.);
#608=EDGE_CURVE('',#719,#655,#107,.T.);
#609=EDGE_CURVE('',#658,#718,#108,.F.);
#610=EDGE_CURVE('',#720,#721,#109,.T.);
#611=EDGE_CURVE('',#721,#651,#110,.T.);
#612=EDGE_CURVE('',#650,#720,#111,.F.);
#613=EDGE_CURVE('',#722,#696,#112,.T.);
#614=EDGE_CURVE('',#722,#721,#767,.T.);
#615=EDGE_CURVE('',#720,#723,#768,.T.);
#616=EDGE_CURVE('',#723,#697,#113,.T.);
#617=EDGE_CURVE('',#723,#649,#114,.T.);
#618=EDGE_CURVE('',#652,#722,#115,.F.);
#619=EDGE_CURVE('',#724,#725,#116,.T.);
#620=EDGE_CURVE('',#725,#645,#117,.T.);
#621=EDGE_CURVE('',#644,#724,#118,.F.);
#622=EDGE_CURVE('',#726,#698,#119,.T.);
#623=EDGE_CURVE('',#726,#725,#769,.T.);
#624=EDGE_CURVE('',#724,#727,#770,.T.);
#625=EDGE_CURVE('',#727,#699,#120,.T.);
#626=EDGE_CURVE('',#727,#643,#121,.T.);
#627=EDGE_CURVE('',#646,#726,#122,.F.);
#628=EDGE_CURVE('',#728,#729,#123,.T.);
#629=EDGE_CURVE('',#729,#638,#124,.T.);
#630=EDGE_CURVE('',#639,#728,#125,.F.);
#631=EDGE_CURVE('',#730,#687,#126,.T.);
#632=EDGE_CURVE('',#730,#729,#771,.T.);
#633=EDGE_CURVE('',#728,#731,#772,.T.);
#634=EDGE_CURVE('',#731,#686,#127,.T.);
#635=EDGE_CURVE('',#731,#673,#128,.T.);
#636=EDGE_CURVE('',#640,#730,#129,.F.);
#637=VERTEX_POINT('',#1350);
#638=VERTEX_POINT('',#1352);
#639=VERTEX_POINT('',#1353);
#640=VERTEX_POINT('',#1359);
#641=VERTEX_POINT('',#1361);
#642=VERTEX_POINT('',#1363);
#643=VERTEX_POINT('',#1365);
#644=VERTEX_POINT('',#1371);
#645=VERTEX_POINT('',#1373);
#646=VERTEX_POINT('',#1379);
#647=VERTEX_POINT('',#1381);
#648=VERTEX_POINT('',#1383);
#649=VERTEX_POINT('',#1385);
#650=VERTEX_POINT('',#1391);
#651=VERTEX_POINT('',#1393);
#652=VERTEX_POINT('',#1399);
#653=VERTEX_POINT('',#1401);
#654=VERTEX_POINT('',#1403);
#655=VERTEX_POINT('',#1405);
#656=VERTEX_POINT('',#1411);
#657=VERTEX_POINT('',#1413);
#658=VERTEX_POINT('',#1419);
#659=VERTEX_POINT('',#1421);
#660=VERTEX_POINT('',#1423);
#661=VERTEX_POINT('',#1425);
#662=VERTEX_POINT('',#1431);
#663=VERTEX_POINT('',#1433);
#664=VERTEX_POINT('',#1439);
#665=VERTEX_POINT('',#1441);
#666=VERTEX_POINT('',#1443);
#667=VERTEX_POINT('',#1445);
#668=VERTEX_POINT('',#1451);
#669=VERTEX_POINT('',#1453);
#670=VERTEX_POINT('',#1459);
#671=VERTEX_POINT('',#1461);
#672=VERTEX_POINT('',#1463);
#673=VERTEX_POINT('',#1465);
#674=VERTEX_POINT('',#1476);
#675=VERTEX_POINT('',#1478);
#676=VERTEX_POINT('',#1488);
#677=VERTEX_POINT('',#1490);
#678=VERTEX_POINT('',#1500);
#679=VERTEX_POINT('',#1502);
#680=VERTEX_POINT('',#1512);
#681=VERTEX_POINT('',#1514);
#682=VERTEX_POINT('',#1524);
#683=VERTEX_POINT('',#1526);
#684=VERTEX_POINT('',#1533);
#685=VERTEX_POINT('',#1535);
#686=VERTEX_POINT('',#1539);
#687=VERTEX_POINT('',#1540);
#688=VERTEX_POINT('',#1542);
#689=VERTEX_POINT('',#1544);
#690=VERTEX_POINT('',#1546);
#691=VERTEX_POINT('',#1548);
#692=VERTEX_POINT('',#1551);
#693=VERTEX_POINT('',#1553);
#694=VERTEX_POINT('',#1556);
#695=VERTEX_POINT('',#1558);
#696=VERTEX_POINT('',#1561);
#697=VERTEX_POINT('',#1563);
#698=VERTEX_POINT('',#1566);
#699=VERTEX_POINT('',#1568);
#700=VERTEX_POINT('',#1572);
#701=VERTEX_POINT('',#1575);
#702=VERTEX_POINT('',#1577);
#703=VERTEX_POINT('',#1580);
#704=VERTEX_POINT('',#1583);
#705=VERTEX_POINT('',#1586);
#706=VERTEX_POINT('',#1589);
#707=VERTEX_POINT('',#1592);
#708=VERTEX_POINT('',#1606);
#709=VERTEX_POINT('',#1607);
#710=VERTEX_POINT('',#1612);
#711=VERTEX_POINT('',#1615);
#712=VERTEX_POINT('',#1625);
#713=VERTEX_POINT('',#1626);
#714=VERTEX_POINT('',#1631);
#715=VERTEX_POINT('',#1634);
#716=VERTEX_POINT('',#1644);
#717=VERTEX_POINT('',#1645);
#718=VERTEX_POINT('',#1650);
#719=VERTEX_POINT('',#1653);
#720=VERTEX_POINT('',#1663);
#721=VERTEX_POINT('',#1664);
#722=VERTEX_POINT('',#1669);
#723=VERTEX_POINT('',#1672);
#724=VERTEX_POINT('',#1682);
#725=VERTEX_POINT('',#1683);
#726=VERTEX_POINT('',#1688);
#727=VERTEX_POINT('',#1691);
#728=VERTEX_POINT('',#1701);
#729=VERTEX_POINT('',#1702);
#730=VERTEX_POINT('',#1707);
#731=VERTEX_POINT('',#1710);
#732=CIRCLE('',#989,0.025);
#733=CIRCLE('',#990,0.025);
#734=CIRCLE('',#991,0.025);
#735=CIRCLE('',#992,0.025);
#736=CIRCLE('',#993,0.025);
#737=CIRCLE('',#994,0.025);
#738=CIRCLE('',#995,0.025);
#739=CIRCLE('',#996,0.025);
#740=CIRCLE('',#997,0.025);
#741=CIRCLE('',#998,0.025);
#742=CIRCLE('',#999,0.025);
#743=CIRCLE('',#1000,0.025);
#744=CIRCLE('',#1001,0.025);
#745=CIRCLE('',#1003,0.0245);
#746=CIRCLE('',#1005,0.0245);
#747=CIRCLE('',#1007,0.0245);
#748=CIRCLE('',#1009,0.0245);
#749=CIRCLE('',#1011,0.0245);
#750=CIRCLE('',#1013,0.018937822173509);
#751=CIRCLE('',#1014,0.01345);
#752=CIRCLE('',#1017,0.0245);
#753=CIRCLE('',#1018,0.0208);
#754=CIRCLE('',#1020,0.02);
#755=CIRCLE('',#1021,0.02);
#756=CIRCLE('',#1023,0.021);
#757=CIRCLE('',#1025,0.021);
#758=CIRCLE('',#1027,0.0149);
#759=CIRCLE('',#1029,0.0149);
#760=CIRCLE('',#1031,0.0165965589670834);
#761=CIRCLE('',#1037,0.003);
#762=CIRCLE('',#1038,0.003);
#763=CIRCLE('',#1045,0.003);
#764=CIRCLE('',#1046,0.003);
#765=CIRCLE('',#1053,0.003);
#766=CIRCLE('',#1054,0.003);
#767=CIRCLE('',#1061,0.003);
#768=CIRCLE('',#1062,0.003);
#769=CIRCLE('',#1069,0.003);
#770=CIRCLE('',#1070,0.003);
#771=CIRCLE('',#1077,0.003);
#772=CIRCLE('',#1078,0.003);
#773=EDGE_LOOP('',(#226));
#774=EDGE_LOOP('',(#227,#228,#229,#230,#231,#232,#233,#234,#235,#236,#237,
#238,#239,#240,#241,#242,#243,#244,#245,#246,#247,#248,#249,#250,#251,#252,
#253,#254,#255,#256,#257,#258,#259,#260,#261,#262));
#775=EDGE_LOOP('',(#263,#264,#265,#266));
#776=EDGE_LOOP('',(#267,#268,#269,#270));
#777=EDGE_LOOP('',(#271,#272,#273,#274));
#778=EDGE_LOOP('',(#275,#276,#277,#278));
#779=EDGE_LOOP('',(#279,#280,#281,#282));
#780=EDGE_LOOP('',(#283));
#781=EDGE_LOOP('',(#284));
#782=EDGE_LOOP('',(#285));
#783=EDGE_LOOP('',(#286));
#784=EDGE_LOOP('',(#287,#288,#289,#290,#291,#292,#293,#294,#295,#296,#297,
#298,#299,#300,#301,#302,#303,#304,#305,#306,#307,#308,#309,#310));
#785=EDGE_LOOP('',(#311));
#786=EDGE_LOOP('',(#312));
#787=EDGE_LOOP('',(#313));
#788=EDGE_LOOP('',(#314));
#789=EDGE_LOOP('',(#315));
#790=EDGE_LOOP('',(#316));
#791=EDGE_LOOP('',(#317));
#792=EDGE_LOOP('',(#318));
#793=EDGE_LOOP('',(#319));
#794=EDGE_LOOP('',(#320));
#795=EDGE_LOOP('',(#321));
#796=EDGE_LOOP('',(#322));
#797=EDGE_LOOP('',(#323));
#798=EDGE_LOOP('',(#324));
#799=EDGE_LOOP('',(#325));
#800=EDGE_LOOP('',(#326,#327,#328,#329));
#801=EDGE_LOOP('',(#330));
#802=EDGE_LOOP('',(#331));
#803=EDGE_LOOP('',(#332,#333,#334,#335));
#804=EDGE_LOOP('',(#336,#337,#338,#339,#340,#341));
#805=EDGE_LOOP('',(#342,#343,#344,#345,#346));
#806=EDGE_LOOP('',(#347,#348,#349,#350,#351));
#807=EDGE_LOOP('',(#352,#353,#354,#355));
#808=EDGE_LOOP('',(#356,#357,#358,#359));
#809=EDGE_LOOP('',(#360,#361,#362,#363));
#810=EDGE_LOOP('',(#364,#365,#366,#367,#368,#369));
#811=EDGE_LOOP('',(#370,#371,#372,#373,#374));
#812=EDGE_LOOP('',(#375,#376,#377,#378,#379));
#813=EDGE_LOOP('',(#380,#381,#382,#383));
#814=EDGE_LOOP('',(#384,#385,#386,#387));
#815=EDGE_LOOP('',(#388,#389,#390,#391));
#816=EDGE_LOOP('',(#392,#393,#394,#395,#396,#397));
#817=EDGE_LOOP('',(#398,#399,#400,#401,#402));
#818=EDGE_LOOP('',(#403,#404,#405,#406,#407));
#819=EDGE_LOOP('',(#408,#409,#410,#411));
#820=EDGE_LOOP('',(#412,#413,#414,#415));
#821=EDGE_LOOP('',(#416,#417,#418,#419));
#822=EDGE_LOOP('',(#420,#421,#422,#423,#424,#425));
#823=EDGE_LOOP('',(#426,#427,#428,#429,#430));
#824=EDGE_LOOP('',(#431,#432,#433,#434,#435));
#825=EDGE_LOOP('',(#436,#437,#438,#439));
#826=EDGE_LOOP('',(#440,#441,#442,#443));
#827=EDGE_LOOP('',(#444,#445,#446,#447));
#828=EDGE_LOOP('',(#448,#449,#450,#451,#452,#453));
#829=EDGE_LOOP('',(#454,#455,#456,#457,#458));
#830=EDGE_LOOP('',(#459,#460,#461,#462,#463));
#831=EDGE_LOOP('',(#464,#465,#466,#467));
#832=EDGE_LOOP('',(#468,#469,#470,#471));
#833=EDGE_LOOP('',(#472,#473,#474,#475));
#834=EDGE_LOOP('',(#476,#477,#478,#479,#480,#481));
#835=EDGE_LOOP('',(#482,#483,#484,#485,#486));
#836=EDGE_LOOP('',(#487,#488,#489,#490,#491));
#837=EDGE_LOOP('',(#492,#493,#494,#495));
#838=EDGE_LOOP('',(#496,#497,#498,#499));
#839=FACE_BOUND('',#773,.T.);
#840=FACE_BOUND('',#774,.T.);
#841=FACE_BOUND('',#775,.T.);
#842=FACE_BOUND('',#776,.T.);
#843=FACE_BOUND('',#777,.T.);
#844=FACE_BOUND('',#778,.T.);
#845=FACE_BOUND('',#779,.T.);
#846=FACE_BOUND('',#780,.T.);
#847=FACE_BOUND('',#781,.T.);
#848=FACE_BOUND('',#782,.T.);
#849=FACE_BOUND('',#783,.T.);
#850=FACE_BOUND('',#784,.T.);
#851=FACE_BOUND('',#785,.T.);
#852=FACE_BOUND('',#786,.T.);
#853=FACE_BOUND('',#787,.T.);
#854=FACE_BOUND('',#788,.T.);
#855=FACE_BOUND('',#789,.T.);
#856=FACE_BOUND('',#790,.T.);
#857=FACE_BOUND('',#791,.T.);
#858=FACE_BOUND('',#792,.T.);
#859=FACE_BOUND('',#793,.T.);
#860=FACE_BOUND('',#794,.T.);
#861=FACE_BOUND('',#795,.T.);
#862=FACE_BOUND('',#796,.T.);
#863=FACE_BOUND('',#797,.T.);
#864=FACE_BOUND('',#798,.T.);
#865=FACE_BOUND('',#799,.T.);
#866=FACE_BOUND('',#800,.T.);
#867=FACE_BOUND('',#801,.T.);
#868=FACE_BOUND('',#802,.T.);
#869=FACE_BOUND('',#803,.T.);
#870=FACE_BOUND('',#804,.T.);
#871=FACE_BOUND('',#805,.T.);
#872=FACE_BOUND('',#806,.T.);
#873=FACE_BOUND('',#807,.T.);
#874=FACE_BOUND('',#808,.T.);
#875=FACE_BOUND('',#809,.T.);
#876=FACE_BOUND('',#810,.T.);
#877=FACE_BOUND('',#811,.T.);
#878=FACE_BOUND('',#812,.T.);
#879=FACE_BOUND('',#813,.T.);
#880=FACE_BOUND('',#814,.T.);
#881=FACE_BOUND('',#815,.T.);
#882=FACE_BOUND('',#816,.T.);
#883=FACE_BOUND('',#817,.T.);
#884=FACE_BOUND('',#818,.T.);
#885=FACE_BOUND('',#819,.T.);
#886=FACE_BOUND('',#820,.T.);
#887=FACE_BOUND('',#821,.T.);
#888=FACE_BOUND('',#822,.T.);
#889=FACE_BOUND('',#823,.T.);
#890=FACE_BOUND('',#824,.T.);
#891=FACE_BOUND('',#825,.T.);
#892=FACE_BOUND('',#826,.T.);
#893=FACE_BOUND('',#827,.T.);
#894=FACE_BOUND('',#828,.T.);
#895=FACE_BOUND('',#829,.T.);
#896=FACE_BOUND('',#830,.T.);
#897=FACE_BOUND('',#831,.T.);
#898=FACE_BOUND('',#832,.T.);
#899=FACE_BOUND('',#833,.T.);
#900=FACE_BOUND('',#834,.T.);
#901=FACE_BOUND('',#835,.T.);
#902=FACE_BOUND('',#836,.T.);
#903=FACE_BOUND('',#837,.T.);
#904=FACE_BOUND('',#838,.T.);
#905=CYLINDRICAL_SURFACE('',#988,0.025);
#906=CYLINDRICAL_SURFACE('',#1019,0.02);
#907=CYLINDRICAL_SURFACE('',#1024,0.021);
#908=CYLINDRICAL_SURFACE('',#1028,0.0149);
#909=CYLINDRICAL_SURFACE('',#1041,0.003);
#910=CYLINDRICAL_SURFACE('',#1042,0.003);
#911=CYLINDRICAL_SURFACE('',#1049,0.003);
#912=CYLINDRICAL_SURFACE('',#1050,0.003);
#913=CYLINDRICAL_SURFACE('',#1057,0.003);
#914=CYLINDRICAL_SURFACE('',#1058,0.003);
#915=CYLINDRICAL_SURFACE('',#1065,0.003);
#916=CYLINDRICAL_SURFACE('',#1066,0.003);
#917=CYLINDRICAL_SURFACE('',#1073,0.003);
#918=CYLINDRICAL_SURFACE('',#1074,0.003);
#919=CYLINDRICAL_SURFACE('',#1081,0.003);
#920=CYLINDRICAL_SURFACE('',#1082,0.003);
#921=ADVANCED_FACE('',(#839,#840),#905,.T.);
#922=ADVANCED_FACE('',(#841),#49,.T.);
#923=ADVANCED_FACE('',(#842),#50,.T.);
#924=ADVANCED_FACE('',(#843),#51,.T.);
#925=ADVANCED_FACE('',(#844),#52,.T.);
#926=ADVANCED_FACE('',(#845),#53,.T.);
#927=ADVANCED_FACE('',(#846,#847),#20,.F.);
#928=ADVANCED_FACE('',(#848,#849),#54,.T.);
#929=ADVANCED_FACE('',(#850,#851),#21,.F.);
#930=ADVANCED_FACE('',(#852,#853),#906,.F.);
#931=ADVANCED_FACE('',(#854,#855),#22,.F.);
#932=ADVANCED_FACE('',(#856,#857),#907,.F.);
#933=ADVANCED_FACE('',(#858,#859),#23,.F.);
#934=ADVANCED_FACE('',(#860,#861),#908,.F.);
#935=ADVANCED_FACE('',(#862,#863),#24,.F.);
#936=ADVANCED_FACE('',(#864,#865),#55,.F.);
#937=ADVANCED_FACE('',(#866),#56,.T.);
#938=ADVANCED_FACE('',(#867,#868),#57,.F.);
#939=ADVANCED_FACE('',(#869),#25,.T.);
#940=ADVANCED_FACE('',(#870),#26,.T.);
#941=ADVANCED_FACE('',(#871),#27,.F.);
#942=ADVANCED_FACE('',(#872),#28,.T.);
#943=ADVANCED_FACE('',(#873),#909,.F.);
#944=ADVANCED_FACE('',(#874),#910,.F.);
#945=ADVANCED_FACE('',(#875),#29,.T.);
#946=ADVANCED_FACE('',(#876),#30,.T.);
#947=ADVANCED_FACE('',(#877),#31,.F.);
#948=ADVANCED_FACE('',(#878),#32,.T.);
#949=ADVANCED_FACE('',(#879),#911,.F.);
#950=ADVANCED_FACE('',(#880),#912,.F.);
#951=ADVANCED_FACE('',(#881),#33,.T.);
#952=ADVANCED_FACE('',(#882),#34,.T.);
#953=ADVANCED_FACE('',(#883),#35,.F.);
#954=ADVANCED_FACE('',(#884),#36,.T.);
#955=ADVANCED_FACE('',(#885),#913,.F.);
#956=ADVANCED_FACE('',(#886),#914,.F.);
#957=ADVANCED_FACE('',(#887),#37,.T.);
#958=ADVANCED_FACE('',(#888),#38,.T.);
#959=ADVANCED_FACE('',(#889),#39,.F.);
#960=ADVANCED_FACE('',(#890),#40,.T.);
#961=ADVANCED_FACE('',(#891),#915,.F.);
#962=ADVANCED_FACE('',(#892),#916,.F.);
#963=ADVANCED_FACE('',(#893),#41,.T.);
#964=ADVANCED_FACE('',(#894),#42,.T.);
#965=ADVANCED_FACE('',(#895),#43,.F.);
#966=ADVANCED_FACE('',(#896),#44,.T.);
#967=ADVANCED_FACE('',(#897),#917,.F.);
#968=ADVANCED_FACE('',(#898),#918,.F.);
#969=ADVANCED_FACE('',(#899),#45,.T.);
#970=ADVANCED_FACE('',(#900),#46,.T.);
#971=ADVANCED_FACE('',(#901),#47,.F.);
#972=ADVANCED_FACE('',(#902),#48,.T.);
#973=ADVANCED_FACE('',(#903),#919,.F.);
#974=ADVANCED_FACE('',(#904),#920,.F.);
#975=CLOSED_SHELL('',(#921,#922,#923,#924,#925,#926,#927,#928,#929,#930,
#931,#932,#933,#934,#935,#936,#937,#938,#939,#940,#941,#942,#943,#944,#945,
#946,#947,#948,#949,#950,#951,#952,#953,#954,#955,#956,#957,#958,#959,#960,
#961,#962,#963,#964,#965,#966,#967,#968,#969,#970,#971,#972,#973,#974));
#976=STYLED_ITEM('',(#977),#984);
#977=PRESENTATION_STYLE_ASSIGNMENT((#978));
#978=SURFACE_STYLE_USAGE(.BOTH.,#979);
#979=SURFACE_SIDE_STYLE('',(#980));
#980=SURFACE_STYLE_FILL_AREA(#981);
#981=FILL_AREA_STYLE('',(#982));
#982=FILL_AREA_STYLE_COLOUR('',#983);
#983=COLOUR_RGB('',0.6,0.6,0.6);
#984=MANIFOLD_SOLID_BREP('ER32 Collet Nut',#975);
#985=SHAPE_DEFINITION_REPRESENTATION(#1724,#986);
#986=SHAPE_REPRESENTATION('ER32 Collet Nut',(#987),#1719);
#987=AXIS2_PLACEMENT_3D('',#1347,#1083,#1084);
#988=AXIS2_PLACEMENT_3D('',#1348,#1085,#1086);
#989=AXIS2_PLACEMENT_3D('',#1349,#1087,#1088);
#990=AXIS2_PLACEMENT_3D('',#1351,#1089,#1090);
#991=AXIS2_PLACEMENT_3D('',#1362,#1092,#1093);
#992=AXIS2_PLACEMENT_3D('',#1372,#1095,#1096);
#993=AXIS2_PLACEMENT_3D('',#1382,#1098,#1099);
#994=AXIS2_PLACEMENT_3D('',#1392,#1101,#1102);
#995=AXIS2_PLACEMENT_3D('',#1402,#1104,#1105);
#996=AXIS2_PLACEMENT_3D('',#1412,#1107,#1108);
#997=AXIS2_PLACEMENT_3D('',#1422,#1110,#1111);
#998=AXIS2_PLACEMENT_3D('',#1432,#1113,#1114);
#999=AXIS2_PLACEMENT_3D('',#1442,#1116,#1117);
#1000=AXIS2_PLACEMENT_3D('',#1452,#1119,#1120);
#1001=AXIS2_PLACEMENT_3D('',#1462,#1122,#1123);
#1002=AXIS2_PLACEMENT_3D('',#1471,#1125,#1126);
#1003=AXIS2_PLACEMENT_3D('',#1477,#1127,#1128);
#1004=AXIS2_PLACEMENT_3D('',#1483,#1129,#1130);
#1005=AXIS2_PLACEMENT_3D('',#1489,#1131,#1132);
#1006=AXIS2_PLACEMENT_3D('',#1495,#1133,#1134);
#1007=AXIS2_PLACEMENT_3D('',#1501,#1135,#1136);
#1008=AXIS2_PLACEMENT_3D('',#1507,#1137,#1138);
#1009=AXIS2_PLACEMENT_3D('',#1513,#1139,#1140);
#1010=AXIS2_PLACEMENT_3D('',#1519,#1141,#1142);
#1011=AXIS2_PLACEMENT_3D('',#1525,#1143,#1144);
#1012=AXIS2_PLACEMENT_3D('',#1531,#1145,#1146);
#1013=AXIS2_PLACEMENT_3D('',#1532,#1147,#1148);
#1014=AXIS2_PLACEMENT_3D('',#1534,#1149,#1150);
#1015=AXIS2_PLACEMENT_3D('',#1536,#1151,#1152);
#1016=AXIS2_PLACEMENT_3D('',#1537,#1153,#1154);
#1017=AXIS2_PLACEMENT_3D('',#1543,#1157,#1158);
#1018=AXIS2_PLACEMENT_3D('',#1571,#1175,#1176);
#1019=AXIS2_PLACEMENT_3D('',#1573,#1177,#1178);
#1020=AXIS2_PLACEMENT_3D('',#1574,#1179,#1180);
#1021=AXIS2_PLACEMENT_3D('',#1576,#1181,#1182);
#1022=AXIS2_PLACEMENT_3D('',#1578,#1183,#1184);
#1023=AXIS2_PLACEMENT_3D('',#1579,#1185,#1186);
#1024=AXIS2_PLACEMENT_3D('',#1581,#1187,#1188);
#1025=AXIS2_PLACEMENT_3D('',#1582,#1189,#1190);
#1026=AXIS2_PLACEMENT_3D('',#1584,#1191,#1192);
#1027=AXIS2_PLACEMENT_3D('',#1585,#1193,#1194);
#1028=AXIS2_PLACEMENT_3D('',#1587,#1195,#1196);
#1029=AXIS2_PLACEMENT_3D('',#1588,#1197,#1198);
#1030=AXIS2_PLACEMENT_3D('',#1590,#1199,#1200);
#1031=AXIS2_PLACEMENT_3D('',#1591,#1201,#1202);
#1032=AXIS2_PLACEMENT_3D('',#1593,#1203,#1204);
#1033=AXIS2_PLACEMENT_3D('',#1594,#1205,#1206);
#1034=AXIS2_PLACEMENT_3D('',#1603,#1207,#1208);
#1035=AXIS2_PLACEMENT_3D('',#1604,#1209,#1210);
#1036=AXIS2_PLACEMENT_3D('',#1610,#1214,#1215);
#1037=AXIS2_PLACEMENT_3D('',#1613,#1217,#1218);
#1038=AXIS2_PLACEMENT_3D('',#1614,#1219,#1220);
#1039=AXIS2_PLACEMENT_3D('',#1617,#1222,#1223);
#1040=AXIS2_PLACEMENT_3D('',#1619,#1225,#1226);
#1041=AXIS2_PLACEMENT_3D('',#1621,#1228,#1229);
#1042=AXIS2_PLACEMENT_3D('',#1622,#1230,#1231);
#1043=AXIS2_PLACEMENT_3D('',#1623,#1232,#1233);
#1044=AXIS2_PLACEMENT_3D('',#1629,#1237,#1238);
#1045=AXIS2_PLACEMENT_3D('',#1632,#1240,#1241);
#1046=AXIS2_PLACEMENT_3D('',#1633,#1242,#1243);
#1047=AXIS2_PLACEMENT_3D('',#1636,#1245,#1246);
#1048=AXIS2_PLACEMENT_3D('',#1638,#1248,#1249);
#1049=AXIS2_PLACEMENT_3D('',#1640,#1251,#1252);
#1050=AXIS2_PLACEMENT_3D('',#1641,#1253,#1254);
#1051=AXIS2_PLACEMENT_3D('',#1642,#1255,#1256);
#1052=AXIS2_PLACEMENT_3D('',#1648,#1260,#1261);
#1053=AXIS2_PLACEMENT_3D('',#1651,#1263,#1264);
#1054=AXIS2_PLACEMENT_3D('',#1652,#1265,#1266);
#1055=AXIS2_PLACEMENT_3D('',#1655,#1268,#1269);
#1056=AXIS2_PLACEMENT_3D('',#1657,#1271,#1272);
#1057=AXIS2_PLACEMENT_3D('',#1659,#1274,#1275);
#1058=AXIS2_PLACEMENT_3D('',#1660,#1276,#1277);
#1059=AXIS2_PLACEMENT_3D('',#1661,#1278,#1279);
#1060=AXIS2_PLACEMENT_3D('',#1667,#1283,#1284);
#1061=AXIS2_PLACEMENT_3D('',#1670,#1286,#1287);
#1062=AXIS2_PLACEMENT_3D('',#1671,#1288,#1289);
#1063=AXIS2_PLACEMENT_3D('',#1674,#1291,#1292);
#1064=AXIS2_PLACEMENT_3D('',#1676,#1294,#1295);
#1065=AXIS2_PLACEMENT_3D('',#1678,#1297,#1298);
#1066=AXIS2_PLACEMENT_3D('',#1679,#1299,#1300);
#1067=AXIS2_PLACEMENT_3D('',#1680,#1301,#1302);
#1068=AXIS2_PLACEMENT_3D('',#1686,#1306,#1307);
#1069=AXIS2_PLACEMENT_3D('',#1689,#1309,#1310);
#1070=AXIS2_PLACEMENT_3D('',#1690,#1311,#1312);
#1071=AXIS2_PLACEMENT_3D('',#1693,#1314,#1315);
#1072=AXIS2_PLACEMENT_3D('',#1695,#1317,#1318);
#1073=AXIS2_PLACEMENT_3D('',#1697,#1320,#1321);
#1074=AXIS2_PLACEMENT_3D('',#1698,#1322,#1323);
#1075=AXIS2_PLACEMENT_3D('',#1699,#1324,#1325);
#1076=AXIS2_PLACEMENT_3D('',#1705,#1329,#1330);
#1077=AXIS2_PLACEMENT_3D('',#1708,#1332,#1333);
#1078=AXIS2_PLACEMENT_3D('',#1709,#1334,#1335);
#1079=AXIS2_PLACEMENT_3D('',#1712,#1337,#1338);
#1080=AXIS2_PLACEMENT_3D('',#1714,#1340,#1341);
#1081=AXIS2_PLACEMENT_3D('',#1716,#1343,#1344);
#1082=AXIS2_PLACEMENT_3D('',#1717,#1345,#1346);
#1083=DIRECTION('',(0.,0.,1.));
#1084=DIRECTION('',(1.,0.,0.));
#1085=DIRECTION('',(0.,-1.,0.));
#1086=DIRECTION('',(0.,0.,-1.));
#1087=DIRECTION('',(0.,-1.,0.));
#1088=DIRECTION('',(0.,0.,-1.));
#1089=DIRECTION('',(0.,-1.,0.));
#1090=DIRECTION('',(0.,0.,-1.));
#1091=DIRECTION('',(0.,-1.,0.));
#1092=DIRECTION('',(0.,1.,0.));
#1093=DIRECTION('',(0.,0.,1.));
#1094=DIRECTION('',(0.,-1.,0.));
#1095=DIRECTION('',(0.,-1.,0.));
#1096=DIRECTION('',(0.,0.,-1.));
#1097=DIRECTION('',(0.,-1.,0.));
#1098=DIRECTION('',(0.,1.,0.));
#1099=DIRECTION('',(0.,0.,1.));
#1100=DIRECTION('',(0.,-1.,0.));
#1101=DIRECTION('',(0.,-1.,0.));
#1102=DIRECTION('',(0.,0.,-1.));
#1103=DIRECTION('',(0.,-1.,0.));
#1104=DIRECTION('',(0.,1.,0.));
#1105=DIRECTION('',(0.,0.,1.));
#1106=DIRECTION('',(0.,-1.,0.));
#1107=DIRECTION('',(0.,-1.,0.));
#1108=DIRECTION('',(0.,0.,-1.));
#1109=DIRECTION('',(0.,-1.,0.));
#1110=DIRECTION('',(0.,1.,0.));
#1111=DIRECTION('',(0.,0.,1.));
#1112=DIRECTION('',(0.,-1.,0.));
#1113=DIRECTION('',(0.,-1.,0.));
#1114=DIRECTION('',(0.,0.,-1.));
#1115=DIRECTION('',(0.,-1.,0.));
#1116=DIRECTION('',(0.,1.,0.));
#1117=DIRECTION('',(0.,0.,1.));
#1118=DIRECTION('',(0.,-1.,0.));
#1119=DIRECTION('',(0.,-1.,0.));
#1120=DIRECTION('',(0.,0.,-1.));
#1121=DIRECTION('',(0.,-1.,0.));
#1122=DIRECTION('',(0.,1.,0.));
#1123=DIRECTION('',(0.,0.,1.));
#1124=DIRECTION('',(0.,-1.,0.));
#1125=DIRECTION('',(0.,1.,0.));
#1126=DIRECTION('',(0.,0.,1.));
#1127=DIRECTION('',(0.,1.,0.));
#1128=DIRECTION('',(0.,0.,1.));
#1129=DIRECTION('',(0.,1.,0.));
#1130=DIRECTION('',(0.,0.,1.));
#1131=DIRECTION('',(0.,1.,0.));
#1132=DIRECTION('',(0.,0.,1.));
#1133=DIRECTION('',(0.,1.,0.));
#1134=DIRECTION('',(0.,0.,1.));
#1135=DIRECTION('',(0.,1.,0.));
#1136=DIRECTION('',(0.,0.,1.));
#1137=DIRECTION('',(0.,1.,0.));
#1138=DIRECTION('',(0.,0.,1.));
#1139=DIRECTION('',(0.,1.,0.));
#1140=DIRECTION('',(0.,0.,1.));
#1141=DIRECTION('',(0.,1.,0.));
#1142=DIRECTION('',(0.,0.,1.));
#1143=DIRECTION('',(0.,1.,0.));
#1144=DIRECTION('',(0.,0.,1.));
#1145=DIRECTION('',(0.,-1.,0.));
#1146=DIRECTION('',(0.,0.,-1.));
#1147=DIRECTION('',(0.,-1.,0.));
#1148=DIRECTION('',(0.,0.,-1.));
#1149=DIRECTION('',(0.,-1.,0.));
#1150=DIRECTION('',(0.,0.,-1.));
#1151=DIRECTION('',(0.,-1.,0.));
#1152=DIRECTION('',(0.,0.,-1.));
#1153=DIRECTION('',(0.,1.,0.));
#1154=DIRECTION('',(0.,0.,1.));
#1155=DIRECTION('',(-0.866025403784439,0.,-0.5));
#1156=DIRECTION('',(0.5,0.,-0.866025403784439));
#1157=DIRECTION('',(0.,1.,0.));
#1158=DIRECTION('',(0.,0.,1.));
#1159=DIRECTION('',(1.,0.,-6.12323399573677E-17));
#1160=DIRECTION('',(-6.12323399573677E-17,0.,-1.));
#1161=DIRECTION('',(1.,0.,-6.12323399573677E-17));
#1162=DIRECTION('',(0.5,0.,0.866025403784439));
#1163=DIRECTION('',(0.866025403784439,0.,-0.5));
#1164=DIRECTION('',(0.5,0.,0.866025403784439));
#1165=DIRECTION('',(-0.5,0.,0.866025403784439));
#1166=DIRECTION('',(0.866025403784439,0.,0.5));
#1167=DIRECTION('',(-0.5,0.,0.866025403784439));
#1168=DIRECTION('',(-1.,0.,1.83697019872103E-16));
#1169=DIRECTION('',(1.83697019872103E-16,0.,1.));
#1170=DIRECTION('',(-1.,0.,1.83697019872103E-16));
#1171=DIRECTION('',(-0.5,0.,-0.866025403784439));
#1172=DIRECTION('',(-0.866025403784438,0.,0.5));
#1173=DIRECTION('',(-0.5,0.,-0.866025403784439));
#1174=DIRECTION('',(0.5,0.,-0.866025403784439));
#1175=DIRECTION('',(0.,1.,0.));
#1176=DIRECTION('',(0.,0.,1.));
#1177=DIRECTION('',(0.,-1.,0.));
#1178=DIRECTION('',(0.,0.,-1.));
#1179=DIRECTION('',(0.,1.,0.));
#1180=DIRECTION('',(0.,0.,1.));
#1181=DIRECTION('',(0.,-1.,0.));
#1182=DIRECTION('',(0.,0.,-1.));
#1183=DIRECTION('',(0.,-1.,0.));
#1184=DIRECTION('',(0.,0.,-1.));
#1185=DIRECTION('',(0.,-1.,0.));
#1186=DIRECTION('',(0.,0.,-1.));
#1187=DIRECTION('',(0.,-1.,0.));
#1188=DIRECTION('',(0.,0.,-1.));
#1189=DIRECTION('',(0.,-1.,0.));
#1190=DIRECTION('',(0.,0.,-1.));
#1191=DIRECTION('',(0.,1.,0.));
#1192=DIRECTION('',(0.,0.,1.));
#1193=DIRECTION('',(0.,-1.,0.));
#1194=DIRECTION('',(0.,0.,-1.));
#1195=DIRECTION('',(0.,-1.,0.));
#1196=DIRECTION('',(0.,0.,-1.));
#1197=DIRECTION('',(0.,-1.,0.));
#1198=DIRECTION('',(0.,0.,-1.));
#1199=DIRECTION('',(0.,-1.,0.));
#1200=DIRECTION('',(0.,0.,-1.));
#1201=DIRECTION('',(0.,-1.,0.));
#1202=DIRECTION('',(0.,0.,-1.));
#1203=DIRECTION('',(0.,-1.,0.));
#1204=DIRECTION('',(0.,0.,-1.));
#1205=DIRECTION('',(0.,1.,0.));
#1206=DIRECTION('',(0.,0.,1.));
#1207=DIRECTION('',(0.,-1.,0.));
#1208=DIRECTION('',(0.,0.,-1.));
#1209=DIRECTION('',(0.,-1.,0.));
#1210=DIRECTION('',(0.,0.,-1.));
#1211=DIRECTION('',(-6.12323399573677E-17,0.,-1.));
#1212=DIRECTION('',(1.,0.,-6.12323399573677E-17));
#1213=DIRECTION('',(1.,0.,-6.12323399573677E-17));
#1214=DIRECTION('',(1.,0.,-6.12323399573677E-17));
#1215=DIRECTION('',(0.,1.,0.));
#1216=DIRECTION('',(0.,-1.,0.));
#1217=DIRECTION('',(1.,0.,-6.12323399573677E-17));
#1218=DIRECTION('',(-6.12323399573677E-17,0.,-1.));
#1219=DIRECTION('',(1.,0.,-6.12323399573677E-17));
#1220=DIRECTION('',(-6.12323399573677E-17,0.,-1.));
#1221=DIRECTION('',(0.,-1.,0.));
#1222=DIRECTION('',(6.12323399573677E-17,0.,1.));
#1223=DIRECTION('',(1.,0.,-6.12323399573677E-17));
#1224=DIRECTION('',(1.,0.,-6.12323399573677E-17));
#1225=DIRECTION('',(6.12323399573677E-17,0.,1.));
#1226=DIRECTION('',(1.,0.,-6.12323399573677E-17));
#1227=DIRECTION('',(1.,0.,-6.12323399573677E-17));
#1228=DIRECTION('',(-1.,0.,6.12323399573677E-17));
#1229=DIRECTION('',(6.12323399573677E-17,0.,1.));
#1230=DIRECTION('',(1.,0.,-6.12323399573677E-17));
#1231=DIRECTION('',(-6.12323399573677E-17,0.,-1.));
#1232=DIRECTION('',(0.,-1.,0.));
#1233=DIRECTION('',(0.,0.,-1.));
#1234=DIRECTION('',(0.866025403784439,0.,-0.5));
#1235=DIRECTION('',(0.5,0.,0.866025403784439));
#1236=DIRECTION('',(0.5,0.,0.866025403784439));
#1237=DIRECTION('',(0.5,0.,0.866025403784439));
#1238=DIRECTION('',(0.,1.,0.));
#1239=DIRECTION('',(0.,-1.,0.));
#1240=DIRECTION('',(0.5,0.,0.866025403784439));
#1241=DIRECTION('',(0.866025403784439,0.,-0.5));
#1242=DIRECTION('',(0.5,0.,0.866025403784439));
#1243=DIRECTION('',(0.866025403784439,0.,-0.5));
#1244=DIRECTION('',(0.,-1.,0.));
#1245=DIRECTION('',(-0.866025403784439,0.,0.5));
#1246=DIRECTION('',(0.5,0.,0.866025403784439));
#1247=DIRECTION('',(0.5,0.,0.866025403784439));
#1248=DIRECTION('',(-0.866025403784439,0.,0.5));
#1249=DIRECTION('',(0.5,0.,0.866025403784439));
#1250=DIRECTION('',(0.5,0.,0.866025403784439));
#1251=DIRECTION('',(-0.5,0.,-0.866025403784439));
#1252=DIRECTION('',(-0.866025403784439,0.,0.5));
#1253=DIRECTION('',(0.5,0.,0.866025403784439));
#1254=DIRECTION('',(0.866025403784439,0.,-0.5));
#1255=DIRECTION('',(0.,-1.,0.));
#1256=DIRECTION('',(0.,0.,-1.));
#1257=DIRECTION('',(0.866025403784439,0.,0.5));
#1258=DIRECTION('',(-0.5,0.,0.866025403784439));
#1259=DIRECTION('',(-0.5,0.,0.866025403784439));
#1260=DIRECTION('',(-0.5,0.,0.866025403784439));
#1261=DIRECTION('',(0.,1.,0.));
#1262=DIRECTION('',(0.,-1.,0.));
#1263=DIRECTION('',(-0.5,0.,0.866025403784439));
#1264=DIRECTION('',(0.866025403784439,0.,0.5));
#1265=DIRECTION('',(-0.5,0.,0.866025403784439));
#1266=DIRECTION('',(0.866025403784439,0.,0.5));
#1267=DIRECTION('',(0.,-1.,0.));
#1268=DIRECTION('',(-0.866025403784439,0.,-0.5));
#1269=DIRECTION('',(-0.5,0.,0.866025403784439));
#1270=DIRECTION('',(-0.5,0.,0.866025403784439));
#1271=DIRECTION('',(-0.866025403784439,0.,-0.5));
#1272=DIRECTION('',(-0.5,0.,0.866025403784439));
#1273=DIRECTION('',(-0.5,0.,0.866025403784439));
#1274=DIRECTION('',(0.5,0.,-0.866025403784439));
#1275=DIRECTION('',(-0.866025403784439,0.,-0.5));
#1276=DIRECTION('',(-0.5,0.,0.866025403784439));
#1277=DIRECTION('',(0.866025403784439,0.,0.5));
#1278=DIRECTION('',(0.,-1.,0.));
#1279=DIRECTION('',(0.,0.,-1.));
#1280=DIRECTION('',(1.83697019872103E-16,0.,1.));
#1281=DIRECTION('',(-1.,0.,1.83697019872103E-16));
#1282=DIRECTION('',(-1.,0.,1.83697019872103E-16));
#1283=DIRECTION('',(-1.,0.,1.83697019872103E-16));
#1284=DIRECTION('',(0.,1.,0.));
#1285=DIRECTION('',(0.,-1.,0.));
#1286=DIRECTION('',(-1.,0.,1.83697019872103E-16));
#1287=DIRECTION('',(1.83697019872103E-16,0.,1.));
#1288=DIRECTION('',(-1.,0.,1.83697019872103E-16));
#1289=DIRECTION('',(1.83697019872103E-16,0.,1.));
#1290=DIRECTION('',(0.,-1.,0.));
#1291=DIRECTION('',(-1.83697019872103E-16,0.,-1.));
#1292=DIRECTION('',(-1.,0.,1.83697019872103E-16));
#1293=DIRECTION('',(-1.,0.,1.83697019872103E-16));
#1294=DIRECTION('',(-1.83697019872103E-16,0.,-1.));
#1295=DIRECTION('',(-1.,0.,1.83697019872103E-16));
#1296=DIRECTION('',(-1.,0.,1.83697019872103E-16));
#1297=DIRECTION('',(1.,0.,-1.83697019872103E-16));
#1298=DIRECTION('',(-1.83697019872103E-16,0.,-1.));
#1299=DIRECTION('',(-1.,0.,1.83697019872103E-16));
#1300=DIRECTION('',(1.83697019872103E-16,0.,1.));
#1301=DIRECTION('',(0.,-1.,0.));
#1302=DIRECTION('',(0.,0.,-1.));
#1303=DIRECTION('',(-0.866025403784438,0.,0.5));
#1304=DIRECTION('',(-0.5,0.,-0.866025403784439));
#1305=DIRECTION('',(-0.5,0.,-0.866025403784439));
#1306=DIRECTION('',(-0.5,0.,-0.866025403784438));
#1307=DIRECTION('',(0.,1.,0.));
#1308=DIRECTION('',(0.,-1.,0.));
#1309=DIRECTION('',(-0.5,0.,-0.866025403784438));
#1310=DIRECTION('',(-0.866025403784438,0.,0.5));
#1311=DIRECTION('',(-0.5,0.,-0.866025403784438));
#1312=DIRECTION('',(-0.866025403784438,0.,0.5));
#1313=DIRECTION('',(0.,-1.,0.));
#1314=DIRECTION('',(0.866025403784439,0.,-0.5));
#1315=DIRECTION('',(-0.5,0.,-0.866025403784439));
#1316=DIRECTION('',(-0.5,0.,-0.866025403784439));
#1317=DIRECTION('',(0.866025403784439,0.,-0.5));
#1318=DIRECTION('',(-0.5,0.,-0.866025403784439));
#1319=DIRECTION('',(-0.5,0.,-0.866025403784439));
#1320=DIRECTION('',(0.5,0.,0.866025403784439));
#1321=DIRECTION('',(0.866025403784439,0.,-0.5));
#1322=DIRECTION('',(-0.5,0.,-0.866025403784439));
#1323=DIRECTION('',(-0.866025403784439,0.,0.5));
#1324=DIRECTION('',(0.,-1.,0.));
#1325=DIRECTION('',(0.,0.,-1.));
#1326=DIRECTION('',(-0.866025403784439,0.,-0.5));
#1327=DIRECTION('',(0.5,0.,-0.866025403784439));
#1328=DIRECTION('',(0.5,0.,-0.866025403784439));
#1329=DIRECTION('',(0.5,0.,-0.866025403784439));
#1330=DIRECTION('',(0.,1.,0.));
#1331=DIRECTION('',(0.,-1.,0.));
#1332=DIRECTION('',(0.5,0.,-0.866025403784439));
#1333=DIRECTION('',(-0.866025403784439,0.,-0.5));
#1334=DIRECTION('',(0.5,0.,-0.866025403784439));
#1335=DIRECTION('',(-0.866025403784439,0.,-0.5));
#1336=DIRECTION('',(0.,-1.,0.));
#1337=DIRECTION('',(0.866025403784439,0.,0.5));
#1338=DIRECTION('',(0.5,0.,-0.866025403784439));
#1339=DIRECTION('',(0.5,0.,-0.866025403784439));
#1340=DIRECTION('',(0.866025403784439,0.,0.5));
#1341=DIRECTION('',(0.5,0.,-0.866025403784439));
#1342=DIRECTION('',(0.5,0.,-0.866025403784439));
#1343=DIRECTION('',(-0.5,0.,0.866025403784439));
#1344=DIRECTION('',(0.866025403784439,0.,0.5));
#1345=DIRECTION('',(0.5,0.,-0.866025403784439));
#1346=DIRECTION('',(-0.866025403784439,0.,-0.5));
#1347=CARTESIAN_POINT('',(0.,0.,0.));
#1348=CARTESIAN_POINT('',(0.,0.01125,0.));
#1349=CARTESIAN_POINT('',(0.,0.019,0.));
#1350=CARTESIAN_POINT('',(0.,0.019,-0.025));
#1351=CARTESIAN_POINT('',(0.,0.0135,0.));
#1352=CARTESIAN_POINT('',(0.0124566737297858,0.0135,-0.0216755917932975));
#1353=CARTESIAN_POINT('',(0.0125432762701642,0.0135,-0.0216255917932975));
#1354=CARTESIAN_POINT('',(0.0124566737297858,0.0135,-0.0216755917932975));
#1355=CARTESIAN_POINT('',(0.0117690049409089,0.0135,-0.0220707858816012));
#1356=CARTESIAN_POINT('',(0.0103788960178651,0.0128475378644032,-0.0227659940231576));
#1357=CARTESIAN_POINT('',(0.00976524877219782,0.0112931315319715,-0.0230139070219962));
#1358=CARTESIAN_POINT('',(0.00976524877219782,0.0105,-0.0230139070219962));
#1359=CARTESIAN_POINT('',(0.00976524877219782,0.0105,-0.0230139070219962));
#1360=CARTESIAN_POINT('',(0.00976524877219782,0.01125,-0.0230139070219962));
#1361=CARTESIAN_POINT('',(0.00976524877219782,0.0005,-0.0230139070219962));
#1362=CARTESIAN_POINT('',(0.,0.0005,0.));
#1363=CARTESIAN_POINT('',(-0.00976524877219785,0.0005,-0.0230139070219962));
#1364=CARTESIAN_POINT('',(-0.00976524877219785,0.01125,-0.0230139070219962));
#1365=CARTESIAN_POINT('',(-0.00976524877219785,0.0105,-0.0230139070219962));
#1366=CARTESIAN_POINT('',(-0.00976524877219785,0.0105,-0.0230139070219962));
#1367=CARTESIAN_POINT('',(-0.00976524877219785,0.0112931381460276,-0.0230139070219962));
#1368=CARTESIAN_POINT('',(-0.0103763062228135,0.0128446925143736,-0.0227672031201909));
#1369=CARTESIAN_POINT('',(-0.0117690140920777,0.0135,-0.0220707806225465));
#1370=CARTESIAN_POINT('',(-0.0124566737297858,0.0135,-0.0216755917932974));
#1371=CARTESIAN_POINT('',(-0.0124566737297858,0.0135,-0.0216755917932974));
#1372=CARTESIAN_POINT('',(0.,0.0135,0.));
#1373=CARTESIAN_POINT('',(-0.0125432762701642,0.0135,-0.0216255917932974));
#1374=CARTESIAN_POINT('',(-0.0125432762701642,0.0135,-0.0216255917932974));
#1375=CARTESIAN_POINT('',(-0.0132293587844991,0.0135,-0.0212276501968923));
#1376=CARTESIAN_POINT('',(-0.0145264811575266,0.0128475378644032,-0.0203713846262872));
#1377=CARTESIAN_POINT('',(-0.0150480037352829,0.0112931315319715,-0.0199639070219963));
#1378=CARTESIAN_POINT('',(-0.0150480037352829,0.0105,-0.0199639070219963));
#1379=CARTESIAN_POINT('',(-0.0150480037352829,0.0105,-0.0199639070219963));
#1380=CARTESIAN_POINT('',(-0.0150480037352829,0.01125,-0.0199639070219963));
#1381=CARTESIAN_POINT('',(-0.0150480037352829,0.0005,-0.0199639070219963));
#1382=CARTESIAN_POINT('',(0.,0.0005,0.));
#1383=CARTESIAN_POINT('',(-0.0248132525074807,0.0005,-0.00305));
#1384=CARTESIAN_POINT('',(-0.0248132525074807,0.01125,-0.00305));
#1385=CARTESIAN_POINT('',(-0.0248132525074807,0.0105,-0.00305));
#1386=CARTESIAN_POINT('',(-0.0248132525074808,0.0105,-0.00305));
#1387=CARTESIAN_POINT('',(-0.0248132525074808,0.0112931381460276,-0.00305));
#1388=CARTESIAN_POINT('',(-0.0249051293866124,0.0128446925143736,-0.00239745677369246));
#1389=CARTESIAN_POINT('',(-0.0249983637465174,0.0135,-0.000843125130036964));
#1390=CARTESIAN_POINT('',(-0.02499994999995,0.0135,-4.99999999999965E-5));
#1391=CARTESIAN_POINT('',(-0.02499994999995,0.0135,-4.99999999999966E-5));
#1392=CARTESIAN_POINT('',(0.,0.0135,0.));
#1393=CARTESIAN_POINT('',(-0.02499994999995,0.0135,5.00000000000045E-5));
#1394=CARTESIAN_POINT('',(-0.02499994999995,0.0135,5.00000000000045E-5));
#1395=CARTESIAN_POINT('',(-0.024998363725408,0.0135,0.000843135684708879));
#1396=CARTESIAN_POINT('',(-0.0249053771753918,0.0128475378644032,0.00239460939687044));
#1397=CARTESIAN_POINT('',(-0.0248132525074807,0.0112931315319715,0.00305));
#1398=CARTESIAN_POINT('',(-0.0248132525074807,0.0105,0.00305));
#1399=CARTESIAN_POINT('',(-0.0248132525074807,0.0105,0.00305));
#1400=CARTESIAN_POINT('',(-0.0248132525074807,0.01125,0.00305));
#1401=CARTESIAN_POINT('',(-0.0248132525074807,0.0005,0.00305));
#1402=CARTESIAN_POINT('',(0.,0.0005,0.));
#1403=CARTESIAN_POINT('',(-0.0150480037352829,0.0005,0.0199639070219963));
#1404=CARTESIAN_POINT('',(-0.0150480037352829,0.01125,0.0199639070219963));
#1405=CARTESIAN_POINT('',(-0.0150480037352829,0.0105,0.0199639070219963));
#1406=CARTESIAN_POINT('',(-0.0150480037352829,0.0105,0.0199639070219963));
#1407=CARTESIAN_POINT('',(-0.0150480037352829,0.0112931381460276,0.0199639070219963));
#1408=CARTESIAN_POINT('',(-0.0145288231637989,0.0128446925143736,0.0203697463464984));
#1409=CARTESIAN_POINT('',(-0.0132293496544398,0.0135,0.0212276554925096));
#1410=CARTESIAN_POINT('',(-0.0125432762701642,0.0135,0.0216255917932975));
#1411=CARTESIAN_POINT('',(-0.0125432762701642,0.0135,0.0216255917932975));
#1412=CARTESIAN_POINT('',(0.,0.0135,0.));
#1413=CARTESIAN_POINT('',(-0.0124566737297858,0.0135,0.0216755917932975));
#1414=CARTESIAN_POINT('',(-0.0124566737297858,0.0135,0.0216755917932975));
#1415=CARTESIAN_POINT('',(-0.0117690049409089,0.0135,0.0220707858816012));
#1416=CARTESIAN_POINT('',(-0.0103788960178651,0.0128475378644032,0.0227659940231576));
#1417=CARTESIAN_POINT('',(-0.00976524877219783,0.0112931315319715,0.0230139070219962));
#1418=CARTESIAN_POINT('',(-0.00976524877219783,0.0105,0.0230139070219962));
#1419=CARTESIAN_POINT('',(-0.00976524877219784,0.0105,0.0230139070219962));
#1420=CARTESIAN_POINT('',(-0.00976524877219784,0.01125,0.0230139070219962));
#1421=CARTESIAN_POINT('',(-0.00976524877219784,0.0005,0.0230139070219962));
#1422=CARTESIAN_POINT('',(0.,0.0005,0.));
#1423=CARTESIAN_POINT('',(0.00976524877219785,0.0005,0.0230139070219962));
#1424=CARTESIAN_POINT('',(0.00976524877219784,0.01125,0.0230139070219962));
#1425=CARTESIAN_POINT('',(0.00976524877219784,0.0105,0.0230139070219962));
#1426=CARTESIAN_POINT('',(0.00976524877219785,0.0105,0.0230139070219962));
#1427=CARTESIAN_POINT('',(0.00976524877219785,0.0112931381460275,0.0230139070219962));
#1428=CARTESIAN_POINT('',(0.0103763062228134,0.0128446925143736,0.0227672031201909));
#1429=CARTESIAN_POINT('',(0.0117690140920776,0.0135,0.0220707806225465));
#1430=CARTESIAN_POINT('',(0.0124566737297858,0.0135,0.0216755917932974));
#1431=CARTESIAN_POINT('',(0.0124566737297858,0.0135,0.0216755917932975));
#1432=CARTESIAN_POINT('',(0.,0.0135,0.));
#1433=CARTESIAN_POINT('',(0.0125432762701642,0.0135,0.0216255917932974));
#1434=CARTESIAN_POINT('',(0.0125432762701642,0.0135,0.0216255917932975));
#1435=CARTESIAN_POINT('',(0.0132293587844991,0.0135,0.0212276501968923));
#1436=CARTESIAN_POINT('',(0.0145264811575266,0.0128475378644032,0.0203713846262872));
#1437=CARTESIAN_POINT('',(0.0150480037352829,0.0112931315319715,0.0199639070219963));
#1438=CARTESIAN_POINT('',(0.0150480037352829,0.0105,0.0199639070219963));
#1439=CARTESIAN_POINT('',(0.0150480037352829,0.0105,0.0199639070219963));
#1440=CARTESIAN_POINT('',(0.0150480037352829,0.01125,0.0199639070219963));
#1441=CARTESIAN_POINT('',(0.0150480037352829,0.0005,0.0199639070219963));
#1442=CARTESIAN_POINT('',(0.,0.0005,0.));
#1443=CARTESIAN_POINT('',(0.0248132525074807,0.0005,0.00305));
#1444=CARTESIAN_POINT('',(0.0248132525074807,0.01125,0.00305));
#1445=CARTESIAN_POINT('',(0.0248132525074807,0.0105,0.00305));
#1446=CARTESIAN_POINT('',(0.0248132525074807,0.0105,0.00305));
#1447=CARTESIAN_POINT('',(0.0248132525074807,0.0112931381460276,0.00305));
#1448=CARTESIAN_POINT('',(0.0249051293866124,0.0128446925143736,0.00239745677369247));
#1449=CARTESIAN_POINT('',(0.0249983637465174,0.0135,0.000843125130036966));
#1450=CARTESIAN_POINT('',(0.02499994999995,0.0135,4.99999999999994E-5));
#1451=CARTESIAN_POINT('',(0.02499994999995,0.0135,5.E-5));
#1452=CARTESIAN_POINT('',(0.,0.0135,0.));
#1453=CARTESIAN_POINT('',(0.02499994999995,0.0135,-5.00000000000016E-5));
#1454=CARTESIAN_POINT('',(0.02499994999995,0.0135,-5.00000000000016E-5));
#1455=CARTESIAN_POINT('',(0.024998363725408,0.0135,-0.000843135684708876));
#1456=CARTESIAN_POINT('',(0.0249053771753918,0.0128475378644032,-0.00239460939687043));
#1457=CARTESIAN_POINT('',(0.0248132525074807,0.0112931315319715,-0.00305));
#1458=CARTESIAN_POINT('',(0.0248132525074807,0.0105,-0.00305));
#1459=CARTESIAN_POINT('',(0.0248132525074807,0.0105,-0.00305));
#1460=CARTESIAN_POINT('',(0.0248132525074807,0.01125,-0.00305));
#1461=CARTESIAN_POINT('',(0.0248132525074807,0.0005,-0.00305));
#1462=CARTESIAN_POINT('',(0.,0.0005,0.));
#1463=CARTESIAN_POINT('',(0.0150480037352829,0.0005,-0.0199639070219963));
#1464=CARTESIAN_POINT('',(0.0150480037352829,0.01125,-0.0199639070219963));
#1465=CARTESIAN_POINT('',(0.0150480037352829,0.0105,-0.0199639070219963));
#1466=CARTESIAN_POINT('',(0.0150480037352829,0.0105,-0.0199639070219963));
#1467=CARTESIAN_POINT('',(0.0150480037352829,0.0112931381460276,-0.0199639070219963));
#1468=CARTESIAN_POINT('',(0.0145288231637989,0.0128446925143736,-0.0203697463464985));
#1469=CARTESIAN_POINT('',(0.0132293496544398,0.0135,-0.0212276554925096));
#1470=CARTESIAN_POINT('',(0.0125432762701642,0.0135,-0.0216255917932975));
#1471=CARTESIAN_POINT('',(0.,0.,0.));
#1472=CARTESIAN_POINT('',(0.00976524877219783,0.000499999999999992,-0.0230139070219963));
#1473=CARTESIAN_POINT('',(0.00968128173903816,0.000333320384312383,-0.0228684718544029));
#1474=CARTESIAN_POINT('',(0.00959730841286216,0.000166653451337033,-0.0227230257869855));
#1475=CARTESIAN_POINT('',(0.0095133283972519,5.84608186633269E-18,-0.0225775681331281));
#1476=CARTESIAN_POINT('',(0.00951332839725188,0.,-0.0225775681331281));
#1477=CARTESIAN_POINT('',(0.,0.,0.));
#1478=CARTESIAN_POINT('',(-0.00951332839725191,2.0115602134499E-18,-0.0225775681331281));
#1479=CARTESIAN_POINT('',(-0.00976524877219785,0.000499999999999998,-0.0230139070219962));
#1480=CARTESIAN_POINT('',(-0.00968128173903817,0.000333320384312389,-0.0228684718544029));
#1481=CARTESIAN_POINT('',(-0.00959730841286218,0.000166653451337038,-0.0227230257869855));
#1482=CARTESIAN_POINT('',(-0.00951332839725192,1.06867107749604E-17,-0.0225775681331281));
#1483=CARTESIAN_POINT('',(0.,0.,0.));
#1484=CARTESIAN_POINT('',(-0.0150480037352829,0.000500000000000005,-0.0199639070219963));
#1485=CARTESIAN_POINT('',(-0.0149640367021232,0.000333320384312394,-0.0198184718544029));
#1486=CARTESIAN_POINT('',(-0.0148800633759472,0.000166653451337043,-0.0196730257869855));
#1487=CARTESIAN_POINT('',(-0.014796083360337,1.37888819620335E-17,-0.0195275681331281));
#1488=CARTESIAN_POINT('',(-0.014796083360337,0.,-0.0195275681331281));
#1489=CARTESIAN_POINT('',(0.,0.,0.));
#1490=CARTESIAN_POINT('',(-0.0243094117575888,-1.59433504601672E-18,-0.00305));
#1491=CARTESIAN_POINT('',(-0.0248132525074808,0.000499999999999997,-0.00305));
#1492=CARTESIAN_POINT('',(-0.024645318440387,0.00033332038354376,-0.00305));
#1493=CARTESIAN_POINT('',(-0.0244773717880189,0.000166653450552716,-0.00305));
#1494=CARTESIAN_POINT('',(-0.0243094117575889,-1.31969781488212E-17,-0.00305));
#1495=CARTESIAN_POINT('',(0.,0.,0.));
#1496=CARTESIAN_POINT('',(-0.0248132525074808,0.000499999999999997,0.00305));
#1497=CARTESIAN_POINT('',(-0.024645318440387,0.00033332038354376,0.00305));
#1498=CARTESIAN_POINT('',(-0.0244773717880189,0.000166653450552716,0.00305));
#1499=CARTESIAN_POINT('',(-0.0243094117575889,-1.32039253285933E-17,0.00305));
#1500=CARTESIAN_POINT('',(-0.0243094117575888,0.,0.00305));
#1501=CARTESIAN_POINT('',(0.,0.,0.));
#1502=CARTESIAN_POINT('',(-0.014796083360337,2.70090950646304E-19,0.0195275681331281));
#1503=CARTESIAN_POINT('',(-0.0150480037352829,0.000499999999999992,0.0199639070219963));
#1504=CARTESIAN_POINT('',(-0.0149640367021232,0.000333320384312382,0.0198184718544029));
#1505=CARTESIAN_POINT('',(-0.0148800633759472,0.000166653451337032,0.0196730257869855));
#1506=CARTESIAN_POINT('',(-0.014796083360337,3.67273671944602E-18,0.0195275681331281));
#1507=CARTESIAN_POINT('',(0.,0.,0.));
#1508=CARTESIAN_POINT('',(-0.00976524877219784,0.000499999999999997,0.0230139070219963));
#1509=CARTESIAN_POINT('',(-0.00968128173903817,0.000333320384312387,0.0228684718544029));
#1510=CARTESIAN_POINT('',(-0.00959730841286217,0.000166653451337035,0.0227230257869855));
#1511=CARTESIAN_POINT('',(-0.00951332839725191,6.8411415853443E-18,0.0225775681331281));
#1512=CARTESIAN_POINT('',(-0.00951332839725189,0.,0.0225775681331281));
#1513=CARTESIAN_POINT('',(0.,0.,0.));
#1514=CARTESIAN_POINT('',(0.0095133283972519,3.31302719985607E-19,0.0225775681331281));
#1515=CARTESIAN_POINT('',(0.00976524877219785,0.000499999999999999,0.0230139070219962));
#1516=CARTESIAN_POINT('',(0.00968128173903817,0.000333320384312389,0.0228684718544029));
#1517=CARTESIAN_POINT('',(0.00959730841286217,0.000166653451337039,0.0227230257869855));
#1518=CARTESIAN_POINT('',(0.00951332839725191,1.06063648722363E-17,0.0225775681331281));
#1519=CARTESIAN_POINT('',(0.,0.,0.));
#1520=CARTESIAN_POINT('',(0.0150480037352829,0.000499999999999993,0.0199639070219962));
#1521=CARTESIAN_POINT('',(0.0149640367021232,0.000333320384312385,0.0198184718544029));
#1522=CARTESIAN_POINT('',(0.0148800633759472,0.000166653451337035,0.0196730257869855));
#1523=CARTESIAN_POINT('',(0.014796083360337,8.19299914982103E-18,0.0195275681331281));
#1524=CARTESIAN_POINT('',(0.014796083360337,0.,0.0195275681331281));
#1525=CARTESIAN_POINT('',(0.,0.,0.));
#1526=CARTESIAN_POINT('',(0.0243094117575888,-1.619319186822E-18,0.00305));
#1527=CARTESIAN_POINT('',(0.0248132525074808,0.000499999999999998,0.00305));
#1528=CARTESIAN_POINT('',(0.024645318440387,0.00033332038354376,0.00305));
#1529=CARTESIAN_POINT('',(0.0244773717880189,0.000166653450552717,0.00305));
#1530=CARTESIAN_POINT('',(0.0243094117575889,-1.23483757297521E-17,0.00305));
#1531=CARTESIAN_POINT('',(0.,0.0225,0.0161939110867545));
#1532=CARTESIAN_POINT('',(0.,0.0225,0.));
#1533=CARTESIAN_POINT('',(0.,0.0225,-0.018937822173509));
#1534=CARTESIAN_POINT('',(0.,0.0225,0.));
#1535=CARTESIAN_POINT('',(0.,0.0225,-0.01345));
#1536=CARTESIAN_POINT('',(0.,0.0225,0.));
#1537=CARTESIAN_POINT('',(0.,0.,0.0225));
#1538=CARTESIAN_POINT('',(0.0208677857925749,0.,-0.0136440652342038));
#1539=CARTESIAN_POINT('',(0.0137663774815425,0.,-0.0177440652342037));
#1540=CARTESIAN_POINT('',(0.00848362251845745,0.,-0.0207940652342037));
#1541=CARTESIAN_POINT('',(-0.00710140831103238,0.,0.0184));
#1542=CARTESIAN_POINT('',(0.014796083360337,9.7696560869614E-19,-0.0195275681331281));
#1543=CARTESIAN_POINT('',(0.,0.,0.));
#1544=CARTESIAN_POINT('',(0.0243094117575888,0.,-0.00305));
#1545=CARTESIAN_POINT('',(-1.56448628591074E-18,0.,-0.00305));
#1546=CARTESIAN_POINT('',(0.02225,0.,-0.00305));
#1547=CARTESIAN_POINT('',(0.02225,0.,0.0225));
#1548=CARTESIAN_POINT('',(0.02225,0.,0.00305));
#1549=CARTESIAN_POINT('',(-1.1909690121708E-18,0.,0.00305));
#1550=CARTESIAN_POINT('',(0.0123841632741175,0.,0.01535));
#1551=CARTESIAN_POINT('',(0.0137663774815425,0.,0.0177440652342037));
#1552=CARTESIAN_POINT('',(0.00138221420742507,0.,0.0248940652342038));
#1553=CARTESIAN_POINT('',(0.00848362251845747,0.,0.0207940652342037));
#1554=CARTESIAN_POINT('',(0.0071014083110324,0.,0.0184));
#1555=CARTESIAN_POINT('',(-0.00710140831103239,0.,0.0184));
#1556=CARTESIAN_POINT('',(-0.00848362251845746,0.,0.0207940652342037));
#1557=CARTESIAN_POINT('',(-0.00138221420742506,0.,0.0248940652342038));
#1558=CARTESIAN_POINT('',(-0.0137663774815425,0.,0.0177440652342037));
#1559=CARTESIAN_POINT('',(-0.0123841632741175,0.,0.01535));
#1560=CARTESIAN_POINT('',(-3.5729070365124E-18,0.,0.00305));
#1561=CARTESIAN_POINT('',(-0.02225,0.,0.00305));
#1562=CARTESIAN_POINT('',(-0.02225,0.,0.0225));
#1563=CARTESIAN_POINT('',(-0.02225,0.,-0.00305));
#1564=CARTESIAN_POINT('',(-4.69345885773223E-18,0.,-0.00305));
#1565=CARTESIAN_POINT('',(0.0071014083110324,0.,0.0184));
#1566=CARTESIAN_POINT('',(-0.0137663774815425,0.,-0.0177440652342037));
#1567=CARTESIAN_POINT('',(-0.0208677857925749,0.,-0.0136440652342037));
#1568=CARTESIAN_POINT('',(-0.00848362251845747,0.,-0.0207940652342037));
#1569=CARTESIAN_POINT('',(0.0123841632741175,0.,0.01535));
#1570=CARTESIAN_POINT('',(-0.0123841632741175,0.,0.01535));
#1571=CARTESIAN_POINT('',(0.,0.,0.));
#1572=CARTESIAN_POINT('',(0.,0.,0.0208));
#1573=CARTESIAN_POINT('',(0.,0.01125,0.));
#1574=CARTESIAN_POINT('',(0.,0.0008,0.));
#1575=CARTESIAN_POINT('',(0.,0.0008,0.02));
#1576=CARTESIAN_POINT('',(0.,0.0147,0.));
#1577=CARTESIAN_POINT('',(0.,0.0147,-0.02));
#1578=CARTESIAN_POINT('',(0.,0.0147,0.0205));
#1579=CARTESIAN_POINT('',(0.,0.0147,0.));
#1580=CARTESIAN_POINT('',(0.,0.0147,-0.021));
#1581=CARTESIAN_POINT('',(0.,0.01125,0.));
#1582=CARTESIAN_POINT('',(0.,0.0163,0.));
#1583=CARTESIAN_POINT('',(0.,0.0163,-0.021));
#1584=CARTESIAN_POINT('',(0.,0.0163,0.01795));
#1585=CARTESIAN_POINT('',(0.,0.0163,0.));
#1586=CARTESIAN_POINT('',(0.,0.0163,-0.0149));
#1587=CARTESIAN_POINT('',(0.,0.01125,0.));
#1588=CARTESIAN_POINT('',(0.,0.01705,0.));
#1589=CARTESIAN_POINT('',(0.,0.01705,-0.0149));
#1590=CARTESIAN_POINT('',(0.,0.01705,0.0157482794835417));
#1591=CARTESIAN_POINT('',(0.,0.01705,0.));
#1592=CARTESIAN_POINT('',(0.,0.01705,-0.0165965589670834));
#1593=CARTESIAN_POINT('',(0.,0.01705,0.));
#1594=CARTESIAN_POINT('',(0.,0.,0.));
#1595=CARTESIAN_POINT('',(0.0150480037352829,0.000499999999999992,-0.0199639070219963));
#1596=CARTESIAN_POINT('',(0.0149640367021232,0.000333320384312382,-0.0198184718544029));
#1597=CARTESIAN_POINT('',(0.0148800633759472,0.000166653451337032,-0.0196730257869855));
#1598=CARTESIAN_POINT('',(0.014796083360337,3.30526553415242E-18,-0.0195275681331281));
#1599=CARTESIAN_POINT('',(0.0248132525074808,0.000499999999999997,-0.00305));
#1600=CARTESIAN_POINT('',(0.024645318440387,0.00033332038354376,-0.00305));
#1601=CARTESIAN_POINT('',(0.0244773717880189,0.000166653450552716,-0.00305));
#1602=CARTESIAN_POINT('',(0.0243094117575889,-1.31925296748844E-17,-0.00305));
#1603=CARTESIAN_POINT('',(0.,0.0008,0.));
#1604=CARTESIAN_POINT('',(0.02225,0.0135,-6.98972803105642E-19));
#1605=CARTESIAN_POINT('',(0.02225,0.0135,-6.98972803105642E-19));
#1606=CARTESIAN_POINT('',(0.02225,0.0135,5.E-5));
#1607=CARTESIAN_POINT('',(0.02225,0.0135,-5.00000000000014E-5));
#1608=CARTESIAN_POINT('',(0.0248132525074807,0.0135,-5.00000000000016E-5));
#1609=CARTESIAN_POINT('',(0.02225,0.0135,5.E-5));
#1610=CARTESIAN_POINT('',(0.02225,0.,-4.95057826063027E-19));
#1611=CARTESIAN_POINT('',(0.02225,1.7347234759768E-18,-0.00305));
#1612=CARTESIAN_POINT('',(0.02225,0.0105,-0.00305));
#1613=CARTESIAN_POINT('',(0.02225,0.0105,-5.00000000000014E-5));
#1614=CARTESIAN_POINT('',(0.02225,0.0105,5.E-5));
#1615=CARTESIAN_POINT('',(0.02225,0.0105,0.00305));
#1616=CARTESIAN_POINT('',(0.02225,1.7347234759768E-18,0.00305));
#1617=CARTESIAN_POINT('',(0.02225,1.7347234759768E-18,0.00305));
#1618=CARTESIAN_POINT('',(0.02225,0.0105,0.00305));
#1619=CARTESIAN_POINT('',(0.02225,1.7347234759768E-18,-0.00305));
#1620=CARTESIAN_POINT('',(0.02225,0.0105,-0.00305));
#1621=CARTESIAN_POINT('',(0.02225,0.0105,-5.00000000000014E-5));
#1622=CARTESIAN_POINT('',(0.02225,0.0105,5.E-5));
#1623=CARTESIAN_POINT('',(0.011125,0.0135,0.0192690652342037));
#1624=CARTESIAN_POINT('',(0.011125,0.0135,0.0192690652342037));
#1625=CARTESIAN_POINT('',(0.0110816987298108,0.0135,0.0192940652342037));
#1626=CARTESIAN_POINT('',(0.0111683012701892,0.0135,0.0192440652342037));
#1627=CARTESIAN_POINT('',(0.0124499275239296,0.0135,0.0214639070219962));
#1628=CARTESIAN_POINT('',(0.0110816987298108,0.0135,0.0192940652342037));
#1629=CARTESIAN_POINT('',(0.011125,0.,0.0192690652342037));
#1630=CARTESIAN_POINT('',(0.0137663774815425,1.7347234759768E-18,0.0177440652342037));
#1631=CARTESIAN_POINT('',(0.0137663774815425,0.0105,0.0177440652342037));
#1632=CARTESIAN_POINT('',(0.0111683012701892,0.0105,0.0192440652342037));
#1633=CARTESIAN_POINT('',(0.0110816987298108,0.0105,0.0192940652342037));
#1634=CARTESIAN_POINT('',(0.00848362251845747,0.0105,0.0207940652342037));
#1635=CARTESIAN_POINT('',(0.00848362251845747,1.7347234759768E-18,0.0207940652342037));
#1636=CARTESIAN_POINT('',(0.00848362251845747,1.7347234759768E-18,0.0207940652342037));
#1637=CARTESIAN_POINT('',(0.00848362251845747,0.0105,0.0207940652342037));
#1638=CARTESIAN_POINT('',(0.0137663774815425,1.7347234759768E-18,0.0177440652342037));
#1639=CARTESIAN_POINT('',(0.0137663774815425,0.0105,0.0177440652342037));
#1640=CARTESIAN_POINT('',(0.0111683012701892,0.0105,0.0192440652342037));
#1641=CARTESIAN_POINT('',(0.0110816987298108,0.0105,0.0192940652342037));
#1642=CARTESIAN_POINT('',(-0.011125,0.0135,0.0192690652342037));
#1643=CARTESIAN_POINT('',(-0.011125,0.0135,0.0192690652342037));
#1644=CARTESIAN_POINT('',(-0.0111683012701892,0.0135,0.0192440652342037));
#1645=CARTESIAN_POINT('',(-0.0110816987298108,0.0135,0.0192940652342037));
#1646=CARTESIAN_POINT('',(-0.0123633249835511,0.0135,0.0215139070219962));
#1647=CARTESIAN_POINT('',(-0.0111683012701892,0.0135,0.0192440652342037));
#1648=CARTESIAN_POINT('',(-0.011125,0.,0.0192690652342037));
#1649=CARTESIAN_POINT('',(-0.00848362251845746,1.7347234759768E-18,0.0207940652342037));
#1650=CARTESIAN_POINT('',(-0.00848362251845746,0.0105,0.0207940652342037));
#1651=CARTESIAN_POINT('',(-0.0110816987298108,0.0105,0.0192940652342037));
#1652=CARTESIAN_POINT('',(-0.0111683012701892,0.0105,0.0192440652342037));
#1653=CARTESIAN_POINT('',(-0.0137663774815425,0.0105,0.0177440652342037));
#1654=CARTESIAN_POINT('',(-0.0137663774815425,1.7347234759768E-18,0.0177440652342037));
#1655=CARTESIAN_POINT('',(-0.0137663774815425,1.7347234759768E-18,0.0177440652342037));
#1656=CARTESIAN_POINT('',(-0.0137663774815425,0.0105,0.0177440652342037));
#1657=CARTESIAN_POINT('',(-0.00848362251845746,1.7347234759768E-18,0.0207940652342037));
#1658=CARTESIAN_POINT('',(-0.00848362251845746,0.0105,0.0207940652342037));
#1659=CARTESIAN_POINT('',(-0.0110816987298108,0.0105,0.0192940652342037));
#1660=CARTESIAN_POINT('',(-0.0111683012701892,0.0105,0.0192440652342037));
#1661=CARTESIAN_POINT('',(-0.02225,0.0135,3.4238119312085E-18));
#1662=CARTESIAN_POINT('',(-0.02225,0.0135,3.4238119312085E-18));
#1663=CARTESIAN_POINT('',(-0.02225,0.0135,-4.99999999999971E-5));
#1664=CARTESIAN_POINT('',(-0.02225,0.0135,5.0000000000004E-5));
#1665=CARTESIAN_POINT('',(-0.0248132525074807,0.0135,5.00000000000045E-5));
#1666=CARTESIAN_POINT('',(-0.02225,0.0135,-4.99999999999971E-5));
#1667=CARTESIAN_POINT('',(-0.02225,0.,3.21989695416589E-18));
#1668=CARTESIAN_POINT('',(-0.02225,1.7347234759768E-18,0.00305));
#1669=CARTESIAN_POINT('',(-0.02225,0.0105,0.00305));
#1670=CARTESIAN_POINT('',(-0.02225,0.0105,5.0000000000004E-5));
#1671=CARTESIAN_POINT('',(-0.02225,0.0105,-4.99999999999971E-5));
#1672=CARTESIAN_POINT('',(-0.02225,0.0105,-0.00305));
#1673=CARTESIAN_POINT('',(-0.02225,1.7347234759768E-18,-0.00305));
#1674=CARTESIAN_POINT('',(-0.02225,1.7347234759768E-18,-0.00305));
#1675=CARTESIAN_POINT('',(-0.02225,0.0105,-0.00305));
#1676=CARTESIAN_POINT('',(-0.02225,1.7347234759768E-18,0.00305));
#1677=CARTESIAN_POINT('',(-0.02225,0.0105,0.00305));
#1678=CARTESIAN_POINT('',(-0.02225,0.0105,5.0000000000004E-5));
#1679=CARTESIAN_POINT('',(-0.02225,0.0105,-4.99999999999971E-5));
#1680=CARTESIAN_POINT('',(-0.011125,0.0135,-0.0192690652342037));
#1681=CARTESIAN_POINT('',(-0.011125,0.0135,-0.0192690652342037));
#1682=CARTESIAN_POINT('',(-0.0110816987298108,0.0135,-0.0192940652342037));
#1683=CARTESIAN_POINT('',(-0.0111683012701892,0.0135,-0.0192440652342037));
#1684=CARTESIAN_POINT('',(-0.0124499275239296,0.0135,-0.0214639070219962));
#1685=CARTESIAN_POINT('',(-0.0110816987298108,0.0135,-0.0192940652342037));
#1686=CARTESIAN_POINT('',(-0.011125,0.,-0.0192690652342037));
#1687=CARTESIAN_POINT('',(-0.0137663774815425,1.7347234759768E-18,-0.0177440652342037));
#1688=CARTESIAN_POINT('',(-0.0137663774815425,0.0105,-0.0177440652342037));
#1689=CARTESIAN_POINT('',(-0.0111683012701892,0.0105,-0.0192440652342037));
#1690=CARTESIAN_POINT('',(-0.0110816987298108,0.0105,-0.0192940652342037));
#1691=CARTESIAN_POINT('',(-0.00848362251845747,0.0105,-0.0207940652342037));
#1692=CARTESIAN_POINT('',(-0.00848362251845747,1.7347234759768E-18,-0.0207940652342037));
#1693=CARTESIAN_POINT('',(-0.00848362251845747,1.7347234759768E-18,-0.0207940652342037));
#1694=CARTESIAN_POINT('',(-0.00848362251845747,0.0105,-0.0207940652342037));
#1695=CARTESIAN_POINT('',(-0.0137663774815425,1.7347234759768E-18,-0.0177440652342037));
#1696=CARTESIAN_POINT('',(-0.0137663774815425,0.0105,-0.0177440652342037));
#1697=CARTESIAN_POINT('',(-0.0111683012701892,0.0105,-0.0192440652342037));
#1698=CARTESIAN_POINT('',(-0.0110816987298108,0.0105,-0.0192940652342037));
#1699=CARTESIAN_POINT('',(0.011125,0.0135,-0.0192690652342037));
#1700=CARTESIAN_POINT('',(0.011125,0.0135,-0.0192690652342037));
#1701=CARTESIAN_POINT('',(0.0111683012701892,0.0135,-0.0192440652342037));
#1702=CARTESIAN_POINT('',(0.0110816987298108,0.0135,-0.0192940652342037));
#1703=CARTESIAN_POINT('',(0.0123633249835511,0.0135,-0.0215139070219962));
#1704=CARTESIAN_POINT('',(0.0111683012701892,0.0135,-0.0192440652342037));
#1705=CARTESIAN_POINT('',(0.011125,0.,-0.0192690652342037));
#1706=CARTESIAN_POINT('',(0.00848362251845745,1.7347234759768E-18,-0.0207940652342037));
#1707=CARTESIAN_POINT('',(0.00848362251845745,0.0105,-0.0207940652342037));
#1708=CARTESIAN_POINT('',(0.0110816987298108,0.0105,-0.0192940652342037));
#1709=CARTESIAN_POINT('',(0.0111683012701892,0.0105,-0.0192440652342037));
#1710=CARTESIAN_POINT('',(0.0137663774815425,0.0105,-0.0177440652342037));
#1711=CARTESIAN_POINT('',(0.0137663774815425,1.7347234759768E-18,-0.0177440652342037));
#1712=CARTESIAN_POINT('',(0.0137663774815425,1.7347234759768E-18,-0.0177440652342037));
#1713=CARTESIAN_POINT('',(0.0137663774815425,0.0105,-0.0177440652342037));
#1714=CARTESIAN_POINT('',(0.00848362251845745,1.7347234759768E-18,-0.0207940652342037));
#1715=CARTESIAN_POINT('',(0.00848362251845745,0.0105,-0.0207940652342037));
#1716=CARTESIAN_POINT('',(0.0110816987298108,0.0105,-0.0192940652342037));
#1717=CARTESIAN_POINT('',(0.0111683012701892,0.0105,-0.0192440652342037));
#1718=MECHANICAL_DESIGN_GEOMETRIC_PRESENTATION_REPRESENTATION('',(#976),
#1719);
#1719=(
GEOMETRIC_REPRESENTATION_CONTEXT(3)
GLOBAL_UNCERTAINTY_ASSIGNED_CONTEXT((#1720))
GLOBAL_UNIT_ASSIGNED_CONTEXT((#1723,#1722,#1721))
REPRESENTATION_CONTEXT('ER32 Collet Nut','TOP_LEVEL_ASSEMBLY_PART')
);
#1720=UNCERTAINTY_MEASURE_WITH_UNIT(LENGTH_MEASURE(5.E-6),#1723,
'DISTANCE_ACCURACY_VALUE','Maximum Tolerance applied to model');
#1721=(
NAMED_UNIT(*)
SI_UNIT($,.STERADIAN.)
SOLID_ANGLE_UNIT()
);
#1722=(
NAMED_UNIT(*)
PLANE_ANGLE_UNIT()
SI_UNIT($,.RADIAN.)
);
#1723=(
LENGTH_UNIT()
NAMED_UNIT(*)
SI_UNIT($,.METRE.)
);
#1724=PRODUCT_DEFINITION_SHAPE('','',#1725);
#1725=PRODUCT_DEFINITION('','',#1727,#1726);
#1726=PRODUCT_DEFINITION_CONTEXT('',#1733,'design');
#1727=PRODUCT_DEFINITION_FORMATION_WITH_SPECIFIED_SOURCE('','',#1729,
 .NOT_KNOWN.);
#1728=PRODUCT_RELATED_PRODUCT_CATEGORY('','',(#1729));
#1729=PRODUCT('ER32 Collet Nut','ER32 Collet Nut','ER32 Collet Nut',(#1731));
#1730=PRODUCT_CATEGORY('','');
#1731=PRODUCT_CONTEXT('',#1733,'mechanical');
#1732=APPLICATION_PROTOCOL_DEFINITION('international standard',
'automotive_design',2010,#1733);
#1733=APPLICATION_CONTEXT(
'core data for automotive mechanical design processes');
ENDSEC;
END-ISO-10303-21;
