ISO-10303-21;
HEADER;
/* Generated by software containing ST-Developer
 * from STEP Tools, Inc. (www.steptools.com) 
 */
/* OPTION: using custom renumber hook */

FILE_DESCRIPTION(
/* description */ ('STEP AP242 Edition 2',
'CAx-IF Rec.Pracs.---Representation and Presentation of Product Manufa
cturing Information (PMI)---4.0---2014-10-13',
'CAx-IF Rec.Pracs.---3D Tessellated Geometry---0.4---2014-09-14','2;1',
'CAx-IF Rec.Pracs.---User Defined Attributes---1.5---2016-08-15'),
/* implementation_level */ '2;1');

FILE_NAME(
/* name */ 'Part Studio 1 - spring_arm_r',
/* time_stamp */ '2026-04-19T16:25:01Z',
/* author */ (''),
/* organization */ (''),
/* preprocessor_version */ 'ST-DEVELOPER v20',
/* originating_system */ 'ONSHAPE BY PTC INC, 1.213',
/* authorisation */ '  ');

FILE_SCHEMA (('AP242_MANAGED_MODEL_BASED_3D_ENGINEERING_MIM_LF { 1 0 10303 442 3 1 4 }'));
ENDSEC;

DATA;
#10=SHAPE_REPRESENTATION_RELATIONSHIP('','',#477,#11);
#11=ADVANCED_BREP_SHAPE_REPRESENTATION('',(#475),#759);
#12=CYLINDRICAL_SURFACE('',#489,0.0015);
#13=CYLINDRICAL_SURFACE('',#507,0.0017);
#14=CYLINDRICAL_SURFACE('',#508,0.001);
#15=CIRCLE('',#481,0.0015);
#16=CIRCLE('',#490,0.0015);
#17=CIRCLE('',#493,0.001);
#18=CIRCLE('',#496,0.0017);
#19=CIRCLE('',#498,0.0017);
#20=CIRCLE('',#509,0.001);
#21=ORIENTED_EDGE('',*,*,#141,.F.);
#22=ORIENTED_EDGE('',*,*,#142,.T.);
#23=ORIENTED_EDGE('',*,*,#143,.F.);
#24=ORIENTED_EDGE('',*,*,#144,.F.);
#25=ORIENTED_EDGE('',*,*,#145,.T.);
#26=ORIENTED_EDGE('',*,*,#146,.F.);
#27=ORIENTED_EDGE('',*,*,#147,.T.);
#28=ORIENTED_EDGE('',*,*,#148,.T.);
#29=ORIENTED_EDGE('',*,*,#149,.F.);
#30=ORIENTED_EDGE('',*,*,#150,.F.);
#31=ORIENTED_EDGE('',*,*,#151,.F.);
#32=ORIENTED_EDGE('',*,*,#152,.F.);
#33=ORIENTED_EDGE('',*,*,#153,.T.);
#34=ORIENTED_EDGE('',*,*,#154,.F.);
#35=ORIENTED_EDGE('',*,*,#155,.F.);
#36=ORIENTED_EDGE('',*,*,#156,.F.);
#37=ORIENTED_EDGE('',*,*,#157,.F.);
#38=ORIENTED_EDGE('',*,*,#154,.T.);
#39=ORIENTED_EDGE('',*,*,#158,.F.);
#40=ORIENTED_EDGE('',*,*,#159,.F.);
#41=ORIENTED_EDGE('',*,*,#160,.T.);
#42=ORIENTED_EDGE('',*,*,#152,.T.);
#43=ORIENTED_EDGE('',*,*,#161,.F.);
#44=ORIENTED_EDGE('',*,*,#162,.F.);
#45=ORIENTED_EDGE('',*,*,#158,.T.);
#46=ORIENTED_EDGE('',*,*,#163,.F.);
#47=ORIENTED_EDGE('',*,*,#141,.T.);
#48=ORIENTED_EDGE('',*,*,#164,.F.);
#49=ORIENTED_EDGE('',*,*,#165,.T.);
#50=ORIENTED_EDGE('',*,*,#166,.T.);
#51=ORIENTED_EDGE('',*,*,#167,.F.);
#52=ORIENTED_EDGE('',*,*,#168,.F.);
#53=ORIENTED_EDGE('',*,*,#161,.T.);
#54=ORIENTED_EDGE('',*,*,#151,.T.);
#55=ORIENTED_EDGE('',*,*,#143,.T.);
#56=ORIENTED_EDGE('',*,*,#169,.T.);
#57=ORIENTED_EDGE('',*,*,#170,.F.);
#58=ORIENTED_EDGE('',*,*,#171,.F.);
#59=ORIENTED_EDGE('',*,*,#167,.T.);
#60=ORIENTED_EDGE('',*,*,#150,.T.);
#61=ORIENTED_EDGE('',*,*,#172,.F.);
#62=ORIENTED_EDGE('',*,*,#173,.T.);
#63=ORIENTED_EDGE('',*,*,#174,.T.);
#64=ORIENTED_EDGE('',*,*,#156,.T.);
#65=ORIENTED_EDGE('',*,*,#175,.F.);
#66=ORIENTED_EDGE('',*,*,#176,.F.);
#67=ORIENTED_EDGE('',*,*,#170,.T.);
#68=ORIENTED_EDGE('',*,*,#155,.T.);
#69=ORIENTED_EDGE('',*,*,#160,.F.);
#70=ORIENTED_EDGE('',*,*,#177,.F.);
#71=ORIENTED_EDGE('',*,*,#175,.T.);
#72=ORIENTED_EDGE('',*,*,#178,.T.);
#73=ORIENTED_EDGE('',*,*,#153,.F.);
#74=ORIENTED_EDGE('',*,*,#159,.T.);
#75=ORIENTED_EDGE('',*,*,#162,.T.);
#76=ORIENTED_EDGE('',*,*,#168,.T.);
#77=ORIENTED_EDGE('',*,*,#171,.T.);
#78=ORIENTED_EDGE('',*,*,#176,.T.);
#79=ORIENTED_EDGE('',*,*,#177,.T.);
#80=ORIENTED_EDGE('',*,*,#178,.F.);
#81=ORIENTED_EDGE('',*,*,#179,.T.);
#82=ORIENTED_EDGE('',*,*,#180,.T.);
#83=ORIENTED_EDGE('',*,*,#181,.F.);
#84=ORIENTED_EDGE('',*,*,#148,.F.);
#85=ORIENTED_EDGE('',*,*,#182,.T.);
#86=ORIENTED_EDGE('',*,*,#183,.F.);
#87=ORIENTED_EDGE('',*,*,#182,.F.);
#88=ORIENTED_EDGE('',*,*,#184,.F.);
#89=ORIENTED_EDGE('',*,*,#185,.T.);
#90=ORIENTED_EDGE('',*,*,#186,.T.);
#91=ORIENTED_EDGE('',*,*,#187,.T.);
#92=ORIENTED_EDGE('',*,*,#188,.T.);
#93=ORIENTED_EDGE('',*,*,#189,.T.);
#94=ORIENTED_EDGE('',*,*,#187,.F.);
#95=ORIENTED_EDGE('',*,*,#145,.F.);
#96=ORIENTED_EDGE('',*,*,#190,.T.);
#97=ORIENTED_EDGE('',*,*,#191,.F.);
#98=ORIENTED_EDGE('',*,*,#157,.T.);
#99=ORIENTED_EDGE('',*,*,#169,.F.);
#100=ORIENTED_EDGE('',*,*,#142,.F.);
#101=ORIENTED_EDGE('',*,*,#163,.T.);
#102=ORIENTED_EDGE('',*,*,#192,.T.);
#103=ORIENTED_EDGE('',*,*,#190,.F.);
#104=ORIENTED_EDGE('',*,*,#193,.F.);
#105=ORIENTED_EDGE('',*,*,#194,.F.);
#106=ORIENTED_EDGE('',*,*,#195,.T.);
#107=ORIENTED_EDGE('',*,*,#181,.T.);
#108=ORIENTED_EDGE('',*,*,#183,.T.);
#109=ORIENTED_EDGE('',*,*,#189,.F.);
#110=ORIENTED_EDGE('',*,*,#192,.F.);
#111=ORIENTED_EDGE('',*,*,#180,.F.);
#112=ORIENTED_EDGE('',*,*,#149,.T.);
#113=ORIENTED_EDGE('',*,*,#195,.F.);
#114=ORIENTED_EDGE('',*,*,#196,.T.);
#115=ORIENTED_EDGE('',*,*,#172,.T.);
#116=ORIENTED_EDGE('',*,*,#144,.T.);
#117=ORIENTED_EDGE('',*,*,#174,.F.);
#118=ORIENTED_EDGE('',*,*,#197,.T.);
#119=ORIENTED_EDGE('',*,*,#193,.T.);
#120=ORIENTED_EDGE('',*,*,#196,.F.);
#121=ORIENTED_EDGE('',*,*,#194,.T.);
#122=ORIENTED_EDGE('',*,*,#197,.F.);
#123=ORIENTED_EDGE('',*,*,#173,.F.);
#124=ORIENTED_EDGE('',*,*,#146,.T.);
#125=ORIENTED_EDGE('',*,*,#186,.F.);
#126=ORIENTED_EDGE('',*,*,#198,.T.);
#127=ORIENTED_EDGE('',*,*,#164,.T.);
#128=ORIENTED_EDGE('',*,*,#166,.F.);
#129=ORIENTED_EDGE('',*,*,#199,.F.);
#130=ORIENTED_EDGE('',*,*,#184,.T.);
#131=ORIENTED_EDGE('',*,*,#147,.F.);
#132=ORIENTED_EDGE('',*,*,#198,.F.);
#133=ORIENTED_EDGE('',*,*,#185,.F.);
#134=ORIENTED_EDGE('',*,*,#199,.T.);
#135=ORIENTED_EDGE('',*,*,#165,.F.);
#136=ORIENTED_EDGE('',*,*,#191,.T.);
#137=ORIENTED_EDGE('',*,*,#188,.F.);
#138=ORIENTED_EDGE('',*,*,#200,.T.);
#139=ORIENTED_EDGE('',*,*,#179,.F.);
#140=ORIENTED_EDGE('',*,*,#200,.F.);
#141=EDGE_CURVE('',#201,#202,#241,.T.);
#142=EDGE_CURVE('',#201,#203,#242,.T.);
#143=EDGE_CURVE('',#204,#203,#243,.T.);
#144=EDGE_CURVE('',#205,#204,#244,.T.);
#145=EDGE_CURVE('',#205,#206,#245,.T.);
#146=EDGE_CURVE('',#202,#206,#246,.T.);
#147=EDGE_CURVE('',#207,#208,#247,.T.);
#148=EDGE_CURVE('',#208,#209,#248,.T.);
#149=EDGE_CURVE('',#210,#209,#249,.T.);
#150=EDGE_CURVE('',#211,#210,#250,.T.);
#151=EDGE_CURVE('',#212,#211,#251,.T.);
#152=EDGE_CURVE('',#207,#212,#252,.T.);
#153=EDGE_CURVE('',#213,#213,#15,.T.);
#154=EDGE_CURVE('',#214,#215,#253,.T.);
#155=EDGE_CURVE('',#216,#214,#254,.T.);
#156=EDGE_CURVE('',#217,#216,#255,.T.);
#157=EDGE_CURVE('',#215,#217,#256,.T.);
#158=EDGE_CURVE('',#218,#215,#257,.T.);
#159=EDGE_CURVE('',#219,#218,#258,.T.);
#160=EDGE_CURVE('',#219,#214,#259,.T.);
#161=EDGE_CURVE('',#220,#212,#260,.T.);
#162=EDGE_CURVE('',#218,#220,#261,.T.);
#163=EDGE_CURVE('',#201,#215,#262,.T.);
#164=EDGE_CURVE('',#221,#202,#263,.T.);
#165=EDGE_CURVE('',#221,#222,#264,.T.);
#166=EDGE_CURVE('',#222,#207,#265,.T.);
#167=EDGE_CURVE('',#223,#211,#266,.T.);
#168=EDGE_CURVE('',#220,#223,#267,.T.);
#169=EDGE_CURVE('',#203,#217,#268,.T.);
#170=EDGE_CURVE('',#224,#217,#269,.T.);
#171=EDGE_CURVE('',#223,#224,#270,.T.);
#172=EDGE_CURVE('',#225,#210,#271,.T.);
#173=EDGE_CURVE('',#225,#226,#272,.T.);
#174=EDGE_CURVE('',#226,#204,#273,.T.);
#175=EDGE_CURVE('',#227,#216,#274,.T.);
#176=EDGE_CURVE('',#224,#227,#275,.T.);
#177=EDGE_CURVE('',#227,#219,#276,.T.);
#178=EDGE_CURVE('',#228,#228,#16,.T.);
#179=EDGE_CURVE('',#229,#229,#17,.T.);
#180=EDGE_CURVE('',#230,#231,#277,.T.);
#181=EDGE_CURVE('',#209,#231,#278,.T.);
#182=EDGE_CURVE('',#208,#230,#279,.T.);
#183=EDGE_CURVE('',#230,#232,#280,.T.);
#184=EDGE_CURVE('',#233,#208,#281,.T.);
#185=EDGE_CURVE('',#233,#234,#282,.T.);
#186=EDGE_CURVE('',#234,#206,#283,.T.);
#187=EDGE_CURVE('',#206,#232,#284,.T.);
#188=EDGE_CURVE('',#235,#235,#18,.T.);
#189=EDGE_CURVE('',#236,#232,#285,.T.);
#190=EDGE_CURVE('',#205,#236,#286,.T.);
#191=EDGE_CURVE('',#237,#237,#19,.T.);
#192=EDGE_CURVE('',#231,#236,#287,.T.);
#193=EDGE_CURVE('',#238,#205,#288,.T.);
#194=EDGE_CURVE('',#239,#238,#289,.T.);
#195=EDGE_CURVE('',#239,#209,#290,.T.);
#196=EDGE_CURVE('',#239,#225,#291,.T.);
#197=EDGE_CURVE('',#226,#238,#292,.T.);
#198=EDGE_CURVE('',#234,#221,#293,.T.);
#199=EDGE_CURVE('',#233,#222,#294,.T.);
#200=EDGE_CURVE('',#240,#240,#20,.T.);
#201=VERTEX_POINT('',#634);
#202=VERTEX_POINT('',#635);
#203=VERTEX_POINT('',#637);
#204=VERTEX_POINT('',#639);
#205=VERTEX_POINT('',#641);
#206=VERTEX_POINT('',#643);
#207=VERTEX_POINT('',#647);
#208=VERTEX_POINT('',#648);
#209=VERTEX_POINT('',#650);
#210=VERTEX_POINT('',#652);
#211=VERTEX_POINT('',#654);
#212=VERTEX_POINT('',#656);
#213=VERTEX_POINT('',#659);
#214=VERTEX_POINT('',#662);
#215=VERTEX_POINT('',#663);
#216=VERTEX_POINT('',#665);
#217=VERTEX_POINT('',#667);
#218=VERTEX_POINT('',#671);
#219=VERTEX_POINT('',#673);
#220=VERTEX_POINT('',#677);
#221=VERTEX_POINT('',#681);
#222=VERTEX_POINT('',#683);
#223=VERTEX_POINT('',#687);
#224=VERTEX_POINT('',#692);
#225=VERTEX_POINT('',#695);
#226=VERTEX_POINT('',#697);
#227=VERTEX_POINT('',#701);
#228=VERTEX_POINT('',#707);
#229=VERTEX_POINT('',#711);
#230=VERTEX_POINT('',#713);
#231=VERTEX_POINT('',#714);
#232=VERTEX_POINT('',#719);
#233=VERTEX_POINT('',#721);
#234=VERTEX_POINT('',#723);
#235=VERTEX_POINT('',#728);
#236=VERTEX_POINT('',#730);
#237=VERTEX_POINT('',#734);
#238=VERTEX_POINT('',#738);
#239=VERTEX_POINT('',#740);
#240=VERTEX_POINT('',#756);
#241=LINE('',#633,#295);
#242=LINE('',#636,#296);
#243=LINE('',#638,#297);
#244=LINE('',#640,#298);
#245=LINE('',#642,#299);
#246=LINE('',#644,#300);
#247=LINE('',#646,#301);
#248=LINE('',#649,#302);
#249=LINE('',#651,#303);
#250=LINE('',#653,#304);
#251=LINE('',#655,#305);
#252=LINE('',#657,#306);
#253=LINE('',#661,#307);
#254=LINE('',#664,#308);
#255=LINE('',#666,#309);
#256=LINE('',#668,#310);
#257=LINE('',#670,#311);
#258=LINE('',#672,#312);
#259=LINE('',#674,#313);
#260=LINE('',#676,#314);
#261=LINE('',#678,#315);
#262=LINE('',#679,#316);
#263=LINE('',#680,#317);
#264=LINE('',#682,#318);
#265=LINE('',#684,#319);
#266=LINE('',#686,#320);
#267=LINE('',#688,#321);
#268=LINE('',#690,#322);
#269=LINE('',#691,#323);
#270=LINE('',#693,#324);
#271=LINE('',#694,#325);
#272=LINE('',#696,#326);
#273=LINE('',#698,#327);
#274=LINE('',#700,#328);
#275=LINE('',#702,#329);
#276=LINE('',#704,#330);
#277=LINE('',#712,#331);
#278=LINE('',#715,#332);
#279=LINE('',#716,#333);
#280=LINE('',#718,#334);
#281=LINE('',#720,#335);
#282=LINE('',#722,#336);
#283=LINE('',#724,#337);
#284=LINE('',#725,#338);
#285=LINE('',#729,#339);
#286=LINE('',#731,#340);
#287=LINE('',#736,#341);
#288=LINE('',#737,#342);
#289=LINE('',#739,#343);
#290=LINE('',#741,#344);
#291=LINE('',#744,#345);
#292=LINE('',#746,#346);
#293=LINE('',#749,#347);
#294=LINE('',#751,#348);
#295=VECTOR('',#515,1.);
#296=VECTOR('',#516,1.);
#297=VECTOR('',#517,1.);
#298=VECTOR('',#518,1.);
#299=VECTOR('',#519,1.);
#300=VECTOR('',#520,1.);
#301=VECTOR('',#523,1.);
#302=VECTOR('',#524,1.);
#303=VECTOR('',#525,1.);
#304=VECTOR('',#526,1.);
#305=VECTOR('',#527,1.);
#306=VECTOR('',#528,1.);
#307=VECTOR('',#533,1.);
#308=VECTOR('',#534,1.);
#309=VECTOR('',#535,1.);
#310=VECTOR('',#536,1.);
#311=VECTOR('',#539,1.);
#312=VECTOR('',#540,1.);
#313=VECTOR('',#541,1.);
#314=VECTOR('',#544,1.);
#315=VECTOR('',#545,1.);
#316=VECTOR('',#546,1.);
#317=VECTOR('',#547,1.);
#318=VECTOR('',#548,1.);
#319=VECTOR('',#549,1.);
#320=VECTOR('',#552,1.);
#321=VECTOR('',#553,1.);
#322=VECTOR('',#556,1.);
#323=VECTOR('',#557,1.);
#324=VECTOR('',#558,1.);
#325=VECTOR('',#559,1.);
#326=VECTOR('',#560,1.);
#327=VECTOR('',#561,1.);
#328=VECTOR('',#564,1.);
#329=VECTOR('',#565,1.);
#330=VECTOR('',#568,1.);
#331=VECTOR('',#579,1.);
#332=VECTOR('',#580,1.);
#333=VECTOR('',#581,1.);
#334=VECTOR('',#584,1.);
#335=VECTOR('',#585,1.);
#336=VECTOR('',#586,1.);
#337=VECTOR('',#587,1.);
#338=VECTOR('',#588,1.);
#339=VECTOR('',#593,1.);
#340=VECTOR('',#594,1.);
#341=VECTOR('',#601,1.);
#342=VECTOR('',#602,1.);
#343=VECTOR('',#603,1.);
#344=VECTOR('',#604,1.);
#345=VECTOR('',#609,1.);
#346=VECTOR('',#612,1.);
#347=VECTOR('',#617,1.);
#348=VECTOR('',#620,1.);
#349=EDGE_LOOP('',(#21,#22,#23,#24,#25,#26));
#350=EDGE_LOOP('',(#27,#28,#29,#30,#31,#32));
#351=EDGE_LOOP('',(#33));
#352=EDGE_LOOP('',(#34,#35,#36,#37));
#353=EDGE_LOOP('',(#38,#39,#40,#41));
#354=EDGE_LOOP('',(#42,#43,#44,#45,#46,#47,#48,#49,#50));
#355=EDGE_LOOP('',(#51,#52,#53,#54));
#356=EDGE_LOOP('',(#55,#56,#57,#58,#59,#60,#61,#62,#63));
#357=EDGE_LOOP('',(#64,#65,#66,#67));
#358=EDGE_LOOP('',(#68,#69,#70,#71));
#359=EDGE_LOOP('',(#72));
#360=EDGE_LOOP('',(#73));
#361=EDGE_LOOP('',(#74,#75,#76,#77,#78,#79));
#362=EDGE_LOOP('',(#80));
#363=EDGE_LOOP('',(#81));
#364=EDGE_LOOP('',(#82,#83,#84,#85));
#365=EDGE_LOOP('',(#86,#87,#88,#89,#90,#91));
#366=EDGE_LOOP('',(#92));
#367=EDGE_LOOP('',(#93,#94,#95,#96));
#368=EDGE_LOOP('',(#97));
#369=EDGE_LOOP('',(#98,#99,#100,#101));
#370=EDGE_LOOP('',(#102,#103,#104,#105,#106,#107));
#371=EDGE_LOOP('',(#108,#109,#110,#111));
#372=EDGE_LOOP('',(#112,#113,#114,#115));
#373=EDGE_LOOP('',(#116,#117,#118,#119));
#374=EDGE_LOOP('',(#120,#121,#122,#123));
#375=EDGE_LOOP('',(#124,#125,#126,#127));
#376=EDGE_LOOP('',(#128,#129,#130,#131));
#377=EDGE_LOOP('',(#132,#133,#134,#135));
#378=EDGE_LOOP('',(#136));
#379=EDGE_LOOP('',(#137));
#380=EDGE_LOOP('',(#138));
#381=EDGE_LOOP('',(#139));
#382=EDGE_LOOP('',(#140));
#383=FACE_BOUND('',#349,.T.);
#384=FACE_BOUND('',#350,.T.);
#385=FACE_BOUND('',#351,.T.);
#386=FACE_BOUND('',#352,.T.);
#387=FACE_BOUND('',#353,.T.);
#388=FACE_BOUND('',#354,.T.);
#389=FACE_BOUND('',#355,.T.);
#390=FACE_BOUND('',#356,.T.);
#391=FACE_BOUND('',#357,.T.);
#392=FACE_BOUND('',#358,.T.);
#393=FACE_BOUND('',#359,.T.);
#394=FACE_BOUND('',#360,.T.);
#395=FACE_BOUND('',#361,.T.);
#396=FACE_BOUND('',#362,.T.);
#397=FACE_BOUND('',#363,.T.);
#398=FACE_BOUND('',#364,.T.);
#399=FACE_BOUND('',#365,.T.);
#400=FACE_BOUND('',#366,.T.);
#401=FACE_BOUND('',#367,.T.);
#402=FACE_BOUND('',#368,.T.);
#403=FACE_BOUND('',#369,.T.);
#404=FACE_BOUND('',#370,.T.);
#405=FACE_BOUND('',#371,.T.);
#406=FACE_BOUND('',#372,.T.);
#407=FACE_BOUND('',#373,.T.);
#408=FACE_BOUND('',#374,.T.);
#409=FACE_BOUND('',#375,.T.);
#410=FACE_BOUND('',#376,.T.);
#411=FACE_BOUND('',#377,.T.);
#412=FACE_BOUND('',#378,.T.);
#413=FACE_BOUND('',#379,.T.);
#414=FACE_BOUND('',#380,.T.);
#415=FACE_BOUND('',#381,.T.);
#416=FACE_BOUND('',#382,.T.);
#417=PLANE('',#479);
#418=PLANE('',#480);
#419=PLANE('',#482);
#420=PLANE('',#483);
#421=PLANE('',#484);
#422=PLANE('',#485);
#423=PLANE('',#486);
#424=PLANE('',#487);
#425=PLANE('',#488);
#426=PLANE('',#491);
#427=PLANE('',#492);
#428=PLANE('',#494);
#429=PLANE('',#495);
#430=PLANE('',#497);
#431=PLANE('',#499);
#432=PLANE('',#500);
#433=PLANE('',#501);
#434=PLANE('',#502);
#435=PLANE('',#503);
#436=PLANE('',#504);
#437=PLANE('',#505);
#438=PLANE('',#506);
#439=PLANE('',#510);
#440=ADVANCED_FACE('',(#383),#417,.T.);
#441=ADVANCED_FACE('',(#384,#385),#418,.T.);
#442=ADVANCED_FACE('',(#386),#419,.T.);
#443=ADVANCED_FACE('',(#387),#420,.T.);
#444=ADVANCED_FACE('',(#388),#421,.T.);
#445=ADVANCED_FACE('',(#389),#422,.T.);
#446=ADVANCED_FACE('',(#390),#423,.T.);
#447=ADVANCED_FACE('',(#391),#424,.T.);
#448=ADVANCED_FACE('',(#392),#425,.T.);
#449=ADVANCED_FACE('',(#393,#394),#12,.F.);
#450=ADVANCED_FACE('',(#395,#396),#426,.F.);
#451=ADVANCED_FACE('',(#397,#398),#427,.T.);
#452=ADVANCED_FACE('',(#399),#428,.F.);
#453=ADVANCED_FACE('',(#400,#401),#429,.T.);
#454=ADVANCED_FACE('',(#402,#403),#430,.T.);
#455=ADVANCED_FACE('',(#404),#431,.T.);
#456=ADVANCED_FACE('',(#405),#432,.T.);
#457=ADVANCED_FACE('',(#406),#433,.F.);
#458=ADVANCED_FACE('',(#407),#434,.F.);
#459=ADVANCED_FACE('',(#408),#435,.T.);
#460=ADVANCED_FACE('',(#409),#436,.F.);
#461=ADVANCED_FACE('',(#410),#437,.T.);
#462=ADVANCED_FACE('',(#411),#438,.T.);
#463=ADVANCED_FACE('',(#412,#413),#13,.F.);
#464=ADVANCED_FACE('',(#414,#415),#14,.T.);
#465=ADVANCED_FACE('',(#416),#439,.T.);
#466=CLOSED_SHELL('',(#440,#441,#442,#443,#444,#445,#446,#447,#448,#449,
#450,#451,#452,#453,#454,#455,#456,#457,#458,#459,#460,#461,#462,#463,#464,
#465));
#467=STYLED_ITEM('',(#468),#475);
#468=PRESENTATION_STYLE_ASSIGNMENT((#469));
#469=SURFACE_STYLE_USAGE(.BOTH.,#470);
#470=SURFACE_SIDE_STYLE('',(#471));
#471=SURFACE_STYLE_FILL_AREA(#472);
#472=FILL_AREA_STYLE('',(#473));
#473=FILL_AREA_STYLE_COLOUR('',#474);
#474=COLOUR_RGB('',0.972549019607843,0.529411764705882,0.00392156862745098);
#475=MANIFOLD_SOLID_BREP('spring_arm_r',#466);
#476=SHAPE_DEFINITION_REPRESENTATION(#764,#477);
#477=SHAPE_REPRESENTATION('spring_arm_r',(#478),#759);
#478=AXIS2_PLACEMENT_3D('',#631,#511,#512);
#479=AXIS2_PLACEMENT_3D('',#632,#513,#514);
#480=AXIS2_PLACEMENT_3D('',#645,#521,#522);
#481=AXIS2_PLACEMENT_3D('',#658,#529,#530);
#482=AXIS2_PLACEMENT_3D('',#660,#531,#532);
#483=AXIS2_PLACEMENT_3D('',#669,#537,#538);
#484=AXIS2_PLACEMENT_3D('',#675,#542,#543);
#485=AXIS2_PLACEMENT_3D('',#685,#550,#551);
#486=AXIS2_PLACEMENT_3D('',#689,#554,#555);
#487=AXIS2_PLACEMENT_3D('',#699,#562,#563);
#488=AXIS2_PLACEMENT_3D('',#703,#566,#567);
#489=AXIS2_PLACEMENT_3D('',#705,#569,#570);
#490=AXIS2_PLACEMENT_3D('',#706,#571,#572);
#491=AXIS2_PLACEMENT_3D('',#708,#573,#574);
#492=AXIS2_PLACEMENT_3D('',#709,#575,#576);
#493=AXIS2_PLACEMENT_3D('',#710,#577,#578);
#494=AXIS2_PLACEMENT_3D('',#717,#582,#583);
#495=AXIS2_PLACEMENT_3D('',#726,#589,#590);
#496=AXIS2_PLACEMENT_3D('',#727,#591,#592);
#497=AXIS2_PLACEMENT_3D('',#732,#595,#596);
#498=AXIS2_PLACEMENT_3D('',#733,#597,#598);
#499=AXIS2_PLACEMENT_3D('',#735,#599,#600);
#500=AXIS2_PLACEMENT_3D('',#742,#605,#606);
#501=AXIS2_PLACEMENT_3D('',#743,#607,#608);
#502=AXIS2_PLACEMENT_3D('',#745,#610,#611);
#503=AXIS2_PLACEMENT_3D('',#747,#613,#614);
#504=AXIS2_PLACEMENT_3D('',#748,#615,#616);
#505=AXIS2_PLACEMENT_3D('',#750,#618,#619);
#506=AXIS2_PLACEMENT_3D('',#752,#621,#622);
#507=AXIS2_PLACEMENT_3D('',#753,#623,#624);
#508=AXIS2_PLACEMENT_3D('',#754,#625,#626);
#509=AXIS2_PLACEMENT_3D('',#755,#627,#628);
#510=AXIS2_PLACEMENT_3D('',#757,#629,#630);
#511=DIRECTION('',(0.,0.,1.));
#512=DIRECTION('',(1.,0.,0.));
#513=DIRECTION('',(0.,0.,1.));
#514=DIRECTION('',(-1.,0.,0.));
#515=DIRECTION('',(1.,0.,0.));
#516=DIRECTION('',(0.,-1.,0.));
#517=DIRECTION('',(-1.,0.,0.));
#518=DIRECTION('',(0.,-1.,0.));
#519=DIRECTION('',(0.,1.,0.));
#520=DIRECTION('',(0.,-1.,0.));
#521=DIRECTION('',(0.,0.,1.));
#522=DIRECTION('',(-1.,0.,0.));
#523=DIRECTION('',(0.,-1.,0.));
#524=DIRECTION('',(0.,-1.,0.));
#525=DIRECTION('',(0.,1.,0.));
#526=DIRECTION('',(-1.,0.,0.));
#527=DIRECTION('',(0.,-1.,0.));
#528=DIRECTION('',(1.,0.,0.));
#529=DIRECTION('',(0.,0.,-1.));
#530=DIRECTION('',(-1.,0.,0.));
#531=DIRECTION('',(0.,0.,1.));
#532=DIRECTION('',(-1.,0.,0.));
#533=DIRECTION('',(0.707106781186548,-0.707106781186548,0.));
#534=DIRECTION('',(0.,1.,0.));
#535=DIRECTION('',(-0.707106781186548,-0.707106781186548,0.));
#536=DIRECTION('',(0.,-1.,0.));
#537=DIRECTION('',(0.707106781186548,0.707106781186548,0.));
#538=DIRECTION('',(0.707106781186548,-0.707106781186548,0.));
#539=DIRECTION('',(0.,0.,1.));
#540=DIRECTION('',(0.707106781186548,-0.707106781186548,0.));
#541=DIRECTION('',(0.,0.,1.));
#542=DIRECTION('',(3.46944695195361E-15,1.,0.));
#543=DIRECTION('',(1.,-3.46944695195361E-15,0.));
#544=DIRECTION('',(0.,0.,1.));
#545=DIRECTION('',(1.,-3.46944695195361E-15,0.));
#546=DIRECTION('',(0.,0.,-1.));
#547=DIRECTION('',(0.,0.,-1.));
#548=DIRECTION('',(1.,-2.77555756156289E-16,0.));
#549=DIRECTION('',(0.,0.,-1.));
#550=DIRECTION('',(1.,0.,0.));
#551=DIRECTION('',(0.,0.,1.));
#552=DIRECTION('',(0.,0.,1.));
#553=DIRECTION('',(0.,-1.,0.));
#554=DIRECTION('',(0.,-1.,0.));
#555=DIRECTION('',(0.,0.,-1.));
#556=DIRECTION('',(0.,0.,-1.));
#557=DIRECTION('',(0.,0.,1.));
#558=DIRECTION('',(-1.,0.,0.));
#559=DIRECTION('',(0.,0.,-1.));
#560=DIRECTION('',(-1.,2.77555756156289E-16,0.));
#561=DIRECTION('',(0.,0.,-1.));
#562=DIRECTION('',(0.707106781186548,-0.707106781186548,0.));
#563=DIRECTION('',(-0.707106781186548,-0.707106781186548,0.));
#564=DIRECTION('',(0.,0.,1.));
#565=DIRECTION('',(-0.707106781186548,-0.707106781186548,0.));
#566=DIRECTION('',(-1.,0.,0.));
#567=DIRECTION('',(0.,0.,-1.));
#568=DIRECTION('',(0.,1.,0.));
#569=DIRECTION('',(0.,0.,1.));
#570=DIRECTION('',(-1.,0.,0.));
#571=DIRECTION('',(0.,0.,-1.));
#572=DIRECTION('',(-1.,0.,0.));
#573=DIRECTION('',(0.,0.,1.));
#574=DIRECTION('',(-1.,0.,0.));
#575=DIRECTION('',(-1.,0.,0.));
#576=DIRECTION('',(0.,0.,-1.));
#577=DIRECTION('',(1.,0.,0.));
#578=DIRECTION('',(0.,0.,-1.));
#579=DIRECTION('',(0.,-1.,0.));
#580=DIRECTION('',(0.,0.,-1.));
#581=DIRECTION('',(0.,0.,-1.));
#582=DIRECTION('',(2.7755575615629E-16,1.,0.));
#583=DIRECTION('',(1.,-2.7755575615629E-16,0.));
#584=DIRECTION('',(-1.,2.7755575615629E-16,0.));
#585=DIRECTION('',(0.,0.,-1.));
#586=DIRECTION('',(-1.,2.7755575615629E-16,0.));
#587=DIRECTION('',(0.,0.,-1.));
#588=DIRECTION('',(0.,0.,-1.));
#589=DIRECTION('',(1.,0.,0.));
#590=DIRECTION('',(0.,0.,1.));
#591=DIRECTION('',(-1.,0.,0.));
#592=DIRECTION('',(0.,0.,1.));
#593=DIRECTION('',(0.,1.,0.));
#594=DIRECTION('',(0.,0.,-1.));
#595=DIRECTION('',(-1.,0.,0.));
#596=DIRECTION('',(0.,0.,-1.));
#597=DIRECTION('',(-1.,0.,0.));
#598=DIRECTION('',(0.,0.,1.));
#599=DIRECTION('',(2.77555756156288E-16,1.,0.));
#600=DIRECTION('',(1.,-2.77555756156288E-16,0.));
#601=DIRECTION('',(-1.,2.77555756156288E-16,0.));
#602=DIRECTION('',(0.,0.,-1.));
#603=DIRECTION('',(-1.,2.77555756156288E-16,0.));
#604=DIRECTION('',(0.,0.,-1.));
#605=DIRECTION('',(0.,0.,1.));
#606=DIRECTION('',(-1.,0.,0.));
#607=DIRECTION('',(-1.,0.,0.));
#608=DIRECTION('',(0.,0.,-1.));
#609=DIRECTION('',(0.,-1.,0.));
#610=DIRECTION('',(1.,0.,0.));
#611=DIRECTION('',(0.,0.,1.));
#612=DIRECTION('',(0.,1.,0.));
#613=DIRECTION('',(0.,0.,1.));
#614=DIRECTION('',(-1.,0.,0.));
#615=DIRECTION('',(1.,0.,0.));
#616=DIRECTION('',(0.,0.,1.));
#617=DIRECTION('',(0.,1.,0.));
#618=DIRECTION('',(1.,0.,0.));
#619=DIRECTION('',(0.,0.,1.));
#620=DIRECTION('',(0.,1.,0.));
#621=DIRECTION('',(0.,0.,1.));
#622=DIRECTION('',(-1.,0.,0.));
#623=DIRECTION('',(1.,0.,0.));
#624=DIRECTION('',(0.,0.,1.));
#625=DIRECTION('',(1.,0.,0.));
#626=DIRECTION('',(0.,0.,1.));
#627=DIRECTION('',(1.,0.,0.));
#628=DIRECTION('',(0.,0.,-1.));
#629=DIRECTION('',(-1.,0.,0.));
#630=DIRECTION('',(0.,1.,0.));
#631=CARTESIAN_POINT('',(0.,0.,0.));
#632=CARTESIAN_POINT('',(0.,0.0025,-0.011));
#633=CARTESIAN_POINT('',(0.0835,0.0325,-0.011));
#634=CARTESIAN_POINT('',(0.0535,0.0325,-0.011));
#635=CARTESIAN_POINT('',(0.0555,0.0325,-0.011));
#636=CARTESIAN_POINT('',(0.0535,0.0285,-0.011));
#637=CARTESIAN_POINT('',(0.0535,0.0245,-0.011));
#638=CARTESIAN_POINT('',(0.0835,0.0245,-0.011));
#639=CARTESIAN_POINT('',(0.0555,0.0245,-0.011));
#640=CARTESIAN_POINT('',(0.0555,0.0025,-0.011));
#641=CARTESIAN_POINT('',(0.0555,0.026,-0.011));
#642=CARTESIAN_POINT('',(0.0555,0.0025,-0.011));
#643=CARTESIAN_POINT('',(0.0555,0.031,-0.011));
#644=CARTESIAN_POINT('',(0.0555,0.0025,-0.011));
#645=CARTESIAN_POINT('',(0.,0.0025,-0.011));
#646=CARTESIAN_POINT('',(0.0805,0.0025,-0.011));
#647=CARTESIAN_POINT('',(0.0805,0.0325,-0.011));
#648=CARTESIAN_POINT('',(0.0805,0.031,-0.011));
#649=CARTESIAN_POINT('',(0.0805,0.0285,-0.011));
#650=CARTESIAN_POINT('',(0.0805,0.026,-0.011));
#651=CARTESIAN_POINT('',(0.0805,0.0025,-0.011));
#652=CARTESIAN_POINT('',(0.0805,0.0245,-0.011));
#653=CARTESIAN_POINT('',(0.0835,0.0245,-0.011));
#654=CARTESIAN_POINT('',(0.0865,0.0245,-0.011));
#655=CARTESIAN_POINT('',(0.0865,0.0285,-0.011));
#656=CARTESIAN_POINT('',(0.0865,0.0325,-0.011));
#657=CARTESIAN_POINT('',(0.0835,0.0325,-0.011));
#658=CARTESIAN_POINT('',(0.0835,0.029,-0.011));
#659=CARTESIAN_POINT('',(0.082,0.029,-0.011));
#660=CARTESIAN_POINT('',(0.,0.0025,-0.016));
#661=CARTESIAN_POINT('',(0.051,0.035,-0.016));
#662=CARTESIAN_POINT('',(0.0485,0.0375,-0.016));
#663=CARTESIAN_POINT('',(0.0535,0.0325,-0.016));
#664=CARTESIAN_POINT('',(0.0485,0.0285,-0.016));
#665=CARTESIAN_POINT('',(0.0485,0.0195,-0.016));
#666=CARTESIAN_POINT('',(0.051,0.022,-0.016));
#667=CARTESIAN_POINT('',(0.0535,0.0245,-0.016));
#668=CARTESIAN_POINT('',(0.0535,0.0285,-0.016));
#669=CARTESIAN_POINT('',(0.051,0.035,-0.021));
#670=CARTESIAN_POINT('',(0.0535,0.0325,-0.021));
#671=CARTESIAN_POINT('',(0.0535,0.0325,-0.021));
#672=CARTESIAN_POINT('',(0.051,0.035,-0.021));
#673=CARTESIAN_POINT('',(0.0485,0.0375,-0.021));
#674=CARTESIAN_POINT('',(0.0485,0.0375,-0.021));
#675=CARTESIAN_POINT('',(0.0545,0.0325,-0.021));
#676=CARTESIAN_POINT('',(0.0865,0.0325,-0.021));
#677=CARTESIAN_POINT('',(0.0865,0.0325,-0.021));
#678=CARTESIAN_POINT('',(0.0545,0.0325,-0.021));
#679=CARTESIAN_POINT('',(0.0535,0.0325,-0.011));
#680=CARTESIAN_POINT('',(0.0555,0.0325,-0.0091));
#681=CARTESIAN_POINT('',(0.0555,0.0325,-0.0091));
#682=CARTESIAN_POINT('',(0.068,0.0325,-0.0091));
#683=CARTESIAN_POINT('',(0.0805,0.0325,-0.0091));
#684=CARTESIAN_POINT('',(0.0805,0.0325,-0.0091));
#685=CARTESIAN_POINT('',(0.0865,0.0285,-0.021));
#686=CARTESIAN_POINT('',(0.0865,0.0245,-0.021));
#687=CARTESIAN_POINT('',(0.0865,0.0245,-0.021));
#688=CARTESIAN_POINT('',(0.0865,0.0285,-0.021));
#689=CARTESIAN_POINT('',(0.0545,0.0245,-0.021));
#690=CARTESIAN_POINT('',(0.0535,0.0245,-0.011));
#691=CARTESIAN_POINT('',(0.0535,0.0245,-0.021));
#692=CARTESIAN_POINT('',(0.0535,0.0245,-0.021));
#693=CARTESIAN_POINT('',(0.0545,0.0245,-0.021));
#694=CARTESIAN_POINT('',(0.0805,0.0245,-0.0091));
#695=CARTESIAN_POINT('',(0.0805,0.0245,-0.0091));
#696=CARTESIAN_POINT('',(0.068,0.0245,-0.0091));
#697=CARTESIAN_POINT('',(0.0555,0.0245,-0.0091));
#698=CARTESIAN_POINT('',(0.0555,0.0245,-0.0091));
#699=CARTESIAN_POINT('',(0.051,0.022,-0.021));
#700=CARTESIAN_POINT('',(0.0485,0.0195,-0.021));
#701=CARTESIAN_POINT('',(0.0485,0.0195,-0.021));
#702=CARTESIAN_POINT('',(0.051,0.022,-0.021));
#703=CARTESIAN_POINT('',(0.0485,0.0285,-0.021));
#704=CARTESIAN_POINT('',(0.0485,0.0285,-0.021));
#705=CARTESIAN_POINT('',(0.0835,0.029,-0.021));
#706=CARTESIAN_POINT('',(0.0835,0.029,-0.021));
#707=CARTESIAN_POINT('',(0.082,0.029,-0.021));
#708=CARTESIAN_POINT('',(0.,0.0025,-0.021));
#709=CARTESIAN_POINT('',(0.0805,0.0285,-0.011));
#710=CARTESIAN_POINT('',(0.0805,0.0285,-0.0135));
#711=CARTESIAN_POINT('',(0.0805,0.0285,-0.0145));
#712=CARTESIAN_POINT('',(0.0805,0.0285,-0.016));
#713=CARTESIAN_POINT('',(0.0805,0.031,-0.016));
#714=CARTESIAN_POINT('',(0.0805,0.026,-0.016));
#715=CARTESIAN_POINT('',(0.0805,0.026,-0.011));
#716=CARTESIAN_POINT('',(0.0805,0.031,-0.011));
#717=CARTESIAN_POINT('',(0.068,0.031,-0.011));
#718=CARTESIAN_POINT('',(0.068,0.031,-0.016));
#719=CARTESIAN_POINT('',(0.0555,0.031,-0.016));
#720=CARTESIAN_POINT('',(0.0805,0.031,-0.0091));
#721=CARTESIAN_POINT('',(0.0805,0.031,-0.0091));
#722=CARTESIAN_POINT('',(0.068,0.031,-0.0091));
#723=CARTESIAN_POINT('',(0.0555,0.031,-0.0091));
#724=CARTESIAN_POINT('',(0.0555,0.031,-0.0091));
#725=CARTESIAN_POINT('',(0.0555,0.031,-0.011));
#726=CARTESIAN_POINT('',(0.0555,0.0025,-0.011));
#727=CARTESIAN_POINT('',(0.0555,0.0285,-0.0135));
#728=CARTESIAN_POINT('',(0.0555,0.0285,-0.0118));
#729=CARTESIAN_POINT('',(0.0555,0.0025,-0.016));
#730=CARTESIAN_POINT('',(0.0555,0.026,-0.016));
#731=CARTESIAN_POINT('',(0.0555,0.026,-0.011));
#732=CARTESIAN_POINT('',(0.0535,0.0285,-0.011));
#733=CARTESIAN_POINT('',(0.0535,0.0285,-0.0135));
#734=CARTESIAN_POINT('',(0.0535,0.0285,-0.0118));
#735=CARTESIAN_POINT('',(0.068,0.026,-0.011));
#736=CARTESIAN_POINT('',(0.068,0.026,-0.016));
#737=CARTESIAN_POINT('',(0.0555,0.026,-0.0091));
#738=CARTESIAN_POINT('',(0.0555,0.026,-0.0091));
#739=CARTESIAN_POINT('',(0.068,0.026,-0.0091));
#740=CARTESIAN_POINT('',(0.0805,0.026,-0.0091));
#741=CARTESIAN_POINT('',(0.0805,0.026,-0.0091));
#742=CARTESIAN_POINT('',(0.,0.0025,-0.016));
#743=CARTESIAN_POINT('',(0.0805,0.02525,-0.0091));
#744=CARTESIAN_POINT('',(0.0805,0.02525,-0.0091));
#745=CARTESIAN_POINT('',(0.0555,0.0025,-0.0091));
#746=CARTESIAN_POINT('',(0.0555,0.0025,-0.0091));
#747=CARTESIAN_POINT('',(0.,0.0025,-0.0091));
#748=CARTESIAN_POINT('',(0.0555,0.0025,-0.0091));
#749=CARTESIAN_POINT('',(0.0555,0.0025,-0.0091));
#750=CARTESIAN_POINT('',(0.0805,0.03175,-0.0091));
#751=CARTESIAN_POINT('',(0.0805,0.03175,-0.0091));
#752=CARTESIAN_POINT('',(0.,0.0025,-0.0091));
#753=CARTESIAN_POINT('',(0.0535,0.0285,-0.0135));
#754=CARTESIAN_POINT('',(0.0775,0.0285,-0.0135));
#755=CARTESIAN_POINT('',(0.0775,0.0285,-0.0135));
#756=CARTESIAN_POINT('',(0.0775,0.0285,-0.0145));
#757=CARTESIAN_POINT('',(0.0775,0.0285,-0.0135));
#758=MECHANICAL_DESIGN_GEOMETRIC_PRESENTATION_REPRESENTATION('',(#467),
#759);
#759=(
GEOMETRIC_REPRESENTATION_CONTEXT(3)
GLOBAL_UNCERTAINTY_ASSIGNED_CONTEXT((#760))
GLOBAL_UNIT_ASSIGNED_CONTEXT((#763,#762,#761))
REPRESENTATION_CONTEXT('spring_arm_r','TOP_LEVEL_ASSEMBLY_PART')
);
#760=UNCERTAINTY_MEASURE_WITH_UNIT(LENGTH_MEASURE(1.E-8),#763,
'DISTANCE_ACCURACY_VALUE','Maximum Tolerance applied to model');
#761=(
NAMED_UNIT(*)
SI_UNIT($,.STERADIAN.)
SOLID_ANGLE_UNIT()
);
#762=(
NAMED_UNIT(*)
PLANE_ANGLE_UNIT()
SI_UNIT($,.RADIAN.)
);
#763=(
LENGTH_UNIT()
NAMED_UNIT(*)
SI_UNIT($,.METRE.)
);
#764=PRODUCT_DEFINITION_SHAPE('','',#765);
#765=PRODUCT_DEFINITION('','',#767,#766);
#766=PRODUCT_DEFINITION_CONTEXT('',#773,'design');
#767=PRODUCT_DEFINITION_FORMATION_WITH_SPECIFIED_SOURCE('','',#769,
 .NOT_KNOWN.);
#768=PRODUCT_RELATED_PRODUCT_CATEGORY('','',(#769));
#769=PRODUCT('spring_arm_r','spring_arm_r','spring_arm_r',(#771));
#770=PRODUCT_CATEGORY('','');
#771=PRODUCT_CONTEXT('',#773,'mechanical');
#772=APPLICATION_PROTOCOL_DEFINITION('international standard',
'ap242_managed_model_based_3d_engineering',2020,#773);
#773=APPLICATION_CONTEXT('managed model based 3d engineering');
ENDSEC;
END-ISO-10303-21;
