ISO-10303-21;
HEADER;
/* Generated by software containing ST-Developer
 * from STEP Tools, Inc. (www.steptools.com) 
 */
/* OPTION: using custom renumber hook */

FILE_DESCRIPTION(
/* description */ ('STEP AP242 Edition 2',
'CAx-IF Rec.Pracs.---Representation and Presentation of Product Manufa
cturing Information (PMI)---4.0---2014-10-13',
'CAx-IF Rec.Pracs.---3D Tessellated Geometry---0.4---2014-09-14','2;1',
'CAx-IF Rec.Pracs.---User Defined Attributes---1.5---2016-08-15'),
/* implementation_level */ '2;1');

FILE_NAME(
/* name */ 'Part Studio 1 - arm_right',
/* time_stamp */ '2026-04-19T16:25:01Z',
/* author */ (''),
/* organization */ (''),
/* preprocessor_version */ 'ST-DEVELOPER v20',
/* originating_system */ 'ONSHAPE BY PTC INC, 1.213',
/* authorisation */ '  ');

FILE_SCHEMA (('AP242_MANAGED_MODEL_BASED_3D_ENGINEERING_MIM_LF { 1 0 10303 442 3 1 4 }'));
ENDSEC;

DATA;
#10=SHAPE_REPRESENTATION_RELATIONSHIP('','',#168,#11);
#11=ADVANCED_BREP_SHAPE_REPRESENTATION('',(#166),#294);
#12=PLANE('',#187);
#13=PLANE('',#188);
#14=PLANE('',#192);
#15=PLANE('',#193);
#16=LINE('',#254,#21);
#17=LINE('',#258,#22);
#18=LINE('',#260,#23);
#19=LINE('',#265,#24);
#20=LINE('',#270,#25);
#21=VECTOR('',#200,1.);
#22=VECTOR('',#203,1.);
#23=VECTOR('',#206,1.);
#24=VECTOR('',#209,1.);
#25=VECTOR('',#216,1.);
#26=ORIENTED_EDGE('',*,*,#64,.F.);
#27=ORIENTED_EDGE('',*,*,#65,.F.);
#28=ORIENTED_EDGE('',*,*,#66,.T.);
#29=ORIENTED_EDGE('',*,*,#67,.T.);
#30=ORIENTED_EDGE('',*,*,#68,.T.);
#31=ORIENTED_EDGE('',*,*,#69,.T.);
#32=ORIENTED_EDGE('',*,*,#70,.T.);
#33=ORIENTED_EDGE('',*,*,#71,.T.);
#34=ORIENTED_EDGE('',*,*,#67,.F.);
#35=ORIENTED_EDGE('',*,*,#72,.F.);
#36=ORIENTED_EDGE('',*,*,#73,.T.);
#37=ORIENTED_EDGE('',*,*,#74,.T.);
#38=ORIENTED_EDGE('',*,*,#70,.F.);
#39=ORIENTED_EDGE('',*,*,#75,.F.);
#40=ORIENTED_EDGE('',*,*,#68,.F.);
#41=ORIENTED_EDGE('',*,*,#76,.T.);
#42=ORIENTED_EDGE('',*,*,#77,.F.);
#43=ORIENTED_EDGE('',*,*,#73,.F.);
#44=ORIENTED_EDGE('',*,*,#78,.T.);
#45=ORIENTED_EDGE('',*,*,#65,.T.);
#46=ORIENTED_EDGE('',*,*,#79,.F.);
#47=ORIENTED_EDGE('',*,*,#80,.T.);
#48=ORIENTED_EDGE('',*,*,#66,.F.);
#49=ORIENTED_EDGE('',*,*,#78,.F.);
#50=ORIENTED_EDGE('',*,*,#76,.F.);
#51=ORIENTED_EDGE('',*,*,#72,.T.);
#52=ORIENTED_EDGE('',*,*,#79,.T.);
#53=ORIENTED_EDGE('',*,*,#74,.F.);
#54=ORIENTED_EDGE('',*,*,#77,.T.);
#55=ORIENTED_EDGE('',*,*,#64,.T.);
#56=ORIENTED_EDGE('',*,*,#71,.F.);
#57=ORIENTED_EDGE('',*,*,#81,.F.);
#58=ORIENTED_EDGE('',*,*,#82,.F.);
#59=ORIENTED_EDGE('',*,*,#81,.T.);
#60=ORIENTED_EDGE('',*,*,#82,.T.);
#61=ORIENTED_EDGE('',*,*,#80,.F.);
#62=ORIENTED_EDGE('',*,*,#69,.F.);
#63=ORIENTED_EDGE('',*,*,#75,.T.);
#64=EDGE_CURVE('',#83,#84,#97,.T.);
#65=EDGE_CURVE('',#85,#83,#16,.T.);
#66=EDGE_CURVE('',#85,#86,#98,.T.);
#67=EDGE_CURVE('',#86,#84,#17,.T.);
#68=EDGE_CURVE('',#87,#88,#18,.T.);
#69=EDGE_CURVE('',#88,#89,#99,.T.);
#70=EDGE_CURVE('',#89,#90,#19,.T.);
#71=EDGE_CURVE('',#90,#84,#100,.T.);
#72=EDGE_CURVE('',#87,#86,#101,.T.);
#73=EDGE_CURVE('',#91,#92,#20,.T.);
#74=EDGE_CURVE('',#92,#90,#102,.T.);
#75=EDGE_CURVE('',#88,#89,#103,.T.);
#76=EDGE_CURVE('',#87,#91,#104,.T.);
#77=EDGE_CURVE('',#92,#83,#105,.T.);
#78=EDGE_CURVE('',#91,#85,#106,.T.);
#79=EDGE_CURVE('',#93,#93,#107,.T.);
#80=EDGE_CURVE('',#94,#94,#108,.T.);
#81=EDGE_CURVE('',#95,#95,#109,.T.);
#82=EDGE_CURVE('',#96,#96,#110,.T.);
#83=VERTEX_POINT('',#252);
#84=VERTEX_POINT('',#253);
#85=VERTEX_POINT('',#255);
#86=VERTEX_POINT('',#257);
#87=VERTEX_POINT('',#261);
#88=VERTEX_POINT('',#262);
#89=VERTEX_POINT('',#264);
#90=VERTEX_POINT('',#266);
#91=VERTEX_POINT('',#271);
#92=VERTEX_POINT('',#272);
#93=VERTEX_POINT('',#281);
#94=VERTEX_POINT('',#283);
#95=VERTEX_POINT('',#287);
#96=VERTEX_POINT('',#290);
#97=CIRCLE('',#171,0.005);
#98=CIRCLE('',#172,0.005);
#99=CIRCLE('',#174,0.110000000000024);
#100=CIRCLE('',#175,0.11);
#101=CIRCLE('',#176,0.11);
#102=CIRCLE('',#178,0.0075);
#103=CIRCLE('',#179,0.0075);
#104=CIRCLE('',#180,0.0075);
#105=CIRCLE('',#182,0.11);
#106=CIRCLE('',#183,0.11);
#107=CIRCLE('',#185,0.0022);
#108=CIRCLE('',#186,0.0022);
#109=CIRCLE('',#189,0.002);
#110=CIRCLE('',#191,0.002);
#111=EDGE_LOOP('',(#26,#27,#28,#29));
#112=EDGE_LOOP('',(#30,#31,#32,#33,#34,#35));
#113=EDGE_LOOP('',(#36,#37,#38,#39,#40,#41));
#114=EDGE_LOOP('',(#42,#43,#44,#45));
#115=EDGE_LOOP('',(#46));
#116=EDGE_LOOP('',(#47));
#117=EDGE_LOOP('',(#48,#49,#50,#51));
#118=EDGE_LOOP('',(#52));
#119=EDGE_LOOP('',(#53,#54,#55,#56));
#120=EDGE_LOOP('',(#57));
#121=EDGE_LOOP('',(#58));
#122=EDGE_LOOP('',(#59));
#123=EDGE_LOOP('',(#60));
#124=EDGE_LOOP('',(#61));
#125=EDGE_LOOP('',(#62,#63));
#126=FACE_BOUND('',#111,.T.);
#127=FACE_BOUND('',#112,.T.);
#128=FACE_BOUND('',#113,.T.);
#129=FACE_BOUND('',#114,.T.);
#130=FACE_BOUND('',#115,.T.);
#131=FACE_BOUND('',#116,.T.);
#132=FACE_BOUND('',#117,.T.);
#133=FACE_BOUND('',#118,.T.);
#134=FACE_BOUND('',#119,.T.);
#135=FACE_BOUND('',#120,.T.);
#136=FACE_BOUND('',#121,.T.);
#137=FACE_BOUND('',#122,.T.);
#138=FACE_BOUND('',#123,.T.);
#139=FACE_BOUND('',#124,.T.);
#140=FACE_BOUND('',#125,.T.);
#141=CYLINDRICAL_SURFACE('',#170,0.005);
#142=CYLINDRICAL_SURFACE('',#173,0.11);
#143=CYLINDRICAL_SURFACE('',#177,0.0075);
#144=CYLINDRICAL_SURFACE('',#181,0.11);
#145=CYLINDRICAL_SURFACE('',#184,0.0022);
#146=CYLINDRICAL_SURFACE('',#190,0.002);
#147=ADVANCED_FACE('',(#126),#141,.T.);
#148=ADVANCED_FACE('',(#127),#142,.F.);
#149=ADVANCED_FACE('',(#128),#143,.T.);
#150=ADVANCED_FACE('',(#129),#144,.T.);
#151=ADVANCED_FACE('',(#130,#131),#145,.F.);
#152=ADVANCED_FACE('',(#132,#133),#12,.F.);
#153=ADVANCED_FACE('',(#134,#135),#13,.T.);
#154=ADVANCED_FACE('',(#136,#137),#146,.T.);
#155=ADVANCED_FACE('',(#138),#14,.T.);
#156=ADVANCED_FACE('',(#139,#140),#15,.T.);
#157=CLOSED_SHELL('',(#147,#148,#149,#150,#151,#152,#153,#154,#155,#156));
#158=STYLED_ITEM('',(#159),#166);
#159=PRESENTATION_STYLE_ASSIGNMENT((#160));
#160=SURFACE_STYLE_USAGE(.BOTH.,#161);
#161=SURFACE_SIDE_STYLE('',(#162));
#162=SURFACE_STYLE_FILL_AREA(#163);
#163=FILL_AREA_STYLE('',(#164));
#164=FILL_AREA_STYLE_COLOUR('',#165);
#165=COLOUR_RGB('',0.768627450980392,0.886274509803922,0.952941176470588);
#166=MANIFOLD_SOLID_BREP('arm_right',#157);
#167=SHAPE_DEFINITION_REPRESENTATION(#299,#168);
#168=SHAPE_REPRESENTATION('arm_right',(#169),#294);
#169=AXIS2_PLACEMENT_3D('',#249,#194,#195);
#170=AXIS2_PLACEMENT_3D('',#250,#196,#197);
#171=AXIS2_PLACEMENT_3D('',#251,#198,#199);
#172=AXIS2_PLACEMENT_3D('',#256,#201,#202);
#173=AXIS2_PLACEMENT_3D('',#259,#204,#205);
#174=AXIS2_PLACEMENT_3D('',#263,#207,#208);
#175=AXIS2_PLACEMENT_3D('',#267,#210,#211);
#176=AXIS2_PLACEMENT_3D('',#268,#212,#213);
#177=AXIS2_PLACEMENT_3D('',#269,#214,#215);
#178=AXIS2_PLACEMENT_3D('',#273,#217,#218);
#179=AXIS2_PLACEMENT_3D('',#274,#219,#220);
#180=AXIS2_PLACEMENT_3D('',#275,#221,#222);
#181=AXIS2_PLACEMENT_3D('',#276,#223,#224);
#182=AXIS2_PLACEMENT_3D('',#277,#225,#226);
#183=AXIS2_PLACEMENT_3D('',#278,#227,#228);
#184=AXIS2_PLACEMENT_3D('',#279,#229,#230);
#185=AXIS2_PLACEMENT_3D('',#280,#231,#232);
#186=AXIS2_PLACEMENT_3D('',#282,#233,#234);
#187=AXIS2_PLACEMENT_3D('',#284,#235,#236);
#188=AXIS2_PLACEMENT_3D('',#285,#237,#238);
#189=AXIS2_PLACEMENT_3D('',#286,#239,#240);
#190=AXIS2_PLACEMENT_3D('',#288,#241,#242);
#191=AXIS2_PLACEMENT_3D('',#289,#243,#244);
#192=AXIS2_PLACEMENT_3D('',#291,#245,#246);
#193=AXIS2_PLACEMENT_3D('',#292,#247,#248);
#194=DIRECTION('',(0.,0.,1.));
#195=DIRECTION('',(1.,0.,0.));
#196=DIRECTION('',(0.,0.,1.));
#197=DIRECTION('',(1.,0.,0.));
#198=DIRECTION('',(0.,0.,1.));
#199=DIRECTION('',(1.,0.,0.));
#200=DIRECTION('',(0.,0.,1.));
#201=DIRECTION('',(0.,0.,1.));
#202=DIRECTION('',(1.,0.,0.));
#203=DIRECTION('',(0.,0.,1.));
#204=DIRECTION('',(0.,0.,1.));
#205=DIRECTION('',(1.,0.,0.));
#206=DIRECTION('',(0.,0.,1.));
#207=DIRECTION('',(0.,0.,1.));
#208=DIRECTION('',(1.,0.,0.));
#209=DIRECTION('',(0.,0.,-1.));
#210=DIRECTION('',(0.,0.,1.));
#211=DIRECTION('',(1.,0.,0.));
#212=DIRECTION('',(0.,0.,1.));
#213=DIRECTION('',(1.,0.,0.));
#214=DIRECTION('',(0.,0.,1.));
#215=DIRECTION('',(1.,0.,0.));
#216=DIRECTION('',(0.,0.,1.));
#217=DIRECTION('',(0.,0.,1.));
#218=DIRECTION('',(1.,0.,0.));
#219=DIRECTION('',(0.,0.,1.));
#220=DIRECTION('',(1.,0.,0.));
#221=DIRECTION('',(0.,0.,1.));
#222=DIRECTION('',(1.,0.,0.));
#223=DIRECTION('',(0.,0.,1.));
#224=DIRECTION('',(1.,0.,0.));
#225=DIRECTION('',(0.,0.,1.));
#226=DIRECTION('',(1.,0.,0.));
#227=DIRECTION('',(0.,0.,1.));
#228=DIRECTION('',(1.,0.,0.));
#229=DIRECTION('',(0.,0.,1.));
#230=DIRECTION('',(1.,0.,0.));
#231=DIRECTION('',(0.,0.,1.));
#232=DIRECTION('',(1.,0.,0.));
#233=DIRECTION('',(0.,0.,1.));
#234=DIRECTION('',(1.,0.,0.));
#235=DIRECTION('',(0.,0.,1.));
#236=DIRECTION('',(1.,0.,0.));
#237=DIRECTION('',(0.,0.,1.));
#238=DIRECTION('',(1.,0.,0.));
#239=DIRECTION('',(0.,0.,1.));
#240=DIRECTION('',(1.,0.,0.));
#241=DIRECTION('',(0.,0.,-1.));
#242=DIRECTION('',(-1.,0.,0.));
#243=DIRECTION('',(0.,0.,1.));
#244=DIRECTION('',(1.,0.,0.));
#245=DIRECTION('',(0.,0.,1.));
#246=DIRECTION('',(1.,0.,0.));
#247=DIRECTION('',(0.,0.,1.));
#248=DIRECTION('',(1.,0.,0.));
#249=CARTESIAN_POINT('',(0.,0.,0.));
#250=CARTESIAN_POINT('',(0.0405,0.0317369083038424,-0.016));
#251=CARTESIAN_POINT('',(0.0405,0.0317369083038424,-0.011));
#252=CARTESIAN_POINT('',(0.0455,0.0317369083038424,-0.011));
#253=CARTESIAN_POINT('',(0.0355,0.0317369083038424,-0.011));
#254=CARTESIAN_POINT('',(0.0455,0.0317369083038424,-0.016));
#255=CARTESIAN_POINT('',(0.0455,0.0317369083038424,-0.016));
#256=CARTESIAN_POINT('',(0.0405,0.0317369083038424,-0.016));
#257=CARTESIAN_POINT('',(0.0355,0.0317369083038424,-0.016));
#258=CARTESIAN_POINT('',(0.0355,0.0317369083038424,-0.016));
#259=CARTESIAN_POINT('',(-0.0694836166106679,-0.00110270563031196,-0.016));
#260=CARTESIAN_POINT('',(0.035,-0.0355,-0.016));
#261=CARTESIAN_POINT('',(0.035,-0.0355,-0.016));
#262=CARTESIAN_POINT('',(0.035,-0.0355,-0.0092));
#263=CARTESIAN_POINT('',(-0.0694836166106909,-0.00110270563030468,-0.0092));
#264=CARTESIAN_POINT('',(0.0362932271216669,-0.031289777863724,-0.0092));
#265=CARTESIAN_POINT('',(0.0362932271216669,-0.031289777863724,-0.0092));
#266=CARTESIAN_POINT('',(0.0362932271216669,-0.031289777863724,-0.011));
#267=CARTESIAN_POINT('',(-0.0694836166106679,-0.00110270563031196,-0.011));
#268=CARTESIAN_POINT('',(-0.0694836166106679,-0.00110270563031196,-0.016));
#269=CARTESIAN_POINT('',(0.0425,-0.0355,-0.016));
#270=CARTESIAN_POINT('',(0.05,-0.0355,-0.016));
#271=CARTESIAN_POINT('',(0.05,-0.0355,-0.016));
#272=CARTESIAN_POINT('',(0.05,-0.0355,-0.011));
#273=CARTESIAN_POINT('',(0.0425,-0.0355,-0.011));
#274=CARTESIAN_POINT('',(0.0425,-0.0355,-0.0092));
#275=CARTESIAN_POINT('',(0.0425,-0.0355,-0.016));
#276=CARTESIAN_POINT('',(-0.0567289058958028,-0.00887406064971855,-0.016));
#277=CARTESIAN_POINT('',(-0.0567289058958028,-0.00887406064971855,-0.011));
#278=CARTESIAN_POINT('',(-0.0567289058958028,-0.00887406064971855,-0.016));
#279=CARTESIAN_POINT('',(0.0425,-0.0355,-0.016));
#280=CARTESIAN_POINT('',(0.0425,-0.0355,-0.016));
#281=CARTESIAN_POINT('',(0.0447,-0.0355,-0.016));
#282=CARTESIAN_POINT('',(0.0425,-0.0355,-0.0092));
#283=CARTESIAN_POINT('',(0.0447,-0.0355,-0.0092));
#284=CARTESIAN_POINT('',(1.38777878078145E-17,-0.00313154584807881,-0.016));
#285=CARTESIAN_POINT('',(1.38777878078145E-17,-0.00313154584807881,-0.011));
#286=CARTESIAN_POINT('',(0.0405,0.0317369083038424,-0.011));
#287=CARTESIAN_POINT('',(0.0425,0.0317369083038424,-0.011));
#288=CARTESIAN_POINT('',(0.0405,0.0317369083038424,-0.0092));
#289=CARTESIAN_POINT('',(0.0405,0.0317369083038424,-0.0092));
#290=CARTESIAN_POINT('',(0.0425,0.0317369083038424,-0.0092));
#291=CARTESIAN_POINT('',(1.38777878078145E-17,-0.00313154584807881,-0.0092));
#292=CARTESIAN_POINT('',(1.38777878078145E-17,-0.00313154584807881,-0.0092));
#293=MECHANICAL_DESIGN_GEOMETRIC_PRESENTATION_REPRESENTATION('',(#158),
#294);
#294=(
GEOMETRIC_REPRESENTATION_CONTEXT(3)
GLOBAL_UNCERTAINTY_ASSIGNED_CONTEXT((#295))
GLOBAL_UNIT_ASSIGNED_CONTEXT((#298,#297,#296))
REPRESENTATION_CONTEXT('arm_right','TOP_LEVEL_ASSEMBLY_PART')
);
#295=UNCERTAINTY_MEASURE_WITH_UNIT(LENGTH_MEASURE(1.E-8),#298,
'DISTANCE_ACCURACY_VALUE','Maximum Tolerance applied to model');
#296=(
NAMED_UNIT(*)
SI_UNIT($,.STERADIAN.)
SOLID_ANGLE_UNIT()
);
#297=(
NAMED_UNIT(*)
PLANE_ANGLE_UNIT()
SI_UNIT($,.RADIAN.)
);
#298=(
LENGTH_UNIT()
NAMED_UNIT(*)
SI_UNIT($,.METRE.)
);
#299=PRODUCT_DEFINITION_SHAPE('','',#300);
#300=PRODUCT_DEFINITION('','',#302,#301);
#301=PRODUCT_DEFINITION_CONTEXT('',#308,'design');
#302=PRODUCT_DEFINITION_FORMATION_WITH_SPECIFIED_SOURCE('','',#304,
 .NOT_KNOWN.);
#303=PRODUCT_RELATED_PRODUCT_CATEGORY('','',(#304));
#304=PRODUCT('arm_right','arm_right','arm_right',(#306));
#305=PRODUCT_CATEGORY('','');
#306=PRODUCT_CONTEXT('',#308,'mechanical');
#307=APPLICATION_PROTOCOL_DEFINITION('international standard',
'ap242_managed_model_based_3d_engineering',2020,#308);
#308=APPLICATION_CONTEXT('managed model based 3d engineering');
ENDSEC;
END-ISO-10303-21;
