ISO-10303-21;
HEADER;
/* Generated by software containing ST-Developer
 * from STEP Tools, Inc. (www.steptools.com) 
 */
/* OPTION: using custom renumber hook */

FILE_DESCRIPTION(
/* description */ ('STEP AP242 Edition 2',
'CAx-IF Rec.Pracs.---Representation and Presentation of Product Manufa
cturing Information (PMI)---4.0---2014-10-13',
'CAx-IF Rec.Pracs.---3D Tessellated Geometry---0.4---2014-09-14','2;1',
'CAx-IF Rec.Pracs.---User Defined Attributes---1.5---2016-08-15'),
/* implementation_level */ '2;1');

FILE_NAME(
/* name */ 'Part Studio 1 - spring_kapak_r',
/* time_stamp */ '2026-04-19T16:25:01Z',
/* author */ (''),
/* organization */ (''),
/* preprocessor_version */ 'ST-DEVELOPER v20',
/* originating_system */ 'ONSHAPE BY PTC INC, 1.213',
/* authorisation */ '  ');

FILE_SCHEMA (('AP242_MANAGED_MODEL_BASED_3D_ENGINEERING_MIM_LF { 1 0 10303 442 3 1 4 }'));
ENDSEC;

DATA;
#10=SHAPE_REPRESENTATION_RELATIONSHIP('','',#303,#11);
#11=ADVANCED_BREP_SHAPE_REPRESENTATION('',(#301),#475);
#12=CIRCLE('',#317,0.0015);
#13=CIRCLE('',#318,0.0015);
#14=CYLINDRICAL_SURFACE('',#316,0.0015);
#15=ORIENTED_EDGE('',*,*,#91,.T.);
#16=ORIENTED_EDGE('',*,*,#92,.F.);
#17=ORIENTED_EDGE('',*,*,#93,.F.);
#18=ORIENTED_EDGE('',*,*,#94,.T.);
#19=ORIENTED_EDGE('',*,*,#95,.F.);
#20=ORIENTED_EDGE('',*,*,#94,.F.);
#21=ORIENTED_EDGE('',*,*,#96,.T.);
#22=ORIENTED_EDGE('',*,*,#97,.T.);
#23=ORIENTED_EDGE('',*,*,#98,.T.);
#24=ORIENTED_EDGE('',*,*,#97,.F.);
#25=ORIENTED_EDGE('',*,*,#99,.F.);
#26=ORIENTED_EDGE('',*,*,#100,.T.);
#27=ORIENTED_EDGE('',*,*,#101,.F.);
#28=ORIENTED_EDGE('',*,*,#100,.F.);
#29=ORIENTED_EDGE('',*,*,#102,.T.);
#30=ORIENTED_EDGE('',*,*,#103,.T.);
#31=ORIENTED_EDGE('',*,*,#104,.T.);
#32=ORIENTED_EDGE('',*,*,#103,.F.);
#33=ORIENTED_EDGE('',*,*,#105,.F.);
#34=ORIENTED_EDGE('',*,*,#106,.T.);
#35=ORIENTED_EDGE('',*,*,#107,.F.);
#36=ORIENTED_EDGE('',*,*,#106,.F.);
#37=ORIENTED_EDGE('',*,*,#108,.T.);
#38=ORIENTED_EDGE('',*,*,#109,.T.);
#39=ORIENTED_EDGE('',*,*,#110,.T.);
#40=ORIENTED_EDGE('',*,*,#109,.F.);
#41=ORIENTED_EDGE('',*,*,#111,.F.);
#42=ORIENTED_EDGE('',*,*,#112,.T.);
#43=ORIENTED_EDGE('',*,*,#113,.T.);
#44=ORIENTED_EDGE('',*,*,#112,.F.);
#45=ORIENTED_EDGE('',*,*,#114,.F.);
#46=ORIENTED_EDGE('',*,*,#115,.T.);
#47=ORIENTED_EDGE('',*,*,#116,.F.);
#48=ORIENTED_EDGE('',*,*,#115,.F.);
#49=ORIENTED_EDGE('',*,*,#117,.T.);
#50=ORIENTED_EDGE('',*,*,#118,.T.);
#51=ORIENTED_EDGE('',*,*,#119,.F.);
#52=ORIENTED_EDGE('',*,*,#118,.F.);
#53=ORIENTED_EDGE('',*,*,#120,.T.);
#54=ORIENTED_EDGE('',*,*,#121,.T.);
#55=ORIENTED_EDGE('',*,*,#122,.F.);
#56=ORIENTED_EDGE('',*,*,#121,.F.);
#57=ORIENTED_EDGE('',*,*,#123,.T.);
#58=ORIENTED_EDGE('',*,*,#124,.T.);
#59=ORIENTED_EDGE('',*,*,#125,.F.);
#60=ORIENTED_EDGE('',*,*,#126,.T.);
#61=ORIENTED_EDGE('',*,*,#127,.F.);
#62=ORIENTED_EDGE('',*,*,#124,.F.);
#63=ORIENTED_EDGE('',*,*,#128,.T.);
#64=ORIENTED_EDGE('',*,*,#92,.T.);
#65=ORIENTED_EDGE('',*,*,#125,.T.);
#66=ORIENTED_EDGE('',*,*,#93,.T.);
#67=ORIENTED_EDGE('',*,*,#128,.F.);
#68=ORIENTED_EDGE('',*,*,#123,.F.);
#69=ORIENTED_EDGE('',*,*,#120,.F.);
#70=ORIENTED_EDGE('',*,*,#117,.F.);
#71=ORIENTED_EDGE('',*,*,#114,.T.);
#72=ORIENTED_EDGE('',*,*,#111,.T.);
#73=ORIENTED_EDGE('',*,*,#108,.F.);
#74=ORIENTED_EDGE('',*,*,#105,.T.);
#75=ORIENTED_EDGE('',*,*,#102,.F.);
#76=ORIENTED_EDGE('',*,*,#99,.T.);
#77=ORIENTED_EDGE('',*,*,#96,.F.);
#78=ORIENTED_EDGE('',*,*,#126,.F.);
#79=ORIENTED_EDGE('',*,*,#91,.F.);
#80=ORIENTED_EDGE('',*,*,#95,.T.);
#81=ORIENTED_EDGE('',*,*,#98,.F.);
#82=ORIENTED_EDGE('',*,*,#101,.T.);
#83=ORIENTED_EDGE('',*,*,#104,.F.);
#84=ORIENTED_EDGE('',*,*,#107,.T.);
#85=ORIENTED_EDGE('',*,*,#110,.F.);
#86=ORIENTED_EDGE('',*,*,#113,.F.);
#87=ORIENTED_EDGE('',*,*,#116,.T.);
#88=ORIENTED_EDGE('',*,*,#119,.T.);
#89=ORIENTED_EDGE('',*,*,#122,.T.);
#90=ORIENTED_EDGE('',*,*,#127,.T.);
#91=EDGE_CURVE('',#129,#130,#155,.T.);
#92=EDGE_CURVE('',#131,#130,#156,.T.);
#93=EDGE_CURVE('',#132,#131,#157,.T.);
#94=EDGE_CURVE('',#132,#129,#158,.T.);
#95=EDGE_CURVE('',#129,#133,#159,.T.);
#96=EDGE_CURVE('',#132,#134,#160,.T.);
#97=EDGE_CURVE('',#134,#133,#161,.T.);
#98=EDGE_CURVE('',#135,#133,#162,.T.);
#99=EDGE_CURVE('',#136,#134,#163,.T.);
#100=EDGE_CURVE('',#136,#135,#164,.T.);
#101=EDGE_CURVE('',#135,#137,#165,.T.);
#102=EDGE_CURVE('',#136,#138,#166,.T.);
#103=EDGE_CURVE('',#138,#137,#167,.T.);
#104=EDGE_CURVE('',#139,#137,#168,.T.);
#105=EDGE_CURVE('',#140,#138,#169,.T.);
#106=EDGE_CURVE('',#140,#139,#170,.T.);
#107=EDGE_CURVE('',#139,#141,#171,.T.);
#108=EDGE_CURVE('',#140,#142,#172,.T.);
#109=EDGE_CURVE('',#142,#141,#173,.T.);
#110=EDGE_CURVE('',#143,#141,#174,.T.);
#111=EDGE_CURVE('',#144,#142,#175,.T.);
#112=EDGE_CURVE('',#144,#143,#176,.T.);
#113=EDGE_CURVE('',#145,#143,#177,.T.);
#114=EDGE_CURVE('',#146,#144,#178,.T.);
#115=EDGE_CURVE('',#146,#145,#179,.T.);
#116=EDGE_CURVE('',#145,#147,#180,.T.);
#117=EDGE_CURVE('',#146,#148,#181,.T.);
#118=EDGE_CURVE('',#148,#147,#182,.T.);
#119=EDGE_CURVE('',#147,#149,#183,.T.);
#120=EDGE_CURVE('',#148,#150,#184,.T.);
#121=EDGE_CURVE('',#150,#149,#185,.T.);
#122=EDGE_CURVE('',#149,#151,#186,.T.);
#123=EDGE_CURVE('',#150,#152,#187,.T.);
#124=EDGE_CURVE('',#152,#151,#188,.T.);
#125=EDGE_CURVE('',#153,#153,#12,.T.);
#126=EDGE_CURVE('',#154,#154,#13,.T.);
#127=EDGE_CURVE('',#151,#130,#189,.T.);
#128=EDGE_CURVE('',#152,#131,#190,.T.);
#129=VERTEX_POINT('',#397);
#130=VERTEX_POINT('',#398);
#131=VERTEX_POINT('',#400);
#132=VERTEX_POINT('',#402);
#133=VERTEX_POINT('',#406);
#134=VERTEX_POINT('',#408);
#135=VERTEX_POINT('',#412);
#136=VERTEX_POINT('',#414);
#137=VERTEX_POINT('',#418);
#138=VERTEX_POINT('',#420);
#139=VERTEX_POINT('',#424);
#140=VERTEX_POINT('',#426);
#141=VERTEX_POINT('',#430);
#142=VERTEX_POINT('',#432);
#143=VERTEX_POINT('',#436);
#144=VERTEX_POINT('',#438);
#145=VERTEX_POINT('',#442);
#146=VERTEX_POINT('',#444);
#147=VERTEX_POINT('',#448);
#148=VERTEX_POINT('',#450);
#149=VERTEX_POINT('',#454);
#150=VERTEX_POINT('',#456);
#151=VERTEX_POINT('',#460);
#152=VERTEX_POINT('',#462);
#153=VERTEX_POINT('',#466);
#154=VERTEX_POINT('',#468);
#155=LINE('',#396,#191);
#156=LINE('',#399,#192);
#157=LINE('',#401,#193);
#158=LINE('',#403,#194);
#159=LINE('',#405,#195);
#160=LINE('',#407,#196);
#161=LINE('',#409,#197);
#162=LINE('',#411,#198);
#163=LINE('',#413,#199);
#164=LINE('',#415,#200);
#165=LINE('',#417,#201);
#166=LINE('',#419,#202);
#167=LINE('',#421,#203);
#168=LINE('',#423,#204);
#169=LINE('',#425,#205);
#170=LINE('',#427,#206);
#171=LINE('',#429,#207);
#172=LINE('',#431,#208);
#173=LINE('',#433,#209);
#174=LINE('',#435,#210);
#175=LINE('',#437,#211);
#176=LINE('',#439,#212);
#177=LINE('',#441,#213);
#178=LINE('',#443,#214);
#179=LINE('',#445,#215);
#180=LINE('',#447,#216);
#181=LINE('',#449,#217);
#182=LINE('',#451,#218);
#183=LINE('',#453,#219);
#184=LINE('',#455,#220);
#185=LINE('',#457,#221);
#186=LINE('',#459,#222);
#187=LINE('',#461,#223);
#188=LINE('',#463,#224);
#189=LINE('',#470,#225);
#190=LINE('',#471,#226);
#191=VECTOR('',#326,1.);
#192=VECTOR('',#327,1.);
#193=VECTOR('',#328,1.);
#194=VECTOR('',#329,1.);
#195=VECTOR('',#332,1.);
#196=VECTOR('',#333,1.);
#197=VECTOR('',#334,1.);
#198=VECTOR('',#337,1.);
#199=VECTOR('',#338,1.);
#200=VECTOR('',#339,1.);
#201=VECTOR('',#342,1.);
#202=VECTOR('',#343,1.);
#203=VECTOR('',#344,1.);
#204=VECTOR('',#347,1.);
#205=VECTOR('',#348,1.);
#206=VECTOR('',#349,1.);
#207=VECTOR('',#352,1.);
#208=VECTOR('',#353,1.);
#209=VECTOR('',#354,1.);
#210=VECTOR('',#357,1.);
#211=VECTOR('',#358,1.);
#212=VECTOR('',#359,1.);
#213=VECTOR('',#362,1.);
#214=VECTOR('',#363,1.);
#215=VECTOR('',#364,1.);
#216=VECTOR('',#367,1.);
#217=VECTOR('',#368,1.);
#218=VECTOR('',#369,1.);
#219=VECTOR('',#372,1.);
#220=VECTOR('',#373,1.);
#221=VECTOR('',#374,1.);
#222=VECTOR('',#377,1.);
#223=VECTOR('',#378,1.);
#224=VECTOR('',#379,1.);
#225=VECTOR('',#388,1.);
#226=VECTOR('',#389,1.);
#227=EDGE_LOOP('',(#15,#16,#17,#18));
#228=EDGE_LOOP('',(#19,#20,#21,#22));
#229=EDGE_LOOP('',(#23,#24,#25,#26));
#230=EDGE_LOOP('',(#27,#28,#29,#30));
#231=EDGE_LOOP('',(#31,#32,#33,#34));
#232=EDGE_LOOP('',(#35,#36,#37,#38));
#233=EDGE_LOOP('',(#39,#40,#41,#42));
#234=EDGE_LOOP('',(#43,#44,#45,#46));
#235=EDGE_LOOP('',(#47,#48,#49,#50));
#236=EDGE_LOOP('',(#51,#52,#53,#54));
#237=EDGE_LOOP('',(#55,#56,#57,#58));
#238=EDGE_LOOP('',(#59));
#239=EDGE_LOOP('',(#60));
#240=EDGE_LOOP('',(#61,#62,#63,#64));
#241=EDGE_LOOP('',(#65));
#242=EDGE_LOOP('',(#66,#67,#68,#69,#70,#71,#72,#73,#74,#75,#76,#77));
#243=EDGE_LOOP('',(#78));
#244=EDGE_LOOP('',(#79,#80,#81,#82,#83,#84,#85,#86,#87,#88,#89,#90));
#245=FACE_BOUND('',#227,.T.);
#246=FACE_BOUND('',#228,.T.);
#247=FACE_BOUND('',#229,.T.);
#248=FACE_BOUND('',#230,.T.);
#249=FACE_BOUND('',#231,.T.);
#250=FACE_BOUND('',#232,.T.);
#251=FACE_BOUND('',#233,.T.);
#252=FACE_BOUND('',#234,.T.);
#253=FACE_BOUND('',#235,.T.);
#254=FACE_BOUND('',#236,.T.);
#255=FACE_BOUND('',#237,.T.);
#256=FACE_BOUND('',#238,.T.);
#257=FACE_BOUND('',#239,.T.);
#258=FACE_BOUND('',#240,.T.);
#259=FACE_BOUND('',#241,.T.);
#260=FACE_BOUND('',#242,.T.);
#261=FACE_BOUND('',#243,.T.);
#262=FACE_BOUND('',#244,.T.);
#263=PLANE('',#305);
#264=PLANE('',#306);
#265=PLANE('',#307);
#266=PLANE('',#308);
#267=PLANE('',#309);
#268=PLANE('',#310);
#269=PLANE('',#311);
#270=PLANE('',#312);
#271=PLANE('',#313);
#272=PLANE('',#314);
#273=PLANE('',#315);
#274=PLANE('',#319);
#275=PLANE('',#320);
#276=PLANE('',#321);
#277=ADVANCED_FACE('',(#245),#263,.T.);
#278=ADVANCED_FACE('',(#246),#264,.F.);
#279=ADVANCED_FACE('',(#247),#265,.T.);
#280=ADVANCED_FACE('',(#248),#266,.F.);
#281=ADVANCED_FACE('',(#249),#267,.T.);
#282=ADVANCED_FACE('',(#250),#268,.F.);
#283=ADVANCED_FACE('',(#251),#269,.T.);
#284=ADVANCED_FACE('',(#252),#270,.T.);
#285=ADVANCED_FACE('',(#253),#271,.F.);
#286=ADVANCED_FACE('',(#254),#272,.F.);
#287=ADVANCED_FACE('',(#255),#273,.F.);
#288=ADVANCED_FACE('',(#256,#257),#14,.F.);
#289=ADVANCED_FACE('',(#258),#274,.F.);
#290=ADVANCED_FACE('',(#259,#260),#275,.T.);
#291=ADVANCED_FACE('',(#261,#262),#276,.F.);
#292=CLOSED_SHELL('',(#277,#278,#279,#280,#281,#282,#283,#284,#285,#286,
#287,#288,#289,#290,#291));
#293=STYLED_ITEM('',(#294),#301);
#294=PRESENTATION_STYLE_ASSIGNMENT((#295));
#295=SURFACE_STYLE_USAGE(.BOTH.,#296);
#296=SURFACE_SIDE_STYLE('',(#297));
#297=SURFACE_STYLE_FILL_AREA(#298);
#298=FILL_AREA_STYLE('',(#299));
#299=FILL_AREA_STYLE_COLOUR('',#300);
#300=COLOUR_RGB('',0.615686274509804,0.811764705882353,0.929411764705882);
#301=MANIFOLD_SOLID_BREP('spring_kapak_r',#292);
#302=SHAPE_DEFINITION_REPRESENTATION(#480,#303);
#303=SHAPE_REPRESENTATION('spring_kapak_r',(#304),#475);
#304=AXIS2_PLACEMENT_3D('',#394,#322,#323);
#305=AXIS2_PLACEMENT_3D('',#395,#324,#325);
#306=AXIS2_PLACEMENT_3D('',#404,#330,#331);
#307=AXIS2_PLACEMENT_3D('',#410,#335,#336);
#308=AXIS2_PLACEMENT_3D('',#416,#340,#341);
#309=AXIS2_PLACEMENT_3D('',#422,#345,#346);
#310=AXIS2_PLACEMENT_3D('',#428,#350,#351);
#311=AXIS2_PLACEMENT_3D('',#434,#355,#356);
#312=AXIS2_PLACEMENT_3D('',#440,#360,#361);
#313=AXIS2_PLACEMENT_3D('',#446,#365,#366);
#314=AXIS2_PLACEMENT_3D('',#452,#370,#371);
#315=AXIS2_PLACEMENT_3D('',#458,#375,#376);
#316=AXIS2_PLACEMENT_3D('',#464,#380,#381);
#317=AXIS2_PLACEMENT_3D('',#465,#382,#383);
#318=AXIS2_PLACEMENT_3D('',#467,#384,#385);
#319=AXIS2_PLACEMENT_3D('',#469,#386,#387);
#320=AXIS2_PLACEMENT_3D('',#472,#390,#391);
#321=AXIS2_PLACEMENT_3D('',#473,#392,#393);
#322=DIRECTION('',(0.,0.,1.));
#323=DIRECTION('',(1.,0.,0.));
#324=DIRECTION('',(-1.,0.,0.));
#325=DIRECTION('',(0.,0.,-1.));
#326=DIRECTION('',(0.,-1.,0.));
#327=DIRECTION('',(0.,0.,-1.));
#328=DIRECTION('',(0.,-1.,0.));
#329=DIRECTION('',(0.,0.,-1.));
#330=DIRECTION('',(2.77555756156288E-16,1.,0.));
#331=DIRECTION('',(1.,-2.77555756156288E-16,0.));
#332=DIRECTION('',(-1.,2.77555756156288E-16,0.));
#333=DIRECTION('',(-1.,2.77555756156288E-16,0.));
#334=DIRECTION('',(0.,0.,-1.));
#335=DIRECTION('',(1.,0.,0.));
#336=DIRECTION('',(0.,0.,1.));
#337=DIRECTION('',(0.,1.,0.));
#338=DIRECTION('',(0.,1.,0.));
#339=DIRECTION('',(0.,0.,-1.));
#340=DIRECTION('',(0.,1.,0.));
#341=DIRECTION('',(0.,0.,1.));
#342=DIRECTION('',(-1.,0.,0.));
#343=DIRECTION('',(-1.,0.,0.));
#344=DIRECTION('',(0.,0.,-1.));
#345=DIRECTION('',(-1.,0.,0.));
#346=DIRECTION('',(0.,0.,-1.));
#347=DIRECTION('',(0.,-1.,0.));
#348=DIRECTION('',(0.,-1.,0.));
#349=DIRECTION('',(0.,0.,-1.));
#350=DIRECTION('',(-3.46944695195361E-15,-1.,0.));
#351=DIRECTION('',(-1.,3.46944695195361E-15,0.));
#352=DIRECTION('',(1.,-3.46944695195361E-15,0.));
#353=DIRECTION('',(1.,-3.46944695195361E-15,0.));
#354=DIRECTION('',(0.,0.,-1.));
#355=DIRECTION('',(1.,0.,0.));
#356=DIRECTION('',(0.,0.,1.));
#357=DIRECTION('',(0.,1.,0.));
#358=DIRECTION('',(0.,1.,0.));
#359=DIRECTION('',(0.,0.,-1.));
#360=DIRECTION('',(2.77555756156289E-16,1.,0.));
#361=DIRECTION('',(1.,-2.7755575615629E-16,0.));
#362=DIRECTION('',(-1.,2.7755575615629E-16,0.));
#363=DIRECTION('',(-1.,2.7755575615629E-16,0.));
#364=DIRECTION('',(0.,0.,-1.));
#365=DIRECTION('',(1.,0.,0.));
#366=DIRECTION('',(0.,0.,1.));
#367=DIRECTION('',(0.,1.,0.));
#368=DIRECTION('',(0.,1.,0.));
#369=DIRECTION('',(0.,0.,-1.));
#370=DIRECTION('',(0.,-1.,0.));
#371=DIRECTION('',(0.,0.,-1.));
#372=DIRECTION('',(1.,0.,0.));
#373=DIRECTION('',(1.,0.,0.));
#374=DIRECTION('',(0.,0.,-1.));
#375=DIRECTION('',(-1.,0.,0.));
#376=DIRECTION('',(0.,0.,-1.));
#377=DIRECTION('',(0.,-1.,0.));
#378=DIRECTION('',(0.,-1.,0.));
#379=DIRECTION('',(0.,0.,-1.));
#380=DIRECTION('',(0.,0.,-1.));
#381=DIRECTION('',(1.,0.,0.));
#382=DIRECTION('',(0.,0.,-1.));
#383=DIRECTION('',(-1.,0.,0.));
#384=DIRECTION('',(0.,0.,-1.));
#385=DIRECTION('',(-1.,0.,0.));
#386=DIRECTION('',(0.,1.,0.));
#387=DIRECTION('',(0.,0.,1.));
#388=DIRECTION('',(-1.,0.,0.));
#389=DIRECTION('',(-1.,0.,0.));
#390=DIRECTION('',(0.,0.,1.));
#391=DIRECTION('',(-1.,0.,0.));
#392=DIRECTION('',(0.,0.,1.));
#393=DIRECTION('',(-1.,0.,0.));
#394=CARTESIAN_POINT('',(0.,0.,0.));
#395=CARTESIAN_POINT('',(0.0805,0.02525,-0.0091));
#396=CARTESIAN_POINT('',(0.0805,0.02525,-0.011));
#397=CARTESIAN_POINT('',(0.0805,0.026,-0.011));
#398=CARTESIAN_POINT('',(0.0805,0.0245,-0.011));
#399=CARTESIAN_POINT('',(0.0805,0.0245,-0.0091));
#400=CARTESIAN_POINT('',(0.0805,0.0245,-0.0091));
#401=CARTESIAN_POINT('',(0.0805,0.02525,-0.0091));
#402=CARTESIAN_POINT('',(0.0805,0.026,-0.0091));
#403=CARTESIAN_POINT('',(0.0805,0.026,-0.0091));
#404=CARTESIAN_POINT('',(0.068,0.026,-0.0091));
#405=CARTESIAN_POINT('',(0.068,0.026,-0.011));
#406=CARTESIAN_POINT('',(0.0555,0.026,-0.011));
#407=CARTESIAN_POINT('',(0.068,0.026,-0.0091));
#408=CARTESIAN_POINT('',(0.0555,0.026,-0.0091));
#409=CARTESIAN_POINT('',(0.0555,0.026,-0.0091));
#410=CARTESIAN_POINT('',(0.0555,0.0025,-0.0091));
#411=CARTESIAN_POINT('',(0.0555,0.0025,-0.011));
#412=CARTESIAN_POINT('',(0.0555,0.0245,-0.011));
#413=CARTESIAN_POINT('',(0.0555,0.0025,-0.0091));
#414=CARTESIAN_POINT('',(0.0555,0.0245,-0.0091));
#415=CARTESIAN_POINT('',(0.0555,0.0245,-0.0091));
#416=CARTESIAN_POINT('',(0.0545,0.0245,-0.0091));
#417=CARTESIAN_POINT('',(0.0545,0.0245,-0.011));
#418=CARTESIAN_POINT('',(0.0535,0.0245,-0.011));
#419=CARTESIAN_POINT('',(0.0545,0.0245,-0.0091));
#420=CARTESIAN_POINT('',(0.0535,0.0245,-0.0091));
#421=CARTESIAN_POINT('',(0.0535,0.0245,-0.0091));
#422=CARTESIAN_POINT('',(0.0535,0.0285,-0.0091));
#423=CARTESIAN_POINT('',(0.0535,0.0285,-0.011));
#424=CARTESIAN_POINT('',(0.0535,0.0325,-0.011));
#425=CARTESIAN_POINT('',(0.0535,0.0285,-0.0091));
#426=CARTESIAN_POINT('',(0.0535,0.0325,-0.0091));
#427=CARTESIAN_POINT('',(0.0535,0.0325,-0.0091));
#428=CARTESIAN_POINT('',(0.0545,0.0325,-0.0091));
#429=CARTESIAN_POINT('',(0.0545,0.0325,-0.011));
#430=CARTESIAN_POINT('',(0.0555,0.0325,-0.011));
#431=CARTESIAN_POINT('',(0.0545,0.0325,-0.0091));
#432=CARTESIAN_POINT('',(0.0555,0.0325,-0.0091));
#433=CARTESIAN_POINT('',(0.0555,0.0325,-0.0091));
#434=CARTESIAN_POINT('',(0.0555,0.0025,-0.0091));
#435=CARTESIAN_POINT('',(0.0555,0.0025,-0.011));
#436=CARTESIAN_POINT('',(0.0555,0.031,-0.011));
#437=CARTESIAN_POINT('',(0.0555,0.0025,-0.0091));
#438=CARTESIAN_POINT('',(0.0555,0.031,-0.0091));
#439=CARTESIAN_POINT('',(0.0555,0.031,-0.0091));
#440=CARTESIAN_POINT('',(0.068,0.031,-0.0091));
#441=CARTESIAN_POINT('',(0.068,0.031,-0.011));
#442=CARTESIAN_POINT('',(0.0805,0.031,-0.011));
#443=CARTESIAN_POINT('',(0.068,0.031,-0.0091));
#444=CARTESIAN_POINT('',(0.0805,0.031,-0.0091));
#445=CARTESIAN_POINT('',(0.0805,0.031,-0.0091));
#446=CARTESIAN_POINT('',(0.0805,0.03175,-0.0091));
#447=CARTESIAN_POINT('',(0.0805,0.03175,-0.011));
#448=CARTESIAN_POINT('',(0.0805,0.0325,-0.011));
#449=CARTESIAN_POINT('',(0.0805,0.03175,-0.0091));
#450=CARTESIAN_POINT('',(0.0805,0.0325,-0.0091));
#451=CARTESIAN_POINT('',(0.0805,0.0325,-0.0091));
#452=CARTESIAN_POINT('',(0.0835,0.0325,-0.0091));
#453=CARTESIAN_POINT('',(0.0835,0.0325,-0.011));
#454=CARTESIAN_POINT('',(0.0865,0.0325,-0.011));
#455=CARTESIAN_POINT('',(0.0835,0.0325,-0.0091));
#456=CARTESIAN_POINT('',(0.0865,0.0325,-0.0091));
#457=CARTESIAN_POINT('',(0.0865,0.0325,-0.0091));
#458=CARTESIAN_POINT('',(0.0865,0.0285,-0.0091));
#459=CARTESIAN_POINT('',(0.0865,0.0285,-0.011));
#460=CARTESIAN_POINT('',(0.0865,0.0245,-0.011));
#461=CARTESIAN_POINT('',(0.0865,0.0285,-0.0091));
#462=CARTESIAN_POINT('',(0.0865,0.0245,-0.0091));
#463=CARTESIAN_POINT('',(0.0865,0.0245,-0.0091));
#464=CARTESIAN_POINT('',(0.0835,0.029,-0.0091));
#465=CARTESIAN_POINT('',(0.0835,0.029,-0.0091));
#466=CARTESIAN_POINT('',(0.082,0.029,-0.0091));
#467=CARTESIAN_POINT('',(0.0835,0.029,-0.011));
#468=CARTESIAN_POINT('',(0.082,0.029,-0.011));
#469=CARTESIAN_POINT('',(0.0835,0.0245,-0.0091));
#470=CARTESIAN_POINT('',(0.0835,0.0245,-0.011));
#471=CARTESIAN_POINT('',(0.0835,0.0245,-0.0091));
#472=CARTESIAN_POINT('',(0.,0.0025,-0.0091));
#473=CARTESIAN_POINT('',(0.,0.0025,-0.011));
#474=MECHANICAL_DESIGN_GEOMETRIC_PRESENTATION_REPRESENTATION('',(#293),
#475);
#475=(
GEOMETRIC_REPRESENTATION_CONTEXT(3)
GLOBAL_UNCERTAINTY_ASSIGNED_CONTEXT((#476))
GLOBAL_UNIT_ASSIGNED_CONTEXT((#479,#478,#477))
REPRESENTATION_CONTEXT('spring_kapak_r','TOP_LEVEL_ASSEMBLY_PART')
);
#476=UNCERTAINTY_MEASURE_WITH_UNIT(LENGTH_MEASURE(1.E-8),#479,
'DISTANCE_ACCURACY_VALUE','Maximum Tolerance applied to model');
#477=(
NAMED_UNIT(*)
SI_UNIT($,.STERADIAN.)
SOLID_ANGLE_UNIT()
);
#478=(
NAMED_UNIT(*)
PLANE_ANGLE_UNIT()
SI_UNIT($,.RADIAN.)
);
#479=(
LENGTH_UNIT()
NAMED_UNIT(*)
SI_UNIT($,.METRE.)
);
#480=PRODUCT_DEFINITION_SHAPE('','',#481);
#481=PRODUCT_DEFINITION('','',#483,#482);
#482=PRODUCT_DEFINITION_CONTEXT('',#489,'design');
#483=PRODUCT_DEFINITION_FORMATION_WITH_SPECIFIED_SOURCE('','',#485,
 .NOT_KNOWN.);
#484=PRODUCT_RELATED_PRODUCT_CATEGORY('','',(#485));
#485=PRODUCT('spring_kapak_r','spring_kapak_r','spring_kapak_r',(#487));
#486=PRODUCT_CATEGORY('','');
#487=PRODUCT_CONTEXT('',#489,'mechanical');
#488=APPLICATION_PROTOCOL_DEFINITION('international standard',
'ap242_managed_model_based_3d_engineering',2020,#489);
#489=APPLICATION_CONTEXT('managed model based 3d engineering');
ENDSEC;
END-ISO-10303-21;
