ISO-10303-21;
HEADER;
/* Generated by software containing ST-Developer
 * from STEP Tools, Inc. (www.steptools.com) 
 */
/* OPTION: using custom renumber hook */

FILE_DESCRIPTION(
/* description */ ('STEP AP242 Edition 2',
'CAx-IF Rec.Pracs.---Representation and Presentation of Product Manufa
cturing Information (PMI)---4.0---2014-10-13',
'CAx-IF Rec.Pracs.---3D Tessellated Geometry---0.4---2014-09-14','2;1',
'CAx-IF Rec.Pracs.---User Defined Attributes---1.5---2016-08-15'),
/* implementation_level */ '2;1');

FILE_NAME(
/* name */ 'Part Studio 1 - upper_part',
/* time_stamp */ '2026-04-19T16:25:01Z',
/* author */ (''),
/* organization */ (''),
/* preprocessor_version */ 'ST-DEVELOPER v20',
/* originating_system */ 'ONSHAPE BY PTC INC, 1.213',
/* authorisation */ '  ');

FILE_SCHEMA (('AP242_MANAGED_MODEL_BASED_3D_ENGINEERING_MIM_LF { 1 0 10303 442 3 1 4 }'));
ENDSEC;

DATA;
#10=SHAPE_REPRESENTATION_RELATIONSHIP('','',#895,#11);
#11=ADVANCED_BREP_SHAPE_REPRESENTATION('',(#893),#1509);
#12=TOROIDAL_SURFACE('',#976,0.006,0.002);
#13=TOROIDAL_SURFACE('',#978,0.027,0.002);
#14=TOROIDAL_SURFACE('',#983,0.006,0.002);
#15=TOROIDAL_SURFACE('',#985,0.027,0.002);
#16=B_SPLINE_CURVE_WITH_KNOTS('',3,(#1350,#1351,#1352,#1353),
 .UNSPECIFIED.,.F.,.F.,(4,4),(0.,0.000735769526096649),.UNSPECIFIED.);
#17=B_SPLINE_CURVE_WITH_KNOTS('',3,(#1354,#1355,#1356,#1357),
 .UNSPECIFIED.,.F.,.F.,(4,4),(0.,0.000735769526096353),.UNSPECIFIED.);
#18=B_SPLINE_CURVE_WITH_KNOTS('',3,(#1455,#1456,#1457,#1458,#1459),
 .UNSPECIFIED.,.F.,.F.,(4,1,4),(0.,0.00412352840823932,0.00824705681647864),
 .UNSPECIFIED.);
#19=B_SPLINE_CURVE_WITH_KNOTS('',3,(#1471,#1472,#1473,#1474,#1475),
 .UNSPECIFIED.,.F.,.F.,(4,1,4),(0.,0.00413446365608642,0.00826892731217285),
 .UNSPECIFIED.);
#20=CYLINDRICAL_SURFACE('',#917,0.025);
#21=CYLINDRICAL_SURFACE('',#921,0.025);
#22=CYLINDRICAL_SURFACE('',#925,0.002);
#23=CYLINDRICAL_SURFACE('',#927,0.002);
#24=CYLINDRICAL_SURFACE('',#929,0.002);
#25=CYLINDRICAL_SURFACE('',#931,0.002);
#26=CYLINDRICAL_SURFACE('',#933,0.002);
#27=CYLINDRICAL_SURFACE('',#935,0.002);
#28=CYLINDRICAL_SURFACE('',#938,0.002);
#29=CYLINDRICAL_SURFACE('',#957,0.0183548570849225);
#30=CYLINDRICAL_SURFACE('',#963,0.0183548570849225);
#31=CYLINDRICAL_SURFACE('',#968,0.008);
#32=CYLINDRICAL_SURFACE('',#969,0.008);
#33=CYLINDRICAL_SURFACE('',#970,0.008);
#34=CYLINDRICAL_SURFACE('',#972,0.008);
#35=CYLINDRICAL_SURFACE('',#974,0.002);
#36=CYLINDRICAL_SURFACE('',#980,0.002);
#37=CYLINDRICAL_SURFACE('',#981,0.002);
#38=CYLINDRICAL_SURFACE('',#987,0.002);
#39=CIRCLE('',#898,0.002);
#40=CIRCLE('',#899,0.002);
#41=CIRCLE('',#900,0.002);
#42=CIRCLE('',#901,0.002);
#43=CIRCLE('',#902,0.002);
#44=CIRCLE('',#903,0.002);
#45=CIRCLE('',#904,0.002);
#46=CIRCLE('',#905,0.0250100251257868);
#47=CIRCLE('',#906,0.0183548570849225);
#48=CIRCLE('',#907,0.008);
#49=CIRCLE('',#908,0.008);
#50=CIRCLE('',#909,0.0183548570849225);
#51=CIRCLE('',#910,0.0250100251257868);
#52=CIRCLE('',#912,0.002);
#53=CIRCLE('',#914,0.002);
#54=CIRCLE('',#918,0.025);
#55=CIRCLE('',#919,0.025);
#56=CIRCLE('',#922,0.025);
#57=CIRCLE('',#923,0.025);
#58=CIRCLE('',#926,0.002);
#59=CIRCLE('',#928,0.002);
#60=CIRCLE('',#930,0.002);
#61=CIRCLE('',#932,0.002);
#62=CIRCLE('',#934,0.002);
#63=CIRCLE('',#936,0.002);
#64=CIRCLE('',#939,0.002);
#65=CIRCLE('',#941,0.008);
#66=CIRCLE('',#942,0.008);
#67=CIRCLE('',#943,0.008);
#68=CIRCLE('',#944,0.008);
#69=CIRCLE('',#955,0.002);
#70=CIRCLE('',#958,0.0183548570849225);
#71=CIRCLE('',#960,0.006);
#72=CIRCLE('',#962,0.002);
#73=CIRCLE('',#964,0.0183548570849225);
#74=CIRCLE('',#967,0.006);
#75=CIRCLE('',#971,0.008);
#76=CIRCLE('',#973,0.008);
#77=CIRCLE('',#975,0.002);
#78=CIRCLE('',#977,0.002);
#79=CIRCLE('',#979,0.002);
#80=CIRCLE('',#982,0.002);
#81=CIRCLE('',#984,0.002);
#82=CIRCLE('',#986,0.002);
#83=ORIENTED_EDGE('',*,*,#323,.T.);
#84=ORIENTED_EDGE('',*,*,#324,.T.);
#85=ORIENTED_EDGE('',*,*,#325,.F.);
#86=ORIENTED_EDGE('',*,*,#326,.F.);
#87=ORIENTED_EDGE('',*,*,#327,.T.);
#88=ORIENTED_EDGE('',*,*,#328,.T.);
#89=ORIENTED_EDGE('',*,*,#329,.F.);
#90=ORIENTED_EDGE('',*,*,#330,.F.);
#91=ORIENTED_EDGE('',*,*,#331,.T.);
#92=ORIENTED_EDGE('',*,*,#332,.T.);
#93=ORIENTED_EDGE('',*,*,#333,.T.);
#94=ORIENTED_EDGE('',*,*,#334,.T.);
#95=ORIENTED_EDGE('',*,*,#335,.T.);
#96=ORIENTED_EDGE('',*,*,#336,.T.);
#97=ORIENTED_EDGE('',*,*,#337,.T.);
#98=ORIENTED_EDGE('',*,*,#338,.T.);
#99=ORIENTED_EDGE('',*,*,#339,.T.);
#100=ORIENTED_EDGE('',*,*,#340,.T.);
#101=ORIENTED_EDGE('',*,*,#341,.F.);
#102=ORIENTED_EDGE('',*,*,#342,.F.);
#103=ORIENTED_EDGE('',*,*,#343,.T.);
#104=ORIENTED_EDGE('',*,*,#344,.T.);
#105=ORIENTED_EDGE('',*,*,#345,.T.);
#106=ORIENTED_EDGE('',*,*,#346,.F.);
#107=ORIENTED_EDGE('',*,*,#347,.T.);
#108=ORIENTED_EDGE('',*,*,#348,.T.);
#109=ORIENTED_EDGE('',*,*,#349,.T.);
#110=ORIENTED_EDGE('',*,*,#350,.F.);
#111=ORIENTED_EDGE('',*,*,#351,.T.);
#112=ORIENTED_EDGE('',*,*,#352,.F.);
#113=ORIENTED_EDGE('',*,*,#353,.T.);
#114=ORIENTED_EDGE('',*,*,#354,.T.);
#115=ORIENTED_EDGE('',*,*,#355,.T.);
#116=ORIENTED_EDGE('',*,*,#356,.F.);
#117=ORIENTED_EDGE('',*,*,#357,.T.);
#118=ORIENTED_EDGE('',*,*,#348,.F.);
#119=ORIENTED_EDGE('',*,*,#358,.T.);
#120=ORIENTED_EDGE('',*,*,#359,.T.);
#121=ORIENTED_EDGE('',*,*,#344,.F.);
#122=ORIENTED_EDGE('',*,*,#360,.T.);
#123=ORIENTED_EDGE('',*,*,#361,.T.);
#124=ORIENTED_EDGE('',*,*,#362,.T.);
#125=ORIENTED_EDGE('',*,*,#363,.T.);
#126=ORIENTED_EDGE('',*,*,#361,.F.);
#127=ORIENTED_EDGE('',*,*,#364,.T.);
#128=ORIENTED_EDGE('',*,*,#365,.T.);
#129=ORIENTED_EDGE('',*,*,#366,.T.);
#130=ORIENTED_EDGE('',*,*,#367,.T.);
#131=ORIENTED_EDGE('',*,*,#368,.T.);
#132=ORIENTED_EDGE('',*,*,#369,.T.);
#133=ORIENTED_EDGE('',*,*,#370,.T.);
#134=ORIENTED_EDGE('',*,*,#369,.F.);
#135=ORIENTED_EDGE('',*,*,#371,.T.);
#136=ORIENTED_EDGE('',*,*,#372,.T.);
#137=ORIENTED_EDGE('',*,*,#373,.T.);
#138=ORIENTED_EDGE('',*,*,#372,.F.);
#139=ORIENTED_EDGE('',*,*,#374,.T.);
#140=ORIENTED_EDGE('',*,*,#355,.F.);
#141=ORIENTED_EDGE('',*,*,#375,.T.);
#142=ORIENTED_EDGE('',*,*,#376,.T.);
#143=ORIENTED_EDGE('',*,*,#377,.T.);
#144=ORIENTED_EDGE('',*,*,#376,.F.);
#145=ORIENTED_EDGE('',*,*,#378,.T.);
#146=ORIENTED_EDGE('',*,*,#379,.T.);
#147=ORIENTED_EDGE('',*,*,#380,.T.);
#148=ORIENTED_EDGE('',*,*,#379,.F.);
#149=ORIENTED_EDGE('',*,*,#381,.T.);
#150=ORIENTED_EDGE('',*,*,#382,.T.);
#151=ORIENTED_EDGE('',*,*,#383,.T.);
#152=ORIENTED_EDGE('',*,*,#332,.F.);
#153=ORIENTED_EDGE('',*,*,#384,.T.);
#154=ORIENTED_EDGE('',*,*,#333,.F.);
#155=ORIENTED_EDGE('',*,*,#385,.T.);
#156=ORIENTED_EDGE('',*,*,#334,.F.);
#157=ORIENTED_EDGE('',*,*,#386,.T.);
#158=ORIENTED_EDGE('',*,*,#335,.F.);
#159=ORIENTED_EDGE('',*,*,#387,.T.);
#160=ORIENTED_EDGE('',*,*,#336,.F.);
#161=ORIENTED_EDGE('',*,*,#388,.T.);
#162=ORIENTED_EDGE('',*,*,#337,.F.);
#163=ORIENTED_EDGE('',*,*,#389,.T.);
#164=ORIENTED_EDGE('',*,*,#390,.T.);
#165=ORIENTED_EDGE('',*,*,#391,.T.);
#166=ORIENTED_EDGE('',*,*,#356,.T.);
#167=ORIENTED_EDGE('',*,*,#392,.T.);
#168=ORIENTED_EDGE('',*,*,#331,.F.);
#169=ORIENTED_EDGE('',*,*,#393,.T.);
#170=ORIENTED_EDGE('',*,*,#394,.T.);
#171=ORIENTED_EDGE('',*,*,#395,.T.);
#172=ORIENTED_EDGE('',*,*,#362,.F.);
#173=ORIENTED_EDGE('',*,*,#366,.F.);
#174=ORIENTED_EDGE('',*,*,#396,.T.);
#175=ORIENTED_EDGE('',*,*,#370,.F.);
#176=ORIENTED_EDGE('',*,*,#373,.F.);
#177=ORIENTED_EDGE('',*,*,#377,.F.);
#178=ORIENTED_EDGE('',*,*,#380,.F.);
#179=ORIENTED_EDGE('',*,*,#383,.F.);
#180=ORIENTED_EDGE('',*,*,#397,.T.);
#181=ORIENTED_EDGE('',*,*,#392,.F.);
#182=ORIENTED_EDGE('',*,*,#359,.F.);
#183=ORIENTED_EDGE('',*,*,#398,.T.);
#184=ORIENTED_EDGE('',*,*,#389,.F.);
#185=ORIENTED_EDGE('',*,*,#388,.F.);
#186=ORIENTED_EDGE('',*,*,#387,.F.);
#187=ORIENTED_EDGE('',*,*,#386,.F.);
#188=ORIENTED_EDGE('',*,*,#385,.F.);
#189=ORIENTED_EDGE('',*,*,#384,.F.);
#190=ORIENTED_EDGE('',*,*,#393,.F.);
#191=ORIENTED_EDGE('',*,*,#399,.F.);
#192=ORIENTED_EDGE('',*,*,#400,.T.);
#193=ORIENTED_EDGE('',*,*,#401,.T.);
#194=ORIENTED_EDGE('',*,*,#402,.F.);
#195=ORIENTED_EDGE('',*,*,#403,.F.);
#196=ORIENTED_EDGE('',*,*,#404,.T.);
#197=ORIENTED_EDGE('',*,*,#405,.T.);
#198=ORIENTED_EDGE('',*,*,#406,.F.);
#199=ORIENTED_EDGE('',*,*,#346,.T.);
#200=ORIENTED_EDGE('',*,*,#407,.T.);
#201=ORIENTED_EDGE('',*,*,#394,.F.);
#202=ORIENTED_EDGE('',*,*,#408,.T.);
#203=ORIENTED_EDGE('',*,*,#403,.T.);
#204=ORIENTED_EDGE('',*,*,#409,.F.);
#205=ORIENTED_EDGE('',*,*,#323,.F.);
#206=ORIENTED_EDGE('',*,*,#410,.T.);
#207=ORIENTED_EDGE('',*,*,#404,.F.);
#208=ORIENTED_EDGE('',*,*,#410,.F.);
#209=ORIENTED_EDGE('',*,*,#326,.T.);
#210=ORIENTED_EDGE('',*,*,#411,.T.);
#211=ORIENTED_EDGE('',*,*,#405,.F.);
#212=ORIENTED_EDGE('',*,*,#411,.F.);
#213=ORIENTED_EDGE('',*,*,#325,.T.);
#214=ORIENTED_EDGE('',*,*,#412,.T.);
#215=ORIENTED_EDGE('',*,*,#399,.T.);
#216=ORIENTED_EDGE('',*,*,#413,.F.);
#217=ORIENTED_EDGE('',*,*,#327,.F.);
#218=ORIENTED_EDGE('',*,*,#414,.T.);
#219=ORIENTED_EDGE('',*,*,#400,.F.);
#220=ORIENTED_EDGE('',*,*,#414,.F.);
#221=ORIENTED_EDGE('',*,*,#330,.T.);
#222=ORIENTED_EDGE('',*,*,#415,.T.);
#223=ORIENTED_EDGE('',*,*,#401,.F.);
#224=ORIENTED_EDGE('',*,*,#415,.F.);
#225=ORIENTED_EDGE('',*,*,#329,.T.);
#226=ORIENTED_EDGE('',*,*,#416,.T.);
#227=ORIENTED_EDGE('',*,*,#406,.T.);
#228=ORIENTED_EDGE('',*,*,#412,.F.);
#229=ORIENTED_EDGE('',*,*,#324,.F.);
#230=ORIENTED_EDGE('',*,*,#409,.T.);
#231=ORIENTED_EDGE('',*,*,#402,.T.);
#232=ORIENTED_EDGE('',*,*,#416,.F.);
#233=ORIENTED_EDGE('',*,*,#328,.F.);
#234=ORIENTED_EDGE('',*,*,#413,.T.);
#235=ORIENTED_EDGE('',*,*,#340,.F.);
#236=ORIENTED_EDGE('',*,*,#417,.T.);
#237=ORIENTED_EDGE('',*,*,#418,.T.);
#238=ORIENTED_EDGE('',*,*,#419,.T.);
#239=ORIENTED_EDGE('',*,*,#341,.T.);
#240=ORIENTED_EDGE('',*,*,#418,.F.);
#241=ORIENTED_EDGE('',*,*,#420,.F.);
#242=ORIENTED_EDGE('',*,*,#421,.F.);
#243=ORIENTED_EDGE('',*,*,#422,.T.);
#244=ORIENTED_EDGE('',*,*,#342,.T.);
#245=ORIENTED_EDGE('',*,*,#419,.F.);
#246=ORIENTED_EDGE('',*,*,#421,.T.);
#247=ORIENTED_EDGE('',*,*,#423,.T.);
#248=ORIENTED_EDGE('',*,*,#424,.T.);
#249=ORIENTED_EDGE('',*,*,#425,.T.);
#250=ORIENTED_EDGE('',*,*,#426,.F.);
#251=ORIENTED_EDGE('',*,*,#427,.T.);
#252=ORIENTED_EDGE('',*,*,#352,.T.);
#253=ORIENTED_EDGE('',*,*,#350,.T.);
#254=ORIENTED_EDGE('',*,*,#428,.T.);
#255=ORIENTED_EDGE('',*,*,#429,.F.);
#256=ORIENTED_EDGE('',*,*,#430,.T.);
#257=ORIENTED_EDGE('',*,*,#351,.F.);
#258=ORIENTED_EDGE('',*,*,#430,.F.);
#259=ORIENTED_EDGE('',*,*,#431,.T.);
#260=ORIENTED_EDGE('',*,*,#426,.T.);
#261=ORIENTED_EDGE('',*,*,#432,.T.);
#262=ORIENTED_EDGE('',*,*,#433,.T.);
#263=ORIENTED_EDGE('',*,*,#429,.T.);
#264=ORIENTED_EDGE('',*,*,#434,.T.);
#265=ORIENTED_EDGE('',*,*,#345,.F.);
#266=ORIENTED_EDGE('',*,*,#363,.F.);
#267=ORIENTED_EDGE('',*,*,#395,.F.);
#268=ORIENTED_EDGE('',*,*,#407,.F.);
#269=ORIENTED_EDGE('',*,*,#347,.F.);
#270=ORIENTED_EDGE('',*,*,#408,.F.);
#271=ORIENTED_EDGE('',*,*,#398,.F.);
#272=ORIENTED_EDGE('',*,*,#358,.F.);
#273=ORIENTED_EDGE('',*,*,#382,.F.);
#274=ORIENTED_EDGE('',*,*,#435,.T.);
#275=ORIENTED_EDGE('',*,*,#390,.F.);
#276=ORIENTED_EDGE('',*,*,#397,.F.);
#277=ORIENTED_EDGE('',*,*,#365,.F.);
#278=ORIENTED_EDGE('',*,*,#436,.T.);
#279=ORIENTED_EDGE('',*,*,#367,.F.);
#280=ORIENTED_EDGE('',*,*,#396,.F.);
#281=ORIENTED_EDGE('',*,*,#422,.F.);
#282=ORIENTED_EDGE('',*,*,#425,.F.);
#283=ORIENTED_EDGE('',*,*,#437,.F.);
#284=ORIENTED_EDGE('',*,*,#364,.F.);
#285=ORIENTED_EDGE('',*,*,#360,.F.);
#286=ORIENTED_EDGE('',*,*,#343,.F.);
#287=ORIENTED_EDGE('',*,*,#437,.T.);
#288=ORIENTED_EDGE('',*,*,#424,.F.);
#289=ORIENTED_EDGE('',*,*,#438,.F.);
#290=ORIENTED_EDGE('',*,*,#436,.F.);
#291=ORIENTED_EDGE('',*,*,#374,.F.);
#292=ORIENTED_EDGE('',*,*,#371,.F.);
#293=ORIENTED_EDGE('',*,*,#439,.F.);
#294=ORIENTED_EDGE('',*,*,#338,.F.);
#295=ORIENTED_EDGE('',*,*,#423,.F.);
#296=ORIENTED_EDGE('',*,*,#420,.T.);
#297=ORIENTED_EDGE('',*,*,#417,.F.);
#298=ORIENTED_EDGE('',*,*,#339,.F.);
#299=ORIENTED_EDGE('',*,*,#439,.T.);
#300=ORIENTED_EDGE('',*,*,#368,.F.);
#301=ORIENTED_EDGE('',*,*,#438,.T.);
#302=ORIENTED_EDGE('',*,*,#357,.F.);
#303=ORIENTED_EDGE('',*,*,#391,.F.);
#304=ORIENTED_EDGE('',*,*,#440,.F.);
#305=ORIENTED_EDGE('',*,*,#434,.F.);
#306=ORIENTED_EDGE('',*,*,#428,.F.);
#307=ORIENTED_EDGE('',*,*,#349,.F.);
#308=ORIENTED_EDGE('',*,*,#440,.T.);
#309=ORIENTED_EDGE('',*,*,#435,.F.);
#310=ORIENTED_EDGE('',*,*,#441,.F.);
#311=ORIENTED_EDGE('',*,*,#432,.F.);
#312=ORIENTED_EDGE('',*,*,#375,.F.);
#313=ORIENTED_EDGE('',*,*,#354,.F.);
#314=ORIENTED_EDGE('',*,*,#442,.F.);
#315=ORIENTED_EDGE('',*,*,#378,.F.);
#316=ORIENTED_EDGE('',*,*,#441,.T.);
#317=ORIENTED_EDGE('',*,*,#381,.F.);
#318=ORIENTED_EDGE('',*,*,#442,.T.);
#319=ORIENTED_EDGE('',*,*,#353,.F.);
#320=ORIENTED_EDGE('',*,*,#427,.F.);
#321=ORIENTED_EDGE('',*,*,#431,.F.);
#322=ORIENTED_EDGE('',*,*,#433,.F.);
#323=EDGE_CURVE('',#443,#444,#525,.T.);
#324=EDGE_CURVE('',#444,#445,#526,.T.);
#325=EDGE_CURVE('',#446,#445,#527,.T.);
#326=EDGE_CURVE('',#443,#446,#528,.T.);
#327=EDGE_CURVE('',#447,#448,#529,.T.);
#328=EDGE_CURVE('',#448,#449,#530,.T.);
#329=EDGE_CURVE('',#450,#449,#531,.T.);
#330=EDGE_CURVE('',#447,#450,#532,.T.);
#331=EDGE_CURVE('',#451,#451,#39,.T.);
#332=EDGE_CURVE('',#452,#452,#40,.T.);
#333=EDGE_CURVE('',#453,#453,#41,.T.);
#334=EDGE_CURVE('',#454,#454,#42,.T.);
#335=EDGE_CURVE('',#455,#455,#43,.T.);
#336=EDGE_CURVE('',#456,#456,#44,.T.);
#337=EDGE_CURVE('',#457,#457,#45,.T.);
#338=EDGE_CURVE('',#458,#459,#46,.T.);
#339=EDGE_CURVE('',#459,#460,#533,.F.);
#340=EDGE_CURVE('',#460,#461,#534,.T.);
#341=EDGE_CURVE('',#462,#461,#535,.T.);
#342=EDGE_CURVE('',#463,#462,#47,.T.);
#343=EDGE_CURVE('',#463,#464,#536,.T.);
#344=EDGE_CURVE('',#464,#465,#537,.T.);
#345=EDGE_CURVE('',#465,#466,#48,.F.);
#346=EDGE_CURVE('',#467,#466,#538,.T.);
#347=EDGE_CURVE('',#467,#468,#49,.F.);
#348=EDGE_CURVE('',#468,#469,#539,.T.);
#349=EDGE_CURVE('',#469,#470,#540,.F.);
#350=EDGE_CURVE('',#471,#470,#50,.T.);
#351=EDGE_CURVE('',#471,#472,#541,.T.);
#352=EDGE_CURVE('',#473,#472,#542,.T.);
#353=EDGE_CURVE('',#473,#474,#543,.T.);
#354=EDGE_CURVE('',#474,#475,#51,.T.);
#355=EDGE_CURVE('',#475,#458,#544,.T.);
#356=EDGE_CURVE('',#476,#477,#545,.T.);
#357=EDGE_CURVE('',#476,#469,#52,.F.);
#358=EDGE_CURVE('',#468,#478,#546,.T.);
#359=EDGE_CURVE('',#478,#477,#547,.T.);
#360=EDGE_CURVE('',#464,#479,#53,.F.);
#361=EDGE_CURVE('',#479,#480,#548,.T.);
#362=EDGE_CURVE('',#480,#481,#549,.T.);
#363=EDGE_CURVE('',#481,#465,#550,.F.);
#364=EDGE_CURVE('',#479,#482,#551,.F.);
#365=EDGE_CURVE('',#482,#483,#552,.T.);
#366=EDGE_CURVE('',#483,#480,#553,.T.);
#367=EDGE_CURVE('',#484,#485,#554,.F.);
#368=EDGE_CURVE('',#485,#486,#555,.T.);
#369=EDGE_CURVE('',#486,#487,#556,.T.);
#370=EDGE_CURVE('',#487,#484,#557,.T.);
#371=EDGE_CURVE('',#486,#488,#54,.F.);
#372=EDGE_CURVE('',#488,#489,#558,.T.);
#373=EDGE_CURVE('',#489,#487,#55,.T.);
#374=EDGE_CURVE('',#488,#458,#16,.F.);
#375=EDGE_CURVE('',#475,#490,#17,.T.);
#376=EDGE_CURVE('',#490,#491,#559,.T.);
#377=EDGE_CURVE('',#491,#489,#560,.T.);
#378=EDGE_CURVE('',#490,#492,#56,.F.);
#379=EDGE_CURVE('',#492,#493,#561,.T.);
#380=EDGE_CURVE('',#493,#491,#57,.T.);
#381=EDGE_CURVE('',#492,#494,#562,.F.);
#382=EDGE_CURVE('',#494,#495,#563,.T.);
#383=EDGE_CURVE('',#495,#493,#564,.T.);
#384=EDGE_CURVE('',#496,#496,#58,.T.);
#385=EDGE_CURVE('',#497,#497,#59,.T.);
#386=EDGE_CURVE('',#498,#498,#60,.T.);
#387=EDGE_CURVE('',#499,#499,#61,.T.);
#388=EDGE_CURVE('',#500,#500,#62,.T.);
#389=EDGE_CURVE('',#501,#501,#63,.T.);
#390=EDGE_CURVE('',#502,#503,#565,.F.);
#391=EDGE_CURVE('',#503,#476,#566,.T.);
#392=EDGE_CURVE('',#477,#502,#567,.T.);
#393=EDGE_CURVE('',#504,#504,#64,.T.);
#394=EDGE_CURVE('',#505,#506,#568,.T.);
#395=EDGE_CURVE('',#506,#481,#65,.T.);
#396=EDGE_CURVE('',#483,#484,#66,.T.);
#397=EDGE_CURVE('',#495,#502,#67,.T.);
#398=EDGE_CURVE('',#478,#505,#68,.T.);
#399=EDGE_CURVE('',#507,#508,#569,.T.);
#400=EDGE_CURVE('',#507,#509,#570,.T.);
#401=EDGE_CURVE('',#509,#510,#571,.T.);
#402=EDGE_CURVE('',#508,#510,#572,.T.);
#403=EDGE_CURVE('',#511,#512,#573,.T.);
#404=EDGE_CURVE('',#511,#513,#574,.T.);
#405=EDGE_CURVE('',#513,#514,#575,.T.);
#406=EDGE_CURVE('',#512,#514,#576,.T.);
#407=EDGE_CURVE('',#466,#506,#577,.T.);
#408=EDGE_CURVE('',#505,#467,#578,.F.);
#409=EDGE_CURVE('',#444,#512,#579,.T.);
#410=EDGE_CURVE('',#443,#511,#580,.T.);
#411=EDGE_CURVE('',#446,#513,#581,.T.);
#412=EDGE_CURVE('',#445,#514,#582,.T.);
#413=EDGE_CURVE('',#448,#508,#583,.T.);
#414=EDGE_CURVE('',#447,#507,#584,.T.);
#415=EDGE_CURVE('',#450,#509,#585,.T.);
#416=EDGE_CURVE('',#449,#510,#586,.T.);
#417=EDGE_CURVE('',#460,#515,#69,.T.);
#418=EDGE_CURVE('',#515,#461,#587,.T.);
#419=EDGE_CURVE('',#516,#462,#588,.T.);
#420=EDGE_CURVE('',#516,#515,#589,.T.);
#421=EDGE_CURVE('',#517,#516,#70,.T.);
#422=EDGE_CURVE('',#517,#463,#18,.T.);
#423=EDGE_CURVE('',#516,#518,#590,.F.);
#424=EDGE_CURVE('',#518,#519,#71,.F.);
#425=EDGE_CURVE('',#519,#517,#591,.T.);
#426=EDGE_CURVE('',#520,#472,#592,.T.);
#427=EDGE_CURVE('',#520,#473,#72,.F.);
#428=EDGE_CURVE('',#470,#521,#19,.T.);
#429=EDGE_CURVE('',#522,#521,#73,.T.);
#430=EDGE_CURVE('',#522,#471,#593,.T.);
#431=EDGE_CURVE('',#522,#520,#594,.T.);
#432=EDGE_CURVE('',#523,#524,#74,.F.);
#433=EDGE_CURVE('',#524,#522,#595,.T.);
#434=EDGE_CURVE('',#521,#523,#596,.F.);
#435=EDGE_CURVE('',#494,#503,#75,.T.);
#436=EDGE_CURVE('',#482,#485,#76,.T.);
#437=EDGE_CURVE('',#482,#519,#77,.T.);
#438=EDGE_CURVE('',#485,#518,#78,.T.);
#439=EDGE_CURVE('',#459,#486,#79,.T.);
#440=EDGE_CURVE('',#523,#503,#80,.T.);
#441=EDGE_CURVE('',#524,#494,#81,.T.);
#442=EDGE_CURVE('',#492,#474,#82,.T.);
#443=VERTEX_POINT('',#1247);
#444=VERTEX_POINT('',#1248);
#445=VERTEX_POINT('',#1250);
#446=VERTEX_POINT('',#1252);
#447=VERTEX_POINT('',#1255);
#448=VERTEX_POINT('',#1256);
#449=VERTEX_POINT('',#1258);
#450=VERTEX_POINT('',#1260);
#451=VERTEX_POINT('',#1263);
#452=VERTEX_POINT('',#1265);
#453=VERTEX_POINT('',#1267);
#454=VERTEX_POINT('',#1269);
#455=VERTEX_POINT('',#1271);
#456=VERTEX_POINT('',#1273);
#457=VERTEX_POINT('',#1275);
#458=VERTEX_POINT('',#1277);
#459=VERTEX_POINT('',#1278);
#460=VERTEX_POINT('',#1280);
#461=VERTEX_POINT('',#1282);
#462=VERTEX_POINT('',#1284);
#463=VERTEX_POINT('',#1286);
#464=VERTEX_POINT('',#1288);
#465=VERTEX_POINT('',#1290);
#466=VERTEX_POINT('',#1292);
#467=VERTEX_POINT('',#1294);
#468=VERTEX_POINT('',#1296);
#469=VERTEX_POINT('',#1298);
#470=VERTEX_POINT('',#1300);
#471=VERTEX_POINT('',#1302);
#472=VERTEX_POINT('',#1304);
#473=VERTEX_POINT('',#1306);
#474=VERTEX_POINT('',#1308);
#475=VERTEX_POINT('',#1310);
#476=VERTEX_POINT('',#1314);
#477=VERTEX_POINT('',#1315);
#478=VERTEX_POINT('',#1318);
#479=VERTEX_POINT('',#1322);
#480=VERTEX_POINT('',#1324);
#481=VERTEX_POINT('',#1326);
#482=VERTEX_POINT('',#1330);
#483=VERTEX_POINT('',#1332);
#484=VERTEX_POINT('',#1336);
#485=VERTEX_POINT('',#1337);
#486=VERTEX_POINT('',#1339);
#487=VERTEX_POINT('',#1341);
#488=VERTEX_POINT('',#1345);
#489=VERTEX_POINT('',#1347);
#490=VERTEX_POINT('',#1358);
#491=VERTEX_POINT('',#1360);
#492=VERTEX_POINT('',#1364);
#493=VERTEX_POINT('',#1366);
#494=VERTEX_POINT('',#1370);
#495=VERTEX_POINT('',#1372);
#496=VERTEX_POINT('',#1376);
#497=VERTEX_POINT('',#1379);
#498=VERTEX_POINT('',#1382);
#499=VERTEX_POINT('',#1385);
#500=VERTEX_POINT('',#1388);
#501=VERTEX_POINT('',#1391);
#502=VERTEX_POINT('',#1394);
#503=VERTEX_POINT('',#1395);
#504=VERTEX_POINT('',#1400);
#505=VERTEX_POINT('',#1403);
#506=VERTEX_POINT('',#1404);
#507=VERTEX_POINT('',#1410);
#508=VERTEX_POINT('',#1411);
#509=VERTEX_POINT('',#1413);
#510=VERTEX_POINT('',#1415);
#511=VERTEX_POINT('',#1418);
#512=VERTEX_POINT('',#1419);
#513=VERTEX_POINT('',#1421);
#514=VERTEX_POINT('',#1423);
#515=VERTEX_POINT('',#1446);
#516=VERTEX_POINT('',#1450);
#517=VERTEX_POINT('',#1454);
#518=VERTEX_POINT('',#1462);
#519=VERTEX_POINT('',#1464);
#520=VERTEX_POINT('',#1468);
#521=VERTEX_POINT('',#1476);
#522=VERTEX_POINT('',#1478);
#523=VERTEX_POINT('',#1484);
#524=VERTEX_POINT('',#1485);
#525=LINE('',#1246,#597);
#526=LINE('',#1249,#598);
#527=LINE('',#1251,#599);
#528=LINE('',#1253,#600);
#529=LINE('',#1254,#601);
#530=LINE('',#1257,#602);
#531=LINE('',#1259,#603);
#532=LINE('',#1261,#604);
#533=LINE('',#1279,#605);
#534=LINE('',#1281,#606);
#535=LINE('',#1283,#607);
#536=LINE('',#1287,#608);
#537=LINE('',#1289,#609);
#538=LINE('',#1293,#610);
#539=LINE('',#1297,#611);
#540=LINE('',#1299,#612);
#541=LINE('',#1303,#613);
#542=LINE('',#1305,#614);
#543=LINE('',#1307,#615);
#544=LINE('',#1311,#616);
#545=LINE('',#1313,#617);
#546=LINE('',#1317,#618);
#547=LINE('',#1319,#619);
#548=LINE('',#1323,#620);
#549=LINE('',#1325,#621);
#550=LINE('',#1327,#622);
#551=LINE('',#1329,#623);
#552=LINE('',#1331,#624);
#553=LINE('',#1333,#625);
#554=LINE('',#1335,#626);
#555=LINE('',#1338,#627);
#556=LINE('',#1340,#628);
#557=LINE('',#1342,#629);
#558=LINE('',#1346,#630);
#559=LINE('',#1359,#631);
#560=LINE('',#1361,#632);
#561=LINE('',#1365,#633);
#562=LINE('',#1369,#634);
#563=LINE('',#1371,#635);
#564=LINE('',#1373,#636);
#565=LINE('',#1393,#637);
#566=LINE('',#1396,#638);
#567=LINE('',#1397,#639);
#568=LINE('',#1402,#640);
#569=LINE('',#1409,#641);
#570=LINE('',#1412,#642);
#571=LINE('',#1414,#643);
#572=LINE('',#1416,#644);
#573=LINE('',#1417,#645);
#574=LINE('',#1420,#646);
#575=LINE('',#1422,#647);
#576=LINE('',#1424,#648);
#577=LINE('',#1426,#649);
#578=LINE('',#1427,#650);
#579=LINE('',#1429,#651);
#580=LINE('',#1430,#652);
#581=LINE('',#1432,#653);
#582=LINE('',#1434,#654);
#583=LINE('',#1436,#655);
#584=LINE('',#1437,#656);
#585=LINE('',#1439,#657);
#586=LINE('',#1441,#658);
#587=LINE('',#1447,#659);
#588=LINE('',#1449,#660);
#589=LINE('',#1451,#661);
#590=LINE('',#1461,#662);
#591=LINE('',#1465,#663);
#592=LINE('',#1467,#664);
#593=LINE('',#1479,#665);
#594=LINE('',#1481,#666);
#595=LINE('',#1486,#667);
#596=LINE('',#1487,#668);
#597=VECTOR('',#992,1.);
#598=VECTOR('',#993,1.);
#599=VECTOR('',#994,1.);
#600=VECTOR('',#995,1.);
#601=VECTOR('',#996,1.);
#602=VECTOR('',#997,1.);
#603=VECTOR('',#998,1.);
#604=VECTOR('',#999,1.);
#605=VECTOR('',#1016,1.);
#606=VECTOR('',#1017,1.);
#607=VECTOR('',#1018,1.);
#608=VECTOR('',#1021,1.);
#609=VECTOR('',#1022,1.);
#610=VECTOR('',#1025,1.);
#611=VECTOR('',#1028,1.);
#612=VECTOR('',#1029,1.);
#613=VECTOR('',#1032,1.);
#614=VECTOR('',#1033,1.);
#615=VECTOR('',#1034,1.);
#616=VECTOR('',#1037,1.);
#617=VECTOR('',#1040,1.);
#618=VECTOR('',#1043,1.);
#619=VECTOR('',#1044,1.);
#620=VECTOR('',#1049,1.);
#621=VECTOR('',#1050,1.);
#622=VECTOR('',#1051,1.);
#623=VECTOR('',#1054,1.);
#624=VECTOR('',#1055,1.);
#625=VECTOR('',#1056,1.);
#626=VECTOR('',#1059,1.);
#627=VECTOR('',#1060,1.);
#628=VECTOR('',#1061,1.);
#629=VECTOR('',#1062,1.);
#630=VECTOR('',#1067,1.);
#631=VECTOR('',#1072,1.);
#632=VECTOR('',#1073,1.);
#633=VECTOR('',#1078,1.);
#634=VECTOR('',#1083,1.);
#635=VECTOR('',#1084,1.);
#636=VECTOR('',#1085,1.);
#637=VECTOR('',#1112,1.);
#638=VECTOR('',#1113,1.);
#639=VECTOR('',#1114,1.);
#640=VECTOR('',#1121,1.);
#641=VECTOR('',#1130,1.);
#642=VECTOR('',#1131,1.);
#643=VECTOR('',#1132,1.);
#644=VECTOR('',#1133,1.);
#645=VECTOR('',#1134,1.);
#646=VECTOR('',#1135,1.);
#647=VECTOR('',#1136,1.);
#648=VECTOR('',#1137,1.);
#649=VECTOR('',#1140,1.);
#650=VECTOR('',#1141,1.);
#651=VECTOR('',#1144,1.);
#652=VECTOR('',#1145,1.);
#653=VECTOR('',#1148,1.);
#654=VECTOR('',#1151,1.);
#655=VECTOR('',#1154,1.);
#656=VECTOR('',#1155,1.);
#657=VECTOR('',#1158,1.);
#658=VECTOR('',#1161,1.);
#659=VECTOR('',#1170,1.);
#660=VECTOR('',#1173,1.);
#661=VECTOR('',#1174,1.);
#662=VECTOR('',#1181,1.);
#663=VECTOR('',#1184,1.);
#664=VECTOR('',#1187,1.);
#665=VECTOR('',#1194,1.);
#666=VECTOR('',#1197,1.);
#667=VECTOR('',#1202,1.);
#668=VECTOR('',#1203,1.);
#669=EDGE_LOOP('',(#83,#84,#85,#86));
#670=EDGE_LOOP('',(#87,#88,#89,#90));
#671=EDGE_LOOP('',(#91));
#672=EDGE_LOOP('',(#92));
#673=EDGE_LOOP('',(#93));
#674=EDGE_LOOP('',(#94));
#675=EDGE_LOOP('',(#95));
#676=EDGE_LOOP('',(#96));
#677=EDGE_LOOP('',(#97));
#678=EDGE_LOOP('',(#98,#99,#100,#101,#102,#103,#104,#105,#106,#107,#108,
#109,#110,#111,#112,#113,#114,#115));
#679=EDGE_LOOP('',(#116,#117,#118,#119,#120));
#680=EDGE_LOOP('',(#121,#122,#123,#124,#125));
#681=EDGE_LOOP('',(#126,#127,#128,#129));
#682=EDGE_LOOP('',(#130,#131,#132,#133));
#683=EDGE_LOOP('',(#134,#135,#136,#137));
#684=EDGE_LOOP('',(#138,#139,#140,#141,#142,#143));
#685=EDGE_LOOP('',(#144,#145,#146,#147));
#686=EDGE_LOOP('',(#148,#149,#150,#151));
#687=EDGE_LOOP('',(#152));
#688=EDGE_LOOP('',(#153));
#689=EDGE_LOOP('',(#154));
#690=EDGE_LOOP('',(#155));
#691=EDGE_LOOP('',(#156));
#692=EDGE_LOOP('',(#157));
#693=EDGE_LOOP('',(#158));
#694=EDGE_LOOP('',(#159));
#695=EDGE_LOOP('',(#160));
#696=EDGE_LOOP('',(#161));
#697=EDGE_LOOP('',(#162));
#698=EDGE_LOOP('',(#163));
#699=EDGE_LOOP('',(#164,#165,#166,#167));
#700=EDGE_LOOP('',(#168));
#701=EDGE_LOOP('',(#169));
#702=EDGE_LOOP('',(#170,#171,#172,#173,#174,#175,#176,#177,#178,#179,#180,
#181,#182,#183));
#703=EDGE_LOOP('',(#184));
#704=EDGE_LOOP('',(#185));
#705=EDGE_LOOP('',(#186));
#706=EDGE_LOOP('',(#187));
#707=EDGE_LOOP('',(#188));
#708=EDGE_LOOP('',(#189));
#709=EDGE_LOOP('',(#190));
#710=EDGE_LOOP('',(#191,#192,#193,#194));
#711=EDGE_LOOP('',(#195,#196,#197,#198));
#712=EDGE_LOOP('',(#199,#200,#201,#202));
#713=EDGE_LOOP('',(#203,#204,#205,#206));
#714=EDGE_LOOP('',(#207,#208,#209,#210));
#715=EDGE_LOOP('',(#211,#212,#213,#214));
#716=EDGE_LOOP('',(#215,#216,#217,#218));
#717=EDGE_LOOP('',(#219,#220,#221,#222));
#718=EDGE_LOOP('',(#223,#224,#225,#226));
#719=EDGE_LOOP('',(#227,#228,#229,#230));
#720=EDGE_LOOP('',(#231,#232,#233,#234));
#721=EDGE_LOOP('',(#235,#236,#237));
#722=EDGE_LOOP('',(#238,#239,#240,#241));
#723=EDGE_LOOP('',(#242,#243,#244,#245));
#724=EDGE_LOOP('',(#246,#247,#248,#249));
#725=EDGE_LOOP('',(#250,#251,#252));
#726=EDGE_LOOP('',(#253,#254,#255,#256));
#727=EDGE_LOOP('',(#257,#258,#259,#260));
#728=EDGE_LOOP('',(#261,#262,#263,#264));
#729=EDGE_LOOP('',(#265,#266,#267,#268));
#730=EDGE_LOOP('',(#269,#270,#271,#272));
#731=EDGE_LOOP('',(#273,#274,#275,#276));
#732=EDGE_LOOP('',(#277,#278,#279,#280));
#733=EDGE_LOOP('',(#281,#282,#283,#284,#285,#286));
#734=EDGE_LOOP('',(#287,#288,#289,#290));
#735=EDGE_LOOP('',(#291,#292,#293,#294));
#736=EDGE_LOOP('',(#295,#296,#297,#298,#299,#300,#301));
#737=EDGE_LOOP('',(#302,#303,#304,#305,#306,#307));
#738=EDGE_LOOP('',(#308,#309,#310,#311));
#739=EDGE_LOOP('',(#312,#313,#314,#315));
#740=EDGE_LOOP('',(#316,#317,#318,#319,#320,#321,#322));
#741=FACE_BOUND('',#669,.T.);
#742=FACE_BOUND('',#670,.T.);
#743=FACE_BOUND('',#671,.T.);
#744=FACE_BOUND('',#672,.T.);
#745=FACE_BOUND('',#673,.T.);
#746=FACE_BOUND('',#674,.T.);
#747=FACE_BOUND('',#675,.T.);
#748=FACE_BOUND('',#676,.T.);
#749=FACE_BOUND('',#677,.T.);
#750=FACE_BOUND('',#678,.T.);
#751=FACE_BOUND('',#679,.T.);
#752=FACE_BOUND('',#680,.T.);
#753=FACE_BOUND('',#681,.T.);
#754=FACE_BOUND('',#682,.T.);
#755=FACE_BOUND('',#683,.T.);
#756=FACE_BOUND('',#684,.T.);
#757=FACE_BOUND('',#685,.T.);
#758=FACE_BOUND('',#686,.T.);
#759=FACE_BOUND('',#687,.T.);
#760=FACE_BOUND('',#688,.T.);
#761=FACE_BOUND('',#689,.T.);
#762=FACE_BOUND('',#690,.T.);
#763=FACE_BOUND('',#691,.T.);
#764=FACE_BOUND('',#692,.T.);
#765=FACE_BOUND('',#693,.T.);
#766=FACE_BOUND('',#694,.T.);
#767=FACE_BOUND('',#695,.T.);
#768=FACE_BOUND('',#696,.T.);
#769=FACE_BOUND('',#697,.T.);
#770=FACE_BOUND('',#698,.T.);
#771=FACE_BOUND('',#699,.T.);
#772=FACE_BOUND('',#700,.T.);
#773=FACE_BOUND('',#701,.T.);
#774=FACE_BOUND('',#702,.T.);
#775=FACE_BOUND('',#703,.T.);
#776=FACE_BOUND('',#704,.T.);
#777=FACE_BOUND('',#705,.T.);
#778=FACE_BOUND('',#706,.T.);
#779=FACE_BOUND('',#707,.T.);
#780=FACE_BOUND('',#708,.T.);
#781=FACE_BOUND('',#709,.T.);
#782=FACE_BOUND('',#710,.T.);
#783=FACE_BOUND('',#711,.T.);
#784=FACE_BOUND('',#712,.T.);
#785=FACE_BOUND('',#713,.T.);
#786=FACE_BOUND('',#714,.T.);
#787=FACE_BOUND('',#715,.T.);
#788=FACE_BOUND('',#716,.T.);
#789=FACE_BOUND('',#717,.T.);
#790=FACE_BOUND('',#718,.T.);
#791=FACE_BOUND('',#719,.T.);
#792=FACE_BOUND('',#720,.T.);
#793=FACE_BOUND('',#721,.T.);
#794=FACE_BOUND('',#722,.T.);
#795=FACE_BOUND('',#723,.T.);
#796=FACE_BOUND('',#724,.T.);
#797=FACE_BOUND('',#725,.T.);
#798=FACE_BOUND('',#726,.T.);
#799=FACE_BOUND('',#727,.T.);
#800=FACE_BOUND('',#728,.T.);
#801=FACE_BOUND('',#729,.T.);
#802=FACE_BOUND('',#730,.T.);
#803=FACE_BOUND('',#731,.T.);
#804=FACE_BOUND('',#732,.T.);
#805=FACE_BOUND('',#733,.T.);
#806=FACE_BOUND('',#734,.T.);
#807=FACE_BOUND('',#735,.T.);
#808=FACE_BOUND('',#736,.T.);
#809=FACE_BOUND('',#737,.T.);
#810=FACE_BOUND('',#738,.T.);
#811=FACE_BOUND('',#739,.T.);
#812=FACE_BOUND('',#740,.T.);
#813=PLANE('',#897);
#814=PLANE('',#911);
#815=PLANE('',#913);
#816=PLANE('',#915);
#817=PLANE('',#916);
#818=PLANE('',#920);
#819=PLANE('',#924);
#820=PLANE('',#937);
#821=PLANE('',#940);
#822=PLANE('',#945);
#823=PLANE('',#946);
#824=PLANE('',#947);
#825=PLANE('',#948);
#826=PLANE('',#949);
#827=PLANE('',#950);
#828=PLANE('',#951);
#829=PLANE('',#952);
#830=PLANE('',#953);
#831=PLANE('',#954);
#832=PLANE('',#956);
#833=PLANE('',#959);
#834=PLANE('',#961);
#835=PLANE('',#965);
#836=PLANE('',#966);
#837=ADVANCED_FACE('',(#741,#742,#743,#744,#745,#746,#747,#748,#749,#750),
#813,.F.);
#838=ADVANCED_FACE('',(#751),#814,.F.);
#839=ADVANCED_FACE('',(#752),#815,.F.);
#840=ADVANCED_FACE('',(#753),#816,.F.);
#841=ADVANCED_FACE('',(#754),#817,.F.);
#842=ADVANCED_FACE('',(#755),#20,.F.);
#843=ADVANCED_FACE('',(#756),#818,.F.);
#844=ADVANCED_FACE('',(#757),#21,.F.);
#845=ADVANCED_FACE('',(#758),#819,.F.);
#846=ADVANCED_FACE('',(#759,#760),#22,.F.);
#847=ADVANCED_FACE('',(#761,#762),#23,.F.);
#848=ADVANCED_FACE('',(#763,#764),#24,.F.);
#849=ADVANCED_FACE('',(#765,#766),#25,.F.);
#850=ADVANCED_FACE('',(#767,#768),#26,.F.);
#851=ADVANCED_FACE('',(#769,#770),#27,.F.);
#852=ADVANCED_FACE('',(#771),#820,.F.);
#853=ADVANCED_FACE('',(#772,#773),#28,.F.);
#854=ADVANCED_FACE('',(#774,#775,#776,#777,#778,#779,#780,#781,#782,#783),
#821,.T.);
#855=ADVANCED_FACE('',(#784),#822,.T.);
#856=ADVANCED_FACE('',(#785),#823,.F.);
#857=ADVANCED_FACE('',(#786),#824,.T.);
#858=ADVANCED_FACE('',(#787),#825,.T.);
#859=ADVANCED_FACE('',(#788),#826,.F.);
#860=ADVANCED_FACE('',(#789),#827,.T.);
#861=ADVANCED_FACE('',(#790),#828,.T.);
#862=ADVANCED_FACE('',(#791),#829,.F.);
#863=ADVANCED_FACE('',(#792),#830,.F.);
#864=ADVANCED_FACE('',(#793),#831,.T.);
#865=ADVANCED_FACE('',(#794),#832,.F.);
#866=ADVANCED_FACE('',(#795),#29,.F.);
#867=ADVANCED_FACE('',(#796),#833,.F.);
#868=ADVANCED_FACE('',(#797),#834,.F.);
#869=ADVANCED_FACE('',(#798),#30,.F.);
#870=ADVANCED_FACE('',(#799),#835,.T.);
#871=ADVANCED_FACE('',(#800),#836,.F.);
#872=ADVANCED_FACE('',(#801),#31,.T.);
#873=ADVANCED_FACE('',(#802),#32,.T.);
#874=ADVANCED_FACE('',(#803),#33,.T.);
#875=ADVANCED_FACE('',(#804),#34,.T.);
#876=ADVANCED_FACE('',(#805),#35,.T.);
#877=ADVANCED_FACE('',(#806),#12,.T.);
#878=ADVANCED_FACE('',(#807),#13,.T.);
#879=ADVANCED_FACE('',(#808),#36,.T.);
#880=ADVANCED_FACE('',(#809),#37,.T.);
#881=ADVANCED_FACE('',(#810),#14,.T.);
#882=ADVANCED_FACE('',(#811),#15,.T.);
#883=ADVANCED_FACE('',(#812),#38,.T.);
#884=CLOSED_SHELL('',(#837,#838,#839,#840,#841,#842,#843,#844,#845,#846,
#847,#848,#849,#850,#851,#852,#853,#854,#855,#856,#857,#858,#859,#860,#861,
#862,#863,#864,#865,#866,#867,#868,#869,#870,#871,#872,#873,#874,#875,#876,
#877,#878,#879,#880,#881,#882,#883));
#885=STYLED_ITEM('',(#886),#893);
#886=PRESENTATION_STYLE_ASSIGNMENT((#887));
#887=SURFACE_STYLE_USAGE(.BOTH.,#888);
#888=SURFACE_SIDE_STYLE('',(#889));
#889=SURFACE_STYLE_FILL_AREA(#890);
#890=FILL_AREA_STYLE('',(#891));
#891=FILL_AREA_STYLE_COLOUR('',#892);
#892=COLOUR_RGB('',0.615686274509804,0.811764705882353,0.929411764705882);
#893=MANIFOLD_SOLID_BREP('upper_part',#884);
#894=SHAPE_DEFINITION_REPRESENTATION(#1514,#895);
#895=SHAPE_REPRESENTATION('upper_part',(#896),#1509);
#896=AXIS2_PLACEMENT_3D('',#1244,#988,#989);
#897=AXIS2_PLACEMENT_3D('',#1245,#990,#991);
#898=AXIS2_PLACEMENT_3D('',#1262,#1000,#1001);
#899=AXIS2_PLACEMENT_3D('',#1264,#1002,#1003);
#900=AXIS2_PLACEMENT_3D('',#1266,#1004,#1005);
#901=AXIS2_PLACEMENT_3D('',#1268,#1006,#1007);
#902=AXIS2_PLACEMENT_3D('',#1270,#1008,#1009);
#903=AXIS2_PLACEMENT_3D('',#1272,#1010,#1011);
#904=AXIS2_PLACEMENT_3D('',#1274,#1012,#1013);
#905=AXIS2_PLACEMENT_3D('',#1276,#1014,#1015);
#906=AXIS2_PLACEMENT_3D('',#1285,#1019,#1020);
#907=AXIS2_PLACEMENT_3D('',#1291,#1023,#1024);
#908=AXIS2_PLACEMENT_3D('',#1295,#1026,#1027);
#909=AXIS2_PLACEMENT_3D('',#1301,#1030,#1031);
#910=AXIS2_PLACEMENT_3D('',#1309,#1035,#1036);
#911=AXIS2_PLACEMENT_3D('',#1312,#1038,#1039);
#912=AXIS2_PLACEMENT_3D('',#1316,#1041,#1042);
#913=AXIS2_PLACEMENT_3D('',#1320,#1045,#1046);
#914=AXIS2_PLACEMENT_3D('',#1321,#1047,#1048);
#915=AXIS2_PLACEMENT_3D('',#1328,#1052,#1053);
#916=AXIS2_PLACEMENT_3D('',#1334,#1057,#1058);
#917=AXIS2_PLACEMENT_3D('',#1343,#1063,#1064);
#918=AXIS2_PLACEMENT_3D('',#1344,#1065,#1066);
#919=AXIS2_PLACEMENT_3D('',#1348,#1068,#1069);
#920=AXIS2_PLACEMENT_3D('',#1349,#1070,#1071);
#921=AXIS2_PLACEMENT_3D('',#1362,#1074,#1075);
#922=AXIS2_PLACEMENT_3D('',#1363,#1076,#1077);
#923=AXIS2_PLACEMENT_3D('',#1367,#1079,#1080);
#924=AXIS2_PLACEMENT_3D('',#1368,#1081,#1082);
#925=AXIS2_PLACEMENT_3D('',#1374,#1086,#1087);
#926=AXIS2_PLACEMENT_3D('',#1375,#1088,#1089);
#927=AXIS2_PLACEMENT_3D('',#1377,#1090,#1091);
#928=AXIS2_PLACEMENT_3D('',#1378,#1092,#1093);
#929=AXIS2_PLACEMENT_3D('',#1380,#1094,#1095);
#930=AXIS2_PLACEMENT_3D('',#1381,#1096,#1097);
#931=AXIS2_PLACEMENT_3D('',#1383,#1098,#1099);
#932=AXIS2_PLACEMENT_3D('',#1384,#1100,#1101);
#933=AXIS2_PLACEMENT_3D('',#1386,#1102,#1103);
#934=AXIS2_PLACEMENT_3D('',#1387,#1104,#1105);
#935=AXIS2_PLACEMENT_3D('',#1389,#1106,#1107);
#936=AXIS2_PLACEMENT_3D('',#1390,#1108,#1109);
#937=AXIS2_PLACEMENT_3D('',#1392,#1110,#1111);
#938=AXIS2_PLACEMENT_3D('',#1398,#1115,#1116);
#939=AXIS2_PLACEMENT_3D('',#1399,#1117,#1118);
#940=AXIS2_PLACEMENT_3D('',#1401,#1119,#1120);
#941=AXIS2_PLACEMENT_3D('',#1405,#1122,#1123);
#942=AXIS2_PLACEMENT_3D('',#1406,#1124,#1125);
#943=AXIS2_PLACEMENT_3D('',#1407,#1126,#1127);
#944=AXIS2_PLACEMENT_3D('',#1408,#1128,#1129);
#945=AXIS2_PLACEMENT_3D('',#1425,#1138,#1139);
#946=AXIS2_PLACEMENT_3D('',#1428,#1142,#1143);
#947=AXIS2_PLACEMENT_3D('',#1431,#1146,#1147);
#948=AXIS2_PLACEMENT_3D('',#1433,#1149,#1150);
#949=AXIS2_PLACEMENT_3D('',#1435,#1152,#1153);
#950=AXIS2_PLACEMENT_3D('',#1438,#1156,#1157);
#951=AXIS2_PLACEMENT_3D('',#1440,#1159,#1160);
#952=AXIS2_PLACEMENT_3D('',#1442,#1162,#1163);
#953=AXIS2_PLACEMENT_3D('',#1443,#1164,#1165);
#954=AXIS2_PLACEMENT_3D('',#1444,#1166,#1167);
#955=AXIS2_PLACEMENT_3D('',#1445,#1168,#1169);
#956=AXIS2_PLACEMENT_3D('',#1448,#1171,#1172);
#957=AXIS2_PLACEMENT_3D('',#1452,#1175,#1176);
#958=AXIS2_PLACEMENT_3D('',#1453,#1177,#1178);
#959=AXIS2_PLACEMENT_3D('',#1460,#1179,#1180);
#960=AXIS2_PLACEMENT_3D('',#1463,#1182,#1183);
#961=AXIS2_PLACEMENT_3D('',#1466,#1185,#1186);
#962=AXIS2_PLACEMENT_3D('',#1469,#1188,#1189);
#963=AXIS2_PLACEMENT_3D('',#1470,#1190,#1191);
#964=AXIS2_PLACEMENT_3D('',#1477,#1192,#1193);
#965=AXIS2_PLACEMENT_3D('',#1480,#1195,#1196);
#966=AXIS2_PLACEMENT_3D('',#1482,#1198,#1199);
#967=AXIS2_PLACEMENT_3D('',#1483,#1200,#1201);
#968=AXIS2_PLACEMENT_3D('',#1488,#1204,#1205);
#969=AXIS2_PLACEMENT_3D('',#1489,#1206,#1207);
#970=AXIS2_PLACEMENT_3D('',#1490,#1208,#1209);
#971=AXIS2_PLACEMENT_3D('',#1491,#1210,#1211);
#972=AXIS2_PLACEMENT_3D('',#1492,#1212,#1213);
#973=AXIS2_PLACEMENT_3D('',#1493,#1214,#1215);
#974=AXIS2_PLACEMENT_3D('',#1494,#1216,#1217);
#975=AXIS2_PLACEMENT_3D('',#1495,#1218,#1219);
#976=AXIS2_PLACEMENT_3D('',#1496,#1220,#1221);
#977=AXIS2_PLACEMENT_3D('',#1497,#1222,#1223);
#978=AXIS2_PLACEMENT_3D('',#1498,#1224,#1225);
#979=AXIS2_PLACEMENT_3D('',#1499,#1226,#1227);
#980=AXIS2_PLACEMENT_3D('',#1500,#1228,#1229);
#981=AXIS2_PLACEMENT_3D('',#1501,#1230,#1231);
#982=AXIS2_PLACEMENT_3D('',#1502,#1232,#1233);
#983=AXIS2_PLACEMENT_3D('',#1503,#1234,#1235);
#984=AXIS2_PLACEMENT_3D('',#1504,#1236,#1237);
#985=AXIS2_PLACEMENT_3D('',#1505,#1238,#1239);
#986=AXIS2_PLACEMENT_3D('',#1506,#1240,#1241);
#987=AXIS2_PLACEMENT_3D('',#1507,#1242,#1243);
#988=DIRECTION('',(0.,0.,1.));
#989=DIRECTION('',(1.,0.,0.));
#990=DIRECTION('',(0.,0.,1.));
#991=DIRECTION('',(1.,0.,0.));
#992=DIRECTION('',(0.,-1.,0.));
#993=DIRECTION('',(1.,0.,0.));
#994=DIRECTION('',(0.,-1.,0.));
#995=DIRECTION('',(1.,0.,0.));
#996=DIRECTION('',(0.,-1.,0.));
#997=DIRECTION('',(1.,0.,0.));
#998=DIRECTION('',(0.,-1.,0.));
#999=DIRECTION('',(1.,0.,0.));
#1000=DIRECTION('',(0.,0.,1.));
#1001=DIRECTION('',(1.,0.,0.));
#1002=DIRECTION('',(0.,0.,1.));
#1003=DIRECTION('',(1.,0.,0.));
#1004=DIRECTION('',(0.,0.,1.));
#1005=DIRECTION('',(1.,0.,0.));
#1006=DIRECTION('',(0.,0.,1.));
#1007=DIRECTION('',(1.,0.,0.));
#1008=DIRECTION('',(0.,0.,1.));
#1009=DIRECTION('',(1.,0.,0.));
#1010=DIRECTION('',(0.,0.,1.));
#1011=DIRECTION('',(1.,0.,0.));
#1012=DIRECTION('',(0.,0.,1.));
#1013=DIRECTION('',(1.,0.,0.));
#1014=DIRECTION('',(0.,0.,1.));
#1015=DIRECTION('',(1.,0.,0.));
#1016=DIRECTION('',(0.,-1.,0.));
#1017=DIRECTION('',(1.,0.,0.));
#1018=DIRECTION('',(0.,-1.,0.));
#1019=DIRECTION('',(0.,0.,1.));
#1020=DIRECTION('',(1.,0.,0.));
#1021=DIRECTION('',(1.,0.,0.));
#1022=DIRECTION('',(1.44560289664734E-16,-1.,0.));
#1023=DIRECTION('',(0.,0.,1.));
#1024=DIRECTION('',(1.,0.,0.));
#1025=DIRECTION('',(1.,2.50050230771432E-16,0.));
#1026=DIRECTION('',(0.,0.,1.));
#1027=DIRECTION('',(1.,0.,0.));
#1028=DIRECTION('',(0.,1.,0.));
#1029=DIRECTION('',(-1.,0.,0.));
#1030=DIRECTION('',(0.,0.,1.));
#1031=DIRECTION('',(1.,0.,0.));
#1032=DIRECTION('',(3.0678020068484E-16,-1.,0.));
#1033=DIRECTION('',(-1.,0.,0.));
#1034=DIRECTION('',(1.13752359080446E-16,-1.,0.));
#1035=DIRECTION('',(0.,0.,1.));
#1036=DIRECTION('',(1.,0.,0.));
#1037=DIRECTION('',(1.,0.,0.));
#1038=DIRECTION('',(1.,0.,0.));
#1039=DIRECTION('',(0.,0.,-1.));
#1040=DIRECTION('',(0.,0.,1.));
#1041=DIRECTION('',(1.,0.,0.));
#1042=DIRECTION('',(0.,0.,-1.));
#1043=DIRECTION('',(0.,0.,1.));
#1044=DIRECTION('',(0.,1.,0.));
#1045=DIRECTION('',(-1.,-1.44560289664734E-16,0.));
#1046=DIRECTION('',(1.44560289664734E-16,-1.,0.));
#1047=DIRECTION('',(-1.,-1.44560289664734E-16,0.));
#1048=DIRECTION('',(1.44560289664734E-16,-1.,0.));
#1049=DIRECTION('',(0.,0.,1.));
#1050=DIRECTION('',(1.44560289664734E-16,-1.,0.));
#1051=DIRECTION('',(0.,0.,1.));
#1052=DIRECTION('',(0.,-1.,0.));
#1053=DIRECTION('',(0.,0.,-1.));
#1054=DIRECTION('',(1.,0.,0.));
#1055=DIRECTION('',(0.,0.,1.));
#1056=DIRECTION('',(1.,0.,0.));
#1057=DIRECTION('',(1.,0.,0.));
#1058=DIRECTION('',(0.,0.,-1.));
#1059=DIRECTION('',(0.,0.,1.));
#1060=DIRECTION('',(0.,-1.,0.));
#1061=DIRECTION('',(0.,0.,1.));
#1062=DIRECTION('',(0.,1.,0.));
#1063=DIRECTION('',(0.,0.,1.));
#1064=DIRECTION('',(1.,0.,0.));
#1065=DIRECTION('',(0.,0.,1.));
#1066=DIRECTION('',(1.,0.,0.));
#1067=DIRECTION('',(0.,0.,1.));
#1068=DIRECTION('',(0.,0.,1.));
#1069=DIRECTION('',(1.,0.,0.));
#1070=DIRECTION('',(0.,-1.,0.));
#1071=DIRECTION('',(0.,0.,-1.));
#1072=DIRECTION('',(0.,0.,1.));
#1073=DIRECTION('',(1.,0.,0.));
#1074=DIRECTION('',(0.,0.,1.));
#1075=DIRECTION('',(1.,0.,0.));
#1076=DIRECTION('',(0.,0.,1.));
#1077=DIRECTION('',(1.,0.,0.));
#1078=DIRECTION('',(0.,0.,1.));
#1079=DIRECTION('',(0.,0.,1.));
#1080=DIRECTION('',(1.,0.,0.));
#1081=DIRECTION('',(-1.,-1.13752359080446E-16,0.));
#1082=DIRECTION('',(1.13752359080446E-16,-1.,0.));
#1083=DIRECTION('',(1.13752359080446E-16,-1.,0.));
#1084=DIRECTION('',(0.,0.,1.));
#1085=DIRECTION('',(1.13752359080446E-16,-1.,0.));
#1086=DIRECTION('',(0.,0.,1.));
#1087=DIRECTION('',(1.,0.,0.));
#1088=DIRECTION('',(0.,0.,1.));
#1089=DIRECTION('',(1.,0.,0.));
#1090=DIRECTION('',(0.,0.,1.));
#1091=DIRECTION('',(1.,0.,0.));
#1092=DIRECTION('',(0.,0.,1.));
#1093=DIRECTION('',(1.,0.,0.));
#1094=DIRECTION('',(0.,0.,1.));
#1095=DIRECTION('',(1.,0.,0.));
#1096=DIRECTION('',(0.,0.,1.));
#1097=DIRECTION('',(1.,0.,0.));
#1098=DIRECTION('',(0.,0.,1.));
#1099=DIRECTION('',(1.,0.,0.));
#1100=DIRECTION('',(0.,0.,1.));
#1101=DIRECTION('',(1.,0.,0.));
#1102=DIRECTION('',(0.,0.,1.));
#1103=DIRECTION('',(1.,0.,0.));
#1104=DIRECTION('',(0.,0.,1.));
#1105=DIRECTION('',(1.,0.,0.));
#1106=DIRECTION('',(0.,0.,1.));
#1107=DIRECTION('',(1.,0.,0.));
#1108=DIRECTION('',(0.,0.,1.));
#1109=DIRECTION('',(1.,0.,0.));
#1110=DIRECTION('',(0.,-1.,0.));
#1111=DIRECTION('',(0.,0.,-1.));
#1112=DIRECTION('',(0.,0.,1.));
#1113=DIRECTION('',(-1.,0.,0.));
#1114=DIRECTION('',(1.,0.,0.));
#1115=DIRECTION('',(0.,0.,1.));
#1116=DIRECTION('',(1.,0.,0.));
#1117=DIRECTION('',(0.,0.,1.));
#1118=DIRECTION('',(1.,0.,0.));
#1119=DIRECTION('',(0.,0.,1.));
#1120=DIRECTION('',(1.,0.,0.));
#1121=DIRECTION('',(1.,2.50050230771432E-16,0.));
#1122=DIRECTION('',(0.,0.,1.));
#1123=DIRECTION('',(1.,0.,0.));
#1124=DIRECTION('',(0.,0.,1.));
#1125=DIRECTION('',(1.,0.,0.));
#1126=DIRECTION('',(0.,0.,1.));
#1127=DIRECTION('',(1.,0.,0.));
#1128=DIRECTION('',(0.,0.,1.));
#1129=DIRECTION('',(1.,0.,0.));
#1130=DIRECTION('',(0.,-1.,0.));
#1131=DIRECTION('',(1.,0.,0.));
#1132=DIRECTION('',(0.,-1.,0.));
#1133=DIRECTION('',(1.,0.,0.));
#1134=DIRECTION('',(0.,-1.,0.));
#1135=DIRECTION('',(1.,0.,0.));
#1136=DIRECTION('',(0.,-1.,0.));
#1137=DIRECTION('',(1.,0.,0.));
#1138=DIRECTION('',(2.50050230771432E-16,-1.,0.));
#1139=DIRECTION('',(1.,2.50050230771432E-16,0.));
#1140=DIRECTION('',(0.,0.,1.));
#1141=DIRECTION('',(0.,0.,1.));
#1142=DIRECTION('',(-1.,0.,0.));
#1143=DIRECTION('',(0.,0.,1.));
#1144=DIRECTION('',(0.,0.,1.));
#1145=DIRECTION('',(0.,0.,1.));
#1146=DIRECTION('',(0.,-1.,0.));
#1147=DIRECTION('',(0.,0.,-1.));
#1148=DIRECTION('',(0.,0.,1.));
#1149=DIRECTION('',(-1.,0.,0.));
#1150=DIRECTION('',(0.,0.,1.));
#1151=DIRECTION('',(0.,0.,1.));
#1152=DIRECTION('',(-1.,0.,0.));
#1153=DIRECTION('',(0.,0.,1.));
#1154=DIRECTION('',(0.,0.,1.));
#1155=DIRECTION('',(0.,0.,1.));
#1156=DIRECTION('',(0.,-1.,0.));
#1157=DIRECTION('',(0.,0.,-1.));
#1158=DIRECTION('',(0.,0.,1.));
#1159=DIRECTION('',(-1.,0.,0.));
#1160=DIRECTION('',(0.,0.,1.));
#1161=DIRECTION('',(0.,0.,1.));
#1162=DIRECTION('',(0.,-1.,0.));
#1163=DIRECTION('',(0.,0.,-1.));
#1164=DIRECTION('',(0.,-1.,0.));
#1165=DIRECTION('',(0.,0.,-1.));
#1166=DIRECTION('',(0.,-1.,0.));
#1167=DIRECTION('',(0.,0.,-1.));
#1168=DIRECTION('',(0.,-1.,0.));
#1169=DIRECTION('',(0.,0.,-1.));
#1170=DIRECTION('',(0.,0.,1.));
#1171=DIRECTION('',(-1.,0.,0.));
#1172=DIRECTION('',(0.,0.,1.));
#1173=DIRECTION('',(0.,0.,1.));
#1174=DIRECTION('',(0.,-1.,0.));
#1175=DIRECTION('',(0.,0.,1.));
#1176=DIRECTION('',(1.,0.,0.));
#1177=DIRECTION('',(0.,0.,1.));
#1178=DIRECTION('',(1.,0.,0.));
#1179=DIRECTION('',(0.,0.,1.));
#1180=DIRECTION('',(1.,0.,0.));
#1181=DIRECTION('',(0.,-1.,0.));
#1182=DIRECTION('',(0.,0.,1.));
#1183=DIRECTION('',(1.,0.,0.));
#1184=DIRECTION('',(1.,0.,0.));
#1185=DIRECTION('',(0.,1.,0.));
#1186=DIRECTION('',(0.,0.,1.));
#1187=DIRECTION('',(0.,0.,1.));
#1188=DIRECTION('',(0.,1.,0.));
#1189=DIRECTION('',(0.,0.,1.));
#1190=DIRECTION('',(0.,0.,1.));
#1191=DIRECTION('',(1.,0.,0.));
#1192=DIRECTION('',(0.,0.,1.));
#1193=DIRECTION('',(1.,0.,0.));
#1194=DIRECTION('',(0.,0.,1.));
#1195=DIRECTION('',(-1.,-3.0678020068484E-16,0.));
#1196=DIRECTION('',(3.0678020068484E-16,-1.,0.));
#1197=DIRECTION('',(3.0678020068484E-16,-1.,0.));
#1198=DIRECTION('',(0.,0.,1.));
#1199=DIRECTION('',(1.,0.,0.));
#1200=DIRECTION('',(0.,0.,1.));
#1201=DIRECTION('',(1.,0.,0.));
#1202=DIRECTION('',(1.13752359080446E-16,-1.,0.));
#1203=DIRECTION('',(-1.,0.,0.));
#1204=DIRECTION('',(0.,0.,-1.));
#1205=DIRECTION('',(-1.,0.,0.));
#1206=DIRECTION('',(0.,0.,-1.));
#1207=DIRECTION('',(-1.,0.,0.));
#1208=DIRECTION('',(0.,0.,1.));
#1209=DIRECTION('',(1.,0.,0.));
#1210=DIRECTION('',(0.,0.,1.));
#1211=DIRECTION('',(1.,0.,0.));
#1212=DIRECTION('',(0.,0.,1.));
#1213=DIRECTION('',(1.,0.,0.));
#1214=DIRECTION('',(0.,0.,1.));
#1215=DIRECTION('',(1.,0.,0.));
#1216=DIRECTION('',(1.,0.,0.));
#1217=DIRECTION('',(0.,0.,-1.));
#1218=DIRECTION('',(-1.,0.,0.));
#1219=DIRECTION('',(0.,0.,1.));
#1220=DIRECTION('',(0.,0.,1.));
#1221=DIRECTION('',(1.,0.,0.));
#1222=DIRECTION('',(0.,-1.,0.));
#1223=DIRECTION('',(0.,0.,-1.));
#1224=DIRECTION('',(0.,0.,1.));
#1225=DIRECTION('',(1.,0.,0.));
#1226=DIRECTION('',(0.,1.,0.));
#1227=DIRECTION('',(0.,0.,1.));
#1228=DIRECTION('',(0.,-1.,0.));
#1229=DIRECTION('',(0.,0.,-1.));
#1230=DIRECTION('',(-1.,0.,0.));
#1231=DIRECTION('',(0.,0.,1.));
#1232=DIRECTION('',(1.,0.,0.));
#1233=DIRECTION('',(0.,0.,-1.));
#1234=DIRECTION('',(0.,0.,1.));
#1235=DIRECTION('',(1.,0.,0.));
#1236=DIRECTION('',(0.,-1.,0.));
#1237=DIRECTION('',(0.,0.,-1.));
#1238=DIRECTION('',(0.,0.,1.));
#1239=DIRECTION('',(1.,0.,0.));
#1240=DIRECTION('',(0.,1.,0.));
#1241=DIRECTION('',(0.,0.,1.));
#1242=DIRECTION('',(1.13752359080446E-16,-1.,0.));
#1243=DIRECTION('',(1.,1.13752359080446E-16,0.));
#1244=CARTESIAN_POINT('',(0.,0.,0.));
#1245=CARTESIAN_POINT('',(6.93889390390723E-18,-0.03,-0.009));
#1246=CARTESIAN_POINT('',(-0.0355,-0.088,-0.009));
#1247=CARTESIAN_POINT('',(-0.0355,-0.0755,-0.009));
#1248=CARTESIAN_POINT('',(-0.0355,-0.1005,-0.009));
#1249=CARTESIAN_POINT('',(-0.031,-0.1005,-0.009));
#1250=CARTESIAN_POINT('',(-0.0265,-0.1005,-0.009));
#1251=CARTESIAN_POINT('',(-0.0265,-0.088,-0.009));
#1252=CARTESIAN_POINT('',(-0.0265,-0.0755,-0.009));
#1253=CARTESIAN_POINT('',(-0.031,-0.0755,-0.009));
#1254=CARTESIAN_POINT('',(0.0265,-0.088,-0.009));
#1255=CARTESIAN_POINT('',(0.0265,-0.0755,-0.009));
#1256=CARTESIAN_POINT('',(0.0265,-0.1005,-0.009));
#1257=CARTESIAN_POINT('',(0.031,-0.1005,-0.009));
#1258=CARTESIAN_POINT('',(0.0355,-0.1005,-0.009));
#1259=CARTESIAN_POINT('',(0.0355,-0.088,-0.009));
#1260=CARTESIAN_POINT('',(0.0355,-0.0755,-0.009));
#1261=CARTESIAN_POINT('',(0.031,-0.0755,-0.009));
#1262=CARTESIAN_POINT('',(-0.0425,-0.0355,-0.009));
#1263=CARTESIAN_POINT('',(-0.0405,-0.0355,-0.009));
#1264=CARTESIAN_POINT('',(0.0425,-0.0355,-0.009));
#1265=CARTESIAN_POINT('',(0.0445,-0.0355,-0.009));
#1266=CARTESIAN_POINT('',(-0.0355,-0.0555,-0.009));
#1267=CARTESIAN_POINT('',(-0.0335,-0.0555,-0.009));
#1268=CARTESIAN_POINT('',(0.0355,-0.0555,-0.009));
#1269=CARTESIAN_POINT('',(0.0375,-0.0555,-0.009));
#1270=CARTESIAN_POINT('',(0.,-0.0555,-0.009));
#1271=CARTESIAN_POINT('',(0.002,-0.0555,-0.009));
#1272=CARTESIAN_POINT('',(0.0495,0.0425,-0.009));
#1273=CARTESIAN_POINT('',(0.0515,0.0425,-0.009));
#1274=CARTESIAN_POINT('',(-0.0495,0.0425,-0.009));
#1275=CARTESIAN_POINT('',(-0.0475,0.0425,-0.009));
#1276=CARTESIAN_POINT('',(0.0105,-0.0105,-0.009));
#1277=CARTESIAN_POINT('',(0.00979193447161583,-0.0355,-0.009));
#1278=CARTESIAN_POINT('',(0.0355100251257867,-0.0105,-0.009));
#1279=CARTESIAN_POINT('',(0.0355100251257867,-0.0105,-0.009));
#1280=CARTESIAN_POINT('',(0.0355100251257867,-0.0095,-0.009));
#1281=CARTESIAN_POINT('',(6.93889390390723E-18,-0.0095,-0.009));
#1282=CARTESIAN_POINT('',(0.0375,-0.0095,-0.009));
#1283=CARTESIAN_POINT('',(0.0375,-0.03,-0.009));
#1284=CARTESIAN_POINT('',(0.0375,0.0357369083038424,-0.009));
#1285=CARTESIAN_POINT('',(0.0555,0.0321451429150775,-0.009));
#1286=CARTESIAN_POINT('',(0.0548934367312463,0.0504899748742132,-0.009));
#1287=CARTESIAN_POINT('',(0.0548934367312463,0.0504899748742132,-0.009));
#1288=CARTESIAN_POINT('',(0.0555,0.0504899748742132,-0.009));
#1289=CARTESIAN_POINT('',(0.0555,0.0025,-0.009));
#1290=CARTESIAN_POINT('',(0.0555,-0.1025,-0.009));
#1291=CARTESIAN_POINT('',(0.0475,-0.1025,-0.009));
#1292=CARTESIAN_POINT('',(0.0475,-0.1105,-0.009));
#1293=CARTESIAN_POINT('',(6.93889390390723E-18,-0.1105,-0.009));
#1294=CARTESIAN_POINT('',(-0.0475,-0.1105,-0.009));
#1295=CARTESIAN_POINT('',(-0.0475,-0.1025,-0.009));
#1296=CARTESIAN_POINT('',(-0.0555,-0.1025,-0.009));
#1297=CARTESIAN_POINT('',(-0.0555,0.0025,-0.009));
#1298=CARTESIAN_POINT('',(-0.0555,0.0504899748742132,-0.009));
#1299=CARTESIAN_POINT('',(-0.0555,0.0504899748742132,-0.009));
#1300=CARTESIAN_POINT('',(-0.0548934367312459,0.0504899748742132,-0.009));
#1301=CARTESIAN_POINT('',(-0.0555,0.0321451429150776,-0.009));
#1302=CARTESIAN_POINT('',(-0.0375,0.0357369083038424,-0.009));
#1303=CARTESIAN_POINT('',(-0.0375,-0.03,-0.009));
#1304=CARTESIAN_POINT('',(-0.0375,-0.0095,-0.009));
#1305=CARTESIAN_POINT('',(6.93889390390723E-18,-0.0095,-0.009));
#1306=CARTESIAN_POINT('',(-0.0355100251257867,-0.0095,-0.009));
#1307=CARTESIAN_POINT('',(-0.0355100251257867,-0.0095,-0.009));
#1308=CARTESIAN_POINT('',(-0.0355100251257867,-0.0105,-0.009));
#1309=CARTESIAN_POINT('',(-0.0105,-0.0105,-0.009));
#1310=CARTESIAN_POINT('',(-0.00979193447161614,-0.0355,-0.009));
#1311=CARTESIAN_POINT('',(6.93889390390723E-18,-0.0355,-0.009));
#1312=CARTESIAN_POINT('',(-0.0555,0.0025,-0.009));
#1313=CARTESIAN_POINT('',(-0.0555,0.0505,-0.009));
#1314=CARTESIAN_POINT('',(-0.0555,0.0505,-0.0088));
#1315=CARTESIAN_POINT('',(-0.0555,0.0505,0.));
#1316=CARTESIAN_POINT('',(-0.0555,0.0485,-0.0088));
#1317=CARTESIAN_POINT('',(-0.0555,-0.1025,0.));
#1318=CARTESIAN_POINT('',(-0.0555,-0.1025,0.));
#1319=CARTESIAN_POINT('',(-0.0555,0.0025,0.));
#1320=CARTESIAN_POINT('',(0.0555,0.0025,-0.009));
#1321=CARTESIAN_POINT('',(0.0555,0.0485,-0.0088));
#1322=CARTESIAN_POINT('',(0.0555,0.0505,-0.0088));
#1323=CARTESIAN_POINT('',(0.0555,0.0505,-0.009));
#1324=CARTESIAN_POINT('',(0.0555,0.0505,0.));
#1325=CARTESIAN_POINT('',(0.0555,0.0025,0.));
#1326=CARTESIAN_POINT('',(0.0555,-0.1025,0.));
#1327=CARTESIAN_POINT('',(0.0555,-0.1025,-0.009));
#1328=CARTESIAN_POINT('',(0.0455,0.0505,-0.009));
#1329=CARTESIAN_POINT('',(0.0455,0.0505,-0.0088));
#1330=CARTESIAN_POINT('',(0.0435,0.0505,-0.0088));
#1331=CARTESIAN_POINT('',(0.0435,0.0505,-0.009));
#1332=CARTESIAN_POINT('',(0.0435,0.0505,0.));
#1333=CARTESIAN_POINT('',(0.0455,0.0505,0.));
#1334=CARTESIAN_POINT('',(0.0355,0.02,-0.009));
#1335=CARTESIAN_POINT('',(0.0355,0.0425,-0.009));
#1336=CARTESIAN_POINT('',(0.0355,0.0425,0.));
#1337=CARTESIAN_POINT('',(0.0355,0.0425,-0.0088));
#1338=CARTESIAN_POINT('',(0.0355,0.02,-0.0088));
#1339=CARTESIAN_POINT('',(0.0355,-0.0105,-0.0088));
#1340=CARTESIAN_POINT('',(0.0355,-0.0105,-0.009));
#1341=CARTESIAN_POINT('',(0.0355,-0.0105,0.));
#1342=CARTESIAN_POINT('',(0.0355,0.02,0.));
#1343=CARTESIAN_POINT('',(0.0105,-0.0105,-0.009));
#1344=CARTESIAN_POINT('',(0.0105,-0.0105,-0.0088));
#1345=CARTESIAN_POINT('',(0.0105,-0.0355,-0.0088));
#1346=CARTESIAN_POINT('',(0.0105,-0.0355,-0.009));
#1347=CARTESIAN_POINT('',(0.0105,-0.0355,0.));
#1348=CARTESIAN_POINT('',(0.0105,-0.0105,0.));
#1349=CARTESIAN_POINT('',(6.93889390390723E-18,-0.0355,-0.009));
#1350=CARTESIAN_POINT('',(0.00979193447161583,-0.0355,-0.009));
#1351=CARTESIAN_POINT('',(0.0100280036259279,-0.0355,-0.00893350083913305));
#1352=CARTESIAN_POINT('',(0.0102640017707593,-0.0355,-0.0088667502123924));
#1353=CARTESIAN_POINT('',(0.0105,-0.0355,-0.0088));
#1354=CARTESIAN_POINT('',(-0.00979193447161614,-0.0355,-0.009));
#1355=CARTESIAN_POINT('',(-0.0100280036259281,-0.0355,-0.0089335008391331));
#1356=CARTESIAN_POINT('',(-0.0102640017707629,-0.0355,-0.00886675021240473));
#1357=CARTESIAN_POINT('',(-0.0105,-0.0355,-0.0088));
#1358=CARTESIAN_POINT('',(-0.0105,-0.0355,-0.0088));
#1359=CARTESIAN_POINT('',(-0.0105,-0.0355,-0.009));
#1360=CARTESIAN_POINT('',(-0.0105,-0.0355,0.));
#1361=CARTESIAN_POINT('',(6.93889390390723E-18,-0.0355,0.));
#1362=CARTESIAN_POINT('',(-0.0105,-0.0105,-0.009));
#1363=CARTESIAN_POINT('',(-0.0105,-0.0105,-0.0088));
#1364=CARTESIAN_POINT('',(-0.0355,-0.0105,-0.0088));
#1365=CARTESIAN_POINT('',(-0.0355,-0.0105,-0.009));
#1366=CARTESIAN_POINT('',(-0.0355,-0.0105,0.));
#1367=CARTESIAN_POINT('',(-0.0105,-0.0105,0.));
#1368=CARTESIAN_POINT('',(-0.0355,0.02,-0.009));
#1369=CARTESIAN_POINT('',(-0.0355,0.02,-0.0088));
#1370=CARTESIAN_POINT('',(-0.0355,0.0425,-0.0088));
#1371=CARTESIAN_POINT('',(-0.0355,0.0425,-0.009));
#1372=CARTESIAN_POINT('',(-0.0355,0.0425,0.));
#1373=CARTESIAN_POINT('',(-0.0355,0.02,0.));
#1374=CARTESIAN_POINT('',(0.0425,-0.0355,-0.009));
#1375=CARTESIAN_POINT('',(0.0425,-0.0355,0.));
#1376=CARTESIAN_POINT('',(0.0445,-0.0355,0.));
#1377=CARTESIAN_POINT('',(-0.0355,-0.0555,-0.009));
#1378=CARTESIAN_POINT('',(-0.0355,-0.0555,0.));
#1379=CARTESIAN_POINT('',(-0.0335,-0.0555,0.));
#1380=CARTESIAN_POINT('',(0.0355,-0.0555,-0.009));
#1381=CARTESIAN_POINT('',(0.0355,-0.0555,0.));
#1382=CARTESIAN_POINT('',(0.0375,-0.0555,0.));
#1383=CARTESIAN_POINT('',(0.,-0.0555,-0.009));
#1384=CARTESIAN_POINT('',(0.,-0.0555,0.));
#1385=CARTESIAN_POINT('',(0.002,-0.0555,0.));
#1386=CARTESIAN_POINT('',(0.0495,0.0425,-0.009));
#1387=CARTESIAN_POINT('',(0.0495,0.0425,0.));
#1388=CARTESIAN_POINT('',(0.0515,0.0425,0.));
#1389=CARTESIAN_POINT('',(-0.0495,0.0425,-0.009));
#1390=CARTESIAN_POINT('',(-0.0495,0.0425,0.));
#1391=CARTESIAN_POINT('',(-0.0475,0.0425,0.));
#1392=CARTESIAN_POINT('',(-0.0455,0.0505,-0.009));
#1393=CARTESIAN_POINT('',(-0.0435,0.0505,-0.009));
#1394=CARTESIAN_POINT('',(-0.0435,0.0505,0.));
#1395=CARTESIAN_POINT('',(-0.0435,0.0505,-0.0088));
#1396=CARTESIAN_POINT('',(-0.0455,0.0505,-0.0088));
#1397=CARTESIAN_POINT('',(-0.0455,0.0505,0.));
#1398=CARTESIAN_POINT('',(-0.0425,-0.0355,-0.009));
#1399=CARTESIAN_POINT('',(-0.0425,-0.0355,0.));
#1400=CARTESIAN_POINT('',(-0.0405,-0.0355,0.));
#1401=CARTESIAN_POINT('',(6.93889390390723E-18,-0.03,0.));
#1402=CARTESIAN_POINT('',(6.93889390390723E-18,-0.1105,0.));
#1403=CARTESIAN_POINT('',(-0.0475,-0.1105,0.));
#1404=CARTESIAN_POINT('',(0.0475,-0.1105,0.));
#1405=CARTESIAN_POINT('',(0.0475,-0.1025,0.));
#1406=CARTESIAN_POINT('',(0.0435,0.0425,0.));
#1407=CARTESIAN_POINT('',(-0.0435,0.0425,0.));
#1408=CARTESIAN_POINT('',(-0.0475,-0.1025,0.));
#1409=CARTESIAN_POINT('',(0.0265,-0.088,0.));
#1410=CARTESIAN_POINT('',(0.0265,-0.0755,0.));
#1411=CARTESIAN_POINT('',(0.0265,-0.1005,0.));
#1412=CARTESIAN_POINT('',(0.031,-0.0755,0.));
#1413=CARTESIAN_POINT('',(0.0355,-0.0755,0.));
#1414=CARTESIAN_POINT('',(0.0355,-0.088,0.));
#1415=CARTESIAN_POINT('',(0.0355,-0.1005,0.));
#1416=CARTESIAN_POINT('',(0.031,-0.1005,0.));
#1417=CARTESIAN_POINT('',(-0.0355,-0.088,0.));
#1418=CARTESIAN_POINT('',(-0.0355,-0.0755,0.));
#1419=CARTESIAN_POINT('',(-0.0355,-0.1005,0.));
#1420=CARTESIAN_POINT('',(-0.031,-0.0755,0.));
#1421=CARTESIAN_POINT('',(-0.0265,-0.0755,0.));
#1422=CARTESIAN_POINT('',(-0.0265,-0.088,0.));
#1423=CARTESIAN_POINT('',(-0.0265,-0.1005,0.));
#1424=CARTESIAN_POINT('',(-0.031,-0.1005,0.));
#1425=CARTESIAN_POINT('',(6.93889390390723E-18,-0.1105,-0.009));
#1426=CARTESIAN_POINT('',(0.0475,-0.1105,0.));
#1427=CARTESIAN_POINT('',(-0.0475,-0.1105,-0.009));
#1428=CARTESIAN_POINT('',(-0.0355,-0.088,-0.009));
#1429=CARTESIAN_POINT('',(-0.0355,-0.1005,-0.009));
#1430=CARTESIAN_POINT('',(-0.0355,-0.0755,-0.009));
#1431=CARTESIAN_POINT('',(-0.031,-0.0755,-0.009));
#1432=CARTESIAN_POINT('',(-0.0265,-0.0755,-0.009));
#1433=CARTESIAN_POINT('',(-0.0265,-0.088,-0.009));
#1434=CARTESIAN_POINT('',(-0.0265,-0.1005,-0.009));
#1435=CARTESIAN_POINT('',(0.0265,-0.088,-0.009));
#1436=CARTESIAN_POINT('',(0.0265,-0.1005,-0.009));
#1437=CARTESIAN_POINT('',(0.0265,-0.0755,-0.009));
#1438=CARTESIAN_POINT('',(0.031,-0.0755,-0.009));
#1439=CARTESIAN_POINT('',(0.0355,-0.0755,-0.009));
#1440=CARTESIAN_POINT('',(0.0355,-0.088,-0.009));
#1441=CARTESIAN_POINT('',(0.0355,-0.1005,-0.009));
#1442=CARTESIAN_POINT('',(-0.031,-0.1005,-0.009));
#1443=CARTESIAN_POINT('',(0.031,-0.1005,-0.009));
#1444=CARTESIAN_POINT('',(0.0365,-0.0095,-0.0108));
#1445=CARTESIAN_POINT('',(0.0375,-0.0095,-0.0088));
#1446=CARTESIAN_POINT('',(0.0375,-0.0095,-0.0108));
#1447=CARTESIAN_POINT('',(0.0375,-0.0095,-0.0108));
#1448=CARTESIAN_POINT('',(0.0375,0.0131184541519212,-0.0108));
#1449=CARTESIAN_POINT('',(0.0375,0.0357369083038424,-0.0108));
#1450=CARTESIAN_POINT('',(0.0375,0.0357369083038424,-0.0108));
#1451=CARTESIAN_POINT('',(0.0375,0.0131184541519212,-0.0108));
#1452=CARTESIAN_POINT('',(0.0555,0.0321451429150775,-0.0108));
#1453=CARTESIAN_POINT('',(0.0555,0.0321451429150775,-0.0108));
#1454=CARTESIAN_POINT('',(0.0471681677681503,0.0485,-0.0108));
#1455=CARTESIAN_POINT('',(0.0471681677681503,0.0485,-0.0108));
#1456=CARTESIAN_POINT('',(0.0484095604884375,0.0491324161578158,-0.0108));
#1457=CARTESIAN_POINT('',(0.0509733648751829,0.050081930280839,-0.0102684978579255));
#1458=CARTESIAN_POINT('',(0.0535784479140178,0.0504464953854324,-0.00943261545108702));
#1459=CARTESIAN_POINT('',(0.0548934367312463,0.0504899748742132,-0.009));
#1460=CARTESIAN_POINT('',(0.,0.0205,-0.0108));
#1461=CARTESIAN_POINT('',(0.0375,0.0205,-0.0108));
#1462=CARTESIAN_POINT('',(0.0375,0.0425,-0.0108));
#1463=CARTESIAN_POINT('',(0.0435,0.0425,-0.0108));
#1464=CARTESIAN_POINT('',(0.0435,0.0485,-0.0108));
#1465=CARTESIAN_POINT('',(0.,0.0485,-0.0108));
#1466=CARTESIAN_POINT('',(-0.0365,-0.0095,-0.0108));
#1467=CARTESIAN_POINT('',(-0.0375,-0.0095,-0.0108));
#1468=CARTESIAN_POINT('',(-0.0375,-0.0095,-0.0108));
#1469=CARTESIAN_POINT('',(-0.0375,-0.0095,-0.0088));
#1470=CARTESIAN_POINT('',(-0.0555,0.0321451429150776,-0.0108));
#1471=CARTESIAN_POINT('',(-0.0548934367312459,0.0504899748742132,-0.009));
#1472=CARTESIAN_POINT('',(-0.0535780057829286,0.0504464807665752,-0.00943276090687972));
#1473=CARTESIAN_POINT('',(-0.0509547229341259,0.0500768824515287,-0.0102730917550103));
#1474=CARTESIAN_POINT('',(-0.0484116092253358,0.0491334598680747,-0.0108));
#1475=CARTESIAN_POINT('',(-0.0471681677681503,0.0485,-0.0108));
#1476=CARTESIAN_POINT('',(-0.0471681677681503,0.0485,-0.0108));
#1477=CARTESIAN_POINT('',(-0.0555,0.0321451429150776,-0.0108));
#1478=CARTESIAN_POINT('',(-0.0375,0.0357369083038424,-0.0108));
#1479=CARTESIAN_POINT('',(-0.0375,0.0357369083038424,-0.0108));
#1480=CARTESIAN_POINT('',(-0.0375,0.0131184541519212,-0.0108));
#1481=CARTESIAN_POINT('',(-0.0375,0.0131184541519212,-0.0108));
#1482=CARTESIAN_POINT('',(0.,0.0205,-0.0108));
#1483=CARTESIAN_POINT('',(-0.0435,0.0425,-0.0108));
#1484=CARTESIAN_POINT('',(-0.0435,0.0485,-0.0108));
#1485=CARTESIAN_POINT('',(-0.0375,0.0425,-0.0108));
#1486=CARTESIAN_POINT('',(-0.0375,0.0205,-0.0108));
#1487=CARTESIAN_POINT('',(0.,0.0485,-0.0108));
#1488=CARTESIAN_POINT('',(0.0475,-0.1025,-0.009));
#1489=CARTESIAN_POINT('',(-0.0475,-0.1025,-0.009));
#1490=CARTESIAN_POINT('',(-0.0435,0.0425,-0.009));
#1491=CARTESIAN_POINT('',(-0.0435,0.0425,-0.0088));
#1492=CARTESIAN_POINT('',(0.0435,0.0425,-0.009));
#1493=CARTESIAN_POINT('',(0.0435,0.0425,-0.0088));
#1494=CARTESIAN_POINT('',(0.,0.0485,-0.0088));
#1495=CARTESIAN_POINT('',(0.0435,0.0485,-0.0088));
#1496=CARTESIAN_POINT('',(0.0435,0.0425,-0.0088));
#1497=CARTESIAN_POINT('',(0.0375,0.0425,-0.0088));
#1498=CARTESIAN_POINT('',(0.0105,-0.0105,-0.0088));
#1499=CARTESIAN_POINT('',(0.0375,-0.0105,-0.0088));
#1500=CARTESIAN_POINT('',(0.0375,0.02,-0.0088));
#1501=CARTESIAN_POINT('',(-0.0455,0.0485,-0.0088));
#1502=CARTESIAN_POINT('',(-0.0435,0.0485,-0.0088));
#1503=CARTESIAN_POINT('',(-0.0435,0.0425,-0.0088));
#1504=CARTESIAN_POINT('',(-0.0375,0.0425,-0.0088));
#1505=CARTESIAN_POINT('',(-0.0105,-0.0105,-0.0088));
#1506=CARTESIAN_POINT('',(-0.0375,-0.0105,-0.0088));
#1507=CARTESIAN_POINT('',(-0.0375,0.0205,-0.0088));
#1508=MECHANICAL_DESIGN_GEOMETRIC_PRESENTATION_REPRESENTATION('',(#885),
#1509);
#1509=(
GEOMETRIC_REPRESENTATION_CONTEXT(3)
GLOBAL_UNCERTAINTY_ASSIGNED_CONTEXT((#1510))
GLOBAL_UNIT_ASSIGNED_CONTEXT((#1513,#1512,#1511))
REPRESENTATION_CONTEXT('upper_part','TOP_LEVEL_ASSEMBLY_PART')
);
#1510=UNCERTAINTY_MEASURE_WITH_UNIT(LENGTH_MEASURE(2.E-5),#1513,
'DISTANCE_ACCURACY_VALUE','Maximum Tolerance applied to model');
#1511=(
NAMED_UNIT(*)
SI_UNIT($,.STERADIAN.)
SOLID_ANGLE_UNIT()
);
#1512=(
NAMED_UNIT(*)
PLANE_ANGLE_UNIT()
SI_UNIT($,.RADIAN.)
);
#1513=(
LENGTH_UNIT()
NAMED_UNIT(*)
SI_UNIT($,.METRE.)
);
#1514=PRODUCT_DEFINITION_SHAPE('','',#1515);
#1515=PRODUCT_DEFINITION('','',#1517,#1516);
#1516=PRODUCT_DEFINITION_CONTEXT('',#1523,'design');
#1517=PRODUCT_DEFINITION_FORMATION_WITH_SPECIFIED_SOURCE('','',#1519,
 .NOT_KNOWN.);
#1518=PRODUCT_RELATED_PRODUCT_CATEGORY('','',(#1519));
#1519=PRODUCT('upper_part','upper_part','upper_part',(#1521));
#1520=PRODUCT_CATEGORY('','');
#1521=PRODUCT_CONTEXT('',#1523,'mechanical');
#1522=APPLICATION_PROTOCOL_DEFINITION('international standard',
'ap242_managed_model_based_3d_engineering',2020,#1523);
#1523=APPLICATION_CONTEXT('managed model based 3d engineering');
ENDSEC;
END-ISO-10303-21;
